<svg width="60" height="59" viewBox="0 0 60 59" fill="none" xmlns="http://www.w3.org/2000/svg">
<g clip-path="url(#clip0_205_1628)">
<path d="M30.4346 59C46.727 59 59.9346 45.7924 59.9346 29.5C59.9346 13.2076 46.727 0 30.4346 0C14.1422 0 0.93457 13.2076 0.93457 29.5C0.93457 45.7924 14.1422 59 30.4346 59Z" fill="#00C3CD"/>
<path d="M15.7947 29.41C24.3147 28 29.1947 23.1 30.5747 14.86C31.9347 23.09 36.8247 27.98 45.0747 29.36C36.8247 30.72 31.9447 35.62 30.5247 44.12C30.1147 40.2 28.6047 36.86 25.8647 34.11C23.1047 31.35 19.7647 29.82 15.7847 29.41H15.7947Z" fill="white"/>
</g>
<defs>
<clipPath id="clip0_205_1628">
<rect width="59" height="59" fill="white" transform="translate(0.93457)"/>
</clipPath>
</defs>
</svg>
