<svg fill="none" height="282" viewBox="0 0 257 282" width="308" xmlns="http://www.w3.org/2000/svg"><circle cx="128.686" cy="153.951" fill="#f2f9fa" opacity=".1" r="127.889"/><g fill="#7fa9c1"><path d="m150.931 202.902c-1.162 1.616-3.345 1.962-4.962.926-1.617-1.162-1.963-3.344-.926-4.96 1.036-1.617 3.344-1.962 4.962-.926 1.617 1.161 1.962 3.343.926 4.96z"/><path d="m158.155 211.284c-.66.926-1.916 1.114-2.827.533-.926-.659-1.115-1.915-.534-2.825s1.916-1.115 2.827-.534c.926.659 1.115 1.915.534 2.826z"/><path d="m67.9895 183.093c-.6595.926-1.9158 1.115-2.8265.534-.9265-.659-1.1149-1.915-.5339-2.826.581-.91 1.9157-1.114 2.8265-.533.9264.659 1.1149 1.915.5339 2.825z"/><path d="m166.022 60.035c-.66.9261-1.916 1.1145-2.827.5337-.926-.6592-1.115-1.9149-.534-2.8253s1.916-1.1144 2.827-.5337c.926.6593 1.115 1.915.534 2.8253z"/><path d="m162.19 137.637c-.66.926-1.916 1.115-2.827.534-.926-.659-1.115-1.915-.534-2.826.581-.91 1.916-1.114 2.827-.533.926.659 1.115 1.915.534 2.825z"/><path d="m36.0659 256.034c-.6752.941-1.9472 1.145-2.8893.533-.9422-.675-1.1463-1.946-.5339-2.888s1.9471-1.146 2.8893-.534c.9422.675 1.1463 1.947.5339 2.889z"/><path d="m206.708 143.037c-.487.675-1.414.832-2.089.392-.675-.486-.832-1.413-.392-2.087.439-.675 1.413-.832 2.088-.393.675.487.832 1.413.393 2.088z"/><path d="m163.886 100.923c-.66.926-1.916 1.115-2.827.534-.926-.659-1.114-1.915-.533-2.8254s1.915-1.1145 2.826-.5337c.927.6592 1.115 1.9151.534 2.8251z"/><path d="m98.7202 134.089c-.4239.581-1.2091.707-1.8058.33-.581-.424-.7066-1.209-.3297-1.805.3768-.597 1.2091-.707 1.8058-.33.581.424.7066 1.209.3297 1.805z"/><path d="m111.738 247.778c-.424.58-1.209.706-1.806.329-.581-.423-.707-1.208-.33-1.805.377-.596 1.209-.706 1.806-.329.581.423.707 1.208.33 1.805z"/><path d="m226.258 115.835c-.55.769-1.602.942-2.371.439-.77-.549-.942-1.601-.44-2.37.503-.769 1.602-.942 2.371-.439.77.549.943 1.601.44 2.37z"/><path d="m134.993 23.6825c-.424.5808-1.209.7063-1.806.3296-.581-.4238-.706-1.2086-.329-1.8051.376-.5964 1.209-.7063 1.805-.3296.581.4238.707 1.2086.33 1.8051z"/><path d="m181.379 163.143 4.789-.69-.816-4.772 2.999 3.814 3.674-3.045-1.743 4.427 4.476 1.663-4.79.691.817 4.772-2.999-3.814-3.659 3.045 1.79-4.442z"/><path d="m34.1504 172.608 4.805-.707-.8322-4.755 3.0149 3.814 3.6588-3.045-1.743 4.426 4.4752 1.664-4.7893.69.8322 4.756-3.0149-3.798-3.6587 3.029 1.8058-4.442z"/></g><path d="m180.736 135.236 39.586-5.336-71.636-70.2096-4.475 38.8483-47.0453 47.9523-39.571 5.336 71.6203 70.21 4.475-38.848z" stroke="#fff" stroke-miterlimit="10"/><path d="m132.214 128.77-111.5368 114.253 39.3512-1.539 43.6536-44.483" stroke="#fff" stroke-miterlimit="10"/><path d="m147.995 61.6839 7.145-48.7996" stroke="#fff" stroke-miterlimit="10"/><path d="m128.759 221.409-3.565 39.931" stroke="#fff" stroke-miterlimit="10"/><path d="m17.348 247.292c-2.1042-1.428-2.5439-4.301-1.0992-6.404 1.4289-2.103 4.3025-2.543 6.4067-1.099 2.1042 1.429 2.5438 4.301 1.0992 6.404-1.5389 1.994-4.4125 2.543-6.4067 1.099z" fill="#fff"/><path d="m131.178 187.443c-2.105-1.429-2.544-4.301-1.1-6.404 1.429-2.104 4.303-2.543 6.407-1.099 2.104 1.428 2.544 4.301 1.099 6.404-1.539 1.993-4.412 2.543-6.406 1.099z" fill="#fff"/><path d="m146.174 65.5768c-2.355-1.601-2.842-4.8188-1.24-7.1575 1.601-2.3545 4.82-2.841 7.16-1.24 2.355 1.601 2.842 4.8187 1.241 7.1575-1.728 2.2288-4.947 2.841-7.161 1.24z" fill="#fff"/><path d="m216.773 134.28c-2.826-1.931-3.423-5.792-1.491-8.618 1.931-2.825 5.794-3.421 8.62-1.491 2.827 1.931 3.424 5.792 1.492 8.618-2.088 2.668-5.951 3.421-8.621 1.491z" fill="#fff"/><path d="m94.4014 149.191c-1.8843-1.288-2.2926-3.877-.9892-5.761 1.2876-1.884 3.8785-2.292 5.7629-.989 1.8839 1.287 2.2929 3.877.9889 5.761-1.3972 1.789-3.9724 2.291-5.7626.989z" fill="#fff"/><path d="m177.862 138.705c-1.743-1.193-2.12-3.578-.926-5.321 1.193-1.742 3.58-2.119 5.323-.926s2.12 3.579.926 5.321c-1.287 1.648-3.674 2.119-5.323.926z" fill="#fff"/><path d="m134.601 222.304c0 2.527-2.088 4.614-4.616 4.614s-4.617-2.087-4.617-4.614 2.089-4.615 4.617-4.615 4.616 2.088 4.616 4.615z" fill="#fff"/><path d="m87.0214 180.112c-1.0678 1.491-3.0934 1.821-4.6009.848-1.4918-1.068-1.8215-3.092-.8479-4.599.9735-1.507 3.0934-1.821 4.6009-.848 1.4917 1.067 1.8215 3.092.8479 4.599z" fill="#fff"/><path d="m108.409 197.347c0 2.119-1.743 3.861-3.863 3.861s-3.863-1.742-3.863-3.861 1.743-3.861 3.863-3.861 3.863 1.742 3.863 3.861z" fill="#fff"/><path d="m60.4838 153.146c-.8794 1.224-2.5282 1.476-3.753.691-1.2248-.879-1.476-2.527-.6909-3.752.7851-1.224 2.5282-1.475 3.753-.69 1.2248.879 1.476 2.527.6909 3.751z" fill="#fff"/><path d="m131.68 131.046c-2.355-1.601-2.842-4.819-1.24-7.157 1.602-2.355 4.821-2.842 7.16-1.24 2.356 1.601 2.843 4.818 1.241 7.157-1.727 2.229-4.946 2.841-7.161 1.24z" fill="#fff"/><path d="m146.127 99.8888c-.989 1.3812-2.858 1.6792-4.24.7852-1.382-.9893-1.68-2.8571-.785-4.2384.895-1.3812 2.858-1.6795 4.24-.7848 1.382.9889 1.68 2.8567.785 4.238z" fill="#fff"/><path d="m140.16 12.8216 10.647-1.5539-1.838-10.563598 6.674 8.460278 8.134-6.74939-3.847 9.82581 9.94 3.673-10.647 1.5539 1.838 10.5636-6.674-8.4603-8.15 6.7494 4.004-9.8573z" fill="#ffa135"/><path d="m110.042 262.753 10.647-1.554-1.837-10.564 6.673 8.461 8.15-6.75-3.863 9.826 9.94 3.673-10.646 1.554 1.837 10.563-6.674-8.46-8.134 6.75 4.004-9.858z" fill="#ffa135"/><path d="m44.876 238.957 10.4109-2.684-2.9678-10.312 7.553 7.691 7.3646-7.581-2.7794 10.187 10.2696 2.59-10.4109 2.684 2.9678 10.312-7.553-7.707-7.3646 7.581 2.9207-10.233z" fill="#ffa135"/></svg>