<svg width="159" height="160" viewBox="0 0 159 160" fill="none" xmlns="http://www.w3.org/2000/svg">
<circle cx="79.596" cy="80.1241" r="79.2171" fill="#F2F9FA"/>
<g clip-path="url(#clip0_79_1872)">
<path d="M63.382 17.9734C62.2344 18.3584 36.2638 33.5613 36.2638 33.5613L18.7007 59.036" stroke="#0A4D69" stroke-miterlimit="10"/>
<path d="M93.4065 17.9734C94.5541 18.3584 120.525 33.5613 120.525 33.5613L138.088 59.036" stroke="#0A4D69" stroke-miterlimit="10"/>
<path d="M93.5564 138.603C94.704 138.218 120.675 123.015 120.675 123.015L138.238 97.54" stroke="#0A4D69" stroke-miterlimit="10"/>
<path d="M63.5319 138.603C62.3843 138.218 36.4138 123.015 36.4138 123.015L18.8506 97.54" stroke="#0A4D69" stroke-miterlimit="10"/>
<path d="M77.5275 34.8903C77.5275 35.6355 68.7833 68.9849 68.7833 68.9849L34.0437 78.1886L69.5318 89.1437L77.777 122.741L87.519 88.3984L121.76 79.1947L87.0201 69.7426L77.5275 34.9027V34.8903Z" stroke="#0A4D69" stroke-linejoin="round"/>
<path d="M70.143 62.8988L51.532 52.9499L62.3593 70.7487" stroke="#0A4D69" stroke-linejoin="round"/>
<path d="M85.6355 62.8988L104.246 52.9499L93.2445 71.2207" stroke="#0A4D69" stroke-linejoin="round"/>
<path d="M86.0845 94.9689L104.683 104.918L93.6935 86.6471" stroke="#0A4D69" stroke-linejoin="round"/>
<path d="M70.5794 94.9689L51.981 104.918L62.9704 86.6471" stroke="#0A4D69" stroke-linejoin="round"/>
<path d="M77.4277 36.0206C78.6127 36.0206 79.5732 35.0641 79.5732 33.8842C79.5732 32.7043 78.6127 31.7478 77.4277 31.7478C76.2428 31.7478 75.2822 32.7043 75.2822 33.8842C75.2822 35.0641 76.2428 36.0206 77.4277 36.0206Z" fill="#0A4D69"/>
<path d="M18.788 60.5762C19.7387 60.5762 20.5094 59.8088 20.5094 58.8621C20.5094 57.9155 19.7387 57.1481 18.788 57.1481C17.8373 57.1481 17.0667 57.9155 17.0667 58.8621C17.0667 59.8088 17.8373 60.5762 18.788 60.5762Z" fill="#0A4D69"/>
<path d="M37.3243 92.8077C38.3921 92.8077 39.2578 91.9458 39.2578 90.8826C39.2578 89.8193 38.3921 88.9574 37.3243 88.9574C36.2565 88.9574 35.3909 89.8193 35.3909 90.8826C35.3909 91.9458 36.2565 92.8077 37.3243 92.8077Z" fill="#598EAF"/>
<path d="M63.8062 140.267C64.8741 140.267 65.7397 139.405 65.7397 138.342C65.7397 137.279 64.8741 136.417 63.8062 136.417C62.7384 136.417 61.8728 137.279 61.8728 138.342C61.8728 139.405 62.7384 140.267 63.8062 140.267Z" fill="#0A4D69"/>
<path d="M36.738 125.226C37.9091 125.226 38.8585 124.28 38.8585 123.114C38.8585 121.948 37.9091 121.003 36.738 121.003C35.5668 121.003 34.6174 121.948 34.6174 123.114C34.6174 124.28 35.5668 125.226 36.738 125.226Z" fill="#0A4D69"/>
<path d="M63.0329 19.9979C64.0663 19.9979 64.904 19.1638 64.904 18.1348C64.904 17.1059 64.0663 16.2717 63.0329 16.2717C61.9996 16.2717 61.1619 17.1059 61.1619 18.1348C61.1619 19.1638 61.9996 19.9979 63.0329 19.9979Z" fill="#0A4D69"/>
<path d="M93.6437 19.7122C94.5806 19.7122 95.3402 18.956 95.3402 18.023C95.3402 17.0901 94.5806 16.3338 93.6437 16.3338C92.7068 16.3338 91.9473 17.0901 91.9473 18.023C91.9473 18.956 92.7068 19.7122 93.6437 19.7122Z" fill="#0A4D69"/>
<path d="M121.335 36.0454C122.383 36.0454 123.232 35.2001 123.232 34.1575C123.232 33.1148 122.383 32.2695 121.335 32.2695C120.288 32.2695 119.439 33.1148 119.439 34.1575C119.439 35.2001 120.288 36.0454 121.335 36.0454Z" fill="#0A4D69"/>
<path d="M137.364 100.384C138.453 100.384 139.335 99.5057 139.335 98.4219C139.335 97.338 138.453 96.4594 137.364 96.4594C136.276 96.4594 135.394 97.338 135.394 98.4219C135.394 99.5057 136.276 100.384 137.364 100.384Z" fill="#0A4D69"/>
<path d="M137.913 61.0854C138.836 61.0854 139.585 60.3403 139.585 59.4211C139.585 58.5018 138.836 57.7567 137.913 57.7567C136.99 57.7567 136.242 58.5018 136.242 59.4211C136.242 60.3403 136.99 61.0854 137.913 61.0854Z" fill="#0A4D69"/>
<path d="M77.6521 126.48C78.7681 126.48 79.6729 125.579 79.6729 124.468C79.6729 123.357 78.7681 122.456 77.6521 122.456C76.5361 122.456 75.6313 123.357 75.6313 124.468C75.6313 125.579 76.5361 126.48 77.6521 126.48Z" fill="#0A4D69"/>
<path d="M92.9826 141.012C94.0642 141.012 94.941 140.139 94.941 139.062C94.941 137.985 94.0642 137.112 92.9826 137.112C91.901 137.112 91.0242 137.985 91.0242 139.062C91.0242 140.139 91.901 141.012 92.9826 141.012Z" fill="#0A4D69"/>
<path d="M36.3512 27.736L37.3242 31.9217L41.5902 30.8784L38.372 33.7973L41.3782 36.9273L37.2494 35.6107L36.0643 39.784L35.0914 35.6107L30.8877 36.654L34.1059 33.7227L31.0249 30.5927L35.2286 31.8472L36.3512 27.736Z" fill="#598EAF"/>
<path d="M120.013 117.289L121.76 121.214L125.764 119.388L123.144 122.866L126.687 125.387L122.383 124.853L121.997 129.175L120.25 125.25L116.321 127.051L118.941 123.586L115.323 121.077L119.689 121.537L120.013 117.289Z" fill="#598EAF"/>
<path d="M77.8393 72.3137L78.8122 76.487L83.0783 75.4437L79.86 78.3625L82.8787 81.505L78.7498 80.176L77.5524 84.3617L76.5794 80.176L72.3882 81.2193L75.594 78.3004L72.5254 75.158L76.7166 76.4125L77.8393 72.3137Z" fill="#FFA135"/>
<path d="M121.847 53.0617L122.832 57.235L127.098 56.1917L123.88 59.123L126.886 62.253L122.757 60.924L121.572 65.1097L120.587 60.924L116.396 61.9797L119.614 59.0484L116.533 55.9184L120.737 57.1729L121.847 53.0617Z" fill="#FFA135"/>
<path d="M19.2746 91.5533L20.26 95.739L24.526 94.6957L21.3078 97.6145L24.314 100.745L20.1851 99.4279L19.0001 103.601L18.0272 99.4279L13.8235 100.471L17.0417 97.5524L13.9607 94.41L18.1644 95.6645L19.2746 91.5533Z" fill="#FFA135"/>
<path d="M150.562 100.049C150.013 99.6515 149.888 98.9063 150.25 98.3598C150.649 97.8133 151.398 97.6891 151.946 98.0493C152.495 98.4467 152.62 99.192 152.258 99.7385C151.859 100.322 151.111 100.446 150.562 100.049Z" fill="#598EAF"/>
<path d="M122.77 98.2356C122.77 99.0802 122.071 99.7012 121.298 99.7012C120.45 99.7012 119.826 99.0056 119.826 98.2356C119.826 97.391 120.525 96.7699 121.298 96.7699C122.146 96.6954 122.77 97.391 122.77 98.2356Z" fill="#598EAF"/>
<path d="M57.0579 122.307C56.509 121.922 56.3593 121.152 56.746 120.531C57.1327 119.984 57.9061 119.835 58.5298 120.22C59.0786 120.605 59.2283 121.375 58.8416 121.996C58.3801 122.617 57.5942 122.766 57.0579 122.307Z" fill="#598EAF"/>
<path d="M117.107 21.2151C116.832 21.0413 116.77 20.6438 116.957 20.3705C117.144 20.0973 117.531 20.0352 117.805 20.2215C118.08 20.3954 118.142 20.7928 117.955 21.0661C117.78 21.3393 117.381 21.4015 117.107 21.2151Z" fill="#598EAF"/>
<path d="M103.099 39.6846C103.099 40.5541 102.35 41.2993 101.477 41.2993C100.604 41.2993 99.8555 40.5541 99.8555 39.6846C99.8555 38.8152 100.604 38.07 101.477 38.07C102.35 38.07 103.099 38.8152 103.099 39.6846Z" fill="#598EAF"/>
<path d="M7.02528 56.0054C6.7758 55.8812 6.7758 55.5085 6.90054 55.2601C7.02528 55.0117 7.39949 55.0117 7.64897 55.1359C7.89845 55.2601 7.89845 55.6328 7.77371 55.8812C7.64897 56.1296 7.27475 56.2538 7.02528 56.0054Z" fill="#598EAF"/>
<path d="M39.3201 140.727C38.8835 140.404 38.659 139.745 39.0956 139.199C39.4199 138.764 40.081 138.541 40.6299 138.975C41.0664 139.298 41.291 139.957 40.8544 140.503C40.4178 140.938 39.7567 141.05 39.3201 140.727Z" fill="#598EAF"/>
<path d="M72.014 151.185C71.0161 151.483 69.9434 150.974 69.644 149.992C69.3446 149.011 69.8561 147.931 70.8415 147.632C71.8394 147.334 72.9121 147.844 73.2115 148.825C73.5109 149.819 72.9995 150.887 72.014 151.185Z" fill="#598EAF"/>
<path d="M38.4468 53.4343L39.5944 55.1484L41.3158 54.2913L40.1682 56.0178L42.1889 56.8748H40.1682V59.1726L39.0206 57.1605L37.2867 58.3032L38.1474 56.5891L36.426 55.434H38.4468V53.4343Z" fill="#598EAF"/>
<path d="M11.0419 116.916L11.703 119.748L14.5969 119.04L12.414 121.027L14.4472 123.151L11.6531 122.257L10.8423 125.089L10.1812 122.257L7.33716 122.965L9.52008 120.978L7.43695 118.854L10.281 119.711L11.0419 116.916Z" fill="#598EAF"/>
<path d="M25.8483 39.0636C25.5739 38.8897 25.5115 38.4923 25.6986 38.219C25.8857 37.9458 26.2724 37.8837 26.5468 38.07C26.8213 38.2439 26.8836 38.6413 26.6965 38.9146C26.5219 39.1878 26.1227 39.2499 25.8483 39.0636Z" fill="#598EAF"/>
<path d="M86.5336 126.257C86.2841 126.132 86.2841 125.76 86.4088 125.511C86.5336 125.263 86.9078 125.263 87.1573 125.387C87.4067 125.511 87.4067 125.884 87.282 126.132C87.1573 126.381 86.7831 126.505 86.5336 126.257Z" fill="#598EAF"/>
<path d="M152.982 46.5727L152.607 49.7648L155.813 50.0505L152.894 51.3671L154.204 54.2735L151.572 52.2986L149.689 54.9318L150.15 51.7397L146.957 51.454L149.876 50.1375L148.553 47.231L151.098 49.2059L152.982 46.5727Z" fill="#598EAF"/>
</g>
<defs>
<clipPath id="clip0_79_1872">
<rect width="149" height="135" fill="white" transform="translate(6.81323 16.2717)"/>
</clipPath>
</defs>
</svg>
