<svg width="160" height="160" viewBox="0 0 160 160" fill="none" xmlns="http://www.w3.org/2000/svg">
<circle cx="80.0829" cy="79.8927" r="79.2171" fill="#F2F9FA"/>
<path d="M58.1679 146.362L59.1579 150.642L63.3579 149.572L60.1479 152.542L63.1879 155.582L59.0679 154.352L57.8379 158.552L56.8479 154.272L52.6479 155.342L55.8579 152.372L52.8179 149.242L57.0179 150.562L58.1679 146.362Z" fill="#598EAF"/>
<path d="M34.0584 80.9457C33.105 80.2659 32.8978 78.9643 33.5112 78.0109C34.191 77.0575 35.4926 76.8503 36.446 77.4638C37.3994 78.1436 37.6066 79.4451 36.9931 80.3985C36.3133 81.4265 35.0118 81.6255 34.0584 80.9457Z" fill="#598EAF"/>
<path d="M86.54 152.107C85.6985 151.507 85.5156 150.358 86.0571 149.517C86.657 148.675 87.8058 148.492 88.6472 149.034C89.4886 149.634 89.6715 150.782 89.1301 151.624C88.5301 152.531 87.3814 152.707 86.54 152.107Z" fill="#598EAF"/>
<path d="M16.4657 68.2015C16.4657 69.1115 15.7257 69.7615 14.9057 69.7615C13.9957 69.7615 13.3457 69.0215 13.3457 68.2015C13.3457 67.2915 14.0857 66.6415 14.9057 66.6415C15.8157 66.5615 16.4657 67.3015 16.4657 68.2015Z" fill="#598EAF"/>
<path d="M57.223 135.316C56.643 134.906 56.483 134.076 56.893 133.426C57.303 132.846 58.133 132.686 58.783 133.096C59.363 133.506 59.523 134.336 59.113 134.986C58.623 135.646 57.793 135.806 57.223 135.316Z" fill="#598EAF"/>
<path d="M100.233 13.1355L99.833 16.5355L103.233 16.8355L100.133 18.2355L101.533 21.3355L98.733 19.2355L96.733 22.0355L97.233 18.6355L93.833 18.3355L96.933 16.9355L95.533 13.8355L98.233 15.9355L100.233 13.1355Z" fill="#598EAF"/>
<path d="M78.863 42.1656C77.963 41.5656 77.763 40.2656 78.363 39.3656C78.963 38.4656 80.263 38.2656 81.163 38.8656C82.063 39.4656 82.263 40.7656 81.663 41.6656C81.063 42.5656 79.763 42.7656 78.863 42.1656Z" fill="#598EAF"/>
<path d="M114.763 54.7655C114.763 55.4655 114.163 56.0655 113.463 56.0655C112.763 56.0655 112.163 55.4655 112.163 54.7655C112.163 54.0655 112.763 53.4655 113.463 53.4655C114.163 53.4655 114.763 54.0655 114.763 54.7655Z" fill="#598EAF"/>
<path d="M135.843 39.1755C135.123 38.8155 134.763 37.7355 135.483 36.6555C135.843 35.9355 136.923 35.5755 138.003 36.2955C139.083 37.0155 139.083 37.7355 138.363 38.8155C137.643 39.5355 136.563 39.8955 135.843 39.1755Z" fill="#598EAF"/>
<path d="M104.645 47.6696C103.791 47.1001 103.791 45.9611 104.361 45.3917C104.93 44.5374 106.069 44.5374 106.638 45.1069C107.493 45.6764 107.493 46.8154 106.923 47.3848C106.638 48.2391 105.499 48.2391 104.645 47.6696Z" fill="#598EAF"/>
<path d="M118.178 89.5028C117.324 88.9333 117.324 87.7944 117.893 87.2249C118.463 86.3706 119.602 86.3706 120.171 86.9401C121.026 87.5096 121.026 88.6486 120.456 89.2181C120.171 90.0723 119.032 90.0723 118.178 89.5028Z" fill="#598EAF"/>
<path d="M141.063 79.5756C140.863 79.4756 140.863 79.1756 140.963 78.9756C141.063 78.7756 141.363 78.7756 141.563 78.8756C141.763 78.9756 141.763 79.2756 141.663 79.4756C141.563 79.6756 141.263 79.7756 141.063 79.5756Z" fill="#598EAF"/>
<path d="M71.7531 105.547C71.5531 105.447 71.5531 105.147 71.6531 104.947C71.7531 104.747 72.0531 104.747 72.2531 104.847C72.4531 104.947 72.4531 105.247 72.3531 105.447C72.2531 105.647 71.9531 105.747 71.7531 105.547Z" fill="#598EAF"/>
<path d="M50.7336 135.492C50.5336 135.392 50.5336 135.092 50.6336 134.892C50.7336 134.692 51.0336 134.692 51.2336 134.792C51.4336 134.892 51.4336 135.192 51.3336 135.392C51.2336 135.592 50.9336 135.692 50.7336 135.492Z" fill="#598EAF"/>
<path d="M36.6754 73.2065C36.4754 73.1065 36.4755 72.8065 36.5755 72.6065C36.6755 72.4065 36.9754 72.4065 37.1754 72.5065C37.3754 72.6065 37.3755 72.9065 37.2755 73.1065C37.1755 73.3065 36.8754 73.4065 36.6754 73.2065Z" fill="#598EAF"/>
<path d="M46.1979 46.0056C45.3296 45.3564 44.8996 44.0581 45.7678 42.9708C46.417 42.1025 47.7153 41.6724 48.8027 42.5407C49.6709 43.1898 50.101 44.4882 49.2327 45.5755C48.3645 46.4438 47.0661 46.6629 46.1979 46.0056Z" fill="#0A4D69"/>
<path d="M24.1732 44.1355C23.1232 44.4555 21.9832 43.9155 21.6632 42.8555C21.3432 41.7955 21.8832 40.6655 22.9432 40.3455C23.9932 40.0255 25.1332 40.5655 25.4532 41.6255C25.7732 42.6755 25.2332 43.8155 24.1732 44.1355Z" fill="#598EAF"/>
<path d="M74.1432 108.906L75.3632 110.746L77.2032 109.826L75.9732 111.656L78.1132 112.576H75.9732V115.026L74.7532 112.886L72.9232 114.106L73.8332 112.276L72.0032 111.046H74.1432V108.906Z" fill="#598EAF"/>
<path d="M99.6947 104.327C98.4565 103.443 98.1873 101.758 98.9872 100.513C99.8716 99.2744 101.556 99.0052 102.802 99.805C104.04 100.689 104.309 102.374 103.509 103.62C102.625 104.858 100.941 105.127 99.6947 104.327Z" fill="#0A4D69"/>
<path d="M92.0631 129.586C90.9931 128.786 90.4631 127.186 91.5331 125.846C92.3331 124.776 93.9331 124.246 95.2731 125.316C96.3431 126.116 96.8731 127.716 95.8031 129.056C94.7331 130.126 93.1331 130.396 92.0631 129.586Z" fill="#0A4D69"/>
<path d="M141.713 113.606C140.643 112.806 140.113 111.206 141.183 109.866C141.983 108.796 143.583 108.266 144.923 109.336C145.993 110.136 146.523 111.736 145.453 113.076C144.383 114.146 142.783 114.416 141.713 113.606Z" fill="#0A4D69"/>
<path d="M41.7131 6.90552L47.4231 42.7755L65.7331 80.2155L101.913 101.916L143.053 111.636L141.313 139.726L93.4131 127.626L101.453 102.226" stroke="#0A4D69" stroke-miterlimit="10"/>
<path d="M138.974 57.8345L139.81 61.4347L143.461 60.5328L140.705 63.0493L143.279 65.7475L139.752 64.6057L138.734 68.1985L137.89 64.6057L134.297 65.5075L137.054 62.9911L134.421 60.2928L138.014 61.3692L138.974 57.8345Z" fill="#598EAF"/>
<path d="M27.4981 100.226L28.569 104.795L33.2032 103.65L29.7044 106.844L32.9724 110.26L28.4859 108.82L27.1935 113.38L26.1319 108.82L21.5715 109.965L25.0703 106.771L21.7192 103.346L26.2888 104.712L27.4981 100.226Z" fill="#598EAF"/>
<path d="M143.528 131.169L143.323 136.325L148.436 136.342L143.94 138.792L146.41 143.212L142.106 140.513L139.463 144.915L139.666 139.769L134.566 139.662L139.049 137.302L136.602 132.795L140.963 135.593L143.528 131.169Z" fill="#FFA135"/>
<path d="M64.7022 74.1323L66.8736 77.7053L70.3339 75.4262L68.3951 79.0948L72.0432 80.9721L67.9279 81.0779L68.1157 85.2343L65.9469 81.669L62.4559 83.8814L64.4254 80.2795L60.7542 78.333L64.9516 78.2682L64.7022 74.1323Z" fill="#FFA135"/>
<path d="M44.5222 2.51305L44.1522 7.57305L49.3122 7.89305L44.6622 10.063L46.9422 14.653L42.7722 11.713L39.9622 16.013L40.3322 10.953L35.2522 10.663L39.8922 8.49305L37.5422 3.87305L41.8122 6.76305L44.5222 2.51305Z" fill="#FFA135"/>
</svg>
