<svg fill="none" height="154" viewBox="0 0 204 154" width="204" xmlns="http://www.w3.org/2000/svg"><path d="m145.899 10.3435h-94.5071l-14.3592 14.1058v94.7427l14.3592 12.075h94.5071l14.35-14.106v-94.7422z" stroke="#0b2c41" stroke-miterlimit="10"/><path d="m160.249 22.4186-123.5036 35.552-34.58622 9.6585" stroke="#0b2c41" stroke-miterlimit="10"/><path d="m36.7454 131.267 39.7589-56.387 69.0237 19.3977-26.892 11.6533 35.782 31.212-12.301 13.028-35.791-31.222-9.1219 27.152-20.6998-70.9065-55.9164-24.7526" stroke="#0b2c41" stroke-miterlimit="10"/><path d="m75.7163 75.6974 84.7277-52.9552 33.705 53.1259" stroke="#0b2c41" stroke-miterlimit="10"/><g fill="#0b2c41"><path d="m121.139 106.829c-.871 1.177-2.521 1.438-3.745.674-1.214-.845-1.483-2.444-.695-3.63s2.521-1.437 3.745-.674c1.214.845 1.483 2.444.695 3.63z"/><path d="m143.906 152.884c-.871 1.177-2.521 1.438-3.745.674-1.214-.845-1.483-2.444-.695-3.63s2.522-1.437 3.745-.674c1.215.845 1.483 2.444.695 3.63z"/><path d="m54.9798 9.68769c0 1.52741-1.2978 2.78521-2.8737 2.78521s-2.8737-1.2578-2.8737-2.78521c0-1.52738 1.2978-2.78522 2.8737-2.78522s2.8737 1.25784 2.8737 2.78522z"/><path d="m148.866 130.054c0 1.195-1.011 2.175-2.244 2.175-1.232 0-2.243-.98-2.243-2.175s1.011-2.174 2.243-2.174c1.233 0 2.244.979 2.244 2.174z"/><path d="m45.6169 124.07c0 1.303-1.1124 2.381-2.4565 2.381s-2.4565-1.078-2.4565-2.381c0-1.302 1.1124-2.38 2.4565-2.38s2.4565 1.078 2.4565 2.38z"/><path d="m162.391 118.895c-.927 1.258-2.689 1.528-3.986.719-1.298-.898-1.576-2.605-.742-3.863.927-1.258 2.688-1.528 3.986-.719 1.298.898 1.669 2.605.742 3.863z"/><path d="m94.173 132.318c-.6675.908-1.9282 1.096-2.8644.512-.9363-.646-1.131-1.868-.5377-2.776.5933-.907 1.9281-1.096 2.8644-.512.9363.647 1.1309 1.869.5377 2.776z"/><path d="m103.86 132.336c-.519.701-1.492.854-2.215.405-.723-.503-.881-1.447-.418-2.148.464-.7 1.493-.853 2.216-.404.723.503.881 1.447.417 2.147z"/><path d="m122.363 132.462c-.631.854-1.826 1.033-2.707.485-.881-.611-1.066-1.77-.501-2.623.566-.854 1.827-1.033 2.707-.485.881.611 1.066 1.77.501 2.623z"/></g><path d="m166.575 107.347c-.461.628-1.334.761-1.983.362-.649-.447-.786-1.293-.374-1.922.411-.629 1.334-.762 1.983-.363.649.448.786 1.294.374 1.923z" fill="#7ebdbf"/><path d="m155.716 138.329c-.63.853-1.835 1.042-2.716.494-.88-.611-1.075-1.779-.51-2.632.566-.854 1.836-1.043 2.716-.495.881.611 1.076 1.779.51 2.633z" fill="#0b2c41"/><path d="m98.3442 148.104c-.4078.548-1.1772.674-1.752.315-.5654-.396-.6952-1.142-.3244-1.699s1.1773-.673 1.752-.314c.5655.395.6952 1.141.3244 1.698z" fill="#0b2c41"/><path d="m109.582 139.952c-.582.799-1.722.987-2.547.47-.825-.564-.994-1.669-.485-2.468.509-.8 1.722-.988 2.547-.47.824.564.994 1.669.485 2.468z" fill="#7ebdbf"/><path d="m78.9701 76.7937c-.8713 1.1769-2.5214 1.4375-3.745.6738-1.2144-.8445-1.4832-2.4438-.6953-3.6298.788-1.1859 2.5214-1.4375 3.7451-.6738 1.2143.8445 1.4832 2.4438.6952 3.6298z" fill="#0b2c41"/><path d="m39.1 24.4132c0 1.0242-.8714 1.8598-1.9189 1.8598s-1.9189-.8446-1.9189-1.8598c0-1.0153.8714-1.8599 1.9189-1.8599s1.9189.8446 1.9189 1.8599z" fill="#0b2c41"/><path d="m23.8695 51.7716c-.927 1.2578-2.6883 1.5273-3.9861.7187-1.2978-.8984-1.5759-2.6055-.7416-3.8633.927-1.2579 2.6883-1.5274 3.9861-.7188 1.2978.8984 1.6686 2.6055.7416 3.8634z" fill="#0b2c41"/><path d="m47.4986 47.7104c-.4079.557-1.1958.6738-1.7706.3145-.5747-.3954-.6952-1.1591-.3244-1.7161s1.1958-.6738 1.7705-.3145c.5748.3954.6953 1.1591.3245 1.7161z" fill="#7ebdbf"/><path d="m148.391 95.3519c-.927 1.2578-2.688 1.5274-3.986.7187-1.297-.8984-1.576-2.6055-.741-3.8633.927-1.2579 2.688-1.5274 3.986-.7188 1.298.8985 1.576 2.6055.741 3.8634z" fill="#0b2c41"/><path d="m115.778 54.5222c-.927 1.2578-2.688 1.5273-3.986.7187-1.298-.8984-1.576-2.6055-.742-3.8633.927-1.2579 2.689-1.5274 3.987-.7188 1.297.8985 1.575 2.6055.741 3.8634z" fill="#0b2c41"/><path d="m38.7199 59.013c-.6303.8535-1.8354 1.0422-2.7161.4941-.8806-.6109-1.0753-1.7789-.5098-2.6324.5654-.8536 1.8354-1.0423 2.7161-.4942.8806.611 1.0753 1.779.5098 2.6325z" fill="#0b2c41"/><path d="m145.685 78.9685c-.665.8941-1.921 1.0841-2.85.5141-.929-.6371-1.13-1.8553-.528-2.7495.602-.8941 1.921-1.0841 2.85-.5141.929.6371 1.13 1.8553.528 2.7495z" fill="#7ebdbf"/><path d="m51.0485 27.6678c-.614.8379-1.7793 1.0201-2.6438.4736-.8646-.5951-1.0526-1.7245-.4887-2.5625.5638-.8379 1.7792-1.0201 2.6438-.4736.8646.5951 1.0525 1.7245.4887 2.5625z" fill="#7ebdbf"/><path d="m122.587 115.548c-.325.44-.946.539-1.4.251-.454-.314-.556-.916-.26-1.356.297-.44.946-.539 1.4-.252.454.315.556.917.26 1.357z" fill="#7ebdbf"/><path d="m34.669 124.906 1.7612 6.226 6.3222-1.796-4.6258 4.51 4.839 4.474-6.4797-1.617-1.4832 6.262-1.7613-6.217-6.4148 1.797 4.7184-4.609-4.8389-4.385 6.387 1.626z" fill="#ffa135"/><path d="m143.999.145996 2.735 5.884914 5.96-2.71335-3.856 5.13919 5.497 3.70165-6.656-.6289-.473 6.415-2.725-5.8849-6.053 2.7313 3.921-5.256-5.469-3.60282 6.563.64689z" fill="#ffa135"/><path d="m162.047 22.5985c0 1.3118-1.112 2.3899-2.465 2.3899-1.354 0-2.466-1.0781-2.466-2.3899 0-1.3117 1.112-2.3899 2.466-2.3899 1.353 0 2.465 1.0782 2.465 2.3899z" fill="#0b2c41"/><path d="m4.29138 68.8513c-.60255.8176-1.74276.9883-2.57705.4672-.843569-.584-1.019698-1.6891-.48204-2.4977.60255-.8176 1.74275-.9883 2.57705-.4672.84356.584 1.07531 1.6891.48204 2.4977z" fill="#0b2c41"/><path d="m38.0154 119.291c-.5655.773-1.6501.934-2.438.44-.7972-.548-.9641-1.599-.4543-2.363.5655-.773 1.6501-.934 2.438-.44.7973.548 1.0197 1.599.4543 2.363z" fill="#0b2c41"/><path d="m52.4301 132.004c-.4172.566-1.2144.692-1.8077.323-.584-.404-.7138-1.177-.3337-1.752.4172-.566 1.2144-.692 1.8076-.323.5841.404.7602 1.177.3338 1.752z" fill="#0b2c41"/><path d="m53.18 121.276c-.3175.435-.939.538-1.3887.256-.4497-.308-.5422-.91-.2645-1.346s.939-.538 1.3886-.256c.4497.307.5423.91.2646 1.346z" fill="#7ebdbf"/><path d="m194.461 67.413 1.424 6.3103 6.409-1.4107-4.853 4.2278 4.585 4.7548-6.373-1.9964-1.816 6.1758-1.431-6.3206-6.494 1.4168 4.951-4.3227-4.589-4.6646 6.279 2.0011z" fill="#ffa135"/><g fill="#7ebdbf"><path d="m69.0262 80.3272c-.5274.7241-1.5383.8803-2.2855.4118-.7471-.5112-.9083-1.491-.4248-2.2151.4834-.7242 1.5383-.8804 2.2854-.4118.7472.5112.9083 1.4909.4249 2.2151z"/><path d="m128.889 38.0627c-.331.455-.98.5621-1.45.2677-.469-.3213-.566-.9503-.276-1.4054.29-.455.98-.5621 1.45-.2676.469.3212.566.9502.276 1.4053z"/><path d="m174.377 26.48c-.353.4762-1.029.584-1.521.2785-.491-.3414-.602-.9973-.287-1.4735.315-.4761 1.029-.584 1.52-.2785.492.3414.603.9973.288 1.4735z"/><path d="m184.35 69.3451c-.636.864-1.852 1.0547-2.755.4937-.891-.6172-1.088-1.7953-.509-2.6706.579-.8752 1.852-1.0547 2.755-.4937.891.6172 1.088 1.7953.509 2.6706z"/><path d="m62.0615 3.18287c-.3894.53009-1.1402.64689-1.6871.30547-.547-.37735-.6675-1.1051-.3152-1.63519.3522-.53009 1.1402-.64689 1.6871-.30548.5469.37735.6674 1.10511.3152 1.6352z"/><path d="m31.0881 68.4747c-.6335.8596-1.8463 1.0526-2.7332.4912-.8869-.614-1.086-1.7894-.5068-2.649s1.8462-1.0526 2.7332-.4912c.8869.614 1.086 1.7894.5068 2.649z"/><path d="m24.0705 73.6082c-.3065.4159-.8889.505-1.3027.2377-.4292-.2971-.5211-.8616-.2452-1.2627.2758-.401.8889-.505 1.3027-.2376.4291.2971.5211.8615.2452 1.2626z"/><path d="m73.4071 111.811 3.2059 2.33 2.267-3.107-.4351 3.817 3.9387.355-3.641 1.487 1.603 3.463-3.1372-2.264-2.3358 3.107.5038-3.817-3.9387-.355 3.641-1.487z"/><path d="m64.5189 16.8192 3.3141 2.392 2.327-3.1893-.4701 3.9182 4.0662.3645-3.7607 1.5263 1.6453 3.5538-3.2201-2.3236-2.3974 3.2121.5171-3.9411-4.0427-.3645 3.7606-1.5263z"/><path d="m197.533 65.7693 1.298.9434.917-1.2579-.176 1.5454 1.595.1437-1.474.602.649 1.4016-1.27-.9164-.946 1.2668.204-1.5543-1.594-.1438 1.474-.602z"/><path d="m123.165 97.7115c-.612.8403-1.811 1.038-2.678.4943-.867-.5931-1.045-1.7546-.51-2.5948.536-.8403 1.811-1.038 2.678-.4943.867.5931 1.045 1.7546.51 2.5948z"/></g><path d="m86.6992 45.4496c-.7519 1.0203-2.1655 1.2243-3.2181.583-1.0526-.7287-1.2632-2.0988-.6015-3.119.6616-1.0203 2.1654-1.2243 3.2181-.583 1.0526.7287 1.2632 2.0988.6015 3.119z" fill="#0b2c41"/><path d="m132.688 5.26189c-.36.48823-1.043.59285-1.529.27899-.504-.34874-.612-1.01134-.288-1.48214s1.044-.59286 1.529-.27899c.504.34874.612 1.01134.288 1.48214z" fill="#7ebdbf"/><path d="m87.3707 135.476c-.3308.449-.9593.545-1.4058.257-.4631-.321-.5624-.93-.2646-1.363.2977-.433.9592-.545 1.4058-.256.4631.32.5623.929.2646 1.362z" fill="#7ebdbf"/></svg>