<svg width="481" height="1078" viewBox="0 0 481 1078" fill="none" xmlns="http://www.w3.org/2000/svg">
<path d="M565.188 892.772L570.68 889.005L566.777 883.606L572.783 886.455L575.518 880.375L576.022 887.023L582.66 886.342L577.168 890.11L581.071 895.508L575.064 892.66L572.33 898.739L571.826 892.092L565.188 892.772Z" fill="#2B6F9A"/>
<path d="M492.127 762.917L497.619 759.149L493.727 753.719L499.754 756.61L502.457 750.52L502.993 757.178L509.63 756.497L504.138 760.265L508.041 765.663L502.035 762.815L499.3 768.894L498.765 762.236L492.127 762.917Z" fill="#2B6F9A"/>
<path d="M689.609 806.274C691.103 806.776 691.909 808.398 691.408 809.892C690.906 811.386 689.284 812.193 687.79 811.691C686.295 811.189 685.489 809.567 685.991 808.073C686.493 806.578 688.115 805.772 689.609 806.274Z" fill="#2B6F9A"/>
<path d="M717.509 730.628C719.003 731.13 719.81 732.752 719.308 734.246C718.806 735.741 717.184 736.547 715.69 736.045C714.195 735.543 713.389 733.921 713.891 732.427C714.393 730.933 716.015 730.126 717.509 730.628Z" fill="#2B6F9A"/>
<path d="M725.256 617.104C726.75 617.606 727.557 619.228 727.055 620.722C726.553 622.216 724.931 623.023 723.437 622.521C721.943 622.019 721.136 620.397 721.638 618.903C722.14 617.408 723.762 616.602 725.256 617.104Z" fill="#2B6F9A"/>
<path d="M660.595 828.402C661.097 826.906 660.292 825.286 658.796 824.784C657.3 824.281 655.68 825.087 655.178 826.583C654.676 828.078 655.481 829.698 656.977 830.201C658.472 830.703 660.092 829.898 660.595 828.402Z" fill="#2B6F9A"/>
<path d="M531.519 716.594C533.013 717.096 533.819 718.718 533.317 720.212C532.815 721.707 531.194 722.513 529.699 722.011C528.205 721.509 527.399 719.888 527.901 718.393C528.403 716.899 530.024 716.092 531.519 716.594Z" fill="#2B6F9A"/>
<path d="M551.367 856.362C551.869 854.866 551.064 853.246 549.568 852.744C548.072 852.241 546.452 853.047 545.95 854.543C545.448 856.039 546.253 857.658 547.749 858.161C549.244 858.663 550.864 857.858 551.367 856.362Z" fill="#2B6F9A"/>
<path d="M574.079 864.96C575.573 865.462 576.379 867.084 575.877 868.578C575.375 870.073 573.753 870.879 572.259 870.377C570.765 869.875 569.959 868.253 570.461 866.759C570.962 865.265 572.584 864.458 574.079 864.96Z" fill="#2B6F9A"/>
<path d="M632.707 816.853C631.001 818.116 628.593 817.758 627.298 816.041C626.035 814.335 626.394 811.926 628.11 810.632C629.816 809.369 632.225 809.728 633.519 811.444C634.782 813.15 634.423 815.559 632.707 816.853Z" fill="#2B6F9A"/>
<path d="M589.603 793.057C587.897 794.32 585.488 793.961 584.194 792.245C582.9 790.528 583.289 788.13 585.006 786.836C586.722 785.542 589.12 785.931 590.415 787.648C591.678 789.354 591.319 791.762 589.603 793.057Z" fill="#2B6F9A"/>
<path d="M491.31 734.304C489.604 735.567 487.196 735.209 485.902 733.492C484.639 731.786 484.997 729.377 486.714 728.083C488.42 726.82 490.828 727.179 492.122 728.895C493.385 730.601 493.027 733.01 491.31 734.304Z" fill="#2B6F9A"/>
<path d="M716.329 661.117C714.623 662.381 712.214 662.022 710.92 660.306C709.657 658.6 710.016 656.191 711.732 654.897C713.438 653.634 715.846 653.992 717.141 655.709C718.404 657.415 718.045 659.823 716.329 661.117Z" fill="#2B6F9A"/>
<path d="M717.066 733.494L689.166 809.139C689.166 809.139 689.061 809.347 688.947 809.378L658.135 827.887C658.135 827.887 657.823 827.991 657.678 827.907L630.21 814.178L587.064 790.403C587.064 790.403 586.95 790.33 586.929 790.288L530.608 719.822L489.675 731.538L500.397 756.964L549.022 855.09L573.928 867.265C574.115 867.328 574.187 867.526 574.197 867.702L574.687 889.658C574.707 889.907 574.53 890.125 574.239 890.166L541.486 894.339C541.486 894.339 541.185 894.307 541.05 894.193C540.947 894.089 540.895 893.933 540.916 893.767L548.107 855.545L499.461 757.378L488.502 731.421C488.502 731.421 488.461 731.13 488.503 731.006C488.545 730.881 488.68 730.788 488.805 730.726L530.579 718.773C530.579 718.773 530.994 718.774 531.108 718.951L587.575 789.604L630.596 813.338L657.794 826.942L688.222 808.649L716.038 733.253L713.448 658.037C713.448 658.037 713.48 657.944 713.49 657.913L723.827 619.708L724.782 619.959L714.466 658.102L717.046 733.348C717.046 733.348 717.004 733.473 716.993 733.504L717.066 733.494ZM542.018 893.271L573.691 889.219L573.23 868.001L549.04 856.17L542.06 893.25L542.018 893.271Z" fill="#2B6F9A"/>
<path d="M532.865 890.924L539.499 891.593L540.002 884.937L542.74 891.019L548.77 888.124L544.874 893.537L550.369 897.288L543.724 896.65L543.231 903.274L540.483 897.224L534.495 900.098L538.36 894.675L532.865 890.924Z" fill="#2B6F9A"/>
<path d="M575.277 636.332C576.772 636.834 577.578 638.455 577.076 639.95C576.574 641.444 574.952 642.251 573.458 641.749C571.964 641.247 571.157 639.625 571.659 638.131C572.161 636.636 573.783 635.83 575.277 636.332Z" fill="#2B6F9A"/>
<path d="M588.579 668.618C589.082 667.122 588.276 665.503 586.78 665C585.285 664.498 583.665 665.303 583.162 666.799C582.66 668.295 583.465 669.915 584.961 670.417C586.457 670.92 588.077 670.114 588.579 668.618Z" fill="#2B6F9A"/>
<path d="M606.096 710.219C606.599 708.723 605.793 707.104 604.298 706.601C602.802 706.099 601.182 706.904 600.68 708.4C600.177 709.896 600.983 711.516 602.478 712.018C603.974 712.521 605.594 711.715 606.096 710.219Z" fill="#2B6F9A"/>
<path d="M617.587 694.47C615.881 695.733 613.472 695.375 612.178 693.658C610.915 691.952 611.274 689.544 612.99 688.249C614.707 686.955 617.105 687.345 618.399 689.061C619.662 690.767 619.303 693.176 617.587 694.47Z" fill="#2B6F9A"/>
<path d="M644.973 730.309C643.267 731.572 640.858 731.214 639.564 729.497C638.27 727.781 638.66 725.383 640.376 724.088C642.082 722.825 644.49 723.184 645.785 724.9C647.048 726.606 646.689 729.015 644.973 730.309Z" fill="#2B6F9A"/>
<path d="M643.152 727.376C643.152 727.376 643.047 727.584 642.922 727.646C642.787 727.739 642.621 727.718 642.466 727.666L603.169 709.756C603.169 709.756 602.951 709.579 602.92 709.465C602.89 709.35 602.88 709.174 602.953 709.06L613.057 690.939L585.538 668.082C585.538 668.082 585.434 667.978 585.393 667.895L573.89 639.226L568.818 609.046L569.805 608.892L574.846 638.958L586.276 667.429L614.013 690.464C614.2 690.63 614.251 690.89 614.116 691.087L604.084 709.093L642.271 726.492L644.652 702.59L615.153 691.816L615.466 690.883L645.37 701.792C645.588 701.865 645.723 702.084 645.681 702.312L643.225 727.262C643.225 727.262 643.204 727.324 643.193 727.356L643.152 727.376Z" fill="#2B6F9A"/>
<path d="M634.195 697.831L640.829 698.5L641.322 691.875L644.07 697.926L650.058 695.052L646.193 700.475L651.689 704.226L645.054 703.557L644.551 710.213L641.813 704.131L635.794 706.994L639.679 701.613L634.195 697.831Z" fill="#2B6F9A"/>
<path d="M560.105 604.56L566.708 605.219L567.242 598.574L569.98 604.655L575.979 601.75L572.083 607.163L577.578 610.914L570.975 610.255L570.44 616.901L567.702 610.819L561.704 613.724L565.6 608.311L560.105 604.56Z" fill="#2B6F9A"/>
<path d="M816.614 488.98L823.2 487.935L822.042 481.379L826.225 486.561L831.303 482.273L828.911 488.467L835.178 490.745L828.602 491.759L829.791 498.325L825.577 493.133L820.489 497.452L822.891 491.227L816.614 488.98Z" fill="#2B6F9A"/>
<path d="M897.087 601.924L902.578 598.156L898.676 592.757L904.682 595.606L907.417 589.526L907.921 596.174L914.558 595.493L909.066 599.261L912.969 604.66L906.963 601.811L904.228 607.891L903.724 601.243L897.087 601.924Z" fill="#2B6F9A"/>
<path d="M786.197 743.027L791.7 739.228L787.797 733.829L793.793 736.709L796.527 730.63L797.042 737.246L803.669 736.597L798.177 740.364L802.08 745.763L796.084 742.883L793.349 748.963L792.835 742.346L786.197 743.027Z" fill="#2B6F9A"/>
<path d="M820.737 443.283L824.877 440.447L821.927 436.338L826.491 438.53L828.558 433.923L828.951 438.94L833.968 438.443L829.798 441.268L832.748 445.377L828.215 443.196L826.148 447.803L825.755 442.786L820.737 443.283Z" fill="#2B6F9A"/>
<path d="M820.137 596.485C818.431 597.748 816.023 597.39 814.729 595.673C813.466 593.967 813.824 591.559 815.541 590.264C817.247 589.001 819.655 589.36 820.949 591.076C822.212 592.782 821.854 595.191 820.137 596.485Z" fill="#2B6F9A"/>
<path d="M919.88 534.263C918.174 535.527 915.766 535.168 914.471 533.452C913.208 531.746 913.567 529.337 915.283 528.043C916.989 526.78 919.398 527.138 920.692 528.855C921.986 530.571 921.596 532.969 919.88 534.263Z" fill="#2B6F9A"/>
<path d="M809.935 671.423C808.229 672.686 805.82 672.327 804.526 670.611C803.263 668.905 803.621 666.496 805.338 665.202C807.044 663.939 809.452 664.297 810.747 666.014C812.01 667.72 811.651 670.128 809.935 671.423Z" fill="#2B6F9A"/>
<path d="M817.195 788.844C815.489 790.107 813.08 789.749 811.786 788.032C810.523 786.326 810.882 783.918 812.598 782.623C814.304 781.36 816.713 781.719 818.007 783.435C819.27 785.141 818.911 787.55 817.195 788.844Z" fill="#2B6F9A"/>
<path d="M734.994 473.207C733.288 474.47 730.88 474.112 729.586 472.395C728.323 470.689 728.681 468.281 730.398 466.986C732.114 465.692 734.512 466.082 735.806 467.798C737.069 469.504 736.711 471.913 734.994 473.207Z" fill="#2B6F9A"/>
<path d="M751.031 526.541C749.325 527.804 746.917 527.445 745.622 525.729C744.359 524.023 744.718 521.614 746.434 520.32C748.14 519.057 750.549 519.415 751.843 521.132C753.137 522.848 752.747 525.246 751.031 526.541Z" fill="#2B6F9A"/>
<path d="M785.497 531.395C783.792 532.659 781.383 532.3 780.089 530.584C778.826 528.878 779.184 526.469 780.901 525.175C782.607 523.911 785.015 524.27 786.309 525.987C787.572 527.693 787.214 530.101 785.497 531.395Z" fill="#2B6F9A"/>
<path d="M769.255 595.332L775.714 595.492L775.728 589.053L778.81 594.73L784.394 591.513L781.017 597.03L786.575 600.283L780.127 600.092L780.112 606.531L777.062 600.864L771.447 604.071L774.824 598.553L769.255 595.332Z" fill="#2B6F9A"/>
<path d="M826.35 650.087L832.335 648.356L830.459 642.39L834.966 646.71L839.183 642.099L837.694 648.181L843.797 649.503L837.801 651.266L839.688 657.2L835.181 652.88L830.995 657.502L832.442 651.44L826.35 650.087Z" fill="#2B6F9A"/>
<path d="M840.02 444.044C840.523 442.548 839.717 440.928 838.222 440.425C836.726 439.923 835.106 440.728 834.604 442.224C834.101 443.72 834.907 445.34 836.402 445.842C837.898 446.345 839.518 445.539 840.02 444.044Z" fill="#2B6F9A"/>
<path d="M715.684 520.801C717.178 521.303 717.984 522.925 717.483 524.419C716.981 525.913 715.359 526.72 713.865 526.218C712.37 525.716 711.564 524.094 712.066 522.6C712.568 521.105 714.19 520.299 715.684 520.801Z" fill="#2B6F9A"/>
<path d="M819.236 513.972C820.73 514.474 821.536 516.096 821.034 517.59C820.533 519.085 818.911 519.891 817.416 519.389C815.922 518.887 815.116 517.265 815.618 515.771C816.12 514.277 817.742 513.47 819.236 513.972Z" fill="#2B6F9A"/>
<path d="M880.656 643.729C882.15 644.231 882.956 645.853 882.454 647.347C881.952 648.841 880.33 649.648 878.836 649.146C877.342 648.644 876.536 647.022 877.038 645.528C877.539 644.033 879.161 643.227 880.656 643.729Z" fill="#2B6F9A"/>
<path d="M906.802 522.042C908.297 522.543 909.103 524.165 908.601 525.66C908.099 527.154 906.477 527.96 904.983 527.459C903.489 526.957 902.682 525.335 903.184 523.841C903.686 522.346 905.308 521.54 906.802 522.042Z" fill="#2B6F9A"/>
<path d="M988.526 610.22C990.02 610.722 990.827 612.344 990.325 613.838C989.823 615.332 988.201 616.139 986.707 615.637C985.212 615.135 984.406 613.513 984.908 612.019C985.41 610.524 987.032 609.718 988.526 610.22Z" fill="#2B6F9A"/>
<path d="M1002.03 611.258C1003.53 611.759 1004.34 613.381 1003.83 614.876C1003.33 616.37 1001.71 617.176 1000.22 616.675C998.721 616.173 997.915 614.551 998.416 613.056C998.918 611.562 1000.54 610.756 1002.03 611.258Z" fill="#2B6F9A"/>
<path d="M1001.09 614.475L987.657 613.427L879.859 646.926C879.859 646.926 879.444 646.925 879.33 646.748C879.205 646.602 879.185 646.353 879.269 646.208L905.174 598.473L917.042 531.058L918.018 531.248L906.118 598.756C906.118 598.756 906.087 598.849 906.066 598.912L880.703 645.65L987.42 612.482C987.42 612.482 987.534 612.451 987.597 612.472L1001.09 613.54L1001.01 614.517L1001.09 614.475Z" fill="#2B6F9A"/>
<path d="M906.181 598.673L905.184 598.65L905.374 524.749L906.381 524.741L906.181 598.673Z" fill="#2B6F9A"/>
<path d="M826.237 490.445C826.164 490.663 825.946 490.797 825.707 490.786C825.447 490.734 825.271 490.536 825.282 490.297L826.88 440.878L827.877 440.901L826.446 485.595L836.866 443.019L837.831 443.239L826.289 490.393C826.289 490.393 826.289 490.393 826.279 490.424L826.237 490.445Z" fill="#2B6F9A"/>
<path d="M880.213 646.594C880.213 646.594 880.192 646.656 880.182 646.688C880.129 646.843 879.963 646.926 879.786 646.936L835.071 650.833C834.853 650.864 834.635 650.687 834.563 650.49L817.506 593.904L778.711 597.399C778.492 597.43 778.306 597.263 778.223 597.097L748.441 523.938L714.815 524.008C714.815 524.008 714.504 523.903 714.4 523.799C714.307 523.664 714.286 523.519 714.339 523.363L732.271 469.971C732.344 469.753 732.521 469.64 732.728 469.64C732.936 469.641 733.133 469.776 733.195 470.005L749.149 523.068L783.159 527.838L817.953 516.348L825.313 490.204L826.268 490.455L818.908 516.703L880.214 646.283C880.214 646.283 880.265 646.542 880.234 646.636L880.213 646.594ZM835.385 649.796L878.989 646.01L818.086 517.293L783.333 528.763C783.333 528.763 783.188 528.784 783.115 528.794L749.5 524.086L778.972 596.413L817.809 592.897C818.058 592.877 818.245 593.043 818.317 593.241L835.375 649.827L835.385 649.796ZM715.472 522.981L748.09 522.92L732.703 471.676L715.472 522.981Z" fill="#2B6F9A"/>
<path d="M835.299 650.772L807.915 668.77C807.915 668.77 807.635 668.883 807.479 668.831C807.323 668.779 807.22 668.675 807.158 668.55L778.171 597.149L779.096 596.766L807.856 667.607L834.741 649.96L835.289 650.803L835.299 650.772Z" fill="#2B6F9A"/>
<path d="M815.354 785.558L814.46 785.951L794.491 739.993C794.491 739.993 794.45 739.806 794.45 739.702L807.127 668.228L808.103 668.417L795.437 739.756L815.354 785.558Z" fill="#2B6F9A"/>
<path d="M394.827 724.625L400.319 720.857L396.416 715.459L402.453 718.318L405.157 712.228L405.692 718.886L412.329 718.205L406.838 721.973L410.74 727.372L404.703 724.513L401.999 730.603L401.464 723.944L394.827 724.625Z" fill="#2B6F9A"/>
<path d="M473.919 610.223L479.411 606.456L475.508 601.057L481.546 603.916L484.249 597.826L484.785 604.484L491.422 603.803L485.93 607.571L489.833 612.97L483.796 610.111L481.092 616.201L480.557 609.542L473.919 610.223Z" fill="#2B6F9A"/>
<path d="M394.401 642.965L398.551 640.098L395.601 635.989L400.165 638.18L402.232 633.574L402.625 638.591L407.642 638.093L403.492 640.961L406.453 645.038L401.878 642.878L399.822 647.453L399.428 642.436L394.401 642.965Z" fill="#2B6F9A"/>
<path d="M451.625 686.816C449.919 688.079 447.51 687.721 446.216 686.004C444.953 684.298 445.312 681.89 447.028 680.595C448.734 679.332 451.143 679.691 452.437 681.407C453.7 683.113 453.341 685.522 451.625 686.816Z" fill="#2B6F9A"/>
<path d="M354.724 686.94C356.219 687.442 357.025 689.064 356.523 690.558C356.021 692.053 354.399 692.859 352.905 692.357C351.411 691.855 350.605 690.233 351.106 688.739C351.608 687.245 353.23 686.438 354.724 686.94Z" fill="#2B6F9A"/>
<path d="M343.823 685.773C345.317 686.275 346.123 687.897 345.622 689.391C345.12 690.886 343.498 691.692 342.004 691.19C340.509 690.688 339.703 689.067 340.205 687.572C340.707 686.078 342.329 685.271 343.823 685.773Z" fill="#2B6F9A"/>
<path d="M349.5 668.869C350.995 669.371 351.801 670.992 351.299 672.487C350.797 673.981 349.175 674.788 347.681 674.286C346.187 673.784 345.381 672.162 345.882 670.668C346.384 669.173 348.006 668.367 349.5 668.869Z" fill="#2B6F9A"/>
<path d="M483.097 607.139C483.097 607.139 483.097 607.139 483.086 607.17L449.794 683.914C449.794 683.914 449.741 684.07 449.658 684.111L403.91 721.821C403.754 721.976 403.515 721.965 403.339 721.871L353.679 690.157L342.912 689.001C342.912 689.001 342.632 688.907 342.539 688.772C342.446 688.636 342.425 688.491 342.478 688.335L348.155 671.431L349.089 671.744L343.61 688.057L353.64 689.139L400.483 640.123C400.483 640.123 400.587 640.019 400.66 640.009L482.496 606.556C482.496 606.556 482.89 606.515 483.046 606.671C483.17 606.817 483.211 607.004 483.159 607.159L483.097 607.139ZM448.922 683.414L481.693 607.914L401.094 640.882L354.573 689.557L403.559 720.802L448.954 683.424L448.922 683.414Z" fill="#2B6F9A"/>
<path d="M377.103 505.405L382.595 501.637L378.693 496.238L384.699 499.087L387.433 493.008L387.969 499.666L394.606 498.985L389.114 502.753L393.017 508.151L386.98 505.292L384.276 511.382L383.741 504.724L377.103 505.405Z" fill="#2B6F9A"/>
<path d="M420.606 500.269C418.9 501.532 416.492 501.174 415.198 499.457C413.935 497.751 414.293 495.343 416.01 494.048C417.726 492.754 420.124 493.144 421.418 494.86C422.713 496.577 422.323 498.975 420.606 500.269Z" fill="#2B6F9A"/>
<path d="M342.563 528.518C344.057 529.02 344.863 530.641 344.362 532.136C343.86 533.63 342.238 534.437 340.743 533.935C339.249 533.433 338.443 531.811 338.945 530.317C339.447 528.822 341.069 528.016 342.563 528.518Z" fill="#2B6F9A"/>
<path d="M377.725 524.287C379.219 524.789 380.026 526.411 379.524 527.905C379.022 529.399 377.4 530.206 375.906 529.704C374.411 529.202 373.605 527.58 374.107 526.086C374.609 524.591 376.231 523.785 377.725 524.287Z" fill="#2B6F9A"/>
<path d="M418.4 497.657L386.207 502.642L377.271 527.183C377.209 527.37 377.032 527.484 376.855 527.494L342.244 531.632L352.721 568.409L351.765 568.677L341.133 531.328C341.133 531.328 341.124 531.048 341.197 530.934C341.27 530.82 341.405 530.727 341.55 530.706L376.421 526.516L385.346 502.007C385.398 501.851 385.544 501.727 385.731 501.686L418.216 496.66L418.369 497.647L418.4 497.657Z" fill="#2B6F9A"/>
<path d="M345.197 566.16L351.58 567.991L353.287 561.567L354.893 568.03L361.304 566.269L356.527 570.9L361.262 575.574L354.848 573.731L353.172 580.166L351.567 573.703L345.124 575.454L349.933 570.833L345.197 566.16Z" fill="#2B6F9A"/>
<path d="M291.176 189.417L167.345 281.795L177.276 289.357L211.115 278.03L211.424 278.966L177.315 290.375C177.315 290.375 176.993 290.405 176.858 290.291L166.181 282.166C166.181 282.166 165.984 281.927 166.005 281.761C166.016 281.626 166.099 281.481 166.203 281.377L290.576 188.626L291.176 189.417Z" fill="#2B6F9A"/>
<path d="M179.49 292.976C177.784 294.239 175.375 293.881 174.081 292.164C172.818 290.458 173.177 288.05 174.893 286.755C176.599 285.492 179.007 285.851 180.302 287.567C181.565 289.273 181.206 291.682 179.49 292.976Z" fill="#2B6F9A"/>
<path d="M291.806 186.303C293.3 186.805 294.107 188.427 293.605 189.921C293.103 191.415 291.481 192.222 289.987 191.72C288.492 191.218 287.686 189.596 288.188 188.102C288.69 186.607 290.312 185.801 291.806 186.303Z" fill="#2B6F9A"/>
<path d="M167.423 279.085C168.917 279.587 169.724 281.209 169.222 282.703C168.72 284.197 167.098 285.004 165.604 284.502C164.11 284 163.303 282.378 163.805 280.884C164.307 279.389 165.929 278.583 167.423 279.085Z" fill="#2B6F9A"/>
<path d="M205.088 274.621L211.723 275.29L212.226 268.634L214.964 274.716L220.952 271.842L217.098 277.234L222.583 281.016L215.948 280.347L215.445 287.002L212.707 280.921L206.688 283.784L210.584 278.372L205.088 274.621Z" fill="#2B6F9A"/>
<path d="M111.853 302.514L116.003 299.647L113.042 295.569L117.607 297.76L119.673 293.154L120.067 298.171L125.084 297.673L120.913 300.499L123.863 304.608L119.33 302.427L117.263 307.033L116.87 302.016L111.853 302.514Z" fill="#2B6F9A"/>
<path d="M177.727 373.729C176.021 374.992 173.612 374.633 172.318 372.917C171.055 371.211 171.414 368.802 173.13 367.508C174.836 366.245 177.245 366.603 178.539 368.32C179.802 370.026 179.443 372.434 177.727 373.729Z" fill="#2B6F9A"/>
<path d="M186.664 393.429C188.159 393.931 188.965 395.553 188.463 397.047C187.961 398.541 186.339 399.348 184.845 398.846C183.351 398.344 182.544 396.722 183.046 395.228C183.548 393.733 185.17 392.927 186.664 393.429Z" fill="#2B6F9A"/>
<path d="M153.56 369.665C155.055 370.167 155.861 371.789 155.359 373.284C154.857 374.778 153.235 375.584 151.741 375.082C150.247 374.581 149.44 372.959 149.942 371.464C150.444 369.97 152.066 369.164 153.56 369.665Z" fill="#2B6F9A"/>
<path d="M128.625 361.291C130.119 361.793 130.925 363.414 130.423 364.909C129.921 366.403 128.299 367.21 126.805 366.708C125.311 366.206 124.505 364.584 125.007 363.09C125.508 361.595 127.13 360.789 128.625 361.291Z" fill="#2B6F9A"/>
<path d="M134.39 324.114C135.884 324.616 136.691 326.238 136.189 327.732C135.687 329.227 134.065 330.033 132.571 329.531C131.077 329.029 130.27 327.407 130.772 325.913C131.274 324.419 132.896 323.612 134.39 324.114Z" fill="#2B6F9A"/>
<path d="M109.152 243.821C109.655 242.325 108.849 240.705 107.353 240.203C105.858 239.7 104.238 240.506 103.735 242.001C103.233 243.497 104.038 245.117 105.534 245.62C107.03 246.122 108.65 245.317 109.152 243.821Z" fill="#2B6F9A"/>
<path d="M186.222 396.294C186.222 396.294 186.159 396.481 186.045 396.512C185.858 396.657 185.619 396.646 185.453 396.521L152.4 372.81L127.527 364.456C127.309 364.383 127.144 364.154 127.186 363.925L132.92 326.946L117.985 300.347C117.985 300.347 117.944 300.264 117.933 300.191L105.924 243.014L106.891 242.819L118.889 299.923L133.866 326.606C133.866 326.606 133.938 326.803 133.927 326.938L128.204 363.678L152.673 371.896L175.326 370.151C175.544 370.12 175.73 370.287 175.813 370.453L186.15 395.993C186.15 395.993 186.212 396.221 186.17 396.346L186.222 396.294ZM154.041 372.772L184.657 394.764L175.095 371.147L154.041 372.772Z" fill="#2B6F9A"/>
<path d="M302.899 385.351L308.39 381.583L304.488 376.184L310.494 379.033L313.229 372.953L313.733 379.601L320.37 378.92L314.878 382.688L318.781 388.087L312.775 385.238L310.04 391.317L309.536 384.67L302.899 385.351Z" fill="#2B6F9A"/>
<path d="M21.681 679.605L27.1728 675.838L23.2701 670.439L29.3075 673.298L32.0111 667.208L32.5462 673.866L39.1837 673.185L33.6919 676.953L37.5946 682.352L31.5883 679.503L28.8536 685.583L28.3184 678.925L21.681 679.605Z" fill="#2B6F9A"/>
<path d="M52.927 902.709L57.0409 897.474L51.6915 893.495L58.2733 894.423L59.0777 887.799L61.5663 894.005L67.689 891.35L63.5645 896.616L68.914 900.595L62.301 899.656L61.5278 906.291L59.0392 900.085L52.927 902.709Z" fill="#2B6F9A"/>
<path d="M136.392 706.492L141.894 702.693L137.991 697.294L143.987 700.174L146.722 694.094L147.236 700.711L153.874 700.03L148.371 703.829L152.274 709.228L146.278 706.348L143.544 712.427L143.029 705.811L136.392 706.492Z" fill="#2B6F9A"/>
<path d="M231.238 465.145C229.532 466.408 227.123 466.05 225.829 464.333C224.566 462.627 224.925 460.219 226.641 458.924C228.347 457.661 230.755 458.02 232.05 459.736C233.313 461.442 232.954 463.851 231.238 465.145Z" fill="#2B6F9A"/>
<path d="M168.924 472.035C167.218 473.298 164.809 472.94 163.515 471.223C162.252 469.517 162.611 467.109 164.327 465.814C166.033 464.551 168.442 464.91 169.736 466.626C170.999 468.332 170.64 470.741 168.924 472.035Z" fill="#2B6F9A"/>
<path d="M124.549 667.593C122.843 668.856 120.434 668.497 119.14 666.781C117.877 665.075 118.235 662.666 119.952 661.372C121.668 660.078 124.066 660.468 125.361 662.184C126.655 663.901 126.265 666.299 124.549 667.593Z" fill="#2B6F9A"/>
<path d="M6.98919 841.759C5.2832 843.022 2.87476 842.663 1.58059 840.947C0.286423 839.23 0.676142 836.832 2.39259 835.538C4.09858 834.275 6.50702 834.633 7.80119 836.35C9.06423 838.056 8.70564 840.464 6.98919 841.759Z" fill="#2B6F9A"/>
<path d="M127.507 441.358C125.801 442.621 123.392 442.262 122.098 440.546C120.835 438.84 121.194 436.431 122.91 435.137C124.616 433.874 127.024 434.232 128.319 435.949C129.582 437.655 129.223 440.063 127.507 441.358Z" fill="#2B6F9A"/>
<path d="M210.931 530.35C209.225 531.613 206.817 531.254 205.523 529.538C204.229 527.821 204.618 525.423 206.335 524.129C208.051 522.835 210.449 523.224 211.743 524.941C213.006 526.647 212.648 529.056 210.931 530.35Z" fill="#2B6F9A"/>
<path d="M228.848 656.166C227.142 657.429 224.734 657.07 223.44 655.354C222.176 653.648 222.535 651.239 224.252 649.945C225.968 648.651 228.366 649.04 229.66 650.757C230.954 652.473 230.565 654.871 228.848 656.166Z" fill="#2B6F9A"/>
<path d="M184.432 479.392C185.926 479.894 186.733 481.516 186.231 483.01C185.729 484.504 184.107 485.311 182.613 484.809C181.119 484.307 180.312 482.685 180.814 481.191C181.316 479.697 182.938 478.89 184.432 479.392Z" fill="#2B6F9A"/>
<path d="M241.761 477.029C243.256 477.531 244.062 479.152 243.56 480.647C243.058 482.141 241.436 482.947 239.942 482.446C238.448 481.944 237.641 480.322 238.143 478.828C238.645 477.333 240.267 476.527 241.761 477.029Z" fill="#2B6F9A"/>
<path d="M295.085 469.059C296.579 469.56 297.385 471.182 296.883 472.677C296.381 474.171 294.759 474.977 293.265 474.475C291.771 473.974 290.965 472.352 291.467 470.857C291.968 469.363 293.59 468.557 295.085 469.059Z" fill="#2B6F9A"/>
<path d="M322.756 439.066C324.25 439.568 325.056 441.19 324.555 442.684C324.053 444.179 322.431 444.985 320.937 444.483C319.442 443.981 318.636 442.359 319.138 440.865C319.64 439.371 321.262 438.564 322.756 439.066Z" fill="#2B6F9A"/>
<path d="M280.226 409.123C281.72 409.625 282.527 411.247 282.025 412.741C281.523 414.236 279.901 415.042 278.407 414.54C276.912 414.038 276.106 412.416 276.608 410.922C277.11 409.428 278.732 408.621 280.226 409.123Z" fill="#2B6F9A"/>
<path d="M152.611 462.122C154.106 462.624 154.912 464.246 154.41 465.74C153.908 467.234 152.286 468.041 150.792 467.539C149.298 467.037 148.491 465.415 148.993 463.921C149.495 462.427 151.117 461.62 152.611 462.122Z" fill="#2B6F9A"/>
<path d="M184.296 756.74C185.79 757.241 186.596 758.863 186.094 760.358C185.593 761.852 183.971 762.658 182.476 762.156C180.982 761.655 180.176 760.033 180.678 758.538C181.18 757.044 182.802 756.238 184.296 756.74Z" fill="#2B6F9A"/>
<path d="M104.778 698.507C105.281 697.011 104.475 695.391 102.979 694.889C101.484 694.386 99.8639 695.192 99.3615 696.688C98.8591 698.183 99.6644 699.803 101.16 700.306C102.656 700.808 104.276 700.003 104.778 698.507Z" fill="#2B6F9A"/>
<path d="M133.957 785.84C135.451 786.342 136.258 787.964 135.756 789.458C135.254 790.952 133.632 791.759 132.138 791.257C130.643 790.755 129.837 789.133 130.339 787.639C130.841 786.144 132.463 785.338 133.957 785.84Z" fill="#2B6F9A"/>
<path d="M156.008 829.206C157.503 829.708 158.309 831.33 157.807 832.825C157.305 834.319 155.683 835.125 154.189 834.623C152.695 834.121 151.888 832.5 152.39 831.005C152.892 829.511 154.514 828.705 156.008 829.206Z" fill="#2B6F9A"/>
<path d="M16.4561 725.486C17.9504 725.988 18.7567 727.61 18.2548 729.104C17.7529 730.598 16.131 731.405 14.6368 730.903C13.1425 730.401 12.3362 728.779 12.8381 727.285C13.34 725.791 14.9619 724.984 16.4561 725.486Z" fill="#2B6F9A"/>
<path d="M10.1511 744.258C11.6454 744.76 12.4517 746.382 11.9498 747.877C11.4479 749.371 9.82605 750.177 8.33179 749.675C6.83754 749.174 6.03125 747.552 6.53314 746.057C7.03503 744.563 8.65688 743.757 10.1511 744.258Z" fill="#2B6F9A"/>
<path d="M97.2731 706.206C98.7674 706.708 99.5737 708.33 99.0718 709.824C98.5699 711.319 96.948 712.125 95.4538 711.623C93.9595 711.121 93.1532 709.499 93.6551 708.005C94.157 706.511 95.7789 705.704 97.2731 706.206Z" fill="#2B6F9A"/>
<path d="M39.4216 496.512C40.9159 497.014 41.7222 498.636 41.2203 500.13C40.7184 501.624 39.0965 502.431 37.6023 501.929C36.108 501.427 35.3017 499.805 35.8036 498.311C36.3055 496.816 37.9274 496.01 39.4216 496.512Z" fill="#2B6F9A"/>
<path d="M129.245 412.355C130.739 412.857 131.545 414.479 131.043 415.974C130.542 417.468 128.92 418.274 127.425 417.772C125.931 417.271 125.125 415.649 125.627 414.154C126.129 412.66 127.751 411.854 129.245 412.355Z" fill="#2B6F9A"/>
<path d="M195.513 519.836C197.008 520.338 197.814 521.96 197.312 523.454C196.81 524.949 195.188 525.755 193.694 525.253C192.2 524.751 191.394 523.129 191.895 521.635C192.397 520.141 194.019 519.334 195.513 519.836Z" fill="#2B6F9A"/>
<path d="M233.772 596.43C234.275 594.934 233.47 593.315 231.974 592.812C230.478 592.31 228.858 593.115 228.356 594.611C227.853 596.107 228.659 597.727 230.154 598.229C231.65 598.732 233.27 597.926 233.772 596.43Z" fill="#2B6F9A"/>
<path d="M243.512 592.392C244.015 590.896 243.209 589.276 241.714 588.774C240.218 588.271 238.598 589.077 238.096 590.572C237.593 592.068 238.398 593.688 239.894 594.191C241.39 594.693 243.01 593.888 243.512 592.392Z" fill="#2B6F9A"/>
<path d="M259.023 598.398C259.526 596.903 258.72 595.283 257.225 594.78C255.729 594.278 254.109 595.083 253.607 596.579C253.104 598.075 253.909 599.695 255.405 600.197C256.901 600.7 258.521 599.894 259.023 598.398Z" fill="#2B6F9A"/>
<path d="M155.525 831.677L154.652 832.111L132.59 788.776L95.9164 709.111C95.9164 709.111 95.8755 708.82 95.9173 708.695L101.634 697.347L121.304 665.083L30.8258 676.822L15.9928 728.31L9.70879 747.02L5.09347 839.77L61.0407 896.808L60.3226 897.502L4.21991 840.309C4.21991 840.309 4.08542 840.09 4.06498 839.945L8.70171 746.924C8.70171 746.924 8.73307 746.831 8.74353 746.8L15.0485 728.027L29.9445 676.249C30.0072 676.062 30.1529 675.938 30.3606 675.938L122.179 664.026C122.366 663.984 122.542 664.078 122.656 664.255C122.77 664.432 122.749 664.598 122.655 664.774L102.495 697.879L96.9033 708.957L133.484 788.383L155.546 831.718L155.525 831.677Z" fill="#2B6F9A"/>
<path d="M183.792 759.169L182.981 759.727L144.727 703.54L121.835 664.741C121.835 664.741 121.763 664.544 121.752 664.471L129.625 536.958L38.9571 499.959L30.9205 676.438L29.9341 676.384L37.993 499.22C37.993 499.22 38.0976 498.908 38.2223 498.846C38.3575 498.753 38.5341 498.743 38.6897 498.795L130.333 536.191C130.52 536.254 130.654 536.472 130.622 536.67L122.718 664.38L145.528 703.012L183.761 759.158L183.792 759.169Z" fill="#2B6F9A"/>
<path d="M256.503 597.032L256.19 597.966L240.792 592.032L231.53 595.885L227.028 653.129L226.052 653.044L230.586 595.499C230.607 595.333 230.701 595.156 230.899 595.084L240.639 591.045C240.639 591.045 240.898 590.994 241.023 591.036L256.545 597.011L256.503 597.032Z" fill="#2B6F9A"/>
<path d="M231.532 595.366L230.596 595.676L208.207 527.633L194.447 523.012C194.447 523.012 194.167 522.814 194.147 522.668L183.271 483.055L130.518 536.981C130.351 537.168 130.071 537.177 129.874 537.042C129.677 536.906 129.605 536.605 129.74 536.408L165.908 469.256L151.576 465.308C151.576 465.308 151.42 465.256 151.348 465.162L124.865 438.599C124.865 438.599 124.71 438.339 124.731 438.173L127.848 414.969L128.813 415.086L125.707 438.051L151.931 464.353L166.741 468.427C166.741 468.427 167 468.583 167.062 468.708C167.124 468.833 167.103 468.999 167.061 469.123L132.228 533.745L183.139 481.694C183.139 481.694 183.441 481.519 183.596 481.571C183.752 481.623 183.918 481.748 183.928 481.925L194.958 522.109L208.718 526.731C208.718 526.731 208.977 526.887 209.028 527.043L231.48 595.314L231.532 595.366Z" fill="#2B6F9A"/>
<path d="M322.188 442.097L294.548 472.1C294.548 472.1 294.361 472.245 294.257 472.245L240.934 480.215C240.747 480.256 240.57 480.162 240.446 480.016L228.751 462.647L183.719 482.547L183.326 481.653L228.722 461.598C228.93 461.494 229.179 461.578 229.314 461.796L241.05 479.249L293.896 471.361L321.421 441.493L322.136 442.149L322.188 442.097Z" fill="#2B6F9A"/>
<path d="M311.971 382.473L279.648 412.185C279.648 412.185 279.544 412.289 279.471 412.299L220.181 432.053L229.386 461.89L228.451 462.199L219.091 431.895C219.009 431.625 219.165 431.366 219.404 431.273L279.048 411.395L311.277 381.755L311.94 382.463L311.971 382.473Z" fill="#2B6F9A"/>
<path d="M219.869 432.157L166.915 469.351L166.356 468.54L219.279 431.335L219.869 432.157Z" fill="#2B6F9A"/>
<path d="M213.789 425.091L219.472 428.594L222.85 422.869L222.627 429.515L229.294 429.571L223.419 432.726L226.708 438.507L221.025 435.005L217.648 440.73L217.871 434.084L211.204 434.027L217.078 430.873L213.789 425.091Z" fill="#2B6F9A"/>
<path d="M123.179 530.671L129.269 533.375L131.817 527.232L132.539 533.849L139.125 533.013L133.758 536.926L137.795 542.232L131.706 539.528L129.127 545.66L128.446 539.022L121.819 539.88L127.217 535.977L123.179 530.671Z" fill="#2B6F9A"/>
<path d="M375.659 310.741L381.13 306.932L377.227 301.533L383.254 304.424L385.989 298.344L386.503 304.96L393.14 304.28L387.638 308.079L391.541 313.477L385.545 310.598L382.81 316.677L382.265 310.05L375.659 310.741Z" fill="#2B6F9A"/>
<path d="M447.316 268.811L452.777 265.033L448.874 259.634L454.911 262.493L457.646 256.414L458.15 263.061L464.787 262.381L459.296 266.148L463.198 271.547L457.192 268.698L454.457 274.778L453.922 268.12L447.316 268.811Z" fill="#2B6F9A"/>
<path d="M427.102 216.777L429.836 210.698L423.705 208.119L430.342 207.438L429.516 200.821L433.408 206.251L438.714 202.212L435.979 208.292L442.131 210.912L435.504 211.562L436.299 218.169L432.428 212.781L427.102 216.777Z" fill="#2B6F9A"/>
<path d="M334.223 447.006L338.404 444.149L335.444 440.071L339.987 442.221L342.054 437.614L342.448 442.631L347.465 442.134L343.315 445.001L346.275 449.079L341.7 446.919L339.644 451.494L339.251 446.477L334.223 447.006Z" fill="#2B6F9A"/>
<path d="M446.191 329.406L450.372 326.549L447.411 322.472L451.955 324.621L454.022 320.015L454.405 325.063L459.432 324.534L455.282 327.402L458.243 331.479L453.668 329.319L451.601 333.926L451.218 328.878L446.191 329.406Z" fill="#2B6F9A"/>
<path d="M402.513 333.722C400.807 334.985 398.399 334.626 397.105 332.91C395.842 331.204 396.2 328.795 397.917 327.501C399.623 326.238 402.031 326.596 403.325 328.313C404.588 330.019 404.23 332.427 402.513 333.722Z" fill="#2B6F9A"/>
<path d="M429.431 392.407C427.725 393.67 425.317 393.312 424.022 391.595C422.759 389.889 423.118 387.48 424.834 386.186C426.54 384.923 428.949 385.282 430.243 386.998C431.506 388.704 431.147 391.113 429.431 392.407Z" fill="#2B6F9A"/>
<path d="M351.872 304.103C353.366 304.605 354.173 306.227 353.671 307.721C353.169 309.216 351.547 310.022 350.053 309.52C348.558 309.018 347.752 307.397 348.254 305.902C348.756 304.408 350.378 303.601 351.872 304.103Z" fill="#2B6F9A"/>
<path d="M376.085 296.68C376.588 295.185 375.782 293.565 374.287 293.062C372.791 292.56 371.171 293.365 370.669 294.861C370.166 296.357 370.972 297.977 372.467 298.479C373.963 298.982 375.583 298.176 376.085 296.68Z" fill="#2B6F9A"/>
<path d="M417.193 217.295C418.687 217.797 419.494 219.419 418.992 220.913C418.49 222.407 416.868 223.214 415.374 222.712C413.88 222.21 413.073 220.588 413.575 219.094C414.077 217.599 415.699 216.793 417.193 217.295Z" fill="#2B6F9A"/>
<path d="M453.84 235.977C454.342 234.482 453.537 232.862 452.041 232.359C450.546 231.857 448.926 232.662 448.423 234.158C447.921 235.654 448.726 237.274 450.222 237.776C451.718 238.279 453.338 237.473 453.84 235.977Z" fill="#2B6F9A"/>
<path d="M443.628 287.423C445.123 287.925 445.929 289.547 445.427 291.042C444.925 292.536 443.303 293.342 441.809 292.84C440.315 292.339 439.508 290.717 440.01 289.222C440.512 287.728 442.134 286.922 443.628 287.423Z" fill="#2B6F9A"/>
<path d="M448.045 335.953C448.547 334.458 447.742 332.838 446.246 332.335C444.75 331.833 443.13 332.638 442.628 334.134C442.126 335.63 442.931 337.25 444.427 337.752C445.922 338.255 447.542 337.449 448.045 335.953Z" fill="#2B6F9A"/>
<path d="M486.918 312.113C488.412 312.615 489.218 314.237 488.716 315.731C488.214 317.226 486.593 318.032 485.098 317.53C483.604 317.028 482.798 315.406 483.3 313.912C483.802 312.418 485.423 311.611 486.918 312.113Z" fill="#2B6F9A"/>
<path d="M498.543 319.067C499.046 317.571 498.24 315.951 496.745 315.449C495.249 314.946 493.629 315.752 493.127 317.247C492.624 318.743 493.43 320.363 494.925 320.865C496.421 321.368 498.041 320.562 498.543 319.067Z" fill="#2B6F9A"/>
<path d="M489.431 334.748C489.934 333.253 489.128 331.633 487.632 331.13C486.137 330.628 484.517 331.433 484.014 332.929C483.512 334.425 484.317 336.045 485.813 336.547C487.309 337.05 488.929 336.244 489.431 334.748Z" fill="#2B6F9A"/>
<path d="M416.47 392.419C416.973 390.924 416.168 389.304 414.672 388.801C413.176 388.299 411.556 389.104 411.054 390.6C410.551 392.096 411.357 393.716 412.852 394.218C414.348 394.721 415.968 393.915 416.47 392.419Z" fill="#2B6F9A"/>
<path d="M424.437 409.853C425.931 410.355 426.738 411.977 426.236 413.471C425.734 414.966 424.112 415.772 422.618 415.27C421.124 414.768 420.317 413.146 420.819 411.652C421.321 410.158 422.943 409.351 424.437 409.853Z" fill="#2B6F9A"/>
<path d="M412.696 308.457C414.19 308.958 414.997 310.58 414.495 312.075C413.993 313.569 412.371 314.375 410.877 313.874C409.382 313.372 408.576 311.75 409.078 310.255C409.58 308.761 411.202 307.955 412.696 308.457Z" fill="#2B6F9A"/>
<path d="M390.152 375.578C391.647 376.08 392.453 377.701 391.951 379.196C391.449 380.69 389.827 381.496 388.333 380.995C386.839 380.493 386.032 378.871 386.534 377.377C387.036 375.882 388.658 375.076 390.152 375.578Z" fill="#2B6F9A"/>
<path d="M496.302 318.313C496.302 318.313 496.281 318.376 496.27 318.407L487.148 334.12L486.308 333.63L495.117 318.435L486.027 315.382L453.101 327.397L445.71 335.377L435.427 354.338L427.6 389.401L423.984 412.646C423.963 412.812 423.869 412.988 423.682 413.029L341.019 445.027L340.668 444.112L423.051 412.228L426.613 389.243L434.441 354.076C434.441 354.076 434.472 353.982 434.483 353.951L444.89 334.824L452.417 326.647C452.417 326.647 452.521 326.544 452.605 326.502L485.812 314.375C485.812 314.375 486.03 314.344 486.123 314.375L495.929 317.669C495.929 317.669 496.188 317.825 496.24 317.981C496.271 318.095 496.271 318.199 496.239 318.293L496.302 318.313Z" fill="#2B6F9A"/>
<path d="M427.194 389.785L413.813 391.977C413.813 391.977 413.606 391.977 413.492 391.904L388.972 378.68C388.765 378.576 388.672 378.337 388.735 378.15L399.717 330.496C399.717 330.496 399.748 330.403 399.769 330.34L411.33 310.873C411.33 310.873 411.403 310.759 411.486 310.718L442.367 289.737L455.548 265.444L450.675 235.191L432.797 210.133L416.574 220.378L416.056 219.546L432.675 209.053C432.894 208.918 433.184 208.981 433.329 209.168L451.558 234.726C451.558 234.726 451.62 234.851 451.662 234.934L456.576 265.478C456.576 265.478 456.576 265.685 456.513 265.768L443.217 290.299C443.217 290.299 443.133 290.445 443.05 290.486L412.17 311.467L400.734 330.768L389.836 377.965L413.888 390.928L427.092 388.746L427.246 389.733L427.194 389.785Z" fill="#2B6F9A"/>
<path d="M389.711 378.235L388.714 378.316L383.88 307.717L373.241 296.383L351.159 307.259L350.724 306.386L373.129 295.376C373.129 295.376 373.565 295.314 373.721 295.471L384.743 307.21C384.743 307.21 384.857 307.387 384.888 307.501L389.731 378.277L389.711 378.235Z" fill="#2B6F9A"/>
<path d="M426.663 349.489L433.297 350.158L433.79 343.534L436.539 349.584L442.558 346.721L438.662 352.133L444.157 355.884L437.523 355.215L437.02 361.871L434.281 355.789L428.293 358.663L432.148 353.271L426.663 349.489Z" fill="#2B6F9A"/>
<path d="M639.994 119.15L642.729 113.07L636.608 110.46L643.235 109.81L642.409 103.193L646.311 108.592L651.637 104.595L648.872 110.664L655.034 113.254L648.397 113.934L649.192 120.541L645.331 115.122L639.994 119.15Z" fill="#2B6F9A"/>
<path d="M649.818 237.086L653.968 234.219L651.008 230.141L655.572 232.332L657.639 227.726L658.032 232.743L663.06 232.214L658.91 235.081L661.829 239.18L657.296 236.999L655.229 241.606L654.835 236.589L649.818 237.086Z" fill="#2B6F9A"/>
<path d="M543.838 198.131L547.977 195.295L545.027 191.186L549.56 193.367L551.627 188.76L552.052 193.788L557.037 193.28L552.887 196.147L555.848 200.225L551.315 198.044L549.248 202.65L548.823 197.623L543.838 198.131Z" fill="#2B6F9A"/>
<path d="M416.886 70.0958C415.18 71.359 412.771 71.0005 411.477 69.284C410.183 67.5675 410.573 65.1694 412.289 63.8752C414.006 62.5809 416.404 62.9705 417.698 64.687C418.961 66.393 418.602 68.8015 416.886 70.0958Z" fill="#2B6F9A"/>
<path d="M488.073 78.9695C486.367 80.2326 483.959 79.8741 482.665 78.1577C481.402 76.4516 481.76 74.043 483.477 72.7487C485.183 71.4856 487.591 71.8442 488.885 73.5607C490.148 75.2667 489.79 77.6752 488.073 78.9695Z" fill="#2B6F9A"/>
<path d="M409.644 162.103C407.938 163.366 405.53 163.008 404.236 161.292C402.973 159.585 403.331 157.177 405.048 155.883C406.764 154.588 409.162 154.978 410.456 156.695C411.719 158.401 411.361 160.809 409.644 162.103Z" fill="#2B6F9A"/>
<path d="M567.252 258.48C565.546 259.743 563.138 259.385 561.844 257.668C560.55 255.952 560.939 253.554 562.656 252.259C564.362 250.996 566.77 251.355 568.064 253.071C569.327 254.777 568.969 257.186 567.252 258.48Z" fill="#2B6F9A"/>
<path d="M522.476 125.376C520.77 126.639 518.362 126.281 517.067 124.564C515.804 122.858 516.163 120.45 517.879 119.155C519.585 117.892 521.994 118.251 523.288 119.967C524.582 121.684 524.192 124.082 522.476 125.376Z" fill="#2B6F9A"/>
<path d="M627.182 358.74C625.476 360.003 623.067 359.644 621.773 357.928C620.51 356.222 620.868 353.813 622.585 352.519C624.291 351.256 626.699 351.614 627.994 353.331C629.288 355.047 628.898 357.445 627.182 358.74Z" fill="#2B6F9A"/>
<path d="M559.908 254.663C560.41 253.167 559.605 251.547 558.109 251.045C556.614 250.542 554.994 251.348 554.491 252.843C553.989 254.339 554.794 255.959 556.29 256.461C557.786 256.964 559.406 256.158 559.908 254.663Z" fill="#2B6F9A"/>
<path d="M490.682 100.909C491.184 99.4132 490.379 97.7934 488.883 97.291C487.387 96.7886 485.767 97.594 485.265 99.0898C484.763 100.586 485.568 102.206 487.064 102.708C488.559 103.21 490.179 102.405 490.682 100.909Z" fill="#2B6F9A"/>
<path d="M477.992 91.6584C478.495 90.1626 477.689 88.5427 476.194 88.0403C474.698 87.5379 473.078 88.3433 472.576 89.8392C472.073 91.335 472.879 92.9549 474.374 93.4573C475.87 93.9596 477.49 93.1543 477.992 91.6584Z" fill="#2B6F9A"/>
<path d="M466.916 75.9516C468.41 76.4535 469.217 78.0754 468.715 79.5697C468.213 81.064 466.591 81.8704 465.097 81.3686C463.603 80.8667 462.796 79.2448 463.298 77.7505C463.8 76.2561 465.422 75.4497 466.916 75.9516Z" fill="#2B6F9A"/>
<path d="M510.419 43.6895C511.913 44.1913 512.72 45.8133 512.218 47.3077C511.716 48.802 510.094 49.6084 508.6 49.1065C507.106 48.6047 506.299 46.9828 506.801 45.4884C507.303 43.9941 508.925 43.1876 510.419 43.6895Z" fill="#2B6F9A"/>
<path d="M503.773 29.7477C505.268 30.2496 506.074 31.8715 505.572 33.3658C505.07 34.8601 503.448 35.6665 501.954 35.1647C500.46 34.6628 499.654 33.0409 500.155 31.5466C500.657 30.0522 502.279 29.2459 503.773 29.7477Z" fill="#2B6F9A"/>
<path d="M414.695 19.7849C416.19 20.2867 416.996 21.9086 416.494 23.403C415.992 24.8973 414.37 25.7038 412.876 25.2019C411.382 24.7001 410.576 23.0781 411.077 21.5837C411.579 20.0894 413.201 19.283 414.695 19.7849Z" fill="#2B6F9A"/>
<path d="M330.541 77.2645C332.035 77.7663 332.841 79.3882 332.339 80.8826C331.838 82.3769 330.216 83.1834 328.721 82.6815C327.227 82.1797 326.421 80.5577 326.923 79.0633C327.425 77.569 329.046 76.7626 330.541 77.2645Z" fill="#2B6F9A"/>
<path d="M320.006 79.2348C320.508 77.7389 319.703 76.119 318.207 75.6167C316.711 75.1143 315.092 75.9197 314.589 77.4155C314.087 78.9114 314.892 80.5314 316.388 81.0337C317.884 81.5361 319.504 80.7306 320.006 79.2348Z" fill="#2B6F9A"/>
<path d="M450.295 28.485C451.79 28.9868 452.596 30.6088 452.094 32.1032C451.592 33.5975 449.97 34.4039 448.476 33.902C446.982 33.4002 446.175 31.7783 446.677 30.2839C447.179 28.7896 448.801 27.9831 450.295 28.485Z" fill="#2B6F9A"/>
<path d="M485.695 124.732C487.189 125.234 487.996 126.856 487.494 128.35C486.992 129.844 485.37 130.651 483.876 130.149C482.382 129.647 481.575 128.025 482.077 126.531C482.579 125.036 484.201 124.23 485.695 124.732Z" fill="#2B6F9A"/>
<path d="M559.715 271.019C561.209 271.521 562.016 273.143 561.514 274.637C561.012 276.132 559.39 276.938 557.896 276.436C556.402 275.934 555.595 274.312 556.097 272.818C556.599 271.324 558.221 270.517 559.715 271.019Z" fill="#2B6F9A"/>
<path d="M631.753 285.098L638.398 285.736L638.891 279.111L641.639 285.162L647.627 282.288L643.762 287.711L649.258 291.462L642.623 290.793L642.12 297.448L639.382 291.367L633.352 294.261L637.248 288.849L631.753 285.098Z" fill="#2B6F9A"/>
<path d="M565.441 255.517L559.283 273.853C559.209 274.071 558.991 274.206 558.752 274.195C558.524 274.153 558.337 273.986 558.317 273.737L556.743 253.773L557.74 253.692L559.154 271.246L564.549 255.182L565.483 255.496L565.441 255.517Z" fill="#2B6F9A"/>
<path d="M625.36 355.807C625.308 355.962 625.162 356.087 624.975 356.128C624.788 356.169 624.581 356.065 624.487 355.929L578.677 289.444L558.524 274.153L559.138 273.354L579.374 288.708C579.374 288.708 579.457 288.77 579.478 288.812L624.73 354.486L640.383 289.417L582.85 290.014L582.831 289.038L640.987 288.442C640.987 288.442 641.268 288.536 641.371 288.64C641.464 288.775 641.485 288.921 641.474 289.056L625.422 355.828C625.422 355.828 625.422 355.828 625.412 355.859L625.36 355.807Z" fill="#2B6F9A"/>
<path d="M641.422 289.003L640.489 288.69L655.867 234.752L610.409 163.812L551.008 195.966L578.883 285.633L577.947 285.942L549.959 195.891C549.897 195.662 549.981 195.413 550.189 195.31L610.349 162.753C610.568 162.618 610.848 162.712 610.982 162.931L656.802 234.443C656.802 234.443 656.885 234.713 656.874 234.848L641.402 289.066L641.422 289.003Z" fill="#2B6F9A"/>
<path d="M610.786 162.691L610.379 163.594L519.969 122.732L488.377 100.862L485.263 127.462C485.231 127.659 485.148 127.805 484.961 127.846L407.533 159.419L407.151 158.494L484.329 127.045L487.486 99.9048C487.507 99.7387 487.601 99.5624 487.757 99.5108C487.923 99.4281 488.089 99.4493 488.224 99.5638L520.408 121.84L610.755 162.681L610.786 162.691Z" fill="#2B6F9A"/>
<path d="M488.276 99.616L487.692 100.425L475.002 91.174C475.002 91.174 474.909 91.1427 474.899 91.07L465.715 79.1167L414.565 67.5153L329.702 80.4821C329.702 80.4821 329.599 80.4819 329.567 80.4714L317.234 78.8235C317.037 78.7919 316.85 78.6253 316.809 78.4383C316.768 78.2513 316.841 78.0333 317.049 77.9299L413.506 22.0878L413.982 22.9405L318.773 78.0584L329.611 79.5161L414.505 66.5597C414.505 66.5597 414.609 66.5599 414.682 66.5497L466.091 78.2036C466.091 78.2036 466.309 78.2767 466.371 78.4015L475.606 90.4069L488.244 99.6055L488.276 99.616Z" fill="#2B6F9A"/>
<path d="M509.977 46.5548C509.977 46.5548 509.966 46.5859 509.956 46.617C509.903 46.7727 509.768 46.8658 509.623 46.8862L414.711 67.4948L414.516 66.5285L508.835 46.0329L502.603 32.9231L449.436 31.6608L449.459 30.664L502.938 31.9269C503.114 31.9169 503.28 32.0419 503.363 32.2083L510.009 46.1497C510.009 46.1497 510.06 46.4095 510.029 46.5029L509.977 46.5548Z" fill="#2B6F9A"/>
<path d="M645.711 112.34L503.745 78.6208L485.826 76.3788L466.12 79.1488L465.997 78.1723L485.776 75.3921C485.776 75.3921 485.849 75.3819 485.911 75.4028L503.965 77.6555L645.993 111.395L645.773 112.361L645.711 112.34Z" fill="#2B6F9A"/>
<path d="M570.72 290.651L576.46 287.279L572.952 281.632L578.739 284.926L581.92 279.066L581.967 285.733L588.614 285.541L582.884 288.882L586.35 294.55L580.563 291.255L577.413 297.126L577.366 290.459L570.72 290.651Z" fill="#2B6F9A"/>
<path d="M601.635 158.891L608.154 160.214L609.353 153.653L611.457 159.972L617.724 157.712L613.309 162.708L618.378 167.008L611.859 165.685L610.67 172.215L608.566 165.896L602.299 168.156L606.703 163.191L601.635 158.891Z" fill="#2B6F9A"/>
<path d="M496.832 73.0073L503.047 75.3371L505.232 69.0382L506.348 75.6146L512.873 74.3416L507.744 78.5776L512.115 83.6139L505.858 81.3046L503.683 87.5724L502.598 81.0065L496.042 82.2691L501.171 78.0331L496.832 73.0073Z" fill="#2B6F9A"/>
<path d="M648.812 10.0703L652.962 7.20299L650.001 3.12526L654.576 5.28529L656.632 0.710083L657.026 5.72704L662.053 5.1983L657.903 8.06569L660.833 12.133L656.289 9.9833L654.222 14.5897L653.829 9.57271L648.812 10.0703Z" fill="#2B6F9A"/>
<path d="M680.817 46.4907C679.111 47.7538 676.703 47.3953 675.409 45.6788C674.115 43.9623 674.504 41.5642 676.221 40.2699C677.937 38.9756 680.335 39.3653 681.629 41.0818C682.892 42.7878 682.534 45.1964 680.817 46.4907Z" fill="#2B6F9A"/>
<path d="M841.721 36.3018C843.216 36.8037 844.022 38.4257 843.52 39.92C843.018 41.4144 841.396 42.2207 839.902 41.7189C838.408 41.217 837.602 39.5951 838.103 38.1008C838.605 36.6064 840.227 35.8 841.721 36.3018Z" fill="#2B6F9A"/>
<path d="M732.392 44.8624C733.886 45.3642 734.693 46.9861 734.191 48.4805C733.689 49.9748 732.067 50.7813 730.573 50.2794C729.078 49.7776 728.272 48.1556 728.774 46.6612C729.276 45.1669 730.898 44.3605 732.392 44.8624Z" fill="#2B6F9A"/>
<path d="M555.418 20.484C556.913 20.9859 557.719 22.6078 557.217 24.1022C556.715 25.5965 555.093 26.4029 553.599 25.9011C552.105 25.3992 551.298 23.7773 551.8 22.283C552.302 20.7886 553.924 19.9821 555.418 20.484Z" fill="#2B6F9A"/>
<path d="M683.697 122.185C685.192 122.687 685.998 124.309 685.496 125.803C684.994 127.297 683.372 128.104 681.878 127.602C680.384 127.1 679.577 125.478 680.079 123.984C680.581 122.489 682.203 121.683 683.697 122.185Z" fill="#2B6F9A"/>
<path d="M709.358 126.854C710.852 127.356 711.658 128.978 711.156 130.472C710.654 131.966 709.033 132.773 707.538 132.271C706.044 131.769 705.238 130.147 705.74 128.653C706.242 127.158 707.863 126.352 709.358 126.854Z" fill="#2B6F9A"/>
<path d="M764.865 185.303L767.6 179.223L761.478 176.613L768.105 175.963L767.279 169.346L771.182 174.745L776.477 170.738L773.742 176.817L779.874 179.396L773.237 180.077L774.062 186.694L770.17 181.265L764.865 185.303Z" fill="#2B6F9A"/>
<path d="M850.911 199.652C849.205 200.915 846.797 200.557 845.503 198.84C844.24 197.134 844.598 194.725 846.315 193.431C848.021 192.168 850.429 192.527 851.723 194.243C852.986 195.949 852.628 198.358 850.911 199.652Z" fill="#2B6F9A"/>
<path d="M822.059 105.777C820.353 107.04 817.945 106.682 816.651 104.965C815.388 103.259 815.746 100.851 817.463 99.5565C819.169 98.2934 821.577 98.6519 822.871 100.368C824.134 102.074 823.776 104.483 822.059 105.777Z" fill="#2B6F9A"/>
<path d="M739.3 147.859C737.594 149.122 735.186 148.763 733.891 147.047C732.628 145.341 732.987 142.932 734.703 141.638C736.409 140.375 738.818 140.733 740.112 142.45C741.406 144.166 741.016 146.564 739.3 147.859Z" fill="#2B6F9A"/>
<path d="M878.866 236.79C880.36 237.292 881.166 238.914 880.664 240.408C880.162 241.902 878.54 242.709 877.046 242.207C875.552 241.705 874.746 240.083 875.247 238.589C875.749 237.095 877.371 236.288 878.866 236.79Z" fill="#2B6F9A"/>
<path d="M853.958 238.853C855.452 239.355 856.258 240.977 855.756 242.471C855.254 243.965 853.633 244.772 852.138 244.27C850.644 243.768 849.838 242.146 850.34 240.652C850.842 239.157 852.463 238.351 853.958 238.853Z" fill="#2B6F9A"/>
<path d="M828.838 170.274C829.34 168.779 828.535 167.159 827.039 166.656C825.543 166.154 823.924 166.959 823.421 168.455C822.919 169.951 823.724 171.571 825.22 172.073C826.716 172.576 828.335 171.77 828.838 170.274Z" fill="#2B6F9A"/>
<path d="M755.175 240.458C756.096 241.737 755.843 243.523 754.594 244.455C753.315 245.376 751.529 245.123 750.598 243.875C749.676 242.595 749.93 240.81 751.178 239.878C752.457 238.956 754.243 239.21 755.175 240.458Z" fill="#2B6F9A"/>
<path d="M759.815 132.057C760.736 133.336 760.483 135.122 759.235 136.054C757.955 136.975 756.17 136.722 755.238 135.474C754.316 134.194 754.57 132.409 755.818 131.477C757.098 130.555 758.883 130.809 759.815 132.057Z" fill="#2B6F9A"/>
<path d="M723.778 137.864C724.699 139.143 724.446 140.929 723.197 141.861C721.949 142.793 720.132 142.529 719.2 141.281C718.269 140.032 718.532 138.216 719.781 137.284C721.029 136.352 722.846 136.616 723.778 137.864Z" fill="#2B6F9A"/>
<path d="M815.804 257.148C817.299 257.65 818.105 259.272 817.603 260.767C817.101 262.261 815.479 263.067 813.985 262.565C812.491 262.064 811.685 260.442 812.186 258.947C812.688 257.453 814.31 256.647 815.804 257.148Z" fill="#2B6F9A"/>
<path d="M797.894 232.495C799.389 232.997 800.195 234.619 799.693 236.113C799.191 237.608 797.569 238.414 796.075 237.912C794.581 237.41 793.774 235.788 794.276 234.294C794.778 232.8 796.4 231.993 797.894 232.495Z" fill="#2B6F9A"/>
<path d="M864.138 165.12L868.288 162.253L865.327 158.175L869.86 160.356L871.927 155.749L872.352 160.777L877.348 160.237L873.198 163.105L876.148 167.214L871.615 165.033L869.548 169.639L869.155 164.622L864.138 165.12Z" fill="#2B6F9A"/>
<path d="M871.205 162.851C871.205 162.851 871.173 162.944 871.163 162.975L849.018 196.833C849.018 196.833 848.778 197.03 848.633 197.05C848.488 197.071 848.342 196.987 848.239 196.883L825.776 169.696L788.613 118.205L789.393 117.636L826.525 169.116L848.542 195.773L870.125 162.765L819.387 103.008L820.125 102.356L871.123 162.373C871.123 162.373 871.257 162.695 871.205 162.851Z" fill="#2B6F9A"/>
<path d="M771.143 178.162C771.143 178.162 771.039 178.369 770.914 178.431C770.737 178.545 770.467 178.524 770.312 178.367L736.731 145.194L721.321 140.019L721.635 139.085L737.169 144.302C737.169 144.302 737.293 144.344 737.366 144.437L769.673 176.351L757.069 133.941L758.025 133.673L771.185 177.933C771.185 177.933 771.216 178.151 771.184 178.245L771.143 178.162Z" fill="#2B6F9A"/>
<path d="M877.996 239.997L852.809 241.965C852.528 241.975 852.311 241.798 852.27 241.507L848.063 196.582L849.029 196.49L853.185 240.948L877.874 239.021L877.955 240.018L877.996 239.997Z" fill="#2B6F9A"/>
<path d="M859.994 260.592L859.973 260.654C859.931 260.779 859.796 260.872 859.682 260.903L825.474 270.235C825.474 270.235 825.131 270.224 824.996 270.109L814.551 260.157L796.787 235.691L752.968 242.592L752.815 241.605L796.924 234.663C796.924 234.663 797.288 234.716 797.412 234.862L815.29 259.505L825.476 269.196L858.925 260.06L852.291 241.445L853.236 241.104L860.047 260.229C860.047 260.229 860.077 260.447 860.046 260.54L859.994 260.592Z" fill="#2B6F9A"/>
<path d="M797.432 235.007L796.538 235.4L770.23 178.201L771.124 177.808L797.432 235.007Z" fill="#2B6F9A"/>
<path d="M851.703 257.842L858.316 258.47L858.84 251.856L861.589 257.906L867.577 255.032L863.681 260.445L869.176 264.196L862.573 263.537L862.038 270.182L859.3 264.101L853.302 267.006L857.198 261.593L851.703 257.842Z" fill="#2B6F9A"/>
<path d="M817.049 266.54L823.694 267.178L824.187 260.553L826.936 266.604L832.955 263.74L829.059 269.153L834.554 272.904L827.92 272.235L827.416 278.89L824.678 272.809L818.68 275.714L822.545 270.291L817.049 266.54Z" fill="#2B6F9A"/>
<path d="M779.184 113.376L785.787 114.035L786.311 107.42L789.06 113.471L795.048 110.597L791.152 116.01L796.647 119.761L790.044 119.102L789.509 125.747L786.771 119.666L780.783 122.539L784.669 117.158L779.184 113.376Z" fill="#2B6F9A"/>
<path d="M922.494 131.852L926.675 128.995L923.724 124.886L928.258 127.067L930.324 122.461L930.718 127.477L935.735 126.98L931.585 129.847L934.545 133.925L929.981 131.734L927.914 136.34L927.521 131.323L922.494 131.852Z" fill="#2B6F9A"/>
<path d="M929.143 129.16L929.071 130.142L971.22 133.255L971.293 132.273L929.143 129.16Z" fill="#2B6F9A"/>
<path d="M964.423 129.028L971.027 129.687L971.561 123.041L974.299 129.123L980.298 126.218L976.401 131.63L981.897 135.381L975.294 134.723L974.759 141.368L972.021 135.286L966.022 138.191L969.919 132.779L964.423 129.028Z" fill="#2B6F9A"/>
<path d="M1060.88 311.953C1059.18 313.216 1056.77 312.858 1055.48 311.141C1054.21 309.435 1054.57 307.026 1056.29 305.732C1058 304.438 1060.4 304.828 1061.7 306.544C1062.96 308.25 1062.6 310.659 1060.88 311.953Z" fill="#2B6F9A"/>
<path d="M1016.28 218.884C1014.57 220.147 1012.16 219.788 1010.87 218.072C1009.57 216.355 1009.96 213.957 1011.68 212.663C1013.39 211.4 1015.8 211.758 1017.09 213.475C1018.35 215.181 1017.99 217.59 1016.28 218.884Z" fill="#2B6F9A"/>
<path d="M939.145 352.41C937.439 353.673 935.03 353.314 933.736 351.598C932.442 349.881 932.832 347.483 934.548 346.189C936.254 344.926 938.663 345.284 939.957 347.001C941.22 348.707 940.861 351.115 939.145 352.41Z" fill="#2B6F9A"/>
<path d="M973.526 294.6C974.028 293.104 973.223 291.484 971.727 290.982C970.231 290.479 968.611 291.285 968.109 292.781C967.607 294.277 968.412 295.896 969.908 296.399C971.403 296.901 973.023 296.096 973.526 294.6Z" fill="#2B6F9A"/>
<path d="M978.367 311.746C979.862 312.248 980.668 313.87 980.166 315.364C979.664 316.859 978.042 317.665 976.548 317.163C975.054 316.661 974.248 315.039 974.749 313.545C975.251 312.051 976.873 311.244 978.367 311.746Z" fill="#2B6F9A"/>
<path d="M986.265 282.353C986.767 280.857 985.962 279.237 984.466 278.735C982.97 278.233 981.35 279.038 980.848 280.534C980.346 282.03 981.151 283.65 982.647 284.152C984.142 284.654 985.762 283.849 986.265 282.353Z" fill="#2B6F9A"/>
<path d="M995.162 306.508L999.312 303.641L996.351 299.563L1000.88 301.744L1002.95 297.138L1003.34 302.155L1008.37 301.626L1004.22 304.493L1007.17 308.602L1002.64 306.421L1000.57 311.028L1000.15 306L995.162 306.508Z" fill="#2B6F9A"/>
<path d="M1058.53 309.362L1001.81 304.758C1001.81 304.758 1001.56 304.674 1001.46 304.57L983.182 281.733C983.182 281.733 983.048 281.411 983.11 281.224L1013.51 215.565L1014.41 215.972L984.149 281.33L1002.11 303.751L1058.64 308.323L1058.55 309.299L1058.53 309.362Z" fill="#2B6F9A"/>
<path d="M977.925 314.612C977.925 314.612 977.873 314.767 977.779 314.84L937.147 349.694L936.494 348.956L976.887 314.298L970.486 293.336C970.486 293.336 970.477 292.952 970.654 292.838L983.256 281.1L983.919 281.808L971.556 293.349L977.957 314.31C977.957 314.31 977.987 314.529 977.956 314.622L977.925 314.612Z" fill="#2B6F9A"/>
<path d="M977.147 313.939L977.527 314.848L1001.92 304.647L1001.54 303.738L977.147 313.939Z" fill="#2B6F9A"/>
<path d="M1018.22 436.096L1022.36 433.259L1019.44 429.161L1023.97 431.342L1026.04 426.736L1026.43 431.752L1031.45 431.255L1027.31 434.091L1030.26 438.2L1025.7 436.009L1023.63 440.615L1023.24 435.598L1018.22 436.096Z" fill="#2B6F9A"/>
<path d="M1063.84 496.765L1069.33 492.997L1065.42 487.599L1071.43 490.447L1074.16 484.399L1074.67 491.015L1081.31 490.335L1075.81 494.134L1079.71 499.532L1073.71 496.652L1070.98 502.732L1070.43 496.105L1063.84 496.765Z" fill="#2B6F9A"/>
<path d="M1108.3 609.95L1114.48 607.451L1111.82 601.328L1117.1 605.421L1121.05 600.061L1120.15 606.654L1126.78 607.427L1120.61 609.926L1123.23 616.038L1117.99 611.955L1114.01 617.305L1114.94 610.723L1108.3 609.95Z" fill="#2B6F9A"/>
<path d="M1119.67 396.237C1117.96 397.5 1115.55 397.142 1114.26 395.426C1112.99 393.719 1113.35 391.311 1115.07 390.017C1116.77 388.753 1119.18 389.112 1120.48 390.828C1121.77 392.545 1121.38 394.943 1119.67 396.237Z" fill="#2B6F9A"/>
<path d="M1047.58 495.15C1045.87 496.413 1043.46 496.055 1042.17 494.338C1040.87 492.622 1041.26 490.224 1042.98 488.929C1044.69 487.666 1047.09 488.025 1048.39 489.741C1049.65 491.447 1049.29 493.856 1047.58 495.15Z" fill="#2B6F9A"/>
<path d="M1188.14 629.28C1186.43 630.544 1184.03 630.185 1182.73 628.469C1181.47 626.763 1181.83 624.354 1183.54 623.06C1185.25 621.797 1187.66 622.155 1188.95 623.872C1190.21 625.578 1189.86 627.986 1188.14 629.28Z" fill="#2B6F9A"/>
<path d="M1083.57 609.333C1081.86 610.597 1079.45 610.238 1078.16 608.522C1076.9 606.816 1077.26 604.407 1078.97 603.113C1080.68 601.85 1083.09 602.208 1084.38 603.925C1085.64 605.631 1085.29 608.039 1083.57 609.333Z" fill="#2B6F9A"/>
<path d="M1109.21 458.411L1118.7 455.639L1115.7 446.213L1122.87 453.021L1129.54 445.735L1127.18 455.336L1136.87 457.445L1127.37 460.249L1130.37 469.675L1123.21 462.836L1116.53 470.153L1118.9 460.52L1109.21 458.411Z" fill="#2B6F9A"/>
<path d="M1106.66 685.406L1116.14 682.633L1113.14 673.207L1120.3 680.046L1126.96 672.719L1124.63 682.331L1134.27 684.46L1124.78 687.233L1127.79 696.659L1120.62 689.82L1113.97 697.147L1116.3 687.536L1106.66 685.406Z" fill="#2B6F9A"/>
<path d="M1140.12 454.275C1140.62 452.779 1139.81 451.159 1138.32 450.656C1136.82 450.154 1135.2 450.959 1134.7 452.455C1134.2 453.951 1135 455.571 1136.5 456.074C1137.99 456.576 1139.61 455.77 1140.12 454.275Z" fill="#2B6F9A"/>
<path d="M1021.31 406.37C1021.81 404.874 1021.01 403.254 1019.51 402.752C1018.01 402.249 1016.4 403.055 1015.89 404.551C1015.39 406.047 1016.2 407.666 1017.69 408.169C1019.19 408.671 1020.81 407.866 1021.31 406.37Z" fill="#2B6F9A"/>
<path d="M1015.74 452.655C1016.24 451.159 1015.44 449.539 1013.94 449.036C1012.45 448.534 1010.83 449.339 1010.32 450.835C1009.82 452.331 1010.63 453.951 1012.12 454.453C1013.62 454.956 1015.24 454.15 1015.74 452.655Z" fill="#2B6F9A"/>
<path d="M1155.66 507.929C1157.16 508.431 1157.96 510.052 1157.46 511.547C1156.96 513.041 1155.34 513.848 1153.84 513.346C1152.35 512.844 1151.54 511.222 1152.05 509.728C1152.55 508.233 1154.17 507.427 1155.66 507.929Z" fill="#2B6F9A"/>
<path d="M1088.82 460.224C1090.32 460.726 1091.12 462.348 1090.62 463.842C1090.12 465.336 1088.5 466.143 1087 465.641C1085.51 465.139 1084.7 463.517 1085.2 462.023C1085.71 460.529 1087.33 459.722 1088.82 460.224Z" fill="#2B6F9A"/>
<path d="M1155.25 628.074C1156.75 628.576 1157.55 630.198 1157.05 631.692C1156.55 633.187 1154.93 633.993 1153.43 633.491C1151.94 632.989 1151.13 631.367 1151.64 629.873C1152.14 628.379 1153.76 627.572 1155.25 628.074Z" fill="#2B6F9A"/>
<path d="M1083.73 579.352C1085.23 579.854 1086.03 581.476 1085.53 582.97C1085.03 584.464 1083.41 585.271 1081.91 584.769C1080.42 584.267 1079.61 582.645 1080.11 581.151C1080.62 579.657 1082.24 578.85 1083.73 579.352Z" fill="#2B6F9A"/>
<path d="M1155.22 510.794C1155.22 510.794 1155.08 511.022 1154.95 511.084C1154.71 511.177 1154.46 511.093 1154.33 510.875L1122.87 458.182L1088.24 463.39L1073.01 493.784C1072.95 493.971 1072.74 494.075 1072.54 494.043L1045.27 492.538C1045.27 492.538 1045.02 492.454 1044.91 492.35L1012.65 452.066C1012.52 451.92 1012.5 451.671 1012.63 451.505L1023.98 433.492L1018.13 405.615L1019.1 405.42L1024.98 433.515C1024.98 433.515 1025 433.764 1024.92 433.878L1013.65 451.777L1045.54 491.625L1072.28 493.087L1087.49 462.755C1087.49 462.755 1087.71 462.516 1087.85 462.496L1123.06 457.206C1123.24 457.165 1123.45 457.269 1123.57 457.446L1153.14 506.978L1136.94 453.52L1116.91 393.302L1117.85 392.993L1137.88 453.21L1155.24 510.524C1155.24 510.524 1155.27 510.742 1155.24 510.835L1155.22 510.794Z" fill="#2B6F9A"/>
<path d="M1120.92 684.721L1120.04 685.155L1080.86 606.451C1080.86 606.451 1080.81 606.295 1080.81 606.191L1082.35 582.007L1072.1 493.616L1073.08 493.494L1083.33 581.989L1081.8 606.141L1120.92 684.721Z" fill="#2B6F9A"/>
<path d="M1185.9 626.658L1154.4 631.25C1154.4 631.25 1154.16 631.239 1154.07 631.177L1117.74 608.164L1081.26 606.722L1081.31 605.735L1117.93 607.189C1117.93 607.189 1118.08 607.241 1118.18 607.272L1154.49 630.243L1185.82 625.661L1185.94 626.638L1185.9 626.658Z" fill="#2B6F9A"/>
<path d="M913.033 767.126L917.261 761.964L912.027 757.85L918.587 758.945L919.516 752.363L921.859 758.589L928.065 756.1L923.806 761.252L929.082 765.345L922.48 764.271L921.551 770.853L919.208 764.627L913.033 767.126Z" fill="#2B6F9A"/>
<path d="M828.478 890.884L832.737 885.732L827.471 881.607L834.063 882.713L835.002 876.099L837.335 882.357L843.509 879.857L839.281 885.02L844.526 889.103L837.955 888.039L837.026 894.621L834.683 888.395L828.478 890.884Z" fill="#2B6F9A"/>
<path d="M869.983 964.515L874.211 959.353L868.976 955.239L875.536 956.334L876.476 949.72L878.84 955.988L885.014 953.489L880.786 958.651L886.031 962.734L879.46 961.67L878.531 968.252L876.188 962.026L869.983 964.515Z" fill="#2B6F9A"/>
<path d="M985.974 926.943L990.155 924.086L987.194 920.009L991.727 922.189L993.794 917.583L994.187 922.6L999.215 922.071L995.065 924.938L998.015 929.047L993.451 926.856L991.384 931.463L990.99 926.446L985.974 926.943Z" fill="#2B6F9A"/>
<path d="M806.863 960.603C805.157 961.866 802.749 961.507 801.455 959.791C800.16 958.075 800.55 955.676 802.266 954.382C803.972 953.119 806.381 953.477 807.675 955.194C808.938 956.9 808.58 959.309 806.863 960.603Z" fill="#2B6F9A"/>
<path d="M813.614 833.337C811.908 834.6 809.499 834.241 808.205 832.525C806.942 830.819 807.301 828.41 809.017 827.116C810.723 825.853 813.131 826.211 814.426 827.928C815.689 829.634 815.33 832.042 813.614 833.337Z" fill="#2B6F9A"/>
<path d="M879.954 927.504C878.248 928.767 875.839 928.408 874.545 926.692C873.282 924.986 873.641 922.577 875.357 921.283C877.063 920.02 879.472 920.378 880.766 922.095C882.029 923.801 881.67 926.209 879.954 927.504Z" fill="#2B6F9A"/>
<path d="M776.685 942.257C777.188 940.761 776.382 939.141 774.887 938.639C773.391 938.136 771.771 938.942 771.269 940.438C770.766 941.933 771.571 943.553 773.067 944.056C774.563 944.558 776.183 943.753 776.685 942.257Z" fill="#2B6F9A"/>
<path d="M792.293 901.665C793.788 902.167 794.594 903.789 794.092 905.283C793.59 906.777 791.968 907.584 790.474 907.082C788.98 906.58 788.173 904.958 788.675 903.464C789.177 901.97 790.799 901.163 792.293 901.665Z" fill="#2B6F9A"/>
<path d="M774.495 810.152C774.998 808.656 774.192 807.036 772.697 806.534C771.201 806.031 769.581 806.837 769.079 808.333C768.576 809.828 769.381 811.448 770.877 811.951C772.373 812.453 773.993 811.648 774.495 810.152Z" fill="#2B6F9A"/>
<path d="M1016.99 923.607C1018.48 924.109 1019.29 925.731 1018.79 927.225C1018.29 928.719 1016.66 929.526 1015.17 929.024C1013.68 928.522 1012.87 926.9 1013.37 925.406C1013.87 923.911 1015.5 923.105 1016.99 923.607Z" fill="#2B6F9A"/>
<path d="M955.284 1023.37C955.786 1021.88 954.981 1020.26 953.485 1019.76C951.99 1019.25 950.37 1020.06 949.867 1021.55C949.365 1023.05 950.17 1024.67 951.666 1025.17C953.162 1025.67 954.782 1024.87 955.284 1023.37Z" fill="#2B6F9A"/>
<path d="M1016.05 926.824L992.624 924.985L960.743 956.682L953.043 1022.52L952.077 1022.4L959.799 956.399C959.799 956.399 959.872 956.181 959.935 956.098L992.086 924.111C992.086 924.111 992.315 923.946 992.481 923.967L1016.13 925.848L1016.05 926.824Z" fill="#2B6F9A"/>
<path d="M960.764 956.619C960.701 956.806 960.514 956.951 960.306 956.951L877.45 959.713L804.553 957.991C804.553 957.991 804.428 957.949 804.335 957.918L773.758 941.794L774.227 940.912L803.829 956.536L790.926 904.497C790.864 904.269 790.979 904.03 791.218 903.937L835.772 884.43C835.772 884.43 836.166 884.39 836.291 884.535L877.978 924L960.516 956.016C960.734 956.09 960.858 956.339 960.816 956.568L960.795 956.63L960.764 956.619ZM804.95 957.016L877.442 958.706L957.878 956.031L877.52 924.85C877.52 924.85 877.395 924.808 877.343 924.756L835.842 885.459L791.974 904.676L804.95 957.016Z" fill="#2B6F9A"/>
<path d="M836.384 884.67L835.479 885.094C829.889 872.858 812.096 833.832 810.888 830.516C809.5 829.288 786.701 817.439 771.557 809.72L772.026 808.838C811.733 829.137 811.762 829.874 811.813 830.238C812.164 831.464 828.035 866.415 836.404 884.712L836.384 884.67Z" fill="#2B6F9A"/>
<path d="M951.623 962.383L955.84 957.252L950.605 953.138L957.166 954.233L958.105 947.62L960.48 953.856L966.643 951.388L962.426 956.519L967.661 960.633L961.1 959.538L960.161 966.151L957.818 959.925L951.623 962.383Z" fill="#2B6F9A"/>
<path d="M759.232 1022.48C757.526 1023.75 755.118 1023.39 753.824 1021.67C752.561 1019.97 752.919 1017.56 754.636 1016.26C756.342 1015 758.75 1015.36 760.044 1017.08C761.307 1018.78 760.949 1021.19 759.232 1022.48Z" fill="#2B6F9A"/>
<path d="M745.244 1054.13C743.538 1055.39 741.129 1055.03 739.835 1053.32C738.541 1051.6 738.931 1049.2 740.647 1047.91C742.353 1046.64 744.762 1047 746.056 1048.72C747.319 1050.43 746.96 1052.83 745.244 1054.13Z" fill="#2B6F9A"/>
<path d="M742.846 1008.56C743.348 1007.07 742.543 1005.45 741.047 1004.94C739.552 1004.44 737.932 1005.25 737.429 1006.74C736.927 1008.24 737.732 1009.86 739.228 1010.36C740.724 1010.86 742.344 1010.06 742.846 1008.56Z" fill="#2B6F9A"/>
<path d="M701.157 1042.23C701.66 1040.74 700.854 1039.12 699.359 1038.61C697.863 1038.11 696.243 1038.92 695.74 1040.41C695.238 1041.91 696.043 1043.53 697.539 1044.03C699.035 1044.53 700.655 1043.73 701.157 1042.23Z" fill="#2B6F9A"/>
<path d="M715.532 1054.61C717.027 1055.11 717.833 1056.74 717.331 1058.23C716.829 1059.72 715.207 1060.53 713.713 1060.03C712.219 1059.53 711.412 1057.9 711.914 1056.41C712.416 1054.92 714.038 1054.11 715.532 1054.61Z" fill="#2B6F9A"/>
<path d="M733.282 1058.6C733.784 1057.1 732.979 1055.48 731.483 1054.98C729.987 1054.48 728.367 1055.28 727.865 1056.78C727.362 1058.27 728.168 1059.89 729.664 1060.4C731.159 1060.9 732.779 1060.09 733.282 1058.6Z" fill="#2B6F9A"/>
<path d="M756.346 1040.26C756.346 1040.26 756.294 1040.41 756.2 1040.49L743.288 1051.39L730.842 1058.13C730.842 1058.13 730.686 1058.18 730.582 1058.18L714.601 1057.8C714.601 1057.8 714.352 1057.71 714.258 1057.68L698.116 1041.7L698.802 1040.99L714.821 1056.83L730.46 1057.2L742.698 1050.57L755.371 1039.86L756.414 1019.63L739.825 1008.07L740.377 1007.25L757.194 1018.96C757.194 1018.96 757.422 1019.21 757.401 1019.38L756.326 1040.11C756.326 1040.11 756.294 1040.21 756.284 1040.24L756.346 1040.26Z" fill="#2B6F9A"/>
<path d="M747.281 1039.92L753.703 1038.12L751.724 1031.74L756.501 1036.4L761.05 1031.51L759.405 1037.96L765.902 1039.45L759.501 1041.28L761.46 1047.62L756.672 1043L752.134 1047.85L753.779 1041.41L747.281 1039.92Z" fill="#2B6F9A"/>
<path d="M292.125 1063.42L296.275 1060.55L293.315 1056.47L297.879 1058.67L299.945 1054.06L300.339 1059.08L305.356 1058.58L301.216 1061.42L304.167 1065.52L299.602 1063.33L297.536 1067.94L297.142 1062.92L292.125 1063.42Z" fill="#2B6F9A"/>
<path d="M314.539 1075.28C312.833 1076.54 310.425 1076.18 309.131 1074.47C307.868 1072.76 308.226 1070.35 309.943 1069.06C311.649 1067.79 314.057 1068.15 315.351 1069.87C316.614 1071.58 316.256 1073.98 314.539 1075.28Z" fill="#2B6F9A"/>
<path d="M307.975 1076.05C308.477 1074.56 307.672 1072.94 306.176 1072.43C304.68 1071.93 303.06 1072.74 302.558 1074.23C302.056 1075.73 302.861 1077.35 304.357 1077.85C305.852 1078.35 307.472 1077.55 307.975 1076.05Z" fill="#2B6F9A"/>
<path d="M280.533 1037.39C282.027 1037.89 282.834 1039.51 282.332 1041.01C281.83 1042.5 280.208 1043.31 278.714 1042.81C277.219 1042.3 276.413 1040.68 276.915 1039.19C277.417 1037.69 279.039 1036.89 280.533 1037.39Z" fill="#2B6F9A"/>
<path d="M312.564 1071.77L311.918 1072.56L298.392 1061.47L279.259 1040.46L280.008 1039.78L299.079 1060.77L312.564 1071.77Z" fill="#2B6F9A"/>
<path d="M305.548 1074.72L305.026 1075.55C304.01 1074.96 299.961 1065.36 298.257 1061.25L299.182 1060.87C301.785 1067.15 304.884 1074.11 305.558 1074.69L305.548 1074.72Z" fill="#2B6F9A"/>
<path d="M418.141 1010.75L423.632 1006.98L419.73 1001.58L425.736 1004.43L428.471 998.352L428.975 1005L435.612 1004.32L430.11 1008.12L434.013 1013.52L428.017 1010.64L425.282 1016.72L424.778 1010.07L418.141 1010.75Z" fill="#2B6F9A"/>
<path d="M457.537 980.399C459.031 980.901 459.838 982.523 459.336 984.017C458.834 985.512 457.212 986.318 455.718 985.816C454.224 985.314 453.417 983.692 453.919 982.198C454.421 980.704 456.043 979.897 457.537 980.399Z" fill="#2B6F9A"/>
<path d="M443.356 1005.6C444.851 1006.11 445.657 1007.73 445.155 1009.22C444.653 1010.72 443.031 1011.52 441.537 1011.02C440.043 1010.52 439.236 1008.9 439.738 1007.4C440.24 1005.91 441.862 1005.1 443.356 1005.6Z" fill="#2B6F9A"/>
<path d="M442.869 977.967C444.363 978.469 445.17 980.091 444.668 981.585C444.166 983.08 442.544 983.886 441.05 983.384C439.556 982.882 438.749 981.26 439.251 979.766C439.753 978.272 441.375 977.465 442.869 977.967Z" fill="#2B6F9A"/>
<path d="M474.021 978.868L456.969 983.534L442.892 1008.53C442.809 1008.68 442.632 1008.79 442.456 1008.8L426.786 1008.32C426.786 1008.32 426.475 1008.21 426.382 1008.08C426.289 1007.94 426.289 1007.74 426.372 1007.59L441.544 980.467C441.638 980.291 441.846 980.187 442.043 980.219L455.778 982.337L455.63 983.292L442.228 981.216L427.64 1007.32L442.209 1007.78L456.254 982.878C456.254 982.878 456.421 982.692 456.545 982.63L473.826 977.902L474.094 978.858L474.021 978.868Z" fill="#2B6F9A"/>
<path d="M468.246 974.919L474.88 975.588L475.373 968.964L478.122 975.014L484.11 972.14L480.245 977.563L485.74 981.314L479.106 980.645L478.602 987.301L475.864 981.219L469.876 984.093L473.731 978.701L468.246 974.919Z" fill="#2B6F9A"/>
<path d="M235.244 1042.69C236.738 1043.19 237.544 1044.81 237.042 1046.31C236.541 1047.8 234.919 1048.61 233.424 1048.1C231.93 1047.6 231.124 1045.98 231.626 1044.49C232.128 1042.99 233.749 1042.19 235.244 1042.69Z" fill="#2B6F9A"/>
<path d="M178.537 995.13L182.677 992.294L179.727 988.185L184.291 990.377L186.358 985.77L186.751 990.787L191.768 990.29L187.597 993.115L190.548 997.224L186.014 995.043L183.948 999.65L183.554 994.633L178.537 995.13Z" fill="#2B6F9A"/>
<path d="M178.989 1033.6C177.283 1034.86 174.875 1034.5 173.58 1032.79C172.317 1031.08 172.676 1028.67 174.392 1027.38C176.109 1026.08 178.507 1026.47 179.801 1028.19C181.064 1029.9 180.705 1032.3 178.989 1033.6Z" fill="#2B6F9A"/>
<path d="M175.674 989.007C177.169 989.509 177.975 991.131 177.473 992.625C176.971 994.119 175.349 994.926 173.855 994.424C172.361 993.922 171.554 992.3 172.056 990.806C172.558 989.311 174.18 988.505 175.674 989.007Z" fill="#2B6F9A"/>
<path d="M175.134 975.764C176.628 976.266 177.434 977.888 176.932 979.383C176.43 980.877 174.808 981.683 173.314 981.181C171.82 980.68 171.014 979.058 171.516 977.563C172.017 976.069 173.639 975.263 175.134 975.764Z" fill="#2B6F9A"/>
<path d="M183.797 1001.95C185.291 1002.46 186.097 1004.08 185.596 1005.57C185.094 1007.07 183.472 1007.87 181.978 1007.37C180.483 1006.87 179.677 1005.25 180.179 1003.75C180.681 1002.26 182.303 1001.45 183.797 1001.95Z" fill="#2B6F9A"/>
<path d="M176.897 1031.06L175.932 1030.84L182.347 1004.72L174.506 991.455C174.506 991.455 174.454 991.299 174.444 991.226L173.736 978.482C173.736 978.274 173.872 978.077 174.069 978.005C174.267 977.933 174.485 978.006 174.63 978.193L185.543 992.425C185.543 992.425 185.667 992.674 185.625 992.799L183.814 1003.45L182.828 1003.29L184.597 992.869L174.792 980.084L175.421 991.104L183.303 1004.46C183.303 1004.46 183.396 1004.7 183.354 1004.82L176.876 1031.12L176.897 1031.06Z" fill="#2B6F9A"/>
<path d="M319.537 888.147L325.029 884.379L321.126 878.981L327.164 881.84L329.867 875.75L330.403 882.408L337.04 881.727L331.548 885.495L335.44 890.925L329.445 888.045L326.71 894.124L326.175 887.466L319.537 888.147Z" fill="#2B6F9A"/>
<path d="M351.02 989.557C352.515 990.059 353.321 991.681 352.819 993.175C352.317 994.67 350.695 995.476 349.201 994.974C347.707 994.472 346.9 992.85 347.402 991.356C347.904 989.862 349.526 989.055 351.02 989.557Z" fill="#2B6F9A"/>
<path d="M343.995 946.422C342.289 947.685 339.88 947.326 338.586 945.61C337.323 943.904 337.682 941.495 339.398 940.201C341.104 938.938 343.513 939.296 344.807 941.013C346.101 942.729 345.711 945.128 343.995 946.422Z" fill="#2B6F9A"/>
<path d="M407.622 873.838L411.804 870.981L408.843 866.903L413.376 869.084L415.443 864.477L415.836 869.494L420.864 868.966L416.714 871.833L419.664 875.942L415.1 873.751L413.033 878.357L412.639 873.34L407.622 873.838Z" fill="#2B6F9A"/>
<path d="M352.191 1018.05L356.341 1015.18L353.38 1011.1L357.955 1013.26L360.022 1008.66L360.405 1013.7L365.432 1013.17L361.282 1016.04L364.243 1020.12L359.668 1017.96L357.601 1022.57L357.218 1017.52L352.191 1018.05Z" fill="#2B6F9A"/>
<path d="M438.806 860.926C437.1 862.189 434.692 861.831 433.398 860.114C432.135 858.408 432.493 856 434.21 854.706C435.926 853.411 438.324 853.801 439.618 855.517C440.912 857.234 440.523 859.632 438.806 860.926Z" fill="#2B6F9A"/>
<path d="M219.197 871.388C217.491 872.651 215.082 872.292 213.788 870.576C212.494 868.859 212.884 866.461 214.6 865.167C216.306 863.904 218.714 864.262 220.009 865.979C221.272 867.685 220.913 870.093 219.197 871.388Z" fill="#2B6F9A"/>
<path d="M396.6 893.763C394.894 895.026 392.485 894.667 391.191 892.951C389.928 891.245 390.287 888.836 392.003 887.542C393.709 886.279 396.118 886.637 397.412 888.354C398.706 890.07 398.316 892.468 396.6 893.763Z" fill="#2B6F9A"/>
<path d="M425.632 863.535C426.135 862.039 425.329 860.419 423.833 859.917C422.338 859.414 420.718 860.22 420.216 861.715C419.713 863.211 420.518 864.831 422.014 865.334C423.51 865.836 425.13 865.031 425.632 863.535Z" fill="#2B6F9A"/>
<path d="M269.62 887.007C271.115 887.509 271.921 889.13 271.419 890.625C270.917 892.119 269.295 892.926 267.801 892.424C266.307 891.922 265.5 890.3 266.002 888.806C266.504 887.311 268.126 886.505 269.62 887.007Z" fill="#2B6F9A"/>
<path d="M436.673 858.305L423.203 863.031L414.595 871.745L394.612 891.017C394.612 891.017 394.352 891.172 394.217 891.161L329.471 885.698L342.122 943.23L350.547 992.205L359.227 1015.46L358.312 1015.81L349.622 992.483L341.187 943.435L328.371 885.259C328.371 885.259 328.371 884.948 328.507 884.855C328.611 884.751 328.777 884.668 328.912 884.679L394.095 890.185L413.88 871.089L422.551 862.292C422.551 862.292 422.655 862.188 422.728 862.178L436.322 857.39L436.631 858.325L436.673 858.305Z" fill="#2B6F9A"/>
<path d="M329.357 885.313C329.295 885.5 329.118 885.614 328.931 885.655L268.751 890.214C268.751 890.214 268.585 890.193 268.523 890.172L216.731 868.724L217.107 867.811L268.816 889.196L328.466 884.668L332.451 835.98L333.427 836.065L329.41 885.158C329.41 885.158 329.389 885.22 329.368 885.282L329.357 885.313Z" fill="#2B6F9A"/>
<path d="M323.37 838.057L329.976 837.159L328.963 830.582L333.012 835.857L338.193 831.673L335.676 837.826L341.87 840.218L335.263 841.117L336.308 847.703L332.259 842.429L327.078 846.613L329.595 840.46L323.37 838.057Z" fill="#2B6F9A"/>
</svg>
