<svg fill="none" height="294" viewBox="0 0 308 294" width="308" xmlns="http://www.w3.org/2000/svg" xmlns:xlink="http://www.w3.org/1999/xlink"><clipPath id="a"><path d="m.07959.479004h307.212v292.812h-307.212z"/></clipPath><circle cx="153.686" cy="146.885" fill="#f2f9fa" opacity=".1" r="126.752"/><g clip-path="url(#a)"><g fill="#7fa9c1"><path d="m149.501 207.072c-1.002 1.393-2.907 1.702-4.304.802-1.397-.999-1.708-2.898-.804-4.291.903-1.392 2.907-1.702 4.304-.802 1.397.999 1.708 2.898.804 4.291z"/><path d="m199.473 201.712c-.451.633-1.312.774-1.947.366-.635-.45-.776-1.308-.367-1.941s1.312-.774 1.947-.366c.636.45.777 1.308.367 1.941z"/><path d="m173.704 256.096c-.664.915-1.905 1.112-2.837.521-.917-.661-1.115-1.899-.522-2.828.593-.928 1.905-1.111 2.837-.52.917.661 1.114 1.899.522 2.827z"/><path d="m159.154 102.116c-.522.731-1.51.886-2.244.422-.734-.521-.889-1.506-.423-2.237.466-.7316 1.51-.8863 2.244-.4221.734.5201.889 1.5051.423 2.2371z"/><path d="m110.707 169.526c-.466.647-1.327.774-1.976.366-.649-.464-.776-1.322-.367-1.969.409-.648 1.326-.774 1.976-.366.649.464.776 1.322.367 1.969z"/><path d="m171.192 41.3587c-.338.4783-1.002.5908-1.482.2813-.479-.3376-.578-.9988-.282-1.4771.297-.4783 1.002-.5908 1.482-.2813.48.3376.579.9988.282 1.4771z"/><path d="m262.668 121.866c-.338.478-1.002.591-1.481.281-.48-.337-.579-.998-.283-1.477.297-.478 1.002-.591 1.482-.281.48.338.579.999.282 1.477z"/><path d="m140.018 241.002c-.847.282-1.75-.154-2.061-.97-.282-.844.17-1.745.974-2.054.805-.31 1.75.155 2.061.971.282.844-.17 1.744-.974 2.053z"/><path d="m132.496 239.244c-.565.197-1.157-.113-1.369-.633-.198-.563.113-1.154.635-1.365s1.157.113 1.369.633c.197.563-.113 1.154-.635 1.365z"/><path d="m198.838 196.099c-.564.197-1.157-.112-1.369-.633-.197-.562.113-1.153.635-1.364s1.157.112 1.369.633c.198.562-.113 1.153-.635 1.364z"/><path d="m219.597 86.3319c-.564.197-1.157-.1125-1.369-.633-.197-.5627.113-1.1535.636-1.3645.522-.211 1.157.1125 1.368.633.198.5627-.112 1.1535-.635 1.3645z"/><path d="m171.94 221.674c-.564.197-1.157-.113-1.369-.633-.197-.563.113-1.154.635-1.365s1.158.113 1.369.633c.198.563-.113 1.154-.635 1.365z"/><path d="m245.239 208.071c-.564.197-1.157-.113-1.368-.633-.198-.563.112-1.154.635-1.365.522-.211 1.157.113 1.369.633.197.563-.113 1.154-.636 1.365z"/><path d="m268.285 129.364c-.946.324-1.948-.183-2.3-1.083-.325-.943.183-1.942 1.086-2.293.903-.352 1.948.183 2.301 1.083.324.942-.184 1.941-1.087 2.293z"/><path d="m278.305 153.686c-.565.197-1.157-.112-1.369-.633-.198-.562.113-1.153.635-1.364s1.157.112 1.369.633c.198.563-.113 1.153-.635 1.364z"/></g><path d="m234.653 216.888 20-79.745-32.642-60.9536-60.655-32.0454-80.0455 29.3867" stroke="#fff" stroke-miterlimit="10"/><path d="m73.4637 79.27-29.1844 81.562 32.6419 60.968 60.6688 32.046 90.463-26.158" stroke="#fff" stroke-miterlimit="10"/><path d="m67.2544 65.667 66.6386 107.671 40.517-43.735z" stroke="#fff" stroke-miterlimit="10"/><path d="m134.449 173.486 110.099 62.058-69.298-106.46" stroke="#fff" stroke-miterlimit="10"/><path d="m161.074 14.3276v30.8574" stroke="#fff" stroke-miterlimit="10"/><path d="m161.073 248.556v31.944" stroke="#fff" stroke-miterlimit="10"/><path d="m295.127 138.451h-41.632" stroke="#fff" stroke-miterlimit="10"/><path d="m45.6484 161.381h-27.3613" stroke="#fff" stroke-miterlimit="10"/><g fill="#fff"><path d="m164.122 48.2094c-1.411 1.9694-4.093 2.3914-6.068 1.1254-1.976-1.4068-2.399-4.0796-1.129-6.049s4.092-2.3914 6.068-1.1254c1.976 1.4068 2.399 4.0796 1.129 6.049z"/><path d="m137.52 175.505c-1.327 1.843-3.839 2.251-5.702 1.055-1.848-1.322-2.258-3.826-1.058-5.683 1.199-1.857 3.838-2.251 5.701-1.055 1.849 1.322 2.258 3.826 1.059 5.683z"/><path d="m68.6654 66.3705c-.9738 1.3646-2.8225 1.6459-4.1914.7737-1.3689-.9706-1.6512-2.8134-.7762-4.178.875-1.3645 2.8225-1.6458 4.1914-.7737 1.3689.9707 1.6511 2.8135.7762 4.178z"/><path d="m248.472 235.897c0 1.97-1.623 3.588-3.599 3.588s-3.599-1.618-3.599-3.588c0-1.969 1.623-3.587 3.599-3.587s3.599 1.618 3.599 3.587z"/><path d="m237.579 219.611c0 2.04-1.693 3.728-3.74 3.728-2.046 0-3.739-1.688-3.739-3.728s1.693-3.728 3.739-3.728c2.047 0 3.74 1.688 3.74 3.728z"/><path d="m163.266 283.088c-.874 1.224-2.526 1.477-3.753.69-1.228-.872-1.482-2.518-.692-3.742s2.526-1.477 3.754-.689c1.228.872 1.482 2.518.691 3.741z"/><path d="m258.082 140.899c-1.298 1.801-3.754 2.195-5.56 1.027-1.807-1.294-2.202-3.742-1.031-5.542 1.172-1.801 3.754-2.195 5.561-1.027 1.806 1.294 2.201 3.742 1.03 5.542z"/><path d="m227.275 80.086c-1.327 1.8569-3.853 2.2508-5.702 1.055-1.863-1.3223-2.258-3.8404-1.058-5.6832 1.199-1.8428 3.852-2.2507 5.701-1.055 1.863 1.3223 2.258 3.8404 1.059 5.6832z"/><path d="m230.583 229.271c-1.03 1.435-2.992 1.744-4.431.816-1.44-1.027-1.75-2.983-.819-4.418.932-1.434 2.992-1.744 4.432-.815 1.439 1.026 1.749 2.982.818 4.417z"/><path d="m164.009 249.541c-1.03 1.435-2.992 1.745-4.431.816-1.44-1.027-1.75-2.982-.819-4.417s2.992-1.744 4.431-.816c1.44 1.027 1.75 2.982.819 4.417z"/><path d="m141.542 255.956c-1.623 2.265-4.713 2.757-7 1.294-2.272-1.618-2.766-4.699-1.298-6.963 1.468-2.265 4.714-2.758 7-1.295 2.272 1.618 2.766 4.699 1.298 6.964z"/><path d="m79.7159 222.94c-.9315 1.294-2.6955 1.575-3.9939.745-1.2983-.928-1.5805-2.687-.7479-3.981s2.6955-1.575 3.9938-.745c1.2983.928 1.5806 2.687.748 3.981z"/><path d="m76.6958 80.9583c-.9314 1.2942-2.6954 1.5755-3.9938.7456-1.2983-.9285-1.5806-2.6869-.7479-3.9811.8326-1.2942 2.6954-1.5755 3.9938-.7456 1.2983.9285 1.5806 2.6869.7479 3.9811z"/><path d="m86.6449 75.3314c-1.3689 1.8991-3.9515 2.307-5.8707 1.0832-1.9052-1.3646-2.3145-3.9389-1.0867-5.852 1.2278-1.9132 3.9515-2.3071 5.8708-1.0832 1.9051 1.3645 2.3144 3.9388 1.0866 5.852z"/><path d="m47.9062 163.027c-1.1854 1.646-3.4293 1.998-5.0804.943-1.6512-1.182-2.004-3.419-.9455-5.065 1.0584-1.646 3.4293-1.997 5.0804-.942 1.6512 1.181 2.004 3.418.9455 5.064z"/><path d="m19.3037 163.027c-1.1854 1.646-3.4293 1.998-5.0804.943-1.6512-1.182-2.004-3.419-.9456-5.065 1.0585-1.646 3.4293-1.997 5.0805-.942 1.6511 1.181 2.0039 3.418.9455 5.064z"/></g><path d="m295.028 126.888 2.992 8.089 7.974-3.081-5.476 6.499 6.774 5.43-8.566-1.449-1.2 8.511-2.991-8.089-8.087 3.095 5.575-6.64-6.76-5.303 8.439 1.449z" fill="#ffa135"/><path d="m178.714 116.718.057 8.623 8.552-.211-7.367 4.276 4.53 7.386-7.564-4.249-4.036 7.597-.056-8.624-8.665.183 7.507-4.375-4.544-7.258 7.437 4.22z" fill="#ffa135"/><path d="m163.452 13.1119c-.932 1.2942-2.696 1.5755-4.008.7456-1.299-.9285-1.581-2.6869-.748-3.99517.832-1.30826 2.695-1.57554 4.008-.74557 1.298.92844 1.58 2.68684.748 3.99514z" fill="#fff"/><path d="m76.9355 110.908c-.9314 1.294-2.6954 1.575-4.0079.745-1.2983-.928-1.5806-2.687-.7479-3.995.8326-1.308 2.6954-1.576 4.0079-.746 1.2983.929 1.5806 2.687.7479 3.996z" fill="#7fa9c1"/><path d="m89.6364 117.069c-.6632.914-1.9051 1.111-2.8224.521-.9173-.662-1.1149-1.9-.5222-2.814s1.9052-1.111 2.8225-.52c.9173.661 1.1149 1.899.5221 2.813z" fill="#7fa9c1"/><path d="m151.35 59.2945c-.578.8019-1.679.9848-2.484.4643-.804-.5768-.987-1.6741-.465-2.4759s1.679-.9847 2.483-.4642c.805.5767.988 1.674.466 2.4758z" fill="#7fa9c1"/><path d="m227.839 163.224-.409 4.192 4.163.352-3.796 1.688 1.82 3.826-3.457-2.448-2.357 3.475.423-4.192-4.233-.352 3.881-1.744-1.835-3.77 3.401 2.448z" fill="#7fa9c1"/><path d="m66.6761 151.154-.4093 4.192 4.1631.338-3.7962 1.702 1.8205 3.826-3.4575-2.461-2.3568 3.488.4234-4.192-4.2337-.365 3.8809-1.731-1.8346-3.77 3.4011 2.434z" fill="#7fa9c1"/><path d="m143.899 24.4497-.41 4.1921 4.164.3376-3.797 1.7021 1.821 3.8264-3.458-2.4478-2.356 3.4747.423-4.1921-4.234-.3517 3.881-1.7443-1.834-3.7701 3.401 2.4337z" fill="#7fa9c1"/><path d="m169.894 281.502c-.565.197-1.157-.112-1.369-.633-.198-.563.113-1.153.635-1.364s1.157.112 1.369.633c.197.562-.113 1.153-.635 1.364z" fill="#7fa9c1"/><path d="m87.7033 217.693c-.5645.197-1.1572-.113-1.3689-.633-.1975-.563.1129-1.154.6351-1.365.5221-.211 1.1572.113 1.3689.633.1976.563-.1129 1.154-.6351 1.365z" fill="#7fa9c1"/><path d="m116.789 171.608c-.565.197-1.157-.112-1.369-.633-.198-.563.113-1.153.635-1.364s1.157.112 1.369.633c.197.562-.113 1.153-.635 1.364z" fill="#7fa9c1"/><path d="m154.173 127.127c-.565.197-1.158-.112-1.369-.633-.198-.563.113-1.153.635-1.364s1.157.112 1.369.633c.197.562-.113 1.153-.635 1.364z" fill="#7fa9c1"/><path d="m174.297 154.432c-.565.197-1.158-.113-1.369-.633-.198-.563.113-1.154.635-1.365s1.157.113 1.369.633c.197.563-.113 1.154-.635 1.365z" fill="#7fa9c1"/></g></svg>