<svg width="88" height="126" viewBox="0 0 88 126" fill="none" xmlns="http://www.w3.org/2000/svg">
<g clip-path="url(#clip0_174_100)">
<path d="M3.11182 50.3559L51.5358 36.9075L48.5865 90.1918L3.11182 50.3559Z" stroke="#204E62" stroke-miterlimit="10"/>
<path d="M43.4199 117.83L48.5868 90.1918L81.2736 72.2656" stroke="#204E62" stroke-miterlimit="10"/>
<path d="M72.9207 20.2242L51.536 36.9074L39.4873 27.1955" stroke="#204E62" stroke-miterlimit="10"/>
<path d="M3.11182 50.3558L27.1945 7.77173" stroke="#204E62" stroke-miterlimit="10"/>
<path d="M22.1237 3.17415L26.8693 4.97126L28.5029 0.134033L29.3456 5.20339L34.2316 4.25241L30.41 7.47224L33.6772 11.2911L28.9316 9.49399L27.298 14.3387L26.4627 9.26935L21.5693 10.2203L25.4574 7.01547L22.1237 3.17415Z" fill="#FFA135"/>
<path d="M36.0649 116.063L41.1062 116.542L41.4462 111.443L43.5529 116.115L48.0324 113.906L45.1643 118.025L49.3037 120.855L44.2625 120.368L43.9225 125.475L41.8158 120.795L37.3363 123.004L40.2709 118.886L36.0649 116.063Z" fill="#FFA135"/>
<path d="M73.9556 72.6999L78.9081 71.6441L77.7328 66.6721L81.1183 70.4985L84.7477 67.039L83.2249 71.8313L88.0001 73.284L83.0475 74.3398L84.2228 79.3193L80.8374 75.4929L77.2154 78.9449L78.8046 74.1301L73.9556 72.6999Z" fill="#FFA135"/>
<path d="M2.60199 51.771C1.61148 51.0896 1.40451 49.7193 2.08456 48.7159C2.75722 47.7125 4.10993 47.5029 5.10044 48.1918C6.09095 48.8732 6.29792 50.2435 5.61787 51.2469C4.89347 52.1978 3.54076 52.4599 2.60199 51.771Z" fill="#204E62"/>
<path d="M72.4106 22.3882C71.4201 21.7068 71.2131 20.3365 71.8932 19.3331C72.5658 18.3297 73.9185 18.1201 74.909 18.809C75.8995 19.4904 76.1065 20.8607 75.4265 21.8641C74.7021 22.815 73.3494 23.0771 72.4106 22.3882Z" fill="#204E62"/>
<path d="M49.8504 40.1872C48.5199 39.2661 48.239 37.4241 49.1482 36.0763C50.0574 34.7284 51.8758 34.4439 53.2063 35.3649C54.5369 36.2859 54.8177 38.128 53.9086 39.4758C52.9254 40.7488 51.107 41.1082 49.8504 40.1872Z" fill="#204E62"/>
<path d="M46.6576 91.9815C45.327 91.0605 45.0461 89.2184 45.9553 87.8706C46.8645 86.5228 48.6829 86.2382 50.0135 87.1592C51.344 88.0802 51.6249 89.9223 50.7157 91.2701C49.7326 92.5431 47.9142 92.9025 46.6576 91.9815Z" fill="#204E62"/>
<path d="M38.3859 29.2023C37.4989 28.5883 37.3067 27.3528 37.9202 26.4542C38.5264 25.5557 39.746 25.361 40.633 25.9825C41.5201 26.5965 41.7123 27.832 41.0987 28.7306C40.4409 29.5842 39.2286 29.8238 38.3859 29.2023Z" fill="#204E62"/>
<path d="M44.2403 49.7718C43.4198 49.2027 43.2424 48.0646 43.8042 47.2334C44.366 46.4022 45.4896 46.2225 46.31 46.7916C47.1305 47.3607 47.3079 48.4989 46.7462 49.33C46.14 50.1163 45.0165 50.3409 44.2403 49.7718Z" fill="#0C8085"/>
<path d="M55.6682 107.085C55.6682 108.29 54.6851 109.286 53.495 109.286C52.3049 109.286 51.3218 108.29 51.3218 107.085C51.3218 105.879 52.3049 104.883 53.495 104.883C54.6851 104.883 55.6682 105.879 55.6682 107.085Z" fill="#0C8085"/>
<path d="M5.76573 62.8906C5.26309 63.602 4.30954 63.7592 3.59992 63.295C2.8977 62.7858 2.74247 61.8198 3.20076 61.101C3.65906 60.3822 4.65696 60.2324 5.36657 60.6967C6.0688 61.2058 6.22403 62.1718 5.76573 62.8906Z" fill="#0C8085"/>
<path d="M1.73706 41.2429C1.4266 41.6847 0.835257 41.7746 0.406529 41.4975C-0.0295901 41.183 -0.118292 40.584 0.155206 40.1497C0.428705 39.7154 1.05701 39.618 1.48574 39.8951C1.92186 40.2096 2.01056 40.8086 1.73706 41.2429Z" fill="#0C8085"/>
<path d="M30.4988 81.4758C30.1883 81.9176 29.597 82.0075 29.1682 81.7304C28.7321 81.4159 28.6434 80.8169 28.9169 80.3826C29.1904 79.9483 29.8187 79.851 30.2475 80.128C30.6836 80.4425 30.7723 81.0415 30.4988 81.4758Z" fill="#0C8085"/>
<path d="M54.9436 96.3919C54.6331 96.8336 54.0418 96.9235 53.6131 96.6464C53.177 96.332 53.0883 95.7329 53.3618 95.2986C53.6352 94.8643 54.2636 94.767 54.6923 95.044C55.1284 95.3585 55.2171 95.9576 54.9436 96.3919Z" fill="#0C8085"/>
<path d="M65.7507 20.9955C65.4403 21.4373 64.8489 21.5271 64.4202 21.2501C63.9841 20.9356 63.8954 20.3366 64.1689 19.9023C64.4424 19.4679 65.0707 19.3706 65.4994 19.6477C65.9355 19.9622 66.0242 20.5612 65.7507 20.9955Z" fill="#0C8085"/>
<path d="M57.9226 79.7387C57.6122 80.1804 57.0208 80.2703 56.5921 79.9932C56.156 79.6788 56.0673 79.0797 56.3408 78.6454C56.6143 78.2111 57.2426 78.1138 57.6713 78.3908C58.1074 78.7053 58.1961 79.3044 57.9226 79.7387Z" fill="#0C8085"/>
<path d="M60.7609 102.884C60.4431 103.333 59.8444 103.431 59.4008 103.139C58.9573 102.817 58.8612 102.21 59.1495 101.761C59.4378 101.311 60.0661 101.214 60.5096 101.506C60.9531 101.828 61.0492 102.435 60.7609 102.884Z" fill="#0C8085"/>
<path d="M27.9337 23.4591C27.9337 24.47 27.1132 25.3011 26.1153 25.3011C25.1174 25.3011 24.2969 24.47 24.2969 23.4591C24.2969 22.4482 25.1174 21.6171 26.1153 21.6171C27.1132 21.6171 27.9337 22.4482 27.9337 23.4591Z" fill="#0C8085"/>
<path d="M70.2598 67.8852C70.0307 68.2072 69.5945 68.2821 69.2767 68.0724C68.9588 67.8403 68.8849 67.3985 69.0919 67.0765C69.2989 66.7545 69.7572 66.6796 70.075 66.8893C70.3929 67.1214 70.4668 67.5632 70.2598 67.8852Z" fill="#0C8085"/>
<path d="M42.9319 56.5784C42.6214 57.0202 42.0301 57.11 41.6014 56.833C41.1652 56.5185 41.0765 55.9194 41.35 55.4851C41.6235 55.0508 42.2518 54.9535 42.6806 55.2305C43.1167 55.545 43.2054 56.1441 42.9319 56.5784Z" fill="#0C8085"/>
</g>
<defs>
<clipPath id="clip0_174_100">
<rect width="88" height="125.341" fill="white" transform="translate(0 0.134033)"/>
</clipPath>
</defs>
</svg>
