<svg width="308" height="282" viewBox="0 0 257 282" fill="none" xmlns="http://www.w3.org/2000/svg">
<circle opacity="0.1" cx="128.686" cy="153.951" r="127.889" fill="#F2F9FA"/>
<path d="M150.931 202.902C149.769 204.518 147.586 204.864 145.969 203.828C144.352 202.666 144.006 200.484 145.043 198.868C146.079 197.251 148.387 196.906 150.005 197.942C151.622 199.103 151.967 201.285 150.931 202.902Z" fill="#7FA9C1"/>
<path d="M158.155 211.284C157.495 212.21 156.239 212.398 155.328 211.817C154.402 211.158 154.213 209.902 154.794 208.992C155.375 208.082 156.71 207.877 157.621 208.458C158.547 209.117 158.736 210.373 158.155 211.284Z" fill="#7FA9C1"/>
<path d="M67.9895 183.093C67.33 184.019 66.0737 184.208 65.163 183.627C64.2365 182.968 64.0481 181.712 64.6291 180.801C65.2101 179.891 66.5448 179.687 67.4556 180.268C68.382 180.927 68.5705 182.183 67.9895 183.093Z" fill="#7FA9C1"/>
<path d="M166.022 60.035C165.362 60.9611 164.106 61.1495 163.195 60.5687C162.269 59.9095 162.08 58.6538 162.661 57.7434C163.242 56.833 164.577 56.629 165.488 57.2097C166.414 57.869 166.603 59.1247 166.022 60.035Z" fill="#7FA9C1"/>
<path d="M162.19 137.637C161.53 138.563 160.274 138.752 159.363 138.171C158.437 137.512 158.248 136.256 158.829 135.345C159.41 134.435 160.745 134.231 161.656 134.812C162.582 135.471 162.771 136.727 162.19 137.637Z" fill="#7FA9C1"/>
<path d="M36.0659 256.034C35.3907 256.975 34.1187 257.179 33.1766 256.567C32.2344 255.892 32.0303 254.621 32.6427 253.679C33.2551 252.737 34.5898 252.533 35.532 253.145C36.4742 253.82 36.6783 255.092 36.0659 256.034Z" fill="#7FA9C1"/>
<path d="M206.708 143.037C206.221 143.712 205.294 143.869 204.619 143.429C203.944 142.943 203.787 142.016 204.227 141.342C204.666 140.667 205.64 140.51 206.315 140.949C206.99 141.436 207.147 142.362 206.708 143.037Z" fill="#7FA9C1"/>
<path d="M163.886 100.923C163.226 101.849 161.97 102.038 161.059 101.457C160.133 100.798 159.945 99.542 160.526 98.6316C161.107 97.7212 162.441 97.5171 163.352 98.0979C164.279 98.7571 164.467 100.013 163.886 100.923Z" fill="#7FA9C1"/>
<path d="M98.7202 134.089C98.2963 134.67 97.5111 134.796 96.9144 134.419C96.3334 133.995 96.2078 133.21 96.5847 132.614C96.9615 132.017 97.7938 131.907 98.3905 132.284C98.9715 132.708 99.0971 133.493 98.7202 134.089Z" fill="#7FA9C1"/>
<path d="M111.738 247.778C111.314 248.358 110.529 248.484 109.932 248.107C109.351 247.684 109.225 246.899 109.602 246.302C109.979 245.706 110.811 245.596 111.408 245.973C111.989 246.396 112.115 247.181 111.738 247.778Z" fill="#7FA9C1"/>
<path d="M226.258 115.835C225.708 116.604 224.656 116.777 223.887 116.274C223.117 115.725 222.945 114.673 223.447 113.904C223.95 113.135 225.049 112.962 225.818 113.465C226.588 114.014 226.761 115.066 226.258 115.835Z" fill="#7FA9C1"/>
<path d="M134.993 23.6825C134.569 24.2633 133.784 24.3888 133.187 24.0121C132.606 23.5883 132.481 22.8035 132.858 22.207C133.234 21.6106 134.067 21.5007 134.663 21.8774C135.244 22.3012 135.37 23.086 134.993 23.6825Z" fill="#7FA9C1"/>
<path d="M181.379 163.143L186.168 162.453L185.352 157.681L188.351 161.495L192.025 158.45L190.282 162.877L194.758 164.54L189.968 165.231L190.785 170.003L187.786 166.189L184.127 169.234L185.917 164.792L181.379 163.143Z" fill="#7FA9C1"/>
<path d="M34.1504 172.608L38.9554 171.901L38.1232 167.146L41.1381 170.96L44.7969 167.915L43.0539 172.341L47.5291 174.005L42.7398 174.695L43.572 179.451L40.5571 175.653L36.8984 178.682L38.7042 174.24L34.1504 172.608Z" fill="#7FA9C1"/>
<path d="M180.736 135.236L220.322 129.9L148.686 59.6904L144.211 98.5387L97.1657 146.491L57.5947 151.827L129.215 222.037L133.69 183.189L180.736 135.236Z" stroke="white" stroke-miterlimit="10"/>
<path d="M132.214 128.77L20.6772 243.023L60.0284 241.484L103.682 197.001" stroke="white" stroke-miterlimit="10"/>
<path d="M147.995 61.6839L155.14 12.8843" stroke="white" stroke-miterlimit="10"/>
<path d="M128.759 221.409L125.194 261.34" stroke="white" stroke-miterlimit="10"/>
<path d="M17.348 247.292C15.2438 245.864 14.8041 242.991 16.2488 240.888C17.6777 238.785 20.5513 238.345 22.6555 239.789C24.7597 241.218 25.1993 244.09 23.7547 246.193C22.2158 248.187 19.3422 248.736 17.348 247.292Z" fill="white"/>
<path d="M131.178 187.443C129.073 186.014 128.634 183.142 130.078 181.039C131.507 178.935 134.381 178.496 136.485 179.94C138.589 181.368 139.029 184.241 137.584 186.344C136.045 188.337 133.172 188.887 131.178 187.443Z" fill="white"/>
<path d="M146.174 65.5768C143.819 63.9758 143.332 60.758 144.934 58.4193C146.535 56.0648 149.754 55.5783 152.094 57.1793C154.449 58.7803 154.936 61.998 153.335 64.3368C151.607 66.5656 148.388 67.1778 146.174 65.5768Z" fill="white"/>
<path d="M216.773 134.28C213.947 132.349 213.35 128.488 215.282 125.662C217.213 122.837 221.076 122.241 223.902 124.171C226.729 126.102 227.326 129.963 225.394 132.789C223.306 135.457 219.443 136.21 216.773 134.28Z" fill="white"/>
<path d="M94.4014 149.191C92.5171 147.903 92.1088 145.314 93.4122 143.43C94.6998 141.546 97.2907 141.138 99.1751 142.441C101.059 143.728 101.468 146.318 100.164 148.202C98.7668 149.991 96.1916 150.493 94.4014 149.191Z" fill="white"/>
<path d="M177.862 138.705C176.119 137.512 175.742 135.127 176.936 133.384C178.129 131.642 180.516 131.265 182.259 132.458C184.002 133.651 184.379 136.037 183.185 137.779C181.898 139.427 179.511 139.898 177.862 138.705Z" fill="white"/>
<path d="M134.601 222.304C134.601 224.831 132.513 226.918 129.985 226.918C127.457 226.918 125.368 224.831 125.368 222.304C125.368 219.777 127.457 217.689 129.985 217.689C132.513 217.689 134.601 219.777 134.601 222.304Z" fill="white"/>
<path d="M87.0214 180.112C85.9536 181.603 83.928 181.933 82.4205 180.96C80.9287 179.892 80.599 177.868 81.5726 176.361C82.5461 174.854 84.666 174.54 86.1735 175.513C87.6652 176.58 87.995 178.605 87.0214 180.112Z" fill="white"/>
<path d="M108.409 197.347C108.409 199.466 106.666 201.208 104.546 201.208C102.426 201.208 100.683 199.466 100.683 197.347C100.683 195.228 102.426 193.486 104.546 193.486C106.666 193.486 108.409 195.228 108.409 197.347Z" fill="white"/>
<path d="M60.4838 153.146C59.6044 154.37 57.9556 154.622 56.7308 153.837C55.506 152.958 55.2548 151.31 56.0399 150.085C56.825 148.861 58.5681 148.61 59.7929 149.395C61.0177 150.274 61.2689 151.922 60.4838 153.146Z" fill="white"/>
<path d="M131.68 131.046C129.325 129.445 128.838 126.227 130.44 123.889C132.042 121.534 135.261 121.047 137.6 122.649C139.956 124.25 140.443 127.467 138.841 129.806C137.114 132.035 133.895 132.647 131.68 131.046Z" fill="white"/>
<path d="M146.127 99.8888C145.138 101.27 143.269 101.568 141.887 100.674C140.505 99.6847 140.207 97.8169 141.102 96.4356C141.997 95.0544 143.96 94.7561 145.342 95.6508C146.724 96.6397 147.022 98.5075 146.127 99.8888Z" fill="white"/>
<path d="M140.16 12.8216L150.807 11.2677L148.969 0.704102L155.643 9.16438L163.777 2.41499L159.93 12.2408L169.87 15.9138L159.223 17.4677L161.061 28.0313L154.387 19.571L146.237 26.3204L150.241 16.4631L140.16 12.8216Z" fill="#FFA135"/>
<path d="M110.042 262.753L120.689 261.199L118.852 250.635L125.525 259.096L133.675 252.346L129.812 262.172L139.752 265.845L129.106 267.399L130.943 277.962L124.269 269.502L116.135 276.252L120.139 266.394L110.042 262.753Z" fill="#FFA135"/>
<path d="M44.876 238.957L55.2869 236.273L52.3191 225.961L59.8721 233.652L67.2367 226.071L64.4573 236.258L74.7269 238.848L64.316 241.532L67.2838 251.844L59.7308 244.137L52.3662 251.718L55.2869 241.485L44.876 238.957Z" fill="#FFA135"/>
</svg>
