<svg width="136" height="100" viewBox="0 0 136 100" fill="none" xmlns="http://www.w3.org/2000/svg">
<path d="M89.8146 80.2023C88.5677 79.3381 88.2998 77.619 89.1588 76.3645C90.0178 75.1101 91.7266 74.8406 92.9735 75.7048C94.2204 76.569 94.4883 78.2881 93.6293 79.5425C92.7056 80.7319 90.9969 81.0665 89.8146 80.2023Z" fill="#204E62"/>
<path d="M57.5602 94.977C57.5602 96.3709 56.4148 97.5231 55.0294 97.5231C53.6439 97.5231 52.4985 96.3709 52.4985 94.977C52.4985 93.5832 53.6439 92.4309 55.0294 92.4309C56.4148 92.4309 57.5602 93.5832 57.5602 94.977Z" fill="#204E62"/>
<path d="M107.743 54.6016C109.14 54.6016 110.274 53.4617 110.274 52.0555C110.274 50.6493 109.14 49.5094 107.743 49.5094C106.345 49.5094 105.212 50.6493 105.212 52.0555C105.212 53.4617 106.345 54.6016 107.743 54.6016Z" fill="#204E62"/>
<path d="M59.0287 10.268C58.2158 11.4202 56.6549 11.6618 55.5095 10.9277C54.3642 10.11 54.124 8.53959 54.8537 7.38734C55.6666 6.23509 57.2275 5.99349 58.3729 6.72758C59.5182 7.54531 59.7584 9.11572 59.0287 10.268Z" fill="#204E62"/>
<path d="M48.0463 46.3501C48.0463 47.4837 47.1227 48.413 45.9958 48.413C44.869 48.413 43.9453 47.4837 43.9453 46.3501C43.9453 45.2164 44.869 44.2872 45.9958 44.2872C47.1227 44.2872 48.0463 45.2164 48.0463 46.3501Z" fill="#204E62"/>
<path d="M126.133 89.8012L91.6619 77.907L55.1128 95.2094L29.001 68.6333L45.2851 46.694L85.0115 7.55469L56.1842 8.38171" stroke="#204E62" stroke-miterlimit="10"/>
<path d="M134 46.6939L107.327 51.6374L45.2847 46.6939" stroke="#204E62" stroke-miterlimit="10"/>
<path d="M107.327 51.6375L91.6616 77.907" stroke="#204E62" stroke-miterlimit="10"/>
<path d="M93.047 43.5346C92.5205 43.1722 92.4096 42.4566 92.7699 41.927C93.1301 41.3973 93.8413 41.2858 94.3678 41.6482C94.8943 42.0106 95.0051 42.7261 94.6449 43.2558C94.257 43.7576 93.5457 43.897 93.047 43.5346Z" fill="#0C8085"/>
<path d="M72.6807 97.6439C72.6807 98.7683 71.7571 99.6975 70.6394 99.6975C69.5218 99.6975 68.5981 98.7683 68.5981 97.6439C68.5981 96.5196 69.5218 95.5903 70.6394 95.5903C71.7571 95.5903 72.6807 96.5196 72.6807 97.6439Z" fill="#0C8085"/>
<path d="M86.004 20.5913C85.4121 21.4304 84.2753 21.6064 83.4412 21.0718C82.607 20.4762 82.4321 19.3326 82.9636 18.4934C83.5555 17.6543 84.6923 17.4783 85.5264 18.0129C86.3606 18.6085 86.596 19.7521 86.004 20.5913Z" fill="#0C8085"/>
<path d="M60.3311 63.3644L60.9038 65.9105L63.4069 65.2601L61.5227 67.0349L63.333 68.8934L60.8299 68.1314L60.1464 70.6403L59.5645 68.0942L57.0337 68.754L58.9549 66.9699L57.1445 65.1114L59.6015 65.8734L60.3311 63.3644Z" fill="#0C8085"/>
<path d="M21.4637 50.0021L22.0364 52.6411L24.7057 51.9906L22.6829 53.8677L24.5949 55.8284L21.9994 55.0199L21.242 57.6683L20.6324 54.9828L18 55.6704L19.9766 53.7934L18.0739 51.8048L20.7063 52.6039L21.4637 50.0021Z" fill="#0C8085"/>
<path d="M65.5225 36.0734L66.1045 38.6195L68.5983 37.9691L66.7141 39.7532L68.5244 41.6024L66.0306 40.8404L65.3378 43.3493L64.7652 40.8032L62.2251 41.463L64.1463 39.6789L62.3359 37.8204L64.8021 38.5824L65.5225 36.0734Z" fill="#0C8085"/>
<path d="M103.799 73.8927C103.217 73.4931 103.087 72.6846 103.494 72.0992C103.891 71.5138 104.695 71.3837 105.276 71.7926C105.858 72.1922 105.988 73.0006 105.581 73.586C105.147 74.1435 104.353 74.3015 103.799 73.8927Z" fill="#0C8085"/>
<path d="M27.4676 59.982C27.1073 59.7311 27.0334 59.2386 27.2736 58.8669C27.523 58.5045 28.0125 58.4302 28.382 58.6718C28.7422 58.9227 28.8161 59.4152 28.576 59.7869C28.3081 60.1307 27.8093 60.2236 27.4676 59.982Z" fill="#0C8085"/>
<path d="M43.6775 94.3265C43.1972 93.992 43.0956 93.3322 43.4281 92.849C43.7607 92.3658 44.4165 92.2636 44.8968 92.5981C45.3771 92.9327 45.4787 93.5924 45.1461 94.0756C44.7952 94.5309 44.1394 94.661 43.6775 94.3265Z" fill="#0C8085"/>
<path d="M62.0306 15.5554C61.6703 15.3045 61.5964 14.812 61.8366 14.4403C62.086 14.0779 62.5755 14.0035 62.945 14.2451C63.3052 14.496 63.3791 14.9885 63.1389 15.3602C62.8711 15.704 62.3723 15.797 62.0306 15.5554Z" fill="#0C8085"/>
<path d="M124.996 38.619C124.636 38.3681 124.562 37.8756 124.802 37.5039C125.052 37.1415 125.541 37.0671 125.911 37.3087C126.271 37.5596 126.345 38.0521 126.105 38.4238C125.837 38.7676 125.338 38.8606 124.996 38.619Z" fill="#0C8085"/>
<path d="M54.7147 88.8615C54.417 88.656 54.3527 88.2389 54.5571 87.9394C54.7614 87.6398 55.176 87.5752 55.4737 87.7808C55.7715 87.9864 55.8357 88.4034 55.6314 88.703C55.4095 88.9908 55.0008 89.0671 54.7147 88.8615Z" fill="#0C8085"/>
<path d="M54.7147 88.8615C54.417 88.656 54.3527 88.2389 54.5571 87.9394C54.7614 87.6398 55.176 87.5752 55.4737 87.7808C55.7715 87.9864 55.8357 88.4034 55.6314 88.703C55.4095 88.9908 55.0008 89.0671 54.7147 88.8615Z" fill="#0C8085"/>
<path d="M102.727 46.3687C102.478 46.2015 102.422 45.8577 102.598 45.6068C102.764 45.3559 103.106 45.3001 103.355 45.4767C103.605 45.6439 103.66 45.9878 103.484 46.2386C103.3 46.4802 102.958 46.5453 102.727 46.3687Z" fill="#0C8085"/>
<path d="M46.4947 52.6876C46.2453 52.5203 46.1898 52.1765 46.3653 51.9256C46.5316 51.6747 46.8734 51.619 47.1227 51.7955C47.3721 51.9628 47.4275 52.3066 47.2521 52.5575C47.0673 52.7991 46.7256 52.8641 46.4947 52.6876Z" fill="#0C8085"/>
<path d="M82.6099 75.8719C82.3605 75.7047 82.3051 75.3608 82.4806 75.1099C82.6468 74.859 82.9886 74.8033 83.238 74.9799C83.4874 75.1471 83.5428 75.4909 83.3673 75.7418C83.1826 75.9834 82.8408 76.0485 82.6099 75.8719Z" fill="#0C8085"/>
<path d="M134.806 84.5231C134.556 84.3558 134.501 84.012 134.676 83.7611C134.843 83.5102 135.184 83.4545 135.434 83.631C135.683 83.7983 135.739 84.1421 135.563 84.393C135.378 84.6346 135.037 84.6997 134.806 84.5231Z" fill="#0C8085"/>
<path d="M36.3254 69.07C35.9651 68.8284 35.8912 68.3359 36.1406 67.9735C36.3808 67.6111 36.8703 67.5367 37.2305 67.7876C37.5908 68.0292 37.6647 68.5217 37.4153 68.8841C37.1566 69.2279 36.6671 69.3209 36.3254 69.07Z" fill="#0C8085"/>
<path d="M64.1826 11.7548C63.9333 11.5875 63.8778 11.2437 64.0533 10.9928C64.2196 10.7419 64.5613 10.6862 64.8107 10.8627C65.0601 11.03 65.1155 11.3738 64.94 11.6247C64.7553 11.8663 64.4136 11.9313 64.1826 11.7548Z" fill="#0C8085"/>
<path d="M79.6553 6.36711L84.4306 5.62372L83.5623 0.85675L86.5919 4.65732L90.2219 1.57226L88.5316 6.03259L93.0114 7.65875L88.236 8.39284L89.095 13.1691L86.0655 9.36854L82.4355 12.4536L84.1997 7.97469L79.6553 6.36711Z" fill="#FFA135"/>
<path d="M121.062 84.4023L124.978 86.6231L127.02 82.7018L127.112 87.1714L131.536 87.0041L127.712 89.2436L130.012 93.007L126.188 90.8605L124.064 94.7911L124.055 90.3122L119.63 90.4795L123.454 88.2307L121.062 84.4023Z" fill="#FFA135"/>
<path d="M10.608 67.584C10.294 67.3702 10.2201 66.9335 10.4417 66.6083C10.6542 66.2923 11.0883 66.218 11.4116 66.441C11.7256 66.6547 11.7995 67.0915 11.5778 67.4167C11.3469 67.714 10.9128 67.807 10.608 67.584Z" fill="#0C8085"/>
<path d="M3 58.6828L29.5 67.7074" stroke="#204E62"/>
<path d="M1.4691 60.5085C0.374974 59.7551 0.140517 58.2481 0.895982 57.1474C1.64493 56.0467 3.14284 55.8108 4.23696 56.5708C5.33109 57.3243 5.56553 58.8312 4.81007 59.932C4.0025 60.9737 2.5046 61.2686 1.4691 60.5085Z" fill="#204E62"/>
<path d="M29.7245 61.9023L30.4426 65.8228L34.29 65.0446L31.3056 67.5837L33.9401 70.5902L30.1833 69.2589L28.9705 73.0436L28.2524 69.1231L24.3529 69.899L27.3919 67.3024L24.7548 64.3557L28.4596 65.6847L29.7245 61.9023Z" fill="#FFA135"/>
<path d="M134.574 46.469C134.574 47.1614 134.006 47.7334 133.317 47.7334C132.629 47.7334 132.061 47.1614 132.061 46.469C132.061 45.7765 132.629 45.2045 133.317 45.2045C134.006 45.2045 134.574 45.7765 134.574 46.469Z" fill="#204E62"/>
</svg>
