<svg width="1280" height="941" viewBox="0 0 1280 941" fill="none" xmlns="http://www.w3.org/2000/svg">
<g opacity="0.3">
<path d="M979.761 128.27L974.838 124.531L971.252 129.588L971.981 123.427L965.842 122.814L971.525 120.393L968.973 114.723L973.896 118.462L977.482 113.404L976.752 119.565L982.891 120.178L977.208 122.6L979.761 128.27Z" fill="#75A3C1"/>
<path d="M887.377 231.502L882.454 227.762L878.837 232.82L879.597 226.628L873.458 226.046L879.141 223.594L876.588 217.924L881.512 221.663L885.098 216.606L884.368 222.766L890.507 223.379L884.824 225.831L887.377 231.502Z" fill="#75A3C1"/>
<path d="M867.229 43.8886C867.229 42.4174 868.414 41.222 869.872 41.222C871.331 41.222 872.516 42.4174 872.516 43.8886C872.516 45.3598 871.331 46.5553 869.872 46.5553C868.414 46.5553 867.229 45.3598 867.229 43.8886Z" fill="#75A3C1"/>
<path d="M792.653 41.682C792.653 40.2108 793.838 39.0153 795.297 39.0153C796.756 39.0153 797.941 40.2108 797.941 41.682C797.941 43.1533 796.756 44.3486 795.297 44.3486C793.838 44.3486 792.653 43.1533 792.653 41.682Z" fill="#75A3C1"/>
<path d="M690.788 68.5624C690.788 67.0912 691.973 65.8958 693.432 65.8958C694.89 65.8958 696.075 67.0912 696.075 68.5624C696.075 70.0336 694.89 71.229 693.432 71.229C691.973 71.229 690.788 70.0336 690.788 68.5624Z" fill="#75A3C1"/>
<path d="M895.187 62.9842C893.727 62.9842 892.543 64.1781 892.543 65.6508C892.543 67.1235 893.727 68.3174 895.187 68.3174C896.647 68.3174 897.831 67.1235 897.831 65.6508C897.831 64.1781 896.647 62.9842 895.187 62.9842Z" fill="#75A3C1"/>
<path d="M835.137 210.414C835.137 208.943 836.322 207.748 837.781 207.748C839.24 207.748 840.425 208.943 840.425 210.414C840.425 211.886 839.24 213.081 837.781 213.081C836.322 213.081 835.137 211.886 835.137 210.414Z" fill="#75A3C1"/>
<path d="M951.893 151.32C950.433 151.32 949.25 152.514 949.25 153.986C949.25 155.459 950.433 156.653 951.893 156.653C953.354 156.653 954.537 155.459 954.537 153.986C954.537 152.514 953.354 151.32 951.893 151.32Z" fill="#75A3C1"/>
<path d="M952.744 128.669C952.744 127.197 953.929 126.002 955.388 126.002C956.847 126.002 958.032 127.197 958.032 128.669C958.032 130.14 956.847 131.335 955.388 131.335C953.929 131.335 952.744 130.14 952.744 128.669Z" fill="#75A3C1"/>
<path d="M893.273 91.0912C894.883 92.2252 895.278 94.4627 894.154 96.1178C893.029 97.7423 890.811 98.1408 889.17 97.0067C887.559 95.8726 887.164 93.6351 888.289 91.98C889.413 90.3555 891.631 89.9571 893.273 91.0912Z" fill="#75A3C1"/>
<path d="M885.098 136.301C886.708 137.435 887.103 139.673 885.979 141.328C884.855 142.983 882.636 143.351 880.995 142.217C879.354 141.082 878.989 138.845 880.114 137.19C881.238 135.565 883.457 135.167 885.098 136.301Z" fill="#75A3C1"/>
<path d="M862.518 240.728C864.129 241.862 864.524 244.099 863.4 245.755C862.275 247.379 860.057 247.778 858.416 246.643C856.805 245.509 856.41 243.272 857.535 241.617C858.659 239.992 860.877 239.594 862.518 240.728Z" fill="#75A3C1"/>
<path d="M732.026 63.3827C733.637 64.5167 734.032 66.7542 732.907 68.4093C731.783 70.0338 729.565 70.4323 727.924 69.2982C726.313 68.1642 725.918 65.9267 727.042 64.2716C728.167 62.6471 730.385 62.2486 732.026 63.3827Z" fill="#75A3C1"/>
<path d="M795.297 41.2219L869.872 43.4288C869.872 43.4288 870.085 43.4595 870.146 43.5514L895.46 65.3135C895.46 65.3135 895.643 65.5587 895.612 65.712L891.662 94.0945L883.517 139.335C883.517 139.335 883.487 139.458 883.456 139.488L838.237 210.261L860.573 242.996L879.718 225.954L951.468 153.772L954.811 128.117C954.811 127.933 954.963 127.81 955.115 127.749L974.23 120.791C974.442 120.699 974.685 120.791 974.807 121.037L988.118 148.775C988.118 148.775 988.178 149.051 988.118 149.205C988.057 149.327 987.935 149.419 987.783 149.45L952.136 154.446L880.357 226.659L860.816 244.069C860.816 244.069 860.573 244.191 860.452 244.191C860.33 244.191 860.208 244.099 860.117 244.007L837.325 210.598C837.325 210.598 837.204 210.23 837.325 210.077L882.666 139.12L890.811 94.0025L894.731 65.8959L869.72 44.4096L795.388 42.2028L730.172 66.846C730.172 66.846 730.081 66.846 730.051 66.846L693.492 69.0529L693.431 68.1333L729.929 65.9264L795.175 41.2833C795.175 41.2833 795.297 41.2833 795.327 41.2833L795.297 41.2219ZM987.024 148.622L974.138 121.803L955.662 128.515L952.41 153.434L986.993 148.592L987.024 148.622Z" fill="#75A3C1"/>
<path d="M987.662 157.419L986.295 151.35L980.308 152.883L984.836 148.653L980.521 144.178L986.416 146.017L988.088 140.04L989.486 146.109L995.442 144.577L990.944 148.806L995.229 153.251L989.334 151.442L987.662 157.419Z" fill="#75A3C1"/>
<path d="M751.84 195.549C751.84 194.077 753.025 192.882 754.484 192.882C755.942 192.882 757.127 194.077 757.127 195.549C757.127 197.02 755.942 198.215 754.484 198.215C753.025 198.215 751.84 197.02 751.84 195.549Z" fill="#75A3C1"/>
<path d="M776.243 174.185C774.782 174.185 773.599 175.379 773.599 176.852C773.599 178.324 774.782 179.518 776.243 179.518C777.703 179.518 778.886 178.324 778.886 176.852C778.886 175.379 777.703 174.185 776.243 174.185Z" fill="#75A3C1"/>
<path d="M807.574 146.323C806.114 146.323 804.93 147.517 804.93 148.99C804.93 150.463 806.114 151.657 807.574 151.657C809.034 151.657 810.218 150.463 810.218 148.99C810.218 147.517 809.034 146.323 807.574 146.323Z" fill="#75A3C1"/>
<path d="M790.374 140.837C791.984 141.971 792.379 144.208 791.255 145.864C790.13 147.488 787.912 147.887 786.271 146.752C784.63 145.618 784.265 143.381 785.39 141.726C786.514 140.101 788.733 139.703 790.374 140.837Z" fill="#75A3C1"/>
<path d="M813.743 105.956C815.354 107.091 815.749 109.328 814.624 110.983C813.5 112.638 811.281 113.006 809.64 111.872C808.03 110.738 807.635 108.5 808.759 106.845C809.884 105.221 812.102 104.822 813.743 105.956Z" fill="#75A3C1"/>
<path d="M811.707 108.439C811.707 108.439 811.92 108.47 812.011 108.562C812.133 108.654 812.163 108.807 812.163 108.96L808.03 149.051C808.03 149.051 807.939 149.297 807.848 149.358C807.757 149.419 807.605 149.48 807.483 149.45L788.611 145.894L776.668 177.036C776.668 177.036 776.607 177.158 776.547 177.219L754.788 195.916L729.808 209.372L729.382 208.544L754.271 195.15L775.878 176.576L787.912 145.189C788.003 144.975 788.216 144.852 788.429 144.914L807.179 148.438L811.191 109.481L789.523 114.477L788.763 143.779L787.852 143.779L788.611 114.079C788.611 113.864 788.763 113.68 788.976 113.65L811.586 108.408C811.586 108.408 811.646 108.408 811.677 108.408L811.707 108.439Z" fill="#75A3C1"/>
<path d="M788.429 125.144L787.061 119.075L781.105 120.608L785.602 116.378L781.318 111.934L787.213 113.742L788.885 107.765L790.252 113.834L796.239 112.301L791.711 116.531L795.996 121.006L790.131 119.167L788.429 125.144Z" fill="#75A3C1"/>
<path d="M728.44 218.414L727.073 212.376L721.086 213.878L725.614 209.648L721.299 205.204L727.194 207.043L728.866 201.066L730.233 207.104L736.22 205.602L731.692 209.832L736.007 214.276L730.112 212.437L728.44 218.414Z" fill="#75A3C1"/>
<path d="M551.482 25.8043L548.626 20.2872L543.216 23.2603L546.529 18.0191L541.272 14.8007L547.41 15.0766L547.562 8.85446L550.388 14.3717L555.798 11.3678L552.485 16.6398L557.773 19.8581L551.604 19.5822L551.482 25.8043Z" fill="#75A3C1"/>
<path d="M510.183 35.7351L506.476 32.9152L503.741 36.7466L504.318 32.057L499.668 31.5973L503.953 29.7582L502.039 25.4671L505.746 28.3176L508.481 24.4863L507.904 29.1452L512.553 29.605L508.269 31.444L510.183 35.7351Z" fill="#75A3C1"/>
<path d="M561.693 102.707C563.304 103.841 563.699 106.078 562.574 107.734C561.45 109.358 559.231 109.757 557.59 108.622C555.949 107.488 555.585 105.251 556.709 103.596C557.833 101.971 560.052 101.573 561.693 102.707Z" fill="#75A3C1"/>
<path d="M603.752 72.6696C605.363 73.8037 605.758 76.0412 604.634 77.6964C603.509 79.3209 601.291 79.7193 599.65 78.5852C598.039 77.4511 597.644 75.2137 598.768 73.5585C599.893 71.9034 602.111 71.5355 603.752 72.6696Z" fill="#75A3C1"/>
<path d="M597.857 40.7313C599.467 41.8654 599.862 44.1029 598.738 45.7581C597.614 47.3826 595.395 47.7811 593.754 46.647C592.144 45.5129 591.748 43.2754 592.873 41.6202C593.997 39.9957 596.216 39.5972 597.857 40.7313Z" fill="#75A3C1"/>
<path d="M658.727 36.1034L656.964 30.341L651.312 32.2414L655.384 27.8277L650.917 23.8431L656.751 25.1917L657.967 19.3067L659.699 25.0691L665.352 23.1688L661.279 27.5518L665.747 31.567L659.912 30.2184L658.727 36.1034Z" fill="#75A3C1"/>
<path d="M505.169 18.4482C503.708 18.4482 502.525 19.642 502.525 21.1148C502.525 22.5875 503.708 23.7814 505.169 23.7814C506.629 23.7814 507.813 22.5875 507.813 21.1148C507.813 19.642 506.629 18.4482 505.169 18.4482Z" fill="#75A3C1"/>
<path d="M609.131 105.65C609.131 104.179 610.316 102.983 611.775 102.983C613.233 102.983 614.419 104.179 614.419 105.65C614.419 107.121 613.233 108.316 611.775 108.316C610.316 108.316 609.131 107.121 609.131 105.65Z" fill="#75A3C1"/>
<path d="M572.633 16.0574C572.633 14.5862 573.818 13.3908 575.277 13.3908C576.736 13.3908 577.921 14.5862 577.921 16.0574C577.921 17.5286 576.736 18.724 575.277 18.724C573.818 18.724 572.633 17.5286 572.633 16.0574Z" fill="#75A3C1"/>
<path d="M549.933 16.8544C550.146 16.8544 550.328 17.0076 550.389 17.2222C550.419 17.4674 550.298 17.6819 550.085 17.7432L506.263 31.015L505.99 30.1261L545.618 18.1111L505.2 21.5439L505.108 20.6244L549.872 16.8237C549.872 16.8237 549.872 16.8237 549.902 16.8237L549.933 16.8544Z" fill="#75A3C1"/>
<path d="M671.004 -77.3047C671.004 -77.3047 671.065 -77.3047 671.095 -77.3047C671.247 -77.3047 671.369 -77.1821 671.429 -77.0288L688.022 -38.6234C688.113 -38.4395 688.022 -38.1944 687.87 -38.0718L643.258 -6.16431L657.754 27.1225C657.845 27.3064 657.754 27.5209 657.633 27.6435L602.233 75.7345L612.2 105.466C612.2 105.466 612.2 105.772 612.14 105.895C612.048 106.017 611.927 106.079 611.775 106.079L559.657 106.079C559.444 106.079 559.292 105.956 559.232 105.772C559.171 105.588 559.232 105.374 559.414 105.251L601.26 75.3667L595.425 43.8577L575.095 16.4866L549.993 17.7432L549.933 16.8237L575.125 15.5364L670.73 -77.2127C670.73 -77.2127 670.943 -77.3354 671.034 -77.3354L671.004 -77.3047ZM687.019 -38.5928L670.852 -76.048L575.885 16.0882L596.185 43.4286C596.185 43.4286 596.246 43.5512 596.276 43.6125L602.05 74.7537L656.812 27.1837L642.286 -6.13363C642.195 -6.34819 642.286 -6.56281 642.438 -6.68541L687.05 -38.5928L687.019 -38.5928ZM611.106 105.19L601.443 76.3476L561.025 105.19L611.076 105.19L611.106 105.19Z" fill="#75A3C1"/>
<path d="M687.9 -38.8073L711.756 -19.9264C711.756 -19.9264 711.938 -19.7119 711.938 -19.5586C711.938 -19.4054 711.878 -19.2828 711.787 -19.1908L657.693 27.6742L657.086 26.9692L710.753 -19.5279L687.353 -38.0717L687.931 -38.8073L687.9 -38.8073Z" fill="#75A3C1"/>
<path d="M882.454 328.971L877.531 325.232L873.945 330.289L874.674 324.098L868.536 323.516L874.219 321.064L871.666 315.393L876.589 319.133L880.175 314.075L879.446 320.267L885.584 320.849L879.901 323.301L882.454 328.971Z" fill="#75A3C1"/>
<path d="M758.8 292.988L753.877 289.248L750.291 294.306L751.02 288.114L744.881 287.532L750.564 285.08L748.012 279.41L752.935 283.149L756.521 278.092L755.791 284.283L761.93 284.865L756.247 287.317L758.8 292.988Z" fill="#75A3C1"/>
<path d="M810.948 353.615L807.21 350.795L804.475 354.626L805.052 349.937L800.403 349.477L804.688 347.638L802.773 343.347L806.511 346.167L809.216 342.335L808.669 347.025L813.288 347.485L809.003 349.324L810.948 353.615Z" fill="#75A3C1"/>
<path d="M832.555 289.953C834.166 291.087 834.561 293.325 833.436 294.98C832.312 296.605 830.093 297.003 828.452 295.869C826.842 294.735 826.447 292.497 827.571 290.842C828.696 289.218 830.914 288.819 832.555 289.953Z" fill="#75A3C1"/>
<path d="M861.212 375.653C861.212 374.181 862.397 372.986 863.855 372.986C865.314 372.986 866.499 374.181 866.499 375.653C866.499 377.124 865.314 378.319 863.855 378.319C862.397 378.319 861.212 377.124 861.212 375.653Z" fill="#75A3C1"/>
<path d="M863.4 385.645C863.4 384.174 864.585 382.979 866.044 382.979C867.502 382.979 868.688 384.174 868.688 385.645C868.688 387.116 867.502 388.312 866.044 388.312C864.585 388.312 863.4 387.116 863.4 385.645Z" fill="#75A3C1"/>
<path d="M846.899 385.645C846.899 384.174 848.084 382.978 849.542 382.978C851.001 382.978 852.186 384.174 852.186 385.645C852.186 387.116 851.001 388.312 849.542 388.312C848.084 388.312 846.899 387.116 846.899 385.645Z" fill="#75A3C1"/>
<path d="M753.39 285.785C753.39 285.785 753.39 285.785 753.421 285.785L830.549 292.436C830.549 292.436 830.701 292.436 830.762 292.497L877.318 321.769C877.501 321.861 877.562 322.075 877.531 322.259L864.342 375.622L866.5 385.492C866.5 385.492 866.5 385.768 866.409 385.89C866.317 386.013 866.196 386.074 866.044 386.074L849.542 386.074L849.542 385.155L865.467 385.155L863.461 375.959L806.663 349.079C806.663 349.079 806.541 349.017 806.511 348.956L753.056 286.49C753.056 286.49 752.904 286.153 752.995 285.969C753.086 285.816 753.238 285.724 753.39 285.724L753.39 285.785ZM830.367 293.356L754.484 286.796L807.149 348.312L863.552 375.009L876.528 322.382L830.367 293.325L830.367 293.356Z" fill="#75A3C1"/>
<path d="M987.451 808.715L982.528 804.976L978.942 810.033L979.671 803.842L973.533 803.259L979.215 800.807L976.663 795.137L981.586 798.876L985.172 793.819L984.442 800.01L990.581 800.593L984.898 803.045L987.451 808.715Z" fill="#75A3C1"/>
<path d="M863.797 772.731L858.874 768.992L855.288 774.049L856.017 767.858L849.878 767.276L855.561 764.824L853.008 759.153L857.931 762.893L861.517 757.835L860.788 764.027L866.927 764.609L861.244 767.061L863.797 772.731Z" fill="#75A3C1"/>
<path d="M915.945 833.359L912.207 830.539L909.472 834.37L910.049 829.681L905.4 829.221L909.684 827.382L907.77 823.091L911.508 825.91L914.212 822.079L913.665 826.769L918.285 827.228L914 829.068L915.945 833.359Z" fill="#75A3C1"/>
<path d="M937.552 769.697C939.162 770.831 939.558 773.069 938.433 774.724C937.309 776.348 935.09 776.747 933.449 775.613C931.839 774.479 931.444 772.241 932.568 770.586C933.692 768.961 935.911 768.563 937.552 769.697Z" fill="#75A3C1"/>
<path d="M966.208 855.396C966.208 853.925 967.394 852.73 968.852 852.73C970.311 852.73 971.496 853.925 971.496 855.396C971.496 856.868 970.311 858.063 968.852 858.063C967.394 858.063 966.208 856.868 966.208 855.396Z" fill="#75A3C1"/>
<path d="M968.397 865.389C968.397 863.918 969.582 862.722 971.04 862.722C972.499 862.722 973.684 863.918 973.684 865.389C973.684 866.86 972.499 868.055 971.04 868.055C969.582 868.055 968.397 866.86 968.397 865.389Z" fill="#75A3C1"/>
<path d="M951.895 865.389C951.895 863.917 953.081 862.722 954.539 862.722C955.998 862.722 957.183 863.917 957.183 865.389C957.183 866.86 955.998 868.055 954.539 868.055C953.081 868.055 951.895 866.86 951.895 865.389Z" fill="#75A3C1"/>
<path d="M858.387 765.529C858.387 765.529 858.387 765.529 858.418 765.529L935.546 772.18C935.546 772.18 935.698 772.18 935.759 772.241L982.315 801.513C982.498 801.605 982.558 801.819 982.528 802.003L969.339 855.366L971.497 865.235C971.497 865.235 971.497 865.511 971.405 865.634C971.314 865.757 971.193 865.818 971.041 865.818L954.539 865.818L954.539 864.898L970.463 864.898L968.458 855.703L911.66 828.822C911.66 828.822 911.538 828.761 911.508 828.7L858.053 766.234C858.053 766.234 857.901 765.896 857.992 765.712C858.083 765.559 858.235 765.467 858.387 765.467L858.387 765.529ZM935.364 773.099L859.481 766.54L912.146 828.056L968.549 854.753L981.525 802.126L935.364 773.069L935.364 773.099Z" fill="#75A3C1"/>
<path d="M695.377 409.798L690.454 406.058L686.868 411.116L687.597 404.955L681.458 404.342L687.141 401.89L684.588 396.22L689.512 399.959L693.098 394.902L692.368 401.093L698.507 401.675L692.824 404.127L695.377 409.798Z" fill="#75A3C1"/>
<path d="M678.055 372.833C679.666 373.967 680.061 376.205 678.936 377.86C677.812 379.484 675.593 379.883 673.952 378.749C672.311 377.614 671.947 375.377 673.071 373.722C674.196 372.067 676.414 371.699 678.055 372.833Z" fill="#75A3C1"/>
<path d="M725.827 433.49C725.827 432.019 727.012 430.824 728.471 430.824C729.93 430.824 731.115 432.019 731.115 433.49C731.115 434.962 729.93 436.157 728.471 436.157C727.012 436.157 725.827 434.962 725.827 433.49Z" fill="#75A3C1"/>
<path d="M711.756 403.637C711.756 402.165 712.941 400.97 714.4 400.97C715.859 400.97 717.044 402.165 717.044 403.637C717.044 405.108 715.859 406.303 714.4 406.303C712.941 406.303 711.756 405.108 711.756 403.637Z" fill="#75A3C1"/>
<path d="M676.413 375.561L690.271 402.564L714.431 403.177C714.613 403.177 714.765 403.3 714.826 403.453L728.653 432.847L757.827 412.648L758.343 413.414L728.714 433.92C728.714 433.92 728.47 434.012 728.349 433.981C728.227 433.95 728.106 433.858 728.045 433.736L714.096 404.127L689.967 403.514C689.815 403.514 689.663 403.422 689.572 403.269L675.593 376.02L676.413 375.591L676.413 375.561Z" fill="#75A3C1"/>
<path d="M758.07 419.973L757.796 413.782L751.658 414.18L756.854 410.839L753.42 405.69L758.89 408.541L761.595 402.962L761.868 409.184L768.007 408.755L762.81 412.096L766.244 417.276L760.774 414.395L758.07 419.973Z" fill="#75A3C1"/>
<path d="M443.509 579.725L561.025 661.839L564.733 650.804L544.827 624.23L545.557 623.679L565.614 650.467C565.614 650.467 565.735 650.743 565.675 650.896L561.694 662.758C561.694 662.758 561.542 663.003 561.39 663.034C561.268 663.065 561.116 663.034 560.995 662.973L442.993 580.492L443.509 579.725Z" fill="#75A3C1"/>
<path d="M567.255 647.77C568.865 648.904 569.26 651.142 568.136 652.797C567.012 654.421 564.793 654.82 563.152 653.686C561.541 652.552 561.146 650.314 562.271 648.659C563.395 647.034 565.614 646.636 567.255 647.77Z" fill="#75A3C1"/>
<path d="M440.592 580.094C440.592 578.622 441.777 577.427 443.236 577.427C444.694 577.427 445.88 578.622 445.88 580.094C445.88 581.565 444.694 582.76 443.236 582.76C441.777 582.76 440.592 581.565 440.592 580.094Z" fill="#75A3C1"/>
<path d="M558.625 662.575C558.625 661.103 559.81 659.908 561.268 659.908C562.727 659.908 563.912 661.103 563.912 662.575C563.912 664.046 562.727 665.241 561.268 665.241C559.81 665.241 558.625 664.046 558.625 662.575Z" fill="#75A3C1"/>
<path d="M543.612 630.575L542.245 624.506L536.258 626.039L540.786 621.809L536.501 617.365L542.366 619.173L544.068 613.196L545.435 619.265L551.422 617.732L546.894 621.962L551.179 626.437L545.283 624.598L543.612 630.575Z" fill="#75A3C1"/>
<path d="M595.547 704.78L591.809 701.96L589.105 705.792L589.682 701.102L585.032 700.642L589.317 698.803L587.403 694.512L591.11 697.363L593.845 693.531L593.268 698.19L597.917 698.65L593.633 700.489L595.547 704.78Z" fill="#75A3C1"/>
<path d="M638.609 625.334C640.22 626.468 640.615 628.705 639.49 630.36C638.366 631.985 636.148 632.383 634.507 631.249C632.896 630.115 632.501 627.878 633.625 626.222C634.75 624.598 636.968 624.199 638.609 625.334Z" fill="#75A3C1"/>
<path d="M653.257 611.572C653.257 610.1 654.442 608.905 655.901 608.905C657.36 608.905 658.545 610.1 658.545 611.572C658.545 613.043 657.36 614.238 655.901 614.238C654.442 614.238 653.257 613.043 653.257 611.572Z" fill="#75A3C1"/>
<path d="M642.165 647.923C642.165 646.452 643.35 645.257 644.809 645.257C646.267 645.257 647.452 646.452 647.452 647.923C647.452 649.394 646.267 650.59 644.809 650.59C643.35 650.59 642.165 649.394 642.165 647.923Z" fill="#75A3C1"/>
<path d="M642.165 672.475C642.165 671.004 643.35 669.808 644.809 669.808C646.267 669.808 647.452 671.004 647.452 672.475C647.452 673.946 646.267 675.141 644.809 675.141C643.35 675.141 642.165 673.946 642.165 672.475Z" fill="#75A3C1"/>
<path d="M607.855 678.421C607.855 676.95 609.04 675.754 610.499 675.754C611.958 675.754 613.143 676.95 613.143 678.421C613.143 679.892 611.958 681.088 610.499 681.088C609.04 681.088 607.855 679.892 607.855 678.421Z" fill="#75A3C1"/>
<path d="M544.858 724.612C543.397 724.612 542.214 725.805 542.214 727.278C542.214 728.751 543.397 729.945 544.858 729.945C546.318 729.945 547.501 728.751 547.501 727.278C547.501 725.805 546.318 724.612 544.858 724.612Z" fill="#75A3C1"/>
<path d="M655.901 611.112C655.901 611.112 656.083 611.112 656.144 611.204C656.326 611.326 656.387 611.541 656.326 611.725L645.264 648.015L645.264 672.505C645.264 672.72 645.112 672.934 644.9 672.965L610.772 678.88L591.84 699.999C591.84 699.999 591.779 700.06 591.718 700.091L545.101 727.707L544.645 726.91L591.202 699.324L610.195 678.145C610.195 678.145 610.347 678.022 610.468 677.992L644.383 672.137L644.383 648.046L636.178 628.521C636.087 628.337 636.178 628.123 636.299 628L655.658 611.265C655.658 611.265 655.84 611.142 655.961 611.142L655.901 611.112ZM644.748 646.574L655.019 612.951L637.12 628.429L644.748 646.574Z" fill="#75A3C1"/>
<path d="M611.927 511.129L607.004 507.39L603.418 512.447L604.148 506.286L598.009 505.673L603.692 503.252L601.139 497.581L606.062 501.321L609.648 496.263L608.919 502.424L615.057 503.037L609.375 505.459L611.927 511.129Z" fill="#75A3C1"/>
<path d="M952.896 672.505L947.973 668.766L944.387 673.823L945.117 667.632L938.978 667.049L944.661 664.597L942.108 658.927L947.031 662.666L950.617 657.609L949.888 663.77L956.026 664.383L950.344 666.835L952.896 672.505Z" fill="#75A3C1"/>
<path d="M1139.4 578.561L1133.59 576.477L1131.68 582.392L1130.55 576.293L1124.51 577.55L1129.22 573.504L1125.08 568.875L1130.92 570.96L1132.83 565.044L1133.96 571.174L1140 569.887L1135.29 573.933L1139.4 578.561Z" fill="#75A3C1"/>
<path d="M942.686 563.021L937.732 559.281L934.146 564.339L934.906 558.178L928.768 557.565L934.42 555.144L931.867 549.473L936.821 553.213L940.407 548.155L939.647 554.316L945.786 554.929L940.133 557.35L942.686 563.021Z" fill="#75A3C1"/>
<path d="M703.035 550.821C704.646 551.956 705.041 554.193 703.916 555.848C702.792 557.473 700.573 557.871 698.932 556.737C697.322 555.603 696.927 553.365 698.051 551.71C699.176 550.086 701.394 549.687 703.035 550.821Z" fill="#75A3C1"/>
<path d="M727.437 603.909C729.048 605.043 729.443 607.28 728.319 608.935C727.194 610.56 724.976 610.958 723.335 609.824C721.724 608.69 721.329 606.453 722.453 604.798C723.578 603.173 725.796 602.775 727.437 603.909Z" fill="#75A3C1"/>
<path d="M912.053 585.059C913.664 586.193 914.059 588.431 912.935 590.086C911.81 591.71 909.592 592.109 907.951 590.975C906.31 589.841 905.945 587.603 907.069 585.948C908.194 584.293 910.412 583.925 912.053 585.059Z" fill="#75A3C1"/>
<path d="M1099.46 637.318C1101.08 638.452 1101.47 640.69 1100.35 642.345C1099.22 644 1097 644.368 1095.36 643.234C1093.75 642.099 1093.36 639.862 1094.48 638.207C1095.61 636.582 1097.82 636.184 1099.46 637.318Z" fill="#75A3C1"/>
<path d="M712.729 649.67C714.34 650.804 714.735 653.042 713.611 654.697C712.486 656.322 710.268 656.72 708.627 655.586C707.016 654.452 706.621 652.214 707.745 650.559C708.87 648.935 711.088 648.536 712.729 649.67Z" fill="#75A3C1"/>
<path d="M766.215 549.412C767.825 550.546 768.22 552.783 767.096 554.439C765.972 556.094 763.753 556.462 762.112 555.328C760.471 554.193 760.106 551.956 761.231 550.301C762.355 548.676 764.574 548.278 766.215 549.412Z" fill="#75A3C1"/>
<path d="M871.301 496.172C872.912 497.306 873.307 499.543 872.182 501.199C871.058 502.823 868.84 503.221 867.199 502.087C865.558 500.953 865.193 498.716 866.317 497.061C867.442 495.406 869.66 495.038 871.301 496.172Z" fill="#75A3C1"/>
<path d="M729.322 588.001C729.322 586.53 730.507 585.335 731.966 585.335C733.425 585.335 734.61 586.53 734.61 588.001C734.61 589.472 733.425 590.668 731.966 590.668C730.507 590.668 729.322 589.472 729.322 588.001Z" fill="#75A3C1"/>
<path d="M710.359 537.979C710.359 536.508 711.544 535.313 713.003 535.313C714.461 535.313 715.646 536.508 715.646 537.979C715.646 539.45 714.461 540.646 713.003 540.646C711.544 540.646 710.359 539.45 710.359 537.979Z" fill="#75A3C1"/>
<path d="M687.658 493.168C687.658 491.696 688.843 490.501 690.301 490.501C691.76 490.501 692.945 491.696 692.945 493.168C692.945 494.639 691.76 495.834 690.301 495.834C688.843 495.834 687.658 494.639 687.658 493.168Z" fill="#75A3C1"/>
<path d="M653.196 477.597C653.196 476.126 654.381 474.931 655.84 474.931C657.299 474.931 658.484 476.126 658.484 477.597C658.484 479.069 657.299 480.264 655.84 480.264C654.381 480.264 653.196 479.069 653.196 477.597Z" fill="#75A3C1"/>
<path d="M639.461 524.125C639.461 522.654 640.646 521.458 642.104 521.458C643.563 521.458 644.748 522.654 644.748 524.125C644.748 525.596 643.563 526.792 642.104 526.792C640.646 526.792 639.461 525.596 639.461 524.125Z" fill="#75A3C1"/>
<path d="M723.547 621.288C723.547 619.816 724.733 618.621 726.191 618.621C727.65 618.621 728.835 619.816 728.835 621.288C728.835 622.759 727.65 623.954 726.191 623.954C724.733 623.954 723.547 622.759 723.547 621.288Z" fill="#75A3C1"/>
<path d="M972.65 505.704C972.65 504.233 973.835 503.037 975.294 503.037C976.752 503.037 977.938 504.233 977.938 505.704C977.938 507.175 976.752 508.37 975.294 508.37C973.835 508.37 972.65 507.175 972.65 505.704Z" fill="#75A3C1"/>
<path d="M944.995 593.365C943.535 593.365 942.351 594.559 942.351 596.031C942.351 597.504 943.535 598.698 944.995 598.698C946.455 598.698 947.639 597.504 947.639 596.031C947.639 594.559 946.455 593.365 944.995 593.365Z" fill="#75A3C1"/>
<path d="M1013.01 541.596C1013.01 540.125 1014.19 538.929 1015.65 538.929C1017.11 538.929 1018.29 540.125 1018.29 541.596C1018.29 543.067 1017.11 544.262 1015.65 544.262C1014.19 544.262 1013.01 543.067 1013.01 541.596Z" fill="#75A3C1"/>
<path d="M1044.55 509.198C1044.55 507.726 1045.74 506.531 1047.19 506.531C1048.65 506.531 1049.84 507.726 1049.84 509.198C1049.84 510.669 1048.65 511.864 1047.19 511.864C1045.74 511.864 1044.55 510.669 1044.55 509.198Z" fill="#75A3C1"/>
<path d="M994.682 663.494C994.682 662.023 995.867 660.828 997.326 660.828C998.785 660.828 999.97 662.023 999.97 663.494C999.97 664.965 998.785 666.161 997.326 666.161C995.867 666.161 994.682 664.965 994.682 663.494Z" fill="#75A3C1"/>
<path d="M1013.01 663.494C1013.01 662.023 1014.19 660.828 1015.65 660.828C1017.11 660.828 1018.29 662.023 1018.29 663.494C1018.29 664.966 1017.11 666.161 1015.65 666.161C1014.19 666.161 1013.01 664.966 1013.01 663.494Z" fill="#75A3C1"/>
<path d="M953.96 597.717C953.96 596.246 955.145 595.05 956.604 595.05C958.062 595.05 959.248 596.246 959.248 597.717C959.248 599.188 958.062 600.384 956.604 600.384C955.145 600.384 953.96 599.188 953.96 597.717Z" fill="#75A3C1"/>
<path d="M787.061 711.217C787.061 709.746 788.246 708.551 789.705 708.551C791.164 708.551 792.349 709.746 792.349 711.217C792.349 712.688 791.164 713.884 789.705 713.884C788.246 713.884 787.061 712.688 787.061 711.217Z" fill="#75A3C1"/>
<path d="M686.776 656.751C686.776 655.28 687.962 654.084 689.42 654.084C690.879 654.084 692.064 655.28 692.064 656.751C692.064 658.222 690.879 659.418 689.42 659.418C687.962 659.418 686.776 658.222 686.776 656.751Z" fill="#75A3C1"/>
<path d="M761.534 566.178C761.534 564.707 762.72 563.511 764.178 563.511C765.637 563.511 766.822 564.707 766.822 566.178C766.822 567.649 765.637 568.844 764.178 568.844C762.72 568.844 761.534 567.649 761.534 566.178Z" fill="#75A3C1"/>
<path d="M817.451 509.566C815.99 509.566 814.807 510.76 814.807 512.233C814.807 513.705 815.99 514.899 817.451 514.899C818.911 514.899 820.094 513.705 820.094 512.233C820.094 510.76 818.911 509.566 817.451 509.566Z" fill="#75A3C1"/>
<path d="M811.039 502.149C809.579 502.149 808.395 503.342 808.395 504.815C808.395 506.288 809.579 507.482 811.039 507.482C812.499 507.482 813.683 506.288 813.683 504.815C813.683 503.342 812.499 502.149 811.039 502.149Z" fill="#75A3C1"/>
<path d="M811.738 486.639C810.278 486.639 809.094 487.833 809.094 489.306C809.094 490.778 810.278 491.972 811.738 491.972C813.198 491.972 814.382 490.778 814.382 489.306C814.382 487.833 813.198 486.639 811.738 486.639Z" fill="#75A3C1"/>
<path d="M1046.86 508.892L1047.5 509.535L1015.98 541.933L956.908 598.055C956.908 598.055 956.665 598.177 956.543 598.177L944.904 596.491L910.807 588.676L947.761 665.241L997.295 663.065L1015.56 663.065L1098.28 639.586L1131.83 573.136L1132.65 573.565L1099.01 640.199C1099.01 640.199 1098.86 640.383 1098.74 640.445L1015.77 663.984C1015.77 663.984 1015.68 663.984 1015.65 663.984L997.326 663.984L947.518 666.191C947.335 666.191 947.183 666.099 947.123 665.915L909.622 588.216C909.531 588.062 909.561 587.879 909.683 587.725C909.804 587.572 909.956 587.541 910.139 587.572L945.117 595.572L956.482 597.227L1015.38 541.259L1046.89 508.861L1046.86 508.892Z" fill="#75A3C1"/>
<path d="M974.928 505.428L975.658 505.979L937.641 556.523L910.351 588.307C910.351 588.307 910.199 588.43 910.138 588.461L795.965 619.387L790.222 710.604L947.396 665.271L947.639 666.16L789.857 711.677C789.857 711.677 789.553 711.677 789.462 711.585C789.34 711.493 789.279 711.339 789.279 711.186L795.084 618.989C795.084 618.805 795.236 618.621 795.418 618.59L909.773 587.633L936.942 555.971L974.928 505.458L974.928 505.428Z" fill="#75A3C1"/>
<path d="M811.282 489.276L812.194 489.276L811.525 504.662L817.634 511.712L869.174 498.685L869.387 499.574L817.573 512.662C817.421 512.693 817.238 512.662 817.117 512.509L810.705 505.091C810.705 505.091 810.583 504.877 810.583 504.754L811.252 489.245L811.282 489.276Z" fill="#75A3C1"/>
<path d="M817.178 511.865L817.725 512.6L764.634 552.63L764.634 566.178C764.634 566.178 764.543 566.484 764.422 566.546L732.877 587.94L795.723 618.591C795.935 618.683 796.027 618.928 795.966 619.142C795.905 619.357 795.662 619.51 795.449 619.449L725.888 607.403L726.648 621.257C726.648 621.257 726.648 621.411 726.587 621.503L711.088 652.828C711.088 652.828 710.906 653.042 710.754 653.073L689.481 657.211L689.299 656.322L710.359 652.245L725.705 621.227L724.915 606.913C724.915 606.913 724.976 606.637 725.067 606.545C725.158 606.453 725.31 606.422 725.432 606.422L792.38 618.039L731.723 588.461C731.723 588.461 731.479 588.247 731.479 588.093C731.479 587.94 731.54 587.756 731.692 587.695L763.692 565.994L763.692 552.446C763.692 552.446 763.753 552.171 763.875 552.079L817.147 511.926L817.178 511.865Z" fill="#75A3C1"/>
<path d="M656.022 477.199L690.484 492.739C690.484 492.739 690.666 492.861 690.697 492.953L713.398 537.765C713.489 537.918 713.458 538.102 713.367 538.255L701.576 553.764L732.3 587.695L731.631 588.308L700.664 554.101C700.512 553.948 700.512 553.703 700.664 553.519L712.516 537.949L690.028 493.536L655.718 478.057L656.083 477.229L656.022 477.199Z" fill="#75A3C1"/>
<path d="M606.731 503.957L642.317 523.726C642.317 523.726 642.438 523.788 642.469 523.849L677.265 570.438L700.725 553.427L701.272 554.162L677.447 571.45C677.234 571.603 676.961 571.541 676.809 571.358L641.8 524.493L606.305 504.784L606.731 503.987L606.731 503.957Z" fill="#75A3C1"/>
<path d="M677.447 570.683L725.675 606.483L725.128 607.219L676.9 571.45L677.447 570.683Z" fill="#75A3C1"/>
<path d="M673.041 578.162L674.439 572.093L668.422 570.806L674.317 569.028L672.403 563.113L676.9 567.373L681.003 562.745L679.605 568.814L685.622 570.101L679.727 571.879L681.641 577.794L677.143 573.534L673.041 578.162Z" fill="#75A3C1"/>
<path d="M792.349 626.958L792.927 620.767L786.788 620.337L792.38 617.732L789.705 612.154L794.72 615.74L798.184 610.591L797.607 616.782L803.745 617.242L798.123 619.816L800.828 625.425L795.814 621.809L792.349 626.958Z" fill="#75A3C1"/>
<path d="M525.044 468.923L520.091 465.214L516.505 470.271L517.264 464.08L511.126 463.467L516.778 461.046L514.225 455.375L519.179 459.115L522.765 454.057L522.005 460.218L528.144 460.831L522.491 463.283L525.044 468.923Z" fill="#75A3C1"/>
<path d="M467.152 417.982L462.229 414.273L458.643 419.33L459.372 413.139L453.234 412.526L458.917 410.104L456.364 404.434L461.287 408.173L464.873 403.116L464.144 409.277L470.282 409.89L464.599 412.342L467.152 417.982Z" fill="#75A3C1"/>
<path d="M427.464 451.33L421.325 450.717L420.869 456.908L418.317 451.238L412.755 453.935L416.372 448.878L411.266 445.383L417.405 445.996L417.891 439.774L420.414 445.445L425.975 442.778L422.389 447.805L427.464 451.33Z" fill="#75A3C1"/>
<path d="M656.782 465.092L653.044 462.241L650.34 466.073L650.887 461.414L646.237 460.954L650.522 459.115L648.608 454.824L652.345 457.644L655.05 453.812L654.503 458.502L659.122 458.962L654.837 460.801L656.782 465.092Z" fill="#75A3C1"/>
<path d="M520.638 400.97L516.9 398.12L514.195 401.951L514.742 397.292L510.093 396.833L514.408 394.994L512.463 390.702L516.201 393.522L518.906 389.691L518.359 394.381L523.008 394.84L518.693 396.679L520.638 400.97Z" fill="#75A3C1"/>
<path d="M537.291 438.334C538.902 439.468 539.297 441.706 538.172 443.361C537.048 444.985 534.83 445.384 533.189 444.25C531.578 443.116 531.183 440.878 532.307 439.223C533.432 437.598 535.65 437.2 537.291 438.334Z" fill="#75A3C1"/>
<path d="M580.839 397.078C582.45 398.212 582.845 400.45 581.72 402.105C580.596 403.729 578.378 404.128 576.737 402.994C575.126 401.86 574.731 399.622 575.855 397.967C576.98 396.343 579.198 395.944 580.839 397.078Z" fill="#75A3C1"/>
<path d="M526.23 491.942C526.23 490.471 527.415 489.275 528.873 489.275C530.332 489.275 531.517 490.471 531.517 491.942C531.517 493.413 530.332 494.609 528.873 494.609C527.415 494.609 526.23 493.413 526.23 491.942Z" fill="#75A3C1"/>
<path d="M512.585 472.724C511.124 472.724 509.941 473.918 509.941 475.39C509.941 476.863 511.124 478.057 512.585 478.057C514.045 478.057 515.229 476.863 515.229 475.39C515.229 473.918 514.045 472.724 512.585 472.724Z" fill="#75A3C1"/>
<path d="M430.837 459.943C430.837 458.472 432.022 457.276 433.481 457.276C434.94 457.276 436.125 458.472 436.125 459.943C436.125 461.414 434.94 462.609 433.481 462.609C432.022 462.609 430.837 461.414 430.837 459.943Z" fill="#75A3C1"/>
<path d="M436.429 421.966C434.968 421.966 433.785 423.16 433.785 424.633C433.785 426.106 434.968 427.3 436.429 427.3C437.889 427.3 439.073 426.106 439.073 424.633C439.073 423.16 437.889 421.966 436.429 421.966Z" fill="#75A3C1"/>
<path d="M484.566 415.714C484.566 414.242 485.751 413.047 487.209 413.047C488.668 413.047 489.853 414.242 489.853 415.714C489.853 417.185 488.668 418.38 487.209 418.38C485.751 418.38 484.566 417.185 484.566 415.714Z" fill="#75A3C1"/>
<path d="M525.834 397.384C524.374 397.384 523.19 398.578 523.19 400.051C523.19 401.524 524.374 402.718 525.834 402.718C527.294 402.718 528.478 401.524 528.478 400.051C528.478 398.578 527.294 397.384 525.834 397.384Z" fill="#75A3C1"/>
<path d="M493.469 370.075C493.469 368.603 494.655 367.408 496.113 367.408C497.572 367.408 498.757 368.603 498.757 370.075C498.757 371.546 497.572 372.741 496.113 372.741C494.655 372.741 493.469 371.546 493.469 370.075Z" fill="#75A3C1"/>
<path d="M496.144 357.722C494.684 357.722 493.5 358.916 493.5 360.389C493.5 361.862 494.684 363.056 496.144 363.056C497.604 363.056 498.788 361.862 498.788 360.389C498.788 358.916 497.604 357.722 496.144 357.722Z" fill="#75A3C1"/>
<path d="M512.584 361.125C511.124 361.125 509.941 362.318 509.941 363.791C509.941 365.264 511.124 366.458 512.584 366.458C514.045 366.458 515.228 365.264 515.228 363.791C515.228 362.318 514.045 361.125 512.584 361.125Z" fill="#75A3C1"/>
<path d="M584.668 408.541C583.208 408.541 582.024 409.735 582.024 411.208C582.024 412.68 583.208 413.874 584.668 413.874C586.128 413.874 587.312 412.68 587.312 411.208C587.312 409.735 586.128 408.541 584.668 408.541Z" fill="#75A3C1"/>
<path d="M597.614 396.312C597.614 394.84 598.799 393.645 600.258 393.645C601.717 393.645 602.902 394.84 602.902 396.312C602.902 397.783 601.717 398.978 600.258 398.978C598.799 398.978 597.614 397.783 597.614 396.312Z" fill="#75A3C1"/>
<path d="M512.129 436.832C512.129 435.361 513.314 434.165 514.772 434.165C516.231 434.165 517.416 435.361 517.416 436.832C517.416 438.303 516.231 439.499 514.772 439.499C513.314 439.499 512.129 438.303 512.129 436.832Z" fill="#75A3C1"/>
<path d="M577.649 436.832C577.649 435.36 578.834 434.165 580.292 434.165C581.751 434.165 582.936 435.36 582.936 436.832C582.936 438.303 581.751 439.498 580.292 439.498C578.834 439.498 577.649 438.303 577.649 436.832Z" fill="#75A3C1"/>
<path d="M496.144 359.929C496.144 359.929 496.204 359.929 496.235 359.929L512.706 363.331L512.524 364.22L496.599 360.94L496.599 369.89L516.839 395.453L526.016 399.622L545.678 403.085L578.742 399.591L600.197 395.882C600.349 395.852 600.531 395.882 600.622 396.036L653.044 459.667L652.345 460.249L600.106 396.832L578.894 400.511L545.739 404.035C545.739 404.035 545.648 404.035 545.618 404.035L525.773 400.511L516.383 396.281C516.383 396.281 516.261 396.219 516.201 396.158L495.779 370.381C495.779 370.381 495.688 370.197 495.688 370.105L495.688 360.45C495.688 360.45 495.749 360.174 495.87 360.082C495.961 360.021 496.052 359.99 496.144 359.99L496.144 359.929Z" fill="#75A3C1"/>
<path d="M579.198 399.836L585.063 411.024C585.063 411.024 585.124 411.208 585.094 411.331L580.717 436.955C580.687 437.169 580.505 437.322 580.322 437.322L535.285 441.767C535.285 441.767 535.194 441.767 535.133 441.767L514.651 437.322C514.651 437.322 514.529 437.292 514.469 437.23L486.966 416.143L461.773 411.698L436.672 425.001L419.957 448.265L433.724 459.575L433.146 460.28L419.046 448.694C418.864 448.54 418.833 448.265 418.955 448.081L436.003 424.357C436.003 424.357 436.094 424.265 436.155 424.204L461.5 410.779C461.5 410.779 461.682 410.717 461.773 410.748L487.209 415.223C487.209 415.223 487.361 415.254 487.422 415.315L514.924 436.403L535.225 440.786L579.836 436.403L584.121 411.269L578.317 400.235L579.137 399.806L579.198 399.836Z" fill="#75A3C1"/>
<path d="M580.11 436.433L580.475 437.292L519.969 462.548L513.162 475.329L529.208 491.635L528.57 492.279L512.311 475.728C512.311 475.728 512.129 475.36 512.22 475.176L519.27 461.935C519.27 461.935 519.392 461.782 519.483 461.72L580.14 436.403L580.11 436.433Z" fill="#75A3C1"/>
<path d="M544.007 412.281L542.639 406.212L536.683 407.744L541.181 403.514L536.896 399.039L542.791 400.878L544.463 394.902L545.83 400.97L551.817 399.438L547.289 403.668L551.574 408.112L545.709 406.304L544.007 412.281Z" fill="#75A3C1"/>
<path d="M1157.33 893.406L1152.37 889.697L1148.79 894.755L1149.55 888.563L1143.41 887.95L1149.06 885.529L1146.51 879.858L1151.46 883.598L1155.05 878.54L1154.29 884.701L1160.43 885.314L1154.77 887.766L1157.33 893.406Z" fill="#75A3C1"/>
<path d="M1099.43 842.465L1094.51 838.756L1090.93 843.813L1091.65 837.622L1085.52 837.009L1091.2 834.587L1088.65 828.917L1093.57 832.656L1097.16 827.599L1096.43 833.76L1102.56 834.373L1096.88 836.825L1099.43 842.465Z" fill="#75A3C1"/>
<path d="M1059.75 875.813L1053.61 875.2L1053.15 881.391L1050.6 875.721L1045.04 878.418L1048.65 873.361L1043.55 869.866L1049.69 870.479L1050.17 864.257L1052.7 869.928L1058.26 867.261L1054.67 872.288L1059.75 875.813Z" fill="#75A3C1"/>
<path d="M1289.06 889.575L1285.33 886.724L1282.62 890.556L1283.17 885.897L1278.52 885.437L1282.8 883.598L1280.89 879.307L1284.63 882.127L1287.33 878.295L1286.79 882.985L1291.4 883.445L1287.12 885.284L1289.06 889.575Z" fill="#75A3C1"/>
<path d="M1152.92 825.454L1149.18 822.603L1146.48 826.434L1147.02 821.775L1142.37 821.316L1146.69 819.477L1144.75 815.186L1148.48 818.005L1151.19 814.174L1150.64 818.864L1155.29 819.323L1150.98 821.162L1152.92 825.454Z" fill="#75A3C1"/>
<path d="M1169.57 862.817C1171.18 863.951 1171.58 866.189 1170.45 867.844C1169.33 869.468 1167.11 869.867 1165.47 868.733C1163.86 867.598 1163.46 865.361 1164.59 863.706C1165.71 862.081 1167.93 861.683 1169.57 862.817Z" fill="#75A3C1"/>
<path d="M1213.12 821.561C1214.73 822.695 1215.13 824.933 1214 826.588C1212.88 828.212 1210.66 828.611 1209.02 827.477C1207.41 826.343 1207.01 824.105 1208.14 822.45C1209.26 820.825 1211.48 820.427 1213.12 821.561Z" fill="#75A3C1"/>
<path d="M1158.51 916.425C1158.51 914.954 1159.7 913.758 1161.16 913.758C1162.61 913.758 1163.8 914.954 1163.8 916.425C1163.8 917.896 1162.61 919.092 1161.16 919.092C1159.7 919.092 1158.51 917.896 1158.51 916.425Z" fill="#75A3C1"/>
<path d="M1144.87 897.207C1143.41 897.207 1142.22 898.401 1142.22 899.873C1142.22 901.346 1143.41 902.54 1144.87 902.54C1146.33 902.54 1147.51 901.346 1147.51 899.873C1147.51 898.401 1146.33 897.207 1144.87 897.207Z" fill="#75A3C1"/>
<path d="M1063.12 884.426C1063.12 882.954 1064.3 881.759 1065.76 881.759C1067.22 881.759 1068.41 882.954 1068.41 884.426C1068.41 885.897 1067.22 887.092 1065.76 887.092C1064.3 887.092 1063.12 885.897 1063.12 884.426Z" fill="#75A3C1"/>
<path d="M1068.71 846.449C1067.25 846.449 1066.07 847.643 1066.07 849.116C1066.07 850.589 1067.25 851.783 1068.71 851.783C1070.17 851.783 1071.35 850.589 1071.35 849.116C1071.35 847.643 1070.17 846.449 1068.71 846.449Z" fill="#75A3C1"/>
<path d="M1116.85 840.197C1116.85 838.725 1118.03 837.53 1119.49 837.53C1120.95 837.53 1122.14 838.725 1122.14 840.197C1122.14 841.668 1120.95 842.863 1119.49 842.863C1118.03 842.863 1116.85 841.668 1116.85 840.197Z" fill="#75A3C1"/>
<path d="M1158.12 821.867C1156.66 821.867 1155.47 823.061 1155.47 824.534C1155.47 826.007 1156.66 827.201 1158.12 827.201C1159.58 827.201 1160.76 826.007 1160.76 824.534C1160.76 823.061 1159.58 821.867 1158.12 821.867Z" fill="#75A3C1"/>
<path d="M1125.75 794.558C1125.75 793.086 1126.94 791.891 1128.4 791.891C1129.85 791.891 1131.04 793.086 1131.04 794.558C1131.04 796.029 1129.85 797.224 1128.4 797.224C1126.94 797.224 1125.75 796.029 1125.75 794.558Z" fill="#75A3C1"/>
<path d="M1128.43 782.205C1126.97 782.205 1125.78 783.399 1125.78 784.872C1125.78 786.345 1126.97 787.538 1128.43 787.538C1129.89 787.538 1131.07 786.345 1131.07 784.872C1131.07 783.399 1129.89 782.205 1128.43 782.205Z" fill="#75A3C1"/>
<path d="M1144.87 785.607C1143.41 785.607 1142.22 786.801 1142.22 788.274C1142.22 789.747 1143.41 790.941 1144.87 790.941C1146.33 790.941 1147.51 789.747 1147.51 788.274C1147.51 786.801 1146.33 785.607 1144.87 785.607Z" fill="#75A3C1"/>
<path d="M1216.95 833.024C1215.49 833.024 1214.31 834.218 1214.31 835.691C1214.31 837.163 1215.49 838.357 1216.95 838.357C1218.41 838.357 1219.59 837.163 1219.59 835.691C1219.59 834.218 1218.41 833.024 1216.95 833.024Z" fill="#75A3C1"/>
<path d="M1229.9 820.795C1229.9 819.323 1231.08 818.128 1232.54 818.128C1234 818.128 1235.18 819.323 1235.18 820.795C1235.18 822.266 1234 823.461 1232.54 823.461C1231.08 823.461 1229.9 822.266 1229.9 820.795Z" fill="#75A3C1"/>
<path d="M1144.41 861.315C1144.41 859.844 1145.6 858.648 1147.05 858.648C1148.51 858.648 1149.7 859.844 1149.7 861.315C1149.7 862.786 1148.51 863.982 1147.05 863.982C1145.6 863.982 1144.41 862.786 1144.41 861.315Z" fill="#75A3C1"/>
<path d="M1209.93 861.315C1209.93 859.843 1211.12 858.648 1212.57 858.648C1214.03 858.648 1215.22 859.843 1215.22 861.315C1215.22 862.786 1214.03 863.981 1212.57 863.981C1211.12 863.981 1209.93 862.786 1209.93 861.315Z" fill="#75A3C1"/>
<path d="M1128.43 784.412C1128.43 784.412 1128.49 784.412 1128.52 784.412L1144.99 787.814L1144.81 788.703L1128.88 785.424L1128.88 794.374L1149.12 819.936L1158.3 824.105L1177.96 827.568L1211.02 824.074L1232.48 820.365C1232.63 820.335 1232.81 820.365 1232.9 820.519L1285.33 884.15L1284.63 884.732L1232.39 821.316L1211.18 824.994L1178.02 828.518C1178.02 828.518 1177.93 828.518 1177.9 828.518L1158.06 824.994L1148.66 820.764C1148.66 820.764 1148.54 820.702 1148.48 820.641L1128.06 794.864C1128.06 794.864 1127.97 794.68 1127.97 794.588L1127.97 784.933C1127.97 784.933 1128.03 784.657 1128.15 784.565C1128.24 784.504 1128.33 784.473 1128.43 784.473L1128.43 784.412Z" fill="#75A3C1"/>
<path d="M1211.48 824.319L1217.35 835.507C1217.35 835.507 1217.41 835.691 1217.38 835.813L1213 861.437C1212.97 861.652 1212.79 861.805 1212.6 861.805L1167.57 866.25C1167.57 866.25 1167.48 866.25 1167.42 866.25L1146.93 861.805C1146.93 861.805 1146.81 861.775 1146.75 861.713L1119.25 840.626L1094.06 836.181L1068.95 849.484L1052.24 872.748L1066.01 884.058L1065.43 884.763L1051.33 873.177C1051.15 873.023 1051.12 872.748 1051.24 872.564L1068.29 848.84C1068.29 848.84 1068.38 848.748 1068.44 848.687L1093.78 835.262C1093.78 835.262 1093.96 835.2 1094.06 835.231L1119.49 839.706C1119.49 839.706 1119.64 839.737 1119.7 839.798L1147.21 860.886L1167.51 865.269L1212.12 860.886L1216.4 835.752L1210.6 824.718L1211.42 824.289L1211.48 824.319Z" fill="#75A3C1"/>
<path d="M1212.39 860.916L1212.76 861.775L1152.25 887.031L1145.44 899.812L1161.49 916.118L1160.85 916.762L1144.59 900.211C1144.59 900.211 1144.41 899.843 1144.5 899.659L1151.55 886.418C1151.55 886.418 1151.67 886.264 1151.77 886.203L1212.42 860.886L1212.39 860.916Z" fill="#75A3C1"/>
<path d="M1176.29 836.763L1174.92 830.695L1168.97 832.227L1173.46 827.997L1169.18 823.522L1175.07 825.361L1176.74 819.384L1178.11 825.453L1184.1 823.921L1179.57 828.151L1183.86 832.595L1177.99 830.787L1176.29 836.763Z" fill="#75A3C1"/>
<path d="M1210.77 672.403L1209.05 678.342L1215.06 679.868L1209.05 681.405L1210.68 687.353L1206.38 682.922L1202.01 687.344L1203.72 681.405L1197.72 679.879L1203.73 678.343L1202.09 672.395L1206.39 676.826L1210.77 672.403Z" fill="#75A3C1"/>
<path d="M1206.89 506.222L1205.19 512.189L1211.2 513.715L1205.17 515.223L1206.81 521.171L1202.52 516.769L1198.14 521.162L1199.85 515.224L1193.84 513.697L1199.87 512.19L1198.23 506.242L1202.52 510.644L1206.89 506.222Z" fill="#75A3C1"/>
<path d="M1269.36 630.624C1269.83 628.714 1271.78 627.54 1273.73 627.993C1275.65 628.458 1276.82 630.384 1276.35 632.324C1275.87 634.234 1273.93 635.408 1271.98 634.955C1270.06 634.49 1268.89 632.564 1269.36 630.624Z" fill="#75A3C1"/>
<path d="M1234.48 734.067C1234.96 732.156 1236.9 730.983 1238.85 731.436C1240.77 731.901 1241.94 733.827 1241.48 735.766C1241 737.677 1239.05 738.851 1237.1 738.398C1235.15 737.944 1234.01 736.006 1234.48 734.067Z" fill="#75A3C1"/>
<path d="M1232.27 571.252C1232.75 569.341 1234.69 568.167 1236.64 568.621C1238.56 569.085 1239.73 571.012 1239.26 572.951C1238.78 574.862 1236.84 576.036 1234.89 575.582C1232.97 575.118 1231.8 573.191 1232.27 571.252Z" fill="#75A3C1"/>
<path d="M1157.43 492.011C1157.9 490.101 1159.85 488.927 1161.8 489.38C1163.72 489.845 1164.89 491.771 1164.42 493.711C1163.94 495.621 1162 496.795 1160.05 496.342C1158.13 495.877 1156.96 493.951 1157.43 492.011Z" fill="#75A3C1"/>
<path d="M1233.11 596.17L1229.83 600.953L1234.71 604.084L1228.91 603.685L1228.61 609.467L1226.07 604.257L1220.9 606.937L1224.17 602.125L1219.29 599.023L1225.1 599.422L1225.37 593.65L1227.92 598.822L1233.11 596.17Z" fill="#75A3C1"/>
<path d="M1197.8 632.911C1196.43 633.44 1194.89 632.765 1194.36 631.404C1193.84 630.043 1194.53 628.507 1195.9 627.977C1197.27 627.448 1198.81 628.124 1199.34 629.485C1199.86 630.846 1199.18 632.382 1197.8 632.911Z" fill="#75A3C1"/>
<path d="M1251.14 735.005C1249.76 735.534 1248.22 734.859 1247.7 733.498C1247.17 732.137 1247.86 730.601 1249.23 730.072C1250.61 729.542 1252.15 730.218 1252.67 731.579C1253.2 732.94 1252.51 734.476 1251.14 735.005Z" fill="#75A3C1"/>
<path d="M1140.05 720.747C1138.68 721.276 1137.14 720.601 1136.61 719.24C1136.09 717.879 1136.78 716.343 1138.15 715.813C1139.52 715.284 1141.07 715.96 1141.59 717.321C1142.12 718.682 1141.43 720.217 1140.05 720.747Z" fill="#75A3C1"/>
<path d="M1129.72 728.022C1128.35 728.551 1126.81 727.875 1126.28 726.514C1125.76 725.153 1126.44 723.617 1127.82 723.088C1129.19 722.559 1130.73 723.234 1131.26 724.595C1131.78 725.956 1131.09 727.492 1129.72 728.022Z" fill="#75A3C1"/>
<path d="M1128.49 725.174L1138.78 717.949L1196.48 630.164C1196.48 630.164 1196.78 629.918 1196.97 629.977C1197.14 630.007 1197.3 630.172 1197.33 630.325L1206.99 679.657L1238.42 734.664L1237.61 735.109L1206.15 680.016C1206.15 680.016 1206.11 679.931 1206.09 679.874L1196.63 631.572L1139.51 718.482C1139.51 718.482 1139.45 718.571 1139.39 718.594L1129.04 725.84L1128.53 725.095L1128.49 725.174Z" fill="#75A3C1"/>
<path d="M1206.15 680.112L1206.88 679.537L1250.56 732.231L1249.84 732.834L1206.15 680.112Z" fill="#75A3C1"/>
<path d="M1196.42 630.61C1196.42 630.61 1196.4 630.553 1196.39 630.525C1196.33 630.383 1196.4 630.226 1196.53 630.114L1226.39 600.814C1226.53 600.662 1226.79 600.659 1226.96 600.757L1272.78 630.9L1298.62 605.398C1298.76 605.246 1298.99 605.254 1299.15 605.324L1363.96 639.709L1388.11 619.711C1388.11 619.711 1388.4 619.601 1388.53 619.613C1388.68 619.654 1388.78 619.746 1388.83 619.887L1407.59 668.515C1407.66 668.713 1407.6 668.899 1407.45 669.022C1407.3 669.145 1407.08 669.165 1406.9 669.039L1363.96 640.749L1336.66 657.53L1318.44 686.347L1328.65 709.316L1327.81 709.703L1317.54 686.661L1196.61 630.832C1196.61 630.832 1196.42 630.678 1196.38 630.593L1196.42 630.61ZM1226.78 601.738L1197.65 630.3L1317.78 685.754L1335.99 656.976C1335.99 656.976 1336.08 656.875 1336.13 656.824L1363.11 640.232L1299.02 606.255L1273.16 631.796C1272.99 631.958 1272.76 631.95 1272.59 631.853L1226.77 601.71L1226.78 601.738ZM1388.25 620.831L1364.81 640.226L1406.27 667.558L1388.26 620.859L1388.25 620.831Z" fill="#75A3C1"/>
<path d="M1226.26 600.993L1235.29 571.941C1235.29 571.941 1235.43 571.694 1235.57 571.639C1235.71 571.584 1235.85 571.596 1235.97 571.648L1299.16 605.256L1298.72 606.076L1236.03 572.734L1227.14 601.239L1226.25 600.965L1226.26 600.993Z" fill="#75A3C1"/>
<path d="M1160.7 493.257L1161.11 492.448L1202.73 513.301C1202.73 513.301 1202.87 513.41 1202.93 513.484L1236.18 571.86L1235.37 572.304L1202.19 514.031L1160.7 493.257Z" fill="#75A3C1"/>
<path d="M279.104 291.976L272.965 291.363L272.479 297.555L269.956 291.884L264.395 294.582L267.981 289.524L262.906 285.999L269.045 286.643L269.501 280.421L272.053 286.091L277.614 283.425L273.998 288.451L279.104 291.976Z" fill="#75A3C1"/>
<path d="M379.663 248.238L375.925 245.418L373.22 249.249L373.798 244.56L369.148 244.1L373.433 242.261L371.488 237.97L375.226 240.79L377.961 236.989L377.384 241.648L382.033 242.108L377.748 243.947L379.663 248.238Z" fill="#75A3C1"/>
<path d="M376.715 353.584L373.007 350.764L370.272 354.596L370.849 349.937L366.2 349.477L370.485 347.607L368.57 343.347L372.308 346.167L375.013 342.335L374.435 346.994L379.085 347.454L374.8 349.324L376.715 353.584Z" fill="#75A3C1"/>
<path d="M301.804 503.957C303.415 505.091 303.81 507.328 302.686 508.984C301.561 510.639 299.343 511.007 297.702 509.872C296.061 508.738 295.696 506.501 296.821 504.846C297.945 503.221 300.163 502.823 301.804 503.957Z" fill="#75A3C1"/>
<path d="M288.616 438.334C290.226 439.468 290.621 441.705 289.497 443.36C288.372 444.985 286.154 445.383 284.513 444.249C282.902 443.115 282.507 440.878 283.632 439.222C284.756 437.598 286.975 437.199 288.616 438.334Z" fill="#75A3C1"/>
<path d="M384.646 483.022C386.257 484.156 386.652 486.394 385.528 488.049C384.403 489.674 382.185 490.072 380.544 488.938C378.903 487.804 378.538 485.566 379.662 483.911C380.787 482.287 383.005 481.888 384.646 483.022Z" fill="#75A3C1"/>
<path d="M422.754 314.933C424.365 316.067 424.76 318.305 423.636 319.96C422.511 321.615 420.293 321.983 418.652 320.849C417.041 319.715 416.646 317.477 417.771 315.822C418.895 314.198 421.113 313.799 422.754 314.933Z" fill="#75A3C1"/>
<path d="M319.188 394.105C320.798 395.239 321.193 397.476 320.069 399.131C318.944 400.756 316.726 401.154 315.085 400.02C313.474 398.886 313.079 396.649 314.204 394.993C315.328 393.338 317.547 392.97 319.188 394.105Z" fill="#75A3C1"/>
<path d="M493.045 232.115C494.656 233.249 495.051 235.487 493.927 237.142C492.802 238.766 490.584 239.165 488.943 238.031C487.332 236.897 486.937 234.659 488.061 233.004C489.186 231.349 491.404 230.981 493.045 232.115Z" fill="#75A3C1"/>
<path d="M421.569 322.565C420.109 322.565 418.925 323.759 418.925 325.232C418.925 326.705 420.109 327.899 421.569 327.899C423.029 327.899 424.213 326.705 424.213 325.232C424.213 323.759 423.029 322.565 421.569 322.565Z" fill="#75A3C1"/>
<path d="M307.092 429.506C305.632 429.506 304.449 430.7 304.449 432.173C304.449 433.645 305.632 434.839 307.092 434.839C308.553 434.839 309.736 433.645 309.736 432.173C309.736 430.7 308.553 429.506 307.092 429.506Z" fill="#75A3C1"/>
<path d="M302.716 443.483C301.256 443.483 300.072 444.676 300.072 446.149C300.072 447.622 301.256 448.816 302.716 448.816C304.176 448.816 305.36 447.622 305.36 446.149C305.36 444.676 304.176 443.483 302.716 443.483Z" fill="#75A3C1"/>
<path d="M292.202 457.95C292.202 456.479 293.387 455.283 294.845 455.283C296.304 455.283 297.489 456.479 297.489 457.95C297.489 459.421 296.304 460.617 294.845 460.617C293.387 460.617 292.202 459.421 292.202 457.95Z" fill="#75A3C1"/>
<path d="M251.084 429.046C251.084 427.575 252.27 426.38 253.728 426.38C255.187 426.38 256.372 427.575 256.372 429.046C256.372 430.518 255.187 431.713 253.728 431.713C252.27 431.713 251.084 430.518 251.084 429.046Z" fill="#75A3C1"/>
<path d="M240.813 439.069C240.813 437.598 241.998 436.402 243.457 436.402C244.915 436.402 246.101 437.598 246.101 439.069C246.101 440.54 244.915 441.736 243.457 441.736C241.998 441.736 240.813 440.54 240.813 439.069Z" fill="#75A3C1"/>
<path d="M258.317 520.845C258.317 519.374 259.502 518.179 260.961 518.179C262.42 518.179 263.605 519.374 263.605 520.845C263.605 522.316 262.42 523.512 260.961 523.512C259.502 523.512 258.317 522.316 258.317 520.845Z" fill="#75A3C1"/>
<path d="M333.531 578.224C333.531 576.752 334.716 575.557 336.175 575.557C337.634 575.557 338.819 576.752 338.819 578.224C338.819 579.695 337.634 580.89 336.175 580.89C334.716 580.89 333.531 579.695 333.531 578.224Z" fill="#75A3C1"/>
<path d="M338.363 586.959C336.903 586.959 335.719 588.153 335.719 589.626C335.719 591.098 336.903 592.292 338.363 592.292C339.823 592.292 341.007 591.098 341.007 589.626C341.007 588.153 339.823 586.959 338.363 586.959Z" fill="#75A3C1"/>
<path d="M255.461 486.762C255.461 485.291 256.646 484.095 258.105 484.095C259.563 484.095 260.749 485.291 260.749 486.762C260.749 488.233 259.563 489.428 258.105 489.428C256.646 489.428 255.461 488.233 255.461 486.762Z" fill="#75A3C1"/>
<path d="M329.459 426.84C329.459 425.368 330.644 424.173 332.103 424.173C333.562 424.173 334.747 425.368 334.747 426.84C334.747 428.311 333.562 429.506 332.103 429.506C330.644 429.506 329.459 428.311 329.459 426.84Z" fill="#75A3C1"/>
<path d="M435.974 317.876C435.974 316.405 437.159 315.209 438.618 315.209C440.077 315.209 441.262 316.405 441.262 317.876C441.262 319.347 440.077 320.543 438.618 320.543C437.159 320.543 435.974 319.347 435.974 317.876Z" fill="#75A3C1"/>
<path d="M427.1 249.954L425.702 243.885L419.746 245.418L424.243 241.188L419.958 236.744L425.854 238.552L427.525 232.575L428.893 238.644L434.88 237.111L430.352 241.341L434.667 245.816L428.771 243.977L427.1 249.954Z" fill="#75A3C1"/>
<path d="M420.688 317.416L438.588 317.416C438.8 317.416 438.983 317.57 439.043 317.784C439.074 317.999 438.983 318.213 438.77 318.305L421.721 325.631L421.357 324.773L436.339 318.305L420.658 318.305L420.658 317.386L420.688 317.416Z" fill="#75A3C1"/>
<path d="M491.009 234.598C491.161 234.598 491.313 234.69 491.404 234.843C491.495 234.997 491.465 235.211 491.374 235.334L446.549 295.624L439.074 317.999L438.192 317.692L445.698 295.225C445.698 295.225 445.729 295.133 445.759 295.103L490.037 235.548L428.346 241.035L445.82 291.762L444.969 292.068L427.313 240.79C427.313 240.79 427.313 240.514 427.374 240.391C427.465 240.268 427.586 240.207 427.708 240.177L491.009 234.537C491.009 234.537 491.009 234.537 491.04 234.537L491.009 234.598Z" fill="#75A3C1"/>
<path d="M427.677 240.238L427.677 241.157L375.833 243.579L326.997 304.88L372.703 347.883L443.146 296.574L443.693 297.309L372.946 348.833C372.764 348.956 372.521 348.956 372.369 348.803L326.086 305.248C325.903 305.095 325.903 304.819 326.055 304.635L375.286 242.843C375.286 242.843 375.499 242.69 375.62 242.659L427.738 240.238L427.677 240.238Z" fill="#75A3C1"/>
<path d="M325.903 304.88L326.815 304.972L317.607 397.108L307.73 431.56L331.981 426.41C332.163 426.38 332.315 426.41 332.406 426.564L382.914 485.689L382.215 486.302L331.89 427.361L307.153 432.632C307.001 432.663 306.819 432.632 306.727 432.51C306.606 432.387 306.575 432.234 306.636 432.081L316.695 396.986L325.903 304.911L325.903 304.88Z" fill="#75A3C1"/>
<path d="M306.667 432.02L307.548 432.296L303.172 446.272C303.172 446.272 303.172 446.364 303.111 446.395L295.332 458.073L300.224 506.777L336.6 578.009C336.6 578.009 336.631 578.101 336.631 578.132L338.819 589.534C338.849 589.718 338.758 589.932 338.606 590.024C338.454 590.116 338.241 590.116 338.089 589.963L260.688 521.213L261.295 520.539L337.694 588.4L335.78 578.377L299.404 507.114C299.404 507.114 299.373 507.022 299.343 506.961L294.42 458.011C294.42 458.011 294.42 457.797 294.511 457.705L302.321 445.966L306.667 432.05L306.667 432.02Z" fill="#75A3C1"/>
<path d="M253.729 428.587C253.729 428.587 253.759 428.587 253.789 428.587C253.941 428.587 254.063 428.679 254.124 428.801L300.164 506.654L299.373 507.114L253.607 429.751L243.943 439.161L258.5 486.578L257.618 486.854L242.971 439.161C242.91 439.008 242.971 438.824 243.092 438.701L253.364 428.678C253.364 428.678 253.577 428.556 253.668 428.556L253.729 428.587Z" fill="#75A3C1"/>
<path d="M271.446 288.942L283.693 424.571L287.005 441.092L295.241 457.705L294.42 458.103L286.154 441.429C286.154 441.429 286.124 441.368 286.124 441.307L282.781 424.663L270.534 288.972L271.446 288.88L271.446 288.942Z" fill="#75A3C1"/>
<path d="M449.953 302.305L445.304 298.229L441.383 303.01L442.569 296.911L436.491 295.838L442.325 293.815L440.198 287.992L444.817 292.068L448.768 287.317L447.583 293.417L453.661 294.459L447.826 296.482L449.953 302.305Z" fill="#75A3C1"/>
<path d="M325.266 314.106L324.506 307.945L318.398 308.834L323.321 305.095L319.492 300.222L325.174 302.643L327.454 296.881L328.213 303.041L334.291 302.153L329.368 305.892L333.197 310.765L327.545 308.344L325.266 314.106Z" fill="#75A3C1"/>
<path d="M280.805 432.357L281.018 426.165L274.849 426.104L280.289 423.161L277.25 417.767L282.477 421.046L285.607 415.683L285.424 421.905L291.563 421.966L286.123 424.878L289.162 430.303L283.935 427.023L280.805 432.357Z" fill="#75A3C1"/>
<path d="M180.82 316.589L177.082 313.769L174.378 317.6L174.925 312.911L170.306 312.451L174.591 310.612L172.646 306.321L176.383 309.141L179.088 305.34L178.541 309.999L183.191 310.459L178.906 312.298L180.82 316.589Z" fill="#75A3C1"/>
<path d="M203.339 277.448C204.95 278.582 205.345 280.819 204.22 282.475C203.096 284.13 200.877 284.497 199.236 283.363C197.595 282.229 197.231 279.992 198.355 278.337C199.48 276.712 201.698 276.314 203.339 277.448Z" fill="#75A3C1"/>
<path d="M146.997 138.109C146.997 136.638 148.182 135.443 149.641 135.443C151.099 135.443 152.285 136.638 152.285 138.109C152.285 139.581 151.099 140.776 149.641 140.776C148.182 140.776 146.997 139.581 146.997 138.109Z" fill="#75A3C1"/>
<path d="M186.716 232.299C186.716 230.828 187.901 229.633 189.36 229.633C190.818 229.633 192.004 230.828 192.004 232.299C192.004 233.771 190.818 234.966 189.36 234.966C187.901 234.966 186.716 233.771 186.716 232.299Z" fill="#75A3C1"/>
<path d="M217.47 396.128C217.47 394.656 218.656 393.461 220.114 393.461C221.573 393.461 222.758 394.656 222.758 396.128C222.758 397.599 221.573 398.794 220.114 398.794C218.656 398.794 217.47 397.599 217.47 396.128Z" fill="#75A3C1"/>
<path d="M268.889 252.406C268.889 250.935 270.074 249.74 271.533 249.74C272.992 249.74 274.177 250.935 274.177 252.406C274.177 253.877 272.992 255.073 271.533 255.073C270.074 255.073 268.889 253.877 268.889 252.406Z" fill="#75A3C1"/>
<path d="M265.425 228.315C265.425 226.844 266.61 225.648 268.069 225.648C269.527 225.648 270.712 226.844 270.712 228.315C270.712 229.786 269.527 230.982 268.069 230.982C266.61 230.982 265.425 229.786 265.425 228.315Z" fill="#75A3C1"/>
<path d="M300.343 161.833L294.204 161.22L293.718 167.411L291.195 161.741L285.634 164.438L289.22 159.381L284.145 155.886L290.284 156.499L290.739 150.308L293.292 155.978L298.853 153.281L295.237 158.338L300.343 161.833Z" fill="#75A3C1"/>
<path d="M287.579 81.436C289.19 82.5701 289.585 84.8077 288.46 86.4628C287.336 88.0873 285.117 88.4858 283.476 87.3517C281.866 86.2176 281.471 83.9801 282.595 82.3249C283.72 80.7004 285.938 80.302 287.579 81.436Z" fill="#75A3C1"/>
<path d="M213.733 134.86C215.343 135.994 215.738 138.232 214.614 139.887C213.49 141.511 211.271 141.91 209.63 140.776C208.02 139.642 207.624 137.404 208.749 135.749C209.873 134.125 212.092 133.726 213.733 134.86Z" fill="#75A3C1"/>
<path d="M275.028 195.58C276.639 196.714 277.034 198.951 275.91 200.606C274.785 202.231 272.567 202.629 270.926 201.495C269.315 200.361 268.92 198.124 270.045 196.468C271.169 194.813 273.387 194.445 275.028 195.58Z" fill="#75A3C1"/>
<path d="M311.921 45.6667C311.921 44.1954 313.106 43.0001 314.564 43.0001C316.023 43.0001 317.208 44.1954 317.208 45.6667C317.208 47.1379 316.023 48.3333 314.564 48.3333C313.106 48.3333 311.921 47.1379 311.921 45.6667Z" fill="#75A3C1"/>
<path d="M321.068 67.0916C321.068 65.6203 322.254 64.425 323.712 64.425C325.171 64.425 326.356 65.6203 326.356 67.0916C326.356 68.5628 325.171 69.7582 323.712 69.7582C322.254 69.7582 321.068 68.5628 321.068 67.0916Z" fill="#75A3C1"/>
<path d="M268.312 109.696C266.852 109.696 265.668 110.89 265.668 112.363C265.668 113.836 266.852 115.03 268.312 115.03C269.772 115.03 270.956 113.836 270.956 112.363C270.956 110.89 269.772 109.696 268.312 109.696Z" fill="#75A3C1"/>
<path d="M351.579 154.017C352.43 152.822 354.071 152.515 355.257 153.343C356.442 154.201 356.746 155.856 355.925 157.051C355.074 158.247 353.433 158.553 352.248 157.726C351.063 156.867 350.759 155.212 351.579 154.017Z" fill="#75A3C1"/>
<path d="M255.123 182.124C255.974 180.928 257.615 180.622 258.8 181.449C259.985 182.308 260.289 183.963 259.469 185.158C258.618 186.353 256.977 186.66 255.792 185.832C254.607 184.974 254.303 183.319 255.123 182.124Z" fill="#75A3C1"/>
<path d="M270.834 212.285C271.685 211.089 273.326 210.783 274.512 211.61C275.697 212.438 276.001 214.124 275.18 215.319C274.36 216.514 272.688 216.821 271.503 215.993C270.318 215.166 270.014 213.48 270.834 212.285Z" fill="#75A3C1"/>
<path d="M348.358 95.4131C348.358 93.9419 349.543 92.7464 351.002 92.7464C352.46 92.7464 353.646 93.9419 353.646 95.4131C353.646 96.8843 352.46 98.0797 351.002 98.0797C349.543 98.0797 348.358 96.8843 348.358 95.4131Z" fill="#75A3C1"/>
<path d="M332.008 118.585C332.008 117.114 333.193 115.918 334.652 115.918C336.111 115.918 337.296 117.114 337.296 118.585C337.296 120.056 336.111 121.252 334.652 121.252C333.193 121.252 332.008 120.056 332.008 118.585Z" fill="#75A3C1"/>
<path d="M253.391 79.9955L249.653 77.1756L246.949 81.007L247.526 76.3481L242.876 75.8882L247.161 74.0186L245.216 69.7581L248.954 72.578L251.689 68.7467L251.112 73.4055L255.761 73.8654L251.477 75.7043L253.391 79.9955Z" fill="#75A3C1"/>
<path d="M249.318 74.417C249.318 74.417 249.409 74.417 249.44 74.417L285.664 83.9493C285.664 83.9493 285.907 84.1025 285.968 84.2251C286.029 84.3478 285.998 84.501 285.937 84.6236L268.707 112.577L234.488 160.76L233.759 160.239L267.977 112.087L284.874 84.685L249.561 75.3978L212.091 138.048L211.301 137.588L248.923 74.6315C248.923 74.6315 249.166 74.417 249.318 74.417Z" fill="#75A3C1"/>
<path d="M292.229 158.4C292.229 158.4 292.441 158.43 292.533 158.522C292.685 158.645 292.745 158.89 292.654 159.074L273.448 198.644L273.448 213.816L272.536 213.816L272.536 198.522C272.536 198.522 272.536 198.399 272.597 198.307L291.074 160.239L257.585 183.993L257.068 183.227L292.016 158.43C292.016 158.43 292.198 158.339 292.29 158.339L292.229 158.4Z" fill="#75A3C1"/>
<path d="M314.99 45.4827L324.137 67.1834C324.228 67.4286 324.137 67.6738 323.894 67.7964L285.725 84.8689L285.36 84.0413L323.134 67.1528L314.169 45.8811L315.02 45.5133L314.99 45.4827Z" fill="#75A3C1"/>
<path d="M338.36 55.2912L338.421 55.2912C338.542 55.2912 338.664 55.3832 338.725 55.4752L356.988 82.9688C356.988 82.9688 357.08 83.2754 357.019 83.4287L351.366 95.6276L335.138 118.616L354.102 155.335L353.281 155.764L334.196 118.8C334.196 118.8 334.136 118.462 334.227 118.309L350.576 95.1679L356.077 83.2753L338.208 56.3947L323.834 67.7968L323.256 67.0612L338.026 55.3526C338.026 55.3526 338.208 55.2606 338.299 55.2606L338.36 55.2912Z" fill="#75A3C1"/>
<path d="M334.348 118.248L334.956 118.922L292.532 159.197L291.924 158.523L334.348 118.248Z" fill="#75A3C1"/>
<path d="M338.39 63.4438L336.992 57.4056L331.036 58.9076L335.533 54.6778L331.248 50.2334L337.144 52.0724L338.815 46.0955L340.183 52.1337L346.17 50.6319L341.642 54.8617L345.957 59.3061L340.061 57.467L338.39 63.4438Z" fill="#75A3C1"/>
<path d="M356.229 91.5204L354.831 85.4516L348.875 86.9841L353.372 82.7543L349.087 78.2792L354.983 80.1183L356.654 74.1415L358.022 80.2103L364.009 78.6777L359.481 82.9075L363.796 87.3519L357.9 85.5435L356.229 91.5204Z" fill="#75A3C1"/>
<path d="M233.03 170.537L231.662 164.499L225.706 166.001L230.204 161.771L225.919 157.327L231.814 159.166L233.486 153.189L234.853 159.227L240.84 157.725L236.312 161.955L240.597 166.4L234.732 164.561L233.03 170.537Z" fill="#75A3C1"/>
<path d="M207.016 38.249L203.278 35.3985L200.543 39.2299L201.121 34.571L196.471 34.1112L200.756 32.2722L198.841 27.9811L202.579 30.8009L205.284 26.9696L204.707 31.6591L209.356 32.1189L205.071 33.9579L207.016 38.249Z" fill="#75A3C1"/>
<path d="M202.696 33.1656L203.579 32.9379L193.892 -5.28056L193.009 -5.05281L202.696 33.1656Z" fill="#75A3C1"/>
<path d="M192.186 1.98962L190.819 -4.04858L184.832 -2.54672L189.36 -6.77654L185.045 -11.2208L190.94 -9.38178L192.612 -15.3587L193.979 -9.32051L199.966 -10.8224L195.438 -6.59255L199.753 -2.14825L193.858 -3.98731L192.186 1.98962Z" fill="#75A3C1"/>
<path d="M1284.05 35.46C1285.66 36.594 1286.06 38.8316 1284.93 40.4867C1283.81 42.1112 1281.59 42.5097 1279.95 41.3756C1278.34 40.2415 1277.94 38.004 1279.07 36.3489C1280.19 34.6937 1282.41 34.3259 1284.05 35.46Z" fill="#75A3C1"/>
<path d="M1248.95 42.3868L1247.58 36.3486L1241.6 37.8506L1246.12 33.6208L1241.84 29.1764L1247.7 31.0154L1249.41 25.0385L1250.77 31.0767L1256.73 29.5748L1252.23 33.8047L1256.52 38.249L1250.62 36.41L1248.95 42.3868Z" fill="#75A3C1"/>
<path d="M1209.9 319.163L1206.16 316.343L1203.46 320.175L1204.03 315.485L1199.39 315.025L1203.67 313.186L1201.76 308.895L1205.46 311.715L1208.2 307.884L1207.62 312.573L1212.27 313.033L1207.99 314.872L1209.9 319.163Z" fill="#75A3C1"/>
<path d="M1213.7 295.807C1215.31 296.942 1215.7 299.179 1214.58 300.834C1213.46 302.459 1211.24 302.857 1209.6 301.723C1207.99 300.589 1207.59 298.351 1208.72 296.696C1209.84 295.072 1212.06 294.673 1213.7 295.807Z" fill="#75A3C1"/>
<path d="M1216.31 301.386C1214.85 301.386 1213.67 302.58 1213.67 304.053C1213.67 305.525 1214.85 306.719 1216.31 306.719C1217.77 306.719 1218.96 305.525 1218.96 304.053C1218.96 302.58 1217.77 301.386 1216.31 301.386Z" fill="#75A3C1"/>
<path d="M1190.48 337.156C1190.48 335.684 1191.67 334.489 1193.13 334.489C1194.58 334.489 1195.77 335.684 1195.77 337.156C1195.77 338.627 1194.58 339.822 1193.13 339.822C1191.67 339.822 1190.48 338.627 1190.48 337.156Z" fill="#75A3C1"/>
<path d="M1211.21 298.597L1212.09 298.934L1206.34 314.198L1193.55 337.37L1192.73 336.91L1205.52 313.8L1211.21 298.597Z" fill="#75A3C1"/>
<path d="M1215.86 303.93L1216.74 304.145C1216.53 305.218 1209.29 311.654 1206.19 314.382L1205.59 313.677C1210.33 309.509 1215.52 304.697 1215.83 303.93L1215.86 303.93Z" fill="#75A3C1"/>
<path d="M1126.57 223.319L1121.65 219.58L1118.06 224.637L1118.79 218.476L1112.65 217.863L1118.34 215.442L1115.78 209.771L1120.74 213.511L1124.32 208.453L1123.56 214.614L1129.7 215.227L1124.02 217.649L1126.57 223.319Z" fill="#75A3C1"/>
<path d="M1088.34 197.48C1088.34 196.009 1089.53 194.813 1090.99 194.813C1092.44 194.813 1093.63 196.009 1093.63 197.48C1093.63 198.951 1092.44 200.146 1090.99 200.146C1089.53 200.146 1088.34 198.951 1088.34 197.48Z" fill="#75A3C1"/>
<path d="M1114.63 202.538C1114.63 201.066 1115.81 199.871 1117.27 199.871C1118.73 199.871 1119.92 201.066 1119.92 202.538C1119.92 204.009 1118.73 205.204 1117.27 205.204C1115.81 205.204 1114.63 204.009 1114.63 202.538Z" fill="#75A3C1"/>
<path d="M1090.53 211.181C1090.53 209.71 1091.72 208.514 1093.17 208.514C1094.63 208.514 1095.82 209.71 1095.82 211.181C1095.82 212.652 1094.63 213.848 1093.17 213.848C1091.72 213.848 1090.53 212.652 1090.53 211.181Z" fill="#75A3C1"/>
<path d="M1082.14 183.35L1091.26 197.051L1117.33 202.078C1117.49 202.108 1117.64 202.231 1117.7 202.384L1121.89 216.392C1121.89 216.392 1121.89 216.698 1121.8 216.821C1121.71 216.943 1121.53 217.005 1121.38 216.974L1093.11 211.61C1092.93 211.579 1092.78 211.426 1092.75 211.242L1090.56 198.461L1091.44 198.308L1093.57 210.782L1120.77 215.932L1116.88 202.905L1090.89 197.878C1090.89 197.878 1090.68 197.786 1090.59 197.695L1081.35 183.81L1082.11 183.289L1082.14 183.35Z" fill="#75A3C1"/>
<path d="M1080.38 189.633L1079.01 183.564L1073.06 185.097L1077.55 180.867L1073.27 176.423L1079.16 178.231L1080.84 172.254L1082.2 178.323L1088.19 176.791L1083.66 181.02L1087.95 185.465L1082.08 183.656L1080.38 189.633Z" fill="#75A3C1"/>
<path d="M1208.47 375.653C1208.47 374.181 1209.66 372.986 1211.12 372.986C1212.57 372.986 1213.76 374.181 1213.76 375.653C1213.76 377.124 1212.57 378.319 1211.12 378.319C1209.66 378.319 1208.47 377.124 1208.47 375.653Z" fill="#75A3C1"/>
<path d="M1183.46 439.958L1179.75 437.138L1177.02 440.97L1177.6 436.28L1172.95 435.82L1177.23 433.981L1175.32 429.69L1179.02 432.541L1181.76 428.709L1181.18 433.368L1185.83 433.828L1181.55 435.667L1183.46 439.958Z" fill="#75A3C1"/>
<path d="M1217.07 428.127C1218.68 429.261 1219.08 431.499 1217.95 433.154C1216.83 434.778 1214.61 435.177 1212.97 434.043C1211.33 432.909 1210.96 430.671 1212.09 429.016C1213.21 427.392 1215.43 426.993 1217.07 428.127Z" fill="#75A3C1"/>
<path d="M1178.93 444.311C1178.93 442.839 1180.12 441.644 1181.58 441.644C1183.04 441.644 1184.22 442.839 1184.22 444.311C1184.22 445.782 1183.04 446.977 1181.58 446.977C1180.12 446.977 1178.93 445.782 1178.93 444.311Z" fill="#75A3C1"/>
<path d="M1167.48 448.724C1167.48 447.253 1168.66 446.058 1170.12 446.058C1171.58 446.058 1172.76 447.253 1172.76 448.724C1172.76 450.195 1171.58 451.391 1170.12 451.391C1168.66 451.391 1167.48 450.195 1167.48 448.724Z" fill="#75A3C1"/>
<path d="M1187.9 433.276C1187.9 431.805 1189.08 430.61 1190.54 430.61C1192 430.61 1193.19 431.805 1193.19 433.276C1193.19 434.747 1192 435.943 1190.54 435.943C1189.08 435.943 1187.9 434.747 1187.9 433.276Z" fill="#75A3C1"/>
<path d="M1215.46 430.732L1215.55 431.652L1190.75 433.736L1181.42 444.617C1181.42 444.617 1181.3 444.709 1181.24 444.739L1170.27 449.153C1170.09 449.214 1169.88 449.153 1169.76 449C1169.63 448.847 1169.63 448.632 1169.76 448.448L1179.02 434.563C1179.02 434.563 1179.21 434.379 1179.33 434.379L1189.2 432.816L1189.36 433.736L1179.69 435.268L1171.37 447.743L1180.85 443.912L1190.24 432.97C1190.24 432.97 1190.42 432.816 1190.54 432.816L1215.52 430.732L1215.46 430.732Z" fill="#75A3C1"/>
<path d="M1048.08 346.993L1043.15 343.254L1039.57 348.311L1040.3 342.12L1034.16 341.538L1039.84 339.086L1037.29 333.415L1042.21 337.155L1045.83 332.097L1045.07 338.258L1051.21 338.871L1045.52 341.323L1048.08 346.993Z" fill="#75A3C1"/>
<path d="M1127.76 289.003C1127.76 287.531 1128.94 286.336 1130.4 286.336C1131.86 286.336 1133.04 287.531 1133.04 289.003C1133.04 290.474 1131.86 291.669 1130.4 291.669C1128.94 291.669 1127.76 290.474 1127.76 289.003Z" fill="#75A3C1"/>
<path d="M1091.99 308.037C1093.6 309.171 1093.99 311.408 1092.87 313.064C1091.75 314.688 1089.53 315.087 1087.89 313.953C1086.28 312.818 1085.88 310.581 1087 308.926C1088.13 307.271 1090.35 306.903 1091.99 308.037Z" fill="#75A3C1"/>
<path d="M1009.57 273.309L1005.83 270.459L1003.13 274.29L1003.71 269.631L999.058 269.171L1003.34 267.332L1001.4 263.041L1005.14 265.861L1007.87 262.03L1007.29 266.719L1011.94 267.179L1007.66 269.018L1009.57 273.309Z" fill="#75A3C1"/>
<path d="M1152.4 279.501L1148.66 276.681L1145.96 280.512L1146.51 275.823L1141.86 275.363L1146.17 273.524L1144.23 269.233L1147.97 272.053L1150.67 268.221L1150.12 272.911L1154.77 273.371L1150.46 275.21L1152.4 279.501Z" fill="#75A3C1"/>
<path d="M989.06 249.555C990.67 250.689 991.065 252.927 989.941 254.582C988.817 256.206 986.598 256.605 984.957 255.471C983.316 254.336 982.951 252.099 984.076 250.444C985.2 248.789 987.419 248.421 989.06 249.555Z" fill="#75A3C1"/>
<path d="M1062.94 440.754C1064.55 441.888 1064.94 444.126 1063.82 445.781C1062.69 447.436 1060.47 447.804 1058.83 446.67C1057.22 445.536 1056.83 443.298 1057.95 441.643C1059.08 440.019 1061.3 439.62 1062.94 440.754Z" fill="#75A3C1"/>
<path d="M1030.3 277.141C1031.91 278.275 1032.3 280.513 1031.18 282.168C1030.06 283.792 1027.84 284.191 1026.2 283.057C1024.58 281.922 1024.19 279.685 1025.31 278.03C1026.44 276.375 1028.66 276.007 1030.3 277.141Z" fill="#75A3C1"/>
<path d="M995.229 260.436C993.769 260.436 992.585 261.63 992.585 263.103C992.585 264.576 993.769 265.77 995.229 265.77C996.689 265.77 997.873 264.576 997.873 263.103C997.873 261.63 996.689 260.436 995.229 260.436Z" fill="#75A3C1"/>
<path d="M1061.78 391.499C1061.78 390.027 1062.97 388.832 1064.43 388.832C1065.88 388.832 1067.07 390.027 1067.07 391.499C1067.07 392.97 1065.88 394.165 1064.43 394.165C1062.97 394.165 1061.78 392.97 1061.78 391.499Z" fill="#75A3C1"/>
<path d="M987.389 252.222L995.503 262.735L1005.68 267.762L1028.48 279.716C1028.48 279.716 1028.69 279.899 1028.72 280.022L1043 338.933L1089.74 310.642L1130.22 288.635L1148.06 274.045L1148.63 274.75L1130.74 289.371L1090.2 311.408L1042.94 340.036C1042.94 340.036 1042.67 340.128 1042.55 340.036C1042.42 339.975 1042.3 339.852 1042.27 339.73L1027.9 280.421L1005.32 268.589L995.047 263.532C995.047 263.532 994.925 263.471 994.895 263.409L986.69 252.804L987.419 252.253L987.389 252.222Z" fill="#75A3C1"/>
<path d="M1042.7 339.147C1042.88 339.147 1043.03 339.27 1043.12 339.423L1064.85 391.315C1064.85 391.315 1064.88 391.468 1064.88 391.529L1061.33 443.727L1060.41 443.666L1063.94 391.56L1042.39 340.128L998.511 351.07L998.298 350.181L1042.54 339.147C1042.54 339.147 1042.61 339.147 1042.67 339.147L1042.7 339.147Z" fill="#75A3C1"/>
<path d="M1003.01 358.488L1000.27 352.909L994.803 355.76L998.237 350.611L993.041 347.27L999.179 347.668L999.453 341.477L1002.19 347.055L1007.66 344.174L1004.22 349.323L1009.42 352.664L1003.28 352.266L1003.01 358.488Z" fill="#75A3C1"/>
<mask id="mask0_79_534" style="mask-type:alpha" maskUnits="userSpaceOnUse" x="-1" y="-1" width="1281" height="942">
<rect x="-0.000976562" y="-0.00292969" width="1280" height="941" fill="#D9D9D9"/>
</mask>
<g mask="url(#mask0_79_534)">
</g>
</g>
</svg>
