<svg width="220" height="142" viewBox="0 0 215 142" fill="none" xmlns="http://www.w3.org/2000/svg">
<path d="M113.484 78.8069L106.997 82.304L145.719 104.107L184.423 82.293L178.753 79.1278" stroke="#204E62" stroke-linecap="round" stroke-linejoin="round"/>
<path d="M145.682 104.165L145.675 104.161V132.94L145.682 132.944H145.686L184.419 111.166V111.163V82.3879L145.686 104.165H145.682Z" stroke="#204E62" stroke-linecap="round" stroke-linejoin="round"/>
<path d="M145.726 104.165L106.989 82.3879V111.163V111.166L145.726 132.944L145.737 132.94V104.161L145.726 104.165Z" stroke="#204E62" stroke-linecap="round" stroke-linejoin="round"/>
<path d="M146.289 68.5127L184.982 46.7684L146.322 24.9985H146.318L107.582 46.7793L146.289 68.5127Z" stroke="#204E62" stroke-linecap="round" stroke-linejoin="round"/>
<path d="M146.249 68.5346L146.241 68.531V97.3095L146.249 97.3131L184.985 75.536V75.5323V46.7574L146.249 68.5346Z" stroke="#204E62" stroke-linecap="round" stroke-linejoin="round"/>
<path d="M146.292 68.5346L107.556 46.7574V75.5323V75.536L146.292 97.3131L146.3 97.3095V68.531L146.292 68.5346Z" stroke="#204E62" stroke-linecap="round" stroke-linejoin="round"/>
<path d="M151.296 110.525L151.292 110.521V121.07L151.296 121.074L173.695 108.482V108.479V97.933L151.296 110.525Z" stroke="#204E62" stroke-linecap="round" stroke-linejoin="round"/>
<path d="M151.296 76.8779H151.292V87.4273H151.296L173.695 74.8358V74.8322V64.2864L151.296 76.8779Z" stroke="#204E62" stroke-linecap="round" stroke-linejoin="round"/>
<path d="M206.075 35.0339L184.334 47.2571" stroke="#204E62" stroke-linecap="round" stroke-linejoin="round"/>
<path d="M146.749 96.9485L94.9199 126.092" stroke="#204E62" stroke-linecap="round" stroke-linejoin="round"/>
<path d="M107.6 47.5342V47.5306V9.44604" stroke="#204E62" stroke-linecap="round" stroke-linejoin="round"/>
<path d="M150.042 66.4379L120.783 82.8911" stroke="#204E62" stroke-linecap="round" stroke-linejoin="round"/>
<path d="M146.925 133.804C146.537 134.384 145.667 134.577 145.086 134.092C144.505 133.706 144.311 132.838 144.797 132.258C145.185 131.678 146.055 131.485 146.636 131.97C147.217 132.451 147.411 133.13 146.925 133.804Z" fill="#204E62"/>
<path d="M147.594 26.1727C147.181 26.7489 146.351 26.9166 145.69 26.5045C145.112 26.0925 144.944 25.2647 145.357 24.6047C145.77 24.0285 146.6 23.8608 147.261 24.2729C147.839 24.6849 148.007 25.5929 147.594 26.1727Z" fill="#204E62"/>
<path d="M186.345 76.4367C185.808 77.2426 184.638 77.4213 183.83 76.8852C183.023 76.3455 182.843 75.1823 183.381 74.3764C183.918 73.5705 185.088 73.3918 185.895 73.9279C186.703 74.5551 186.974 75.6308 186.345 76.4367Z" fill="#204E62"/>
<path d="M147.221 97.5939C146.859 98.1373 146.073 98.2576 145.529 97.8966C144.984 97.5356 144.863 96.7516 145.225 96.2083C145.587 95.6649 146.373 95.5446 146.918 95.9056C147.462 96.2666 147.583 97.0506 147.221 97.5939Z" fill="#204E62"/>
<path d="M186.104 47.8733C185.607 48.5334 184.697 48.6975 184.035 48.2052C183.374 47.7092 183.209 46.8012 183.703 46.1412C184.196 45.4812 185.11 45.3171 185.771 45.8094C186.433 46.3053 186.598 47.2133 186.104 47.8733Z" fill="#204E62"/>
<path d="M116.35 116.527C115.707 117.384 114.526 117.599 113.667 116.953C112.808 116.312 112.593 115.134 113.24 114.277C113.887 113.42 115.064 113.205 115.923 113.85C116.781 114.386 116.997 115.67 116.35 116.527Z" fill="#204E62"/>
<path d="M96.638 127.566C95.9801 128.437 94.7775 128.656 93.904 128.003C93.0304 127.347 92.8111 126.147 93.4654 125.275C94.1196 124.404 95.3258 124.185 96.1994 124.838C97.073 125.491 97.2923 126.694 96.638 127.566Z" fill="#204E62"/>
<path d="M108.956 76.1085C108.426 76.816 107.454 76.991 106.745 76.4622C106.035 75.9335 105.86 74.9635 106.39 74.2561C106.92 73.5487 107.892 73.3736 108.601 73.9024C109.31 74.4311 109.486 75.4011 108.956 76.1085Z" fill="#204E62"/>
<path d="M109.552 48.6828C108.861 49.6018 107.592 49.8315 106.671 49.1423C105.75 48.4531 105.52 47.1878 106.211 46.2688C106.902 45.3499 108.17 45.1202 109.091 45.8094C109.899 46.4986 110.129 47.7639 109.552 48.6828Z" fill="#204E62"/>
<path d="M185.647 112.964C185.033 113.785 183.903 113.989 183.081 113.373C182.259 112.76 182.054 111.633 182.672 110.813C183.286 109.992 184.415 109.788 185.238 110.404C186.06 111.02 186.265 112.144 185.647 112.964Z" fill="#204E62"/>
<path d="M121.781 83.573C121.42 84.0543 120.754 84.1747 120.272 83.8137C119.789 83.4526 119.669 82.789 120.031 82.3076C120.393 81.8263 121.058 81.706 121.54 82.067C121.964 82.428 122.085 83.0916 121.781 83.573Z" fill="#204E62"/>
<path d="M179.795 79.5618C179.528 79.9593 178.951 80.0505 178.553 79.7843C178.154 79.5181 178.063 78.9419 178.33 78.5444C178.596 78.147 179.174 78.0558 179.572 78.322C179.971 78.632 180.106 79.1643 179.795 79.5618Z" fill="#204E62"/>
<path d="M174.331 64.9173C174.064 65.3148 173.487 65.4059 173.088 65.1397C172.69 64.8735 172.598 64.2974 172.865 63.8999C173.132 63.5024 173.71 63.4113 174.108 63.6775C174.506 63.9874 174.642 64.5198 174.331 64.9173Z" fill="#204E62"/>
<path d="M174.514 75.3464C174.247 75.7438 173.669 75.835 173.271 75.5688C172.872 75.3026 172.781 74.7265 173.048 74.329C173.315 73.9315 173.892 73.8403 174.291 74.1065C174.689 74.4165 174.824 74.9489 174.514 75.3464Z" fill="#204E62"/>
<path d="M147.488 105.602C146.907 106.47 145.653 106.663 144.783 106.083C143.913 105.503 143.719 104.253 144.301 103.385C144.882 102.517 146.135 102.324 147.005 102.903C147.875 103.578 148.164 104.734 147.488 105.602Z" fill="#204E62"/>
<path d="M152.192 87.8394C151.83 88.3828 151.044 88.5031 150.499 88.1421C149.955 87.7811 149.834 86.9971 150.196 86.4537C150.558 85.9104 151.344 85.7901 151.888 86.1511C152.433 86.5121 152.554 87.2961 152.192 87.8394Z" fill="#204E62"/>
<path d="M152.956 78.0849C152.422 78.8872 151.26 79.0622 150.46 78.5298C149.655 77.9974 149.48 76.8378 150.014 76.0392C150.547 75.237 151.71 75.062 152.51 75.5943C153.311 76.1267 153.49 77.2863 152.956 78.0849Z" fill="#204E62"/>
<path d="M185.132 82.9203C184.836 83.3615 184.196 83.4599 183.75 83.1646C183.308 82.8692 183.209 82.2311 183.505 81.7862C183.801 81.345 184.441 81.2465 184.887 81.5419C185.333 81.8372 185.428 82.4754 185.132 82.9203Z" fill="#204E62"/>
<path d="M174.495 98.5019C174.199 98.9432 173.559 99.0416 173.113 98.7462C172.671 98.4509 172.572 97.8127 172.869 97.3678C173.165 96.9266 173.804 96.8282 174.25 97.1235C174.696 97.4189 174.791 98.057 174.495 98.5019Z" fill="#204E62"/>
<path d="M152.13 121.544C151.834 121.986 151.194 122.084 150.748 121.789C150.306 121.493 150.207 120.855 150.503 120.41C150.799 119.969 151.439 119.871 151.885 120.166C152.331 120.461 152.426 121.1 152.13 121.544Z" fill="#204E62"/>
<path d="M174.495 109.113C174.199 109.555 173.559 109.653 173.113 109.358C172.671 109.062 172.572 108.424 172.869 107.979C173.165 107.538 173.804 107.44 174.25 107.735C174.696 108.03 174.791 108.668 174.495 109.113Z" fill="#204E62"/>
<path d="M107.947 82.9823C107.651 83.4235 107.011 83.522 106.565 83.2266C106.123 82.9312 106.024 82.2931 106.32 81.8482C106.616 81.407 107.256 81.3085 107.702 81.6039C108.148 81.8992 108.243 82.5374 107.947 82.9823Z" fill="#204E62"/>
<path d="M114.27 79.2846C113.974 79.7259 113.334 79.8243 112.888 79.529C112.446 79.2336 112.347 78.5954 112.643 78.1506C112.94 77.7093 113.579 77.6109 114.025 77.9062C114.471 78.2016 114.566 78.8398 114.27 79.2846Z" fill="#204E62"/>
<path d="M24.1172 85.3561L17.6294 88.8495L56.3515 110.656L95.0553 88.8422L89.3863 85.677" stroke="#204E62" stroke-linecap="round" stroke-linejoin="round"/>
<path d="M56.3149 110.714L56.3076 110.711V139.489L56.3149 139.493L95.0517 117.716V117.712V88.9371L56.3149 110.714Z" stroke="#204E62" stroke-linecap="round" stroke-linejoin="round"/>
<path d="M56.3588 110.714L17.6221 88.9371V117.712V117.716L56.3588 139.493L56.3661 139.489V110.711L56.3588 110.714Z" stroke="#204E62" stroke-linecap="round" stroke-linejoin="round"/>
<path d="M56.9218 75.0619L95.6147 53.3176L56.9547 31.5477H56.9511L18.2144 53.3285L56.9218 75.0619Z" stroke="#204E62" stroke-linecap="round" stroke-linejoin="round"/>
<path d="M56.8816 75.0802L56.8706 75.0766V103.859L56.8816 103.862L95.6183 82.0852V82.0779V53.303L56.8816 75.0838V75.0802Z" stroke="#204E62" stroke-linecap="round" stroke-linejoin="round"/>
<path d="M56.9252 75.0802L56.9216 75.0838L18.1885 53.303V82.0779V82.0852L56.9216 103.862H56.9252L56.9325 103.859V75.0766L56.9252 75.0802Z" stroke="#204E62" stroke-linecap="round" stroke-linejoin="round"/>
<path d="M61.9289 117.074L61.9253 117.07V127.62L61.9289 127.623L84.3274 115.032V115.028V104.482L61.9289 117.074Z" stroke="#204E62" stroke-linecap="round" stroke-linejoin="round"/>
<path d="M61.9289 83.4271L61.9253 83.4234V93.9729L61.9289 93.9765L84.3274 81.385V81.3814V70.8356L61.9289 83.4271Z" stroke="#204E62" stroke-linecap="round" stroke-linejoin="round"/>
<path d="M116.708 41.5793L94.9678 53.8026" stroke="#204E62" stroke-linecap="round" stroke-linejoin="round"/>
<path d="M57.3823 103.498L5.54932 132.637" stroke="#204E62" stroke-linecap="round" stroke-linejoin="round"/>
<path d="M95.0552 127.073V111.061" stroke="#204E62" stroke-linecap="round" stroke-linejoin="round"/>
<path d="M96.733 54.2256C96.2323 54.8929 95.3112 55.0606 94.6387 54.5611C93.9698 54.0615 93.8016 53.1426 94.3024 52.4716C94.8031 51.8043 95.7242 51.6365 96.3968 52.1361C97.0656 52.6357 97.2338 53.5546 96.733 54.2256Z" fill="#204E62"/>
<path d="M58.6797 104.176C58.0217 105.051 56.8156 105.27 55.9383 104.614C55.0611 103.957 54.8418 102.754 55.4997 101.879C56.1576 101.004 57.3638 100.785 58.2411 101.441C59.1183 102.097 59.3376 103.301 58.6797 104.176Z" fill="#204E62"/>
<path d="M96.3894 90.3045C95.7827 91.1141 94.6679 91.3146 93.8564 90.7093C93.045 90.104 92.844 88.9918 93.4507 88.1822C94.0575 87.3727 95.1723 87.1721 95.9837 87.7775C96.7951 88.3828 96.9962 89.495 96.3894 90.3045Z" fill="#204E62"/>
<path d="M58.1866 139.66C57.514 140.558 56.2786 140.78 55.3795 140.109C54.4803 139.438 54.2573 138.206 54.9299 137.308C55.6024 136.411 56.8378 136.189 57.737 136.86C58.6362 137.531 58.8591 138.763 58.1866 139.66Z" fill="#204E62"/>
<path d="M96.3932 82.6286C96.0021 83.1464 95.2894 83.2776 94.7703 82.8875C94.2513 82.4973 94.1197 81.7862 94.5108 81.2684C94.9019 80.7506 95.6147 80.6193 96.1337 81.0095C96.6527 81.3997 96.7843 82.1108 96.3932 82.6286Z" fill="#204E62"/>
<path d="M85.0112 71.5613C84.6932 71.9806 84.1157 72.0864 83.6917 71.7728C83.2677 71.4592 83.1654 70.8794 83.4797 70.4564C83.794 70.0334 84.3752 69.9313 84.7992 70.2449C85.2195 70.5621 85.3255 71.1383 85.0112 71.5613Z" fill="#204E62"/>
<path d="M95.684 118.346C95.366 118.766 94.7885 118.872 94.3645 118.558C93.9406 118.244 93.8382 117.665 94.1525 117.242C94.4669 116.819 95.0481 116.716 95.472 117.03C95.8924 117.347 95.9984 117.923 95.684 118.346Z" fill="#204E62"/>
<path d="M62.7441 94.3376C62.4261 94.757 61.8486 94.8627 61.4246 94.5491C61.0006 94.2355 60.8983 93.6557 61.2126 93.2327C61.5269 92.8097 62.1081 92.7076 62.5321 93.0212C62.9524 93.3384 63.0584 93.9146 62.7441 94.3376Z" fill="#204E62"/>
<path d="M62.6235 117.256C62.3055 117.675 61.728 117.781 61.304 117.468C60.88 117.154 60.7777 116.574 61.092 116.151C61.4063 115.728 61.9875 115.626 62.4115 115.94C62.8318 116.257 62.9378 116.833 62.6235 117.256Z" fill="#204E62"/>
<path d="M58.4205 111.764C57.6493 112.789 56.2385 113.044 55.215 112.275C54.1879 111.506 53.9321 110.098 54.7033 109.077C55.4745 108.052 56.8854 107.797 57.9088 108.566C58.9359 109.336 59.1918 110.743 58.4205 111.764Z" fill="#204E62"/>
<path d="M19.9285 90.3191C19.2706 91.1906 18.0681 91.4094 17.1945 90.7567C16.3209 90.1003 16.1016 88.9006 16.7559 88.0291C17.4102 87.1576 18.6163 86.9388 19.4899 87.5915C20.3635 88.2479 20.5828 89.4476 19.9285 90.3191Z" fill="#204E62"/>
<path d="M26.369 122.617C25.744 123.448 24.5999 123.652 23.7702 123.032C22.9368 122.409 22.7322 121.267 23.3535 120.44C23.9749 119.612 25.1226 119.404 25.9523 120.024C26.7857 120.647 26.9904 121.789 26.369 122.617Z" fill="#204E62"/>
<path d="M18.3312 118.405C17.9912 118.857 17.3699 118.97 16.9203 118.631C16.4707 118.292 16.3538 117.672 16.6937 117.223C17.0336 116.775 17.655 116.658 18.1046 116.997C18.5578 117.336 18.6711 117.956 18.3312 118.405Z" fill="#204E62"/>
<path d="M51.2526 107.593C50.9126 108.045 50.2913 108.158 49.8417 107.819C49.3921 107.48 49.2751 106.86 49.6151 106.411C49.955 105.963 50.5764 105.846 51.0259 106.185C51.4792 106.524 51.5925 107.144 51.2526 107.593Z" fill="#204E62"/>
<path d="M24.786 86.1584C24.2926 86.8148 23.3861 86.9789 22.7282 86.4866C22.0703 85.9943 21.9058 85.09 22.3992 84.4336C22.8926 83.7772 23.7991 83.6131 24.457 84.1054C25.1149 84.5977 25.2794 85.502 24.786 86.1584Z" fill="#204E62"/>
<path d="M20.4108 55.1482C19.7529 56.027 18.543 56.2458 17.6622 55.5858C16.7813 54.9294 16.562 53.7224 17.2235 52.8436C17.8851 51.9648 19.0913 51.746 19.9722 52.406C20.8531 53.0624 21.0724 54.2694 20.4108 55.1482Z" fill="#204E62"/>
<path d="M85.223 82.2238C84.7588 82.84 83.9108 82.9932 83.2931 82.5301C82.6754 82.067 82.5219 81.221 82.9824 80.6047C83.4429 79.9884 84.2946 79.8353 84.9123 80.2984C85.53 80.7615 85.6835 81.6075 85.223 82.2238Z" fill="#204E62"/>
<path d="M90.2271 85.987C89.9164 86.3991 89.3462 86.5048 88.9331 86.1949C88.5201 85.8849 88.4141 85.316 88.7248 84.904C89.0355 84.4919 89.6057 84.3862 90.0187 84.6961C90.4317 85.0061 90.5377 85.5749 90.2271 85.987Z" fill="#204E62"/>
<path d="M62.8501 83.7772C62.5394 84.1893 61.9692 84.295 61.5562 83.9851C61.1432 83.6751 61.0372 83.1063 61.3479 82.6942C61.6585 82.2821 62.2287 82.1764 62.6418 82.4863C63.0548 82.7963 63.1608 83.3652 62.8501 83.7772Z" fill="#204E62"/>
<path d="M19.5156 82.7087C19.1282 83.2265 18.4154 83.3542 17.9 82.9676C17.3847 82.5811 17.2531 81.87 17.6405 81.3559C18.028 80.8381 18.7407 80.7104 19.2561 81.097C19.7751 81.4835 19.903 82.1946 19.5156 82.7087Z" fill="#204E62"/>
<path d="M58.7712 32.8641C58.095 33.7648 56.8522 33.9909 55.9494 33.3127C55.0466 32.6381 54.82 31.3982 55.4962 30.4975C56.1724 29.5968 57.4151 29.3708 58.3179 30.049C59.2207 30.7236 59.4474 31.9634 58.7712 32.8641Z" fill="#204E62"/>
<path d="M148.047 69.5447C147.513 70.347 146.351 70.522 145.55 69.9896C144.746 69.4572 144.571 68.2976 145.104 67.499C145.638 66.6968 146.8 66.5217 147.601 67.0541C148.401 67.5865 148.58 68.7461 148.047 69.5447Z" fill="#204E62"/>
<path d="M62.8469 127.208C62.9894 127.773 62.6349 128.334 62.0683 128.404C61.5018 128.546 60.9389 128.192 60.8694 127.627C60.7269 127.062 61.0814 126.5 61.648 126.431C62.2145 126.362 62.708 126.642 62.8469 127.208Z" fill="#204E62"/>
<path d="M84.9675 114.838C85.11 115.404 84.7555 115.965 84.1889 116.035C83.6224 116.177 83.0595 115.823 82.9901 115.258C82.8475 114.693 83.202 114.131 83.7686 114.062C84.3351 113.992 84.8286 114.273 84.9675 114.838Z" fill="#204E62"/>
<path d="M26.924 65.1024C26.9801 65.8083 26.5439 66.383 25.8396 66.433C25.1354 66.4892 24.562 66.052 24.5122 65.3461C24.4561 64.6402 24.8923 64.0655 25.5966 64.0155C26.3008 63.9655 26.868 64.3965 26.924 65.1024Z" fill="#74B2DB"/>
<path d="M112.311 103.581C112.168 103.862 111.887 103.862 111.744 103.862C111.463 103.719 111.463 103.438 111.463 103.294C111.607 103.013 111.887 103.013 112.031 103.013C112.311 103.013 112.311 103.294 112.311 103.581Z" fill="#74B2DB"/>
<path d="M54.892 37.7397C55.3157 38.0208 55.4591 38.7267 55.1724 39.2952C54.892 39.72 54.1877 39.8637 53.6206 39.5763C53.0534 39.2889 53.0534 38.5893 53.3401 38.0208C53.6206 37.596 54.3248 37.4524 54.892 37.7397Z" fill="#74B2DB"/>
<path d="M51.5534 43.0525C51.9522 43.0774 52.3262 43.5022 52.3012 43.902C52.2763 44.3018 51.8525 44.6766 51.4536 44.6516C51.0548 44.6267 50.6808 44.2019 50.7058 43.8021C50.7307 43.4023 51.1545 43.0275 51.5534 43.0525Z" fill="#74B2DB"/>
<path d="M114.385 72.2887C114.098 72.576 113.805 72.8696 113.232 72.576C112.945 72.2887 112.652 71.9951 112.945 71.4141C113.232 71.1268 113.525 70.8332 114.098 71.1268C114.672 71.4204 114.678 71.9951 114.385 72.2887Z" fill="#74B2DB"/>
<path d="M73.9198 34.1805C74.3747 34.4866 74.5243 35.1675 74.1504 35.6236C73.7764 36.0796 73.1657 36.2295 72.7107 35.8547C72.2558 35.5486 72.1062 34.8677 72.4801 34.4117C72.7855 33.9557 73.4648 33.8807 73.9198 34.1805Z" fill="#74B2DB"/>
<path d="M52.865 92.394C53.7126 92.9624 53.8497 94.0931 53.2888 94.9365C52.7216 95.786 51.5936 95.9235 50.7522 95.3612C49.9047 94.7928 49.7675 93.6621 50.3285 92.8188C50.8956 91.9692 52.0236 91.8318 52.865 92.394Z" fill="#74B2DB"/>
<path d="M177.649 122.13C178.216 122.555 178.354 123.405 177.93 123.967C177.506 124.529 176.658 124.673 176.097 124.248C175.53 123.823 175.393 122.974 175.817 122.411C176.241 121.849 177.088 121.706 177.649 122.13Z" fill="#74B2DB"/>
<path d="M118.581 122.977C118.73 123.258 118.481 123.601 118.2 123.751C117.92 123.901 117.577 123.651 117.428 123.37C117.278 123.089 117.527 122.745 117.808 122.596C118.2 122.533 118.431 122.696 118.581 122.977Z" fill="#74B2DB"/>
<path d="M126.869 127.881C127.081 128.555 126.701 129.33 126.028 129.542C125.355 129.755 124.588 129.374 124.37 128.699C124.158 128.024 124.539 127.25 125.212 127.037C125.885 126.825 126.539 127.118 126.869 127.881Z" fill="#74B2DB"/>
<path d="M127.871 89.8924C128.301 90.2173 128.407 90.8607 128.083 91.2917C127.759 91.7228 127.117 91.829 126.687 91.5041C126.257 91.1793 126.151 90.5359 126.475 90.1048C126.799 89.6738 127.441 89.5676 127.871 89.8924Z" fill="#74B2DB"/>
<path d="M168.493 48.8382L168.07 46.9954L166.237 47.4202L167.652 46.152L166.237 44.734L168.07 45.3025L168.637 43.4659L169.061 45.3025L170.893 44.8777L169.484 46.152L170.893 47.5638L169.061 46.9954L168.493 48.8382Z" fill="#74B2DB"/>
<path d="M86.8167 137.794L85.24 136.301L83.8315 137.969L84.274 135.857L82.1675 135.42L84.1867 134.801L83.5697 132.696L85.1465 134.189L86.555 132.603L86.1125 134.714L88.219 135.07L86.1125 135.77L86.8167 137.794Z" fill="#74B2DB"/>
<path d="M168.986 108.989L168.15 107.434L166.48 108.389L167.434 106.715L165.882 105.878L167.671 105.878L167.671 103.967L168.624 105.641L170.176 104.685L169.222 106.24L170.893 107.196L168.986 107.196L168.986 108.989Z" fill="#74B2DB"/>
<path d="M159.851 47.7433C160.792 47.5059 161.739 48.0994 161.851 49.0427C161.964 49.9859 161.496 50.9355 160.555 51.0479C159.614 51.2853 158.667 50.6918 158.555 49.7486C158.436 48.8053 158.91 47.9745 159.851 47.7433Z" fill="#74B2DB"/>
<path d="M153.448 43.1411C153.729 43.2848 153.729 43.7096 153.592 43.9907C153.448 44.2718 153.025 44.2718 152.744 44.1344C152.464 43.9907 152.464 43.5659 152.601 43.2848C152.744 43.0037 153.168 43.0037 153.448 43.1411Z" fill="#74B2DB"/>
<path d="M45.3971 87.736C45.7898 87.9359 45.7898 88.5231 45.5966 88.9167C45.3971 89.3102 44.8113 89.3102 44.4187 89.1166C44.026 88.9167 44.026 88.3295 44.2192 87.9359C44.4187 87.5424 45.0045 87.5424 45.3971 87.736Z" fill="#74B2DB"/>
<path d="M143.538 86.9226C143.962 87.2037 144.106 87.7722 143.819 88.197C143.538 88.6218 142.971 88.7654 142.548 88.4781C142.124 88.197 141.98 87.6285 142.267 87.2037C142.554 86.7789 143.115 86.6353 143.538 86.9226Z" fill="#74B2DB"/>
<path d="M125.856 45.8289C126.28 46.11 126.423 46.6785 126.137 47.1033C125.85 47.5281 125.289 47.6718 124.865 47.3844C124.442 47.1033 124.298 46.5348 124.585 46.11C124.872 45.6852 125.433 45.5416 125.856 45.8289Z" fill="#74B2DB"/>
<path d="M158.429 131.19C159.277 131.758 159.557 133.026 158.853 133.876C158.286 134.725 157.021 135.006 156.173 134.3C155.326 133.732 155.045 132.464 155.75 131.614C156.454 130.765 157.582 130.484 158.429 131.19Z" fill="#74B2DB"/>
<path d="M140.115 117.835C140.533 118.147 140.639 118.672 140.321 119.197C140.003 119.722 139.486 119.722 138.962 119.403C138.545 119.091 138.439 118.566 138.756 118.041C139.068 117.623 139.698 117.516 140.115 117.835Z" fill="#74B2DB"/>
<path d="M101.124 38.712C102.09 38.4683 103.05 39.0743 103.169 40.0426C103.412 41.0108 102.807 41.9728 101.841 42.0915C100.875 42.3351 99.9154 41.7292 99.797 40.7609C99.6786 39.7927 100.158 38.9494 101.124 38.712Z" fill="#74B2DB"/>
<path d="M118.956 102.126C120.085 101.845 121.213 102.551 121.356 103.682C121.499 104.813 120.932 105.943 119.804 106.087C118.676 106.368 117.548 105.662 117.405 104.531C117.261 103.401 117.828 102.408 118.956 102.126Z" fill="#74B2DB"/>
<path d="M129.359 49.4819C129.926 49.9067 130.064 50.7563 129.64 51.3185C129.216 51.8807 128.368 52.0244 127.807 51.5996C127.24 51.1748 127.103 50.3252 127.527 49.763C127.951 49.2008 128.798 49.1946 129.359 49.4819Z" fill="#74B2DB"/>
<path d="M73.8398 135.54C74.3758 135.896 74.5566 136.702 74.1078 137.239C73.6591 137.777 72.9486 137.958 72.4127 137.508C71.8767 137.152 71.696 136.346 72.1447 135.809C72.5934 135.272 73.3039 135.09 73.8398 135.54Z" fill="#74B2DB"/>
<path d="M33.5031 105.045C34.3507 105.613 34.6311 106.881 33.9269 107.731C33.3598 108.581 32.0946 108.862 31.247 108.156C30.3995 107.587 30.119 106.319 30.8232 105.47C31.3904 104.62 32.6555 104.339 33.5031 105.045Z" fill="#74B2DB"/>
<path d="M23.088 128.64C23.6052 128.984 23.7797 129.765 23.3497 130.283C22.9197 130.802 22.2279 130.977 21.7106 130.546C21.1933 130.202 21.0188 129.421 21.4489 128.903C21.8789 128.384 22.5707 128.297 23.088 128.64Z" fill="#74B2DB"/>
<path d="M138.283 21.93C138.793 22.2724 138.962 23.0362 138.538 23.5479C138.197 24.0596 137.435 24.2289 136.924 23.8037C136.414 23.4614 136.245 22.6976 136.669 22.1859C137.01 21.7607 137.772 21.5914 138.283 21.93Z" fill="#74B2DB"/>
<path d="M113.952 62.993C114.799 63.5615 115.08 64.8296 114.376 65.6792C113.809 66.5287 112.543 66.8099 111.696 66.104C110.848 65.5355 110.568 64.2674 111.272 63.4178C111.839 62.5682 113.104 62.4308 113.952 62.993Z" fill="#74B2DB"/>
<path d="M80.6247 52.9458C81.4723 53.5143 81.7527 54.7824 81.0485 55.632C80.4814 56.4815 79.2162 56.7626 78.3686 56.0567C77.521 55.4883 77.2406 54.2202 77.9448 53.3706C78.512 52.6647 79.7771 52.3836 80.6247 52.9458Z" fill="#74B2DB"/>
<path d="M16.068 134.114C16.3859 134.327 16.4918 134.802 16.2238 135.12C15.9559 135.439 15.5383 135.545 15.2204 135.276C14.9026 135.064 14.7967 134.589 15.0646 134.271C15.2765 133.952 15.7502 133.846 16.068 134.114Z" fill="#74B2DB"/>
<path d="M70.2852 29.35C70.8824 29.7505 71.08 30.644 70.5838 31.2426C70.0876 31.8411 69.2929 32.0392 68.6957 31.5418C68.0986 31.1413 67.901 30.2479 68.3971 29.6493C68.8933 29.0507 69.6881 28.8527 70.2852 29.35Z" fill="#74B2DB"/>
<path d="M38.9577 60.9988L38.1225 59.4433L36.4523 60.3991L37.4058 58.7249L35.854 57.8878L37.6489 57.8878L37.6489 55.97L38.6024 57.6442L40.1543 56.6884L39.2007 58.2439L40.871 59.1997L38.9577 59.1997L38.9577 60.9988Z" fill="#74B2DB"/>
<path d="M128.657 141.726L127.815 140.17L126.145 141.126L127.099 139.452L125.547 138.615L127.342 138.615L127.342 136.703L128.295 138.377L129.847 137.422L128.894 138.977L130.564 139.933L128.657 139.933L128.657 141.726Z" fill="#74B2DB"/>
<path d="M131.159 31.0045L130.324 29.449L128.647 30.4048L129.607 28.7306L128.055 27.8935L129.844 27.8935L129.844 25.9757L130.797 27.6561L132.349 26.6941L131.396 28.2496L133.066 29.2116L131.159 29.2116L131.159 31.0045Z" fill="#74B2DB"/>
<path d="M71.2194 56.4571L70.3843 54.9016L68.7078 55.8574L69.6676 54.1832L68.1157 53.3461L69.9044 53.3461L69.9044 51.4284L70.8579 53.1088L72.4097 52.1468L71.4562 53.7022L73.1265 54.6642L71.2194 54.6642L71.2194 56.4571Z" fill="#74B2DB"/>
<path d="M45.5065 126.557L44.6714 125.002L42.9949 125.957L43.9547 124.283L42.4028 123.446L44.1915 123.446L44.1915 121.528L45.145 123.203L46.6969 122.247L45.7433 123.802L47.4136 124.758L45.5065 124.758L45.5065 126.557Z" fill="#74B2DB"/>
<path d="M2.76836 128.673L4.95046 131.036L7.21662 128.808L6.2334 131.86L9.34754 132.736L6.18588 133.425L7.03386 136.532L4.85542 134.169L2.58926 136.397L3.49207 133.37L0.37793 132.495L3.53959 131.806L2.76836 128.673Z" fill="#FFA135"/>
<path d="M105.033 105.263L106.925 108.392L109.956 106.417L108.169 109.6L111.442 111.285L107.765 111.336L108.01 114.994L106.114 111.863L103.083 113.838L104.776 110.666L101.503 108.98L105.182 108.926L105.033 105.263Z" fill="#FFA135"/>
<path d="M82.5851 101.197L84.2278 103.804L86.7506 102.093L85.2946 104.802L88.0783 106.172L84.9812 106.272L85.2438 109.349L83.598 106.741L81.0752 108.452L82.4522 105.754L79.6685 104.384L82.7673 104.281L82.5851 101.197Z" fill="#FFA135"/>
<path d="M104.181 3.11891L107.676 6.77801L111.178 3.20077L109.719 8.03677L114.647 9.33256L109.695 10.504L111.122 15.3716L107.622 11.7107L104.12 15.2879L105.455 10.4956L100.528 9.19986L105.482 8.02295L104.181 3.11891Z" fill="#FFA135"/>
<path d="M53.8881 68.5955L57.1183 72.4904L60.862 69.1671L59.068 73.8891L63.8927 75.5268L58.8707 76.3486L59.9538 81.3042L56.7183 77.4071L52.9746 80.7303L54.6422 76.0433L49.8175 74.4057L54.8417 73.5786L53.8881 68.5955Z" fill="#FFA135"/>
<path d="M149.805 105.863L152.395 108.399L154.816 105.754L153.887 109.251L157.445 110.061L153.928 111.018L155.066 114.468L152.473 111.931L150.052 114.575L150.893 111.113L147.335 110.303L150.853 109.342L149.805 105.863Z" fill="#FFA135"/>
<path d="M202.814 28.1172L206.764 31.28L209.76 27.2697L208.956 32.2565L214.012 32.8868L209.259 34.7052L211.32 39.3402L207.365 36.1763L204.369 40.1867L205.056 35.2596L200 34.6293L204.754 32.8053L202.814 28.1172Z" fill="#FFA135"/>
</svg>
