<svg width="220" height="160" viewBox="0 0 202 160" fill="none" xmlns="http://www.w3.org/2000/svg">
<circle cx="102.246" cy="79.7959" r="79.2171" fill="#F2F9FA"/>
<path d="M129.549 84.8914L136.316 62.9207L137.826 50.172L145.837 41.186" stroke="#204E62" stroke-miterlimit="10"/>
<path d="M157.623 35.9332L171.156 37.4383L184.689 52.4297L186.185 64.411L184.941 75.1529" stroke="#204E62" stroke-miterlimit="10"/>
<path d="M183.431 82.8994L179.181 99.1303" stroke="#204E62" stroke-miterlimit="10"/>
<path d="M165.144 100.134L170.904 82.8995L174.413 64.411L171.408 53.1675L161.132 47.6785L152.603 51.1755L148.339 61.4157" stroke="#204E62" stroke-miterlimit="10"/>
<path d="M146.844 72.91L144.341 83.1502L138.818 94.3791" stroke="#204E62" stroke-miterlimit="10"/>
<path d="M160.628 60.6631L160.125 72.1575L156.364 87.1342L148.339 103.881" stroke="#204E62" stroke-miterlimit="10"/>
<path d="M98.0998 33.0264V78.7089L97.241 135.487H26.9243V33.2625C27.2797 32.805 98.0998 33.0116 98.0998 33.0116V33.0264Z" stroke="#204E62" stroke-miterlimit="10"/>
<path d="M20.0098 47.7374H87.2171" stroke="#204E62" stroke-miterlimit="10"/>
<path d="M37.8076 67.0964H87.2173" stroke="#204E62" stroke-miterlimit="10"/>
<path d="M37.4521 86.9719H86.8619" stroke="#204E62" stroke-miterlimit="10"/>
<path d="M37.4521 106.316H86.8618L6.01758 145.447" stroke="#204E62" stroke-miterlimit="10"/>
<path d="M86.9653 66.58L114.757 88.6393L122.783 66.1669L126.543 43.9306L147.095 25.9438L172.4 24.9552L191.959 38.4416L198.474 57.6678L192.714 96.6367" stroke="#204E62" stroke-miterlimit="10"/>
<path d="M96.1756 34.1182C95.2428 33.469 95.0206 32.2 95.6721 31.2704C96.3236 30.3408 97.597 30.1195 98.5298 30.7687C99.4626 31.418 99.6847 32.6869 99.0332 33.6165C98.3818 34.5461 97.1084 34.7674 96.1756 34.1182Z" fill="#204E62"/>
<path d="M178.47 100.783C177.612 100.193 177.404 99.0122 177.997 98.1564C178.589 97.3006 179.773 97.094 180.632 97.6842C181.491 98.2744 181.698 99.4548 181.106 100.311C180.514 101.166 179.329 101.373 178.47 100.783Z" fill="#204E62"/>
<path d="M197.408 59.158C196.298 58.3907 196.031 56.8709 196.801 55.7643C197.571 54.6576 199.096 54.392 200.207 55.1593C201.317 55.9266 201.584 57.4464 200.814 58.553C200.044 59.6597 198.519 59.9253 197.408 59.158Z" fill="#204E62"/>
<path d="M128.543 86.1161C127.921 85.6882 127.773 84.8324 128.202 84.2274C128.632 83.6077 129.49 83.4601 130.097 83.888C130.719 84.3159 130.867 85.1718 130.438 85.7767C130.009 86.3964 129.15 86.544 128.543 86.1161Z" fill="#204E62"/>
<path d="M86.6842 42.7501L88.4165 45.7455L91.3779 43.9453L89.6455 46.9406L92.6809 48.608L89.2161 48.5932L89.2901 52.0607L87.5578 49.0654L84.5816 50.8508L86.3288 47.8555L83.2935 46.1881L86.7582 46.2029L86.6842 42.7501Z" fill="#FFA135"/>
<path d="M183.209 80.3319L183.653 82.3091L185.622 81.8074L184.141 83.1944L185.548 84.6405L183.608 84.0503L183.061 85.998L182.602 84.0207L180.632 84.5224L182.128 83.1354L180.706 81.6894L182.646 82.2796L183.209 80.3319Z" fill="#204E62"/>
<path d="M2.553 141.331L5.233 143.795L7.63167 141.065L6.83211 144.606L10.4153 145.329L6.93576 146.406L8.09068 149.844L5.42548 147.38L3.012 150.095L3.81156 146.569L0.243164 145.846L3.72272 144.769L2.553 141.331Z" fill="#FFA135"/>
<path d="M95.2127 130.264L97.1524 133.628L100.484 131.607L98.5294 134.971L101.935 136.845L98.0408 136.83L98.1296 140.711L96.1899 137.347L92.8584 139.353L94.8129 136.004L91.3926 134.13L95.2867 134.145L95.2127 130.264Z" fill="#FFA135"/>
<path d="M84.0929 58.8777L86.61 63.983L91.6739 61.3566L88.4905 66.0931L93.3174 69.1474L87.6169 68.7638L87.3652 74.4593L84.848 69.3392L79.7842 71.9804L82.9528 67.244L78.1406 64.1896L83.8412 64.5732L84.0929 58.8777Z" fill="#FFA135"/>
<path d="M38.4444 107.806C37.2747 108.057 36.1346 107.305 35.8829 106.139C35.6312 104.973 36.3863 103.837 37.556 103.586C38.7258 103.335 39.8659 104.088 40.1176 105.254C40.3693 106.419 39.6142 107.556 38.4444 107.806Z" fill="#204E62"/>
<path d="M84.4485 88.831C83.5157 88.1817 83.2936 86.9128 83.9451 85.9832C84.5966 85.0536 85.87 84.8323 86.8028 85.4815C87.7356 86.1308 87.9577 87.3997 87.3062 88.3293C86.6547 89.2589 85.3813 89.4802 84.4485 88.831Z" fill="#204E62"/>
<path d="M124.471 46.2471C123.538 45.5979 123.316 44.3289 123.968 43.3993C124.619 42.4697 125.892 42.2484 126.825 42.8977C127.758 43.5469 127.98 44.8158 127.329 45.7454C126.677 46.675 125.404 46.8964 124.471 46.2471Z" fill="#204E62"/>
<path d="M86.8029 25.87C86.2106 25.4568 86.0625 24.6453 86.4771 24.0551C86.8917 23.4648 87.7061 23.3173 88.2983 23.7304C88.8906 24.1436 89.0387 24.9551 88.6241 25.5454C88.2095 26.1356 87.3951 26.2831 86.8029 25.87Z" fill="#74B3DB"/>
<path d="M83.59 149.18C83.6936 148.944 83.9749 148.826 84.2118 148.93C84.4487 149.033 84.5672 149.313 84.4636 149.549C84.3599 149.785 84.0786 149.903 83.8417 149.8C83.6048 149.697 83.4863 149.416 83.59 149.18Z" fill="#74B3DB"/>
<path d="M176.575 112.528C176.057 112.174 175.938 111.466 176.294 110.949C176.649 110.433 177.36 110.315 177.878 110.669C178.396 111.023 178.515 111.731 178.159 112.248C177.804 112.764 177.093 112.882 176.575 112.528Z" fill="#74B3DB"/>
<path d="M78.3777 25.5305C78.0667 25.8552 77.5485 25.8552 77.2228 25.5453C76.897 25.2354 76.897 24.719 77.2079 24.3944C77.5189 24.0698 78.0371 24.0698 78.3629 24.3796C78.6886 24.6895 78.6886 25.2059 78.3777 25.5305Z" fill="#74B3DB"/>
<path d="M163.916 124.2C164.005 123.993 164.242 123.904 164.449 123.978C164.656 124.067 164.745 124.303 164.671 124.509C164.582 124.716 164.345 124.805 164.138 124.731C163.931 124.642 163.842 124.406 163.916 124.2Z" fill="#74B3DB"/>
<path d="M123.375 111.997C123.109 111.805 123.049 111.451 123.227 111.185C123.42 110.92 123.775 110.861 124.041 111.038C124.308 111.23 124.367 111.584 124.189 111.849C123.997 112.115 123.642 112.174 123.375 111.997Z" fill="#74B3DB"/>
<path d="M83.1159 142.688C82.494 142.26 82.346 141.404 82.7754 140.799C83.2047 140.18 84.0635 140.032 84.6706 140.46C85.2925 140.888 85.4405 141.744 85.0112 142.349C84.5818 142.968 83.723 143.116 83.1159 142.688Z" fill="#74B3DB"/>
<path d="M113.381 112.823C112.759 112.395 112.611 111.54 113.04 110.935C113.469 110.315 114.328 110.167 114.935 110.595C115.557 111.023 115.705 111.879 115.276 112.484C114.846 113.104 113.988 113.251 113.381 112.823Z" fill="#74B3DB"/>
<path d="M139.322 15.0248L140.462 17.002L142.416 15.8216L141.262 17.784L143.275 18.8907L140.98 18.8759L141.025 21.163L139.885 19.1858L137.93 20.3662L139.085 18.389L137.071 17.2971H139.366L139.322 15.0248Z" fill="#74B3DB"/>
<path d="M121.199 124.354L122.339 126.332L124.293 125.151L123.139 127.114L125.152 128.22L122.857 128.206L122.902 130.493L121.761 128.515L119.807 129.696L120.962 127.719L118.948 126.627H121.243L121.199 124.354Z" fill="#74B3DB"/>
<path d="M51.9186 148.443C51.6521 148.251 51.5928 147.897 51.7705 147.631C51.963 147.365 52.3184 147.306 52.5849 147.484C52.8514 147.675 52.9106 148.029 52.7329 148.295C52.5405 148.561 52.1851 148.62 51.9186 148.443Z" fill="#74B3DB"/>
<path d="M128.928 16.1757C128.661 15.9838 128.602 15.6297 128.78 15.3641C128.972 15.0985 129.328 15.0395 129.594 15.2166C129.861 15.4084 129.92 15.7625 129.742 16.0281C129.55 16.2937 129.194 16.3527 128.928 16.1757Z" fill="#74B3DB"/>
<path d="M22.9714 119.315C22.5124 118.991 22.4087 118.371 22.7197 117.914C23.0454 117.456 23.6673 117.353 24.1263 117.663C24.5853 117.988 24.6889 118.607 24.378 119.065C24.0523 119.522 23.4304 119.625 22.9714 119.315Z" fill="#74B3DB"/>
<path d="M15.7458 63.378C15.2868 63.0534 15.1831 62.4337 15.4941 61.9762C15.8198 61.5188 16.4417 61.4155 16.9007 61.7254C17.3597 62.05 17.4634 62.6697 17.1524 63.1272C16.8267 63.5846 16.2048 63.6879 15.7458 63.378Z" fill="#74B3DB"/>
<path d="M109.176 43.5026C108.569 43.0895 108.421 42.2484 108.85 41.6582C109.265 41.0532 110.109 40.9057 110.701 41.3336C111.308 41.7467 111.456 42.5878 111.027 43.178C110.612 43.783 109.768 43.9305 109.176 43.5026Z" fill="#74B3DB"/>
<path d="M142.835 36.6453L146.1 38.2331L147.643 34.9446L147.882 38.5672L151.504 38.2333L148.474 40.2539L150.557 43.2226L147.306 41.6306L145.763 44.9191L145.524 41.2965L141.902 41.6304L144.932 39.6098L142.835 36.6453Z" fill="#FFA135"/>
<path d="M144.297 99.5582L146.962 102.022L149.375 99.2926L148.576 102.834L152.144 103.557L148.665 104.634L149.834 108.072L147.154 105.608L144.741 108.338L145.541 104.796L141.972 104.073L145.452 102.996L144.297 99.5582Z" fill="#FFA135"/>
<path d="M190.938 92.4314L193.618 94.8955L196.031 92.1658L195.217 95.7071L198.8 96.4301L195.321 97.5072L196.475 100.945L193.81 98.4811L191.397 101.211L192.196 97.6695L188.628 96.9465L192.107 95.8694L190.938 92.4314Z" fill="#FFA135"/>
<path d="M27.6944 34.6494C26.5247 34.9002 25.3846 34.1477 25.1329 32.982C24.8812 31.8164 25.6363 30.6802 26.806 30.4294C27.9758 30.1785 29.1159 30.931 29.3676 32.0967C29.6193 33.2624 28.8642 34.3985 27.6944 34.6494Z" fill="#204E62"/>
<path d="M18.7364 49.995C17.5667 50.2458 16.4266 49.4933 16.1749 48.3276C15.9232 47.1619 16.6783 46.0258 17.848 45.7749C19.0178 45.5241 20.1579 46.2766 20.4096 47.4423C20.6613 48.608 19.9062 49.7441 18.7364 49.995Z" fill="#204E62"/>
<path d="M37.6447 87.8572C37.0228 87.4293 36.8748 86.5735 37.3042 85.9685C37.7336 85.3488 38.5923 85.2012 39.1994 85.6291C39.8213 86.057 39.9694 86.9128 39.54 87.5178C39.1106 88.1375 38.2518 88.2851 37.6447 87.8572Z" fill="#204E62"/>
<path d="M37.8963 68.4834C36.9635 67.8342 36.7414 66.5652 37.3928 65.6357C38.0443 64.7061 39.3177 64.4847 40.2505 65.134C41.1833 65.7832 41.4054 67.0522 40.7539 67.9818C40.1025 68.9113 38.8291 69.1327 37.8963 68.4834Z" fill="#204E62"/>
<path d="M147.495 63.4814C146.562 62.8321 146.34 61.5632 146.991 60.6336C147.643 59.704 148.916 59.4827 149.849 60.1319C150.782 60.7811 151.004 62.0501 150.353 62.9797C149.701 63.9093 148.428 64.1306 147.495 63.4814Z" fill="#204E62"/>
<path d="M145.703 74.9019C144.771 74.2527 144.548 72.9837 145.2 72.0541C145.851 71.1245 147.125 70.9032 148.058 71.5524C148.99 72.2017 149.213 73.4706 148.561 74.4002C147.91 75.3298 146.636 75.5511 145.703 74.9019Z" fill="#204E62"/>
<path d="M85.0257 108.47C83.6931 107.541 83.3674 105.711 84.3002 104.383C85.233 103.055 87.069 102.731 88.4016 103.66C89.7342 104.59 90.06 106.419 89.1271 107.747C88.1943 109.075 86.3583 109.4 85.0257 108.47Z" fill="#204E62"/>
<path d="M113.218 90.882C111.885 89.9524 111.559 88.1228 112.492 86.7948C113.425 85.4668 115.261 85.1422 116.594 86.0718C117.926 87.0014 118.252 88.831 117.319 90.159C116.386 91.487 114.55 91.8116 113.218 90.882Z" fill="#204E62"/>
<path d="M156.335 37.5267C155.402 36.8774 155.18 35.6085 155.831 34.6789C156.483 33.7493 157.756 33.528 158.689 34.1772C159.622 34.8264 159.844 36.0954 159.192 37.025C158.541 37.9546 157.268 38.1759 156.335 37.5267Z" fill="#204E62"/>
<path d="M172.96 66.7447C172.06 66.1136 171.838 64.8848 172.46 63.977C173.093 63.0803 174.326 62.8589 175.237 63.4788C176.137 64.1099 176.359 65.3387 175.737 66.2465C175.104 67.1432 173.871 67.3646 172.96 66.7447Z" fill="#204E62"/>
<path d="M137.486 95.8693C136.287 95.0282 135.99 93.3904 136.82 92.1804C137.664 90.9853 139.307 90.6902 140.521 91.5165C141.721 92.3575 142.017 93.9954 141.188 95.2053C140.344 96.4005 138.7 96.6956 137.486 95.8693Z" fill="#204E62"/>
<path d="M164.676 100.893C163.861 100.321 163.66 99.2085 164.223 98.3866C164.796 97.5746 165.913 97.3741 166.738 97.9355C167.553 98.5068 167.754 99.6195 167.19 100.441C166.617 101.253 165.501 101.454 164.676 100.893Z" fill="#204E62"/>
<path d="M183.859 53.5709C183.087 53.0295 182.896 51.9753 183.43 51.1965C183.973 50.4272 185.031 50.2373 185.813 50.7691C186.585 51.3105 186.775 52.3647 186.241 53.1435C185.698 53.9128 184.64 54.1027 183.859 53.5709Z" fill="#204E62"/>
<path d="M183.52 75.7578C182.32 74.9168 182.024 73.2789 182.853 72.069C183.697 70.8738 185.341 70.5787 186.555 71.405C187.754 72.2461 188.05 73.8839 187.221 75.0938C186.377 76.289 184.734 76.5841 183.52 75.7578Z" fill="#204E62"/>
<path d="M170.593 26.711C169.394 25.8699 169.098 24.2321 169.927 23.0221C170.771 21.8269 172.415 21.5318 173.629 22.3581C174.828 23.1992 175.124 24.837 174.295 26.047C173.451 27.2421 171.807 27.5373 170.593 26.711Z" fill="#204E62"/>
<path d="M120.828 67.8637C119.896 67.2145 119.673 65.9455 120.325 65.0159C120.976 64.0863 122.25 63.865 123.183 64.5142C124.115 65.1635 124.338 66.4324 123.686 67.362C123.035 68.2916 121.761 68.5129 120.828 67.8637Z" fill="#204E62"/>
<path d="M191.293 40.3302C190.36 39.681 190.138 38.4121 190.79 37.4825C191.441 36.5529 192.715 36.3315 193.647 36.9808C194.58 37.63 194.802 38.899 194.151 39.8286C193.499 40.7582 192.226 40.9795 191.293 40.3302Z" fill="#204E62"/>
<path d="M159.607 62.7436C158.674 62.0943 158.452 60.8254 159.103 59.8958C159.755 58.9662 161.028 58.7449 161.961 59.3941C162.894 60.0433 163.116 61.3123 162.464 62.2419C161.813 63.1715 160.54 63.3928 159.607 62.7436Z" fill="#204E62"/>
<path d="M160.673 49.331C159.74 48.6817 159.518 47.4128 160.17 46.4832C160.821 45.5536 162.095 45.3323 163.027 45.9815C163.96 46.6308 164.182 47.8997 163.531 48.8293C162.879 49.7589 161.606 49.9802 160.673 49.331Z" fill="#204E62"/>
<path d="M9.29097 68.5721C8.58033 68.0775 8.41112 67.1107 8.90745 66.4025C9.40377 65.6944 10.3739 65.5257 11.0845 66.0204C11.7952 66.515 11.9644 67.4817 11.468 68.1899C10.9717 68.8981 10.0016 69.0667 9.29097 68.5721Z" fill="#74B3DB"/>
<path d="M18.8329 125.51C18.1431 125.029 17.9789 124.091 18.4606 123.404C18.9424 122.716 19.884 122.553 20.5737 123.033C21.2635 123.513 21.4277 124.451 20.946 125.139C20.4643 125.826 19.5227 125.99 18.8329 125.51Z" fill="#74B3DB"/>
</svg>
