<svg fill="none" height="124" viewBox="0 0 102 124" width="102" xmlns="http://www.w3.org/2000/svg" xmlns:xlink="http://www.w3.org/1999/xlink"><mask id="a" height="124" maskUnits="userSpaceOnUse" width="102" x="0" y="0"><path d="m0 0h102v124h-102z" fill="#d9d9d9"/></mask><g mask="url(#a)"><path d="m32.2454 108.046c.2137-.888 1.1211-1.409 2.0104-1.197.8894.212 1.4102 1.117 1.1965 2.005s-1.1211 1.41-2.0104 1.198c-.8658-.265-1.4248-1.156-1.1965-2.006z" fill="#fff"/><path d="m61.7801 22.1424c.345-1.4398 1.8156-2.2782 3.2571-1.9358 1.4416.3424 2.2793 1.8094 1.9342 3.2491-.345 1.4398-1.8156 2.2782-3.2571 1.9358-1.4023-.4301-2.3035-1.8728-1.9342-3.2491z" fill="#fff"/><path d="m84.8895 40.4566c.345-1.4398 1.8156-2.2782 3.2571-1.9358 1.4416.3424 2.2792 1.8094 1.9342 3.2491-.345 1.4398-1.8156 2.2782-3.2571 1.9358-1.4023-.4301-2.3035-1.8728-1.9342-3.2491z" fill="#fff"/><path d="m39.1479 43.2719c.3936 1.0292 1.5487 1.5438 2.5802 1.1494 1.0314-.3944 1.5485-1.5485 1.1549-2.5777-.3935-1.0292-1.5487-1.5438-2.5802-1.1494-1.0314.3944-1.5485 1.5485-1.1549 2.5777z" fill="#fff"/><path d="m47.9529 72.1421c-1.0751-.2791-1.6893-1.352-1.4693-2.3952.2811-1.0738 1.3566-1.6885 2.4012-1.4704 1.0751.2791 1.6892 1.352 1.4693 2.3952-.2811 1.0738-1.3349 1.7456-2.4012 1.4704z" fill="#97bcd1"/><path d="m47.4376 108.115c-1.0228.391-2.19-.129-2.5802-1.15-.3903-1.02.1322-2.186 1.1549-2.578 1.0227-.391 2.19.129 2.5802 1.15.3903 1.02-.1322 2.186-1.1549 2.578z" fill="#fff"/><path d="m39.1587 92.063c-1.0227.3911-2.1899-.1289-2.5802-1.1494-.3902-1.0205.1323-2.1866 1.155-2.5777s2.19.1289 2.5802 1.1494-.1322 2.1866-1.155 2.5777z" fill="#fff"/><path d="m90.5513 61.9263-.6686 2.3263 2.3064.5857-2.3242.6054.6451 2.2963-1.6493-1.7234-1.6758 1.6726.6387-2.2714-2.3122-.6197 2.3324-.565-.6388-2.2987 1.6493 1.7234z" fill="#97bcd1"/><path d="m28.7485 57.9749-1.8998 1.27 1.318 1.8419-2.0506-.9838-.947 2.0672-.1592-2.2908-2.2718.2222 1.9048-1.272-1.3313-1.8768 2.059 1.0207.9519-2.0691.1478 2.2608z" fill="#97bcd1"/><path d="m79.058 17.9431-1.8997 1.2701 1.3179 1.8419-2.0506-.9839-.9469 2.0672-.1592-2.2907-2.2718.2221 1.9047-1.2719-1.3312-1.8769 2.0589 1.0207.952-2.0691.1477 2.2608z" fill="#97bcd1"/><path d="m26.0694 114.986.58 2.211 2.1714-.644-1.5996 1.616 1.6447 1.571-2.2172-.598-.5319 2.22-.5802-2.216-2.2087.646 1.6371-1.613-1.6448-1.576 2.1851.599z" fill="#97bcd1"/><path d="m65.4014 5.44925-1.0211 17.24645-22.6696 19.6035-2.9431 47.8645-31.97509 18.8603" stroke="#fff" stroke-miterlimit="10"/><path d="m53.5287 116.56-7.0115-10.738" stroke="#fff" stroke-miterlimit="10"/><g fill="#97bcd1"><path d="m87.9233 31.6531c-.7683-.2003-1.2144-.9669-1.0532-1.7261.2016-.7673.9702-1.2138 1.7303-1.054s1.2144.967 1.0532 1.7261c-.2017.7673-.9702 1.2138-1.7303 1.054z"/><path d="m54.0809 21.7135c-.8816-.2273-1.3812-1.1113-1.2065-1.9576.2289-.8804 1.1151-1.3805 1.9624-1.2073.8474.1732 1.3812 1.1113 1.2065 1.9576-.2289.8804-1.1151 1.3805-1.9624 1.2073z"/><path d="m17.3367 97.3562c-.4766-.1229-.7467-.6009-.6522-1.0584.1237-.476.6028-.7464 1.061-.6527.4581.0936.7467.6008.6522 1.0583-.1237.476-.6029.7464-1.061.6528z"/><path d="m53.7654 97.4918c-.4765-.1229-.7467-.6008-.6522-1.0584.1238-.476.6029-.7464 1.061-.6527.4581.0936.7467.6008.6522 1.0583-.1237.476-.6028.7464-1.061.6528z"/><path d="m99.7401 30.0333c-.4766-.1229-.7468-.6008-.6523-1.0584.1238-.476.6029-.7464 1.0612-.6527.458.0936.747.6008.652 1.0583-.124.476-.603.7464-1.0609.6528z"/></g><path d="m9.0829 104.218-1.03225 4.536 4.55785.894-4.4604 1.379 1.45342 4.334-3.36881-3.078-3.03364 3.434 1.03468-4.53-4.553933-.903 4.460393-1.379-1.45976-4.331 3.35886 3.147z" fill="#ffa135"/><path d="m59.8328 114.767-3.2356 3.192 3.3338 3.215-4.4887-1.19-1.0565 4.473-1.2009-4.416-4.4362 1.289 3.2534-3.278-3.3556-3.12 4.4582 1.129 1.1025-4.505 1.2353 4.468z" fill="#ffa135"/><path d="m70.7996 1.24905-2.4267 3.93591 3.9326 2.32508-4.5511-.13416-.0489 4.63232-2.2253-4.06778-3.9792 2.31358 2.4204-3.9335-3.9774-2.36607 4.6394.13671.0053-4.593859 2.1782 4.020429z" fill="#ffa135"/><path d="m41.1639 117.3c-.4766-.123-.7467-.601-.6523-1.059.1238-.476.6029-.746 1.061-.653.4581.094.7467.601.6523 1.059-.1238.476-.6029.746-1.061.653z" fill="#97bcd1"/><path d="m49.2757 44.2186c-.736-.1922-1.1531-.9208-.9994-1.6309.1936-.7351.9239-1.1525 1.6349-1.0001.7109.1524 1.1531.9208.9994 1.6308-.1936.7351-.9239 1.1526-1.6349 1.0002z" fill="#97bcd1"/><path d="m64.3799 22.6957 23.0641 18.4623-48.6768 49.0057 8.1737 16.4623-13.3405 1.672" stroke="#fff" stroke-miterlimit="10"/><path d="m54.6291 42.5323c-.3244-.0867-.5149-.4134-.4467-.7301.0873-.324.4148-.5147.7319-.447.3171.0676.5149.4134.4467.7301-.0873.324-.4148.5146-.7319.447z" fill="#97bcd1"/><path d="m53.3031 107.288c-.4854-.127-.7643-.608-.662-1.084.1277-.484.6108-.763 1.0864-.662.4757.101.7643.609.662 1.084-.1277.484-.6107.764-1.0864.662z" fill="#97bcd1"/></g></svg>