<svg fill="none" height="207" viewBox="0 0 165 207" width="165" xmlns="http://www.w3.org/2000/svg"><path d="m43.9385 133.616 72.4565-41.4866-40.6894-24.6917-72.70291 42.4903z" stroke="#0b2c41" stroke-miterlimit="10"/><path d="m117.096 135.906-.239-44.3767" stroke="#0b2c41" stroke-miterlimit="10"/><path d="m2.65576 109.8.42377 44.419 41.05137 23.474 93.8451-53.661" stroke="#0b2c41" stroke-miterlimit="10"/><path d="m43.8076 133.805.3858 63.453" stroke="#0b2c41" stroke-linejoin="round"/><path d="m69.2028 77.6231 67.9562-38.8979-38.1616-23.1656-68.1878 39.8496z" stroke="#0b2c41" stroke-miterlimit="10"/><path d="m137.591 39.1197.215 40.6555-68.4185 39.1898-38.5088-22.0171-.3929-41.6586-25.28731-15.5352" stroke="#0b2c41" stroke-miterlimit="10"/><path d="m69.0793 77.8032.3626 41.1788" stroke="#0b2c41" stroke-linejoin="round"/><path d="m136.974 39.1796 24.972-14.2748" stroke="#0b2c41" stroke-miterlimit="10"/><path d="m40.3096 191.188 3.6136 4.664 4.0912-4.056-1.8183 5.728 5.2778 1.937-5.455 1.166 1.1942 5.993-3.6135-4.664-4.1529 4.098 1.8414-5.838-5.2393-1.861 5.3857-1.132z" fill="#ffa135"/><path d="m135.002 32.0809 2.535 4.381 3.852-2.8721-2.119 4.5611 4.223 2.3148-4.7.2744.37 5.1784-2.535-4.3811-3.922 2.8893 2.165-4.6554-4.199-2.2463 4.638-.24z" fill="#ffa135"/><path d="m4.75927 33.9326 2.29605 3.961 3.48258-2.5978-1.9185 4.1238 3.8139 2.092-4.24537.2486.33131 4.6811-2.29605-3.9609-3.53652 2.6149 1.95703-4.2096-3.798485-2.0233 4.191435-.2315z" fill="#ffa135"/><g fill="#0b2c41"><path d="m45.6413 178.945c-.7705 1.2-2.2344 1.457-3.3131.685-1.0786-.857-1.3098-2.486-.6164-3.686.7705-1.2 2.2344-1.458 3.3131-.686 1.0787.857 1.3099 2.486.6164 3.687z"/><path d="m118.668 137.869c-.771 1.2-2.235 1.458-3.313.686-1.079-.857-1.31-2.486-.617-3.687.694-1.2 2.235-1.457 3.313-.685 1.079.857 1.31 2.486.617 3.686z"/><path d="m65.3272 75.8484c-.7243 1.1232-2.0957 1.3718-3.1128.6431-1.0093-.806-1.2328-2.332-.5778-3.4637.6549-1.1317 2.0957-1.3718 3.1127-.643 1.0093.8059 1.2328 2.3319.5779 3.4636z"/><path d="m4.65163 111.428c-.72425 1.123-2.09571 1.372-3.11275.643-1.009336-.806-1.232777-2.332-.577865-3.463.654915-1.132 2.095715-1.372 3.112755-.643 1.00933.805 1.23277 2.332.57786 3.463z"/><path d="m118.46 92.6268c0 1.4575-1.079 2.6578-2.389 2.6578s-2.388-1.2003-2.388-2.6578 1.078-2.6577 2.388-2.6577 2.389 1.2002 2.389 2.6577z"/><path d="m32.3502 92.3437c0 1.1403-.8398 2.0748-1.8645 2.0748-1.0248 0-1.8646-.9345-1.8646-2.0748s.8398-2.0748 1.8646-2.0748c1.0247 0 1.8645.9345 1.8645 2.0748z"/><path d="m139.563 79.8008c0 1.1403-.84 2.0748-1.864 2.0748-1.025 0-1.865-.9345-1.865-2.0748s.84-2.0748 1.865-2.0748c1.024 0 1.864.9345 1.864 2.0748z"/><path d="m83.8648 70.6273c0 1.2431-.9246 2.2719-2.0418 2.2719s-2.0418-1.0288-2.0418-2.2719c0-1.2432.9246-2.272 2.0418-2.272s2.0418 1.0288 2.0418 2.272z"/><path d="m32.6508 56.9524c-.7704 1.2003-2.2344 1.4575-3.313.6859-1.0787-.8574-1.3099-2.4863-.6164-3.6866.7705-1.2003 2.2344-1.4575 3.3131-.6859 1.0786.8574 1.3868 2.4863.6163 3.6866z"/></g><path d="m80.5018 135.1 3.1263 2.624 2.2122-3.49-.4258 4.276 3.8429.393-3.5625 1.664 1.5684 3.883-3.064-2.531-2.2746 3.479.4986-4.276-3.843-.393 3.5625-1.664z" fill="#7ebdbf"/><path d="m76.3527.247437.7782 3.772333 3.3362-.9688-2.5195 2.64063 2.4271 2.74352-3.3439-1.1317-.9169 3.72088-.7782-3.77232-3.3901.9688 2.5657-2.64063-2.4193-2.74352 3.2899 1.1317z" fill="#7ebdbf"/><path d="m70.5897 119.745c-.5548.866-1.6026 1.046-2.3808.488-.7782-.617-.94-1.783-.4469-2.649s1.6026-1.046 2.3808-.488c.7782.617.94 1.783.4469 2.649z" fill="#0b2c41"/><path d="m44.9323 135.271c-.547.849-1.5872 1.038-2.35.489-.7627-.609-.9322-1.766-.4391-2.615s1.5872-1.037 2.3499-.489c.7628.609.9323 1.767.4392 2.615z" fill="#0b2c41"/><path d="m53.7544 183.909c-.5239.814-1.5256.994-2.2575.471-.732-.583-.8938-1.697-.4238-2.512.47-.814 1.5256-.994 2.2575-.472.732.583.8938 1.698.4238 2.513z" fill="#7ebdbf"/><path d="m54.6867 163.873c-.2465.385-.7165.471-1.0633.222-.3467-.274-.4237-.797-.2003-1.183.2235-.386.7166-.471 1.0633-.223.3467.275.4238.798.2003 1.184z" fill="#7ebdbf"/><path d="m123.96 120.735c-.55.864-1.614 1.045-2.39.488-.776-.613-.939-1.797-.438-2.66.5-.864 1.614-1.045 2.39-.488.776.613.939 1.797.438 2.66z" fill="#7ebdbf"/><path d="m31.9497 98.0452c-.339.5316-.994.643-1.4717.3001-.4777-.3773-.5778-1.106-.2696-1.6376.3082-.5315.9939-.643 1.4716-.3.4777.3772.5779 1.1059.2697 1.6375z" fill="#0b2c41"/><path d="m111.353 145.951c-.285.446-.824.54-1.225.257-.4-.317-.485-.917-.231-1.363s.825-.54 1.225-.257c.401.317.486.917.231 1.363z" fill="#7ebdbf"/><path d="m100.592 17.1287c-.524.8145-1.5255.9945-2.2575.4715-.7319-.583-.8937-1.6975-.4238-2.512.47-.8145 1.5256-.9945 2.2573-.4716.732.583.894 1.6976.424 2.5121z" fill="#0b2c41"/><path d="m70.1274 78.3689c-.339.5316-.9939.6431-1.4716.3001-.4777-.3772-.5779-1.106-.2697-1.6375.3082-.5316.9939-.643 1.4716-.3001.4777.3772.5779 1.106.2697 1.6375z" fill="#0b2c41"/><path d="m4.70528 155.282c-.77048 1.2-2.2344 1.457-3.31308.686-1.07868-.858-1.3098249-2.487-.616389-3.687.770479-1.2 2.234399-1.457 3.313079-.686 1.07868.858 1.30983 2.487.61639 3.687z" fill="#0b2c41"/><path d="m164.072 26.7052c-.77 1.2002-2.234 1.4575-3.313.6858-1.079-.8573-1.31-2.4863-.616-3.6866.693-1.2003 2.234-1.4575 3.313-.6858 1.079.8573 1.31 2.4863.616 3.6866z" fill="#0b2c41"/><path d="m139.471 125.172c-.678 1.054-1.965 1.286-2.913.6-.947-.755-1.155-2.186-.539-3.241.616-1.054 1.965-1.286 2.912-.6.948.754 1.156 2.186.54 3.241z" fill="#0b2c41"/><g fill="#7ebdbf"><path d="m105.389 91.9318c-.474.7417-1.372.8986-2.038.4279-.667-.5277-.808-1.5261-.385-2.2678s1.372-.8986 2.038-.4279c.667.5277.808 1.5261.385 2.2678z"/><path d="m53.6566 58.8864c-.5819.9045-1.6942 1.1044-2.5071.5236-.8129-.6474-.9926-1.8852-.4706-2.7897.5219-.9045 1.6942-1.1045 2.5071-.5237.8128.6475.9925 1.8852.4706 2.7898z"/><path d="m14.663 135.909c-.6837 1.063-1.9909 1.298-2.9461.615-.9553-.76-1.1664-2.215-.553-3.278.6133-1.063 1.9909-1.298 2.9461-.615.9552.761 1.1664 2.215.553 3.278z"/><path d="m9.57502 125.09c-.32176.503-.93513.615-1.38761.291-.45248-.358-.55303-1.041-.26143-1.544.2916-.504.93513-.616 1.38761-.291.45248.358.55303 1.04.26143 1.544z"/><path d="m26.5302 61.0617c-.2465.3858-.7165.4716-1.0633.2229-.3467-.2743-.4237-.7973-.2003-1.1831.2235-.3858.7166-.4716 1.0633-.2229.3467.2743.4238.7973.2003 1.1831z"/><path d="m58.0628 50.4029c-.2738.4285-.7958.5237-1.1808.2476-.3851-.3047-.4707-.8855-.2225-1.314.2481-.4284.7957-.5236 1.1808-.2475.385.3047.4706.8855.2225 1.3139z"/><path d="m108.243 11.9846c-.246.3858-.716.4715-1.063.2229-.347-.2744-.424-.7974-.2-1.1832.223-.3858.716-.4715 1.063-.2229.346.2744.424.7974.2 1.1832z"/><path d="m11.9324 48.9105c-.339.523-.9708.6344-1.4408.3001-.47-.3773-.57013-1.0803-.2696-1.6033.3004-.523.9708-.6344 1.4408-.3001.47.3773.5701 1.0803.2696 1.6033z"/><path d="m147.052 23.6444c-.308.4887-.901.5916-1.34.2743-.439-.3429-.532-1.0031-.247-1.4917.285-.4887.902-.5916 1.341-.2744.439.3429.531 1.0031.246 1.4918z"/><path d="m86.4693 63.0397c-.2542.3944-.7242.4715-1.0786.2229-.3545-.2829-.4238-.8059-.2004-1.2003.2235-.3944.7243-.4715 1.0787-.2229.3544.2829.4238.8059.2003 1.2003z"/><path d="m75.0277 110.888c-.1849.292-.5471.36-.809.172-.262-.206-.3159-.609-.1541-.9.1618-.292.547-.36.809-.172.2619.206.3159.609.1541.9z"/><path d="m91.213 133.022c-.3429.54-1.0144.667-1.5002.318-.4857-.382-.5857-1.129-.2857-1.67.3-.54 1.0144-.667 1.5002-.318.4857.382.5857 1.129.2857 1.67z"/><path d="m6.99374 163.95c-.18492.291-.54705.36-.80901.171-.26196-.205-.3159-.608-.1541-.9.1618-.291.54705-.36.80901-.171.26197.205.3159.608.1541.9z"/></g></svg>