<svg fill="none" height="100" viewBox="0 0 136 100" width="136" xmlns="http://www.w3.org/2000/svg"><path d="m89.8146 80.2023c-1.2469-.8642-1.5148-2.5833-.6558-3.8378.859-1.2544 2.5678-1.5239 3.8147-.6597s1.5148 2.5833.6558 3.8377c-.9237 1.1894-2.6324 1.524-3.8147.6598z" fill="#204e62"/><path d="m57.5602 94.977c0 1.3939-1.1454 2.5461-2.5308 2.5461-1.3855 0-2.5309-1.1522-2.5309-2.5461 0-1.3938 1.1454-2.5461 2.5309-2.5461 1.3854 0 2.5308 1.1523 2.5308 2.5461z" fill="#204e62"/><path d="m107.743 54.6016c1.397 0 2.531-1.1399 2.531-2.5461s-1.134-2.5461-2.531-2.5461c-1.398 0-2.531 1.1399-2.531 2.5461s1.133 2.5461 2.531 2.5461z" fill="#204e62"/><path d="m59.0287 10.268c-.8129 1.1522-2.3738 1.3938-3.5192.6597-1.1453-.8177-1.3855-2.38811-.6558-3.54036.8129-1.15225 2.3738-1.39385 3.5192-.65976 1.1453.81773 1.3855 2.38814.6558 3.54042z" fill="#204e62"/><path d="m48.0463 46.3501c0 1.1336-.9236 2.0629-2.0505 2.0629-1.1268 0-2.0505-.9293-2.0505-2.0629 0-1.1337.9237-2.0629 2.0505-2.0629 1.1269 0 2.0505.9292 2.0505 2.0629z" fill="#204e62"/><path d="m126.133 89.8012-34.4711-11.8942-36.5491 17.3024-26.1118-26.5761 16.2841-21.9393 39.7264-39.13931-28.8273.82702" stroke="#204e62" stroke-miterlimit="10"/><path d="m134 46.6939-26.673 4.9435-62.0423-4.9435" stroke="#204e62" stroke-miterlimit="10"/><path d="m107.327 51.6375-15.6654 26.2695" stroke="#204e62" stroke-miterlimit="10"/><g fill="#0c8085"><path d="m93.047 43.5346c-.5265-.3624-.6374-1.078-.2771-1.6076.3602-.5297 1.0714-.6412 1.5979-.2788s.6373 1.0779.2771 1.6076c-.3879.5018-1.0992.6412-1.5979.2788z"/><path d="m72.6807 97.6439c0 1.1244-.9236 2.0536-2.0413 2.0536-1.1176 0-2.0413-.9292-2.0413-2.0536 0-1.1243.9237-2.0536 2.0413-2.0536 1.1177 0 2.0413.9293 2.0413 2.0536z"/><path d="m86.004 20.5913c-.5919.8391-1.7287 1.0151-2.5628.4805-.8342-.5956-1.0091-1.7392-.4776-2.5784.5919-.8391 1.7287-1.0151 2.5628-.4805.8342.5956 1.0696 1.7392.4776 2.5784z"/><path d="m60.3311 63.3644.5727 2.5461 2.5031-.6504-1.8842 1.7748 1.8103 1.8585-2.5031-.762-.6835 2.5089-.5819-2.5461-2.5308.6598 1.9212-1.7841-1.8104-1.8585 2.457.762z"/><path d="m21.4637 50.0021.5727 2.639 2.6693-.6505-2.0228 1.8771 1.912 1.9607-2.5955-.8085-.7574 2.6484-.6096-2.6855-2.6324.6876 1.9766-1.877-1.9027-1.9886 2.6324.7991z"/><path d="m65.5225 36.0734.582 2.5461 2.4938-.6504-1.8842 1.7841 1.8103 1.8492-2.4938-.762-.6928 2.5089-.5726-2.5461-2.5401.6598 1.9212-1.7841-1.8104-1.8585 2.4662.762z"/><path d="m103.799 73.8927c-.582-.3996-.712-1.2081-.305-1.7935.397-.5854 1.201-.7155 1.782-.3066.582.3996.712 1.208.305 1.7934-.434.5575-1.228.7155-1.782.3067z"/><path d="m27.4676 59.982c-.3603-.2509-.4342-.7434-.194-1.1151.2494-.3624.7389-.4367 1.1084-.1951.3602.2509.4341.7434.194 1.1151-.2679.3438-.7667.4367-1.1084.1951z"/><path d="m43.6775 94.3265c-.4803-.3345-.5819-.9943-.2494-1.4775.3326-.4832.9884-.5854 1.4687-.2509.4803.3346.5819.9943.2493 1.4775-.3509.4553-1.0067.5854-1.4686.2509z"/><path d="m62.0306 15.5554c-.3603-.2509-.4342-.7434-.194-1.1151.2494-.3624.7389-.4368 1.1084-.1952.3602.2509.4341.7434.1939 1.1151-.2678.3438-.7666.4368-1.1083.1952z"/><path d="m124.996 38.619c-.36-.2509-.434-.7434-.194-1.1151.25-.3624.739-.4368 1.109-.1952.36.2509.434.7434.194 1.1151-.268.3438-.767.4368-1.109.1952z"/><path d="m54.7147 88.8615c-.2977-.2055-.362-.6226-.1576-.9221.2043-.2996.6189-.3642.9166-.1586.2978.2056.362.6226.1577.9222-.2219.2878-.6306.3641-.9167.1585z"/><path d="m54.7147 88.8615c-.2977-.2055-.362-.6226-.1576-.9221.2043-.2996.6189-.3642.9166-.1586.2978.2056.362.6226.1577.9222-.2219.2878-.6306.3641-.9167.1585z"/><path d="m102.727 46.3687c-.249-.1672-.305-.511-.129-.7619.166-.2509.508-.3067.757-.1301.25.1672.305.5111.129.7619-.184.2416-.526.3067-.757.1301z"/><path d="m46.4947 52.6876c-.2494-.1673-.3049-.5111-.1294-.762.1663-.2509.5081-.3066.7574-.1301.2494.1673.3048.5111.1294.762-.1848.2416-.5265.3066-.7574.1301z"/><path d="m82.6099 75.8719c-.2494-.1672-.3048-.5111-.1293-.762.1662-.2509.508-.3066.7574-.13.2494.1672.3048.511.1293.7619-.1847.2416-.5265.3067-.7574.1301z"/><path d="m134.806 84.5231c-.25-.1673-.305-.5111-.13-.762.167-.2509.508-.3066.758-.1301.249.1673.305.5111.129.762-.185.2416-.526.3067-.757.1301z"/><path d="m36.3254 69.07c-.3603-.2416-.4342-.7341-.1848-1.0965.2402-.3624.7297-.4368 1.0899-.1859.3603.2416.4342.7341.1848 1.0965-.2587.3438-.7482.4368-1.0899.1859z"/><path d="m64.1826 11.7548c-.2493-.1673-.3048-.5111-.1293-.762.1663-.2509.508-.3066.7574-.1301.2494.1673.3048.5111.1293.762-.1847.2416-.5264.3066-.7574.1301z"/></g><path d="m79.6553 6.36711 4.7753-.74339-.8683-4.76697 3.0296 3.80057 3.63-3.08506-1.6903 4.46033 4.4798 1.62616-4.7754.73409.859 4.77626-3.0295-3.80056-3.63 3.08506 1.7642-4.47891z" fill="#ffa135"/><path d="m121.062 84.4023 3.916 2.2208 2.042-3.9213.092 4.4696 4.424-.1673-3.824 2.2395 2.3 3.7634-3.824-2.1465-2.124 3.9306-.009-4.4789-4.425.1673 3.824-2.2488z" fill="#ffa135"/><path d="m10.608 67.584c-.314-.2138-.3879-.6505-.1663-.9757.2125-.316.6466-.3903.9699-.1673.314.2137.3879.6505.1662.9757-.2309.2973-.665.3903-.9698.1673z" fill="#0c8085"/><path d="m3 58.6828 26.5 9.0246" stroke="#204e62"/><path d="m1.4691 60.5085c-1.094126-.7534-1.328583-2.2604-.573118-3.3611.748948-1.1007 2.246858-1.3366 3.340978-.5766 1.09413.7535 1.32857 2.2604.57311 3.3612-.80757 1.0417-2.30547 1.3366-3.34097.5765z" fill="#204e62"/><path d="m29.7245 61.9023.7181 3.9205 3.8474-.7782-2.9844 2.5391 2.6345 3.0065-3.7568-1.3313-1.2128 3.7847-.7181-3.9205-3.8995.7759 3.039-2.5966-2.6371-2.9467 3.7048 1.329z" fill="#ffa135"/><path d="m134.574 46.469c0 .6924-.568 1.2644-1.257 1.2644-.688 0-1.256-.572-1.256-1.2644 0-.6925.568-1.2645 1.256-1.2645.689 0 1.257.572 1.257 1.2645z" fill="#204e62"/></svg>