<svg fill="none" height="1078" viewBox="0 0 481 1078" width="481" xmlns="http://www.w3.org/2000/svg"><g fill="#2b6f9a"><path d="m565.188 892.772 5.492-3.767-3.903-5.399 6.006 2.849 2.735-6.08.504 6.648 6.638-.681-5.492 3.768 3.903 5.398-6.007-2.848-2.734 6.079-.504-6.647z"/><path d="m492.127 762.917 5.492-3.768-3.892-5.43 6.027 2.891 2.703-6.09.536 6.658 6.637-.681-5.492 3.768 3.903 5.398-6.006-2.848-2.735 6.079-.535-6.658z"/><path d="m689.609 806.274c1.494.502 2.3 2.124 1.799 3.618-.502 1.494-2.124 2.301-3.618 1.799-1.495-.502-2.301-2.124-1.799-3.618.502-1.495 2.124-2.301 3.618-1.799z"/><path d="m717.509 730.628c1.494.502 2.301 2.124 1.799 3.618-.502 1.495-2.124 2.301-3.618 1.799-1.495-.502-2.301-2.124-1.799-3.618s2.124-2.301 3.618-1.799z"/><path d="m725.256 617.104c1.494.502 2.301 2.124 1.799 3.618s-2.124 2.301-3.618 1.799-2.301-2.124-1.799-3.618c.502-1.495 2.124-2.301 3.618-1.799z"/><path d="m660.595 828.402c.502-1.496-.303-3.116-1.799-3.618-1.496-.503-3.116.303-3.618 1.799-.502 1.495.303 3.115 1.799 3.618 1.495.502 3.115-.303 3.618-1.799z"/><path d="m531.519 716.594c1.494.502 2.3 2.124 1.798 3.618-.502 1.495-2.123 2.301-3.618 1.799-1.494-.502-2.3-2.123-1.798-3.618.502-1.494 2.123-2.301 3.618-1.799z"/><path d="m551.367 856.362c.502-1.496-.303-3.116-1.799-3.618-1.496-.503-3.116.303-3.618 1.799s.303 3.115 1.799 3.618c1.495.502 3.115-.303 3.618-1.799z"/><path d="m574.079 864.96c1.494.502 2.3 2.124 1.798 3.618-.502 1.495-2.124 2.301-3.618 1.799s-2.3-2.124-1.798-3.618c.501-1.494 2.123-2.301 3.618-1.799z"/><path d="m632.707 816.853c-1.706 1.263-4.114.905-5.409-.812-1.263-1.706-.904-4.115.812-5.409 1.706-1.263 4.115-.904 5.409.812 1.263 1.706.904 4.115-.812 5.409z"/><path d="m589.603 793.057c-1.706 1.263-4.115.904-5.409-.812-1.294-1.717-.905-4.115.812-5.409 1.716-1.294 4.114-.905 5.409.812 1.263 1.706.904 4.114-.812 5.409z"/><path d="m491.31 734.304c-1.706 1.263-4.114.905-5.408-.812-1.263-1.706-.905-4.115.812-5.409 1.706-1.263 4.114-.904 5.408.812 1.263 1.706.905 4.115-.812 5.409z"/><path d="m716.329 661.117c-1.706 1.264-4.115.905-5.409-.811-1.263-1.706-.904-4.115.812-5.409 1.706-1.263 4.114-.905 5.409.812 1.263 1.706.904 4.114-.812 5.408z"/><path d="m717.066 733.494-27.9 75.645s-.105.208-.219.239l-30.812 18.509s-.312.104-.457.02l-27.468-13.729-43.146-23.775s-.114-.073-.135-.115l-56.321-70.466-40.933 11.716 10.722 25.426 48.625 98.126 24.906 12.175c.187.063.259.261.269.437l.49 21.956c.02.249-.157.467-.448.508l-32.753 4.173s-.301-.032-.436-.146c-.103-.104-.155-.26-.134-.426l7.191-38.222-48.646-98.167-10.959-25.957s-.041-.291.001-.415c.042-.125.177-.218.302-.28l41.774-11.953s.415.001.529.178l56.467 70.653 43.021 23.734 27.198 13.604 30.428-18.293 27.816-75.396-2.59-75.216s.032-.093.042-.124l10.337-38.205.955.251-10.316 38.143 2.58 75.246s-.042.125-.053.156zm-175.048 159.777 31.673-4.052-.461-21.218-24.19-11.831-6.98 37.08z"/><path d="m532.865 890.924 6.634.669.503-6.656 2.738 6.082 6.03-2.895-3.896 5.413 5.495 3.751-6.645-.638-.493 6.624-2.748-6.05-5.988 2.874 3.865-5.423z"/><path d="m575.277 636.332c1.495.502 2.301 2.123 1.799 3.618-.502 1.494-2.124 2.301-3.618 1.799s-2.301-2.124-1.799-3.618c.502-1.495 2.124-2.301 3.618-1.799z"/><path d="m588.579 668.618c.503-1.496-.303-3.115-1.799-3.618-1.495-.502-3.115.303-3.618 1.799-.502 1.496.303 3.116 1.799 3.618 1.496.503 3.116-.303 3.618-1.799z"/><path d="m606.096 710.219c.503-1.496-.303-3.115-1.798-3.618-1.496-.502-3.116.303-3.618 1.799-.503 1.496.303 3.116 1.798 3.618 1.496.503 3.116-.303 3.618-1.799z"/><path d="m617.587 694.47c-1.706 1.263-4.115.905-5.409-.812-1.263-1.706-.904-4.114.812-5.409 1.717-1.294 4.115-.904 5.409.812 1.263 1.706.904 4.115-.812 5.409z"/><path d="m644.973 730.309c-1.706 1.263-4.115.905-5.409-.812-1.294-1.716-.904-4.114.812-5.409 1.706-1.263 4.114-.904 5.409.812 1.263 1.706.904 4.115-.812 5.409z"/><path d="m643.152 727.376s-.105.208-.23.27c-.135.093-.301.072-.456.02l-39.297-17.91s-.218-.177-.249-.291c-.03-.115-.04-.291.033-.405l10.104-18.121-27.519-22.857s-.104-.104-.145-.187l-11.503-28.669-5.072-30.18.987-.154 5.041 30.066 11.43 28.471 27.737 23.035c.187.166.238.426.103.623l-10.032 18.006 38.187 17.399 2.381-23.902-29.499-10.774.313-.933 29.904 10.909c.218.073.353.292.311.52l-2.456 24.95s-.021.062-.032.094z"/><path d="m634.195 697.831 6.634.669.493-6.625 2.748 6.051 5.988-2.874-3.865 5.423 5.496 3.751-6.635-.669-.503 6.656-2.738-6.082-6.019 2.863 3.885-5.381z"/><path d="m560.105 604.56 6.603.659.534-6.645 2.738 6.081 5.999-2.905-3.896 5.413 5.495 3.751-6.603-.659-.535 6.646-2.738-6.082-5.998 2.905 3.896-5.413z"/><path d="m816.614 488.98 6.586-1.045-1.158-6.556 4.183 5.182 5.078-4.288-2.392 6.194 6.267 2.278-6.576 1.014 1.189 6.566-4.214-5.192-5.088 4.319 2.402-6.225z"/><path d="m897.087 601.924 5.491-3.768-3.902-5.399 6.006 2.849 2.735-6.08.504 6.648 6.637-.681-5.492 3.768 3.903 5.399-6.006-2.849-2.735 6.08-.504-6.648z"/><path d="m786.197 743.027 5.503-3.799-3.903-5.399 5.996 2.88 2.734-6.079.515 6.616 6.627-.649-5.492 3.767 3.903 5.399-5.996-2.88-2.735 6.08-.514-6.617z"/><path d="m820.737 443.283 4.14-2.836-2.95-4.109 4.564 2.192 2.067-4.607.393 5.017 5.017-.497-4.17 2.825 2.95 4.109-4.533-2.181-2.067 4.607-.393-5.017z"/><path d="m820.137 596.485c-1.706 1.263-4.114.905-5.408-.812-1.263-1.706-.905-4.114.812-5.409 1.706-1.263 4.114-.904 5.408.812 1.263 1.706.905 4.115-.812 5.409z"/><path d="m919.88 534.263c-1.706 1.264-4.114.905-5.409-.811-1.263-1.706-.904-4.115.812-5.409 1.706-1.263 4.115-.905 5.409.812 1.294 1.716.904 4.114-.812 5.408z"/><path d="m809.935 671.423c-1.706 1.263-4.115.904-5.409-.812-1.263-1.706-.905-4.115.812-5.409 1.706-1.263 4.114-.905 5.409.812 1.263 1.706.904 4.114-.812 5.409z"/><path d="m817.195 788.844c-1.706 1.263-4.115.905-5.409-.812-1.263-1.706-.904-4.114.812-5.409 1.706-1.263 4.115-.904 5.409.812 1.263 1.706.904 4.115-.812 5.409z"/><path d="m734.994 473.207c-1.706 1.263-4.114.905-5.408-.812-1.263-1.706-.905-4.114.812-5.409 1.716-1.294 4.114-.904 5.408.812 1.263 1.706.905 4.115-.812 5.409z"/><path d="m751.031 526.541c-1.706 1.263-4.114.904-5.409-.812-1.263-1.706-.904-4.115.812-5.409 1.706-1.263 4.115-.905 5.409.812 1.294 1.716.904 4.114-.812 5.409z"/><path d="m785.497 531.395c-1.705 1.264-4.114.905-5.408-.811-1.263-1.706-.905-4.115.812-5.409 1.706-1.264 4.114-.905 5.408.812 1.263 1.706.905 4.114-.812 5.408z"/><path d="m769.255 595.332 6.459.16.014-6.439 3.082 5.677 5.584-3.217-3.377 5.517 5.558 3.253-6.448-.191-.015 6.439-3.05-5.667-5.615 3.207 3.377-5.518z"/><path d="m826.35 650.087 5.985-1.731-1.876-5.966 4.507 4.32 4.217-4.611-1.489 6.082 6.103 1.322-5.996 1.763 1.887 5.934-4.507-4.32-4.186 4.622 1.447-6.062z"/><path d="m840.02 444.044c.503-1.496-.303-3.116-1.798-3.619-1.496-.502-3.116.303-3.618 1.799-.503 1.496.303 3.116 1.798 3.618 1.496.503 3.116-.303 3.618-1.798z"/><path d="m715.684 520.801c1.494.502 2.3 2.124 1.799 3.618-.502 1.494-2.124 2.301-3.618 1.799-1.495-.502-2.301-2.124-1.799-3.618.502-1.495 2.124-2.301 3.618-1.799z"/><path d="m819.236 513.972c1.494.502 2.3 2.124 1.798 3.618-.501 1.495-2.123 2.301-3.618 1.799-1.494-.502-2.3-2.124-1.798-3.618s2.124-2.301 3.618-1.799z"/><path d="m880.656 643.729c1.494.502 2.3 2.124 1.798 3.618s-2.124 2.301-3.618 1.799-2.3-2.124-1.798-3.618c.501-1.495 2.123-2.301 3.618-1.799z"/><path d="m906.802 522.042c1.495.501 2.301 2.123 1.799 3.618-.502 1.494-2.124 2.3-3.618 1.799-1.494-.502-2.301-2.124-1.799-3.618.502-1.495 2.124-2.301 3.618-1.799z"/><path d="m988.526 610.22c1.494.502 2.301 2.124 1.799 3.618s-2.124 2.301-3.618 1.799c-1.495-.502-2.301-2.124-1.799-3.618.502-1.495 2.124-2.301 3.618-1.799z"/><path d="m1002.03 611.258c1.5.501 2.31 2.123 1.8 3.618-.5 1.494-2.12 2.3-3.61 1.799-1.499-.502-2.305-2.124-1.804-3.619.502-1.494 2.124-2.3 3.614-1.798z"/><path d="m1001.09 614.475-13.433-1.048-107.798 33.499s-.415-.001-.529-.178c-.125-.146-.145-.395-.061-.54l25.905-47.735 11.868-67.415.976.19-11.9 67.508s-.031.093-.052.156l-25.363 46.738 106.717-33.168s.114-.031.177-.01l13.493 1.068-.08.977z"/><path d="m906.181 598.673-.997-.023.19-73.901 1.007-.008z"/><path d="m826.237 490.445c-.073.218-.291.352-.53.341-.26-.052-.436-.25-.425-.489l1.598-49.419.997.023-1.431 44.694 10.42-42.576.965.22-11.542 47.154s0 0-.01.031z"/><path d="m880.213 646.594s-.021.062-.031.094c-.053.155-.219.238-.396.248l-44.715 3.897c-.218.031-.436-.146-.508-.343l-17.057-56.586-38.795 3.495c-.219.031-.405-.136-.488-.302l-29.782-73.159-33.626.07s-.311-.105-.415-.209c-.093-.135-.114-.28-.061-.436l17.932-53.392c.073-.218.25-.331.457-.331.208.001.405.136.467.365l15.954 53.063 34.01 4.77 34.794-11.49 7.36-26.144.955.251-7.36 26.248 61.306 129.58s.051.259.02.353zm-44.828 3.202 43.604-3.786-60.903-128.717-34.753 11.47s-.145.021-.218.031l-33.615-4.708 29.472 72.327 38.837-3.516c.249-.02.436.146.508.344l17.058 56.586zm-119.913-126.815 32.618-.061-15.387-51.244z"/><path d="m835.299 650.772-27.384 17.998s-.28.113-.436.061-.259-.156-.321-.281l-28.987-71.401.925-.383 28.76 70.841 26.885-17.647.548.843z"/><path d="m815.354 785.558-.894.393-19.969-45.958s-.041-.187-.041-.291l12.677-71.474.976.189-12.666 71.339z"/><path d="m394.827 724.625 5.492-3.768-3.903-5.398 6.037 2.859 2.704-6.09.535 6.658 6.637-.681-5.491 3.768 3.902 5.399-6.037-2.859-2.704 6.09-.535-6.659z"/><path d="m473.919 610.223 5.492-3.767-3.903-5.399 6.038 2.859 2.703-6.09.536 6.658 6.637-.681-5.492 3.768 3.903 5.399-6.037-2.859-2.704 6.09-.535-6.659z"/><path d="m394.401 642.965 4.15-2.867-2.95-4.109 4.564 2.191 2.067-4.606.393 5.017 5.017-.498-4.15 2.868 2.961 4.077-4.575-2.16-2.056 4.575-.394-5.017z"/><path d="m451.625 686.816c-1.706 1.263-4.115.905-5.409-.812-1.263-1.706-.904-4.114.812-5.409 1.706-1.263 4.115-.904 5.409.812 1.263 1.706.904 4.115-.812 5.409z"/><path d="m354.724 686.94c1.495.502 2.301 2.124 1.799 3.618-.502 1.495-2.124 2.301-3.618 1.799s-2.3-2.124-1.799-3.618c.502-1.494 2.124-2.301 3.618-1.799z"/><path d="m343.823 685.773c1.494.502 2.3 2.124 1.799 3.618-.502 1.495-2.124 2.301-3.618 1.799-1.495-.502-2.301-2.123-1.799-3.618.502-1.494 2.124-2.301 3.618-1.799z"/><path d="m349.5 668.869c1.495.502 2.301 2.123 1.799 3.618-.502 1.494-2.124 2.301-3.618 1.799s-2.3-2.124-1.799-3.618c.502-1.495 2.124-2.301 3.618-1.799z"/><path d="m483.097 607.139s0 0-.011.031l-33.292 76.744s-.053.156-.136.197l-45.748 37.71c-.156.155-.395.144-.571.05l-49.66-31.714-10.767-1.156s-.28-.094-.373-.229c-.093-.136-.114-.281-.061-.437l5.677-16.904.934.313-5.479 16.313 10.03 1.082 46.843-49.016s.104-.104.177-.114l81.836-33.453s.394-.041.55.115c.124.146.165.333.113.488zm-34.175 76.275 32.771-75.5-80.599 32.968-46.521 48.675 48.986 31.245 45.395-37.378z"/><path d="m377.103 505.405 5.492-3.768-3.902-5.399 6.006 2.849 2.734-6.079.536 6.658 6.637-.681-5.492 3.768 3.903 5.398-6.037-2.859-2.704 6.09-.535-6.658z"/><path d="m420.606 500.269c-1.706 1.263-4.114.905-5.408-.812-1.263-1.706-.905-4.114.812-5.409 1.716-1.294 4.114-.904 5.408.812 1.295 1.717.905 4.115-.812 5.409z"/><path d="m342.563 528.518c1.494.502 2.3 2.123 1.799 3.618-.502 1.494-2.124 2.301-3.619 1.799-1.494-.502-2.3-2.124-1.798-3.618.502-1.495 2.124-2.301 3.618-1.799z"/><path d="m377.725 524.287c1.494.502 2.301 2.124 1.799 3.618s-2.124 2.301-3.618 1.799c-1.495-.502-2.301-2.124-1.799-3.618.502-1.495 2.124-2.301 3.618-1.799z"/><path d="m418.4 497.657-32.193 4.985-8.936 24.541c-.062.187-.239.301-.416.311l-34.611 4.138 10.477 36.777-.956.268-10.632-37.349s-.009-.28.064-.394.208-.207.353-.228l34.871-4.19 8.925-24.509c.052-.156.198-.28.385-.321l32.485-5.026.153.987z"/><path d="m345.197 566.16 6.383 1.831 1.707-6.424 1.606 6.463 6.411-1.761-4.777 4.631 4.735 4.674-6.414-1.843-1.676 6.435-1.605-6.463-6.443 1.751 4.809-4.621z"/><path d="m291.176 189.417-123.831 92.378 9.931 7.562 33.839-11.327.309.936-34.109 11.409s-.322.03-.457-.084l-10.677-8.125s-.197-.239-.176-.405c.011-.135.094-.28.198-.384l124.373-92.751z"/><path d="m179.49 292.976c-1.706 1.263-4.115.905-5.409-.812-1.263-1.706-.904-4.114.812-5.409 1.706-1.263 4.114-.904 5.409.812 1.263 1.706.904 4.115-.812 5.409z"/><path d="m291.806 186.303c1.494.502 2.301 2.124 1.799 3.618s-2.124 2.301-3.618 1.799c-1.495-.502-2.301-2.124-1.799-3.618.502-1.495 2.124-2.301 3.618-1.799z"/><path d="m167.423 279.085c1.494.502 2.301 2.124 1.799 3.618s-2.124 2.301-3.618 1.799-2.301-2.124-1.799-3.618c.502-1.495 2.124-2.301 3.618-1.799z"/><path d="m205.088 274.621 6.635.669.503-6.656 2.738 6.082 5.988-2.874-3.854 5.392 5.485 3.782-6.635-.669-.503 6.655-2.738-6.081-6.019 2.863 3.896-5.412z"/><path d="m111.853 302.514 4.15-2.867-2.961-4.078 4.565 2.191 2.066-4.606.394 5.017 5.017-.498-4.171 2.826 2.95 4.109-4.533-2.181-2.067 4.606-.393-5.017z"/><path d="m177.727 373.729c-1.706 1.263-4.115.904-5.409-.812-1.263-1.706-.904-4.115.812-5.409 1.706-1.263 4.115-.905 5.409.812 1.263 1.706.904 4.114-.812 5.409z"/><path d="m186.664 393.429c1.495.502 2.301 2.124 1.799 3.618s-2.124 2.301-3.618 1.799-2.301-2.124-1.799-3.618c.502-1.495 2.124-2.301 3.618-1.799z"/><path d="m153.56 369.665c1.495.502 2.301 2.124 1.799 3.619-.502 1.494-2.124 2.3-3.618 1.798-1.494-.501-2.301-2.123-1.799-3.618.502-1.494 2.124-2.3 3.618-1.799z"/><path d="m128.625 361.291c1.494.502 2.3 2.123 1.798 3.618-.502 1.494-2.124 2.301-3.618 1.799s-2.3-2.124-1.798-3.618c.501-1.495 2.123-2.301 3.618-1.799z"/><path d="m134.39 324.114c1.494.502 2.301 2.124 1.799 3.618-.502 1.495-2.124 2.301-3.618 1.799s-2.301-2.124-1.799-3.618 2.124-2.301 3.618-1.799z"/><path d="m109.152 243.821c.503-1.496-.303-3.116-1.799-3.618-1.495-.503-3.115.303-3.618 1.798-.502 1.496.303 3.116 1.799 3.619 1.496.502 3.116-.303 3.618-1.799z"/><path d="m186.222 396.294s-.063.187-.177.218c-.187.145-.426.134-.592.009l-33.053-23.711-24.873-8.354c-.218-.073-.383-.302-.341-.531l5.734-36.979-14.935-26.599s-.041-.083-.052-.156l-12.009-57.177.967-.195 11.998 57.104 14.977 26.683s.072.197.061.332l-5.723 36.74 24.469 8.218 22.653-1.745c.218-.031.404.136.487.302l10.337 25.54s.062.228.02.353zm-32.181-23.522 30.616 21.992-9.562-23.617z"/><path d="m302.899 385.351 5.491-3.768-3.902-5.399 6.006 2.849 2.735-6.08.504 6.648 6.637-.681-5.492 3.768 3.903 5.399-6.006-2.849-2.735 6.079-.504-6.647z"/><path d="m21.681 679.605 5.4918-3.767-3.9027-5.399 6.0374 2.859 2.7036-6.09.5351 6.658 6.6375-.681-5.4918 3.768 3.9027 5.399-6.0063-2.849-2.7347 6.08-.5352-6.658z"/><path d="m52.927 902.709 4.1139-5.235-5.3494-3.979 6.5818.928.8044-6.624 2.4886 6.206 6.1227-2.655-4.1245 5.266 5.3495 3.979-6.613-.939-.7732 6.635-2.4886-6.206z"/><path d="m136.392 706.492 5.502-3.799-3.903-5.399 5.996 2.88 2.735-6.08.514 6.617 6.638-.681-5.503 3.799 3.903 5.399-5.996-2.88-2.734 6.079-.515-6.616z"/><path d="m231.238 465.145c-1.706 1.263-4.115.905-5.409-.812-1.263-1.706-.904-4.114.812-5.409 1.706-1.263 4.114-.904 5.409.812 1.263 1.706.904 4.115-.812 5.409z"/><path d="m168.924 472.035c-1.706 1.263-4.115.905-5.409-.812-1.263-1.706-.904-4.114.812-5.409 1.706-1.263 4.115-.904 5.409.812 1.263 1.706.904 4.115-.812 5.409z"/><path d="m124.549 667.593c-1.706 1.263-4.115.904-5.409-.812-1.263-1.706-.905-4.115.812-5.409 1.716-1.294 4.114-.904 5.409.812 1.294 1.717.904 4.115-.812 5.409z"/><path d="m6.98919 841.759c-1.70599 1.263-4.11443.904-5.4086-.812-1.294167-1.717-.904448-4.115.812-5.409 1.70599-1.263 4.11443-.905 5.4086.812 1.26304 1.706.90445 4.114-.812 5.409z"/><path d="m127.507 441.358c-1.706 1.263-4.115.904-5.409-.812-1.263-1.706-.904-4.115.812-5.409 1.706-1.263 4.114-.905 5.409.812 1.263 1.706.904 4.114-.812 5.409z"/><path d="m210.931 530.35c-1.706 1.263-4.114.904-5.408-.812-1.294-1.717-.905-4.115.812-5.409 1.716-1.294 4.114-.905 5.408.812 1.263 1.706.905 4.115-.812 5.409z"/><path d="m228.848 656.166c-1.706 1.263-4.114.904-5.408-.812-1.264-1.706-.905-4.115.812-5.409 1.716-1.294 4.114-.905 5.408.812 1.294 1.716.905 4.114-.812 5.409z"/><path d="m184.432 479.392c1.494.502 2.301 2.124 1.799 3.618s-2.124 2.301-3.618 1.799-2.301-2.124-1.799-3.618 2.124-2.301 3.618-1.799z"/><path d="m241.761 477.029c1.495.502 2.301 2.123 1.799 3.618-.502 1.494-2.124 2.3-3.618 1.799-1.494-.502-2.301-2.124-1.799-3.618.502-1.495 2.124-2.301 3.618-1.799z"/><path d="m295.085 469.059c1.494.501 2.3 2.123 1.798 3.618-.502 1.494-2.124 2.3-3.618 1.798-1.494-.501-2.3-2.123-1.798-3.618.501-1.494 2.123-2.3 3.618-1.798z"/><path d="m322.756 439.066c1.494.502 2.3 2.124 1.799 3.618-.502 1.495-2.124 2.301-3.618 1.799-1.495-.502-2.301-2.124-1.799-3.618s2.124-2.301 3.618-1.799z"/><path d="m280.226 409.123c1.494.502 2.301 2.124 1.799 3.618-.502 1.495-2.124 2.301-3.618 1.799-1.495-.502-2.301-2.124-1.799-3.618s2.124-2.301 3.618-1.799z"/><path d="m152.611 462.122c1.495.502 2.301 2.124 1.799 3.618s-2.124 2.301-3.618 1.799-2.301-2.124-1.799-3.618 2.124-2.301 3.618-1.799z"/><path d="m184.296 756.74c1.494.501 2.3 2.123 1.798 3.618-.501 1.494-2.123 2.3-3.618 1.798-1.494-.501-2.3-2.123-1.798-3.618.502-1.494 2.124-2.3 3.618-1.798z"/><path d="m104.778 698.507c.503-1.496-.303-3.116-1.799-3.618-1.495-.503-3.1151.303-3.6175 1.799-.5024 1.495.3029 3.115 1.7985 3.618 1.496.502 3.116-.303 3.618-1.799z"/><path d="m133.957 785.84c1.494.502 2.301 2.124 1.799 3.618s-2.124 2.301-3.618 1.799c-1.495-.502-2.301-2.124-1.799-3.618.502-1.495 2.124-2.301 3.618-1.799z"/><path d="m156.008 829.206c1.495.502 2.301 2.124 1.799 3.619-.502 1.494-2.124 2.3-3.618 1.798s-2.301-2.123-1.799-3.618c.502-1.494 2.124-2.3 3.618-1.799z"/><path d="m16.4561 725.486c1.4943.502 2.3006 2.124 1.7987 3.618s-2.1238 2.301-3.618 1.799c-1.4943-.502-2.3006-2.124-1.7987-3.618s2.1238-2.301 3.618-1.799z"/><path d="m10.1511 744.258c1.4943.502 2.3006 2.124 1.7987 3.619-.5019 1.494-2.12375 2.3-3.61801 1.798-1.49425-.501-2.30054-2.123-1.79865-3.618.50189-1.494 2.12374-2.3 3.61796-1.799z"/><path d="m97.2731 706.206c1.4943.502 2.3006 2.124 1.7987 3.618-.5019 1.495-2.1238 2.301-3.618 1.799-1.4943-.502-2.3006-2.124-1.7987-3.618s2.1238-2.301 3.618-1.799z"/><path d="m39.4216 496.512c1.4943.502 2.3006 2.124 1.7987 3.618s-2.1238 2.301-3.618 1.799c-1.4943-.502-2.3006-2.124-1.7987-3.618.5019-1.495 2.1238-2.301 3.618-1.799z"/><path d="m129.245 412.355c1.494.502 2.3 2.124 1.798 3.619-.501 1.494-2.123 2.3-3.618 1.798-1.494-.501-2.3-2.123-1.798-3.618.502-1.494 2.124-2.3 3.618-1.799z"/><path d="m195.513 519.836c1.495.502 2.301 2.124 1.799 3.618-.502 1.495-2.124 2.301-3.618 1.799s-2.3-2.124-1.799-3.618c.502-1.494 2.124-2.301 3.618-1.799z"/><path d="m233.772 596.43c.503-1.496-.302-3.115-1.798-3.618-1.496-.502-3.116.303-3.618 1.799-.503 1.496.303 3.116 1.798 3.618 1.496.503 3.116-.303 3.618-1.799z"/><path d="m243.512 592.392c.503-1.496-.303-3.116-1.798-3.618-1.496-.503-3.116.303-3.618 1.798-.503 1.496.302 3.116 1.798 3.619 1.496.502 3.116-.303 3.618-1.799z"/><path d="m259.023 598.398c.503-1.495-.303-3.115-1.798-3.618-1.496-.502-3.116.303-3.618 1.799-.503 1.496.302 3.116 1.798 3.618 1.496.503 3.116-.303 3.618-1.799z"/><path d="m155.525 831.677-.873.434-22.062-43.335-36.6736-79.665s-.0409-.291.0009-.416l5.7167-11.348 19.67-32.264-90.4782 11.739-14.833 51.488-6.28401 18.71-4.61532 92.75 55.94723 57.038-.7181.694-56.10269-57.193s-.13449-.219-.15493-.364l4.63673-93.021s.03136-.093.04182-.124l6.30497-18.773 14.896-51.778c.0627-.187.2084-.311.4161-.311l91.8184-11.912c.187-.042.363.052.477.229s.093.343-.001.519l-20.16 33.105-5.5917 11.078 36.5807 79.426 22.062 43.335z"/><path d="m183.792 759.169-.811.558-38.254-56.187-22.892-38.799s-.072-.197-.083-.27l7.873-127.513-90.6679-36.999-8.0366 176.479-.9864-.054 8.0589-177.164s.1046-.312.2293-.374c.1352-.093.3118-.103.4674-.051l91.6433 37.396c.187.063.321.281.289.479l-7.904 127.71 22.81 38.632 38.233 56.146z"/><path d="m256.503 597.032-.313.934-15.398-5.934-9.262 3.853-4.502 57.244-.976-.085 4.534-57.545c.021-.166.115-.343.313-.415l9.74-4.039s.259-.051.384-.009l15.522 5.975z"/><path d="m231.532 595.366-.936.31-22.389-68.043-13.76-4.621s-.28-.198-.3-.344l-10.876-39.613-52.753 53.926c-.167.187-.447.196-.644.061-.197-.136-.269-.437-.134-.634l36.168-67.152-14.332-3.948s-.156-.052-.228-.146l-26.483-26.563s-.155-.26-.134-.426l3.117-23.204.965.117-3.106 22.965 26.224 26.302 14.81 4.074s.259.156.321.281.041.291-.001.415l-34.833 64.622 50.911-52.051s.302-.175.457-.123c.156.052.322.177.332.354l11.03 40.184 13.76 4.622s.259.156.31.312l22.452 68.271z"/><path d="m322.188 442.097-27.64 30.003s-.187.145-.291.145l-53.323 7.97c-.187.041-.364-.053-.488-.199l-11.695-17.369-45.032 19.9-.393-.894 45.396-20.055c.208-.104.457-.02.592.198l11.736 17.453 52.846-7.888 27.525-29.868.715.656z"/><path d="m311.971 382.473-32.323 29.712s-.104.104-.177.114l-59.29 19.754 9.205 29.837-.935.309-9.36-30.304c-.082-.27.074-.529.313-.622l59.644-19.878 32.229-29.64.663.708z"/><path d="m219.869 432.157-52.954 37.194-.559-.811 52.923-37.205z"/><path d="m213.789 425.091 5.683 3.503 3.378-5.725-.223 6.646 6.667.056-5.875 3.155 3.289 5.781-5.683-3.502-3.377 5.725.223-6.646-6.667-.057 5.874-3.154z"/><path d="m123.179 530.671 6.09 2.704 2.548-6.143.722 6.617 6.586-.836-5.367 3.913 4.037 5.306-6.089-2.704-2.579 6.132-.681-6.638-6.627.858 5.398-3.903z"/><path d="m375.659 310.741 5.471-3.809-3.903-5.399 6.027 2.891 2.735-6.08.514 6.616 6.637-.68-5.502 3.799 3.903 5.398-5.996-2.879-2.735 6.079-.545-6.627z"/><path d="m447.316 268.811 5.461-3.778-3.903-5.399 6.037 2.859 2.735-6.079.504 6.647 6.637-.68-5.491 3.767 3.902 5.399-6.006-2.849-2.735 6.08-.535-6.658z"/><path d="m427.102 216.777 2.734-6.079-6.131-2.579 6.637-.681-.826-6.617 3.892 5.43 5.306-4.039-2.735 6.08 6.152 2.62-6.627.65.795 6.607-3.871-5.388z"/><path d="m334.223 447.006 4.181-2.857-2.96-4.078 4.543 2.15 2.067-4.607.394 5.017 5.017-.497-4.15 2.867 2.96 4.078-4.575-2.16-2.056 4.575-.393-5.017z"/><path d="m446.191 329.406 4.181-2.857-2.961-4.077 4.544 2.149 2.067-4.606.383 5.048 5.027-.529-4.15 2.868 2.961 4.077-4.575-2.16-2.067 4.607-.383-5.048z"/><path d="m402.513 333.722c-1.706 1.263-4.114.904-5.408-.812-1.263-1.706-.905-4.115.812-5.409 1.706-1.263 4.114-.905 5.408.812 1.263 1.706.905 4.114-.812 5.409z"/><path d="m429.431 392.407c-1.706 1.263-4.114.905-5.409-.812-1.263-1.706-.904-4.115.812-5.409 1.706-1.263 4.115-.904 5.409.812 1.263 1.706.904 4.115-.812 5.409z"/><path d="m351.872 304.103c1.494.502 2.301 2.124 1.799 3.618-.502 1.495-2.124 2.301-3.618 1.799-1.495-.502-2.301-2.123-1.799-3.618.502-1.494 2.124-2.301 3.618-1.799z"/><path d="m376.085 296.68c.503-1.495-.303-3.115-1.798-3.618-1.496-.502-3.116.303-3.618 1.799-.503 1.496.303 3.116 1.798 3.618 1.496.503 3.116-.303 3.618-1.799z"/><path d="m417.193 217.295c1.494.502 2.301 2.124 1.799 3.618s-2.124 2.301-3.618 1.799-2.301-2.124-1.799-3.618c.502-1.495 2.124-2.301 3.618-1.799z"/><path d="m453.84 235.977c.502-1.495-.303-3.115-1.799-3.618-1.495-.502-3.115.303-3.618 1.799-.502 1.496.303 3.116 1.799 3.618 1.496.503 3.116-.303 3.618-1.799z"/><path d="m443.628 287.423c1.495.502 2.301 2.124 1.799 3.619-.502 1.494-2.124 2.3-3.618 1.798-1.494-.501-2.301-2.123-1.799-3.618.502-1.494 2.124-2.3 3.618-1.799z"/><path d="m448.045 335.953c.502-1.495-.303-3.115-1.799-3.618-1.496-.502-3.116.303-3.618 1.799s.303 3.116 1.799 3.618c1.495.503 3.115-.303 3.618-1.799z"/><path d="m486.918 312.113c1.494.502 2.3 2.124 1.798 3.618-.502 1.495-2.123 2.301-3.618 1.799-1.494-.502-2.3-2.124-1.798-3.618s2.123-2.301 3.618-1.799z"/><path d="m498.543 319.067c.503-1.496-.303-3.116-1.798-3.618-1.496-.503-3.116.303-3.618 1.798-.503 1.496.303 3.116 1.798 3.618 1.496.503 3.116-.303 3.618-1.798z"/><path d="m489.431 334.748c.503-1.495-.303-3.115-1.799-3.618-1.495-.502-3.115.303-3.618 1.799-.502 1.496.303 3.116 1.799 3.618 1.496.503 3.116-.303 3.618-1.799z"/><path d="m416.47 392.419c.503-1.495-.302-3.115-1.798-3.618-1.496-.502-3.116.303-3.618 1.799-.503 1.496.303 3.116 1.798 3.618 1.496.503 3.116-.303 3.618-1.799z"/><path d="m424.437 409.853c1.494.502 2.301 2.124 1.799 3.618-.502 1.495-2.124 2.301-3.618 1.799s-2.301-2.124-1.799-3.618 2.124-2.301 3.618-1.799z"/><path d="m412.696 308.457c1.494.501 2.301 2.123 1.799 3.618-.502 1.494-2.124 2.3-3.618 1.799-1.495-.502-2.301-2.124-1.799-3.619.502-1.494 2.124-2.3 3.618-1.798z"/><path d="m390.152 375.578c1.495.502 2.301 2.123 1.799 3.618-.502 1.494-2.124 2.3-3.618 1.799-1.494-.502-2.301-2.124-1.799-3.618.502-1.495 2.124-2.301 3.618-1.799z"/><path d="m496.302 318.313s-.021.063-.032.094l-9.122 15.713-.84-.49 8.809-15.195-9.09-3.053-32.926 12.015-7.391 7.98-10.283 18.961-7.827 35.063-3.616 23.245c-.021.166-.115.342-.302.383l-82.663 31.998-.351-.915 82.383-31.884 3.562-22.985 7.828-35.167s.031-.094.042-.125l10.407-19.127 7.527-8.177s.104-.103.188-.145l33.207-12.127s.218-.031.311 0l9.806 3.294s.259.156.311.312c.031.114.031.218-.001.312z"/><path d="m427.194 389.785-13.381 2.192s-.207 0-.321-.073l-24.52-13.224c-.207-.104-.3-.343-.237-.53l10.982-47.654s.031-.093.052-.156l11.561-19.467s.073-.114.156-.155l30.881-20.981 13.181-24.293-4.873-30.253-17.878-25.058-16.223 10.245-.518-.832 16.619-10.493c.219-.135.509-.072.654.115l18.229 25.558s.062.125.104.208l4.914 30.544s0 .207-.063.29l-13.296 24.531s-.084.146-.167.187l-30.88 20.981-11.436 19.301-10.898 47.197 24.052 12.963 13.204-2.182.154.987z"/><path d="m389.711 378.235-.997.081-4.834-70.599-10.639-11.334-22.082 10.876-.435-.873 22.405-11.01s.436-.062.592.095l11.022 11.739s.114.177.145.291l4.843 70.776z"/><path d="m426.663 349.489 6.634.669.493-6.624 2.749 6.05 6.019-2.863-3.896 5.412 5.495 3.751-6.634-.669-.503 6.656-2.739-6.082-5.988 2.874 3.855-5.392z"/><path d="m639.994 119.15 2.735-6.08-6.121-2.61 6.627-.65-.826-6.617 3.902 5.399 5.326-3.997-2.765 6.069 6.162 2.59-6.637.68.795 6.607-3.861-5.419z"/><path d="m649.818 237.086 4.15-2.867-2.96-4.078 4.564 2.191 2.067-4.606.393 5.017 5.028-.529-4.15 2.867 2.919 4.099-4.533-2.181-2.067 4.607-.394-5.017z"/><path d="m543.838 198.131 4.139-2.836-2.95-4.109 4.533 2.181 2.067-4.607.425 5.028 4.985-.508-4.15 2.867 2.961 4.078-4.533-2.181-2.067 4.606-.425-5.027z"/><path d="m416.886 70.0958c-1.706 1.2632-4.115.9047-5.409-.8118s-.904-4.1146.812-5.4088c1.717-1.2943 4.115-.9047 5.409.8118 1.263 1.706.904 4.1145-.812 5.4088z"/><path d="m488.073 78.9695c-1.706 1.2631-4.114.9046-5.408-.8118-1.263-1.7061-.905-4.1147.812-5.409 1.706-1.2631 4.114-.9045 5.408.812 1.263 1.706.905 4.1145-.812 5.4088z"/><path d="m409.644 162.103c-1.706 1.263-4.114.905-5.408-.811-1.263-1.707-.905-4.115.812-5.409 1.716-1.295 4.114-.905 5.408.812 1.263 1.706.905 4.114-.812 5.408z"/><path d="m567.252 258.48c-1.706 1.263-4.114.905-5.408-.812-1.294-1.716-.905-4.114.812-5.409 1.706-1.263 4.114-.904 5.408.812 1.263 1.706.905 4.115-.812 5.409z"/><path d="m522.476 125.376c-1.706 1.263-4.114.905-5.409-.812-1.263-1.706-.904-4.114.812-5.409 1.706-1.263 4.115-.904 5.409.812 1.294 1.717.904 4.115-.812 5.409z"/><path d="m627.182 358.74c-1.706 1.263-4.115.904-5.409-.812-1.263-1.706-.905-4.115.812-5.409 1.706-1.263 4.114-.905 5.409.812 1.294 1.716.904 4.114-.812 5.409z"/><path d="m559.908 254.663c.502-1.496-.303-3.116-1.799-3.618-1.495-.503-3.115.303-3.618 1.798-.502 1.496.303 3.116 1.799 3.618 1.496.503 3.116-.303 3.618-1.798z"/><path d="m490.682 100.909c.502-1.4958-.303-3.1156-1.799-3.618s-3.116.303-3.618 1.7988c-.502 1.4962.303 3.1162 1.799 3.6182 1.495.502 3.115-.303 3.618-1.799z"/><path d="m477.992 91.6584c.503-1.4958-.303-3.1157-1.798-3.6181-1.496-.5024-3.116.303-3.618 1.7989-.503 1.4958.303 3.1157 1.798 3.6181 1.496.5023 3.116-.303 3.618-1.7989z"/><path d="m466.916 75.9516c1.494.5019 2.301 2.1238 1.799 3.6181s-2.124 2.3007-3.618 1.7989c-1.494-.5019-2.301-2.1238-1.799-3.6181.502-1.4944 2.124-2.3008 3.618-1.7989z"/><path d="m510.419 43.6895c1.494.5018 2.301 2.1238 1.799 3.6182-.502 1.4943-2.124 2.3007-3.618 1.7988-1.494-.5018-2.301-2.1237-1.799-3.6181.502-1.4943 2.124-2.3008 3.618-1.7989z"/><path d="m503.773 29.7477c1.495.5019 2.301 2.1238 1.799 3.6181s-2.124 2.3007-3.618 1.7989c-1.494-.5019-2.3-2.1238-1.799-3.6181.502-1.4944 2.124-2.3007 3.618-1.7989z"/><path d="m414.695 19.7849c1.495.5018 2.301 2.1237 1.799 3.6181-.502 1.4943-2.124 2.3008-3.618 1.7989-1.494-.5018-2.3-2.1238-1.799-3.6182.502-1.4943 2.124-2.3007 3.618-1.7988z"/><path d="m330.541 77.2645c1.494.5018 2.3 2.1237 1.798 3.6181-.501 1.4943-2.123 2.3008-3.618 1.7989-1.494-.5018-2.3-2.1238-1.798-3.6182.502-1.4943 2.123-2.3007 3.618-1.7988z"/><path d="m320.006 79.2348c.502-1.4959-.303-3.1158-1.799-3.6181-1.496-.5024-3.115.303-3.618 1.7988-.502 1.4959.303 3.1159 1.799 3.6182 1.496.5024 3.116-.3031 3.618-1.7989z"/><path d="m450.295 28.485c1.495.5018 2.301 2.1238 1.799 3.6182-.502 1.4943-2.124 2.3007-3.618 1.7988-1.494-.5018-2.301-2.1237-1.799-3.6181.502-1.4943 2.124-2.3008 3.618-1.7989z"/><path d="m485.695 124.732c1.494.502 2.301 2.124 1.799 3.618s-2.124 2.301-3.618 1.799-2.301-2.124-1.799-3.618c.502-1.495 2.124-2.301 3.618-1.799z"/><path d="m559.715 271.019c1.494.502 2.301 2.124 1.799 3.618-.502 1.495-2.124 2.301-3.618 1.799s-2.301-2.124-1.799-3.618 2.124-2.301 3.618-1.799z"/><path d="m631.753 285.098 6.645.638.493-6.625 2.748 6.051 5.988-2.874-3.865 5.423 5.496 3.751-6.635-.669-.503 6.655-2.738-6.081-6.03 2.894 3.896-5.412z"/><path d="m565.441 255.517-6.158 18.336c-.074.218-.292.353-.531.342-.228-.042-.415-.209-.435-.458l-1.574-19.964.997-.081 1.414 17.554 5.395-16.064.934.314z"/><path d="m625.36 355.807c-.052.155-.198.28-.385.321s-.394-.063-.488-.199l-45.81-66.485-20.153-15.291.614-.799 20.236 15.354s.083.062.104.104l45.252 65.674 15.653-65.069-57.533.597-.019-.976 58.156-.596s.281.094.384.198c.093.135.114.281.103.416l-16.052 66.772s0 0-.01.031z"/><path d="m641.422 289.003-.933-.313 15.378-53.938-45.458-70.94-59.401 32.154 27.875 89.667-.936.309-27.988-90.051c-.062-.229.022-.478.23-.581l60.16-32.557c.219-.135.499-.041.633.178l45.82 71.512s.083.27.072.405l-15.472 54.218z"/><path d="m610.786 162.691-.407.903-90.41-40.862-31.592-21.87-3.114 26.6c-.032.197-.115.343-.302.384l-77.428 31.573-.382-.925 77.178-31.449 3.157-27.1402c.021-.1661.115-.3424.271-.394.166-.0827.332-.0615.467.053l32.184 22.2762 90.347 40.841z"/><path d="m488.276 99.616-.584.809-12.69-9.251s-.093-.0313-.103-.104l-9.184-11.9533-51.15-11.6014-84.863 12.9668s-.103-.0002-.135-.0107l-12.333-1.6479c-.197-.0316-.384-.1982-.425-.3852s.032-.405.24-.5084l96.457-55.8421.476.8527-95.209 55.1179 10.838 1.4577 84.894-12.9564s.104.0002.177-.01l51.409 11.6539s.218.0731.28.1979l9.235 12.0054 12.638 9.1986z"/><path d="m509.977 46.5548s-.011.0311-.021.0622c-.053.1557-.188.2488-.333.2692l-94.912 20.6086-.195-.9663 94.319-20.4956-6.232-13.1098-53.167-1.2623.023-.9968 53.479 1.2629c.176-.01.342.115.425.2814l6.646 13.9414s.051.2598.02.3532z"/><path d="m645.711 112.34-141.966-33.7192-17.919-2.242-19.706 2.77-.123-.9765 19.779-2.7802s.073-.0102.135.0107l18.054 2.2527 142.028 33.7395-.22.966z"/><path d="m570.72 290.651 5.74-3.372-3.508-5.647 5.787 3.294 3.181-5.86.047 6.667 6.647-.192-5.73 3.341 3.466 5.668-5.787-3.295-3.15 5.871-.047-6.667z"/><path d="m601.635 158.891 6.519 1.323 1.199-6.561 2.104 6.319 6.267-2.26-4.415 4.996 5.069 4.3-6.519-1.323-1.189 6.53-2.104-6.319-6.267 2.26 4.404-4.965z"/><path d="m496.832 73.0073 6.215 2.3298 2.185-6.2989 1.116 6.5764 6.525-1.273-5.129 4.236 4.371 5.0363-6.257-2.3093-2.175 6.2678-1.085-6.5659-6.556 1.2626 5.129-4.236z"/><path d="m648.812 10.0703 4.15-2.86731-2.961-4.07773 4.575 2.16003 2.056-4.575207.394 5.016957 5.027-.52874-4.15 2.86739 2.93 4.06731-4.544-2.1497-2.067 4.6064-.393-5.01699z"/><path d="m680.817 46.4907c-1.706 1.2631-4.114.9046-5.408-.8119s-.905-4.1146.812-5.4089c1.716-1.2943 4.114-.9046 5.408.8119 1.263 1.706.905 4.1146-.812 5.4089z"/><path d="m841.721 36.3018c1.495.5019 2.301 2.1239 1.799 3.6182-.502 1.4944-2.124 2.3007-3.618 1.7989-1.494-.5019-2.3-2.1238-1.799-3.6181.502-1.4944 2.124-2.3008 3.618-1.799z"/><path d="m732.392 44.8624c1.494.5018 2.301 2.1237 1.799 3.6181-.502 1.4943-2.124 2.3008-3.618 1.7989-1.495-.5018-2.301-2.1238-1.799-3.6182.502-1.4943 2.124-2.3007 3.618-1.7988z"/><path d="m555.418 20.484c1.495.5019 2.301 2.1238 1.799 3.6182-.502 1.4943-2.124 2.3007-3.618 1.7989-1.494-.5019-2.301-2.1238-1.799-3.6181.502-1.4944 2.124-2.3009 3.618-1.799z"/><path d="m683.697 122.185c1.495.502 2.301 2.124 1.799 3.618s-2.124 2.301-3.618 1.799-2.301-2.124-1.799-3.618c.502-1.495 2.124-2.301 3.618-1.799z"/><path d="m709.358 126.854c1.494.502 2.3 2.124 1.798 3.618s-2.123 2.301-3.618 1.799c-1.494-.502-2.3-2.124-1.798-3.618.502-1.495 2.123-2.301 3.618-1.799z"/><path d="m764.865 185.303 2.735-6.08-6.122-2.61 6.627-.65-.826-6.617 3.903 5.399 5.295-4.007-2.735 6.079 6.132 2.579-6.637.681.825 6.617-3.892-5.429z"/><path d="m850.911 199.652c-1.706 1.263-4.114.905-5.408-.812-1.263-1.706-.905-4.115.812-5.409 1.706-1.263 4.114-.904 5.408.812 1.263 1.706.905 4.115-.812 5.409z"/><path d="m822.059 105.777c-1.706 1.263-4.114.905-5.408-.812-1.263-1.706-.905-4.114.812-5.4085 1.706-1.2631 4.114-.9046 5.408.8115 1.263 1.706.905 4.115-.812 5.409z"/><path d="m739.3 147.859c-1.706 1.263-4.114.904-5.409-.812-1.263-1.706-.904-4.115.812-5.409 1.706-1.263 4.115-.905 5.409.812 1.294 1.716.904 4.114-.812 5.409z"/><path d="m878.866 236.79c1.494.502 2.3 2.124 1.798 3.618s-2.124 2.301-3.618 1.799-2.3-2.124-1.799-3.618c.502-1.494 2.124-2.301 3.619-1.799z"/><path d="m853.958 238.853c1.494.502 2.3 2.124 1.798 3.618s-2.123 2.301-3.618 1.799c-1.494-.502-2.3-2.124-1.798-3.618.502-1.495 2.123-2.301 3.618-1.799z"/><path d="m828.838 170.274c.502-1.495-.303-3.115-1.799-3.618-1.496-.502-3.115.303-3.618 1.799-.502 1.496.303 3.116 1.799 3.618 1.496.503 3.115-.303 3.618-1.799z"/><path d="m755.175 240.458c.921 1.279.668 3.065-.581 3.997-1.279.921-3.065.668-3.996-.58-.922-1.28-.668-3.065.58-3.997 1.279-.922 3.065-.668 3.997.58z"/><path d="m759.815 132.057c.921 1.279.668 3.065-.58 3.997-1.28.921-3.065.668-3.997-.58-.922-1.28-.668-3.065.58-3.997 1.28-.922 3.065-.668 3.997.58z"/><path d="m723.778 137.864c.921 1.279.668 3.065-.581 3.997-1.248.932-3.065.668-3.997-.58-.931-1.249-.668-3.065.581-3.997 1.248-.932 3.065-.668 3.997.58z"/><path d="m815.804 257.148c1.495.502 2.301 2.124 1.799 3.619-.502 1.494-2.124 2.3-3.618 1.798-1.494-.501-2.3-2.123-1.799-3.618.502-1.494 2.124-2.3 3.618-1.799z"/><path d="m797.894 232.495c1.495.502 2.301 2.124 1.799 3.618-.502 1.495-2.124 2.301-3.618 1.799s-2.301-2.124-1.799-3.618 2.124-2.301 3.618-1.799z"/><path d="m864.138 165.12 4.15-2.867-2.961-4.078 4.533 2.181 2.067-4.607.425 5.028 4.996-.54-4.15 2.868 2.95 4.109-4.533-2.181-2.067 4.606-.393-5.017z"/><path d="m871.205 162.851s-.032.093-.042.124l-22.145 33.858s-.24.197-.385.217c-.145.021-.291-.063-.394-.167l-22.463-27.187-37.163-51.491.78-.569 37.132 51.48 22.017 26.657 21.583-33.008-50.738-59.757.738-.652 50.998 60.017s.134.322.082.478z"/><path d="m771.143 178.162s-.104.207-.229.269c-.177.114-.447.093-.602-.064l-33.581-33.173-15.41-5.175.314-.934 15.534 5.217s.124.042.197.135l32.307 31.914-12.604-42.41.956-.268 13.16 44.26s.031.218-.001.312z"/><path d="m877.996 239.997-25.187 1.968c-.281.01-.498-.167-.539-.458l-4.207-44.925.966-.092 4.156 44.458 24.689-1.927.081.997z"/><path d="m859.994 260.592-.021.062c-.042.125-.177.218-.291.249l-34.208 9.332s-.343-.011-.478-.126l-10.445-9.952-17.764-24.466-43.819 6.901-.153-.987 44.109-6.942s.364.053.488.199l17.878 24.643 10.186 9.691 33.449-9.136-6.634-18.615.945-.341 6.811 19.125s.03.218-.001.311z"/><path d="m797.432 235.007-.894.393-26.308-57.199.894-.393z"/><path d="m851.703 257.842 6.613.628.524-6.614 2.749 6.05 5.988-2.874-3.896 5.413 5.495 3.751-6.603-.659-.535 6.645-2.738-6.081-5.998 2.905 3.896-5.413z"/><path d="m817.049 266.54 6.645.638.493-6.625 2.749 6.051 6.019-2.864-3.896 5.413 5.495 3.751-6.634-.669-.504 6.655-2.738-6.081-5.998 2.905 3.865-5.423z"/><path d="m779.184 113.376 6.603.659.524-6.615 2.749 6.051 5.988-2.874-3.896 5.413 5.495 3.751-6.603-.659-.535 6.645-2.738-6.081-5.988 2.873 3.886-5.381z"/><path d="m922.494 131.852 4.181-2.857-2.951-4.109 4.534 2.181 2.066-4.606.394 5.016 5.017-.497-4.15 2.867 2.96 4.078-4.564-2.191-2.067 4.606-.393-5.017z"/><path d="m929.143 129.16-.072.982 42.149 3.113.073-.982z"/><path d="m964.423 129.028 6.604.659.534-6.646 2.738 6.082 5.999-2.905-3.897 5.412 5.496 3.751-6.603-.658-.535 6.645-2.738-6.082-5.999 2.905 3.897-5.412z"/><path d="m1060.88 311.953c-1.7 1.263-4.11.905-5.4-.812-1.27-1.706-.91-4.115.81-5.409 1.71-1.294 4.11-.904 5.41.812 1.26 1.706.9 4.115-.82 5.409z"/><path d="m1016.28 218.884c-1.71 1.263-4.12.904-5.41-.812-1.3-1.717-.91-4.115.81-5.409 1.71-1.263 4.12-.905 5.41.812 1.26 1.706.9 4.115-.81 5.409z"/><path d="m939.145 352.41c-1.706 1.263-4.115.904-5.409-.812-1.294-1.717-.904-4.115.812-5.409 1.706-1.263 4.115-.905 5.409.812 1.263 1.706.904 4.114-.812 5.409z"/><path d="m973.526 294.6c.502-1.496-.303-3.116-1.799-3.618-1.496-.503-3.116.303-3.618 1.799s.303 3.115 1.799 3.618c1.495.502 3.115-.303 3.618-1.799z"/><path d="m978.367 311.746c1.495.502 2.301 2.124 1.799 3.618-.502 1.495-2.124 2.301-3.618 1.799s-2.3-2.124-1.799-3.618c.502-1.494 2.124-2.301 3.618-1.799z"/><path d="m986.265 282.353c.502-1.496-.303-3.116-1.799-3.618s-3.116.303-3.618 1.799.303 3.116 1.799 3.618c1.495.502 3.115-.303 3.618-1.799z"/><path d="m995.162 306.508 4.15-2.867-2.961-4.078 4.529 2.181 2.07-4.606.39 5.017 5.03-.529-4.15 2.867 2.95 4.109-4.53-2.181-2.07 4.607-.42-5.028z"/><path d="m1058.53 309.362-56.72-4.604s-.25-.084-.35-.188l-18.278-22.837s-.134-.322-.072-.509l30.4-65.659.9.407-30.261 65.358 17.961 22.421 56.53 4.572-.09.976z"/><path d="m977.925 314.612s-.052.155-.146.228l-40.632 34.854-.653-.738 40.393-34.658-6.401-20.962s-.009-.384.168-.498l12.602-11.738.663.708-12.363 11.541 6.401 20.961s.03.219-.001.312z"/><path d="m977.147 313.939.38.909 24.393-10.201-.38-.909z"/><path d="m1018.22 436.096 4.14-2.837-2.92-4.098 4.53 2.181 2.07-4.606.39 5.016 5.02-.497-4.14 2.836 2.95 4.109-4.56-2.191-2.07 4.606-.39-5.017z"/><path d="m1063.84 496.765 5.49-3.768-3.91-5.398 6.01 2.848 2.73-6.048.51 6.616 6.64-.68-5.5 3.799 3.9 5.398-6-2.88-2.73 6.08-.55-6.627z"/><path d="m1108.3 609.95 6.18-2.499-2.66-6.123 5.28 4.093 3.95-5.36-.9 6.593 6.63.773-6.17 2.499 2.62 6.112-5.24-4.083-3.98 5.35.93-6.582z"/><path d="m1119.67 396.237c-1.71 1.263-4.12.905-5.41-.811-1.27-1.707-.91-4.115.81-5.409 1.7-1.264 4.11-.905 5.41.811 1.29 1.717.9 4.115-.81 5.409z"/><path d="m1047.58 495.15c-1.71 1.263-4.12.905-5.41-.812-1.3-1.716-.91-4.114.81-5.409 1.71-1.263 4.11-.904 5.41.812 1.26 1.706.9 4.115-.81 5.409z"/><path d="m1188.14 629.28c-1.71 1.264-4.11.905-5.41-.811-1.26-1.706-.9-4.115.81-5.409 1.71-1.263 4.12-.905 5.41.812 1.26 1.706.91 4.114-.81 5.408z"/><path d="m1083.57 609.333c-1.71 1.264-4.12.905-5.41-.811-1.26-1.706-.9-4.115.81-5.409 1.71-1.263 4.12-.905 5.41.812 1.26 1.706.91 4.114-.81 5.408z"/><path d="m1109.21 458.411 9.49-2.772-3-9.426 7.17 6.808 6.67-7.286-2.36 9.601 9.69 2.109-9.5 2.804 3 9.426-7.16-6.839-6.68 7.317 2.37-9.633z"/><path d="m1106.66 685.406 9.48-2.773-3-9.426 7.16 6.839 6.66-7.327-2.33 9.612 9.64 2.129-9.49 2.773 3.01 9.426-7.17-6.839-6.65 7.327 2.33-9.611z"/><path d="m1140.12 454.275c.5-1.496-.31-3.116-1.8-3.619-1.5-.502-3.12.303-3.62 1.799s.3 3.116 1.8 3.619c1.49.502 3.11-.304 3.62-1.799z"/><path d="m1021.31 406.37c.5-1.496-.3-3.116-1.8-3.618-1.5-.503-3.11.303-3.62 1.799-.5 1.496.31 3.115 1.8 3.618 1.5.502 3.12-.303 3.62-1.799z"/><path d="m1015.74 452.655c.5-1.496-.3-3.116-1.8-3.619-1.49-.502-3.11.303-3.62 1.799-.5 1.496.31 3.116 1.8 3.618 1.5.503 3.12-.303 3.62-1.798z"/><path d="m1155.66 507.929c1.5.502 2.3 2.123 1.8 3.618-.5 1.494-2.12 2.301-3.62 1.799-1.49-.502-2.3-2.124-1.79-3.618.5-1.495 2.12-2.301 3.61-1.799z"/><path d="m1088.82 460.224c1.5.502 2.3 2.124 1.8 3.618s-2.12 2.301-3.62 1.799c-1.49-.502-2.3-2.124-1.8-3.618.51-1.494 2.13-2.301 3.62-1.799z"/><path d="m1155.25 628.074c1.5.502 2.3 2.124 1.8 3.618-.5 1.495-2.12 2.301-3.62 1.799-1.49-.502-2.3-2.124-1.79-3.618.5-1.494 2.12-2.301 3.61-1.799z"/><path d="m1083.73 579.352c1.5.502 2.3 2.124 1.8 3.618s-2.12 2.301-3.62 1.799c-1.49-.502-2.3-2.124-1.8-3.618.51-1.494 2.13-2.301 3.62-1.799z"/><path d="m1155.22 510.794s-.14.228-.27.29c-.24.093-.49.009-.62-.209l-31.46-52.693-34.63 5.208-15.23 30.394c-.06.187-.27.291-.47.259l-27.27-1.505s-.25-.084-.36-.188l-32.26-40.284c-.13-.146-.15-.395-.02-.561l11.35-18.013-5.85-27.877.97-.195 5.88 28.095s.02.249-.06.363l-11.27 17.899 31.89 39.848 26.74 1.462 15.21-30.332s.22-.239.36-.259l35.21-5.29c.18-.041.39.063.51.24l29.57 49.532-16.2-53.458-20.03-60.218.94-.309 20.03 60.217 17.36 57.314s.03.218 0 .311z"/><path d="m1120.92 684.721-.88.434-39.18-78.704s-.05-.156-.05-.26l1.54-24.184-10.25-88.391.98-.122 10.25 88.495-1.53 24.152z"/><path d="m1185.9 626.658-31.5 4.592s-.24-.011-.33-.073l-36.33-23.013-36.48-1.442.05-.987 36.62 1.454s.15.052.25.083l36.31 22.971 31.33-4.582.12.977z"/><path d="m913.033 767.126 4.228-5.162-5.234-4.114 6.56 1.095.929-6.582 2.343 6.226 6.206-2.489-4.259 5.152 5.276 4.093-6.602-1.074-.929 6.582-2.343-6.226z"/><path d="m828.478 890.884 4.259-5.152-5.266-4.125 6.592 1.106.939-6.614 2.333 6.258 6.174-2.5-4.228 5.163 5.245 4.083-6.571-1.064-.929 6.582-2.343-6.226z"/><path d="m869.983 964.515 4.228-5.162-5.235-4.114 6.56 1.095.94-6.614 2.364 6.268 6.174-2.499-4.228 5.162 5.245 4.083-6.571-1.064-.929 6.582-2.343-6.226z"/><path d="m985.974 926.943 4.181-2.857-2.961-4.077 4.533 2.18 2.067-4.606.393 5.017 5.028-.529-4.15 2.867 2.95 4.109-4.564-2.191-2.067 4.607-.394-5.017z"/><path d="m806.863 960.603c-1.706 1.263-4.114.904-5.408-.812-1.295-1.716-.905-4.115.811-5.409 1.706-1.263 4.115-.905 5.409.812 1.263 1.706.905 4.115-.812 5.409z"/><path d="m813.614 833.337c-1.706 1.263-4.115.904-5.409-.812-1.263-1.706-.904-4.115.812-5.409 1.706-1.263 4.114-.905 5.409.812 1.263 1.706.904 4.114-.812 5.409z"/><path d="m879.954 927.504c-1.706 1.263-4.115.904-5.409-.812-1.263-1.706-.904-4.115.812-5.409 1.706-1.263 4.115-.905 5.409.812 1.263 1.706.904 4.114-.812 5.409z"/><path d="m776.685 942.257c.503-1.496-.303-3.116-1.798-3.618-1.496-.503-3.116.303-3.618 1.799-.503 1.495.302 3.115 1.798 3.618 1.496.502 3.116-.303 3.618-1.799z"/><path d="m792.293 901.665c1.495.502 2.301 2.124 1.799 3.618s-2.124 2.301-3.618 1.799-2.301-2.124-1.799-3.618 2.124-2.301 3.618-1.799z"/><path d="m774.495 810.152c.503-1.496-.303-3.116-1.798-3.618-1.496-.503-3.116.303-3.618 1.799-.503 1.495.302 3.115 1.798 3.618 1.496.502 3.116-.303 3.618-1.799z"/><path d="m1016.99 923.607c1.49.502 2.3 2.124 1.8 3.618s-2.13 2.301-3.62 1.799-2.3-2.124-1.8-3.618c.5-1.495 2.13-2.301 3.62-1.799z"/><path d="m955.284 1023.37c.502-1.49-.303-3.11-1.799-3.61-1.495-.51-3.115.3-3.618 1.79-.502 1.5.303 3.12 1.799 3.62s3.116-.3 3.618-1.8z"/><path d="m1016.05 926.824-23.426-1.839-31.881 31.697-7.7 65.838-.966-.12 7.722-66.001s.073-.218.136-.301l32.151-31.987s.229-.165.395-.144l23.649 1.881z"/><path d="m960.764 956.619c-.063.187-.25.332-.458.332l-82.856 2.762-72.897-1.722s-.125-.042-.218-.073l-30.577-16.124.469-.882 29.602 15.624-12.903-52.039c-.062-.228.053-.467.292-.56l44.554-19.507s.394-.04.519.105l41.687 39.465 82.538 32.016c.218.074.342.323.3.552l-.021.062zm-155.814.397 72.492 1.69 80.436-2.675-80.358-31.181s-.125-.042-.177-.094l-41.501-39.297-43.868 19.217z"/><path d="m836.384 884.67-.905.424c-5.59-12.236-23.383-51.262-24.591-54.578-1.388-1.228-24.187-13.077-39.331-20.796l.469-.882c39.707 20.299 39.736 21.036 39.787 21.4.351 1.226 16.222 36.177 24.591 54.474z"/><path d="m951.623 962.383 4.217-5.131-5.235-4.114 6.561 1.095.939-6.613 2.375 6.236 6.163-2.468-4.217 5.131 5.235 4.114-6.561-1.095-.939 6.613-2.343-6.226z"/><path d="m759.232 1022.48c-1.706 1.27-4.114.91-5.408-.81-1.263-1.7-.905-4.11.812-5.41 1.706-1.26 4.114-.9 5.408.82 1.263 1.7.905 4.11-.812 5.4z"/><path d="m745.244 1054.13c-1.706 1.26-4.115.9-5.409-.81-1.294-1.72-.904-4.12.812-5.41 1.706-1.27 4.115-.91 5.409.81 1.263 1.71.904 4.11-.812 5.41z"/><path d="m742.846 1008.56c.502-1.49-.303-3.11-1.799-3.62-1.495-.5-3.115.31-3.618 1.8-.502 1.5.303 3.12 1.799 3.62s3.116-.3 3.618-1.8z"/><path d="m701.157 1042.23c.503-1.49-.303-3.11-1.798-3.62-1.496-.5-3.116.31-3.619 1.8-.502 1.5.303 3.12 1.799 3.62s3.116-.3 3.618-1.8z"/><path d="m715.532 1054.61c1.495.5 2.301 2.13 1.799 3.62s-2.124 2.3-3.618 1.8-2.301-2.13-1.799-3.62 2.124-2.3 3.618-1.8z"/><path d="m733.282 1058.6c.502-1.5-.303-3.12-1.799-3.62s-3.116.3-3.618 1.8c-.503 1.49.303 3.11 1.799 3.62 1.495.5 3.115-.31 3.618-1.8z"/><path d="m756.346 1040.26s-.052.15-.146.23l-12.912 10.9-12.446 6.74s-.156.05-.26.05l-15.981-.38s-.249-.09-.343-.12l-16.142-15.98.686-.71 16.019 15.84 15.639.37 12.238-6.63 12.673-10.71 1.043-20.23-16.589-11.56.552-.82 16.817 11.71s.228.25.207.42l-1.075 20.73s-.032.1-.042.13z"/><path d="m747.281 1039.92 6.422-1.8-1.979-6.38 4.777 4.66 4.549-4.89-1.645 6.45 6.497 1.49-6.401 1.83 1.959 6.34-4.788-4.62-4.538 4.85 1.645-6.44z"/><path d="m292.125 1063.42 4.15-2.87-2.96-4.08 4.564 2.2 2.066-4.61.394 5.02 5.017-.5-4.14 2.84 2.951 4.1-4.565-2.19-2.066 4.61-.394-5.02z"/><path d="m314.539 1075.28c-1.706 1.26-4.114.9-5.408-.81-1.263-1.71-.905-4.12.812-5.41 1.706-1.27 4.114-.91 5.408.81 1.263 1.71.905 4.11-.812 5.41z"/><path d="m307.975 1076.05c.502-1.49-.303-3.11-1.799-3.62-1.496-.5-3.116.31-3.618 1.8-.502 1.5.303 3.12 1.799 3.62 1.495.5 3.115-.3 3.618-1.8z"/><path d="m280.533 1037.39c1.494.5 2.301 2.12 1.799 3.62-.502 1.49-2.124 2.3-3.618 1.8-1.495-.51-2.301-2.13-1.799-3.62.502-1.5 2.124-2.3 3.618-1.8z"/><path d="m312.564 1071.77-.646.79-13.526-11.09-19.133-21.01.749-.68 19.071 20.99z"/><path d="m305.548 1074.72-.522.83c-1.016-.59-5.065-10.19-6.769-14.3l.925-.38c2.603 6.28 5.702 13.24 6.376 13.82z"/><path d="m418.141 1010.75 5.491-3.77-3.902-5.4 6.006 2.85 2.735-6.078.504 6.648 6.637-.68-5.502 3.8 3.903 5.4-5.996-2.88-2.735 6.08-.504-6.65z"/><path d="m457.537 980.399c1.494.502 2.301 2.124 1.799 3.618-.502 1.495-2.124 2.301-3.618 1.799s-2.301-2.124-1.799-3.618 2.124-2.301 3.618-1.799z"/><path d="m443.356 1005.6c1.495.51 2.301 2.13 1.799 3.62-.502 1.5-2.124 2.3-3.618 1.8s-2.301-2.12-1.799-3.62c.502-1.49 2.124-2.3 3.618-1.8z"/><path d="m442.869 977.967c1.494.502 2.301 2.124 1.799 3.618-.502 1.495-2.124 2.301-3.618 1.799s-2.301-2.124-1.799-3.618 2.124-2.301 3.618-1.799z"/><path d="m474.021 978.868-17.052 4.666-14.077 24.996c-.083.15-.26.26-.436.27l-15.67-.48s-.311-.11-.404-.24c-.093-.14-.093-.34-.01-.49l15.172-27.123c.094-.176.302-.28.499-.248l13.735 2.118-.148.955-13.402-2.076-14.588 26.104 14.569.46 14.045-24.902s.167-.186.291-.248l17.281-4.728.268.956z"/><path d="m468.246 974.919 6.634.669.493-6.624 2.749 6.05 5.988-2.874-3.865 5.423 5.495 3.751-6.634-.669-.504 6.656-2.738-6.082-5.988 2.874 3.855-5.392z"/><path d="m235.244 1042.69c1.494.5 2.3 2.12 1.798 3.62-.501 1.49-2.123 2.3-3.618 1.79-1.494-.5-2.3-2.12-1.798-3.61.502-1.5 2.123-2.3 3.618-1.8z"/><path d="m178.537 995.13 4.14-2.836-2.95-4.109 4.564 2.192 2.067-4.607.393 5.017 5.017-.497-4.171 2.825 2.951 4.109-4.534-2.181-2.066 4.607-.394-5.017z"/><path d="m178.989 1033.6c-1.706 1.26-4.114.9-5.409-.81-1.263-1.71-.904-4.12.812-5.41 1.717-1.3 4.115-.91 5.409.81 1.263 1.71.904 4.11-.812 5.41z"/><path d="m175.674 989.007c1.495.502 2.301 2.124 1.799 3.618s-2.124 2.301-3.618 1.799-2.301-2.124-1.799-3.618c.502-1.495 2.124-2.301 3.618-1.799z"/><path d="m175.134 975.764c1.494.502 2.3 2.124 1.798 3.619-.502 1.494-2.124 2.3-3.618 1.798-1.494-.501-2.3-2.123-1.798-3.618.501-1.494 2.123-2.3 3.618-1.799z"/><path d="m183.797 1001.95c1.494.51 2.3 2.13 1.799 3.62-.502 1.5-2.124 2.3-3.618 1.8-1.495-.5-2.301-2.12-1.799-3.62.502-1.49 2.124-2.3 3.618-1.8z"/><path d="m176.897 1031.06-.965-.22 6.415-26.12-7.841-13.265s-.052-.156-.062-.229l-.708-12.744c0-.208.136-.405.333-.477.198-.072.416.001.561.188l10.913 14.232s.124.249.082.374l-1.811 10.651-.986-.16 1.769-10.421-9.805-12.785.629 11.02 7.882 13.356s.093.24.051.36l-6.478 26.3z"/><path d="m319.537 888.147 5.492-3.768-3.903-5.398 6.038 2.859 2.703-6.09.536 6.658 6.637-.681-5.492 3.768 3.892 5.43-5.995-2.88-2.735 6.079-.535-6.658z"/><path d="m351.02 989.557c1.495.502 2.301 2.124 1.799 3.618-.502 1.495-2.124 2.301-3.618 1.799s-2.301-2.124-1.799-3.618 2.124-2.301 3.618-1.799z"/><path d="m343.995 946.422c-1.706 1.263-4.115.904-5.409-.812-1.263-1.706-.904-4.115.812-5.409 1.706-1.263 4.115-.905 5.409.812 1.294 1.716.904 4.115-.812 5.409z"/><path d="m407.622 873.838 4.182-2.857-2.961-4.078 4.533 2.181 2.067-4.607.393 5.017 5.028-.528-4.15 2.867 2.95 4.109-4.564-2.191-2.067 4.606-.394-5.017z"/><path d="m352.191 1018.05 4.15-2.87-2.961-4.08 4.575 2.16 2.067-4.6.383 5.04 5.027-.53-4.15 2.87 2.961 4.08-4.575-2.16-2.067 4.61-.383-5.05z"/><path d="m438.806 860.926c-1.706 1.263-4.114.905-5.408-.812-1.263-1.706-.905-4.114.812-5.408 1.716-1.295 4.114-.905 5.408.811 1.294 1.717.905 4.115-.812 5.409z"/><path d="m219.197 871.388c-1.706 1.263-4.115.904-5.409-.812-1.294-1.717-.904-4.115.812-5.409 1.706-1.263 4.114-.905 5.409.812 1.263 1.706.904 4.114-.812 5.409z"/><path d="m396.6 893.763c-1.706 1.263-4.115.904-5.409-.812-1.263-1.706-.904-4.115.812-5.409 1.706-1.263 4.115-.905 5.409.812 1.294 1.716.904 4.114-.812 5.409z"/><path d="m425.632 863.535c.503-1.496-.303-3.116-1.799-3.618-1.495-.503-3.115.303-3.617 1.798-.503 1.496.302 3.116 1.798 3.619 1.496.502 3.116-.303 3.618-1.799z"/><path d="m269.62 887.007c1.495.502 2.301 2.123 1.799 3.618-.502 1.494-2.124 2.301-3.618 1.799s-2.301-2.124-1.799-3.618c.502-1.495 2.124-2.301 3.618-1.799z"/><path d="m436.673 858.305-13.47 4.726-8.608 8.714-19.983 19.272s-.26.155-.395.144l-64.746-5.463 12.651 57.532 8.425 48.975 8.68 23.255-.915.35-8.69-23.327-8.435-49.048-12.816-58.176s0-.311.136-.404c.104-.104.27-.187.405-.176l65.183 5.506 19.785-19.096 8.671-8.797s.104-.104.177-.114l13.594-4.788.309.935z"/><path d="m329.357 885.313c-.062.187-.239.301-.426.342l-60.18 4.559s-.166-.021-.228-.042l-51.792-21.448.376-.913 51.709 21.385 59.65-4.528 3.985-48.688.976.085-4.017 49.093s-.021.062-.042.124z"/><path d="m323.37 838.057 6.606-.898-1.013-6.577 4.049 5.275 5.181-4.184-2.517 6.153 6.194 2.392-6.607.899 1.045 6.586-4.049-5.274-5.181 4.184 2.517-6.153z"/></g></svg>