<svg width="204" height="154" viewBox="0 0 204 154" fill="none" xmlns="http://www.w3.org/2000/svg">
<path d="M145.899 10.3435H51.3919L37.0327 24.4493V119.192L51.3919 131.267H145.899L160.249 117.161V22.4188L145.899 10.3435Z" stroke="#0B2C41" stroke-miterlimit="10"/>
<path d="M160.249 22.4186L36.7454 57.9706L2.15918 67.6291" stroke="#0B2C41" stroke-miterlimit="10"/>
<path d="M36.7454 131.267L76.5043 74.88L145.528 94.2777L118.636 105.931L154.418 137.143L142.117 150.171L106.326 118.949L97.2041 146.101L76.5043 75.1945L20.5879 50.4419" stroke="#0B2C41" stroke-miterlimit="10"/>
<path d="M75.7163 75.6974L160.444 22.7422L194.149 75.8681" stroke="#0B2C41" stroke-miterlimit="10"/>
<path d="M121.139 106.829C120.268 108.006 118.618 108.267 117.394 107.503C116.18 106.658 115.911 105.059 116.699 103.873C117.487 102.687 119.22 102.436 120.444 103.199C121.658 104.044 121.927 105.643 121.139 106.829Z" fill="#0B2C41"/>
<path d="M143.906 152.884C143.035 154.061 141.385 154.322 140.161 153.558C138.947 152.713 138.678 151.114 139.466 149.928C140.254 148.742 141.988 148.491 143.211 149.254C144.426 150.099 144.694 151.698 143.906 152.884Z" fill="#0B2C41"/>
<path d="M54.9798 9.68769C54.9798 11.2151 53.682 12.4729 52.1061 12.4729C50.5302 12.4729 49.2324 11.2151 49.2324 9.68769C49.2324 8.16031 50.5302 6.90247 52.1061 6.90247C53.682 6.90247 54.9798 8.16031 54.9798 9.68769Z" fill="#0B2C41"/>
<path d="M148.866 130.054C148.866 131.249 147.855 132.229 146.622 132.229C145.39 132.229 144.379 131.249 144.379 130.054C144.379 128.859 145.39 127.88 146.622 127.88C147.855 127.88 148.866 128.859 148.866 130.054Z" fill="#0B2C41"/>
<path d="M45.6169 124.07C45.6169 125.373 44.5045 126.451 43.1604 126.451C41.8163 126.451 40.7039 125.373 40.7039 124.07C40.7039 122.768 41.8163 121.69 43.1604 121.69C44.5045 121.69 45.6169 122.768 45.6169 124.07Z" fill="#0B2C41"/>
<path d="M162.391 118.895C161.464 120.153 159.702 120.423 158.405 119.614C157.107 118.716 156.829 117.009 157.663 115.751C158.59 114.493 160.351 114.223 161.649 115.032C162.947 115.93 163.318 117.637 162.391 118.895Z" fill="#0B2C41"/>
<path d="M94.173 132.318C93.5055 133.226 92.2448 133.414 91.3086 132.83C90.3723 132.184 90.1776 130.962 90.7709 130.054C91.3642 129.147 92.699 128.958 93.6353 129.542C94.5716 130.189 94.7662 131.411 94.173 132.318Z" fill="#0B2C41"/>
<path d="M103.86 132.336C103.341 133.037 102.368 133.19 101.645 132.741C100.922 132.238 100.764 131.294 101.227 130.593C101.691 129.893 102.72 129.74 103.443 130.189C104.166 130.692 104.324 131.636 103.86 132.336Z" fill="#0B2C41"/>
<path d="M122.363 132.462C121.732 133.316 120.537 133.495 119.656 132.947C118.775 132.336 118.59 131.177 119.155 130.324C119.721 129.47 120.982 129.291 121.862 129.839C122.743 130.45 122.928 131.609 122.363 132.462Z" fill="#0B2C41"/>
<path d="M166.575 107.347C166.114 107.975 165.241 108.108 164.592 107.709C163.943 107.262 163.806 106.416 164.218 105.787C164.629 105.158 165.552 105.025 166.201 105.424C166.85 105.872 166.987 106.718 166.575 107.347Z" fill="#7EBDBF"/>
<path d="M155.716 138.329C155.086 139.182 153.881 139.371 153 138.823C152.12 138.212 151.925 137.044 152.49 136.191C153.056 135.337 154.326 135.148 155.206 135.696C156.087 136.307 156.282 137.475 155.716 138.329Z" fill="#0B2C41"/>
<path d="M98.3442 148.104C97.9364 148.652 97.167 148.778 96.5922 148.419C96.0268 148.023 95.897 147.277 96.2678 146.72C96.6386 146.163 97.4451 146.047 98.0198 146.406C98.5853 146.801 98.715 147.547 98.3442 148.104Z" fill="#0B2C41"/>
<path d="M109.582 139.952C109 140.751 107.86 140.939 107.035 140.422C106.21 139.858 106.041 138.753 106.55 137.954C107.059 137.154 108.272 136.966 109.097 137.484C109.921 138.048 110.091 139.153 109.582 139.952Z" fill="#7EBDBF"/>
<path d="M78.9701 76.7937C78.0988 77.9706 76.4487 78.2312 75.2251 77.4675C74.0107 76.623 73.7419 75.0237 74.5298 73.8377C75.3178 72.6518 77.0512 72.4002 78.2749 73.1639C79.4892 74.0084 79.7581 75.6077 78.9701 76.7937Z" fill="#0B2C41"/>
<path d="M39.1 24.4132C39.1 25.4374 38.2286 26.273 37.1811 26.273C36.1336 26.273 35.2622 25.4284 35.2622 24.4132C35.2622 23.3979 36.1336 22.5533 37.1811 22.5533C38.2286 22.5533 39.1 23.3979 39.1 24.4132Z" fill="#0B2C41"/>
<path d="M23.8695 51.7716C22.9425 53.0294 21.1812 53.2989 19.8834 52.4903C18.5856 51.5919 18.3075 49.8848 19.1418 48.627C20.0688 47.3691 21.8301 47.0996 23.1279 47.9082C24.4257 48.8066 24.7965 50.5137 23.8695 51.7716Z" fill="#0B2C41"/>
<path d="M47.4986 47.7104C47.0907 48.2674 46.3028 48.3842 45.728 48.0249C45.1533 47.6295 45.0328 46.8658 45.4036 46.3088C45.7744 45.7518 46.5994 45.635 47.1741 45.9943C47.7489 46.3897 47.8694 47.1534 47.4986 47.7104Z" fill="#7EBDBF"/>
<path d="M148.391 95.3519C147.464 96.6097 145.703 96.8793 144.405 96.0706C143.108 95.1722 142.829 93.4651 143.664 92.2073C144.591 90.9494 146.352 90.6799 147.65 91.4885C148.948 92.387 149.226 94.094 148.391 95.3519Z" fill="#0B2C41"/>
<path d="M115.778 54.5222C114.851 55.78 113.09 56.0495 111.792 55.2409C110.494 54.3425 110.216 52.6354 111.05 51.3776C111.977 50.1197 113.739 49.8502 115.037 50.6588C116.334 51.5573 116.612 53.2643 115.778 54.5222Z" fill="#0B2C41"/>
<path d="M38.7199 59.013C38.0896 59.8665 36.8845 60.0552 36.0038 59.5071C35.1232 58.8962 34.9285 57.7282 35.494 56.8747C36.0594 56.0211 37.3294 55.8324 38.2101 56.3805C39.0907 56.9915 39.2854 58.1595 38.7199 59.013Z" fill="#0B2C41"/>
<path d="M145.685 78.9685C145.02 79.8626 143.764 80.0526 142.835 79.4826C141.906 78.8455 141.705 77.6273 142.307 76.7331C142.909 75.839 144.228 75.649 145.157 76.219C146.086 76.8561 146.287 78.0743 145.685 78.9685Z" fill="#7EBDBF"/>
<path d="M51.0485 27.6678C50.4345 28.5057 49.2692 28.6879 48.4047 28.1414C47.5401 27.5463 47.3521 26.4169 47.916 25.5789C48.4798 24.741 49.6952 24.5588 50.5598 25.1053C51.4244 25.7004 51.6123 26.8298 51.0485 27.6678Z" fill="#7EBDBF"/>
<path d="M122.587 115.548C122.262 115.988 121.641 116.087 121.187 115.799C120.733 115.485 120.631 114.883 120.927 114.443C121.224 114.003 121.873 113.904 122.327 114.191C122.781 114.506 122.883 115.108 122.587 115.548Z" fill="#7EBDBF"/>
<path d="M34.669 124.906L36.4302 131.132L42.7524 129.336L38.1266 133.846L42.9656 138.32L36.4859 136.703L35.0027 142.965L33.2414 136.748L26.8266 138.545L31.545 133.936L26.7061 129.551L33.0931 131.177L34.669 124.906Z" fill="#FFA135"/>
<path d="M143.999 0.145996L146.734 6.03091L152.694 3.31756L148.838 8.45675L154.335 12.1584L147.679 11.5295L147.206 17.9445L144.481 12.0596L138.428 14.7909L142.349 9.5349L136.88 5.93208L143.443 6.57897L143.999 0.145996Z" fill="#FFA135"/>
<path d="M162.047 22.5985C162.047 23.9103 160.935 24.9884 159.582 24.9884C158.228 24.9884 157.116 23.9103 157.116 22.5985C157.116 21.2868 158.228 20.2086 159.582 20.2086C160.935 20.2086 162.047 21.2868 162.047 22.5985Z" fill="#0B2C41"/>
<path d="M4.29138 68.8513C3.68883 69.6689 2.54862 69.8396 1.71433 69.3185C0.870761 68.7345 0.694632 67.6294 1.23229 66.8208C1.83484 66.0032 2.97504 65.8325 3.80934 66.3536C4.6529 66.9376 4.88465 68.0427 4.29138 68.8513Z" fill="#0B2C41"/>
<path d="M38.0154 119.291C37.4499 120.064 36.3653 120.225 35.5774 119.731C34.7802 119.183 34.6133 118.132 35.1231 117.368C35.6886 116.595 36.7732 116.434 37.5611 116.928C38.3584 117.476 38.5808 118.527 38.0154 119.291Z" fill="#0B2C41"/>
<path d="M52.4301 132.004C52.0129 132.57 51.2157 132.696 50.6224 132.327C50.0384 131.923 49.9086 131.15 50.2887 130.575C50.7059 130.009 51.5031 129.883 52.0963 130.252C52.6804 130.656 52.8565 131.429 52.4301 132.004Z" fill="#0B2C41"/>
<path d="M53.18 121.276C52.8625 121.711 52.241 121.814 51.7913 121.532C51.3416 121.224 51.2491 120.622 51.5268 120.186C51.8045 119.75 52.4658 119.648 52.9154 119.93C53.3651 120.237 53.4577 120.84 53.18 121.276Z" fill="#7EBDBF"/>
<path d="M194.461 67.413L195.885 73.7233L202.294 72.3126L197.441 76.5404L202.026 81.2952L195.653 79.2988L193.837 85.4746L192.406 79.154L185.912 80.5708L190.863 76.2481L186.274 71.5835L192.553 73.5846L194.461 67.413Z" fill="#FFA135"/>
<path d="M69.0262 80.3272C68.4988 81.0513 67.4879 81.2075 66.7407 80.739C65.9936 80.2278 65.8324 79.248 66.3159 78.5239C66.7993 77.7997 67.8542 77.6435 68.6013 78.1121C69.3485 78.6233 69.5096 79.603 69.0262 80.3272Z" fill="#7EBDBF"/>
<path d="M128.889 38.0627C128.558 38.5177 127.909 38.6248 127.439 38.3304C126.97 38.0091 126.873 37.3801 127.163 36.925C127.453 36.47 128.143 36.3629 128.613 36.6574C129.082 36.9786 129.179 37.6076 128.889 38.0627Z" fill="#7EBDBF"/>
<path d="M174.377 26.48C174.024 26.9562 173.348 27.064 172.856 26.7585C172.365 26.4171 172.254 25.7612 172.569 25.285C172.884 24.8089 173.598 24.701 174.089 25.0065C174.581 25.3479 174.692 26.0038 174.377 26.48Z" fill="#7EBDBF"/>
<path d="M184.35 69.3451C183.714 70.2091 182.498 70.3998 181.595 69.8388C180.704 69.2216 180.507 68.0435 181.086 67.1682C181.665 66.293 182.938 66.1135 183.841 66.6745C184.732 67.2917 184.929 68.4698 184.35 69.3451Z" fill="#7EBDBF"/>
<path d="M62.0615 3.18287C61.6721 3.71296 60.9213 3.82976 60.3744 3.48834C59.8274 3.11099 59.7069 2.38324 60.0592 1.85315C60.4114 1.32306 61.1994 1.20626 61.7463 1.54767C62.2932 1.92502 62.4137 2.65278 62.0615 3.18287Z" fill="#7EBDBF"/>
<path d="M31.0881 68.4747C30.4546 69.3343 29.2418 69.5273 28.3549 68.9659C27.468 68.3519 27.2689 67.1765 27.8481 66.3169C28.4273 65.4573 29.6943 65.2643 30.5813 65.8257C31.4682 66.4397 31.6673 67.6151 31.0881 68.4747Z" fill="#7EBDBF"/>
<path d="M24.0705 73.6082C23.764 74.0241 23.1816 74.1132 22.7678 73.8459C22.3386 73.5488 22.2467 72.9843 22.5226 72.5832C22.7984 72.1822 23.4115 72.0782 23.8253 72.3456C24.2544 72.6427 24.3464 73.2071 24.0705 73.6082Z" fill="#7EBDBF"/>
<path d="M73.4071 111.811L76.613 114.141L78.88 111.034L78.4449 114.851L82.3836 115.206L78.7426 116.693L80.3456 120.156L77.2084 117.892L74.8726 120.999L75.3764 117.182L71.4377 116.827L75.0787 115.34L73.4071 111.811Z" fill="#7EBDBF"/>
<path d="M64.5189 16.8192L67.833 19.2112L70.16 16.0219L69.6899 19.9401L73.7561 20.3046L69.9954 21.8309L71.6407 25.3847L68.4206 23.0611L66.0232 26.2732L66.5403 22.3321L62.4976 21.9676L66.2582 20.4413L64.5189 16.8192Z" fill="#7EBDBF"/>
<path d="M197.533 65.7693L198.831 66.7127L199.748 65.4548L199.572 67.0002L201.167 67.1439L199.693 67.7459L200.342 69.1475L199.072 68.2311L198.126 69.4979L198.33 67.9436L196.736 67.7998L198.21 67.1978L197.533 65.7693Z" fill="#7EBDBF"/>
<path d="M123.165 97.7115C122.553 98.5518 121.354 98.7495 120.487 98.2058C119.62 97.6127 119.442 96.4512 119.977 95.611C120.513 94.7707 121.788 94.573 122.655 95.1167C123.522 95.7098 123.7 96.8713 123.165 97.7115Z" fill="#7EBDBF"/>
<path d="M86.6992 45.4496C85.9473 46.4699 84.5337 46.6739 83.4811 46.0326C82.4285 45.3039 82.2179 43.9338 82.8796 42.9136C83.5412 41.8933 85.045 41.6893 86.0977 42.3306C87.1503 43.0593 87.3609 44.4294 86.6992 45.4496Z" fill="#0B2C41"/>
<path d="M132.688 5.26189C132.328 5.75012 131.645 5.85474 131.159 5.54088C130.655 5.19214 130.547 4.52954 130.871 4.05874C131.195 3.58794 131.915 3.46588 132.4 3.77975C132.904 4.12849 133.012 4.79109 132.688 5.26189Z" fill="#7EBDBF"/>
<path d="M87.3707 135.476C87.0399 135.925 86.4114 136.021 85.9649 135.733C85.5018 135.412 85.4025 134.803 85.7003 134.37C85.998 133.937 86.6595 133.825 87.1061 134.114C87.5692 134.434 87.6684 135.043 87.3707 135.476Z" fill="#7EBDBF"/>
</svg>
