<svg width="740" height="278" viewBox="0 0 740 278" fill="none" xmlns="http://www.w3.org/2000/svg">
<mask id="mask0_712_4" style="mask-type:alpha" maskUnits="userSpaceOnUse" x="0" y="0" width="740" height="278">
<rect width="740" height="278" fill="#D9D9D9"/>
</mask>
<g mask="url(#mask0_712_4)">
<path d="M269.256 536.452L273.624 536.856L273.92 532.479L275.763 536.451L279.708 534.523L277.164 538.102L280.812 540.552L276.444 540.148L276.148 544.525L274.305 540.554L270.36 542.481L272.904 538.902L269.256 536.452Z" fill="#2B6F9A"/>
<path d="M286.931 439.924L291.298 440.329L291.614 435.94L293.449 439.941L297.382 437.995L294.85 441.593L298.498 444.043L294.13 443.638L293.834 448.016L291.991 444.044L288.047 445.972L290.579 442.374L286.931 439.924Z" fill="#2B6F9A"/>
<path d="M368.689 545.033C369.235 545.916 368.96 547.077 368.077 547.623C367.194 548.168 366.033 547.894 365.487 547.01C364.942 546.127 365.216 544.966 366.1 544.421C366.983 543.875 368.144 544.15 368.689 545.033Z" fill="#2B6F9A"/>
<path d="M414.67 518.47C415.216 519.353 414.941 520.514 414.058 521.06C413.175 521.605 412.014 521.331 411.468 520.447C410.923 519.564 411.197 518.403 412.081 517.858C412.964 517.312 414.125 517.587 414.67 518.47Z" fill="#2B6F9A"/>
<path d="M466.394 464.238C466.939 465.121 466.665 466.282 465.781 466.827C464.898 467.373 463.737 467.098 463.192 466.215C462.646 465.332 462.921 464.171 463.804 463.625C464.687 463.08 465.848 463.354 466.394 464.238Z" fill="#2B6F9A"/>
<path d="M344.678 544.023C345.563 543.477 345.837 542.318 345.291 541.434C344.745 540.549 343.585 540.275 342.701 540.821C341.817 541.367 341.543 542.527 342.089 543.411C342.635 544.295 343.794 544.569 344.678 544.023Z" fill="#2B6F9A"/>
<path d="M326.385 433.05C326.93 433.934 326.656 435.095 325.772 435.64C324.889 436.186 323.728 435.911 323.183 435.028C322.637 434.144 322.912 432.984 323.795 432.438C324.679 431.893 325.839 432.167 326.385 433.05Z" fill="#2B6F9A"/>
<path d="M277.587 512.192C278.471 511.646 278.745 510.487 278.199 509.603C277.653 508.718 276.494 508.444 275.61 508.99C274.725 509.536 274.451 510.696 274.997 511.58C275.543 512.464 276.703 512.738 277.587 512.192Z" fill="#2B6F9A"/>
<path d="M285.469 526.11C286.015 526.994 285.74 528.154 284.857 528.7C283.973 529.245 282.812 528.971 282.267 528.088C281.722 527.204 281.996 526.043 282.88 525.498C283.763 524.952 284.924 525.227 285.469 526.11Z" fill="#2B6F9A"/>
<path d="M335.417 526.432C334.021 526.353 332.953 525.158 333.02 523.744C333.099 522.348 334.294 521.279 335.709 521.346C337.104 521.425 338.173 522.62 338.106 524.035C338.027 525.43 336.831 526.499 335.417 526.432Z" fill="#2B6F9A"/>
<path d="M323.607 496.231C322.211 496.152 321.142 494.957 321.209 493.543C321.276 492.128 322.484 491.078 323.898 491.145C325.312 491.212 326.362 492.419 326.295 493.834C326.217 495.229 325.021 496.298 323.607 496.231Z" fill="#2B6F9A"/>
<path d="M298.565 425.089C297.169 425.011 296.1 423.815 296.167 422.401C296.246 421.005 297.442 419.936 298.856 420.003C300.252 420.082 301.32 421.278 301.253 422.692C301.175 424.088 299.979 425.156 298.565 425.089Z" fill="#2B6F9A"/>
<path d="M443.34 482.769C441.944 482.691 440.876 481.495 440.943 480.081C441.022 478.685 442.217 477.616 443.632 477.683C445.027 477.762 446.096 478.957 446.029 480.372C445.95 481.767 444.755 482.836 443.34 482.769Z" fill="#2B6F9A"/>
<path d="M413.24 519.735L367.259 546.298C367.259 546.298 367.118 546.359 367.047 546.326L343.649 542.727C343.649 542.727 343.448 542.648 343.409 542.544L335.279 524.026L323.438 493.818C323.438 493.818 323.411 493.733 323.418 493.703L324.565 434.302L298.901 423L293.625 440.392L276.935 510.561L284.422 527.214C284.491 527.325 284.444 527.455 284.375 527.549L275.378 538.874C275.283 539.009 275.102 539.045 274.938 538.943L256.593 527.266C256.593 527.266 256.454 527.123 256.434 527.008C256.425 526.912 256.464 526.811 256.545 526.736L276.28 510.406L292.977 440.207L298.356 422.447C298.356 422.447 298.458 422.282 298.532 422.237C298.605 422.192 298.713 422.201 298.802 422.222L324.992 433.758C324.992 433.758 325.202 433.934 325.185 434.071L324.033 493.629L335.828 523.763L343.875 542.105L366.987 545.652L412.821 519.18L443.179 479.996C443.179 479.996 443.234 479.962 443.252 479.951L464.574 464.955L464.952 465.484L443.667 480.458L413.29 519.652C413.29 519.652 413.217 519.698 413.198 519.709L413.24 519.735ZM257.312 526.949L275.058 538.233L283.759 527.293L276.49 511.116L257.342 526.956L257.312 526.949Z" fill="#2B6F9A"/>
<path d="M253.664 521.906L256.742 525.038L259.8 521.879L258.626 526.112L262.898 527.185L258.646 528.286L259.85 532.499L256.753 529.378L253.714 532.526L254.87 528.305L250.627 527.239L254.868 526.12L253.664 521.906Z" fill="#2B6F9A"/>
<path d="M382.341 410.826C382.887 411.709 382.612 412.87 381.729 413.416C380.845 413.961 379.684 413.687 379.139 412.803C378.594 411.92 378.868 410.759 379.751 410.214C380.635 409.668 381.796 409.943 382.341 410.826Z" fill="#2B6F9A"/>
<path d="M375.483 432.778C376.368 432.232 376.642 431.073 376.096 430.189C375.55 429.304 374.39 429.03 373.506 429.576C372.622 430.122 372.348 431.282 372.894 432.166C373.44 433.05 374.599 433.324 375.483 432.778Z" fill="#2B6F9A"/>
<path d="M366.839 461.223C367.723 460.677 367.997 459.517 367.451 458.633C366.905 457.749 365.746 457.475 364.862 458.021C363.977 458.567 363.703 459.726 364.249 460.611C364.795 461.495 365.954 461.769 366.839 461.223Z" fill="#2B6F9A"/>
<path d="M379.289 458.085C377.893 458.006 376.825 456.811 376.892 455.396C376.971 454.001 378.166 452.932 379.581 452.999C380.995 453.066 382.045 454.273 381.978 455.688C381.899 457.083 380.704 458.152 379.289 458.085Z" fill="#2B6F9A"/>
<path d="M378.069 487.766C376.673 487.688 375.604 486.492 375.671 485.078C375.739 483.664 376.946 482.613 378.36 482.68C379.756 482.759 380.825 483.955 380.757 485.369C380.679 486.765 379.483 487.833 378.069 487.766Z" fill="#2B6F9A"/>
<path d="M378.381 485.514C378.381 485.514 378.241 485.575 378.152 485.554C378.044 485.545 377.969 485.464 377.912 485.372L365.551 459.756C365.551 459.756 365.516 459.574 365.548 459.503C365.581 459.432 365.65 459.339 365.735 459.312L378.482 454.389L374.169 431.226C374.169 431.226 374.16 431.13 374.174 431.07L380.42 411.708L390.559 394.287L391.123 394.625L381.017 411.974L374.818 431.207L379.166 454.551C379.191 454.714 379.107 454.867 378.956 454.91L366.294 459.805L378.308 484.695L389.577 473.593L379.174 455.716L379.726 455.375L390.277 473.491C390.357 473.62 390.333 473.787 390.215 473.885L378.466 485.487C378.466 485.487 378.429 485.51 378.411 485.521L378.381 485.514Z" fill="#2B6F9A"/>
<path d="M386.285 466.78L389.364 469.912L392.402 466.765L391.247 470.986L395.49 472.052L391.249 473.171L392.453 477.385L389.374 474.252L386.317 477.411L387.491 473.178L383.237 472.094L387.471 471.005L386.285 466.78Z" fill="#2B6F9A"/>
<path d="M388.035 388.347L391.102 391.461L394.17 388.321L392.996 392.553L397.257 393.608L393.005 394.709L394.209 398.922L391.142 395.808L388.073 398.949L389.247 394.716L384.986 393.661L389.238 392.561L388.035 388.347Z" fill="#2B6F9A"/>
<path d="M566.609 437.816L570.384 440.06L572.558 436.252L572.495 440.637L576.872 440.604L573.052 442.734L575.267 446.526L571.51 444.271L569.348 448.097L569.399 443.693L565.004 443.738L568.842 441.597L566.609 437.816Z" fill="#2B6F9A"/>
<path d="M559.809 528.9L564.176 529.304L564.473 524.926L566.315 528.898L570.26 526.97L567.716 530.549L571.365 532.999L566.997 532.595L566.7 536.973L564.858 533.001L560.913 534.928L563.457 531.349L559.809 528.9Z" fill="#2B6F9A"/>
<path d="M444.236 553.671L448.623 554.063L448.919 549.686L450.743 553.669L454.688 551.742L452.163 555.309L455.793 557.77L451.425 557.366L451.128 561.744L449.304 557.761L445.359 559.688L447.885 556.121L444.236 553.671Z" fill="#2B6F9A"/>
<path d="M587.938 416.409L591.229 416.716L591.464 413.393L592.853 416.424L595.84 414.961L593.927 417.668L596.677 419.528L593.375 419.203L593.139 422.526L591.761 419.513L588.775 420.976L590.688 418.27L587.938 416.409Z" fill="#2B6F9A"/>
<path d="M523.128 493.745C521.732 493.667 520.663 492.471 520.731 491.057C520.809 489.661 522.005 488.592 523.419 488.659C524.815 488.738 525.884 489.934 525.817 491.348C525.738 492.744 524.542 493.812 523.128 493.745Z" fill="#2B6F9A"/>
<path d="M599.841 504.23C598.445 504.152 597.376 502.956 597.444 501.542C597.522 500.146 598.718 499.077 600.132 499.144C601.528 499.223 602.597 500.419 602.53 501.833C602.462 503.247 601.255 504.297 599.841 504.23Z" fill="#2B6F9A"/>
<path d="M486.408 527.401C485.012 527.323 483.943 526.127 484.01 524.713C484.089 523.317 485.285 522.248 486.699 522.315C488.095 522.394 489.164 523.59 489.096 525.004C489.018 526.4 487.822 527.469 486.408 527.401Z" fill="#2B6F9A"/>
<path d="M440.644 589.926C439.248 589.848 438.179 588.652 438.246 587.238C438.325 585.842 439.521 584.773 440.935 584.84C442.331 584.919 443.4 586.115 443.332 587.529C443.254 588.925 442.058 589.994 440.644 589.926Z" fill="#2B6F9A"/>
<path d="M531.914 395.462C530.518 395.383 529.449 394.187 529.517 392.773C529.595 391.377 530.791 390.308 532.205 390.376C533.62 390.443 534.67 391.65 534.603 393.064C534.524 394.46 533.328 395.529 531.914 395.462Z" fill="#2B6F9A"/>
<path d="M517.579 429.224C516.184 429.146 515.115 427.95 515.182 426.536C515.261 425.14 516.456 424.071 517.871 424.139C519.267 424.217 520.335 425.413 520.268 426.827C520.201 428.241 518.994 429.292 517.579 429.224Z" fill="#2B6F9A"/>
<path d="M532.991 446.195C531.595 446.117 530.526 444.921 530.593 443.507C530.672 442.111 531.868 441.042 533.282 441.109C534.678 441.188 535.747 442.384 535.679 443.798C535.601 445.194 534.405 446.263 532.991 446.195Z" fill="#2B6F9A"/>
<path d="M497.844 471.737L501.048 474.537L503.766 471.283L502.937 475.455L507.119 476.177L503.086 477.549L504.531 481.537L501.346 478.725L498.627 481.98L499.468 477.826L495.274 477.086L499.308 475.713L497.844 471.737Z" fill="#2B6F9A"/>
<path d="M503.705 523.508L507.465 525.151L509.026 521.34L509.49 525.426L513.567 524.865L510.253 527.319L512.787 530.558L509.008 528.926L507.465 532.726L507.001 528.64L502.935 529.219L506.22 526.758L503.705 523.508Z" fill="#2B6F9A"/>
<path d="M597.384 424.913C598.268 424.367 598.542 423.208 597.996 422.323C597.45 421.439 596.291 421.165 595.406 421.711C594.522 422.257 594.248 423.417 594.794 424.301C595.34 425.185 596.499 425.459 597.384 424.913Z" fill="#2B6F9A"/>
<path d="M502.095 411.435C502.64 412.318 502.366 413.479 501.482 414.024C500.599 414.57 499.438 414.295 498.892 413.412C498.347 412.529 498.622 411.368 499.505 410.822C500.388 410.277 501.549 410.551 502.095 411.435Z" fill="#2B6F9A"/>
<path d="M557.414 451.577C557.959 452.46 557.684 453.621 556.801 454.167C555.918 454.712 554.757 454.438 554.211 453.554C553.666 452.671 553.94 451.51 554.824 450.965C555.707 450.419 556.868 450.694 557.414 451.577Z" fill="#2B6F9A"/>
<path d="M533.885 543.153C534.43 544.037 534.156 545.198 533.273 545.743C532.389 546.289 531.228 546.014 530.683 545.131C530.137 544.247 530.412 543.087 531.295 542.541C532.179 541.996 533.34 542.27 533.885 543.153Z" fill="#2B6F9A"/>
<path d="M598.364 492.534C598.909 493.418 598.635 494.578 597.751 495.124C596.868 495.669 595.707 495.395 595.162 494.512C594.616 493.628 594.891 492.467 595.774 491.922C596.658 491.376 597.818 491.651 598.364 492.534Z" fill="#2B6F9A"/>
<path d="M602.625 571.602C603.171 572.486 602.896 573.646 602.013 574.192C601.129 574.737 599.968 574.463 599.423 573.58C598.877 572.696 599.152 571.535 600.035 570.99C600.919 570.444 602.08 570.719 602.625 571.602Z" fill="#2B6F9A"/>
<path d="M609.029 577.815C609.575 578.699 609.3 579.86 608.417 580.405C607.533 580.951 606.372 580.676 605.827 579.793C605.282 578.91 605.556 577.749 606.439 577.203C607.323 576.658 608.484 576.932 609.029 577.815Z" fill="#2B6F9A"/>
<path d="M607.198 579.048L600.834 572.86L532.135 544.437C532.135 544.437 531.926 544.262 531.942 544.124C531.941 543.998 532.035 543.863 532.139 543.825L565.357 530.557L599.753 501.412L600.168 501.919L565.716 531.098C565.716 531.098 565.661 531.132 565.625 531.155L533.1 544.146L601.113 572.282C601.113 572.282 601.184 572.314 601.206 572.351L607.592 578.576L607.138 579.034L607.198 579.048Z" fill="#2B6F9A"/>
<path d="M565.783 531.082L565.288 530.651L596.5 493.304L597.014 493.724L565.783 531.082Z" fill="#2B6F9A"/>
<path d="M570.866 442.61C570.737 442.689 570.57 442.665 570.453 442.559C570.344 442.423 570.338 442.249 570.444 442.133L592.062 417.777L592.557 418.208L573.013 440.241L596.217 423.066L596.614 423.584L570.914 442.605C570.914 442.605 570.914 442.605 570.895 442.617L570.866 442.61Z" fill="#2B6F9A"/>
<path d="M532.454 544.418C532.454 544.418 532.418 544.441 532.399 544.452C532.307 544.509 532.188 544.481 532.094 544.411L507.807 527.558C507.684 527.482 507.648 527.3 507.695 527.17L522.882 491.33L501.762 476.765C501.639 476.689 501.615 476.526 501.643 476.407L517.363 426.816L500.304 412.693C500.304 412.693 500.19 412.509 500.182 412.412C500.192 412.305 500.243 412.222 500.335 412.166L531.897 392.676C532.026 392.596 532.163 392.613 532.268 392.701C532.373 392.788 532.416 392.94 532.351 393.082L518.089 426.673L533.304 443.409L555.764 452.24L570.499 442.099L570.877 442.628L556.098 452.822L532.586 544.261C532.586 544.261 532.503 544.414 532.447 544.448L532.454 544.418ZM508.403 527.164L532.08 543.607L555.433 452.775L533.003 443.951C533.003 443.951 532.921 443.9 532.88 443.875L517.837 427.337L502.31 476.376L523.459 490.948C523.594 491.042 523.619 491.205 523.572 491.336L508.385 527.176L508.403 527.164ZM501.069 412.449L517.615 426.152L531.398 393.721L501.069 412.449Z" fill="#2B6F9A"/>
<path d="M507.949 527.623L486.502 525.208C486.502 525.208 486.312 525.147 486.255 525.055C486.198 524.963 486.19 524.867 486.211 524.778L501.595 476.411L502.224 476.607L486.962 524.594L508.008 526.977L507.931 527.634L507.949 527.623Z" fill="#2B6F9A"/>
<path d="M441.095 587.487L440.477 587.309L449.715 555.626C449.715 555.626 449.773 555.514 449.816 555.462L486.331 524.602L486.746 525.108L450.293 555.904L441.095 587.487Z" fill="#2B6F9A"/>
<path d="M253.776 379.563L258.144 379.967L258.44 375.59L260.294 379.58L264.227 377.634L261.695 381.231L265.343 383.681L260.975 383.277L260.679 387.654L258.825 383.664L254.892 385.61L257.424 382.013L253.776 379.563Z" fill="#2B6F9A"/>
<path d="M342.002 354.926L346.369 355.33L346.666 350.953L348.52 354.943L352.453 352.997L349.921 356.595L353.569 359.044L349.201 358.64L348.905 363.018L347.051 359.028L343.117 360.974L345.65 357.376L342.002 354.926Z" fill="#2B6F9A"/>
<path d="M287.943 338.027L291.253 338.322L291.488 334.999L292.877 338.03L295.864 336.568L293.95 339.274L296.701 341.135L293.392 340.84L293.174 344.151L291.767 341.131L288.799 342.582L290.712 339.876L287.943 338.027Z" fill="#2B6F9A"/>
<path d="M298.461 384.329C297.065 384.251 295.996 383.055 296.063 381.641C296.142 380.245 297.338 379.176 298.752 379.243C300.148 379.322 301.217 380.518 301.149 381.932C301.071 383.328 299.875 384.397 298.461 384.329Z" fill="#2B6F9A"/>
<path d="M249.333 343.592C249.879 344.475 249.604 345.636 248.721 346.182C247.837 346.727 246.676 346.453 246.131 345.569C245.585 344.686 245.86 343.525 246.743 342.98C247.627 342.434 248.788 342.709 249.333 343.592Z" fill="#2B6F9A"/>
<path d="M244.303 338.411C244.849 339.294 244.574 340.455 243.691 341C242.808 341.546 241.647 341.271 241.101 340.388C240.556 339.505 240.83 338.344 241.714 337.798C242.597 337.253 243.758 337.527 244.303 338.411Z" fill="#2B6F9A"/>
<path d="M254.297 332.24C254.842 333.123 254.568 334.284 253.684 334.83C252.801 335.375 251.64 335.101 251.094 334.217C250.549 333.334 250.824 332.173 251.707 331.628C252.59 331.082 253.751 331.357 254.297 332.24Z" fill="#2B6F9A"/>
<path d="M347.948 357.228C347.948 357.228 347.948 357.228 347.93 357.239L298.755 382.089C298.755 382.089 298.663 382.145 298.603 382.131L259.557 381.967C259.412 381.98 259.296 381.874 259.246 381.752L247.449 344.781L242.483 339.662C242.483 339.662 242.381 339.496 242.391 339.389C242.4 339.281 242.451 339.199 242.543 339.142L252.537 332.971L252.878 333.523L243.234 339.478L247.858 344.249L292.22 339.148C292.22 339.148 292.317 339.139 292.358 339.165L347.889 356.68C347.889 356.68 348.106 356.825 348.119 356.97C348.121 357.096 348.063 357.208 347.971 357.265L347.948 357.228ZM298.524 381.468L346.91 357.03L292.21 339.79L248.155 344.853L259.808 381.303L298.536 381.487L298.524 381.468Z" fill="#2B6F9A"/>
<path d="M337.103 261.076L341.471 261.48L341.768 257.103L343.61 261.075L347.555 259.147L345.023 262.744L348.671 265.194L344.303 264.79L344.006 269.168L342.153 265.178L338.219 267.124L340.752 263.526L337.103 261.076Z" fill="#2B6F9A"/>
<path d="M361.298 276.793C359.902 276.714 358.833 275.518 358.901 274.104C358.979 272.708 360.175 271.639 361.589 271.707C363.004 271.774 364.054 272.981 363.987 274.395C363.919 275.809 362.712 276.86 361.298 276.793Z" fill="#2B6F9A"/>
<path d="M309.879 258.238C310.424 259.122 310.15 260.282 309.266 260.828C308.383 261.373 307.222 261.099 306.676 260.216C306.131 259.332 306.406 258.171 307.289 257.626C308.172 257.08 309.333 257.355 309.879 258.238Z" fill="#2B6F9A"/>
<path d="M329.468 270.901C330.013 271.784 329.739 272.945 328.855 273.49C327.972 274.036 326.811 273.761 326.266 272.878C325.72 271.995 325.995 270.834 326.878 270.288C327.762 269.743 328.923 270.017 329.468 270.901Z" fill="#2B6F9A"/>
<path d="M361.281 274.541L342.877 263.51L328.019 272.177C327.908 272.245 327.771 272.228 327.677 272.159L308.406 259.681L298.227 282.718L297.63 282.452L307.971 259.06C307.971 259.06 308.085 258.914 308.169 258.887C308.254 258.86 308.362 258.869 308.444 258.92L327.869 271.481L342.709 262.826C342.801 262.769 342.927 262.767 343.039 262.825L361.607 273.958L361.269 274.522L361.281 274.541Z" fill="#2B6F9A"/>
<path d="M295.364 278.411L297.825 282.026L301.395 279.491L299.486 283.441L303.475 285.248L299.105 285.582L299.536 289.943L297.063 286.31L293.505 288.863L295.413 284.914L291.413 283.088L295.794 282.772L295.364 278.411Z" fill="#2B6F9A"/>
<path d="M426.634 64.8642L325.023 59.5091L326.869 67.5205L348.776 76.032L348.538 76.636L326.46 68.0525C326.46 68.0525 326.284 67.9323 326.264 67.8176L324.277 59.207C324.277 59.207 324.279 59.003 324.359 58.9277C324.421 58.8639 324.525 58.8255 324.621 58.8168L426.663 64.211L426.634 64.8642Z" fill="#2B6F9A"/>
<path d="M326.466 70.2855C325.07 70.2069 324.002 69.0113 324.069 67.597C324.148 66.2012 325.343 65.1324 326.758 65.1996C328.153 65.2782 329.222 66.4739 329.155 67.8881C329.076 69.2839 327.881 70.3527 326.466 70.2855Z" fill="#2B6F9A"/>
<path d="M428.264 63.5525C428.81 64.4358 428.535 65.5967 427.652 66.1422C426.768 66.6877 425.607 66.4132 425.062 65.5298C424.516 64.6465 424.791 63.4856 425.674 62.9401C426.558 62.3946 427.719 62.6691 428.264 63.5525Z" fill="#2B6F9A"/>
<path d="M326.204 58.1697C326.75 59.053 326.475 60.214 325.592 60.7594C324.708 61.3049 323.547 61.0304 323.002 60.1471C322.456 59.2638 322.731 58.1028 323.614 57.5574C324.498 57.0119 325.659 57.2864 326.204 58.1697Z" fill="#2B6F9A"/>
<path d="M347.159 71.768L350.238 74.9004L353.295 71.7415L352.121 75.9743L356.364 77.0404L352.141 78.1479L353.327 82.3728L350.248 79.2405L347.191 82.3994L348.365 78.1666L344.111 77.0821L348.363 75.9816L347.159 71.768Z" fill="#2B6F9A"/>
<path d="M288.196 46.6369L291.505 46.9321L291.722 43.6204L293.111 46.6519L296.098 45.1892L294.185 47.8957L296.935 49.7562L293.633 49.4312L293.397 52.7543L292.019 49.7411L289.033 51.2038L290.946 48.4973L288.196 46.6369Z" fill="#2B6F9A"/>
<path d="M291.572 110.44C290.177 110.361 289.108 109.166 289.175 107.751C289.254 106.356 290.449 105.287 291.864 105.354C293.26 105.433 294.328 106.628 294.261 108.043C294.182 109.438 292.987 110.507 291.572 110.44Z" fill="#2B6F9A"/>
<path d="M287.804 124.18C288.349 125.064 288.075 126.225 287.191 126.77C286.308 127.316 285.147 127.041 284.602 126.158C284.056 125.274 284.331 124.113 285.214 123.568C286.097 123.023 287.258 123.297 287.804 124.18Z" fill="#2B6F9A"/>
<path d="M281.044 98.2068C281.59 99.0901 281.315 100.251 280.432 100.797C279.548 101.342 278.387 101.067 277.842 100.184C277.296 99.3008 277.571 98.1399 278.454 97.5944C279.338 97.0489 280.499 97.3235 281.044 98.2068Z" fill="#2B6F9A"/>
<path d="M271.942 83.4661C272.487 84.3494 272.213 85.5103 271.329 86.0558C270.446 86.6013 269.285 86.3268 268.739 85.4434C268.194 84.5601 268.469 83.3992 269.352 82.8537C270.235 82.3082 271.396 82.5827 271.942 83.4661Z" fill="#2B6F9A"/>
<path d="M290.515 67.0657C291.06 67.949 290.786 69.1099 289.902 69.6554C289.019 70.2009 287.858 69.9264 287.313 69.0431C286.767 68.1597 287.042 66.9988 287.925 66.4533C288.809 65.9078 289.969 66.1823 290.515 67.0657Z" fill="#2B6F9A"/>
<path d="M311.541 15.7745C312.425 15.2285 312.7 14.069 312.154 13.1848C311.608 12.3006 310.448 12.0264 309.564 12.5724C308.68 13.1185 308.405 14.2779 308.951 15.1622C309.497 16.0464 310.657 16.3205 311.541 15.7745Z" fill="#2B6F9A"/>
<path d="M286.373 125.445C286.373 125.445 286.263 125.513 286.192 125.481C286.036 125.475 285.92 125.369 285.888 125.236L279.133 99.3107L270.053 84.607C269.974 84.4781 269.986 84.2925 270.104 84.1945L288.578 67.8807L292.214 48.1213C292.214 48.1213 292.228 48.0618 292.253 48.0206L310.246 14.0069L310.818 14.3149L292.85 48.2875L289.2 68.1064C289.2 68.1064 289.154 68.2369 289.091 68.3007L270.723 84.4982L279.655 98.9627L291.863 107.617C291.986 107.693 292.01 107.856 291.982 107.975L286.464 125.262C286.464 125.262 286.399 125.404 286.325 125.449L286.373 125.445ZM279.98 99.9825L286.225 124.011L291.326 108.024L279.98 99.9825Z" fill="#2B6F9A"/>
<path d="M83.7521 199.648L88.1199 200.052L88.4165 195.674L90.2703 199.665L94.2037 197.719L91.6713 201.316L95.3195 203.766L90.9518 203.362L90.6551 207.739L88.8127 203.767L84.8679 205.695L87.4003 202.098L83.7521 199.648Z" fill="#2B6F9A"/>
<path d="M5.63767 325.795L9.92551 324.875L8.89177 320.608L11.8341 323.849L15.0305 320.833L13.6779 325.024L17.8968 326.257L13.5905 327.188L14.6242 331.456L11.6706 328.195L8.4855 331.23L9.83809 327.039L5.63767 325.795Z" fill="#2B6F9A"/>
<path d="M130.527 261.564L134.913 261.956L135.209 257.579L137.033 261.562L140.978 259.635L138.453 263.202L142.101 265.652L137.715 265.259L137.418 269.637L135.594 265.654L131.649 267.581L134.175 264.014L130.527 261.564Z" fill="#2B6F9A"/>
<path d="M280.181 179.269C278.786 179.191 277.717 177.995 277.784 176.581C277.863 175.185 279.058 174.116 280.473 174.183C281.869 174.262 282.937 175.458 282.87 176.872C282.791 178.268 281.596 179.337 280.181 179.269Z" fill="#2B6F9A"/>
<path d="M245.721 156.521C244.326 156.443 243.257 155.247 243.324 153.833C243.403 152.437 244.599 151.368 246.013 151.435C247.409 151.514 248.477 152.71 248.41 154.124C248.331 155.52 247.136 156.588 245.721 156.521Z" fill="#2B6F9A"/>
<path d="M140.907 236.877C139.511 236.798 138.443 235.603 138.51 234.188C138.589 232.793 139.784 231.724 141.199 231.791C142.613 231.858 143.663 233.065 143.596 234.479C143.529 235.894 142.321 236.944 140.907 236.877Z" fill="#2B6F9A"/>
<path d="M8.0361 275.584C6.64025 275.505 5.57145 274.31 5.63875 272.896C5.70606 271.481 6.91316 270.431 8.32742 270.498C9.72328 270.577 10.7921 271.772 10.7248 273.187C10.6461 274.582 9.45036 275.651 8.0361 275.584Z" fill="#2B6F9A"/>
<path d="M237.663 123.546C236.267 123.467 235.198 122.271 235.265 120.857C235.344 119.461 236.54 118.393 237.954 118.46C239.35 118.538 240.419 119.734 240.351 121.148C240.273 122.544 239.077 123.613 237.663 123.546Z" fill="#2B6F9A"/>
<path d="M242.443 203.742C241.047 203.664 239.978 202.468 240.045 201.054C240.113 199.639 241.32 198.589 242.734 198.656C244.148 198.723 245.199 199.931 245.131 201.345C245.053 202.741 243.857 203.809 242.443 203.742Z" fill="#2B6F9A"/>
<path d="M198.541 275.005C197.145 274.927 196.077 273.731 196.144 272.317C196.223 270.921 197.418 269.852 198.833 269.919C200.247 269.987 201.297 271.194 201.23 272.608C201.163 274.022 199.956 275.073 198.541 275.005Z" fill="#2B6F9A"/>
<path d="M250.478 166.777C251.024 167.66 250.749 168.821 249.866 169.367C248.982 169.912 247.821 169.638 247.276 168.754C246.73 167.871 247.005 166.71 247.888 166.165C248.772 165.619 249.933 165.894 250.478 166.777Z" fill="#2B6F9A"/>
<path d="M280.508 189.719C281.053 190.602 280.778 191.763 279.895 192.309C279.012 192.854 277.851 192.579 277.305 191.696C276.76 190.813 277.034 189.652 277.918 189.106C278.801 188.561 279.962 188.835 280.508 189.719Z" fill="#2B6F9A"/>
<path d="M310.869 208.134C311.414 209.018 311.14 210.179 310.256 210.724C309.373 211.27 308.212 210.995 307.667 210.112C307.121 209.228 307.396 208.067 308.279 207.522C309.162 206.977 310.323 207.251 310.869 208.134Z" fill="#2B6F9A"/>
<path d="M337.511 204.596C338.057 205.479 337.782 206.64 336.899 207.186C336.015 207.731 334.855 207.457 334.309 206.573C333.764 205.69 334.038 204.529 334.922 203.983C335.805 203.438 336.966 203.712 337.511 204.596Z" fill="#2B6F9A"/>
<path d="M328.58 171.524C329.125 172.407 328.851 173.568 327.967 174.114C327.084 174.659 325.923 174.385 325.378 173.501C324.832 172.618 325.107 171.457 325.99 170.911C326.873 170.366 328.034 170.64 328.58 171.524Z" fill="#2B6F9A"/>
<path d="M241.634 144.632C242.179 145.516 241.905 146.676 241.022 147.222C240.138 147.767 238.977 147.493 238.432 146.61C237.886 145.726 238.161 144.565 239.044 144.02C239.928 143.474 241.089 143.749 241.634 144.632Z" fill="#2B6F9A"/>
<path d="M133.631 307.182C134.176 308.065 133.901 309.226 133.018 309.772C132.135 310.317 130.974 310.043 130.428 309.159C129.883 308.276 130.157 307.115 131.041 306.57C131.924 306.024 133.085 306.299 133.631 307.182Z" fill="#2B6F9A"/>
<path d="M117.878 244.209C118.762 243.663 119.037 242.503 118.491 241.619C117.945 240.735 116.785 240.461 115.901 241.007C115.017 241.553 114.742 242.712 115.288 243.596C115.834 244.481 116.994 244.755 117.878 244.209Z" fill="#2B6F9A"/>
<path d="M95.8836 300.724C96.429 301.608 96.1545 302.769 95.2711 303.314C94.3877 303.86 93.2268 303.585 92.6813 302.702C92.1359 301.818 92.4104 300.657 93.2938 300.112C94.1772 299.566 95.3381 299.841 95.8836 300.724Z" fill="#2B6F9A"/>
<path d="M88.7919 331.972C89.3373 332.855 89.0628 334.016 88.1794 334.562C87.296 335.107 86.1351 334.833 85.5896 333.95C85.0442 333.066 85.3187 331.905 86.2021 331.36C87.0855 330.814 88.2464 331.089 88.7919 331.972Z" fill="#2B6F9A"/>
<path d="M61.7877 220.684C62.3332 221.567 62.0586 222.728 61.1752 223.274C60.2919 223.819 59.1309 223.545 58.5855 222.661C58.04 221.778 58.3146 220.617 59.198 220.072C60.0813 219.526 61.2423 219.801 61.7877 220.684Z" fill="#2B6F9A"/>
<path d="M50.6903 227.537C51.2358 228.42 50.9612 229.581 50.0779 230.126C49.1945 230.672 48.0335 230.397 47.4881 229.514C46.9426 228.631 47.2172 227.47 48.1006 226.924C48.984 226.379 50.1449 226.653 50.6903 227.537Z" fill="#2B6F9A"/>
<path d="M110.835 244.948C111.381 245.831 111.106 246.992 110.223 247.538C109.339 248.083 108.178 247.809 107.633 246.925C107.087 246.042 107.362 244.881 108.245 244.336C109.129 243.79 110.29 244.065 110.835 244.948Z" fill="#2B6F9A"/>
<path d="M169.829 114.39C170.375 115.273 170.1 116.434 169.217 116.98C168.333 117.525 167.172 117.251 166.627 116.367C166.081 115.484 166.356 114.323 167.239 113.778C168.123 113.232 169.284 113.507 169.829 114.39Z" fill="#2B6F9A"/>
<path d="M250.755 109.589C251.3 110.473 251.025 111.634 250.142 112.179C249.259 112.725 248.098 112.45 247.552 111.567C247.007 110.683 247.281 109.523 248.165 108.977C249.048 108.432 250.209 108.706 250.755 109.589Z" fill="#2B6F9A"/>
<path d="M239.061 191.926C239.606 192.809 239.332 193.97 238.449 194.515C237.565 195.061 236.404 194.786 235.859 193.903C235.313 193.02 235.588 191.859 236.471 191.313C237.355 190.768 238.516 191.042 239.061 191.926Z" fill="#2B6F9A"/>
<path d="M226.187 246.826C227.071 246.28 227.345 245.12 226.799 244.236C226.253 243.352 225.094 243.078 224.21 243.624C223.325 244.17 223.051 245.329 223.597 246.213C224.143 247.098 225.303 247.372 226.187 246.826Z" fill="#2B6F9A"/>
<path d="M232.82 248.881C233.704 248.335 233.979 247.176 233.433 246.292C232.887 245.407 231.727 245.133 230.843 245.679C229.958 246.225 229.684 247.385 230.23 248.269C230.776 249.153 231.936 249.427 232.82 248.881Z" fill="#2B6F9A"/>
<path d="M238.147 258.455C239.031 257.909 239.305 256.749 238.759 255.865C238.213 254.981 237.054 254.706 236.169 255.253C235.285 255.799 235.011 256.958 235.557 257.842C236.103 258.726 237.262 259.001 238.147 258.455Z" fill="#2B6F9A"/>
<path d="M87.5069 333.02L86.8818 332.872L93.9551 301.635L108.925 245.848C108.925 245.848 109.027 245.683 109.101 245.638L116.774 242.298L140.321 234.24L89.5556 202.089L60.3642 221.919L49.3036 228.749L7.91313 273.779L12.2318 326.222L11.5758 326.271L7.24417 273.684C7.24417 273.684 7.268 273.516 7.31889 273.434L48.8339 228.276C48.8339 228.276 48.8891 228.242 48.9075 228.231L60.005 221.378L89.3505 201.427C89.4609 201.359 89.5871 201.357 89.692 201.445L141.209 234.072C141.321 234.13 141.371 234.252 141.354 234.39C141.337 234.527 141.257 234.602 141.135 234.652L116.986 242.929L109.49 246.186L94.5732 301.813L87.4999 333.05L87.5069 333.02Z" fill="#2B6F9A"/>
<path d="M132.353 308.2L131.706 308.142L135.991 263.579L140.733 234.29C140.733 234.29 140.78 234.16 140.805 234.118L198.482 172.854L168.142 115.94L89.765 201.934L89.2883 201.491L167.966 115.16C167.966 115.16 168.15 115.046 168.239 115.067C168.347 115.077 168.44 115.146 168.497 115.238L199.164 172.764C199.232 172.874 199.208 173.042 199.109 173.128L141.333 234.479L136.619 263.649L132.341 308.182L132.353 308.2Z" fill="#2B6F9A"/>
<path d="M237.445 256.701L236.893 257.042L231.594 247.554L225.281 245.606L198.898 272.701L198.439 272.247L224.965 245.013C225.046 244.937 225.168 244.888 225.298 244.934L231.932 246.99C231.932 246.99 232.085 247.073 232.13 247.147L237.475 256.708L237.445 256.701Z" fill="#2B6F9A"/>
<path d="M225.5 245.343L224.896 245.106L242.207 201.219L237.184 193.085C237.184 193.085 237.125 192.867 237.176 192.784L248.348 168.143L198.925 173.242C198.762 173.266 198.616 173.153 198.573 173.002C198.53 172.85 198.621 172.667 198.772 172.624L245.365 153.844L239.768 145.81C239.768 145.81 239.711 145.718 239.714 145.64L237.486 121.036C237.486 121.036 237.517 120.839 237.598 120.764L248.946 110.325L249.386 110.79L238.144 121.113L240.35 145.476L246.135 153.774C246.135 153.774 246.201 153.963 246.18 154.052C246.159 154.141 246.078 154.217 246.004 154.262L201.154 172.323L248.854 167.399C248.854 167.399 249.081 167.436 249.137 167.528C249.194 167.62 249.226 167.754 249.156 167.847L237.823 192.843L242.845 200.977C242.845 200.977 242.911 201.165 242.871 201.266L225.496 245.295L225.5 245.343Z" fill="#2B6F9A"/>
<path d="M335.948 205.892L309.316 209.449C309.316 209.449 309.161 209.443 309.108 209.4L278.747 190.984C278.635 190.926 278.585 190.804 278.583 190.678L279.974 176.957L248.788 168.074L248.966 167.456L280.401 176.414C280.55 176.449 280.641 176.596 280.617 176.763L279.212 190.544L309.297 208.8L335.814 205.263L335.899 205.896L335.948 205.892Z" fill="#2B6F9A"/>
<path d="M355.878 171.393L326.998 172.831C326.998 172.831 326.901 172.84 326.86 172.814L288.515 157.854L280.614 176.841L280.01 176.604L288.03 157.315C288.102 157.144 288.29 157.078 288.45 157.132L327.027 172.178L355.829 170.737L355.867 171.375L355.878 171.393Z" fill="#2B6F9A"/>
<path d="M288.314 157.776L245.834 154.316L245.893 153.67L288.361 157.111L288.314 157.776Z" fill="#2B6F9A"/>
<path d="M288.209 151.637L289.613 155.804L293.734 154.327L290.823 157.599L294.176 160.435L289.872 159.559L289.104 163.872L287.7 159.705L283.579 161.182L286.49 157.91L283.138 155.074L287.441 155.95L288.209 151.637Z" fill="#2B6F9A"/>
<path d="M197.865 166.957L199.811 170.89L203.688 168.852L201.267 172.507L204.955 174.856L200.589 174.578L200.4 178.966L198.454 175.032L194.566 177.052L197.016 173.404L193.299 171.047L197.676 171.344L197.865 166.957Z" fill="#2B6F9A"/>
<path d="M418.336 161.881L422.71 162.255L423.007 157.878L424.842 161.879L428.787 159.952L426.262 163.519L429.91 165.969L425.524 165.576L425.227 169.954L423.403 165.971L419.459 167.898L421.973 164.312L418.336 161.881Z" fill="#2B6F9A"/>
<path d="M472.281 170.817L476.638 171.203L476.934 166.825L478.788 170.815L482.733 168.888L480.189 172.467L483.837 174.917L479.47 174.512L479.173 178.89L477.331 174.918L473.386 176.846L475.918 173.248L472.281 170.817Z" fill="#2B6F9A"/>
<path d="M483.953 135.953L487.898 134.025L485.878 130.138L489.527 132.588L491.895 128.888L491.579 133.277L495.967 133.466L492.022 135.393L494.034 139.311L490.405 136.85L488.025 140.53L488.333 136.171L483.953 135.953Z" fill="#2B6F9A"/>
<path d="M339.976 213.445L343.296 213.759L343.514 210.447L344.91 213.449L347.896 211.986L345.983 214.693L348.733 216.553L345.424 216.258L345.207 219.57L343.799 216.549L340.832 218.001L342.745 215.294L339.976 213.445Z" fill="#2B6F9A"/>
<path d="M446.198 201.031L449.518 201.345L449.736 198.033L451.132 201.035L454.118 199.572L452.186 202.29L454.955 204.139L451.646 203.844L451.428 207.156L450.021 204.136L447.035 205.598L448.966 202.881L446.198 201.031Z" fill="#2B6F9A"/>
<path d="M422.26 184.826C420.864 184.748 419.795 183.552 419.863 182.138C419.941 180.742 421.137 179.673 422.551 179.74C423.947 179.819 425.016 181.015 424.949 182.429C424.87 183.825 423.674 184.894 422.26 184.826Z" fill="#2B6F9A"/>
<path d="M411.183 225.881C409.787 225.803 408.718 224.607 408.786 223.193C408.864 221.797 410.06 220.728 411.474 220.795C412.87 220.874 413.939 222.07 413.872 223.484C413.793 224.88 412.597 225.948 411.183 225.881Z" fill="#2B6F9A"/>
<path d="M409.084 148.503C409.629 149.387 409.355 150.548 408.471 151.093C407.588 151.639 406.427 151.364 405.882 150.481C405.336 149.597 405.611 148.436 406.494 147.891C407.378 147.346 408.539 147.62 409.084 148.503Z" fill="#2B6F9A"/>
<path d="M424.472 154.939C425.356 154.393 425.631 153.234 425.085 152.35C424.539 151.465 423.379 151.191 422.495 151.737C421.611 152.283 421.336 153.443 421.882 154.327C422.428 155.211 423.588 155.485 424.472 154.939Z" fill="#2B6F9A"/>
<path d="M478.717 132.043C479.262 132.926 478.988 134.087 478.104 134.633C477.221 135.178 476.06 134.904 475.515 134.021C474.969 133.137 475.244 131.976 476.127 131.431C477.011 130.885 478.171 131.16 478.717 132.043Z" fill="#2B6F9A"/>
<path d="M489.41 156.935C490.295 156.389 490.569 155.23 490.023 154.345C489.477 153.461 488.317 153.187 487.433 153.733C486.549 154.279 486.275 155.439 486.821 156.323C487.367 157.207 488.526 157.481 489.41 156.935Z" fill="#2B6F9A"/>
<path d="M462.577 178.69C463.122 179.574 462.848 180.735 461.965 181.28C461.081 181.825 459.92 181.551 459.375 180.668C458.829 179.784 459.104 178.623 459.987 178.078C460.871 177.532 462.032 177.807 462.577 178.69Z" fill="#2B6F9A"/>
<path d="M444.38 205.128C445.264 204.582 445.539 203.422 444.992 202.538C444.446 201.654 443.287 201.38 442.403 201.926C441.518 202.472 441.244 203.631 441.79 204.516C442.336 205.4 443.496 205.674 444.38 205.128Z" fill="#2B6F9A"/>
<path d="M474.105 209.422C474.651 210.305 474.376 211.466 473.493 212.011C472.609 212.557 471.448 212.282 470.903 211.399C470.358 210.516 470.632 209.355 471.515 208.809C472.399 208.264 473.56 208.538 474.105 209.422Z" fill="#2B6F9A"/>
<path d="M477.065 217.838C477.949 217.292 478.224 216.133 477.678 215.248C477.132 214.364 475.972 214.09 475.088 214.636C474.203 215.182 473.929 216.342 474.475 217.226C475.021 218.11 476.181 218.384 477.065 217.838Z" fill="#2B6F9A"/>
<path d="M465.847 221.943C466.732 221.397 467.006 220.238 466.46 219.354C465.914 218.47 464.754 218.195 463.87 218.741C462.986 219.287 462.711 220.447 463.258 221.331C463.804 222.215 464.963 222.489 465.847 221.943Z" fill="#2B6F9A"/>
<path d="M404.614 220.431C405.498 219.885 405.772 218.725 405.226 217.841C404.68 216.957 403.521 216.683 402.637 217.229C401.752 217.775 401.478 218.934 402.024 219.818C402.57 220.703 403.73 220.977 404.614 220.431Z" fill="#2B6F9A"/>
<path d="M401.308 232.614C401.854 233.498 401.579 234.659 400.696 235.204C399.812 235.75 398.651 235.475 398.106 234.592C397.56 233.708 397.835 232.548 398.718 232.002C399.602 231.457 400.763 231.731 401.308 232.614Z" fill="#2B6F9A"/>
<path d="M438.055 176.318C438.601 177.202 438.326 178.362 437.443 178.908C436.559 179.453 435.398 179.179 434.853 178.296C434.307 177.412 434.582 176.251 435.465 175.706C436.349 175.16 437.51 175.435 438.055 176.318Z" fill="#2B6F9A"/>
<path d="M398.377 200.82C398.922 201.703 398.647 202.864 397.764 203.41C396.881 203.955 395.72 203.681 395.174 202.797C394.629 201.914 394.903 200.753 395.787 200.207C396.67 199.662 397.831 199.936 398.377 200.82Z" fill="#2B6F9A"/>
<path d="M476.247 216.513C476.247 216.513 476.21 216.536 476.192 216.547L464.956 220.664L464.736 220.062L475.596 216.076L472.278 210.703L450.544 202.923L443.44 203.853L430.249 209.126L411.521 223.588L399.903 233.838C399.822 233.913 399.701 233.963 399.589 233.905L344.251 215.304L344.458 214.693L399.606 233.233L411.088 223.093L429.86 208.578C429.86 208.578 429.915 208.544 429.933 208.533L443.258 203.228L450.513 202.256C450.513 202.256 450.609 202.247 450.669 202.261L472.593 210.101C472.593 210.101 472.716 210.178 472.75 210.233L476.33 216.03C476.33 216.03 476.395 216.218 476.356 216.319C476.323 216.39 476.28 216.442 476.224 216.476L476.247 216.513Z" fill="#2B6F9A"/>
<path d="M411.154 223.611L403.454 219.088C403.454 219.088 403.349 219 403.322 218.915L396.473 201.894C396.411 201.754 396.465 201.594 396.575 201.525L422.202 182.015C422.202 182.015 422.257 181.981 422.294 181.958L436.346 176.967C436.346 176.967 436.431 176.94 436.49 176.954L460.964 179.33L477.868 172.578L488.138 155.204L489.635 134.986L477.105 133.344L477.193 132.704L490.028 134.388C490.195 134.411 490.316 134.566 490.311 134.722L488.782 155.341C488.782 155.341 488.76 155.43 488.746 155.489L478.375 173.028C478.375 173.028 478.287 173.133 478.221 173.148L461.158 179.973C461.158 179.973 461.054 180.012 460.995 179.998L436.521 177.621L422.602 182.581L397.211 201.896L403.934 218.588L411.54 223.043L411.202 223.607L411.154 223.611Z" fill="#2B6F9A"/>
<path d="M397.034 201.98L396.495 201.601L423.773 163.811L423.157 153.591L407.394 149.801L407.542 149.176L423.524 153.034C423.524 153.034 423.771 153.186 423.784 153.331L424.423 163.917C424.423 163.917 424.407 164.055 424.374 164.126L397.027 202.009L397.034 201.98Z" fill="#2B6F9A"/>
<path d="M427.852 202.98L430.93 206.112L433.969 202.965L432.813 207.186L437.067 208.271L432.815 209.371L434.019 213.585L430.941 210.453L427.883 213.611L429.057 209.379L424.815 208.313L429.037 207.205L427.852 202.98Z" fill="#2B6F9A"/>
<path d="M632.879 176.149L636.824 174.221L634.823 170.322L638.453 172.784L640.82 169.084L640.524 173.462L644.904 173.68L640.948 175.589L642.979 179.496L639.33 177.046L636.951 180.726L637.278 176.356L632.879 176.149Z" fill="#2B6F9A"/>
<path d="M588.197 240.014L591.506 240.31L591.723 236.998L593.112 240.029L596.098 238.567L594.185 241.273L596.954 243.122L593.645 242.827L593.398 246.132L592.02 243.119L589.034 244.581L590.947 241.875L588.197 240.014Z" fill="#2B6F9A"/>
<path d="M550.925 175.662L554.216 175.968L554.452 172.645L555.829 175.658L558.815 174.196L556.914 176.921L559.653 178.763L556.344 178.467L556.126 181.779L554.748 178.766L551.762 180.229L553.664 177.504L550.925 175.662Z" fill="#2B6F9A"/>
<path d="M540.54 57.3648C539.144 57.2862 538.076 56.0906 538.143 54.6764C538.21 53.2621 539.417 52.2117 540.831 52.279C542.246 52.3462 543.296 53.5532 543.229 54.9674C543.15 56.3632 541.954 57.4321 540.54 57.3648Z" fill="#2B6F9A"/>
<path d="M572.857 91.833C571.461 91.7544 570.392 90.5588 570.46 89.1445C570.538 87.7487 571.734 86.6799 573.148 86.7471C574.544 86.8257 575.613 88.0214 575.546 89.4356C575.467 90.8314 574.271 91.9002 572.857 91.833Z" fill="#2B6F9A"/>
<path d="M498.133 100.913C496.737 100.835 495.668 99.6389 495.735 98.2247C495.814 96.8288 497.01 95.76 498.424 95.8272C499.838 95.8945 500.889 97.1015 500.821 98.5157C500.743 99.9116 499.547 100.98 498.133 100.913Z" fill="#2B6F9A"/>
<path d="M537.373 216.085C535.977 216.006 534.908 214.81 534.976 213.396C535.043 211.982 536.25 210.931 537.664 210.999C539.06 211.077 540.129 212.273 540.062 213.687C539.983 215.083 538.787 216.152 537.373 216.085Z" fill="#2B6F9A"/>
<path d="M570.74 129.821C569.345 129.742 568.276 128.547 568.343 127.132C568.422 125.737 569.617 124.668 571.032 124.735C572.428 124.814 573.496 126.009 573.429 127.423C573.362 128.838 572.155 129.888 570.74 129.821Z" fill="#2B6F9A"/>
<path d="M525.51 292.094C524.114 292.016 523.045 290.82 523.112 289.406C523.191 288.01 524.387 286.941 525.801 287.008C527.197 287.087 528.266 288.283 528.198 289.697C528.131 291.111 526.924 292.161 525.51 292.094Z" fill="#2B6F9A"/>
<path d="M535.261 211.059C536.146 210.513 536.42 209.353 535.874 208.469C535.328 207.585 534.168 207.311 533.284 207.857C532.4 208.403 532.125 209.562 532.672 210.447C533.218 211.331 534.377 211.605 535.261 211.059Z" fill="#2B6F9A"/>
<path d="M564.94 104.043C565.825 103.496 566.099 102.337 565.553 101.453C565.007 100.569 563.847 100.294 562.963 100.84C562.079 101.386 561.805 102.546 562.351 103.43C562.897 104.314 564.056 104.589 564.94 104.043Z" fill="#2B6F9A"/>
<path d="M562.409 94.0145C563.293 93.4684 563.567 92.309 563.021 91.4247C562.475 90.5405 561.316 90.2664 560.431 90.8124C559.547 91.3584 559.273 92.5179 559.819 93.4021C560.365 94.2864 561.524 94.5605 562.409 94.0145Z" fill="#2B6F9A"/>
<path d="M563.413 81.3962C563.958 82.2796 563.684 83.4405 562.8 83.9859C561.917 84.5314 560.756 84.2569 560.211 83.3736C559.665 82.4903 559.94 81.3293 560.823 80.7839C561.706 80.2384 562.867 80.5129 563.413 81.3962Z" fill="#2B6F9A"/>
<path d="M599.029 83.3742C599.574 84.2575 599.3 85.4185 598.416 85.964C597.533 86.5095 596.372 86.2349 595.827 85.3516C595.281 84.4683 595.556 83.3074 596.439 82.7619C597.322 82.2164 598.483 82.4909 599.029 83.3742Z" fill="#2B6F9A"/>
<path d="M601.534 73.5153C602.079 74.3986 601.804 75.5595 600.921 76.105C600.038 76.6505 598.877 76.376 598.331 75.4927C597.786 74.6094 598.06 73.4484 598.944 72.9029C599.827 72.3575 600.988 72.632 601.534 73.5153Z" fill="#2B6F9A"/>
<path d="M560.615 30.9627C561.16 31.846 560.886 33.007 560.002 33.5524C559.119 34.0979 557.958 33.8235 557.412 32.9401C556.867 32.0568 557.142 30.8959 558.025 30.3504C558.908 29.8049 560.069 30.0794 560.615 30.9627Z" fill="#2B6F9A"/>
<path d="M493.792 24.6394C494.338 25.5228 494.063 26.6837 493.18 27.2292C492.297 27.7746 491.136 27.5002 490.59 26.6168C490.045 25.7335 490.319 24.5726 491.203 24.0271C492.086 23.4816 493.247 23.7561 493.792 24.6394Z" fill="#2B6F9A"/>
<path d="M487.628 21.2017C488.512 20.6557 488.786 19.4962 488.24 18.612C487.694 17.7277 486.535 17.4536 485.65 17.9996C484.766 18.5457 484.492 19.7051 485.038 20.5894C485.584 21.4736 486.743 21.7477 487.628 21.2017Z" fill="#2B6F9A"/>
<path d="M574.981 50.3583C575.526 51.2417 575.252 52.4026 574.368 52.9481C573.485 53.4936 572.324 53.2191 571.779 52.3357C571.233 51.4524 571.508 50.2915 572.391 49.746C573.275 49.2005 574.436 49.475 574.981 50.3583Z" fill="#2B6F9A"/>
<path d="M552.384 114.008C552.929 114.891 552.655 116.052 551.771 116.597C550.888 117.143 549.727 116.868 549.182 115.985C548.636 115.102 548.911 113.941 549.794 113.395C550.678 112.85 551.838 113.124 552.384 114.008Z" fill="#2B6F9A"/>
<path d="M528.276 219.261C528.822 220.145 528.547 221.305 527.664 221.851C526.78 222.396 525.62 222.122 525.074 221.239C524.529 220.355 524.803 219.194 525.687 218.649C526.57 218.103 527.731 218.378 528.276 219.261Z" fill="#2B6F9A"/>
<path d="M558.832 256.723L561.929 259.844L564.968 256.697L563.812 260.918L568.055 261.984L563.814 263.103L565.018 267.317L561.939 264.184L558.882 267.343L560.056 263.111L555.784 262.037L560.036 260.937L558.832 256.723Z" fill="#2B6F9A"/>
<path d="M537.704 213.821L526.864 220.515C526.735 220.594 526.568 220.57 526.452 220.464C526.354 220.347 526.329 220.184 526.424 220.049L534.033 209.276L534.572 209.654L527.896 219.14L537.393 213.276L537.734 213.828L537.704 213.821Z" fill="#2B6F9A"/>
<path d="M525.822 289.842C525.73 289.899 525.604 289.901 525.492 289.843C525.38 289.785 525.319 289.645 525.329 289.537L530.122 236.576L526.354 220.347L527.001 220.201L530.785 236.497C530.785 236.497 530.8 236.564 530.793 236.594L526.059 288.908L561.384 262.544L531.995 238.622L532.397 238.12L562.101 262.305C562.101 262.305 562.203 262.471 562.212 262.567C562.202 262.675 562.151 262.757 562.089 262.821L525.845 289.879C525.845 289.879 525.845 289.879 525.826 289.89L525.822 289.842Z" fill="#2B6F9A"/>
<path d="M562.085 262.773L561.744 262.221L592.243 241.379L599.091 186.312L555.468 177.584L531.831 234.733L531.227 234.496L554.969 177.105C555.034 176.963 555.181 176.872 555.33 176.907L599.506 185.75C599.673 185.774 599.776 185.939 599.752 186.107L592.847 241.617C592.847 241.617 592.775 241.788 592.713 241.852L562.048 262.796L562.085 262.773Z" fill="#2B6F9A"/>
<path d="M599.753 185.903L599.167 186.188L570.584 127.426L563.793 103.048L551.015 115.209C550.916 115.295 550.813 115.334 550.701 115.276L498.193 98.6643L498.389 98.0349L550.718 114.604L563.744 102.188C563.825 102.113 563.947 102.063 564.048 102.103C564.167 102.131 564.242 102.212 564.262 102.326L571.182 127.159L599.742 185.884L599.753 185.903Z" fill="#2B6F9A"/>
<path d="M564.266 102.374L563.63 102.538L561.098 92.5103C561.098 92.5103 561.064 92.4551 561.09 92.414L561.472 82.4933L540.452 55.081L492.013 25.9161C492.013 25.9161 491.961 25.8723 491.949 25.8539L486.397 19.8263C486.31 19.7273 486.286 19.5643 486.344 19.4523C486.402 19.3403 486.531 19.2607 486.68 19.2959L559.043 31.6284L558.925 32.2605L487.499 20.0867L492.374 25.3885L540.824 54.5717C540.824 54.5717 540.876 54.6156 540.917 54.641L562.046 82.1891C562.046 82.1891 562.126 82.318 562.105 82.4073L561.727 92.3761L564.255 102.356L564.266 102.374Z" fill="#2B6F9A"/>
<path d="M597.598 84.639C597.598 84.639 597.58 84.6503 597.561 84.6617C597.469 84.7185 597.362 84.7087 597.279 84.6578L540.534 55.1319L540.842 54.5604L597.24 83.8942L599.604 74.6307L573.209 51.6052L573.64 51.11L600.193 74.267C600.286 74.3363 600.318 74.4695 600.289 74.5886L597.785 84.4473C597.785 84.4473 597.702 84.6005 597.646 84.6346L597.598 84.639Z" fill="#2B6F9A"/>
<path d="M638.642 175.107L580.941 98.2549L572.81 89.5745L561.663 82.68L562.012 82.1339L573.2 89.0539C573.2 89.0539 573.241 89.0794 573.264 89.1162L581.459 97.8588L639.182 174.748L638.664 175.144L638.642 175.107Z" fill="#2B6F9A"/>
<path d="M525.583 233.837L529.911 234.546L530.512 230.21L532.055 234.315L536.134 232.686L533.35 236.083L536.798 238.784L532.489 238.063L531.858 242.393L530.314 238.288L526.247 239.935L529.031 236.539L525.583 233.837Z" fill="#2B6F9A"/>
<path d="M596.719 180.125L599.463 183.54L602.833 180.722L601.238 184.808L605.363 186.302L601.024 186.973L601.78 191.285L599.036 187.87L595.685 190.677L597.28 186.591L593.154 185.097L597.475 184.437L596.719 180.125Z" fill="#2B6F9A"/>
<path d="M579.803 92.5009L581.97 96.2978L585.728 94.0277L583.525 97.8286L587.365 99.931L582.984 99.9166L583.077 104.308L580.881 100.504L577.14 102.762L579.355 98.98L575.503 96.8591L579.885 96.8736L579.803 92.5009Z" fill="#2B6F9A"/>
<path d="M683.273 124.618L686.582 124.914L686.799 121.602L688.207 124.622L691.174 123.171L689.261 125.877L692.03 127.726L688.721 127.431L688.492 130.724L687.096 127.723L684.11 129.185L686.023 126.479L683.273 124.618Z" fill="#2B6F9A"/>
<path d="M684.147 156.54C682.751 156.461 681.682 155.265 681.75 153.851C681.817 152.437 683.024 151.386 684.438 151.454C685.853 151.521 686.903 152.728 686.836 154.142C686.757 155.538 685.561 156.607 684.147 156.54Z" fill="#2B6F9A"/>
<path d="M769.927 219.129C770.472 220.012 770.198 221.173 769.314 221.719C768.431 222.264 767.27 221.99 766.724 221.106C766.179 220.223 766.454 219.062 767.337 218.517C768.22 217.971 769.381 218.246 769.927 219.129Z" fill="#2B6F9A"/>
<path d="M710.952 177.431C711.498 178.314 711.223 179.475 710.34 180.02C709.457 180.566 708.296 180.291 707.75 179.408C707.205 178.525 707.479 177.364 708.363 176.818C709.246 176.273 710.407 176.547 710.952 177.431Z" fill="#2B6F9A"/>
<path d="M631.589 90.5687C632.135 91.4521 631.86 92.613 630.977 93.1585C630.093 93.704 628.932 93.4295 628.387 92.5462C627.841 91.6628 628.116 90.5019 628.999 89.9564C629.883 89.4109 631.044 89.6854 631.589 90.5687Z" fill="#2B6F9A"/>
<path d="M653.734 196.087C654.28 196.971 654.005 198.132 653.122 198.677C652.238 199.223 651.077 198.948 650.532 198.065C649.986 197.182 650.261 196.021 651.144 195.475C652.028 194.93 653.189 195.204 653.734 196.087Z" fill="#2B6F9A"/>
<path d="M664.764 209.256C665.309 210.14 665.035 211.301 664.151 211.846C663.268 212.392 662.107 212.117 661.562 211.234C661.016 210.351 661.291 209.19 662.174 208.644C663.058 208.099 664.219 208.373 664.764 209.256Z" fill="#2B6F9A"/>
<path d="M668.266 262.23L672.211 260.302L670.209 256.403L673.839 258.864L676.207 255.165L675.911 259.543L680.279 259.743L676.335 261.67L678.354 265.558L674.706 263.108L672.338 266.807L672.653 262.419L668.266 262.23Z" fill="#2B6F9A"/>
<path d="M705.802 305.727C704.406 305.649 703.337 304.453 703.405 303.039C703.483 301.643 704.679 300.574 706.094 300.641C707.489 300.72 708.558 301.916 708.491 303.33C708.412 304.726 707.216 305.794 705.802 305.727Z" fill="#2B6F9A"/>
<path d="M730.716 246.036C729.32 245.957 728.252 244.762 728.319 243.348C728.398 241.952 729.593 240.883 731.008 240.95C732.403 241.029 733.472 242.224 733.405 243.639C733.326 245.034 732.131 246.103 730.716 246.036Z" fill="#2B6F9A"/>
<path d="M671.085 232.502C669.689 232.423 668.62 231.228 668.687 229.814C668.766 228.418 669.962 227.349 671.376 227.416C672.772 227.495 673.84 228.69 673.773 230.105C673.706 231.519 672.499 232.569 671.085 232.502Z" fill="#2B6F9A"/>
<path d="M704.322 336.306C704.868 337.189 704.593 338.35 703.71 338.896C702.826 339.441 701.665 339.167 701.12 338.283C700.574 337.4 700.849 336.239 701.732 335.694C702.616 335.148 703.777 335.423 704.322 336.306Z" fill="#2B6F9A"/>
<path d="M690.839 326.863C691.385 327.747 691.11 328.907 690.227 329.453C689.343 329.998 688.182 329.724 687.637 328.841C687.092 327.957 687.366 326.796 688.249 326.251C689.133 325.705 690.294 325.98 690.839 326.863Z" fill="#2B6F9A"/>
<path d="M706.993 281.555C707.877 281.009 708.151 279.849 707.605 278.965C707.059 278.081 705.9 277.807 705.015 278.353C704.131 278.899 703.857 280.058 704.403 280.943C704.949 281.827 706.108 282.101 706.993 281.555Z" fill="#2B6F9A"/>
<path d="M640.135 286.083C640.062 287.119 639.182 287.916 638.158 287.863C637.122 287.791 636.324 286.911 636.378 285.886C636.45 284.85 637.33 284.052 638.355 284.106C639.391 284.178 640.188 285.058 640.135 286.083Z" fill="#2B6F9A"/>
<path d="M688.128 233.137C688.056 234.173 687.175 234.971 686.151 234.917C685.115 234.845 684.317 233.965 684.371 232.941C684.443 231.905 685.323 231.107 686.348 231.161C687.384 231.233 688.181 232.113 688.128 233.137Z" fill="#2B6F9A"/>
<path d="M667.431 220.904C667.359 221.94 666.479 222.738 665.454 222.684C664.43 222.631 663.621 221.732 663.674 220.707C663.728 219.683 664.627 218.874 665.651 218.928C666.676 218.981 667.485 219.88 667.431 220.904Z" fill="#2B6F9A"/>
<path d="M663.813 320.064C664.358 320.947 664.084 322.108 663.2 322.654C662.317 323.199 661.156 322.925 660.611 322.042C660.065 321.158 660.34 319.997 661.223 319.452C662.106 318.906 663.267 319.181 663.813 320.064Z" fill="#2B6F9A"/>
<path d="M665.123 300.038C665.668 300.921 665.394 302.082 664.51 302.627C663.627 303.173 662.466 302.898 661.921 302.015C661.375 301.132 661.65 299.971 662.533 299.425C663.417 298.88 664.577 299.154 665.123 300.038Z" fill="#2B6F9A"/>
<path d="M727.04 293.807L730.349 294.103L730.567 290.791L731.945 293.804L734.931 292.341L733.029 295.066L735.786 296.897L732.477 296.602L732.241 299.925L730.864 296.912L727.878 298.374L729.791 295.668L727.04 293.807Z" fill="#2B6F9A"/>
<path d="M731.575 295.634C731.575 295.634 731.52 295.668 731.501 295.679L706.03 303.502C706.03 303.502 705.826 303.501 705.744 303.45C705.661 303.399 705.623 303.296 705.614 303.199L705.685 279.973L708.544 238.247L709.179 238.287L706.309 279.994L706.236 302.765L731.064 295.136L730.529 243.508L731.177 243.489L731.735 295.357C731.735 295.357 731.667 295.577 731.575 295.634Z" fill="#2B6F9A"/>
<path d="M674.452 261.257C674.452 261.257 674.312 261.318 674.223 261.297C674.085 261.28 673.957 261.155 673.945 261.011L670.905 230.071L665.28 220.961L665.832 220.621L671.503 229.803C671.503 229.803 671.548 229.877 671.546 229.955L674.47 259.721L685.944 232.935L686.541 233.202L674.57 261.159C674.57 261.159 674.493 261.282 674.438 261.316L674.452 261.257Z" fill="#2B6F9A"/>
<path d="M702.532 337.564L688.947 327.956C688.801 327.843 688.765 327.661 688.867 327.497L705.652 302.973L706.18 303.333L689.565 327.599L702.881 337.018L702.502 337.557L702.532 337.564Z" fill="#2B6F9A"/>
<path d="M684.743 340.414L684.706 340.437C684.632 340.483 684.525 340.473 684.454 340.44L663.2 330.763C663.2 330.763 663.031 330.613 663.011 330.498L661.911 321.06L663.216 301.19L638.119 286.235L638.456 285.67L663.719 300.727C663.719 300.727 663.88 300.907 663.882 301.033L662.56 321.041L663.638 330.238L684.426 339.695L688.903 327.474L689.526 327.7L684.922 340.253C684.922 340.253 684.846 340.376 684.791 340.41L684.743 340.414Z" fill="#2B6F9A"/>
<path d="M663.831 301.115L663.213 300.937L673.973 260.892L674.591 261.069L663.831 301.115Z" fill="#2B6F9A"/>
<path d="M681.702 335.531L684.787 338.633L687.837 335.504L686.681 339.726L690.924 340.792L686.672 341.892L687.876 346.106L684.809 342.992L681.74 346.132L682.914 341.9L678.653 340.845L682.905 339.744L681.702 335.531Z" fill="#2B6F9A"/>
<path d="M660.489 325.345L663.586 328.466L666.625 325.318L665.469 329.54L669.723 330.624L665.471 331.725L666.675 335.938L663.597 332.806L660.539 335.965L661.713 331.732L657.452 330.677L661.693 329.558L660.489 325.345Z" fill="#2B6F9A"/>
<path d="M705.803 231.832L708.87 234.945L711.92 231.816L710.764 236.038L715.007 237.104L710.755 238.204L711.958 242.418L708.892 239.304L705.823 242.445L706.997 238.212L702.754 237.146L706.988 236.057L705.803 231.832Z" fill="#2B6F9A"/>
<path d="M770.602 301.53L773.923 301.843L774.159 298.52L775.536 301.533L778.522 300.071L776.609 302.777L779.36 304.638L776.05 304.342L775.833 307.654L774.444 304.623L771.458 306.085L773.371 303.379L770.602 301.53Z" fill="#2B6F9A"/>
<path d="M775.103 302.966L774.653 303.433L794.689 322.757L795.139 322.29L775.103 302.966Z" fill="#2B6F9A"/>
<path d="M793.027 317.754L796.093 320.868L799.162 317.728L797.988 321.961L802.249 323.015L797.997 324.116L799.201 328.329L796.134 325.215L793.065 328.356L794.239 324.123L789.978 323.068L794.23 321.968L793.027 317.754Z" fill="#2B6F9A"/>
<path d="M764.858 451.012C763.462 450.933 762.393 449.738 762.46 448.323C762.539 446.928 763.735 445.859 765.149 445.926C766.563 445.993 767.614 447.2 767.546 448.614C767.468 450.01 766.272 451.079 764.858 451.012Z" fill="#2B6F9A"/>
<path d="M781.453 385.095C780.057 385.016 778.989 383.82 779.056 382.406C779.123 380.992 780.33 379.942 781.745 380.009C783.14 380.087 784.209 381.283 784.142 382.697C784.063 384.093 782.868 385.162 781.453 385.095Z" fill="#2B6F9A"/>
<path d="M686.168 420.242C684.772 420.163 683.704 418.968 683.771 417.553C683.838 416.139 685.045 415.089 686.459 415.156C687.855 415.235 688.924 416.43 688.857 417.845C688.778 419.24 687.582 420.309 686.168 420.242Z" fill="#2B6F9A"/>
<path d="M727.921 405.441C728.806 404.895 729.08 403.735 728.534 402.851C727.988 401.967 726.828 401.693 725.944 402.239C725.06 402.785 724.786 403.944 725.332 404.828C725.878 405.713 727.037 405.987 727.921 405.441Z" fill="#2B6F9A"/>
<path d="M723.154 416.163C723.7 417.046 723.425 418.207 722.542 418.753C721.658 419.298 720.497 419.024 719.952 418.14C719.406 417.257 719.681 416.096 720.564 415.551C721.448 415.005 722.609 415.28 723.154 416.163Z" fill="#2B6F9A"/>
<path d="M739.53 404.602C740.414 404.056 740.688 402.897 740.142 402.012C739.596 401.128 738.437 400.854 737.552 401.4C736.668 401.946 736.394 403.105 736.94 403.99C737.486 404.874 738.645 405.148 739.53 404.602Z" fill="#2B6F9A"/>
<path d="M733.865 420.581L737.174 420.877L737.391 417.565L738.769 420.578L741.755 419.115L739.842 421.822L742.611 423.671L739.302 423.376L739.066 426.699L737.688 423.686L734.702 425.148L736.604 422.423L733.865 420.581Z" fill="#2B6F9A"/>
<path d="M764.758 448.709L737.97 422.495C737.97 422.495 737.879 422.348 737.87 422.251L738.229 402.99C738.229 402.99 738.297 402.77 738.407 402.702L781.45 382.249L781.736 382.836L738.889 403.193L738.547 422.113L765.249 448.228L764.795 448.687L764.758 448.709Z" fill="#2B6F9A"/>
<path d="M721.723 417.428C721.723 417.428 721.631 417.485 721.553 417.482L686.299 418.026L686.28 417.377L721.33 416.832L726.914 403.521C726.914 403.521 727.071 403.322 727.209 403.339L738.534 402.701L738.571 403.338L727.45 403.978L721.866 417.289C721.866 417.289 721.79 417.412 721.735 417.446L721.723 417.428Z" fill="#2B6F9A"/>
<path d="M721.612 416.759L721.422 417.38L738.069 422.483L738.259 421.863L721.612 416.759Z" fill="#2B6F9A"/>
<path d="M690.979 495.92L694.27 496.226L694.517 492.922L695.895 495.935L698.881 494.472L696.968 497.179L699.718 499.039L696.428 498.732L696.192 502.056L694.803 499.024L691.816 500.487L693.73 497.78L690.979 495.92Z" fill="#2B6F9A"/>
<path d="M688.536 545.853L692.904 546.257L693.201 541.88L695.043 545.851L698.97 543.935L696.444 547.503L700.093 549.952L695.706 549.56L695.41 553.937L693.586 549.954L689.641 551.882L692.155 548.296L688.536 545.853Z" fill="#2B6F9A"/>
<path d="M663.4 621.899L667.58 623.233L668.813 619.014L669.762 623.309L674.018 622.256L670.788 625.217L673.822 628.402L669.643 627.068L668.398 631.268L667.461 626.992L663.193 628.026L666.435 625.084L663.4 621.899Z" fill="#2B6F9A"/>
<path d="M759.139 518.448C757.743 518.369 756.675 517.174 756.742 515.76C756.821 514.364 758.016 513.295 759.431 513.362C760.827 513.441 761.895 514.636 761.828 516.051C761.761 517.465 760.554 518.515 759.139 518.448Z" fill="#2B6F9A"/>
<path d="M680.982 538.189C679.586 538.11 678.518 536.915 678.585 535.501C678.652 534.086 679.859 533.036 681.274 533.103C682.669 533.182 683.738 534.377 683.671 535.792C683.592 537.187 682.397 538.256 680.982 538.189Z" fill="#2B6F9A"/>
<path d="M695.694 665.304C694.298 665.225 693.229 664.029 693.296 662.615C693.375 661.219 694.571 660.151 695.985 660.218C697.381 660.296 698.45 661.492 698.383 662.906C698.304 664.302 697.108 665.371 695.694 665.304Z" fill="#2B6F9A"/>
<path d="M651.133 611.172C649.737 611.093 648.668 609.897 648.736 608.483C648.814 607.087 650.01 606.018 651.424 606.086C652.82 606.164 653.889 607.36 653.822 608.774C653.743 610.17 652.547 611.239 651.133 611.172Z" fill="#2B6F9A"/>
<path d="M727.666 545.534L733.639 548.125L736.088 542.088L736.853 548.555L743.3 547.675L738.063 551.544L742.08 556.69L736.089 554.11L733.64 560.148L732.893 553.669L726.427 554.561L731.683 550.68L727.666 545.534Z" fill="#2B6F9A"/>
<path d="M630.795 659.42L636.767 662.01L639.217 655.973L639.963 662.452L646.418 661.542L641.192 665.43L645.179 670.568L639.207 667.978L636.757 674.015L636.011 667.536L629.556 668.446L634.782 664.558L630.795 659.42Z" fill="#2B6F9A"/>
<path d="M745.059 556.451C745.944 555.905 746.218 554.746 745.672 553.862C745.126 552.977 743.966 552.703 743.082 553.249C742.198 553.795 741.923 554.955 742.469 555.839C743.015 556.723 744.175 556.997 745.059 556.451Z" fill="#2B6F9A"/>
<path d="M705.06 482.166C705.945 481.62 706.219 480.461 705.673 479.577C705.127 478.692 703.967 478.418 703.083 478.964C702.199 479.51 701.925 480.67 702.471 481.554C703.017 482.438 704.176 482.712 705.06 482.166Z" fill="#2B6F9A"/>
<path d="M682.752 503.262C683.636 502.716 683.91 501.557 683.364 500.673C682.818 499.789 681.659 499.514 680.775 500.06C679.89 500.606 679.616 501.766 680.162 502.65C680.708 503.534 681.868 503.809 682.752 503.262Z" fill="#2B6F9A"/>
<path d="M730.342 590.171C730.887 591.054 730.613 592.215 729.73 592.761C728.846 593.306 727.685 593.032 727.14 592.148C726.594 591.265 726.869 590.104 727.752 589.559C728.636 589.013 729.797 589.288 730.342 590.171Z" fill="#2B6F9A"/>
<path d="M716.577 537.867C717.122 538.75 716.848 539.911 715.964 540.457C715.081 541.002 713.92 540.728 713.374 539.844C712.829 538.961 713.104 537.8 713.987 537.255C714.87 536.709 716.031 536.984 716.577 537.867Z" fill="#2B6F9A"/>
<path d="M679.547 650.846C680.092 651.729 679.818 652.89 678.934 653.436C678.051 653.981 676.89 653.707 676.344 652.823C675.799 651.94 676.074 650.779 676.957 650.234C677.84 649.688 679.001 649.963 679.547 650.846Z" fill="#2B6F9A"/>
<path d="M663.839 596.056C664.384 596.939 664.11 598.1 663.226 598.645C662.343 599.191 661.182 598.916 660.637 598.033C660.091 597.15 660.366 595.989 661.249 595.443C662.132 594.898 663.293 595.172 663.839 596.056Z" fill="#2B6F9A"/>
<path d="M728.912 591.436C728.912 591.436 728.742 591.49 728.652 591.469C728.492 591.415 728.401 591.268 728.425 591.101L734.679 551.168L714.951 539.227L694.439 548.207C694.329 548.275 694.18 548.24 694.093 548.141L680.912 535.894C680.912 535.894 680.821 535.746 680.813 535.65L681.433 501.662C681.432 501.536 681.526 501.401 681.659 501.37L694.992 497.026L703.77 480.446L704.341 480.755L695.488 497.457C695.488 497.457 695.393 497.592 695.308 497.619L682.06 501.936L681.435 535.546L694.36 547.544L714.835 538.587C714.835 538.587 715.046 538.558 715.128 538.609L735.186 550.754C735.298 550.812 735.359 550.952 735.342 551.089L729.466 588.628L743.769 554.732L758.979 515.801L759.583 516.038L744.373 554.969L729.036 591.308C729.036 591.308 728.96 591.431 728.904 591.465L728.912 591.436Z" fill="#2B6F9A"/>
<path d="M638.305 665.077L637.68 664.929L650.977 608.573C650.977 608.573 651.017 608.473 651.061 608.42L662.023 596.821L694.047 547.737L694.593 548.086L662.526 597.222L651.581 608.81L638.305 665.077Z" fill="#2B6F9A"/>
<path d="M695.665 663.034L677.774 652.093C677.774 652.093 677.658 651.987 677.642 651.92L668.93 624.966L651.063 608.876L651.506 608.399L669.436 624.552C669.436 624.552 669.493 624.644 669.527 624.699L678.247 651.623L696.044 662.495L695.695 663.041L695.665 663.034Z" fill="#2B6F9A"/>
<path d="M498.326 619.281L502.641 618.447L501.722 614.159L504.583 617.476L507.825 614.533L506.39 618.673L510.581 620.025L506.255 620.841L507.203 625.136L504.312 621.812L501.07 624.755L502.505 620.615L498.326 619.281Z" fill="#2B6F9A"/>
<path d="M403.394 646.355L407.72 645.539L406.79 641.233L409.663 644.568L412.923 641.615L411.47 645.766L415.649 647.1L411.334 647.934L412.272 652.21L409.392 648.905L406.15 651.847L407.585 647.707L403.394 646.355Z" fill="#2B6F9A"/>
<path d="M393.411 701.122L397.726 700.287L396.807 696L399.669 699.317L402.929 696.363L401.487 700.532L405.667 701.866L401.352 702.701L402.289 706.977L399.409 703.671L396.167 706.614L397.602 702.474L393.411 701.122Z" fill="#2B6F9A"/>
<path d="M467.975 730.932L471.295 731.245L471.513 727.934L472.89 730.947L475.876 729.484L473.963 732.19L476.732 734.04L473.423 733.744L473.187 737.067L471.798 734.036L468.812 735.499L470.725 732.792L467.975 730.932Z" fill="#2B6F9A"/>
<path d="M363.092 672.563C361.696 672.485 360.627 671.289 360.694 669.875C360.762 668.461 361.969 667.41 363.383 667.477C364.779 667.556 365.848 668.752 365.78 670.166C365.702 671.562 364.506 672.631 363.092 672.563Z" fill="#2B6F9A"/>
<path d="M420.096 610.952C418.701 610.873 417.632 609.678 417.699 608.263C417.778 606.868 418.974 605.799 420.388 605.866C421.784 605.945 422.852 607.14 422.785 608.554C422.706 609.95 421.511 611.019 420.096 610.952Z" fill="#2B6F9A"/>
<path d="M414.045 686.576C412.649 686.497 411.581 685.301 411.648 683.887C411.727 682.491 412.922 681.423 414.337 681.49C415.732 681.568 416.801 682.764 416.734 684.178C416.655 685.574 415.459 686.643 414.045 686.576Z" fill="#2B6F9A"/>
<path d="M355.533 650.566C356.417 650.02 356.691 648.86 356.145 647.976C355.599 647.092 354.44 646.817 353.556 647.364C352.671 647.91 352.397 649.069 352.943 649.953C353.489 650.837 354.649 651.112 355.533 650.566Z" fill="#2B6F9A"/>
<path d="M380.529 636.58C381.074 637.463 380.8 638.624 379.916 639.169C379.033 639.715 377.872 639.44 377.327 638.557C376.781 637.674 377.056 636.513 377.939 635.967C378.822 635.422 379.983 635.696 380.529 636.58Z" fill="#2B6F9A"/>
<path d="M410.047 582.739C410.931 582.193 411.206 581.033 410.66 580.149C410.114 579.265 408.954 578.991 408.07 579.537C407.186 580.083 406.911 581.242 407.457 582.127C408.003 583.011 409.163 583.285 410.047 582.739Z" fill="#2B6F9A"/>
<path d="M485.088 742.302C485.633 743.185 485.359 744.346 484.475 744.891C483.592 745.437 482.431 745.162 481.885 744.279C481.34 743.396 481.615 742.235 482.498 741.689C483.381 741.144 484.542 741.418 485.088 742.302Z" fill="#2B6F9A"/>
<path d="M411.829 766.847C412.714 766.301 412.988 765.141 412.442 764.257C411.896 763.373 410.736 763.099 409.852 763.645C408.968 764.191 408.694 765.35 409.24 766.234C409.786 767.119 410.945 767.393 411.829 766.847Z" fill="#2B6F9A"/>
<path d="M483.256 743.534L472.167 732.74L442.675 735.369L411.055 765.469L410.615 765.004L442.316 734.829C442.316 734.829 442.445 734.749 442.511 734.733L472.263 732.071C472.263 732.071 472.448 732.084 472.524 732.164L483.71 743.076L483.256 743.534Z" fill="#2B6F9A"/>
<path d="M442.712 735.347C442.602 735.415 442.446 735.409 442.341 735.322L399.215 701.834L363.022 670.268C363.022 670.268 362.976 670.194 362.942 670.139L354.245 649.098L354.854 648.849L363.268 669.226L378.644 637.438C378.709 637.297 378.868 637.224 379.028 637.278L409.805 646.158C409.805 646.158 410.022 646.304 410.024 646.43L414.52 683.969L442.84 734.937C442.92 735.066 442.878 735.244 442.76 735.342L442.723 735.365L442.712 735.347ZM363.633 669.941L399.635 701.32L441.498 733.834L413.93 684.207C413.93 684.207 413.884 684.133 413.88 684.085L409.408 646.708L379.1 637.97L363.633 669.941Z" fill="#2B6F9A"/>
<path d="M410.014 646.537L409.378 646.371C411.699 637.821 419.12 610.564 419.904 608.376C419.718 607.169 413.161 591.569 408.741 581.283L409.35 581.034C420.912 608.033 420.617 608.419 420.49 608.625C420.151 609.393 413.472 633.777 410.007 646.567L410.014 646.537Z" fill="#2B6F9A"/>
<path d="M435.655 734.417L439.952 733.594L439.033 729.306L441.895 732.623L445.155 729.669L443.731 733.827L447.892 735.173L443.596 735.996L444.515 740.283L441.653 736.966L438.393 739.92L439.828 735.78L435.655 734.417Z" fill="#2B6F9A"/>
<path d="M312.913 683.848C311.517 683.77 310.449 682.574 310.516 681.16C310.595 679.764 311.79 678.695 313.205 678.762C314.6 678.841 315.669 680.037 315.602 681.451C315.523 682.847 314.328 683.915 312.913 683.848Z" fill="#2B6F9A"/>
<path d="M292.505 693.984C291.11 693.906 290.041 692.71 290.108 691.296C290.175 689.881 291.382 688.831 292.797 688.898C294.193 688.977 295.261 690.173 295.194 691.587C295.115 692.983 293.92 694.051 292.505 693.984Z" fill="#2B6F9A"/>
<path d="M310.476 669.898C311.361 669.352 311.635 668.192 311.089 667.308C310.543 666.424 309.383 666.15 308.499 666.696C307.615 667.242 307.34 668.401 307.886 669.285C308.432 670.17 309.592 670.444 310.476 669.898Z" fill="#2B6F9A"/>
<path d="M275.187 669.396C276.071 668.85 276.345 667.69 275.799 666.806C275.253 665.922 274.094 665.648 273.209 666.194C272.325 666.74 272.051 667.899 272.597 668.784C273.143 669.668 274.302 669.942 275.187 669.396Z" fill="#2B6F9A"/>
<path d="M277.254 681.719C277.8 682.602 277.525 683.763 276.642 684.308C275.758 684.854 274.598 684.579 274.052 683.696C273.507 682.813 273.781 681.652 274.665 681.106C275.548 680.561 276.709 680.835 277.254 681.719Z" fill="#2B6F9A"/>
<path d="M284.565 691.211C285.449 690.665 285.723 689.505 285.177 688.621C284.631 687.737 283.472 687.463 282.588 688.009C281.703 688.555 281.429 689.714 281.975 690.598C282.521 691.483 283.681 691.757 284.565 691.211Z" fill="#2B6F9A"/>
<path d="M303.968 691.634C303.968 691.634 303.876 691.691 303.798 691.688L292.666 691.775L283.528 689.944C283.528 689.944 283.428 689.905 283.375 689.861L275.441 682.94C275.441 682.94 275.35 682.793 275.316 682.738L273.872 667.844L274.517 667.776L275.959 682.544L283.724 689.315L292.714 691.11L303.641 691.023L312.687 681.217L309.155 668.375L309.779 668.193L313.365 681.205C313.365 681.205 313.376 681.427 313.295 681.503L304.019 691.552C304.019 691.552 303.964 691.586 303.945 691.597L303.968 691.634Z" fill="#2B6F9A"/>
<path d="M299.521 687.644L303.528 689.44L305.213 685.375L305.673 689.743L310.032 689.186L306.485 691.758L309.148 695.248L305.134 693.482L303.457 697.517L302.979 693.16L298.638 693.706L302.185 691.134L299.521 687.644Z" fill="#2B6F9A"/>
<path d="M210.058 764.825L213.549 762.161L210.804 758.746L214.87 760.43L216.465 756.344L217.01 760.685L221.36 760.032L217.87 762.695L220.614 766.11L216.549 764.426L214.954 768.512L214.409 764.172L210.058 764.825Z" fill="#2B6F9A"/>
<path d="M119.389 705.966C117.993 705.888 116.924 704.692 116.991 703.278C117.07 701.882 118.266 700.813 119.68 700.88C121.076 700.959 122.144 702.155 122.077 703.569C122.01 704.983 120.803 706.034 119.389 705.966Z" fill="#2B6F9A"/>
<path d="M328.512 806.018C327.116 805.939 326.047 804.744 326.114 803.329C326.193 801.934 327.389 800.865 328.803 800.932C330.199 801.01 331.267 802.206 331.2 803.62C331.122 805.016 329.926 806.085 328.512 806.018Z" fill="#2B6F9A"/>
<path d="M325.926 799.073C326.811 798.527 327.085 797.368 326.539 796.483C325.993 795.599 324.833 795.325 323.949 795.871C323.065 796.417 322.791 797.577 323.337 798.461C323.883 799.345 325.042 799.619 325.926 799.073Z" fill="#2B6F9A"/>
<path d="M350.507 782.192C351.052 783.075 350.778 784.236 349.894 784.781C349.011 785.327 347.85 785.052 347.305 784.169C346.759 783.286 347.034 782.125 347.917 781.579C348.801 781.034 349.961 781.308 350.507 782.192Z" fill="#2B6F9A"/>
<path d="M314.869 814.925C315.754 814.379 316.028 813.219 315.482 812.335C314.936 811.451 313.776 811.177 312.892 811.723C312.008 812.269 311.733 813.428 312.279 814.313C312.825 815.197 313.985 815.471 314.869 814.925Z" fill="#2B6F9A"/>
<path d="M228.288 761.371C228.834 762.255 228.559 763.416 227.676 763.961C226.792 764.507 225.632 764.232 225.086 763.349C224.541 762.465 224.815 761.304 225.699 760.759C226.582 760.213 227.743 760.488 228.288 761.371Z" fill="#2B6F9A"/>
<path d="M107.845 705.799C108.391 706.682 108.116 707.843 107.233 708.388C106.35 708.934 105.189 708.659 104.643 707.776C104.098 706.893 104.372 705.732 105.256 705.186C106.139 704.641 107.3 704.915 107.845 705.799Z" fill="#2B6F9A"/>
<path d="M333.154 750.507C333.699 751.39 333.424 752.551 332.541 753.097C331.658 753.642 330.497 753.368 329.951 752.485C329.406 751.601 329.68 750.44 330.564 749.895C331.447 749.349 332.608 749.624 333.154 750.507Z" fill="#2B6F9A"/>
<path d="M316.804 744.944C317.35 745.827 317.075 746.988 316.192 747.534C315.309 748.079 314.148 747.805 313.602 746.922C313.057 746.038 313.331 744.877 314.215 744.332C315.098 743.786 316.259 744.061 316.804 744.944Z" fill="#2B6F9A"/>
<path d="M330.596 736.402C331.48 735.856 331.754 734.697 331.208 733.813C330.662 732.928 329.503 732.654 328.619 733.2C327.734 733.746 327.46 734.906 328.006 735.79C328.552 736.674 329.712 736.948 330.596 736.402Z" fill="#2B6F9A"/>
<path d="M138.077 688.682L141.144 691.796L144.212 688.655L143.038 692.888L147.281 693.954L143.047 695.043L144.233 699.268L141.166 696.154L138.115 699.283L139.271 695.062L135.028 693.996L139.28 692.895L138.077 688.682Z" fill="#2B6F9A"/>
<path d="M59.1115 507.902L62.4206 508.197L62.6381 504.886L64.027 507.917L67.0133 506.454L65.1002 509.161L67.8505 511.021L64.5598 510.715L64.3239 514.038L62.9349 511.006L59.9487 512.469L61.8618 509.762L59.1115 507.902Z" fill="#2B6F9A"/>
<path d="M65.47 523.345C64.0742 523.267 63.0054 522.071 63.0727 520.657C63.1514 519.261 64.3471 518.192 65.7614 518.26C67.1572 518.338 68.226 519.534 68.1587 520.948C68.0801 522.344 66.8843 523.413 65.47 523.345Z" fill="#2B6F9A"/>
<path d="M61.8193 520.973C62.7036 520.427 62.9778 519.268 62.4318 518.384C61.8857 517.499 60.7263 517.225 59.842 517.771C58.9577 518.317 58.6835 519.477 59.2295 520.361C59.7755 521.245 60.935 521.519 61.8193 520.973Z" fill="#2B6F9A"/>
<path d="M64.2011 489.838C64.7465 490.721 64.472 491.882 63.5886 492.428C62.7052 492.973 61.5443 492.699 60.9988 491.815C60.4534 490.932 60.7279 489.771 61.6113 489.226C62.4947 488.68 63.6556 488.955 64.2011 489.838Z" fill="#2B6F9A"/>
<path d="M65.9453 520.739L65.2865 520.866L63.1058 509.553L62.2628 490.857L62.9302 490.826L63.7504 509.486L65.9453 520.739Z" fill="#2B6F9A"/>
<path d="M61.152 519.276L60.5387 519.476C60.2698 518.753 62.2636 512.183 63.1294 509.386L63.7588 509.582C62.4333 513.858 61.0703 518.691 61.1704 519.264L61.152 519.276Z" fill="#2B6F9A"/>
<path d="M145.109 534.286L149.477 534.69L149.773 530.313L151.616 534.285L155.56 532.357L153.017 535.936L156.665 538.386L152.279 537.993L151.982 542.371L150.158 538.388L146.213 540.315L148.757 536.736L145.109 534.286Z" fill="#2B6F9A"/>
<path d="M177.84 535.504C178.386 536.387 178.111 537.548 177.228 538.093C176.344 538.639 175.183 538.364 174.638 537.481C174.093 536.598 174.367 535.437 175.251 534.891C176.134 534.346 177.295 534.62 177.84 535.504Z" fill="#2B6F9A"/>
<path d="M160.046 542.297C160.592 543.18 160.317 544.341 159.434 544.887C158.55 545.432 157.389 545.158 156.844 544.275C156.298 543.391 156.573 542.23 157.456 541.685C158.34 541.139 159.501 541.414 160.046 542.297Z" fill="#2B6F9A"/>
<path d="M171.436 528.096C171.981 528.979 171.707 530.14 170.823 530.685C169.94 531.231 168.779 530.957 168.233 530.073C167.688 529.19 167.963 528.029 168.846 527.483C169.729 526.938 170.89 527.212 171.436 528.096Z" fill="#2B6F9A"/>
<path d="M186.833 541.669L176.233 536.852L158.579 543.585C158.475 543.623 158.338 543.606 158.244 543.537L150.511 536.695C150.511 536.695 150.398 536.511 150.407 536.404C150.417 536.296 150.505 536.191 150.608 536.152L169.712 528.804C169.834 528.754 169.983 528.789 170.07 528.888L176.133 535.744L175.656 536.166L169.743 529.471L151.363 536.551L158.548 542.917L176.147 536.219C176.147 536.219 176.31 536.195 176.399 536.216L187.141 541.097L186.874 541.694L186.833 541.669Z" fill="#2B6F9A"/>
<path d="M185.571 537.237L188.649 540.37L191.688 537.222L190.533 541.444L194.775 542.51L190.535 543.628L191.738 547.842L188.66 544.71L185.603 547.869L186.777 543.636L182.534 542.57L186.757 541.462L185.571 537.237Z" fill="#2B6F9A"/>
<path d="M39.0333 473.452C39.5788 474.335 39.3042 475.496 38.4208 476.041C37.5375 476.587 36.3765 476.312 35.8311 475.429C35.2856 474.546 35.5602 473.385 36.4436 472.839C37.3269 472.294 38.4879 472.568 39.0333 473.452Z" fill="#2B6F9A"/>
<path d="M30.3385 425.49L33.6292 425.797L33.865 422.474L35.254 425.505L38.2403 424.042L36.3271 426.749L39.0775 428.609L35.7754 428.284L35.5395 431.607L34.1619 428.594L31.1757 430.057L33.0888 427.35L30.3385 425.49Z" fill="#2B6F9A"/>
<path d="M14.3703 445.162C12.9745 445.084 11.9057 443.888 11.973 442.474C12.0517 441.078 13.2474 440.009 14.6617 440.076C16.0759 440.144 17.1263 441.351 17.059 442.765C16.9804 444.161 15.7846 445.229 14.3703 445.162Z" fill="#2B6F9A"/>
<path d="M31.467 421.183C32.0124 422.067 31.7379 423.228 30.8545 423.773C29.9711 424.319 28.8102 424.044 28.2647 423.161C27.7193 422.277 27.9938 421.117 28.8772 420.571C29.7606 420.026 30.9215 420.3 31.467 421.183Z" fill="#2B6F9A"/>
<path d="M36.7689 414.249C37.3143 415.132 37.0398 416.293 36.1564 416.839C35.273 417.384 34.1121 417.11 33.5666 416.226C33.0212 415.343 33.2957 414.182 34.1791 413.637C35.0625 413.091 36.2234 413.366 36.7689 414.249Z" fill="#2B6F9A"/>
<path d="M30.1288 431.161C30.6743 432.044 30.3997 433.205 29.5163 433.751C28.633 434.296 27.472 434.022 26.9266 433.138C26.3811 432.255 26.6557 431.094 27.5391 430.548C28.4224 430.003 29.5834 430.277 30.1288 431.161Z" fill="#2B6F9A"/>
<path d="M14.3799 442.996L13.9838 442.478L28.2286 431.953L29.8444 421.931C29.8444 421.931 29.8839 421.831 29.9094 421.789L34.9168 415.037C35.0045 414.932 35.156 414.889 35.2865 414.936C35.4169 414.982 35.4964 415.111 35.491 415.267L35.0256 427.07C35.0256 427.07 34.9834 427.248 34.9097 427.294L29.5081 431.926L29.0751 431.43L34.3593 426.896L34.777 416.293L30.4555 422.139L28.8255 432.22C28.8255 432.22 28.7719 432.38 28.6983 432.426L14.3431 443.018L14.3799 442.996Z" fill="#2B6F9A"/>
<path d="M146.794 430.677L151.161 431.081L151.458 426.704L153.312 430.694L157.245 428.748L154.713 432.345L158.361 434.795L153.993 434.391L153.678 438.78L151.854 434.797L147.909 436.724L150.442 433.127L146.794 430.677Z" fill="#2B6F9A"/>
<path d="M120.039 495.292C120.584 496.176 120.31 497.337 119.426 497.882C118.543 498.428 117.382 498.153 116.837 497.27C116.291 496.386 116.566 495.226 117.449 494.68C118.332 494.135 119.493 494.409 120.039 495.292Z" fill="#2B6F9A"/>
<path d="M134.643 470.488C133.247 470.41 132.179 469.214 132.246 467.8C132.325 466.404 133.52 465.335 134.935 465.403C136.33 465.481 137.399 466.677 137.332 468.091C137.265 469.505 136.057 470.556 134.643 470.488Z" fill="#2B6F9A"/>
<path d="M197.429 460.519L200.75 460.833L200.967 457.521L202.345 460.534L205.331 459.071L203.418 461.778L206.187 463.627L202.878 463.332L202.642 466.655L201.253 463.623L198.267 465.086L200.18 462.379L197.429 460.519Z" fill="#2B6F9A"/>
<path d="M108.636 510.214L111.945 510.509L112.163 507.197L113.57 510.217L116.556 508.755L114.625 511.473L117.394 513.322L114.084 513.026L113.867 516.338L112.46 513.318L109.473 514.781L111.405 512.063L108.636 510.214Z" fill="#2B6F9A"/>
<path d="M218.659 467.11C217.263 467.031 216.194 465.836 216.261 464.421C216.34 463.026 217.536 461.957 218.95 462.024C220.364 462.091 221.415 463.298 221.347 464.713C221.28 466.127 220.073 467.177 218.659 467.11Z" fill="#2B6F9A"/>
<path d="M103.033 379.94C101.637 379.862 100.568 378.666 100.635 377.252C100.703 375.838 101.91 374.787 103.324 374.855C104.72 374.933 105.789 376.129 105.721 377.543C105.643 378.939 104.447 380.008 103.033 379.94Z" fill="#2B6F9A"/>
<path d="M183.457 465.969C182.062 465.89 180.993 464.695 181.06 463.28C181.139 461.885 182.335 460.816 183.749 460.883C185.145 460.962 186.213 462.157 186.146 463.572C186.079 464.986 184.872 466.036 183.457 465.969Z" fill="#2B6F9A"/>
<path d="M210.888 462.884C211.773 462.338 212.047 461.179 211.501 460.294C210.955 459.41 209.795 459.136 208.911 459.682C208.027 460.228 207.753 461.387 208.299 462.272C208.845 463.156 210.004 463.43 210.888 462.884Z" fill="#2B6F9A"/>
<path d="M121.993 409.082C122.539 409.965 122.264 411.126 121.381 411.672C120.497 412.217 119.337 411.943 118.791 411.059C118.246 410.176 118.52 409.015 119.404 408.469C120.287 407.924 121.448 408.198 121.993 409.082Z" fill="#2B6F9A"/>
<path d="M218.682 464.884L209.871 461.606L201.842 462.395L183.607 463.741C183.607 463.741 183.41 463.711 183.346 463.648L152.856 433.619L135.039 468.083L118.685 496.434L113.291 511.864L112.68 511.657L118.099 496.185L134.479 467.794L152.483 432.934C152.483 432.934 152.615 432.777 152.723 432.786C152.819 432.778 152.938 432.806 153.002 432.868L183.695 463.102L201.756 461.762L209.851 460.957C209.851 460.957 209.948 460.949 209.989 460.974L218.89 464.273L218.652 464.877L218.682 464.884Z" fill="#2B6F9A"/>
<path d="M152.96 433.377C152.85 433.445 152.712 433.428 152.6 433.37L120.203 410.34C120.203 410.34 120.128 410.259 120.105 410.223L102.906 377.553L103.481 377.249L120.664 409.852L152.781 432.674L175.299 409.695L175.757 410.149L153.052 433.32C153.052 433.32 153.015 433.343 152.979 433.366L152.96 433.377Z" fill="#2B6F9A"/>
<path d="M169.825 406.923L173.55 409.25L175.805 405.493L175.635 409.868L180.021 409.931L176.155 411.987L178.285 415.807L174.561 413.48L172.316 417.256L172.487 412.88L168.101 412.817L171.966 410.761L169.825 406.923Z" fill="#2B6F9A"/>
<path d="M161.802 113.782L166.17 114.187L166.467 109.809L168.309 113.781L172.254 111.853L169.71 115.432L173.358 117.882L168.99 117.478L168.694 121.855L166.851 117.884L162.907 119.811L165.45 116.232L161.802 113.782Z" fill="#FFA135"/>
<path d="M350.357 168.873L354.725 169.277L355.022 164.899L356.864 168.871L360.809 166.944L358.265 170.523L361.913 172.972L357.546 172.568L357.249 176.946L355.407 172.974L351.462 174.902L354.006 171.323L350.357 168.873Z" fill="#FFA135"/>
<path d="M665.637 81.5075L670.005 81.9116L670.302 77.5342L672.144 81.5059L676.089 79.5783L673.545 83.1573L677.193 85.6072L672.825 85.2031L672.529 89.5805L670.686 85.6088L666.742 87.5364L669.285 83.9574L665.637 81.5075Z" fill="#FFA135"/>
<path d="M499.563 214.117L503.931 214.521L504.228 210.144L506.07 214.115L510.015 212.188L507.471 215.767L511.12 218.217L506.752 217.812L506.455 222.19L504.613 218.218L500.668 220.146L503.212 216.567L499.563 214.117Z" fill="#FFA135"/>
</g>
</svg>
