<svg fill="none" height="163" viewBox="0 0 213 163" width="220" xmlns="http://www.w3.org/2000/svg"><circle cx="106.935" cy="83.0965" fill="#f2f9fa" r="79.2171"/><path d="m157.717 77.5809-51.183-35.5927" stroke="#204e62" stroke-linejoin="round"/><path d="m55.3462 77.5809 51.1878 35.5931" stroke="#204e62" stroke-linejoin="round"/><g fill="#204e62"><path d="m157.832 78.6953c-.783-.5227-1.042-1.6888-.392-2.4701.524-.7812 1.692-1.0397 2.474-.3906.782.5227 1.041 1.6889.391 2.4701-.65.7813-1.691 1.0398-2.473.3906z"/><path d="m105.574 114.345c-.886-.591-1.082-1.866-.495-2.751s1.87-1.08 2.755-.494c.886.592 1.082 1.867.495 2.751-.587.885-1.869 1.08-2.755.494z"/><path d="m129.192 19.9467c-1.041-.7812-1.3-2.2116-.524-3.2513.777-1.0398 2.215-1.2983 3.256-.5228s1.3 2.2116.524 3.2514c-.777 1.0397-2.215 1.2982-3.256.5227z"/><path d="m155.22 97.5659c-1.041-.7813-1.3-2.2117-.523-3.2514.776-1.0398 2.214-1.2983 3.255-.5228 1.042.7756 1.3 2.2117.524 3.2514-.65 1.0398-2.215 1.2983-3.256.5228z"/><path d="m53.5688 79.2697c-1.0411-.7812-1.2999-2.2116-.5234-3.2513.7823-1.0398 2.2146-1.2983 3.2557-.5228 1.0411.7813 1.3 2.2116.5234 3.2514-.7823 1.0397-2.2145 1.2982-3.2557.5227z"/><path d="m105.833 44.2917c-1.042-.7813-1.3-2.2116-.524-3.2514.777-1.0397 2.215-1.2982 3.256-.5227s1.3 2.2116.523 3.2513c-.782 1.0398-2.214 1.2983-3.255.5228z"/><path d="m76.3413 35.2156c-.7823-.5228-1.0411-1.6889-.3911-2.4701.65-.7813 1.6911-1.0398 2.4734-.3906.7823.5227 1.0411 1.6888.3911 2.4701-.5234.7812-1.6911 1.0397-2.4734.3906z"/><path d="m129.014 139.707c-.783-.522-1.041-1.689-.391-2.47s1.691-1.04 2.473-.39c.782.522 1.041 1.688.391 2.47-.65.781-1.691 1.039-2.473.39z"/><path d="m131.32 44.062c-.782-.5227-1.041-1.6888-.391-2.4701.65-.7812 1.691-1.0397 2.474-.3906.782.5227 1.041 1.6889.391 2.4701-.524.7813-1.691 1.0398-2.474.3906z"/><path d="m136.221 34.4169c-.621-.4136-.822-1.3385-.31-1.9589.511-.6204 1.34-.8214 1.961-.3102.621.4136.823 1.3385.311 1.9589-.415.6204-1.341.8214-1.962.3102z"/><path d="m129.445 33.8944c-.541-.3619-.719-1.1719-.271-1.7119.449-.54 1.174-.718 1.715-.27.54.3619.719 1.1719.27 1.7119-.362.54-1.173.718-1.714.27z"/><path d="m81.4663 43.1829c-.5407-.3619-.719-1.1718-.2704-1.7118.4487-.54 1.1735-.7181 1.7142-.27.5407.3619.719 1.1719.2703 1.7119-.3623.5399-1.1734.718-1.7141.2699z"/><path d="m83.5605 33.9344c-.5407-.3619-.719-1.1719-.2703-1.7118.4487-.54 1.1734-.7181 1.7141-.27.5407.3619.719 1.1718.2704 1.7118-.3624.54-1.1735.7181-1.7142.27z"/><path d="m82.9101 19.6135c-.696-.4596-.9261-1.4993-.3451-2.1944.5809-.6951 1.5013-.9249 2.1973-.3447.696.4596.9261 1.4993.3451 2.1944-.4602.6951-1.5013.9249-2.1973.3447z"/><path d="m129.037 8.75655c-.696-.45955-.927-1.4993-.346-2.19438s1.502-.92486 2.198-.34467c.696.45956.926 1.4993.345 2.19438-.46.69509-1.501.92486-2.197.34467z"/><path d="m157.538 61.6687c-.696-.4596-.926-1.4993-.345-2.1944s1.501-.9249 2.197-.3447c.696.4596.926 1.4993.345 2.1944-.46.6951-1.501.9249-2.197.3447z"/><path d="m151.222 87.4155c-.69-.517-.863-1.4648-.345-2.1541.518-.6894 1.467-.8617 2.157-.3447s.863 1.4648.345 2.1542c-.431.6893-1.466.8616-2.157.3446z"/><path d="m158.131 86.8352c-.575-.4308-.719-1.2236-.288-1.8038.432-.5802 1.225-.718 1.806-.2872s.719 1.2236.288 1.8038c-.362.5744-1.225.718-1.806.2872z"/><path d="m210.878 86.8581c-.575-.4308-.719-1.2235-.288-1.8037.432-.5802 1.225-.7181 1.806-.2873.581.4309.719 1.2236.288 1.8038-.362.5745-1.225.7181-1.806.2872z"/><path d="m204.562 86.6687c-.472-.3504-.587-.9995-.236-1.4706.351-.471 1.001-.5859 1.473-.2355.471.3504.586.9995.235 1.4706-.293.471-1 .5859-1.472.2355z"/><path d="m206.345 96.0723c-.472-.3505-.587-.9996-.236-1.4706.351-.4711 1.001-.586 1.473-.2355.471.3504.586.9995.236 1.4705-.294.4711-1.001.586-1.473.2356z"/><path d="m54.3167 61.0542c-.4716-.3504-.5867-.9995-.2358-1.4706.3509-.471 1.0009-.5859 1.4725-.2355.4717.3504.5868.9995.2359 1.4706-.2934.471-1.0009.5859-1.4726.2355z"/><path d="m30.8419 60.9334c-.6902-.517-.8628-1.4649-.3451-2.1542s1.4668-.8617 2.1571-.3447c.6902.517.8628 1.4649.3451 2.1542-.4314.6893-1.4668.8617-2.1571.3447z"/><path d="m83.1461 114.374c-.6902-.517-.8628-1.465-.3451-2.154s1.4668-.862 2.1571-.345c.6902.517.8628 1.465.3451 2.155-.4314.689-1.4668.861-2.1571.344z"/><path d="m82.8527 139.673c-.6903-.517-.8628-1.465-.3451-2.154.5176-.69 1.4667-.862 2.157-.345s.8628 1.465.3451 2.154c-.4314.69-1.4668.862-2.157.345z"/><path d="m76.5831 140.196c-.6902-.517-.8628-1.465-.3451-2.155.5177-.689 1.4668-.861 2.1571-.344.6902.517.8628 1.465.3451 2.154-.4314.689-1.4668.862-2.1571.345z"/><path d="m131.125 149.427c-.926-.695-1.156-1.965-.466-2.895.69-.931 1.967-1.155 2.899-.465.932.689 1.156 1.964.466 2.895-.581.925-1.967 1.154-2.899.465z"/><path d="m80.8165 149.352c-.8858-.591-1.0814-1.867-.4946-2.751.5867-.885 1.8694-1.08 2.7552-.494.8859.591 1.0814 1.867.4947 2.751-.5867.885-1.8694 1.08-2.7553.494z"/><path d="m8.00649 87.2088c-.88583-.5917-1.0814-1.867-.49468-2.7516.58671-.8847 1.86943-1.08 2.75529-.4941.8858.5917 1.0814 1.867.4947 2.7516-.5868.8847-1.86948 1.08-2.75531.4941z"/><path d="m8.11542 61.7433c-.73052-.4883-.89158-1.5395-.4084-2.2691.48318-.7295 1.54157-.8903 2.27208-.4078.7305.4883.8916 1.5395.4084 2.2691-.48317.7295-1.54156.8903-2.27208.4078z"/><path d="m6.49365 96.0782c-.5407-.3561-.65574-1.1374-.29911-1.6716.35663-.5343 1.13892-.6549 1.67387-.2987.54069.3561.65574 1.1374.29911 1.6716-.35664.5342-1.13892.6549-1.67387.2987z"/><path d="m1.4375 87.0765c-.540701-.3561-.655744-1.1374-.29911-1.6716.35663-.5343 1.13892-.6549 1.67386-.2987.5407.3561.65574 1.1374.29911 1.6716s-1.13892.6549-1.67386.2987z"/><path d="m30.5083 96.1182c-.5407-.3561-.6557-1.1373-.2991-1.6716.3566-.5342 1.1389-.6549 1.6739-.2987.5407.3562.6557 1.1374.2991 1.6716-.3567.5343-1.139.6549-1.6739.2987z"/><path d="m60.8738 87.2948c-.6845-.4595-.8398-1.4476-.3796-2.1312.4601-.6836 1.4495-.8387 2.134-.3791.6845.4595.8398 1.4476.3797 2.1312-.4602.6836-1.4496.8387-2.1341.3791z"/><path d="m204.522 60.9622c-.472-.3505-.587-.9996-.236-1.4706.351-.4711 1.001-.586 1.473-.2356.471.3505.586.9996.235 1.4706-.293.4711-1.001.586-1.472.2356z"/></g><g fill="#74b3db"><path d="m70.9344 55.8956c-.5752.8042-1.6681.9765-2.4734.4595-.8053-.5744-.9778-1.6659-.4601-2.4701.5176-.8042 1.6681-.9766 2.4734-.4596.8053.5745.9778 1.6659.4601 2.4702z"/><path d="m140.38 105.729c0 .93-.765 1.694-1.697 1.694s-1.697-.764-1.697-1.694c0-.931.765-1.695 1.697-1.695s1.697.764 1.697 1.695z"/><path d="m136.79 2.35712c0 .83295-.69 1.52229-1.524 1.52229s-1.524-.68934-1.524-1.52229.69-1.522281 1.524-1.522281 1.524.689331 1.524 1.522281z"/><path d="m174.996 30.5682 1.737 1.2983 1.219-1.7291-.235 2.1254 2.128.1954-1.967.8272.862 1.9301-1.691-1.2638-1.265 1.7348.276-2.1254-2.128-.1953 1.973-.8272z"/><path d="m159.229 48.0773c-.408.5687-1.184.6951-1.754.3274-.569-.4078-.696-1.1833-.328-1.752s1.185-.6951 1.755-.3274c.569.4078.696 1.1833.327 1.752z"/><path d="m164.838 102.713c-.357.5-1.03.603-1.53.281-.501-.356-.604-1.028-.282-1.528.322-.499 1.029-.603 1.53-.281.5.356.604 1.028.282 1.528z"/><path d="m62.8237 28.0866c-.5061.7066-1.4667.8617-2.1743.4021-.7075-.5055-.8628-1.4648-.4026-2.1714.4602-.7065 1.4668-.8616 2.1743-.4021.7075.5055.8628 1.4648.4026 2.1714z"/><path d="m146.517 103.931c-.247.344-.713.419-1.058.195-.345-.247-.42-.712-.196-1.057.225-.345.714-.419 1.059-.195.345.247.42.712.195 1.057z"/><path d="m72.7694 142.189c-.1898.264-.5407.316-.8053.149-.2646-.189-.3164-.54-.1495-.804.1668-.264.5406-.316.8052-.149.2646.189.3164.54.1496.804z"/><path d="m101.31 132.797c-.266.377-.787.465-1.164.222-.3767-.266-.4543-.786-.2215-1.162.2325-.377.7865-.465 1.1635-.222.377.266.454.786.222 1.162z"/><path d="m150.987 107.808c-.161.23-.472.276-.702.132-.23-.16-.276-.471-.132-.7.144-.23.472-.276.702-.133.23.161.276.472.132.701z"/><path d="m186.151 101.927c-.649-.668-.633-1.749.035-2.3983.669-.6495 1.75-.6349 2.398.0323.649.667.633 1.748-.035 2.398-.668.649-1.749.635-2.398-.032z"/><path d="m183.004 107.494c-.063-.42.219-.798.623-.878.419-.063.797.218.877.622.079.403-.219.798-.623.877-.42.064-.798-.218-.877-.621z"/><path d="m177.096 107.829c-.044-.277.146-.526.411-.584.278-.045.527.146.584.411s-.146.526-.411.583c-.277.045-.527-.145-.584-.41z"/><path d="m166.979 27.2642c-.649-.6673-.633-1.7483.036-2.3979.668-.6495 1.749-.635 2.398.0323.648.6673.632 1.7484-.036 2.3979s-1.749.635-2.398-.0323z"/><path d="m163.832 32.8315c-.063-.4196.219-.7979.623-.8778.419-.0635.797.218.877.6215.079.4035-.219.7979-.623.8778-.42.0635-.798-.218-.877-.6215z"/><path d="m157.925 33.1667c-.045-.277.146-.5265.411-.5839.277-.045.526.1453.583.4103s-.146.5265-.411.5839c-.277.0451-.526-.1453-.583-.4103z"/><path d="m80.6676 105.774c-.6487-.667-.6327-1.748.0355-2.398.6681-.649 1.7492-.635 2.3979.033.6487.667.6327 1.748-.0355 2.398-.6681.649-1.7492.635-2.3979-.033z"/><path d="m65.7002 118.244c-.0629-.42.2191-.798.6227-.878.4197-.063.7976.218.877.622.0794.403-.2191.797-.6227.877-.4197.064-.7976-.218-.877-.621z"/><path d="m63.0169 131.063c-.0947-.588.3095-1.116.8713-1.238.5873-.095 1.1155.308 1.2364.87.1209.561-.3095 1.115-.8713 1.237-.5872.096-1.1154-.308-1.2364-.869z"/><path d="m29.6857 49.2941c-.6487-.6673-.6327-1.7484.0354-2.3979.6682-.6496 1.7493-.635 2.398.0323.6486.6672.6326 1.7483-.0355 2.3979-.6682.6495-1.7493.6349-2.3979-.0323z"/><path d="m26.5381 54.8613c-.0629-.4195.2191-.7978.6227-.8778.4197-.0634.7976.2181.877.6216s-.2191.7978-.6227.8778c-.4197.0634-.7976-.2181-.877-.6216z"/><path d="m20.631 55.1967c-.0446-.277.146-.5265.4111-.5839.2771-.0451.5263.1453.5834.4103.057.265-.146.5265-.4111.5839-.2771.045-.5263-.1453-.5834-.4103z"/><path d="m34.0752 105.89c.4866-.794 1.5382-1.045 2.3325-.558s1.047 1.539.5604 2.332-1.5382 1.045-2.3325.557c-.7943-.487-1.047-1.538-.5604-2.331z"/><path d="m27.9035 104.213c.391-.164.8272.016 1.0043.387.165.391-.0145.827-.386 1.003-.3714.177-.8272-.015-1.0043-.387-.165-.391.0145-.826.386-1.003z"/><path d="m26.1211 98.5713c.2574-.1116.5462.0116.6672.2543.1121.2574-.0109.5459-.2536.6666-.2428.1207-.5463-.0116-.6673-.2543-.112-.2574.0109-.5459.2537-.6666z"/><path d="m124.438 69.1216c.487-.7933 1.539-1.0445 2.333-.5573s1.047 1.5385.56 2.3318c-.486.7932-1.538 1.0445-2.332.5572-.794-.4872-1.047-1.5385-.561-2.3317z"/><path d="m118.267 67.4453c.391-.1645.827.0155 1.004.3869.165.391-.014.8268-.386 1.0033-.371.1765-.827-.0155-1.004-.3869-.165-.3911.014-.8268.386-1.0033z"/><path d="m116.484 61.8034c.257-.1117.546.0116.667.2543.112.2574-.011.5459-.254.6666-.242.1206-.546-.0116-.667-.2544-.112-.2574.011-.5458.254-.6665z"/><path d="m89.7442 13.1563c.4865-.7933 1.5381-1.0446 2.3324-.5573.7944.4872 1.047 1.5385.5604 2.3317-.4865.7933-1.5381 1.0445-2.3325.5573-.7943-.4872-1.0469-1.5385-.5603-2.3317z"/><path d="m123.243 25.1384c.391-.1645.827.0155 1.004.3869.165.391-.014.8268-.386 1.0033-.371.1765-.827-.0155-1.004-.3869-.165-.391.014-.8268.386-1.0033z"/><path d="m124.383 19.5832c.257-.1116.546.0116.667.2543.112.2574-.011.5459-.254.6666-.242.1207-.546-.0116-.667-.2543-.112-.2574.011-.5459.254-.6666z"/><path d="m93.2127 125.61.742 2.011 1.9787-.77-1.3575 1.62 1.6796 1.35-2.1225-.362-.2991 2.114-.742-2.01-2.0075.769 1.3805-1.648-1.6739-1.322 2.0938.362z"/><path d="m67.4773 20.0099c-.3739.5227-1.0814.6319-1.6048.2987-.5235-.3734-.6328-1.0799-.2992-1.6027.3337-.5227 1.0814-.6319 1.6049-.2987.5234.3734.6327 1.08.2991 1.6027z"/><path d="m55.6799 106.28c-.5407.759-1.5703.919-2.3238.431-.7593-.54-.9204-1.568-.4315-2.321.489-.752 1.5704-.919 2.3239-.43.7593.54.9203 1.568.4314 2.32z"/><path d="m148.007 133.021c-.345.115-.713-.063-.84-.397-.115-.344.069-.712.397-.838.328-.127.713.063.84.396.115.345-.069.712-.397.839z"/><path d="m136.019 14.3286c-.23.0804-.471-.046-.558-.2585-.08-.2298.046-.471.259-.5572s.472.0459.558.2585c.081.2298-.046.471-.259.5572z"/><path d="m147.369 20.952c-.231.0804-.472-.046-.558-.2585-.081-.2298.046-.4711.258-.5573.213-.0861.472.046.558.2585.081.2298-.046.4711-.258.5573z"/><path d="m59.4994 23.8012c-.2301.0804-.4717-.046-.5579-.2585-.0806-.2298.046-.471.2588-.5572s.4717.0459.558.2585c.0805.2298-.0461.471-.2589.5572z"/><path d="m50.8827 118.51c-.2301.081-.4717-.046-.5579-.258-.0806-.23.046-.471.2588-.557.2128-.087.4717.045.558.258.0805.23-.0461.471-.2589.557z"/><path d="m78.8148 7.33178c-.23.08042-.4716-.04596-.5579-.2585-.0805-.22978.046-.47105.2588-.55722.2129-.08616.4717.04596.558.2585.0805.22978-.046.47105-.2589.55722z"/><path d="m13.8505 99.5305c-.2474.3447-.7133.4193-1.0584.1953-.3452-.247-.4199-.7123-.1956-1.057.2243-.3446.7133-.4193 1.0584-.1953.3451.247.4199.7123.1956 1.057z"/><path d="m18.3199 103.414c-.1611.23-.4717.276-.7018.132-.2301-.161-.2761-.471-.1323-.701s.4717-.276.7018-.132c.2301.161.2761.471.1323.701z"/><path d="m136.019 132.004c-.247.345-.713.419-1.058.195-.345-.247-.42-.712-.196-1.057.225-.344.714-.419 1.059-.195.345.247.42.712.195 1.057z"/><path d="m140.489 135.882c-.161.229-.472.275-.702.132-.23-.161-.276-.471-.132-.701s.471-.276.702-.132c.23.161.276.471.132.701z"/><path d="m201.346 81.0966c.42.0287.731.3848.731.7927-.029.4193-.386.7295-.794.7295-.409 0-.731-.3848-.731-.7927.029-.4193.386-.7295.794-.7295z"/><path d="m199.017 78.6437c.281.0172.483.2527.483.5227-.017.2815-.253.4826-.524.4826-.27 0-.483-.2528-.483-.5228.017-.2815.253-.4825.524-.4825z"/><path d="m51.7284 64.3169c-.2474.3447-.7133.4194-1.0584.1954-.3451-.2471-.4199-.7124-.1956-1.057.2244-.3447.7133-.4194 1.0584-.1953.3451.247.4199.7123.1956 1.0569z"/><path d="m51.9874 73.7379c-.1611.2298-.4717.2757-.7018.1321-.2301-.1608-.2761-.471-.1323-.7008s.4717-.2758.7018-.1321c.2301.1608.2761.471.1323.7008z"/></g><path d="m158.821 86.2091v-26.1489h46.311v25.7353" stroke="#204e62" stroke-linejoin="round"/><path d="m207.087 94.9234h-50.222l-4.55-8.8694h59.328z" stroke="#204e62" stroke-linejoin="round"/><path d="m9.00146 86.2091v-26.1489h46.31034v25.7353" stroke="#204e62" stroke-linejoin="round"/><path d="m57.2673 94.9234h-50.22177l-4.54992-8.8694h59.32729z" stroke="#204e62" stroke-linejoin="round"/><path d="m84.1467 18.1199-52.7009 41.8369" stroke="#204e62" stroke-linejoin="round"/><path d="m130.773 18.1199 52.701 41.8369" stroke="#204e62" stroke-linejoin="round"/><path d="m157.717 77.5809h-102.3708c2.111-1.4361 51.1828-35.5927 51.1828-35.5927v71.1908l51.182-35.5924z" stroke="#204e62" stroke-linejoin="round"/><path d="m130.095 138.495 52.706-43.6233" stroke="#204e62" stroke-linejoin="round"/><path d="m83.4738 138.495-52.7009-43.6233" stroke="#204e62" stroke-linejoin="round"/><path d="m144.268 61.2551c-.247.3447-.713.4194-1.058.1953-.345-.247-.42-.7123-.196-1.057.225-.3446.714-.4193 1.059-.1953.345.247.42.7123.195 1.057z" fill="#204e62"/><path d="m148.738 65.1327c-.161.2297-.472.2757-.702.1321-.23-.1609-.276-.4711-.132-.7008.144-.2298.471-.2758.702-.1322.23.1609.276.4711.132.7009z" fill="#204e62"/><path d="m83.9111 33.4519v-26.1488h46.3099v25.7352" stroke="#204e62" stroke-linejoin="round"/><path d="m132.177 42.1663h-50.2218l-4.5499-8.8637h59.3277z" stroke="#204e62" stroke-linejoin="round"/><path d="m83.9111 138.961v-26.143h46.3099v25.735" stroke="#204e62" stroke-linejoin="round"/><path d="m132.177 147.681h-50.2218l-4.5499-8.87h59.3277z" stroke="#204e62" stroke-linejoin="round"/><path d="m84.0721 2.51233 1.254 2.87223 2.9911-1.20059-2.019 2.51033 2.5597 1.89568-3.1004-.42509-.3106 3.14801-1.254-2.86654-2.9911 1.19485 2.019-2.50458-2.5597-1.90142 3.1004.43083z" fill="#ffa135"/><path d="m101.346 72.434 4.469 2.3725 2.197-4.498.138 5.0494 5.085-.3217-4.331 2.6712 2.887 4.1705-4.475-2.3725-2.197 4.4979-.242-4.9689-5.0845.3217 4.3315-2.677z" fill="#ffa135"/><path d="m130.843 107.125.839 4.245 4.176-.971-3.278 2.821 2.956 3.188-4.112-1.425-1.214 4.165-.84-4.245-4.17.976 3.169-2.849-2.956-3.194 4.112 1.431z" fill="#ffa135"/><path d="m57.5605 90.8048.6213 3.1652 3.1176-.7238-2.4446 2.1025 2.2088 2.3839-3.0717-1.0627-.9088 3.1078-.627-3.171-3.1119.7296 2.3642-2.1255-2.2089-2.3839 3.0717 1.0627z" fill="#ffa135"/><path d="m183.808 55.8152.627 3.171 3.112-.7296-2.445 2.1025 2.209 2.384-3.072-1.0628-.908 3.1078-.627-3.1652-3.112.7238 2.364-2.1254-2.209-2.384 3.072 1.0685z" fill="#ffa135"/></svg>