<svg width="180" height="186" viewBox="0 0 180 186" fill="none" xmlns="http://www.w3.org/2000/svg">
<g clip-path="url(#clip0_147_2531)">
<path d="M140.208 107.929C139.168 107.773 138.478 106.783 138.631 105.738C138.784 104.694 139.77 104.003 140.81 104.159C141.85 104.314 142.54 105.305 142.387 106.349C142.171 107.372 141.206 108.105 140.208 107.929Z" fill="#204E62"/>
<path d="M38.6968 82.6907C37.0106 82.4401 35.9001 80.8342 36.1467 79.1416C36.3934 77.4491 37.991 76.3367 39.6771 76.5873C41.3632 76.8378 42.4738 78.4437 42.2271 80.1363C41.8759 81.7926 40.3127 82.9755 38.6968 82.6907Z" fill="#204E62"/>
<path d="M57.3594 54.2546C55.6732 54.0041 54.5627 52.3981 54.8093 50.7056C55.056 49.013 56.6535 47.9007 58.3397 48.1512C60.0258 48.4017 61.1364 50.0077 60.8897 51.7003C60.5385 53.3565 58.9752 54.5395 57.3594 54.2546Z" fill="#204E62"/>
<path d="M65.2222 106.571C66.3627 106.014 66.8358 104.633 66.279 103.487C65.7221 102.341 64.3462 101.864 63.2057 102.421C62.0652 102.978 61.592 104.359 62.1489 105.505C62.7057 106.651 64.0817 107.128 65.2222 106.571Z" fill="#204E62"/>
<path d="M97.4402 93.5129C97.229 94.7776 96.0607 95.5929 94.842 95.4459C93.5821 95.2317 92.7681 94.0573 92.9124 92.8339C93.1236 91.5692 94.2919 90.7539 95.5106 90.9009C96.7705 91.1151 97.6477 92.2586 97.4402 93.5129Z" fill="#0C8085"/>
<path d="M138.748 90.4511C139.3 91.5875 138.822 92.9826 137.691 93.5351C136.56 94.0875 135.17 93.6052 134.618 92.4688C134.065 91.3324 134.544 89.9372 135.674 89.3848C136.805 88.8323 138.196 89.3147 138.748 90.4511Z" fill="#204E62"/>
<path d="M121.177 101.602C121.73 102.739 121.251 104.134 120.121 104.686C118.99 105.239 117.599 104.756 117.047 103.62C116.495 102.484 116.973 101.088 118.104 100.536C119.235 99.9835 120.625 100.466 121.177 101.602Z" fill="#204E62"/>
<path d="M81.4082 45.5628L84.144 46.0953L84.582 43.3835L85.5118 45.9948L88.0799 45.0197L86.2705 47.0914L88.3585 48.8487L85.6889 48.345L85.2124 51.0669L84.3281 48.4421L81.7566 49.4101L83.5659 47.3384L81.4082 45.5628Z" fill="#0C8085"/>
<path d="M83.1377 117.037L84.7867 119.092L86.7657 117.39L85.8451 119.848L88.3118 120.727L85.7007 121.142L86.1857 123.732L84.534 121.671L82.5163 123.393L83.4783 120.921L81.0089 120.037L83.5868 119.637L83.1377 117.037Z" fill="#0C8085"/>
<path d="M32.1299 63.2478L33.7789 65.3034L35.7579 63.6007L34.8372 66.0588L37.304 66.9378L34.6929 67.3536L35.1779 69.9435L33.5262 67.8823L31.5085 69.604L32.4705 67.1325L30.0011 66.248L32.579 65.8484L32.1299 63.2478Z" fill="#0C8085"/>
<path d="M148.794 114.326L151.27 113.435L150.311 111.003L152.328 112.678L153.962 110.627L153.501 113.238L156.101 113.624L153.618 114.516L154.582 116.991L152.567 115.272L150.927 117.323L151.392 114.75L148.794 114.326Z" fill="#0C8085"/>
<path d="M19.1851 80.2225L39.0678 79.6447L63.8469 103.723L119.039 102.245L143.909 137.1" stroke="#204E62" stroke-miterlimit="10"/>
<path d="M147.816 82.5885L136.212 91.7425" stroke="#204E62" stroke-miterlimit="10"/>
<path d="M46.9553 51.6602C46.8034 52.5641 45.9694 53.1549 45.0824 53.0467C44.182 52.8927 43.5921 52.0543 43.6983 51.1639C43.8046 50.2736 44.6842 49.6692 45.5711 49.7774C46.4716 49.9314 47.0615 50.7698 46.9553 51.6602Z" fill="#0C8085"/>
<path d="M38.9848 91.5885C38.8134 92.6253 37.8502 93.2897 36.8619 93.1748C35.829 93.0009 35.1657 92.0326 35.2784 91.0406C35.3912 90.0486 36.4131 89.3394 37.4013 89.4543C38.4342 89.6282 39.0976 90.5964 38.9848 91.5885Z" fill="#0C8085"/>
<path d="M129.459 126.159C129.366 126.72 128.845 127.079 128.311 127.017C127.753 126.923 127.394 126.4 127.455 125.863C127.516 125.327 128.068 124.943 128.603 125.006C129.161 125.1 129.52 125.623 129.459 126.159Z" fill="#0C8085"/>
<path d="M125.924 84.253C125.831 84.8135 125.31 85.1727 124.776 85.1106C124.218 85.0166 123.859 84.4931 123.92 83.9568C123.981 83.4204 124.533 83.037 125.068 83.0991C125.626 83.1931 125.985 83.7166 125.924 84.253Z" fill="#0C8085"/>
<path d="M43.9007 38.2354C43.808 38.796 43.2873 39.1552 42.753 39.0931C42.1946 38.9991 41.8359 38.4756 41.8969 37.9392C41.9579 37.4029 42.5103 37.0195 43.0446 37.0816C43.6031 37.1756 43.9617 37.6991 43.9007 38.2354Z" fill="#0C8085"/>
<path d="M138.164 134.955L143.471 135.681L144.035 130.349L146.068 135.338L150.891 133.226L147.702 137.413L151.948 140.553L146.648 139.823L146.074 145.152L144.041 140.162L139.221 142.281L142.491 138.099L138.164 134.955Z" fill="#FFA135"/>
<path d="M145.121 75.5209L149.109 78.9175L152.459 74.7571L151.549 80.0399L156.786 80.8005L151.843 82.6301L153.772 87.6007L149.682 84.1924L146.444 88.3681L147.287 83.1266L142.009 82.3164L147.008 80.4419L145.121 75.5209Z" fill="#FFA135"/>
<path d="M13.8211 74.4411L18.5809 76.832L20.8491 72.0733L21.1563 77.3206L26.4738 76.9063L22.0341 79.8787L25.0906 84.2196L20.3342 81.8358L18.0236 86.6502L17.7104 81.301L12.4413 81.7615L16.8315 78.8482L13.8211 74.4411Z" fill="#FFA135"/>
<path d="M149.917 96.7326C149.825 97.2932 149.304 97.6524 148.77 97.5903C148.211 97.4963 147.853 96.9728 147.913 96.4364C147.974 95.9001 148.527 95.5167 149.061 95.5788C149.62 95.6728 149.978 96.1963 149.917 96.7326Z" fill="#0C8085"/>
<path d="M65.2817 94.8279C65.1359 95.6939 64.3426 96.2475 63.5127 96.1429C62.65 95.995 62.0972 95.1975 62.2 94.3644C62.3028 93.5313 63.1392 92.9448 63.9691 93.0494C64.8318 93.1973 65.3845 93.9948 65.2817 94.8279Z" fill="#0C8085"/>
<path d="M39.0677 79.6447L57.9047 51.2457L119.039 102.245L137.091 91.1732L140.36 106.345" stroke="#204E62" stroke-miterlimit="10"/>
<path d="M62.8053 88.8432C62.7387 89.225 62.3833 89.4773 62.0132 89.431C61.6327 89.3636 61.3809 89.0063 61.4264 88.6347C61.4718 88.2632 61.8483 88.0006 62.2185 88.0469C62.5989 88.1143 62.8507 88.4716 62.8053 88.8432Z" fill="#0C8085"/>
<path d="M137.206 83.7895C137.11 84.3606 136.585 84.7303 136.03 84.6609C135.461 84.5632 135.092 84.0361 135.16 83.4788C135.228 82.9215 135.781 82.538 136.336 82.6074C136.905 82.7051 137.274 83.2322 137.206 83.7895Z" fill="#0C8085"/>
</g>
<defs>
<clipPath id="clip0_147_2531">
<rect width="130.252" height="142.5" fill="white" transform="matrix(0.898513 -0.438946 0.437017 0.899453 0.691895 57.5798)"/>
</clipPath>
</defs>
</svg>
