<svg width="172" height="88" viewBox="0 0 172 88" fill="none" xmlns="http://www.w3.org/2000/svg">
<g clip-path="url(#clip0_174_72)">
<path d="M163.383 7.48621L132.33 26.833" stroke="#204E62" stroke-miterlimit="10"/>
<path d="M150.753 58.2706L90.2682 69.1821L24.6079 54.1984L46.3153 33.7117L90.2682 69.1821L132.322 26.4321L129.014 2.78516" stroke="#204E62" stroke-miterlimit="10"/>
<path d="M26.1826 53.3258L14 69.9382" stroke="#204E62" stroke-miterlimit="10"/>
<path d="M7.1365 67.1343L12.2092 69.0211L13.9661 63.9426L14.8603 69.2648L20.0913 68.2664L16.0078 71.6467L19.5057 75.656L14.425 73.7693L12.6682 78.8556L11.7739 73.5335L6.54297 74.5319L10.7056 71.1672L7.1365 67.1343Z" fill="#FFA135"/>
<path d="M106.246 75.1017C105.367 74.5042 105.177 73.3093 105.779 72.4367C106.38 71.5641 107.583 71.3754 108.462 71.9728C109.34 72.5703 109.53 73.7652 108.929 74.6378C108.28 75.4633 107.077 75.6991 106.246 75.1017Z" fill="#0C8085"/>
<path d="M24.1172 56.0459C23.0568 55.3305 22.8352 53.8918 23.5633 52.8384C24.2834 51.785 25.7316 51.5649 26.7921 52.2881C27.8525 53.0035 28.0741 54.4421 27.346 55.4956C26.5705 56.4939 25.1223 56.7691 24.1172 56.0459Z" fill="#204E62"/>
<path d="M88.5985 71.9021C87.174 70.9352 86.8733 69.0013 87.8467 67.5862C88.8201 66.1712 90.7669 65.8724 92.1913 66.8394C93.6158 67.8063 93.9165 69.7402 92.9431 71.1553C91.8906 72.4917 89.9438 72.8691 88.5985 71.9021Z" fill="#204E62"/>
<path d="M132.551 28.6176C133.836 28.6176 134.878 27.5828 134.878 26.3064C134.878 25.0299 133.836 23.9951 132.551 23.9951C131.266 23.9951 130.225 25.0299 130.225 26.3064C130.225 27.5828 131.266 28.6176 132.551 28.6176Z" fill="#204E62"/>
<path d="M152.985 58.64C152.233 59.6856 150.808 59.9057 149.764 59.2375C148.711 58.4907 148.49 57.0756 149.162 56.0379C149.914 54.9924 151.339 54.7722 152.383 55.4405C153.436 56.1873 153.728 57.6023 152.985 58.64Z" fill="#204E62"/>
<path d="M140.75 51.7535C140.75 53.0192 139.697 54.0647 138.423 54.0647C137.149 54.0647 136.097 53.0192 136.097 51.7535C136.097 50.4878 137.149 49.4423 138.423 49.4423C139.697 49.4423 140.75 50.4878 140.75 51.7535Z" fill="#0C8085"/>
<path d="M131.024 2.81661C131.024 4.08228 129.971 5.12784 128.697 5.12784C127.423 5.12784 126.371 4.08228 126.371 2.81661C126.371 1.55093 127.423 0.505371 128.697 0.505371C129.971 0.505371 131.024 1.55093 131.024 2.81661Z" fill="#204E62"/>
<path d="M89.2869 45.0949L91.5423 46.7851L93.1329 44.5367L92.8243 47.2882L95.602 47.5476L93.0301 48.6168L94.1617 51.1167L91.9538 49.4815L90.3077 51.7299L90.6718 48.9784L87.894 48.719L90.466 47.6498L89.2869 45.0949Z" fill="#0C8085"/>
<path d="M15.4649 23.4963L16.2246 26.7667L19.4693 25.9255L17.0239 28.221L19.3743 30.603L16.1297 29.6203L15.2354 32.8513L14.4836 29.5732L11.1836 30.4143L13.6764 28.1267L11.326 25.7368L14.5311 26.7195L15.4649 23.4963Z" fill="#0C8085"/>
<path d="M161.247 0.827637L164.46 5.00201L168.662 1.64522L166.628 6.62145L171.645 8.47673L166.367 9.2157L167.206 14.4907L163.89 10.2848L159.783 13.6809L161.753 8.73615L156.704 6.81012L162.054 6.04757L161.247 0.827637Z" fill="#FFA135"/>
<path d="M41.3374 27.2969L44.6058 31.542L48.7763 28.2481L46.7346 33.1064L51.7677 35.0796L46.4101 35.795L47.2648 41.0542L43.9964 36.817L39.7546 40.1345L41.836 35.1739L36.8345 33.2715L42.1288 32.5876L41.3374 27.2969Z" fill="#FFA135"/>
<path d="M53.1405 66.539C52.6024 67.2859 51.5815 67.4509 50.8218 66.9635C50.07 66.429 49.9038 65.4149 50.3944 64.6602C50.8851 63.9055 51.9534 63.7483 52.7132 64.2357C53.465 64.7702 53.6312 65.7843 53.1405 66.539Z" fill="#0C8085"/>
<path d="M59.2621 50.7315C58.9297 51.1953 58.2966 51.2896 57.8376 50.9988C57.3707 50.6686 57.2757 50.0397 57.5685 49.5837C57.8614 49.1278 58.534 49.0256 58.993 49.3164C59.4599 49.6466 59.5549 50.2755 59.2621 50.7315Z" fill="#0C8085"/>
<path d="M89.3026 85.911C88.9702 86.3749 88.3371 86.4692 87.8781 86.1783C87.4112 85.8482 87.3163 85.2192 87.6091 84.7633C87.9019 84.3073 88.5745 84.2051 89.0335 84.496C89.5005 84.8262 89.5954 85.4551 89.3026 85.911Z" fill="#0C8085"/>
<path d="M131.815 40.5353C131.483 40.9991 130.85 41.0935 130.391 40.8026C129.924 40.4724 129.829 39.8435 130.122 39.3876C130.415 38.9316 131.087 38.8294 131.546 39.1203C132.013 39.4504 132.108 40.0794 131.815 40.5353Z" fill="#0C8085"/>
<path d="M125.666 23.5233C125.334 23.9872 124.701 24.0815 124.242 23.7906C123.775 23.4605 123.68 22.8315 123.973 22.3756C124.266 21.9196 124.938 21.8174 125.397 22.1083C125.864 22.4385 125.959 23.0674 125.666 23.5233Z" fill="#0C8085"/>
<path d="M120.95 68.4196C120.617 68.8834 119.984 68.9777 119.525 68.6869C119.058 68.3567 118.963 67.7278 119.256 67.2718C119.549 66.8159 120.222 66.7137 120.681 67.0045C121.147 67.3347 121.242 67.9636 120.95 68.4196Z" fill="#0C8085"/>
<path d="M17.4361 57.1044C17.0562 57.6311 16.344 57.7412 15.8216 57.4031C15.2914 57.0258 15.1806 56.3183 15.5209 55.7994C15.8612 55.2806 16.613 55.1626 17.1353 55.5007C17.6655 55.878 17.7763 56.5855 17.4361 57.1044Z" fill="#0C8085"/>
<path d="M34.6185 38.6172C34.389 38.9317 33.9537 39.0024 33.6372 38.798C33.3206 38.57 33.2494 38.1377 33.4552 37.8232C33.6609 37.5088 34.1199 37.438 34.4365 37.6424C34.753 37.8704 34.8243 38.3027 34.6185 38.6172Z" fill="#0C8085"/>
<path d="M142.301 45.0792C141.961 45.5509 141.32 45.6531 140.845 45.3465C140.37 45.0085 140.267 44.3717 140.576 43.9C140.884 43.4283 141.557 43.3261 142.032 43.6327C142.507 43.9708 142.609 44.6075 142.301 45.0792Z" fill="#0C8085"/>
<path d="M125.184 13.563C125.184 14.6243 124.305 15.4969 123.237 15.4969C122.168 15.4969 121.29 14.6243 121.29 13.563C121.29 12.5018 122.168 11.6292 123.237 11.6292C124.305 11.6292 125.184 12.5018 125.184 13.563Z" fill="#0C8085"/>
<path d="M34.8837 53.4442C34.5513 53.9081 33.9182 54.0024 33.4592 53.7115C32.9923 53.3814 32.8973 52.7524 33.1901 52.2965C33.4829 51.8405 34.1556 51.7383 34.6146 52.0292C35.0815 52.3594 35.1765 52.9883 34.8837 53.4442Z" fill="#0C8085"/>
<path d="M153.056 2.34488C152.723 2.8087 152.09 2.90304 151.631 2.61217C151.164 2.28199 151.069 1.65308 151.362 1.19712C151.655 0.741166 152.327 0.638969 152.786 0.929839C153.253 1.26002 153.348 1.88892 153.056 2.34488Z" fill="#0C8085"/>
</g>
<defs>
<clipPath id="clip0_174_72">
<rect width="171" height="87.2374" fill="white" transform="translate(0.64502 0.505371)"/>
</clipPath>
</defs>
</svg>
