<svg width="445" height="450" viewBox="0 0 445 450" fill="none" xmlns="http://www.w3.org/2000/svg">
<path d="M294.636 140.299C295.363 141.701 297.037 142.222 298.425 141.594C299.827 140.868 300.348 139.195 299.72 137.808C299.091 136.421 297.319 135.885 295.931 136.513C294.528 137.239 294.007 138.912 294.636 140.299Z" fill="#2B6F9A"/>
<path d="M284.62 152.008C285.031 152.81 285.996 153.102 286.777 152.75C287.58 152.339 287.872 151.375 287.52 150.594C287.168 149.813 286.144 149.5 285.362 149.852C284.56 150.263 284.268 151.227 284.62 152.008Z" fill="#2B6F9A"/>
<path d="M240.207 298.207C240.852 297.584 240.848 296.577 240.276 295.928C239.652 295.283 238.644 295.287 237.994 295.859C237.345 296.431 237.354 297.489 237.926 298.139C238.55 298.783 239.558 298.779 240.207 298.207Z" fill="#2B6F9A"/>
<path d="M291.419 118.333C291.831 119.135 292.795 119.427 293.577 119.076C294.379 118.664 294.671 117.701 294.319 116.92C293.967 116.139 292.943 115.826 292.162 116.177C291.359 116.589 291.067 117.552 291.419 118.333Z" fill="#2B6F9A"/>
<path d="M331.003 381.513C331.425 382.329 332.4 382.635 333.21 382.263C334.027 381.841 334.333 380.867 333.96 380.058C333.587 379.249 332.562 378.936 331.753 379.308C330.936 379.73 330.63 380.704 331.003 381.513Z" fill="#2B6F9A"/>
<path d="M255.87 117.475C256.175 118.06 256.884 118.289 257.465 118.022C258.05 117.717 258.28 117.009 258.012 116.429C257.744 115.849 256.998 115.614 256.417 115.882C255.832 116.186 255.602 116.895 255.87 117.475Z" fill="#2B6F9A"/>
<path d="M284.43 360.003C285.472 358.985 285.471 357.35 284.53 356.294C283.511 355.253 281.875 355.253 280.819 356.193C279.762 357.134 279.777 358.846 280.718 359.902C281.737 360.944 283.373 360.943 284.43 360.003Z" fill="#2B6F9A"/>
<path d="M241.243 245.365C242.905 245.104 244.055 243.524 243.793 241.863C243.532 240.202 241.95 239.053 240.288 239.314C238.626 239.575 237.477 241.155 237.738 242.816C237.999 244.477 239.581 245.626 241.243 245.365Z" fill="#2B6F9A"/>
<path d="M200.696 213.262C201.548 212.431 201.541 211.096 200.784 210.244C199.952 209.393 198.616 209.399 197.763 210.155C196.91 210.911 196.919 212.321 197.676 213.174C198.508 214.025 199.843 214.018 200.696 213.262Z" fill="#2B6F9A"/>
<path d="M103.015 111.053C103.427 111.855 104.392 112.146 105.173 111.795C105.976 111.384 106.267 110.42 105.915 109.639C105.564 108.858 104.539 108.545 103.758 108.897C102.955 109.308 102.663 110.272 103.015 111.053Z" fill="#2B6F9A"/>
<path d="M205.568 328.299C205.98 327.894 205.971 327.263 205.604 326.845C205.199 326.434 204.568 326.442 204.149 326.809C203.731 327.176 203.747 327.844 204.113 328.263C204.519 328.674 205.15 328.666 205.568 328.299Z" fill="#2B6F9A"/>
<path d="M320.265 179.999C320.532 180.504 321.134 180.692 321.645 180.465C322.15 180.199 322.338 179.597 322.111 179.086C321.883 178.575 321.242 178.393 320.731 178.621C320.226 178.887 320.038 179.488 320.265 179.999Z" fill="#2B6F9A"/>
<path d="M53.8728 160.664C54.2162 161.33 55.0223 161.586 55.6837 161.28C56.3506 160.937 56.6065 160.132 56.3001 159.471C55.9937 158.81 55.1507 158.548 54.4892 158.854C53.8224 159.197 53.5664 160.003 53.8728 160.664Z" fill="#2B6F9A"/>
<path d="M273.45 136.152L269.757 135.06L270.955 131.424L268.166 134.061L265.628 131.263L266.49 134.936L262.788 135.717L266.469 136.807L265.269 140.456L268.072 137.808L270.596 140.616L269.699 136.926L273.45 136.152Z" fill="#2B6F9A"/>
<path d="M227.809 273.002L227.852 276.845L224.021 276.79L227.384 278.676L225.451 281.916L228.699 280.013L230.547 283.314L230.503 279.471L234.345 279.541L230.982 277.654L232.917 274.402L229.659 276.367L227.809 273.002Z" fill="#2B6F9A"/>
<path d="M81.7267 26.5771C83.3886 26.3164 84.5381 24.7356 84.2769 23.0749C84.0156 21.4142 82.4334 20.2651 80.7715 20.5259C79.1096 20.7866 77.96 22.3673 78.2213 24.0281C78.4826 25.6888 80.0648 26.8378 81.7267 26.5771Z" fill="#2B6F9A"/>
<path d="M101.916 4.32729L101.96 8.1701L98.1303 8.10207L101.481 9.987L99.5461 13.2394L102.809 11.3253L104.656 14.6262L104.611 10.7957L108.442 10.8514L105.091 8.96651L107.024 5.72647L103.756 7.67743L101.916 4.32729Z" fill="#2B6F9A"/>
<path d="M331.464 272.286C333.126 272.025 334.276 270.445 334.015 268.784C333.753 267.123 332.171 265.974 330.509 266.235C328.847 266.496 327.698 268.076 327.959 269.737C328.22 271.398 329.803 272.547 331.464 272.286Z" fill="#2B6F9A"/>
<path d="M318.027 299.936L318.071 303.779L314.242 303.711L317.592 305.596L315.659 308.836L318.92 306.934L320.767 310.235L320.722 306.404L324.553 306.46L321.203 304.575L323.136 301.335L319.868 303.286L318.027 299.936Z" fill="#2B6F9A"/>
<path d="M198.265 253.838C199.307 252.82 199.306 251.185 198.365 250.129C197.346 249.088 195.71 249.088 194.653 250.028C193.597 250.969 193.612 252.681 194.553 253.737C195.572 254.779 197.208 254.778 198.265 253.838Z" fill="#2B6F9A"/>
<path d="M300.102 406.691C301.764 406.43 302.913 404.85 302.652 403.189C302.391 401.528 300.808 400.379 299.146 400.64C297.485 400.901 296.335 402.481 296.596 404.142C296.858 405.803 298.44 406.952 300.102 406.691Z" fill="#2B6F9A"/>
<path d="M376.268 244.054C376.679 244.857 377.644 245.148 378.425 244.797C379.228 244.386 379.52 243.422 379.168 242.641C378.816 241.86 377.792 241.547 377.01 241.899C376.208 242.31 375.916 243.273 376.268 244.054Z" fill="#2B6F9A"/>
<path d="M332.385 293.766C332.796 293.361 332.788 292.73 332.421 292.312C332.015 291.901 331.384 291.909 330.966 292.276C330.547 292.643 330.563 293.312 330.93 293.73C331.336 294.141 331.966 294.133 332.385 293.766Z" fill="#2B6F9A"/>
<path d="M79.962 135.161C80.3736 134.756 80.3649 134.126 79.9979 133.708C79.5921 133.296 78.9614 133.305 78.5429 133.671C78.1244 134.038 78.1401 134.707 78.507 135.125C78.9128 135.537 79.5435 135.528 79.962 135.161Z" fill="#2B6F9A"/>
<path d="M97.3502 21.2965C97.7618 20.8911 97.753 20.2609 97.3861 19.8426C96.9803 19.4312 96.3496 19.4398 95.9311 19.8065C95.5125 20.1731 95.5282 20.842 95.8952 21.2603C96.301 21.6717 96.9317 21.6631 97.3502 21.2965Z" fill="#2B6F9A"/>
<path d="M138.567 87.1318C139.294 88.5334 140.967 89.0543 142.356 88.4266C143.758 87.7004 144.279 86.0279 143.651 84.6407C143.022 83.2534 141.25 82.7182 139.861 83.3459C138.459 84.0721 137.938 85.7445 138.567 87.1318Z" fill="#2B6F9A"/>
<path d="M128.562 98.8547C128.973 99.6568 129.938 99.9485 130.719 99.597C131.522 99.1858 131.814 98.2221 131.462 97.4412C131.11 96.6603 130.086 96.3474 129.304 96.6988C128.501 97.11 128.21 98.0738 128.562 98.8547Z" fill="#2B6F9A"/>
<path d="M160.164 145.414L156.471 144.322L157.669 140.685L154.88 143.322L152.342 140.524L153.204 144.197L149.502 144.978L153.181 146.081L151.983 149.717L154.786 147.07L157.31 149.878L156.401 146.186L160.164 145.414Z" fill="#2B6F9A"/>
<path d="M164.028 113.323L285.993 193.088L265.991 223.113L193.683 179.623" stroke="white" stroke-miterlimit="10"/>
<path d="M161.227 92.8269L219.302 134.82L186.929 190.198L117.433 155.218L161.227 92.8269Z" stroke="white" stroke-miterlimit="10"/>
<path d="M101.352 31.5025L160.703 76.5743L161.227 92.8268L117.433 155.218L104.486 161.996L43.9695 135.446L70.6919 117.771L96.4622 69.946L101.352 31.5025Z" stroke="white" stroke-miterlimit="10"/>
<path d="M282.813 197.97L386.477 261.493L372.828 279.728L243.284 198.418" stroke="white" stroke-miterlimit="10"/>
<path d="M332.865 216.692L307.473 201.428L284.491 235.057L309.853 251.473L332.865 216.692Z" stroke="white" stroke-miterlimit="10"/>
<path d="M309.696 251.601L307.047 270.712L273.324 264.057L278.089 239.331L284.469 235.205L309.696 251.601Z" stroke="white" stroke-miterlimit="10"/>
<path d="M336.664 422.024L320.495 419.301L292.454 267.715" stroke="white" stroke-miterlimit="10"/>
<path d="M286.56 266.428C286.72 267.319 253.354 419.879 253.354 419.879" stroke="white" stroke-miterlimit="10"/>
<path d="M198.134 419.336L212.809 419.336L272.958 264.494" stroke="white" stroke-miterlimit="10"/>
<path d="M386.477 261.493L412.079 264.359L384.659 302.699L373.131 279.634" stroke="white" stroke-miterlimit="10"/>
<path d="M44.025 135.064L45.4647 101.375L67.8251 56.4734C67.8251 56.4734 99.6224 31.4514 100.868 30.8532L140.346 19.2786" stroke="white" stroke-miterlimit="10"/>
<path d="M332.865 216.692L378.403 187.31" stroke="white" stroke-miterlimit="10"/>
<path d="M384.659 302.699L378.141 325.093" stroke="white" stroke-miterlimit="10"/>
<path d="M104.135 162.07L184.766 191.819" stroke="white" stroke-miterlimit="10"/>
<path d="M292.17 230.051C293.985 229.171 294.659 226.968 293.766 225.152C292.885 223.338 290.679 222.664 288.862 223.556C287.047 224.436 286.373 226.64 287.266 228.456C288.246 230.196 290.439 230.956 292.17 230.051Z" fill="white"/>
<path d="M199.603 421.578C200.904 420.947 201.387 419.368 200.747 418.067C200.115 416.767 198.535 416.284 197.233 416.923C195.932 417.554 195.449 419.133 196.089 420.434C196.791 421.682 198.363 422.226 199.603 421.578Z" fill="white"/>
<path d="M186.651 195.483C188.296 194.679 188.91 192.681 188.106 191.036C187.301 189.392 185.302 188.778 183.656 189.581C182.01 190.385 181.396 192.383 182.201 194.027C183.101 195.601 185.088 196.298 186.651 195.483Z" fill="white"/>
<path d="M275.039 267.753C276.665 266.959 277.282 264.974 276.475 263.347C275.68 261.721 273.693 261.104 272.064 261.911C270.438 262.705 269.821 264.69 270.628 266.318C271.521 267.882 273.485 268.571 275.039 267.753Z" fill="white"/>
<path d="M408.258 264.841C408.019 266.476 409.174 268.024 410.809 268.262C412.445 268.501 413.994 267.348 414.232 265.713C414.471 264.078 413.316 262.531 411.68 262.292C410.044 262.054 408.496 263.207 408.258 264.841Z" fill="white"/>
<path d="M162.521 79.3804C164.176 78.5652 164.797 76.5551 163.98 74.9014C163.164 73.2478 161.152 72.6273 159.498 73.4425C157.843 74.2578 157.222 76.2679 158.039 77.9215C158.94 79.512 160.941 80.2064 162.521 79.3804Z" fill="white"/>
<path d="M385.754 305.219C387.385 304.427 387.987 302.445 387.193 300.825C386.4 299.195 384.417 298.593 382.796 299.386C381.165 300.178 380.562 302.16 381.357 303.78C382.24 305.342 384.212 306.024 385.754 305.219Z" fill="white"/>
<path d="M220.016 135.364C221.494 134.636 222.045 132.842 221.331 131.355C220.602 129.877 218.807 129.326 217.318 130.04C215.84 130.767 215.289 132.561 216.003 134.049C216.815 135.476 218.601 136.088 220.016 135.364Z" fill="white"/>
<path d="M302.356 212.003C303.779 211.305 304.309 209.571 303.61 208.148C302.911 206.725 301.176 206.195 299.752 206.893C298.329 207.591 297.799 209.325 298.498 210.748C299.267 212.118 300.994 212.71 302.356 212.003Z" fill="white"/>
<path d="M119.307 156.611C120.731 155.913 121.261 154.179 120.562 152.756C119.863 151.333 118.128 150.804 116.704 151.502C115.28 152.2 114.751 153.934 115.449 155.356C116.219 156.726 117.945 157.318 119.307 156.611Z" fill="white"/>
<path d="M254.481 421.52C255.904 420.822 256.434 419.088 255.735 417.665C255.036 416.242 253.301 415.712 251.877 416.41C250.454 417.108 249.924 418.842 250.623 420.265C251.392 421.635 253.119 422.227 254.481 421.52Z" fill="white"/>
<path d="M119.307 156.611C120.731 155.913 121.261 154.179 120.562 152.756C119.863 151.333 118.128 150.804 116.704 151.502C115.28 152.2 114.751 153.934 115.449 155.356C116.219 156.726 117.945 157.318 119.307 156.611Z" fill="white"/>
<path d="M98.2102 73.4966C99.6337 72.7986 100.164 71.0646 99.4648 69.6419C98.7659 68.2192 97.0305 67.6894 95.6069 68.3874C94.1833 69.0854 93.6535 70.8194 94.3523 72.2421C95.1218 73.6121 96.8482 74.2036 98.2102 73.4966Z" fill="white"/>
<path d="M246.66 201.25C248.286 200.456 248.903 198.47 248.096 196.843C247.301 195.218 245.314 194.601 243.685 195.407C242.059 196.201 241.442 198.187 242.249 199.814C243.142 201.378 245.106 202.067 246.66 201.25Z" fill="white"/>
<path d="M287.025 195.202C288.619 194.424 289.214 192.489 288.435 190.896C287.655 189.303 285.718 188.708 284.124 189.486C282.53 190.265 281.935 192.2 282.715 193.793C283.586 195.317 285.511 195.993 287.025 195.202Z" fill="white"/>
<path d="M166.171 117.447C168.217 116.45 168.97 113.969 167.971 111.924C166.973 109.879 164.49 109.126 162.443 110.124C160.397 111.121 159.645 113.602 160.643 115.647C161.754 117.608 164.223 118.459 166.171 117.447Z" fill="white"/>
<path d="M138.912 22.5845C140.654 21.7341 141.303 19.6202 140.452 17.8799C139.601 16.1396 137.485 15.4898 135.744 16.3401C134.002 17.1905 133.352 19.3044 134.204 21.0447C135.156 22.71 137.259 23.4477 138.912 22.5845Z" fill="white"/>
<path d="M162.452 97.6343C164.391 96.6844 165.113 94.3243 164.162 92.3869C163.211 90.4494 160.849 89.7275 158.91 90.6774C156.971 91.6273 156.249 93.9874 157.2 95.9249C158.25 97.7887 160.6 98.5968 162.452 97.6343Z" fill="white"/>
<path d="M375.03 281.81C376.969 280.86 377.69 278.5 376.739 276.563C375.788 274.625 373.426 273.903 371.488 274.853C369.549 275.803 368.827 278.163 369.778 280.101C370.828 281.964 373.177 282.773 375.03 281.81Z" fill="white"/>
<path d="M387.656 265.841C389.595 264.891 390.316 262.531 389.365 260.593C388.414 258.656 386.052 257.934 384.114 258.884C382.175 259.834 381.453 262.194 382.404 264.131C383.454 265.995 385.803 266.803 387.656 265.841Z" fill="white"/>
<path d="M214.694 150.701C216.633 149.751 217.355 147.391 216.404 145.453C215.453 143.516 213.091 142.794 211.152 143.744C209.214 144.694 208.492 147.054 209.443 148.991C210.493 150.855 212.842 151.663 214.694 150.701Z" fill="white"/>
<path d="M214.098 421.578C215.4 420.94 215.885 419.356 215.246 418.055C214.608 416.754 213.022 416.27 211.72 416.908C210.419 417.545 209.934 419.13 210.573 420.43C211.277 421.682 212.855 422.224 214.098 421.578Z" fill="white"/>
<path d="M310.475 255.413C312.414 254.463 313.136 252.103 312.185 250.165C311.234 248.228 308.872 247.506 306.933 248.456C304.994 249.406 304.272 251.766 305.223 253.703C306.273 255.567 308.623 256.375 310.475 255.413Z" fill="white"/>
<path d="M102.455 33.6128C103.959 32.8764 104.528 31.0474 103.791 29.5436C103.053 28.0399 101.223 27.471 99.7182 28.2075C98.2135 28.9439 97.6446 30.7729 98.382 32.2767C99.2041 33.7173 101.024 34.3601 102.455 33.6128Z" fill="white"/>
<path d="M379.335 327.72C380.84 326.983 381.409 325.154 380.671 323.65C379.934 322.147 378.103 321.578 376.599 322.314C375.094 323.051 374.525 324.88 375.262 326.383C376.084 327.824 377.904 328.467 379.335 327.72Z" fill="white"/>
<path d="M321.348 421.387C322.853 420.651 323.422 418.822 322.684 417.318C321.947 415.814 320.117 415.245 318.612 415.982C317.107 416.718 316.538 418.547 317.276 420.051C318.098 421.492 319.917 422.134 321.348 421.387Z" fill="white"/>
<path d="M68.0478 59.3484C69.5525 58.612 70.1214 56.783 69.3841 55.2792C68.6467 53.7755 66.8163 53.2066 65.3115 53.9431C63.8068 54.6795 63.2379 56.5085 63.9753 58.0123C64.7974 59.4529 66.617 60.0957 68.0478 59.3484Z" fill="white"/>
<path d="M46.9477 104.157C48.4524 103.421 49.0213 101.592 48.284 100.088C47.5466 98.5841 45.7162 98.0152 44.2114 98.7517C42.7067 99.4881 42.1378 101.317 42.8752 102.821C43.6973 104.262 45.5169 104.904 46.9477 104.157Z" fill="white"/>
<path d="M335.013 218.54C336.517 217.803 337.086 215.974 336.349 214.471C335.612 212.967 333.781 212.398 332.276 213.134C330.772 213.871 330.203 215.7 330.94 217.204C331.762 218.644 333.582 219.287 335.013 218.54Z" fill="white"/>
<path d="M294.548 270.272C295.769 269.67 296.224 268.19 295.621 266.97C295.019 265.75 293.537 265.295 292.316 265.896C291.096 266.498 290.64 267.979 291.243 269.199C291.904 270.364 293.377 270.881 294.548 270.272Z" fill="white"/>
<path d="M287.312 268.965C288.533 268.363 288.988 266.882 288.385 265.662C287.783 264.443 286.301 263.987 285.08 264.589C283.859 265.191 283.404 266.672 284.007 267.892C284.667 269.057 286.14 269.574 287.312 268.965Z" fill="white"/>
<path d="M194.101 181.156C195.322 180.554 195.777 179.073 195.175 177.853C194.572 176.633 193.09 176.178 191.869 176.78C190.649 177.382 190.194 178.862 190.796 180.082C191.457 181.248 192.93 181.765 194.101 181.156Z" fill="white"/>
<path d="M327.59 227.406C328.81 226.805 329.266 225.324 328.663 224.104C328.06 222.884 326.578 222.429 325.358 223.031C324.137 223.632 323.682 225.113 324.284 226.333C324.945 227.499 326.418 228.015 327.59 227.406Z" fill="white"/>
<path d="M308.511 203.29C309.731 202.689 310.186 201.208 309.584 199.988C308.981 198.768 307.499 198.313 306.279 198.915C305.058 199.516 304.603 200.997 305.205 202.217C305.866 203.383 307.339 203.899 308.511 203.29Z" fill="white"/>
<path d="M278.761 240.774C279.981 240.173 280.436 238.692 279.834 237.472C279.231 236.252 277.749 235.797 276.529 236.399C275.308 237 274.853 238.481 275.455 239.701C276.116 240.867 277.589 241.383 278.761 240.774Z" fill="white"/>
<path d="M104.868 164.379C106.089 163.777 106.544 162.296 105.941 161.076C105.339 159.856 103.857 159.401 102.636 160.003C101.415 160.605 100.96 162.086 101.563 163.306C102.224 164.471 103.697 164.988 104.868 164.379Z" fill="white"/>
<path d="M44.7346 137.62C45.9554 137.018 46.4105 135.537 45.808 134.318C45.2055 133.098 43.7235 132.642 42.5028 133.244C41.2821 133.846 40.8269 135.327 41.4294 136.547C42.0902 137.712 43.5632 138.229 44.7346 137.62Z" fill="white"/>
<path d="M267.319 226.955C269.258 226.005 269.979 223.645 269.028 221.707C268.077 219.77 265.715 219.048 263.777 219.998C261.838 220.948 261.116 223.308 262.067 225.245C263.117 227.109 265.467 227.917 267.319 226.955Z" fill="white"/>
<path d="M309.265 274.155C310.905 273.35 311.524 271.352 310.718 269.713C309.913 268.073 307.913 267.454 306.273 268.259C304.632 269.064 304.014 271.062 304.819 272.701C305.71 274.277 307.698 274.97 309.265 274.155Z" fill="white"/>
<path d="M317.257 244.478C318.477 243.876 318.933 242.395 318.33 241.175C317.727 239.955 316.245 239.5 315.025 240.102C313.804 240.704 313.349 242.184 313.951 243.404C314.612 244.57 316.085 245.087 317.257 244.478Z" fill="white"/>
<path d="M160.702 76.5743L220.675 132.227" stroke="white" stroke-miterlimit="10"/>
<path d="M253.295 165.69L245.542 162.144L249.3 154.503L242.322 159.448L237.633 152.5L238.381 160.835L229.987 161.422L237.753 164.97L233.995 172.61L240.962 167.652L245.649 174.612L244.81 166.213L253.295 165.69Z" fill="#FFA135"/>
<path d="M385.185 194.236L381.132 186.726L388.739 182.905L380.19 182.652L380.642 174.29L376.207 181.392L369.162 176.792L373.215 184.301L365.608 188.122L374.156 188.376L373.703 196.75L378.09 189.541L385.185 194.236Z" fill="#FFA135"/>
<path d="M349.477 429.201L344.097 422.592L350.834 417.399L342.402 418.76L341.272 410.457L338.245 418.267L330.464 415.082L335.844 421.69L329.097 426.87L337.541 425.51L338.669 433.826L341.635 425.919L349.477 429.201Z" fill="#FFA135"/>
<path d="M77.7665 125.281L73.2861 118.024L80.6547 113.766L72.1102 114.003L72.0741 105.621L68.0562 112.972L60.7592 108.801L65.2272 116.056L57.871 120.316L66.4154 120.078L66.4533 128.449L70.4098 121.001L77.7665 125.281Z" fill="#FFA135"/>
</svg>
