<svg width="167" height="180" viewBox="0 0 167 180" fill="none" xmlns="http://www.w3.org/2000/svg">
<path d="M46.545 115.884C46.545 117.054 45.5869 118.012 44.4178 118.012C43.2487 118.012 42.2905 117.054 42.2905 115.884C42.2905 114.715 43.2487 113.756 44.4178 113.756C45.5869 113.756 46.545 114.715 46.545 115.884Z" fill="#0B2C41"/>
<path d="M46.3778 18.2473C45.4988 19.4783 43.8287 19.7421 42.598 18.9508C41.3674 18.0715 41.1037 16.4008 41.8948 15.1698C42.7738 13.9388 44.444 13.675 45.6746 14.4664C46.9052 15.3457 47.1689 17.0163 46.3778 18.2473Z" fill="#0B2C41"/>
<path d="M46.9669 86.647C46.0879 87.878 44.4178 88.1418 43.1871 87.3504C41.9565 86.4711 41.6928 84.8005 42.4839 83.5695C43.275 82.3385 45.0331 82.0747 46.2637 82.866C47.4943 83.7453 47.758 85.416 46.9669 86.647Z" fill="#0B2C41"/>
<path d="M114.766 149.279C113.94 150.431 112.375 150.686 111.215 149.939C110.063 149.112 109.808 147.547 110.555 146.386C111.302 145.226 112.946 144.979 114.107 145.727C115.258 146.553 115.513 148.118 114.766 149.279Z" fill="#0B2C41"/>
<path d="M128.874 98.4385C128.874 99.6695 127.863 100.681 126.632 100.681C125.402 100.681 124.391 99.6695 124.391 98.4385C124.391 97.2075 125.402 96.1963 126.632 96.1963C127.863 96.1963 128.874 97.2075 128.874 98.4385Z" fill="#0B2C41"/>
<path d="M46.2198 146.589C46.2198 147.758 45.2617 148.717 44.0926 148.717C42.9235 148.717 41.9653 147.758 41.9653 146.589C41.9653 145.419 42.9235 144.461 44.0926 144.461C45.2617 144.461 46.2198 145.419 46.2198 146.589Z" fill="#0B2C41"/>
<path d="M114.159 116.165C114.159 117.44 113.104 118.495 111.83 118.495C110.555 118.495 109.5 117.44 109.5 116.165C109.5 114.89 110.555 113.835 111.83 113.835C113.104 113.835 114.159 114.89 114.159 116.165Z" fill="#0B2C41"/>
<path d="M58.4643 101.068L61.1102 103.055L62.9825 100.408L62.6133 103.662L65.8657 103.961L62.8594 105.227L64.1867 108.181L61.5936 106.256L59.6686 108.902L60.0905 105.649L56.8381 105.35L59.8444 104.084L58.4643 101.068Z" fill="#7EBDBF"/>
<path d="M113.913 51.6074C113.227 52.5746 111.918 52.7768 110.951 52.1613C109.984 51.4755 109.782 50.1653 110.397 49.1981C111.012 48.2309 112.392 48.0286 113.359 48.6441C114.326 49.33 114.528 50.6401 113.913 51.6074Z" fill="#0B2C41"/>
<path d="M128.54 130.296C127.916 131.166 126.729 131.36 125.859 130.797C124.989 130.173 124.795 128.986 125.358 128.115C125.921 127.245 127.169 127.051 128.039 127.614C128.909 128.238 129.103 129.425 128.54 130.296Z" fill="#0B2C41"/>
<path d="M30.3094 99.1247C29.7116 99.96 28.5689 100.145 27.7339 99.6083C26.8988 99.0104 26.7142 97.8673 27.2504 97.0319C27.7866 96.1966 28.9909 96.012 29.8259 96.5483C30.661 97.1463 30.8456 98.2893 30.3094 99.1247Z" fill="#0B2C41"/>
<path d="M67.0891 143.003C66.6111 143.675 65.6999 143.825 65.0277 143.391C64.3555 142.913 64.2061 142.002 64.6393 141.329C65.0725 140.657 66.0285 140.507 66.7007 140.941C67.3729 141.419 67.5223 142.33 67.0891 143.003Z" fill="#7EBDBF"/>
<path d="M113.57 86.2164C113.025 86.9814 111.997 87.1397 111.232 86.6473C110.467 86.1021 110.309 85.0733 110.801 84.3083C111.294 83.5433 112.375 83.3851 113.14 83.8775C113.904 84.4226 114.063 85.4514 113.57 86.2164Z" fill="#0B2C41"/>
<path d="M95.7524 37.8115C95.3393 38.3919 94.557 38.515 93.9856 38.1369C93.4054 37.7236 93.2824 36.941 93.6604 36.3695C94.0383 35.798 94.8558 35.6661 95.4272 36.0442C96.0074 36.4574 96.1304 37.24 95.7524 37.8115Z" fill="#7EBDBF"/>
<path d="M51.603 12.1426C51.1899 12.7229 50.4076 12.846 49.8362 12.4679C49.256 12.0547 49.133 11.2721 49.511 10.7006C49.8889 10.129 50.7064 9.99712 51.2778 10.3752C51.8579 10.7885 51.981 11.5711 51.603 12.1426Z" fill="#7EBDBF"/>
<path d="M128.707 34.5232C128.074 35.4112 126.87 35.5959 125.982 35.0331C125.094 34.4001 124.91 33.1954 125.472 32.3073C126.035 31.4193 127.309 31.2346 128.197 31.7973C129.085 32.4304 129.27 33.6351 128.707 34.5232Z" fill="#0B2C41"/>
<path d="M128.601 69.3602C127.828 70.4417 126.36 70.6792 125.279 69.9757C124.198 69.2019 123.96 67.7335 124.663 66.652C125.367 65.5705 126.905 65.3331 127.986 66.0365C129.067 66.8103 129.305 68.2787 128.601 69.3602Z" fill="#0B2C41"/>
<path d="M137.299 96.7008C136.841 97.3441 135.976 97.4802 135.333 97.072C134.689 96.6142 134.553 95.7483 134.962 95.105C135.37 94.4617 136.285 94.3256 136.928 94.7338C137.571 95.1916 137.707 96.0575 137.299 96.7008Z" fill="#7EBDBF"/>
<path d="M154.146 26.1695C153.548 27.0048 152.406 27.1894 151.571 26.6531C150.735 26.0552 150.551 24.9121 151.087 24.0767C151.623 23.2414 152.828 23.0568 153.663 23.5931C154.498 24.1911 154.682 25.3341 154.146 26.1695Z" fill="#0B2C41"/>
<path d="M58.983 77.9337C58.6929 78.3382 58.1567 78.4173 57.7524 78.1623C57.348 77.8722 57.2689 77.3358 57.5238 76.9313C57.7788 76.5269 58.3501 76.4477 58.7545 76.7027C59.1588 76.9929 59.2379 77.5292 58.983 77.9337Z" fill="#7EBDBF"/>
<path d="M118.088 56.1098C117.877 56.4088 117.464 56.4791 117.165 56.2857C116.867 56.0747 116.805 55.6614 116.99 55.3624C117.174 55.0635 117.614 54.9931 117.913 55.1866C118.211 55.3976 118.273 55.8109 118.088 56.1098Z" fill="#7EBDBF"/>
<path d="M142.859 101.191C142.648 101.49 142.235 101.56 141.936 101.367C141.637 101.156 141.576 100.742 141.76 100.443C141.945 100.145 142.384 100.074 142.683 100.268C142.982 100.479 143.044 100.892 142.859 101.191Z" fill="#7EBDBF"/>
<path d="M126.931 33.3269L112.058 15.785H43.9604L29.0874 33.3269" stroke="#0B2C41" stroke-miterlimit="10"/>
<path d="M29.0874 32.6151L43.9604 50.157H112.058L126.931 32.6151" stroke="#0B2C41" stroke-miterlimit="10"/>
<path d="M158.303 9.15564L126.808 98.3687L111.944 115.911H43.8373L28.9731 98.3687L1.03784 62.9595" stroke="#0B2C41" stroke-miterlimit="10"/>
<path d="M29.0874 32.8787V129.566L43.9604 147.108H112.058L126.931 129.566V32.8787L152.458 24.9475" stroke="#0B2C41" stroke-miterlimit="10"/>
<path d="M28.9734 67.5664L43.8376 85.1083H111.944L126.808 67.5664" stroke="#0B2C41" stroke-miterlimit="10"/>
<path d="M43.9608 147.108C43.1345 146.395 111.944 115.91 111.944 115.91" stroke="#0B2C41" stroke-miterlimit="10"/>
<path d="M113.553 145.217L91.4629 170.875" stroke="#0B2C41" stroke-miterlimit="10"/>
<path d="M43.9607 84.8888V147.565" stroke="#0B2C41" stroke-miterlimit="10"/>
<path d="M111.926 49.9017V116.341" stroke="#0B2C41" stroke-miterlimit="10"/>
<path d="M44.1893 42.4979L46.044 47.5451L51.0105 45.6194L47.6087 49.6905L51.8192 53.0758L46.4923 52.1789L45.7363 57.4899L43.8816 52.4427L38.836 54.3772L42.3082 50.2181L38.0977 46.912L43.363 47.8176L44.1893 42.4979Z" fill="#FFA135"/>
<path d="M91.1815 164.552L92.6055 169.74L97.7126 168.245L93.9768 172.009L97.8884 175.746L92.6495 174.392L91.4452 179.623L90.0212 174.427L84.835 175.93L88.6499 172.088L84.7383 168.43L89.8981 169.784L91.1815 164.552Z" fill="#FFA135"/>
<path d="M157.688 0.53833L159.895 5.45358L164.72 3.185L161.6 7.47595L166.048 10.5623L160.659 10.0347L160.281 15.3896L158.075 10.4831L153.179 12.7605L156.352 8.38162L151.931 5.36565L157.231 5.91081L157.688 0.53833Z" fill="#FFA135"/>
<path d="M31.1445 33.8463C30.5732 34.6464 29.492 34.8135 28.6921 34.3035C27.8922 33.732 27.7252 32.6504 28.235 31.8503C28.7448 31.0501 29.8876 30.8831 30.6875 31.393C31.4874 31.9646 31.6544 33.0461 31.1445 33.8463Z" fill="#0B2C41"/>
<path d="M30.5554 68.5428C29.9841 69.343 28.9029 69.51 28.103 69C27.3031 68.4285 27.1361 67.347 27.6459 66.5468C28.1557 65.7467 29.2984 65.5796 30.0983 66.0896C30.8983 66.6611 31.0653 67.7426 30.5554 68.5428Z" fill="#0B2C41"/>
<path d="M4.71251 65.6761C3.88623 66.8368 2.31278 67.083 1.16126 66.3356C0.000958137 65.5091 -0.245167 63.9351 0.502 62.7833C1.24917 61.6314 2.90172 61.3764 4.05324 62.1238C5.21355 62.9503 5.45967 64.5243 4.71251 65.6761Z" fill="#0B2C41"/>
<path d="M30.2393 130.384C29.6416 131.219 28.4989 131.404 27.6638 130.867C26.8287 130.269 26.6441 129.126 27.1803 128.291C27.7165 127.456 28.9208 127.271 29.7559 127.807C30.5909 128.405 30.7755 129.548 30.2393 130.384Z" fill="#0B2C41"/>
<path d="M101.431 20.6563L104.077 22.6523L105.949 19.9968L105.589 23.2502L108.841 23.5492L105.826 24.8154L107.153 27.7698L104.56 25.8441L102.635 28.4908L103.057 25.2374L99.8047 24.9385L102.82 23.6723L101.431 20.6563Z" fill="#7EBDBF"/>
<path d="M103.904 94.0215C103.03 94.3129 102.098 93.8613 101.778 93.0164C101.486 92.1425 101.952 91.2102 102.782 90.8898C103.613 90.5693 104.588 91.05 104.909 91.8948C105.2 92.7688 104.734 93.7011 103.904 94.0215Z" fill="#7EBDBF"/>
<path d="M98.7326 91.6946C98.381 91.8177 98.0118 91.6242 97.8799 91.2989C97.7568 90.9472 97.9502 90.5779 98.2755 90.446C98.6007 90.3141 98.9963 90.5163 99.1281 90.8417C99.2512 91.1934 99.0578 91.5627 98.7326 91.6946Z" fill="#7EBDBF"/>
<path d="M108.217 124.36C107.866 124.483 107.497 124.29 107.365 123.965C107.242 123.613 107.435 123.244 107.76 123.112C108.086 122.98 108.481 123.182 108.613 123.507C108.736 123.859 108.543 124.228 108.217 124.36Z" fill="#7EBDBF"/>
<path d="M127.89 138.077C127.538 138.201 127.169 138.007 127.037 137.682C126.914 137.33 127.107 136.961 127.432 136.829C127.758 136.697 128.153 136.899 128.285 137.224C128.408 137.576 128.215 137.946 127.89 138.077Z" fill="#7EBDBF"/>
<path d="M93.8715 158.292C93.5199 158.415 93.1507 158.222 93.0188 157.896C92.8958 157.545 93.0892 157.175 93.4144 157.044C93.7396 156.912 94.1352 157.114 94.267 157.439C94.3901 157.791 94.1967 158.16 93.8715 158.292Z" fill="#7EBDBF"/>
<path d="M150.305 18.1943C149.953 18.3174 149.584 18.124 149.452 17.7987C149.329 17.4469 149.522 17.0776 149.847 16.9458C150.173 16.8139 150.568 17.0161 150.7 17.3414C150.823 17.6932 150.63 18.0625 150.305 18.1943Z" fill="#7EBDBF"/>
<path d="M155.157 33.3271C154.647 33.503 154.111 33.2304 153.917 32.7468C153.742 32.2368 154.014 31.7004 154.498 31.507C154.981 31.3136 155.544 31.6037 155.737 32.0873C155.913 32.5973 155.64 33.1337 155.157 33.3271Z" fill="#7EBDBF"/>
<path d="M25.2243 71.5127C24.6358 71.7187 24.0179 71.395 23.7972 70.8504C23.5912 70.2617 23.9149 69.6436 24.4593 69.4229C25.0036 69.2021 25.6657 69.5406 25.8864 70.0851C26.0923 70.6738 25.7687 71.2919 25.2243 71.5127Z" fill="#7EBDBF"/>
<path d="M24.001 98.8107C23.592 98.9497 23.1598 98.7335 23.0054 98.3475C22.8665 97.9383 23.0826 97.506 23.4685 97.3516C23.8544 97.1972 24.3097 97.4288 24.4641 97.8148C24.603 98.224 24.3869 98.6563 24.001 98.8107Z" fill="#7EBDBF"/>
<path d="M33.5156 110.832C32.8756 111.056 32.2036 110.704 31.9636 110.111C31.7395 109.471 32.0916 108.799 32.6836 108.559C33.2756 108.319 33.9956 108.687 34.2356 109.279C34.4597 109.919 34.1076 110.592 33.5156 110.832Z" fill="#7EBDBF"/>
<path d="M29.9489 138.411C29.5973 138.534 29.2281 138.341 29.0962 138.016C28.9732 137.664 29.1665 137.295 29.4918 137.163C29.817 137.031 30.2126 137.233 30.3444 137.558C30.4675 137.91 30.2741 138.279 29.9489 138.411Z" fill="#7EBDBF"/>
<path d="M35.4078 32.6415C34.9946 32.7822 34.5551 32.5624 34.3969 32.1667C34.2563 31.7535 34.476 31.3138 34.8716 31.1555C35.2671 30.9973 35.7242 31.2347 35.8824 31.6304C36.0231 32.0436 35.8033 32.4833 35.4078 32.6415Z" fill="#7EBDBF"/>
<path d="M111.338 22.0192C110.986 22.1423 110.617 21.9488 110.485 21.6235C110.362 21.2718 110.555 20.9025 110.88 20.7706C111.206 20.6387 111.601 20.8409 111.733 21.1663C111.856 21.518 111.663 21.8873 111.338 22.0192Z" fill="#7EBDBF"/>
<path d="M112.427 17.0777C111.733 17.3151 111.012 16.9458 110.748 16.2864C110.511 15.5917 110.88 14.8707 111.54 14.6069C112.199 14.3431 112.955 14.7388 113.219 15.3983C113.456 16.0929 113.087 16.8139 112.427 17.0777Z" fill="#0B2C41"/>
</svg>
