<svg width="1206" height="840" viewBox="0 0 1206 840" fill="none" xmlns="http://www.w3.org/2000/svg">
<g opacity="0.3">
<path d="M481.362 533.32C479.891 533.32 478.696 532.135 478.696 530.676C478.696 529.218 479.891 528.032 481.362 528.032C482.833 528.032 484.029 529.218 484.029 530.676C484.029 532.135 482.833 533.32 481.362 533.32Z" fill="#75A3C1"/>
<path d="M459.998 508.917C459.998 510.377 461.192 511.561 462.665 511.561C464.138 511.561 465.332 510.377 465.332 508.917C465.332 507.457 464.138 506.273 462.665 506.273C461.192 506.273 459.998 507.457 459.998 508.917Z" fill="#75A3C1"/>
<path d="M432.137 477.586C432.137 479.046 433.331 480.23 434.804 480.23C436.276 480.23 437.47 479.046 437.47 477.586C437.47 476.126 436.276 474.942 434.804 474.942C433.331 474.942 432.137 476.126 432.137 477.586Z" fill="#75A3C1"/>
<path d="M426.65 494.786C427.785 493.176 430.022 492.781 431.677 493.905C433.302 495.029 433.7 497.248 432.566 498.889C431.432 500.53 429.194 500.895 427.539 499.77C425.915 498.646 425.516 496.427 426.65 494.786Z" fill="#75A3C1"/>
<path d="M391.77 471.417C392.904 469.806 395.142 469.411 396.797 470.536C398.452 471.66 398.82 473.878 397.686 475.519C396.551 477.13 394.314 477.525 392.659 476.401C391.034 475.276 390.636 473.058 391.77 471.417Z" fill="#75A3C1"/>
<path d="M394.253 473.453C394.253 473.453 394.283 473.24 394.375 473.149C394.467 473.027 394.62 472.997 394.774 472.997L434.865 477.13C434.865 477.13 435.11 477.221 435.171 477.312C435.233 477.403 435.294 477.555 435.263 477.677L431.708 496.549L462.849 508.492C462.849 508.492 462.972 508.552 463.033 508.613L481.73 530.372L495.186 555.352L494.358 555.778L480.964 530.889L462.389 509.282L431.003 497.248C430.788 497.156 430.666 496.944 430.727 496.731L434.252 477.981L395.295 473.969L400.291 495.637L429.593 496.397L429.593 497.308L399.892 496.549C399.678 496.549 399.494 496.397 399.463 496.184L394.222 473.574C394.222 473.574 394.222 473.513 394.222 473.483L394.253 473.453Z" fill="#75A3C1"/>
<path d="M410.958 496.731L404.889 498.099L406.421 504.055L402.191 499.557L397.747 503.842L399.555 497.947L393.579 496.275L399.647 494.908L398.115 488.921L402.345 493.449L406.82 489.164L404.981 495.029L410.958 496.731Z" fill="#75A3C1"/>
<path d="M504.228 556.72L498.189 558.087L499.691 564.074L495.461 559.546L491.017 563.861L492.856 557.966L486.879 556.294L492.917 554.927L491.416 548.94L495.645 553.468L500.09 549.153L498.251 555.048L504.228 556.72Z" fill="#75A3C1"/>
<path d="M426.614 762.487L421.097 765.344L424.07 770.753L418.829 767.441L415.611 772.698L415.886 766.56L409.664 766.408L415.182 763.581L412.178 758.172L417.45 761.485L420.668 756.197L420.392 762.366L426.614 762.487Z" fill="#75A3C1"/>
<path d="M321.85 687.121L318.111 692.044L323.168 695.63L317.007 694.901L316.394 701.04L313.973 695.357L308.302 697.91L312.042 692.986L306.984 689.401L313.145 690.13L313.758 683.991L316.18 689.674L321.85 687.121Z" fill="#75A3C1"/>
<path d="M286.62 625.205L283.9 630.783L289.551 633.333L283.359 633.769L283.934 639.911L280.474 634.828L275.392 638.39L278.118 632.842L272.467 630.292L278.66 629.856L278.085 623.714L281.545 628.797L286.62 625.205Z" fill="#75A3C1"/>
<path d="M437.701 791.888L434.148 794.9L437.299 798.397L432.845 796.822L431.393 801.263L430.521 796.682L425.918 797.626L429.501 794.621L426.35 791.124L430.775 792.692L432.227 788.251L433.098 792.832L437.701 791.888Z" fill="#75A3C1"/>
<path d="M391.549 669.222C392.683 667.612 394.921 667.217 396.576 668.341C398.201 669.465 398.599 671.684 397.465 673.325C396.331 674.936 394.093 675.331 392.438 674.206C390.814 673.082 390.415 670.863 391.549 669.222Z" fill="#75A3C1"/>
<path d="M321.789 753.188C322.923 751.578 325.161 751.182 326.816 752.307C328.44 753.431 328.839 755.65 327.705 757.291C326.571 758.901 324.333 759.296 322.678 758.172C321.023 757.048 320.655 754.829 321.789 753.188Z" fill="#75A3C1"/>
<path d="M378.309 600.481C379.443 598.871 381.68 598.476 383.335 599.6C384.96 600.724 385.358 602.943 384.224 604.584C383.09 606.195 380.853 606.59 379.197 605.465C377.573 604.341 377.175 602.122 378.309 600.481Z" fill="#75A3C1"/>
<path d="M310.399 611.766C311.402 610.341 313.38 609.992 314.844 610.986C316.281 611.981 316.633 613.942 315.63 615.393C314.627 616.818 312.649 617.167 311.185 616.173C309.749 615.178 309.396 613.217 310.399 611.766Z" fill="#75A3C1"/>
<path d="M503.517 752.277C504.651 750.666 506.888 750.271 508.543 751.396C510.168 752.52 510.566 754.738 509.432 756.379C508.298 758.02 506.061 758.385 504.406 757.261C502.781 756.136 502.383 753.918 503.517 752.277Z" fill="#75A3C1"/>
<path d="M473.48 710.217C474.614 708.607 476.851 708.212 478.506 709.336C480.131 710.461 480.529 712.679 479.395 714.32C478.261 715.931 476.024 716.326 474.368 715.201C472.713 714.077 472.345 711.859 473.48 710.217Z" fill="#75A3C1"/>
<path d="M441.541 716.113C442.675 714.502 444.913 714.107 446.568 715.232C448.192 716.356 448.591 718.575 447.457 720.216C446.323 721.826 444.085 722.221 442.43 721.097C440.805 719.972 440.407 717.754 441.541 716.113Z" fill="#75A3C1"/>
<path d="M436.913 655.243L431.151 657.006L433.051 662.658L428.637 658.586L424.653 663.053L426.001 657.218L420.116 656.003L425.879 654.271L423.978 648.618L428.361 652.69L432.377 648.223L431.028 654.058L436.913 655.243Z" fill="#75A3C1"/>
<path d="M369.125 622.141L365.364 626.556L369.898 630.179L364.167 629.177L363.267 634.897L361.288 629.451L355.862 631.577L359.614 627.133L355.088 623.539L360.819 624.541L361.69 618.829L363.69 624.238L369.125 622.141Z" fill="#75A3C1"/>
<path d="M419.396 794.761C419.396 796.221 420.59 797.404 422.062 797.404C423.535 797.404 424.729 796.221 424.729 794.761C424.729 793.3 423.535 792.117 422.062 792.117C420.59 792.117 419.396 793.3 419.396 794.761Z" fill="#75A3C1"/>
<path d="M506.459 704.839C504.988 704.839 503.793 703.654 503.793 702.195C503.793 700.736 504.988 699.551 506.459 699.551C507.931 699.551 509.126 700.736 509.126 702.195C509.126 703.654 507.931 704.839 506.459 704.839Z" fill="#75A3C1"/>
<path d="M416.867 741.337C415.396 741.337 414.2 740.151 414.2 738.693C414.2 737.234 415.396 736.049 416.867 736.049C418.338 736.049 419.534 737.234 419.534 738.693C419.534 740.151 418.338 741.337 416.867 741.337Z" fill="#75A3C1"/>
<path d="M323.965 645.609C322.494 645.609 321.299 644.424 321.299 642.965C321.299 641.507 322.494 640.322 323.965 640.322C325.436 640.322 326.632 641.507 326.632 642.965C326.632 644.424 325.436 645.609 323.965 645.609Z" fill="#75A3C1"/>
<path d="M336.992 760.056C335.52 760.056 334.325 758.871 334.325 757.412C334.325 755.953 335.52 754.768 336.992 754.768C338.463 754.768 339.658 755.953 339.658 757.412C339.658 758.871 338.463 760.056 336.992 760.056Z" fill="#75A3C1"/>
<path d="M238.48 706.784C237.009 706.784 235.813 705.598 235.813 704.14C235.813 702.681 237.009 701.496 238.48 701.496C239.951 701.496 241.146 702.681 241.146 704.14C241.146 705.598 239.951 706.784 238.48 706.784Z" fill="#75A3C1"/>
<path d="M226.22 709.852C224.749 709.852 223.553 708.667 223.553 707.209C223.553 705.75 224.749 704.565 226.22 704.565C227.691 704.565 228.887 705.75 228.887 707.209C228.887 708.667 227.691 709.852 226.22 709.852Z" fill="#75A3C1"/>
<path d="M226.097 706.753L238.296 703.714L323.72 642.571C323.72 642.571 324.088 642.449 324.241 642.571C324.394 642.662 324.486 642.875 324.455 643.027L315.72 692.531L325.252 755.164L324.333 755.285L314.801 692.561C314.801 692.561 314.801 692.47 314.801 692.41L323.352 643.938L238.787 704.474C238.787 704.474 238.695 704.535 238.633 704.535L226.373 707.574L226.159 706.693L226.097 706.753Z" fill="#75A3C1"/>
<path d="M314.77 692.652L315.659 692.379L337.451 757.26L336.562 757.564L314.77 692.652Z" fill="#75A3C1"/>
<path d="M417.664 763.893C417.664 763.747 417.817 763.621 418.032 763.58C418.277 763.559 418.492 763.642 418.553 763.789L431.825 793.965L430.936 794.154L418.921 766.865L422.354 794.698L421.434 794.761L417.633 763.935C417.633 763.935 417.633 763.935 417.633 763.914L417.664 763.893Z" fill="#75A3C1"/>
<path d="M323.505 642.966C323.505 642.966 323.505 642.905 323.505 642.875C323.505 642.723 323.628 642.601 323.781 642.54L362.186 625.948C362.37 625.857 362.616 625.948 362.738 626.1L394.646 670.711L427.932 656.216C428.116 656.124 428.331 656.216 428.453 656.337L476.544 711.737L506.276 701.769C506.276 701.769 506.582 701.769 506.705 701.83C506.827 701.921 506.889 702.043 506.889 702.195L506.889 754.313C506.889 754.525 506.766 754.677 506.582 754.738C506.398 754.799 506.184 754.738 506.061 754.556L476.177 712.71L444.668 718.544L417.297 738.875L418.553 763.976L417.634 764.037L416.346 738.844L323.597 643.239C323.597 643.239 323.475 643.027 323.475 642.935L323.505 642.966ZM362.217 626.951L324.762 643.118L416.898 738.085L444.239 717.785C444.239 717.785 444.361 717.724 444.422 717.693L475.564 711.919L427.994 657.158L394.676 671.684C394.462 671.775 394.247 671.684 394.125 671.532L362.217 626.92L362.217 626.951ZM506 702.863L477.157 712.527L506 752.945L506 702.894L506 702.863Z" fill="#75A3C1"/>
<path d="M362.002 626.069L380.883 602.214C380.883 602.214 381.098 602.031 381.251 602.031C381.404 602.031 381.527 602.092 381.619 602.183L428.484 656.276L427.779 656.884L381.282 603.216L362.738 626.616L362.002 626.039L362.002 626.069Z" fill="#75A3C1"/>
<path d="M280.813 632.295L282.031 632.823L313.391 613.916C313.391 613.916 313.565 613.952 313.662 613.95L381.063 603.108L381.063 602.358L313 613.108L280.813 632.295Z" fill="#75A3C1"/>
<path d="M1193.07 329.7L1189.33 334.623L1194.39 338.209L1188.19 337.479L1187.61 343.618L1185.16 337.935L1179.49 340.488L1183.23 335.565L1178.17 331.979L1184.36 332.708L1184.95 326.57L1187.4 332.252L1193.07 329.7Z" fill="#75A3C1"/>
<path d="M1157.08 453.354L1153.34 458.277L1158.4 461.863L1152.21 461.134L1151.63 467.272L1149.18 461.59L1143.51 464.142L1147.25 459.219L1142.19 455.633L1148.38 456.363L1148.96 450.224L1151.41 455.907L1157.08 453.354Z" fill="#75A3C1"/>
<path d="M1154.05 379.599C1155.18 377.988 1157.42 377.593 1159.08 378.718C1160.7 379.842 1161.1 382.06 1159.97 383.701C1158.83 385.312 1156.59 385.707 1154.94 384.583C1153.31 383.458 1152.92 381.24 1154.05 379.599Z" fill="#75A3C1"/>
<path d="M1149.88 458.763C1149.88 458.763 1149.88 458.763 1149.88 458.733L1156.53 381.605C1156.53 381.605 1156.53 381.453 1156.59 381.392L1185.87 334.835C1185.96 334.653 1186.17 334.592 1186.36 334.623L1239.72 347.812L1249.59 345.654C1249.59 345.654 1249.86 345.654 1249.99 345.745C1250.11 345.836 1250.17 345.958 1250.17 346.11L1250.17 362.611L1249.25 362.611L1249.25 346.687L1240.06 348.693L1213.18 405.491C1213.18 405.491 1213.11 405.612 1213.05 405.643L1150.59 459.098C1150.59 459.098 1150.25 459.25 1150.07 459.158C1149.91 459.067 1149.82 458.915 1149.82 458.763L1149.88 458.763ZM1157.45 381.787L1150.89 457.669L1212.41 405.005L1239.11 348.602L1186.48 335.626L1157.42 381.787L1157.45 381.787Z" fill="#75A3C1"/>
<path d="M743.927 635.651L740.187 640.574L745.245 644.16L739.084 643.431L738.471 649.569L736.019 643.887L730.348 646.439L734.088 641.516L729.03 637.93L735.222 638.66L735.804 632.521L738.256 638.204L743.927 635.651Z" fill="#75A3C1"/>
<path d="M706.961 652.973C708.096 651.362 710.333 650.967 711.988 652.092C713.613 653.216 714.011 655.434 712.877 657.075C711.743 658.716 709.505 659.081 707.85 657.957C706.195 656.832 705.827 654.614 706.961 652.973Z" fill="#75A3C1"/>
<path d="M767.619 605.201C766.148 605.201 764.952 604.016 764.952 602.557C764.952 601.098 766.148 599.913 767.619 599.913C769.09 599.913 770.286 601.098 770.286 602.557C770.286 604.016 769.09 605.201 767.619 605.201Z" fill="#75A3C1"/>
<path d="M737.765 619.272C736.294 619.272 735.099 618.086 735.099 616.628C735.099 615.169 736.294 613.984 737.765 613.984C739.237 613.984 740.432 615.169 740.432 616.628C740.432 618.086 739.237 619.272 737.765 619.272Z" fill="#75A3C1"/>
<path d="M709.689 654.614L736.692 640.757L737.305 616.597C737.305 616.415 737.428 616.263 737.581 616.202L766.975 602.375L746.777 573.201L747.543 572.685L768.048 602.314C768.048 602.314 768.14 602.557 768.109 602.679C768.079 602.8 767.987 602.922 767.864 602.983L738.256 616.932L737.643 641.061C737.643 641.213 737.551 641.365 737.397 641.456L710.149 655.435L709.72 654.614L709.689 654.614Z" fill="#75A3C1"/>
<path d="M754.102 572.958L747.911 573.232L748.309 579.37L744.968 574.174L739.819 577.608L742.669 572.138L737.091 569.433L743.313 569.159L742.884 563.021L746.225 568.217L751.405 564.783L748.524 570.253L754.102 572.958Z" fill="#75A3C1"/>
<path d="M1044.08 624.196L1126.19 506.68L1115.16 502.973L1088.59 522.878L1088.03 522.148L1114.82 502.091C1114.82 502.091 1115.1 501.97 1115.25 502.03L1127.11 506.011C1127.11 506.011 1127.36 506.163 1127.39 506.315C1127.42 506.437 1127.39 506.589 1127.33 506.71L1044.85 624.712L1044.08 624.196Z" fill="#75A3C1"/>
<path d="M1112.13 500.45C1113.26 498.84 1115.5 498.445 1117.15 499.569C1118.78 500.693 1119.18 502.912 1118.04 504.553C1116.91 506.164 1114.67 506.559 1113.01 505.434C1111.39 504.31 1110.99 502.091 1112.13 500.45Z" fill="#75A3C1"/>
<path d="M1044.45 627.113C1042.98 627.113 1041.78 625.928 1041.78 624.469C1041.78 623.011 1042.98 621.825 1044.45 621.825C1045.92 621.825 1047.12 623.011 1047.12 624.469C1047.12 625.928 1045.92 627.113 1044.45 627.113Z" fill="#75A3C1"/>
<path d="M1126.93 509.08C1125.46 509.08 1124.26 507.895 1124.26 506.437C1124.26 504.978 1125.46 503.793 1126.93 503.793C1128.4 503.793 1129.6 504.978 1129.6 506.437C1129.6 507.895 1128.4 509.08 1126.93 509.08Z" fill="#75A3C1"/>
<path d="M1094.93 524.093L1088.86 525.461L1090.39 531.447L1086.16 526.919L1081.72 531.204L1083.53 525.339L1077.55 523.637L1083.62 522.27L1082.09 516.283L1086.32 520.811L1090.79 516.526L1088.95 522.422L1094.93 524.093Z" fill="#75A3C1"/>
<path d="M1017.12 701.116L1018.81 705.482L1023.13 703.653L1020.16 707.333L1023.87 710.175L1019.26 709.479L1018.63 714.134L1016.98 709.758L1012.63 711.571L1015.58 707.917L1011.87 705.075L1016.48 705.771L1017.12 701.116Z" fill="#75A3C1"/>
<path d="M938.642 745.919C937.871 744.106 938.715 741.997 940.543 741.183C942.355 740.395 944.45 741.227 945.247 743.055C946.017 744.868 945.173 746.978 943.345 747.791C941.533 748.579 939.438 747.748 938.642 745.919Z" fill="#75A3C1"/>
<path d="M918.939 749.89C918.164 751.14 916.526 751.531 915.287 750.762C914.047 749.993 913.67 748.352 914.446 747.102C915.222 745.852 916.859 745.461 918.099 746.23C919.338 746.999 919.715 748.64 918.939 749.89Z" fill="#75A3C1"/>
<path d="M947.53 724.849C946.755 726.1 945.117 726.49 943.878 725.721C942.639 724.952 942.262 723.312 943.037 722.062C943.813 720.811 945.45 720.421 946.69 721.19C947.929 721.959 948.306 723.599 947.53 724.849Z" fill="#75A3C1"/>
<path d="M960.475 703.987C959.699 705.237 958.062 705.628 956.822 704.859C955.583 704.09 955.206 702.45 955.982 701.199C956.757 699.949 958.395 699.558 959.634 700.328C960.874 701.097 961.251 702.737 960.475 703.987Z" fill="#75A3C1"/>
<path d="M992.763 717.024C991.988 718.275 990.35 718.665 989.111 717.896C987.871 717.127 987.495 715.487 988.27 714.237C989.046 712.986 990.683 712.596 991.923 713.365C993.162 714.134 993.539 715.774 992.763 717.024Z" fill="#75A3C1"/>
<path d="M1070.65 710.99C1071.89 711.76 1073.52 711.369 1074.3 710.118C1075.08 708.867 1074.7 707.228 1073.46 706.458C1072.22 705.688 1070.58 706.079 1069.81 707.33C1069.03 708.581 1069.41 710.22 1070.65 710.99Z" fill="#75A3C1"/>
<path d="M916.45 748.887C916.45 748.887 916.295 748.791 916.292 748.681C916.202 748.48 916.263 748.266 916.412 748.142L944.945 723.137L957.857 702.328C957.97 702.145 958.213 702.043 958.409 702.129L990.527 715.096L1017.75 707.133C1017.75 707.133 1017.83 707.113 1017.9 707.119L1072.07 708.232L1072.04 709.149L1017.94 708.043L990.63 716.025C990.63 716.025 990.436 716.049 990.317 716.011L958.412 703.105L945.71 723.576L942.388 744.492C942.369 744.697 942.178 744.831 942.01 744.871L916.738 748.885C916.738 748.885 916.518 748.893 916.415 748.829L916.45 748.887ZM944.625 724.634L918.169 747.789L941.539 744.074L944.625 724.634Z" fill="#75A3C1"/>
<path d="M787.525 528.691L781.732 530.849L784.084 536.584L779.271 532.671L775.467 537.528L776.464 531.432L770.307 530.553L776.101 528.396L773.748 522.66L778.562 526.574L782.365 521.716L781.369 527.813L787.525 528.691Z" fill="#75A3C1"/>
<path d="M1106.33 327.041L1100.54 329.198L1102.89 334.934L1098.05 331.004L1094.28 335.878L1095.25 329.765L1089.09 328.886L1094.88 326.729L1092.53 320.993L1097.35 324.907L1101.15 320.049L1100.18 326.162L1106.33 327.041Z" fill="#75A3C1"/>
<path d="M1126.8 119.221L1121.93 123.008L1125.9 127.792L1120.15 125.477L1117.97 131.258L1117.08 125.113L1110.95 126.127L1115.84 122.314L1111.87 117.531L1117.65 119.862L1119.79 114.065L1120.69 120.209L1126.8 119.221Z" fill="#75A3C1"/>
<path d="M1008.39 277.068L1002.58 279.251L1004.93 284.987L1000.13 281.047L996.329 285.905L997.309 279.834L991.153 278.955L996.963 276.773L994.61 271.037L999.407 274.976L1003.21 270.119L1002.23 276.189L1008.39 277.068Z" fill="#75A3C1"/>
<path d="M869.817 472.975C871.637 472.222 873.738 473.086 874.535 474.921C875.305 476.74 874.454 478.828 872.618 479.607C870.798 480.36 868.697 479.497 867.9 477.661C867.13 475.842 867.981 473.754 869.817 472.975Z" fill="#75A3C1"/>
<path d="M927.721 480.775C929.541 480.022 931.643 480.886 932.439 482.721C933.209 484.54 932.359 486.628 930.522 487.407C928.702 488.16 926.601 487.297 925.805 485.461C925.034 483.642 925.885 481.554 927.721 480.775Z" fill="#75A3C1"/>
<path d="M1010.61 314.739C1012.43 313.985 1014.53 314.849 1015.33 316.685C1016.1 318.504 1015.25 320.591 1013.41 321.37C1011.57 322.15 1009.49 321.26 1008.69 319.424C1007.89 317.589 1008.77 315.518 1010.61 314.739Z" fill="#75A3C1"/>
<path d="M1155.06 184.4C1156.88 183.646 1158.98 184.51 1159.78 186.346C1160.57 188.181 1159.69 190.252 1157.86 191.031C1156.04 191.785 1153.94 190.921 1153.14 189.085C1152.37 187.266 1153.22 185.179 1155.06 184.4Z" fill="#75A3C1"/>
<path d="M1014.75 444.957C1016.57 444.204 1018.68 445.067 1019.47 446.903C1020.24 448.722 1019.39 450.81 1017.56 451.589C1015.74 452.342 1013.63 451.478 1012.84 449.643C1012.07 447.824 1012.92 445.736 1014.75 444.957Z" fill="#75A3C1"/>
<path d="M902.441 418.852C904.261 418.099 906.363 418.962 907.159 420.798C907.955 422.634 907.079 424.704 905.242 425.484C903.406 426.263 901.321 425.373 900.524 423.538C899.754 421.718 900.605 419.631 902.441 418.852Z" fill="#75A3C1"/>
<path d="M915.292 470.669C914.05 469.882 913.674 468.241 914.455 467.009C915.236 465.777 916.88 465.415 918.122 466.203C919.365 466.99 919.741 468.631 918.96 469.863C918.179 471.095 916.535 471.457 915.292 470.669Z" fill="#75A3C1"/>
<path d="M862.889 459.915C861.646 459.128 861.27 457.487 862.051 456.255C862.832 455.023 864.476 454.661 865.719 455.449C866.961 456.236 867.337 457.877 866.556 459.109C865.775 460.341 864.131 460.703 862.889 459.915Z" fill="#75A3C1"/>
<path d="M812.885 455.107C811.642 454.32 811.267 452.679 812.048 451.447C812.828 450.215 814.472 449.853 815.715 450.641C816.958 451.428 817.333 453.069 816.553 454.301C815.772 455.533 814.128 455.895 812.885 455.107Z" fill="#75A3C1"/>
<path d="M781.288 475.884C780.046 475.097 779.67 473.456 780.451 472.223C781.232 470.991 782.876 470.63 784.119 471.417C785.361 472.205 785.737 473.846 784.956 475.078C784.175 476.31 782.531 476.671 781.288 475.884Z" fill="#75A3C1"/>
<path d="M813.24 512.389C811.997 511.602 811.621 509.961 812.402 508.729C813.183 507.497 814.827 507.135 816.07 507.923C817.313 508.71 817.688 510.351 816.907 511.583C816.127 512.815 814.482 513.177 813.24 512.389Z" fill="#75A3C1"/>
<path d="M940.319 493.363C939.076 492.575 938.701 490.934 939.482 489.702C940.262 488.47 941.907 488.109 943.149 488.896C944.392 489.683 944.768 491.324 943.987 492.557C943.206 493.789 941.562 494.15 940.319 493.363Z" fill="#75A3C1"/>
<path d="M976.008 221.08C974.765 220.292 974.39 218.652 975.17 217.419C975.951 216.187 977.595 215.826 978.838 216.613C980.081 217.401 980.456 219.042 979.675 220.274C978.895 221.506 977.25 221.867 976.008 221.08Z" fill="#75A3C1"/>
<path d="M1035.25 291.358C1034.47 292.592 1034.85 294.23 1036.09 295.019C1037.34 295.807 1038.98 295.446 1039.76 294.213C1040.54 292.979 1040.17 291.34 1038.92 290.552C1037.68 289.764 1036.04 290.125 1035.25 291.358Z" fill="#75A3C1"/>
<path d="M1027.93 206.2C1026.68 205.412 1026.31 203.771 1027.09 202.539C1027.87 201.307 1029.51 200.946 1030.76 201.733C1032 202.52 1032.37 204.161 1031.59 205.393C1030.81 206.626 1029.17 206.987 1027.93 206.2Z" fill="#75A3C1"/>
<path d="M1017.44 162.214C1016.2 161.427 1015.82 159.786 1016.6 158.553C1017.38 157.321 1019.03 156.96 1020.27 157.747C1021.51 158.535 1021.89 160.176 1021.11 161.408C1020.33 162.64 1018.68 163.001 1017.44 162.214Z" fill="#75A3C1"/>
<path d="M1121.09 286.921C1119.84 286.134 1119.47 284.493 1120.25 283.26C1121.03 282.028 1122.67 281.667 1123.92 282.454C1125.16 283.242 1125.54 284.883 1124.75 286.115C1123.97 287.347 1122.33 287.708 1121.09 286.921Z" fill="#75A3C1"/>
<path d="M1130.9 271.442C1129.65 270.654 1129.28 269.013 1130.06 267.781C1130.84 266.549 1132.48 266.187 1133.73 266.975C1134.97 267.762 1135.34 269.403 1134.56 270.635C1133.78 271.868 1132.14 272.229 1130.9 271.442Z" fill="#75A3C1"/>
<path d="M1043.73 286.114C1042.49 285.327 1042.11 283.686 1042.89 282.454C1043.67 281.222 1045.32 280.86 1046.56 281.648C1047.8 282.435 1048.18 284.076 1047.4 285.308C1046.62 286.54 1044.97 286.902 1043.73 286.114Z" fill="#75A3C1"/>
<path d="M1050.28 487.844C1049.03 487.056 1048.66 485.415 1049.44 484.183C1050.22 482.951 1051.87 482.59 1053.11 483.377C1054.35 484.164 1054.73 485.805 1053.95 487.038C1053.16 488.27 1051.52 488.631 1050.28 487.844Z" fill="#75A3C1"/>
<path d="M1006.85 470.669C1005.6 469.882 1005.23 468.241 1006.01 467.009C1006.79 465.777 1008.43 465.415 1009.68 466.203C1010.92 466.99 1011.29 468.631 1010.51 469.863C1009.73 471.095 1008.09 471.457 1006.85 470.669Z" fill="#75A3C1"/>
<path d="M914.099 431.779C912.856 430.992 912.48 429.351 913.261 428.118C914.042 426.886 915.686 426.525 916.929 427.312C918.171 428.1 918.547 429.741 917.766 430.973C916.985 432.205 915.341 432.566 914.099 431.779Z" fill="#75A3C1"/>
<path d="M1018.42 160.099L1019.3 159.904L1029.8 203.864L1045.59 283.805C1045.59 283.805 1045.57 284.076 1045.5 284.178L1037.85 293.108L1013 317.727L1097.45 327.491L1122.12 284.483L1131.9 269.056L1156.34 186.615L1118.16 122.709L1118.97 122.246L1157.25 186.327C1157.25 186.327 1157.32 186.553 1157.31 186.689L1132.79 269.368C1132.79 269.368 1132.74 269.445 1132.72 269.471L1122.92 284.95L1098.12 328.205C1098.03 328.359 1097.87 328.438 1097.68 328.391L1011.97 318.482C1011.79 318.477 1011.66 318.353 1011.59 318.168C1011.53 317.983 1011.58 317.839 1011.71 317.701L1037.18 292.436L1044.67 283.721L1028.91 204.017L1018.41 160.057L1018.42 160.099Z" fill="#75A3C1"/>
<path d="M976.994 219.007L977.85 218.687L1000.2 277.852L1012.44 317.915C1012.44 317.915 1012.46 318.109 1012.46 318.177L977.473 431.173L1051.45 484.846L1097.28 327.816L1098.16 328.086L1052.16 485.728C1052.16 485.728 1052 485.985 1051.87 486.012C1051.73 486.066 1051.57 486.035 1051.44 485.953L976.665 431.704C976.509 431.606 976.435 431.379 976.507 431.209L1011.56 318.042L999.357 278.147L977.02 219.024L976.994 219.007Z" fill="#75A3C1"/>
<path d="M904.313 421.909L915.757 429.16C915.757 429.16 915.967 429.401 915.954 429.537L917.143 467.633L976.67 430.952C976.862 430.821 977.118 430.875 977.266 431.042C977.415 431.208 977.414 431.495 977.249 431.642L929.843 483.955L941.953 490.728C941.953 490.728 942.082 490.81 942.127 490.91L941.953 490.728C941.953 490.728 942.036 490.997 941.981 491.141L942.472 491.505L940.66 491.032L941.07 491.032L941.422 491.507L928.908 484.514C928.908 484.514 928.708 484.315 928.679 484.188C928.65 484.062 928.706 483.917 928.771 483.815L974.415 433.48L916.965 468.888C916.965 468.888 916.654 468.978 916.524 468.896C916.395 468.814 916.272 468.664 916.302 468.503L915.098 429.858L903.654 422.607C903.654 422.607 903.453 422.408 903.441 422.256L904.313 421.909Z" fill="#75A3C1"/>
<path d="M782.465 473.283L814.036 452.49C814.036 452.49 814.237 452.402 814.331 452.426L864.334 457.234C864.512 457.239 864.651 457.363 864.732 457.522L871.522 475.783L916.627 467.99L916.787 468.883L871.319 476.733C871.108 476.78 870.901 476.648 870.827 476.422L864.017 458.076L814.465 453.302L783.027 473.999L782.523 473.249L782.465 473.283Z" fill="#75A3C1"/>
<path d="M778.686 529.242L814.432 509.763C814.432 509.763 814.549 509.693 814.617 509.7L872.595 505.243L870.781 476.321L871.696 476.252L873.547 505.63C873.562 505.892 873.364 506.09 873.127 506.12L814.803 510.61L779.157 530.044L778.712 529.258L778.686 529.242Z" fill="#75A3C1"/>
<path d="M872.899 505.22L928.952 483.642L929.281 484.498L873.254 506.092L872.899 505.22Z" fill="#75A3C1"/>
<path d="M876.859 512.945L872.48 508.516L868.172 512.91L869.826 506.978L863.804 505.429L869.811 503.91L868.097 497.968L872.475 502.397L876.783 498.003L875.129 503.934L881.151 505.483L875.145 507.002L876.859 512.945Z" fill="#75A3C1"/>
<path d="M981.933 438.279L977.012 434.478L973.364 439.434L974.156 433.316L968.012 432.589L973.725 430.273L971.23 424.591L976.151 428.392L979.825 423.453L978.991 429.58L985.176 430.297L979.437 432.597L981.933 438.279Z" fill="#75A3C1"/>
<path d="M1052.96 759.867L1057.53 760.968L1058.49 756.359L1059.84 760.856L1064.28 759.402L1061.1 762.812L1064.58 765.967L1060.02 764.894L1059.09 769.49L1057.73 764.966L1053.29 766.42L1056.47 763.01L1052.96 759.867Z" fill="#75A3C1"/>
<path d="M1058.96 762.777L1058.25 763.341L1082.52 794.41L1083.24 793.845L1058.96 762.777Z" fill="#75A3C1"/>
<path d="M1081.15 787.069L1084.84 792.043L1089.71 788.255L1087.27 793.951L1093.01 796.278L1086.88 796.973L1087.76 803.116L1084.07 798.142L1079.2 801.93L1081.64 796.233L1075.89 793.906L1082.03 793.212L1081.15 787.069Z" fill="#75A3C1"/>
<path d="M755.254 675.415C757.034 676.258 757.804 678.396 756.978 680.218C756.147 682.01 754.029 682.781 752.219 681.943C750.408 681.105 749.668 678.962 750.494 677.14C751.325 675.347 753.443 674.577 755.254 675.415Z" fill="#75A3C1"/>
<path d="M699.191 753.226C700.971 754.07 701.741 756.207 700.915 758.03C700.089 759.852 697.966 760.592 696.156 759.754C694.375 758.911 693.605 756.774 694.431 754.951C695.262 753.159 697.38 752.388 699.191 753.226Z" fill="#75A3C1"/>
<path d="M841.864 757.555C843.645 758.398 844.415 760.535 843.589 762.358C842.763 764.18 840.64 764.921 838.829 764.083C837.049 763.239 836.279 761.102 837.105 759.279C837.936 757.487 840.054 756.717 841.864 757.555Z" fill="#75A3C1"/>
<path d="M779.659 754.869C778.22 755.118 777.257 756.496 777.508 757.947C777.758 759.398 779.128 760.373 780.567 760.124C782.006 759.876 782.969 758.498 782.718 757.046C782.467 755.595 781.098 754.62 779.659 754.869Z" fill="#75A3C1"/>
<path d="M791.476 743.309C791.226 741.859 792.19 740.479 793.627 740.231C795.065 739.982 796.436 740.958 796.687 742.408C796.938 743.858 795.973 745.238 794.536 745.486C793.099 745.734 791.727 744.758 791.476 743.309Z" fill="#75A3C1"/>
<path d="M764.075 749.818C762.636 750.067 761.673 751.445 761.924 752.896C762.175 754.348 763.544 755.322 764.983 755.074C766.422 754.825 767.385 753.447 767.134 751.996C766.883 750.544 765.514 749.57 764.075 749.818Z" fill="#75A3C1"/>
<path d="M779.808 731.826L775.644 729.684L773.632 733.92L773.407 729.231L768.747 729.57L772.656 727.028L770.009 723.131L774.172 725.273L776.215 721.032L776.44 725.721L781.099 725.382L777.196 727.954L779.808 731.826Z" fill="#75A3C1"/>
<path d="M754.182 678.493L775.45 727.136C775.45 727.136 775.492 727.377 775.453 727.509L764.929 752.625C764.929 752.625 764.726 752.878 764.547 752.909L697.708 756.966L697.641 756.044L764.175 752.009L774.497 727.332L753.29 678.865L754.122 678.503L754.182 678.493Z" fill="#75A3C1"/>
<path d="M794.003 742.405C794.003 742.405 794.153 742.379 794.253 742.424L840.536 760.397L840.223 761.26L794.206 743.397L779.971 757.926C779.971 757.926 779.662 758.104 779.492 758.009L764.382 752.844L764.665 751.987L779.51 757.041L793.744 742.512C793.744 742.512 793.908 742.39 793.998 742.375L794.003 742.405Z" fill="#75A3C1"/>
<path d="M793.8 743.342L794.372 742.628L775.315 727.099L774.743 727.813L793.8 743.342Z" fill="#75A3C1"/>
<path d="M184.352 630.8L181.532 634.508L185.333 637.243L180.674 636.665L180.214 641.315L178.375 637.03L174.084 638.945L176.904 635.237L173.072 632.502L177.762 633.08L178.222 628.43L180.061 632.715L184.352 630.8Z" fill="#75A3C1"/>
<path d="M150.128 755.088L146.388 760.011L151.446 763.597L145.285 762.868L144.672 768.976L142.251 763.323L136.58 765.876L140.32 760.923L135.262 757.337L141.423 758.096L142.036 751.958L144.488 757.61L150.128 755.088Z" fill="#75A3C1"/>
<path d="M77.1484 668.903L72.4282 672.915L76.5967 677.504L70.7118 675.468L68.8114 681.333L67.6467 675.285L61.5472 676.562L66.2675 672.55L62.1296 667.961L67.9839 669.998L69.9149 664.132L71.049 670.18L77.1484 668.903Z" fill="#75A3C1"/>
<path d="M62.0996 835.349C62.9583 834.13 64.6525 833.831 65.9058 834.682C67.1358 835.534 67.4375 837.213 66.5788 838.456C65.7201 839.675 64.0259 839.975 62.7727 839.123C61.5194 838.272 61.2409 836.592 62.0996 835.349Z" fill="#75A3C1"/>
<path d="M164.993 751.715C166.127 750.104 168.364 749.709 170.019 750.833C171.674 751.958 172.042 754.176 170.908 755.817C169.774 757.428 167.537 757.823 165.882 756.699C164.257 755.574 163.859 753.356 164.993 751.715Z" fill="#75A3C1"/>
<path d="M0.766598 675.468C1.90068 673.857 4.13823 673.462 5.79337 674.586C7.41786 675.711 7.81634 677.929 6.68226 679.57C5.54819 681.181 3.31064 681.576 1.6555 680.452C0.031006 679.327 -0.36748 677.109 0.766598 675.468Z" fill="#75A3C1"/>
<path d="M99.2164 662.158C100.35 660.547 102.588 660.152 104.243 661.276C105.868 662.401 106.266 664.619 105.132 666.26C103.998 667.871 101.76 668.266 100.105 667.142C98.4807 666.017 98.0823 663.799 99.2164 662.158Z" fill="#75A3C1"/>
<path d="M122.113 780.663L114.542 785.89L119.998 793.274L111.63 789.415L107.891 797.772L107.125 788.655L97.9294 789.658L105.5 784.401L100.044 777.016L108.412 780.906L112.151 772.518L112.918 781.666L122.113 780.663Z" fill="#75A3C1"/>
<path d="M56.1831 602.229L48.6124 607.456L54.0682 614.841L45.7005 610.951L41.9918 619.339L41.1948 610.222L32.0303 611.194L39.601 605.967L34.1452 598.583L42.5129 602.472L46.2216 594.085L47.0186 603.202L56.1831 602.229Z" fill="#75A3C1"/>
<path d="M88.2342 804.253C88.2342 805.713 89.4281 806.897 90.9008 806.897C92.3735 806.897 93.5674 805.713 93.5674 804.253C93.5674 802.793 92.3735 801.609 90.9008 801.609C89.4281 801.609 88.2342 802.793 88.2342 804.253Z" fill="#75A3C1"/>
<path d="M199.724 753.741C199.724 755.201 200.918 756.385 202.391 756.385C203.864 756.385 205.058 755.201 205.058 753.741C205.058 752.28 203.864 751.097 202.391 751.097C200.918 751.097 199.724 752.28 199.724 753.741Z" fill="#75A3C1"/>
<path d="M205.789 779.612C205.789 781.072 206.983 782.256 208.456 782.256C209.929 782.256 211.123 781.072 211.123 779.612C211.123 778.152 209.929 776.968 208.456 776.968C206.983 776.968 205.789 778.152 205.789 779.612Z" fill="#75A3C1"/>
<path d="M65.5624 772.349C64.0912 772.349 62.8958 771.164 62.8958 769.705C62.8958 768.246 64.0912 767.061 65.5624 767.061C67.0336 767.061 68.229 768.246 68.229 769.705C68.229 771.164 67.0336 772.349 65.5624 772.349Z" fill="#75A3C1"/>
<path d="M138.879 794.503C137.408 794.503 136.212 793.318 136.212 791.859C136.212 790.401 137.408 789.216 138.879 789.216C140.35 789.216 141.545 790.401 141.545 791.859C141.545 793.318 140.35 794.503 138.879 794.503Z" fill="#75A3C1"/>
<path d="M30.2216 666.837C28.7503 666.837 27.555 665.652 27.555 664.193C27.555 662.735 28.7503 661.55 30.2216 661.55C31.6928 661.55 32.8882 662.735 32.8882 664.193C32.8882 665.652 31.6928 666.837 30.2216 666.837Z" fill="#75A3C1"/>
<path d="M107.983 688.505C106.512 688.505 105.316 687.32 105.316 685.861C105.316 684.402 106.512 683.217 107.983 683.217C109.454 683.217 110.649 684.402 110.649 685.861C110.649 687.32 109.454 688.505 107.983 688.505Z" fill="#75A3C1"/>
<path d="M65.1024 769.705C65.1024 769.705 65.1637 769.462 65.2557 769.371C65.4396 769.219 65.6848 769.219 65.8687 769.371L108.656 784.355L138.45 791.555L142.894 760.406C142.894 760.224 143.047 760.072 143.231 760.042L167.813 753.325C167.813 753.325 168.058 753.325 168.181 753.386L208.701 779.217C208.854 779.308 208.946 779.521 208.885 779.703L208.701 779.217C208.701 779.217 207.904 779.764 208.885 779.703L207.904 779.764L167.844 754.207L143.752 760.801L139.308 791.89C139.308 791.89 139.308 793.117 139.308 792.671L108.778 785.267C108.625 785.358 108.41 785.328 108.257 785.206L66.3125 770.296L91.25 804.858L64.875 837.858L64.3362 837.233L90 804.858L65.1637 769.948C65.1637 769.948 65.0718 769.766 65.0718 769.675L65.1024 769.705Z" fill="#75A3C1"/>
<path d="M43.7697 607.031L44.4134 606.393L102.466 663.889C102.466 663.889 102.558 664.011 102.588 664.102L108.412 685.77L143.752 760.285L142.925 760.68L107.554 686.074L101.73 664.436L43.7697 607.031Z" fill="#75A3C1"/>
<path d="M3.52502 677.109L30.0379 663.798C30.0379 663.798 30.2525 663.737 30.3444 663.768L69.3322 673.249L102.036 663.768L102.282 664.649L69.4547 674.161C69.4547 674.161 69.3015 674.161 69.2096 674.161L30.2525 664.71L3.89282 677.96L3.49434 677.139L3.52502 677.109Z" fill="#75A3C1"/>
<path d="M190.344 426.055L188.106 431.829L193.991 433.895L187.83 434.868L188.964 440.946L185.041 436.144L180.321 440.156L182.528 434.382L176.673 432.346L182.804 431.343L181.67 425.295L185.593 430.066L190.344 426.055Z" fill="#75A3C1"/>
<path d="M131.739 373.694L129.532 379.468L135.387 381.534L129.257 382.507L130.391 388.585L126.437 383.783L121.716 387.795L123.923 382.021L118.069 379.984L124.199 378.982L123.065 372.934L126.988 377.705L131.739 373.694Z" fill="#75A3C1"/>
<path d="M40.2775 440.824L37.427 444.562L41.2583 447.267L36.5994 446.689L36.1397 451.339L34.3006 447.054L30.0095 448.999L32.8293 445.261L28.998 442.526L33.6876 443.103L34.1473 438.454L35.9864 442.739L40.2775 440.824Z" fill="#75A3C1"/>
<path d="M188.75 358.53C189.884 356.919 192.121 356.524 193.777 357.648C195.432 358.773 195.8 360.991 194.666 362.632C193.531 364.243 191.294 364.638 189.639 363.514C188.014 362.389 187.616 360.171 188.75 358.53Z" fill="#75A3C1"/>
<path d="M220.596 472.156C221.73 470.545 223.967 470.15 225.622 471.274C227.247 472.399 227.645 474.617 226.511 476.258C225.377 477.869 223.14 478.264 221.485 477.14C219.86 476.015 219.462 473.797 220.596 472.156Z" fill="#75A3C1"/>
<path d="M133.916 409.098C135.05 407.487 137.287 407.092 138.942 408.216C140.567 409.341 140.965 411.559 139.831 413.2C138.697 414.811 136.46 415.206 134.805 414.081C133.18 412.957 132.782 410.739 133.916 409.098Z" fill="#75A3C1"/>
<path d="M220.902 365.732C220.902 367.192 222.096 368.376 223.569 368.376C225.041 368.376 226.235 367.192 226.235 365.732C226.235 364.272 225.041 363.088 223.569 363.088C222.096 363.088 220.902 364.272 220.902 365.732Z" fill="#75A3C1"/>
<path d="M219.155 405.937C217.684 405.937 216.489 404.752 216.489 403.293C216.489 401.835 217.684 400.649 219.155 400.649C220.626 400.649 221.822 401.835 221.822 403.293C221.822 404.752 220.626 405.937 219.155 405.937Z" fill="#75A3C1"/>
<path d="M262.097 480.969C262.097 482.429 263.291 483.612 264.764 483.612C266.236 483.612 267.43 482.429 267.43 480.969C267.43 479.508 266.236 478.325 264.764 478.325C263.291 478.325 262.097 479.508 262.097 480.969Z" fill="#75A3C1"/>
<path d="M13.8261 452.889C12.3548 452.889 11.1594 451.703 11.1594 450.245C11.1594 448.786 12.3548 447.601 13.8261 447.601C15.2973 447.601 16.4927 448.786 16.4927 450.245C16.4927 451.703 15.2973 452.889 13.8261 452.889Z" fill="#75A3C1"/>
<path d="M38.7757 347.194C38.7757 348.655 39.9696 349.838 41.4423 349.838C42.915 349.838 44.1089 348.655 44.1089 347.194C44.1089 345.734 42.915 344.551 41.4423 344.551C39.9696 344.551 38.7757 345.734 38.7757 347.194Z" fill="#75A3C1"/>
<path d="M13.7031 449.789L34.9747 444.501L53.7636 407.304L41.0129 347.285L41.9018 347.103L54.6831 407.274C54.6831 407.274 54.6831 407.487 54.6524 407.578L35.7103 445.109C35.7103 445.109 35.557 445.322 35.4038 445.352L13.9176 450.67L13.7031 449.789Z" fill="#75A3C1"/>
<path d="M53.764 407.365C53.764 407.183 53.8865 407 54.0704 406.94L126.559 380.106L191.57 360.14C191.57 360.14 191.692 360.14 191.784 360.14L223.63 365.276L223.477 366.187L192.643 361.203L219.523 403.05C219.646 403.232 219.615 403.475 219.431 403.627L185.807 433.865C185.807 433.865 185.47 434.017 185.317 433.925L136.705 411.589L54.1624 407.821C53.9479 407.821 53.7639 407.639 53.7333 407.426L53.7333 407.365L53.764 407.365ZM191.508 361.112L126.866 380.987L56.4918 407.031L136.858 410.708C136.858 410.708 136.981 410.708 137.042 410.738L185.44 432.983L218.542 403.202L191.508 361.112Z" fill="#75A3C1"/>
<path d="M185.194 433.835L185.868 433.197C194.451 442.283 221.791 471.274 223.845 473.827C225.439 474.496 249.132 478.173 264.825 480.482L264.671 481.394C223.508 475.286 223.262 474.648 223.109 474.344C222.435 473.371 198.006 447.388 185.163 433.804L185.194 433.835Z" fill="#75A3C1"/>
<path d="M60.1387 399.616L57.9318 405.36L63.7861 407.426L57.656 408.399L58.79 414.477L54.8361 409.706L50.1159 413.687L52.3228 407.943L46.4685 405.876L52.5986 404.904L51.4646 398.826L55.3879 403.597L60.1387 399.616Z" fill="#75A3C1"/>
<path d="M125.944 440.498L123.737 446.271L129.591 448.338L123.461 449.31L124.595 455.358L120.672 450.587L115.921 454.598L118.159 448.824L112.274 446.788L118.434 445.785L117.3 439.738L121.224 444.509L125.944 440.498Z" fill="#75A3C1"/>
<path d="M878.584 196.442C877.403 194.866 877.719 192.616 879.3 191.389C880.872 190.192 883.105 190.499 884.315 192.085C885.496 193.661 885.18 195.911 883.599 197.138C882.027 198.335 879.794 198.028 878.584 196.442Z" fill="#75A3C1"/>
<path d="M849.187 183.758C848.006 182.182 848.322 179.932 849.903 178.705C851.484 177.479 853.708 177.815 854.918 179.401C856.099 180.977 855.783 183.227 854.202 184.454C852.63 185.651 850.397 185.344 849.187 183.758Z" fill="#75A3C1"/>
<path d="M891.369 181.002C892.757 181.454 894.252 180.684 894.708 179.284C895.163 177.883 894.406 176.382 893.018 175.93C891.629 175.479 890.134 176.248 889.679 177.649C889.224 179.049 889.98 180.551 891.369 181.002Z" fill="#75A3C1"/>
<path d="M859.913 142.51C861.301 142.962 862.796 142.192 863.252 140.792C863.707 139.391 862.95 137.89 861.562 137.438C860.173 136.987 858.678 137.756 858.223 139.157C857.768 140.557 858.524 142.059 859.913 142.51Z" fill="#75A3C1"/>
<path d="M848.543 156.057C848.088 157.456 846.591 158.226 845.204 157.775C843.817 157.324 843.059 155.821 843.514 154.422C843.969 153.023 845.465 152.252 846.853 152.703C848.24 153.154 848.997 154.657 848.543 156.057Z" fill="#75A3C1"/>
<path d="M844.968 172.653C846.357 173.105 847.852 172.335 848.307 170.935C848.763 169.534 848.006 168.033 846.617 167.581C845.229 167.13 843.734 167.899 843.279 169.3C842.823 170.7 843.58 172.202 844.968 172.653Z" fill="#75A3C1"/>
<path d="M862.106 193.953C862.106 193.953 861.961 193.906 861.893 193.819L851.707 181.902L845.39 170.373C845.39 170.373 845.341 170.228 845.341 170.131L845.586 155.224C845.586 155.224 845.661 154.991 845.69 154.903L860.389 139.668L861.046 140.3L846.481 155.419L846.244 170.006L852.465 181.343L862.467 193.039L881.207 193.781L891.807 178.18L892.569 178.685L881.835 194.501C881.835 194.501 881.606 194.717 881.452 194.699L862.24 193.932C862.24 193.932 862.153 193.904 862.125 193.895L862.106 193.953Z" fill="#75A3C1"/>
<path d="M862.363 185.496L864.066 191.464L869.962 189.545L865.684 194.053L870.235 198.24L864.255 196.779L862.919 202.855L861.178 196.906L855.32 198.805L859.568 194.288L855.047 190.111L861.027 191.572L862.363 185.496Z" fill="#75A3C1"/>
<path d="M284.674 68.824L285.287 74.9626L291.448 74.2029L286.39 77.8192L290.13 82.7423L284.49 80.1896L282.038 85.8724L281.425 79.7338L275.264 80.4935L280.322 76.8772L276.582 71.9541L282.222 74.5068L284.674 68.824Z" fill="#75A3C1"/>
<path d="M69.2431 191.816C67.5635 190.787 67.027 188.579 68.0438 186.855C69.0626 185.163 71.2512 184.624 72.9611 185.651C74.6406 186.681 75.1771 188.889 74.1603 190.612C73.1434 192.335 70.9529 192.843 69.2431 191.816Z" fill="#75A3C1"/>
<path d="M146.807 180.019C147.941 178.408 150.178 178.013 151.833 179.138C153.458 180.262 153.856 182.481 152.722 184.122C151.588 185.732 149.351 186.127 147.696 185.003C146.071 183.878 145.673 181.66 146.807 180.019Z" fill="#75A3C1"/>
<path d="M210.284 108.555C210.284 110.015 211.478 111.199 212.951 111.199C214.423 111.199 215.617 110.015 215.617 108.555C215.617 107.095 214.423 105.911 212.951 105.911C211.478 105.911 210.284 107.095 210.284 108.555Z" fill="#75A3C1"/>
<path d="M159.159 223.901C157.688 223.901 156.492 222.716 156.492 221.257C156.492 219.799 157.688 218.614 159.159 218.614C160.63 218.614 161.826 219.799 161.826 221.257C161.826 222.716 160.63 223.901 159.159 223.901Z" fill="#75A3C1"/>
<path d="M275.264 93.1659C273.793 93.1659 272.597 91.9807 272.597 90.522C272.597 89.0633 273.793 87.8782 275.264 87.8782C276.735 87.8782 277.931 89.0633 277.931 90.522C277.931 91.9807 276.735 93.1659 275.264 93.1659Z" fill="#75A3C1"/>
<path d="M55.036 183.907C55.1296 185.375 54.0228 186.644 52.5671 186.736C51.1114 186.829 49.8525 185.711 49.759 184.243C49.6654 182.775 50.7721 181.507 52.2279 181.414C53.6836 181.321 54.9424 182.439 55.036 183.907Z" fill="#75A3C1"/>
<path d="M286.022 415.439C284.551 415.439 283.356 414.254 283.356 412.795C283.356 411.336 284.551 410.151 286.022 410.151C287.494 410.151 288.689 411.336 288.689 412.795C288.689 414.254 287.494 415.439 286.022 415.439Z" fill="#75A3C1"/>
<path d="M229.165 211.108C227.694 211.108 226.498 209.922 226.498 208.464C226.498 207.005 227.694 205.82 229.165 205.82C230.636 205.82 231.832 207.005 231.832 208.464C231.832 209.922 230.636 211.108 229.165 211.108Z" fill="#75A3C1"/>
<path d="M256.764 455.69C256.764 457.15 257.958 458.334 259.431 458.334C260.903 458.334 262.097 457.15 262.097 455.69C262.097 454.23 260.903 453.046 259.431 453.046C257.958 453.046 256.764 454.23 256.764 455.69Z" fill="#75A3C1"/>
<path d="M103.831 182.671L105.58 188.61L111.459 186.73L107.209 191.239L111.768 195.402L105.798 193.94L104.48 200.013L102.731 194.074L96.8823 195.952L101.102 191.444L96.5429 187.281L102.543 188.742L103.831 182.671Z" fill="#75A3C1"/>
<path d="M446.664 72.5918L443.844 76.3297L447.676 79.0344L442.986 78.457L442.526 83.1065L440.687 78.8216L436.396 80.7362L439.216 77.0287L435.385 74.2936L440.074 74.871L440.534 70.2214L442.373 74.5063L446.664 72.5918Z" fill="#75A3C1"/>
<path d="M423.308 68.7934C424.442 67.1827 426.68 66.7877 428.335 67.9121C429.959 69.0365 430.358 71.2549 429.224 72.896C428.09 74.5066 425.852 74.9017 424.197 73.7772C422.573 72.6528 422.174 70.4344 423.308 68.7934Z" fill="#75A3C1"/>
<path d="M428.887 66.18C428.887 67.6402 430.081 68.8239 431.554 68.8239C433.026 68.8239 434.22 67.6402 434.22 66.18C434.22 64.7198 433.026 63.5361 431.554 63.5361C430.081 63.5361 428.887 64.7198 428.887 66.18Z" fill="#75A3C1"/>
<path d="M464.657 92.0107C463.185 92.0107 461.99 90.8255 461.99 89.3668C461.99 87.9081 463.185 86.7229 464.657 86.7229C466.128 86.7229 467.323 87.9081 467.323 89.3668C467.323 90.8255 466.128 92.0107 464.657 92.0107Z" fill="#75A3C1"/>
<path d="M426.098 71.2853L426.435 70.4041L441.699 76.1476L464.871 88.9416L464.411 89.7621L441.301 76.9682L426.098 71.2853Z" fill="#75A3C1"/>
<path d="M431.431 66.6349L431.646 65.7537C432.719 65.9664 439.155 73.1991 441.883 76.2988L441.178 76.9066C437.01 72.1658 432.198 66.9692 431.431 66.6653L431.431 66.6349Z" fill="#75A3C1"/>
<path d="M452.799 216.906L446.778 215.503L445.57 221.584L443.72 215.663L437.866 217.61L442.065 213.079L437.419 208.945L443.468 210.336L444.676 204.255L446.498 210.189L452.352 208.242L448.154 212.773L452.799 216.906Z" fill="#75A3C1"/>
<path d="M407.35 208.931C406.75 207.589 407.343 206.013 408.675 205.418C410.006 204.822 411.576 205.429 412.177 206.772C412.778 208.115 412.184 209.69 410.853 210.286C409.521 210.882 407.951 210.274 407.35 208.931Z" fill="#75A3C1"/>
<path d="M433.411 202.814C432.81 201.471 433.404 199.896 434.735 199.3C436.067 198.704 437.637 199.311 438.238 200.654C438.838 201.997 438.245 203.573 436.913 204.168C435.582 204.764 434.012 204.157 433.411 202.814Z" fill="#75A3C1"/>
<path d="M414.943 220.545C414.342 219.202 414.936 217.627 416.267 217.031C417.599 216.435 419.169 217.042 419.769 218.385C420.37 219.728 419.777 221.304 418.445 221.899C417.113 222.495 415.543 221.888 414.943 220.545Z" fill="#75A3C1"/>
<path d="M395.922 198.565L409.838 207.349L435.692 201.289C435.843 201.255 436.032 201.305 436.15 201.42L445.698 212.494C445.698 212.494 445.824 212.774 445.79 212.923C445.757 213.072 445.616 213.202 445.465 213.237L417.476 219.881C417.297 219.928 417.096 219.85 416.993 219.695L409.776 208.921L410.518 208.421L417.554 218.94L444.484 212.533L435.614 202.231L409.844 208.253C409.844 208.253 409.612 208.256 409.491 208.209L395.388 199.307L395.869 198.522L395.922 198.565Z" fill="#75A3C1"/>
<path d="M396.879 205.02L393.152 200.039L388.341 203.87L390.719 198.173L384.993 195.866L391.113 195.109L390.198 188.97L393.924 193.952L398.763 190.108L396.357 195.818L402.084 198.125L395.991 198.87L396.879 205.02Z" fill="#75A3C1"/>
<path d="M582.972 89.7621C581.5 89.7621 580.305 88.5769 580.305 87.1182C580.305 85.6595 581.5 84.4744 582.972 84.4744C584.443 84.4744 585.638 85.6595 585.638 87.1182C585.638 88.5769 584.443 89.7621 582.972 89.7621Z" fill="#75A3C1"/>
<path d="M986.233 35.929L983.413 39.6365L987.244 42.3715L982.555 41.7941L982.095 46.4437L980.256 42.1588L975.965 44.0733L978.815 40.3658L974.984 37.6308L979.643 38.2082L980.103 33.5586L981.942 37.8435L986.233 35.929Z" fill="#75A3C1"/>
<path d="M974.401 2.31853C975.536 0.707894 977.773 0.312829 979.428 1.43724C981.053 2.56165 981.451 4.78007 980.317 6.4211C979.183 8.06213 976.945 8.4268 975.29 7.30239C973.666 6.17799 973.267 3.95956 974.401 2.31853Z" fill="#75A3C1"/>
<path d="M990.585 40.4569C989.114 40.4569 987.918 39.2717 987.918 37.8131C987.918 36.3544 989.114 35.1692 990.585 35.1692C992.056 35.1692 993.251 36.3544 993.251 37.8131C993.251 39.2717 992.056 40.4569 990.585 40.4569Z" fill="#75A3C1"/>
<path d="M994.998 51.9142C993.527 51.9142 992.332 50.729 992.332 49.2704C992.332 47.8117 993.527 46.6265 994.998 46.6265C996.47 46.6265 997.665 47.8117 997.665 49.2704C997.665 50.729 996.47 51.9142 994.998 51.9142Z" fill="#75A3C1"/>
<path d="M979.55 31.4926C978.079 31.4926 976.884 30.3074 976.884 28.8487C976.884 27.39 978.079 26.2048 979.55 26.2048C981.021 26.2048 982.217 27.39 982.217 28.8487C982.217 30.3074 981.021 31.4926 979.55 31.4926Z" fill="#75A3C1"/>
<path d="M977.007 3.9293L977.926 3.83813L980.01 28.6359L990.891 37.9654C990.891 37.9654 990.983 38.087 991.014 38.1478L995.428 49.1184C995.489 49.3007 995.428 49.5134 995.274 49.635C995.121 49.7565 994.907 49.7565 994.723 49.635L980.838 40.3662C980.838 40.3662 980.654 40.1839 980.654 40.0623L979.091 30.1858L980.01 30.0338L981.543 39.6976L994.018 48.0243L990.186 38.5429L979.244 29.1525C979.244 29.1525 979.091 28.9702 979.091 28.8486L977.007 3.86852L977.007 3.9293Z" fill="#75A3C1"/>
<path d="M607.949 269.28L601.769 269.443L602.136 275.632L598.831 270.345L593.678 273.731L596.577 268.263L591.038 265.437L597.218 265.274L596.876 259.066L600.137 264.347L605.31 260.985L602.41 266.453L607.949 269.28Z" fill="#75A3C1"/>
<path d="M598.849 190.439C597.929 189.292 598.105 187.618 599.243 186.705C600.381 185.792 602.054 185.983 602.974 187.131C603.895 188.279 603.718 189.953 602.58 190.866C601.442 191.778 599.77 191.587 598.849 190.439Z" fill="#75A3C1"/>
<path d="M617.834 211.416C619.8 211.293 621.508 212.791 621.667 214.786C621.806 216.757 620.325 218.456 618.335 218.598C616.369 218.721 614.661 217.222 614.502 215.227C614.344 213.233 615.845 211.558 617.834 211.416Z" fill="#75A3C1"/>
<path d="M531.813 235.886L527.114 236.001L527.401 240.682L524.936 236.686L521.022 239.236L523.214 235.121L519.012 232.99L523.692 232.851L523.429 228.151L525.912 232.171L529.827 229.621L527.635 233.736L531.813 235.886Z" fill="#75A3C1"/>
<path d="M787.509 411.436L782.829 411.575L783.116 416.256L780.609 412.255L776.694 414.805L778.91 410.671L774.708 408.54L779.388 408.401L779.101 403.72L781.608 407.721L785.523 405.171L783.307 409.305L787.509 411.436Z" fill="#75A3C1"/>
<path d="M500.95 230.188C502.916 230.065 504.624 231.564 504.782 233.558C504.921 235.529 503.44 237.228 501.45 237.37C499.46 237.512 497.776 235.994 497.618 234C497.459 232.005 498.96 230.33 500.95 230.188Z" fill="#75A3C1"/>
<path d="M598.201 333.128C600.167 333.005 601.875 334.503 602.034 336.498C602.192 338.492 600.691 340.167 598.702 340.309C596.736 340.432 595.028 338.934 594.869 336.939C594.73 334.968 596.211 333.27 598.201 333.128Z" fill="#75A3C1"/>
<path d="M550.379 225.909C552.345 225.786 554.053 227.284 554.212 229.279C554.351 231.25 552.869 232.948 550.88 233.09C548.914 233.213 547.206 231.715 547.047 229.72C546.889 227.725 548.39 226.051 550.379 225.909Z" fill="#75A3C1"/>
<path d="M512.57 234.817C511.431 235.731 511.254 237.403 512.176 238.552C513.097 239.701 514.768 239.891 515.907 238.978C517.046 238.064 517.222 236.392 516.301 235.243C515.38 234.095 513.709 233.904 512.57 234.817Z" fill="#75A3C1"/>
<path d="M708.746 395.093C707.826 393.945 708.002 392.271 709.14 391.358C710.278 390.446 711.951 390.637 712.871 391.785C713.792 392.932 713.615 394.606 712.477 395.519C711.339 396.432 709.667 396.241 708.746 395.093Z" fill="#75A3C1"/>
<path d="M501.314 233.314L514.221 236.439L525.308 233.992L550.567 229.058C550.567 229.058 550.848 229.068 550.949 229.145L598.948 266.166L617.71 214.855L617.682 214.917L602.216 188.666L603.108 188.855L618.546 215.168L599.59 267.065C599.59 267.065 599.435 267.308 599.282 267.312C599.149 267.341 598.978 267.321 598.877 267.244L550.558 229.969L525.541 234.865L514.364 237.346C514.364 237.346 514.231 237.375 514.169 237.346L501.133 234.206L501.357 233.319L501.314 233.314Z" fill="#75A3C1"/>
<path d="M538.003 362.531L532.379 359.891L529.895 365.537L529.352 359.371L523.208 360.016L528.246 356.486L524.586 351.485L530.21 354.126L532.675 348.456L533.217 354.621L539.361 353.977L534.323 357.506L538.003 362.531Z" fill="#75A3C1"/>
</g>
</svg>
