<svg width="160" height="160" viewBox="0 0 160 160" fill="none" xmlns="http://www.w3.org/2000/svg">
<circle cx="79.805" cy="80.1241" r="79.2171" fill="#F2F9FA"/>
<path d="M79.007 41.4006C85.7598 41.4006 91.234 35.9195 91.234 29.1583C91.234 22.3971 85.7598 16.9161 79.007 16.9161C72.2542 16.9161 66.78 22.3971 66.78 29.1583C66.78 35.9195 72.2542 41.4006 79.007 41.4006Z" stroke="#0A4D69" stroke-miterlimit="10"/>
<path d="M49.4048 42.0449H105.134L124.569 35.7305L123.796 68.9779L105.52 61.1171H50.177L49.4048 42.0449Z" stroke="#0A4D69" stroke-miterlimit="10"/>
<path d="M66.3941 96.4264L92.7786 96.813L103.075 134.313H56.0977L66.3941 96.4264Z" stroke="#0A4D69" stroke-miterlimit="10"/>
<path d="M64.7209 104.932L46.7022 98.4882L29.327 86.5037L15.9417 103.127L37.178 116.916L58.6718 124.39" stroke="#0A4D69" stroke-miterlimit="10"/>
<path d="M94.8379 104.932L112.857 98.4882L130.232 86.5037L143.617 103.127L122.381 116.916L100.887 124.39" stroke="#0A4D69" stroke-miterlimit="10"/>
<path d="M55.7116 61.1171L34.8613 89.9831" stroke="#0A4D69" stroke-miterlimit="10"/>
<path d="M79.1357 61.3748V96.4264" stroke="#0A4D69" stroke-miterlimit="10"/>
<path d="M103.59 60.9882L124.44 89.8542" stroke="#0A4D69" stroke-miterlimit="10"/>
<path d="M105.649 42.1738V61.1171" stroke="#0A4D69" stroke-miterlimit="10"/>
<path d="M95.3525 107.122C96.5609 107.122 97.5405 106.141 97.5405 104.932C97.5405 103.722 96.5609 102.741 95.3525 102.741C94.1441 102.741 93.1646 103.722 93.1646 104.932C93.1646 106.141 94.1441 107.122 95.3525 107.122Z" fill="#0A4D69"/>
<path d="M15.607 104.738C16.6022 104.738 17.4089 103.93 17.4089 102.934C17.4089 101.938 16.6022 101.13 15.607 101.13C14.6119 101.13 13.8052 101.938 13.8052 102.934C13.8052 103.93 14.6119 104.738 15.607 104.738Z" fill="#0A4D69"/>
<path d="M56.5737 135.962C57.711 135.962 58.633 135.039 58.633 133.901C58.633 132.762 57.711 131.839 56.5737 131.839C55.4364 131.839 54.5144 132.762 54.5144 133.901C54.5144 135.039 55.4364 135.962 56.5737 135.962Z" fill="#0A4D69"/>
<path d="M49.1989 62.3542C50.3362 62.3542 51.2582 61.4311 51.2582 60.2923C51.2582 59.1536 50.3362 58.2305 49.1989 58.2305C48.0616 58.2305 47.1396 59.1536 47.1396 60.2923C47.1396 61.4311 48.0616 62.3542 49.1989 62.3542Z" fill="#0A4D69"/>
<path d="M79.0071 98.746C80.2155 98.746 81.1951 97.7651 81.1951 96.5552C81.1951 95.3453 80.2155 94.3645 79.0071 94.3645C77.7987 94.3645 76.8191 95.3453 76.8191 96.5552C76.8191 97.7651 77.7987 98.746 79.0071 98.746Z" fill="#0A4D69"/>
<path d="M131.557 88.0887C132.624 88.0887 133.488 87.2233 133.488 86.1558C133.488 85.0882 132.624 84.2228 131.557 84.2228C130.491 84.2228 129.627 85.0882 129.627 86.1558C129.627 87.2233 130.491 88.0887 131.557 88.0887Z" fill="#0A4D69"/>
<path d="M104.928 63.7588C106.101 63.7588 107.052 62.8069 107.052 61.6326C107.052 60.4582 106.101 59.5063 104.928 59.5063C103.755 59.5063 102.805 60.4582 102.805 61.6326C102.805 62.8069 103.755 63.7588 104.928 63.7588Z" fill="#0A4D69"/>
<path d="M143.874 104.932C144.941 104.932 145.805 104.066 145.805 102.999C145.805 101.931 144.941 101.066 143.874 101.066C142.808 101.066 141.944 101.931 141.944 102.999C141.944 104.066 142.808 104.932 143.874 104.932Z" fill="#0A4D69"/>
<path d="M123.668 70.782C124.805 70.782 125.727 69.8589 125.727 68.7202C125.727 67.5815 124.805 66.6583 123.668 66.6583C122.53 66.6583 121.608 67.5815 121.608 68.7202C121.608 69.8589 122.53 70.782 123.668 70.782Z" fill="#0A4D69"/>
<path d="M64.0772 106.607C65.0013 106.607 65.7504 105.857 65.7504 104.932C65.7504 104.006 65.0013 103.256 64.0772 103.256C63.1532 103.256 62.4041 104.006 62.4041 104.932C62.4041 105.857 63.1532 106.607 64.0772 106.607Z" fill="#0A4D69"/>
<path d="M79.0842 63.6429C80.2215 63.6429 81.1435 62.7197 81.1435 61.581C81.1435 60.4423 80.2215 59.5192 79.0842 59.5192C77.9469 59.5192 77.0249 60.4423 77.0249 61.581C77.0249 62.7197 77.9469 63.6429 79.0842 63.6429Z" fill="#0A4D69"/>
<path d="M29.121 87.9857C30.2584 87.9857 31.1803 87.0625 31.1803 85.9238C31.1803 84.7851 30.2584 83.8619 29.121 83.8619C27.9837 83.8619 27.0618 84.7851 27.0618 85.9238C27.0618 87.0625 27.9837 87.9857 29.121 87.9857Z" fill="#0A4D69"/>
<path d="M49.6623 35.215L50.6919 39.5965L55.0679 38.4367L51.7216 41.5295L54.8105 44.7511L50.5632 43.3336L49.4049 47.715L48.3752 43.3336L43.9993 44.4934L47.3456 41.4006L44.128 38.1789L48.5039 39.4676L49.6623 35.215Z" fill="#FFA135"/>
<path d="M124.569 29.2872L126.371 33.282L130.489 31.4779L127.786 34.9573L131.39 37.6635L127.014 37.0191L126.628 41.5295L124.826 37.5346L120.708 39.3387L123.41 35.7305L119.678 33.1532L124.183 33.6686L124.569 29.2872Z" fill="#FFA135"/>
<path d="M103.332 128.127L104.362 132.509L108.738 131.349L105.52 134.442L108.609 137.663L104.362 136.246L103.075 140.627L102.045 136.246L97.7981 137.406L101.016 134.313L97.9268 131.091L102.174 132.38L103.332 128.127Z" fill="#FFA135"/>
<path d="M48.2982 98.2047C48.2982 99.1068 47.5259 99.7511 46.7537 99.7511C45.8528 99.7511 45.2092 98.9779 45.2092 98.2047C45.2092 97.3027 45.9815 96.6583 46.7537 96.6583C47.6546 96.6583 48.2982 97.3027 48.2982 98.2047Z" fill="#0A4D69"/>
<path d="M36.1353 118.102C35.5433 117.651 35.2473 116.761 35.8393 116.027C36.2898 115.434 37.1778 115.138 37.9115 115.73C38.5035 116.182 38.7995 117.071 38.2075 117.805C37.6154 118.398 36.7274 118.694 36.1353 118.102Z" fill="#0A4D69"/>
<path d="M107.142 81.9547L106.756 85.3052L109.974 85.563L107.013 86.9805L108.429 89.9444L105.598 87.8826L103.667 90.5887L104.182 87.3671L100.835 87.1094L103.924 85.6918L102.509 82.7279L105.211 84.6609L107.142 81.9547Z" fill="#598EAF"/>
<path d="M20.1117 28.2597L19.7256 31.6102L22.9432 31.8679L19.983 33.2854L21.3988 36.2494L18.5673 34.1875L16.6367 36.8937L17.1515 33.672L13.8052 33.4143L16.8941 31.9968L15.4783 29.0329L18.1811 30.9659L20.1117 28.2597Z" fill="#598EAF"/>
<path d="M153.792 72.7656L153.562 74.7617L155.479 74.9152L153.716 75.7597L154.559 77.5255L152.872 76.2972L151.722 77.9094L152.029 75.9901L150.035 75.8365L151.875 74.992L151.032 73.2262L152.642 74.3778L153.792 72.7656Z" fill="#598EAF"/>
<path d="M94.9552 154.197L94.7252 156.194L96.6421 156.347L94.8785 157.192L95.722 158.957L94.0351 157.729L92.8849 159.341L93.1916 157.422L91.198 157.268L93.0383 156.424L92.1948 154.658L93.805 155.81L94.9552 154.197Z" fill="#598EAF"/>
<path d="M121.621 126.091C121.248 125.911 121.068 125.176 121.441 124.803C121.814 124.429 122.355 124.249 122.728 124.622C123.101 124.803 123.282 125.537 122.908 125.911C122.728 126.285 121.995 126.285 121.621 126.091Z" fill="#598EAF"/>
<path d="M106.936 42.6893C106.936 43.5913 106.164 44.3645 105.263 44.3645C104.362 44.3645 103.59 43.5913 103.59 42.6893C103.59 41.7872 104.362 41.014 105.263 41.014C106.164 41.014 106.936 41.7872 106.936 42.6893Z" fill="#0A4D69"/>
<path d="M59.7529 141.053C59.2381 140.666 59.1094 140.022 59.4955 139.506C59.8816 138.991 60.5251 138.862 61.04 139.249C61.5548 139.635 61.6835 140.279 61.2974 140.795C60.7826 141.31 60.139 141.439 59.7529 141.053Z" fill="#598EAF"/>
<path d="M37.8086 132.612L38.7095 134.004L40.0995 133.308L39.1085 134.7L40.7946 135.395H39.1085V137.174L38.2076 135.589L36.8176 136.581L37.5126 135.189L36.1226 134.197H37.8086V132.612Z" fill="#598EAF"/>
<path d="M124.709 122.462C124.452 122.333 124.323 121.818 124.58 121.56C124.709 121.302 125.224 121.173 125.481 121.431C125.739 121.56 125.868 122.075 125.61 122.333C125.353 122.591 124.967 122.591 124.709 122.462Z" fill="#598EAF"/>
<path d="M68.3246 140.022C68.0672 139.893 68.0672 139.506 68.1959 139.249C68.3246 138.991 68.7107 138.991 68.9681 139.12C69.2255 139.249 69.2255 139.635 69.0968 139.893C68.9681 140.151 68.582 140.279 68.3246 140.022Z" fill="#598EAF"/>
<path d="M57.7708 125.241C57.1788 124.79 56.8828 123.901 57.4748 123.166C57.9253 122.573 58.8133 122.277 59.547 122.87C60.139 123.321 60.435 124.21 59.843 124.944C59.2509 125.537 58.3629 125.834 57.7708 125.241Z" fill="#0A4D69"/>
<path d="M121.84 118.14C121.248 117.689 120.952 116.8 121.544 116.066C121.995 115.473 122.883 115.176 123.616 115.769C124.208 116.22 124.504 117.109 123.912 117.844C123.32 118.437 122.432 118.733 121.84 118.14Z" fill="#0A4D69"/>
<path d="M99.497 125.705C98.8792 125.241 98.5574 124.3 99.1881 123.527C99.6514 122.908 100.591 122.586 101.363 123.218C101.981 123.682 102.303 124.622 101.672 125.395C101.054 126.014 100.115 126.336 99.497 125.705Z" fill="#0A4D69"/>
<path d="M112.136 99.8284C111.518 99.3645 111.196 98.4238 111.827 97.6506C112.29 97.0321 113.23 96.7099 114.002 97.3413C114.62 97.8052 114.942 98.746 114.311 99.5192C113.693 100.138 112.754 100.46 112.136 99.8284Z" fill="#0A4D69"/>
<path d="M33.8959 91.3362C33.2781 90.8723 32.9564 89.9315 33.587 89.1583C34.0503 88.5398 34.9899 88.2176 35.7621 88.8491C36.3799 89.313 36.7017 90.2537 36.071 91.0269C35.4532 91.6455 34.5137 91.9676 33.8959 91.3362Z" fill="#0A4D69"/>
<path d="M16.7345 78.9328C16.1167 78.4689 15.795 77.5282 16.4256 76.755C16.889 76.1364 17.8285 75.8143 18.6007 76.4457C19.2185 76.9096 19.5403 77.8503 18.9096 78.6235C18.2919 79.2421 17.3523 79.5643 16.7345 78.9328Z" fill="#598EAF"/>
<path d="M61.8585 12.2576C61.2408 11.7937 60.919 10.853 61.5497 10.0798C62.013 9.4612 62.9525 9.13904 63.7248 9.77048C64.3426 10.2344 64.6643 11.1751 64.0337 11.9483C63.4159 12.5669 62.4763 12.889 61.8585 12.2576Z" fill="#598EAF"/>
<path d="M123.732 91.5552C123.114 91.0913 122.793 90.1506 123.423 89.3774C123.887 88.7588 124.826 88.4367 125.598 89.0681C126.216 89.532 126.538 90.4728 125.907 91.246C125.289 91.8645 124.35 92.1867 123.732 91.5552Z" fill="#0A4D69"/>
<path d="M55.7631 62.9856C56.7582 62.9856 57.5649 62.1779 57.5649 61.1815C57.5649 60.1851 56.7582 59.3774 55.7631 59.3774C54.7679 59.3774 53.9612 60.1851 53.9612 61.1815C53.9612 62.1779 54.7679 62.9856 55.7631 62.9856Z" fill="#0A4D69"/>
<path d="M79.2646 43.7975C80.4019 43.7975 81.3239 42.8744 81.3239 41.7356C81.3239 40.5969 80.4019 39.6738 79.2646 39.6738C78.1273 39.6738 77.2053 40.5969 77.2053 41.7356C77.2053 42.8744 78.1273 43.7975 79.2646 43.7975Z" fill="#0A4D69"/>
<path d="M55.2353 95.3826C54.7205 94.996 54.5918 94.3516 54.9779 93.8362C55.364 93.3207 56.0076 93.1918 56.5224 93.5784C57.0372 93.965 57.1659 94.6094 56.7798 95.1248C56.265 95.6403 55.6214 95.7692 55.2353 95.3826Z" fill="#598EAF"/>
<path d="M86.8324 67.9212C86.575 67.7924 86.575 67.4058 86.7037 67.148C86.8324 66.8903 87.2185 66.8903 87.4759 67.0192C87.7333 67.148 87.7333 67.5346 87.6046 67.7923C87.4759 68.0501 87.0898 68.179 86.8324 67.9212Z" fill="#598EAF"/>
<path d="M133.398 76.5939C134.18 76.5939 134.814 75.9593 134.814 75.1764C134.814 74.3935 134.18 73.7589 133.398 73.7589C132.616 73.7589 131.982 74.3935 131.982 75.1764C131.982 75.9593 132.616 76.5939 133.398 76.5939Z" fill="#598EAF"/>
<path d="M142.62 56.9404C143.171 56.9404 143.617 56.4936 143.617 55.9424C143.617 55.3912 143.171 54.9444 142.62 54.9444C142.07 54.9444 141.624 55.3912 141.624 55.9424C141.624 56.4936 142.07 56.9404 142.62 56.9404Z" fill="#0A4D69"/>
<path d="M142.62 56.9404C143.171 56.9404 143.617 56.4936 143.617 55.9424C143.617 55.3912 143.171 54.9444 142.62 54.9444C142.07 54.9444 141.624 55.3912 141.624 55.9424C141.624 56.4936 142.07 56.9404 142.62 56.9404Z" fill="#598EAF"/>
<path d="M82.6494 57.7923C82.2375 57.5862 82.0445 56.7743 82.4435 56.3748C82.8425 55.9753 83.4602 55.7691 83.8592 56.1686C84.2711 56.3748 84.4641 57.1867 84.0652 57.5862C83.8592 57.9985 83.0484 57.9985 82.6494 57.7923Z" fill="#598EAF"/>
<path d="M59.8874 18.7554C59.4756 18.5492 59.2825 17.7374 59.6815 17.3379C60.0805 16.9384 60.6983 16.7322 61.0973 17.1317C61.5091 17.3379 61.7022 18.1498 61.3032 18.5492C61.0973 18.9616 60.2864 18.9616 59.8874 18.7554Z" fill="#598EAF"/>
<path d="M111.909 145.848C111.498 145.642 111.304 144.83 111.703 144.43C112.102 144.031 112.72 143.825 113.119 144.224C113.531 144.43 113.724 145.242 113.325 145.642C113.119 146.054 112.308 146.054 111.909 145.848Z" fill="#598EAF"/>
<path d="M47.8989 153.91C47.4871 153.703 47.294 152.892 47.693 152.492C48.092 152.093 48.7098 151.886 49.1087 152.286C49.5206 152.492 49.7137 153.304 49.3147 153.703C49.1087 154.116 48.2979 154.116 47.8989 153.91Z" fill="#598EAF"/>
<path d="M35.9414 24.9587C35.5295 24.7526 35.3365 23.9407 35.7355 23.5412C36.1345 23.1417 36.7522 22.9356 37.1512 23.335C37.5631 23.5412 37.7561 24.3531 37.3571 24.7526C37.1512 25.1649 36.3404 25.1649 35.9414 24.9587Z" fill="#598EAF"/>
<path d="M39.7531 62.901C39.4957 62.7721 39.367 62.2567 39.6244 61.9989C39.8819 61.7412 40.268 61.6123 40.5254 61.8701C40.7828 61.9989 40.9115 62.5144 40.6541 62.7721C40.5254 63.0299 40.0106 63.0299 39.7531 62.901Z" fill="#598EAF"/>
<path d="M87.4759 90.9238C87.1413 90.7563 86.974 90.0862 87.3086 89.764C87.6433 89.4418 88.1452 89.2614 88.467 89.5965C88.8016 89.764 88.9689 90.4341 88.6343 90.7563C88.467 91.0913 87.7977 91.0913 87.4759 90.9238Z" fill="#598EAF"/>
<path d="M35.2849 29.8612C35.1305 29.7839 35.0533 29.4746 35.2077 29.3199C35.3622 29.1653 35.5938 29.088 35.7483 29.2426C35.9027 29.3199 35.98 29.6292 35.8255 29.7839C35.7483 29.9385 35.4394 29.9385 35.2849 29.8612Z" fill="#598EAF"/>
<path d="M24.7068 54.9444L25.5949 56.3362L26.9849 55.6403L25.9938 57.032L27.6799 57.7279H25.9938V59.5192L25.1058 57.9212L23.7158 58.9135L24.4108 57.5217L23.0208 56.5295H24.7068V54.9444Z" fill="#598EAF"/>
<path d="M82.8296 20.5194L83.7305 21.9112L85.1205 21.2153L84.1295 22.6071L85.8156 23.3029H84.1295V25.0942L83.2286 23.5091L81.8386 24.5014L82.5336 23.1096L81.1436 22.1174H82.8296V20.5194Z" fill="#598EAF"/>
<path d="M58.2341 73.1274L59.1222 74.5192L60.5122 73.8233L59.5212 75.215L61.2072 75.9109H59.5212V77.6893L58.6331 76.1042L57.2431 77.0965L57.9381 75.7047L56.5481 74.7124H58.2341V73.1274Z" fill="#598EAF"/>
<path d="M24.6035 122.341C24.2303 122.161 24.0501 121.426 24.4233 121.053C24.7966 120.679 25.3371 120.499 25.7104 120.872C26.0836 121.053 26.2638 121.787 25.8906 122.161C25.7104 122.535 24.9768 122.535 24.6035 122.341Z" fill="#598EAF"/>
</svg>
