<svg width="102" height="124" viewBox="0 0 102 124" fill="none" xmlns="http://www.w3.org/2000/svg">
<mask id="mask0_719_5" style="mask-type:alpha" maskUnits="userSpaceOnUse" x="0" y="0" width="102" height="124">
<rect width="102" height="124" fill="#D9D9D9"/>
</mask>
<g mask="url(#mask0_719_5)">
<path d="M32.2454 108.046C32.4591 107.158 33.3665 106.637 34.2558 106.849C35.1452 107.061 35.666 107.966 35.4523 108.854C35.2386 109.742 34.3312 110.264 33.4419 110.052C32.5761 109.787 32.0171 108.896 32.2454 108.046Z" fill="white"/>
<path d="M61.7801 22.1424C62.1251 20.7026 63.5957 19.8642 65.0372 20.2066C66.4788 20.549 67.3165 22.016 66.9714 23.4557C66.6264 24.8955 65.1558 25.7339 63.7143 25.3915C62.312 24.9614 61.4108 23.5187 61.7801 22.1424Z" fill="white"/>
<path d="M84.8895 40.4566C85.2345 39.0168 86.7051 38.1784 88.1466 38.5208C89.5882 38.8632 90.4258 40.3302 90.0808 41.7699C89.7358 43.2097 88.2652 44.0481 86.8237 43.7057C85.4214 43.2756 84.5202 41.8329 84.8895 40.4566Z" fill="white"/>
<path d="M39.1479 43.2719C39.5415 44.3011 40.6966 44.8157 41.7281 44.4213C42.7595 44.0269 43.2766 42.8728 42.883 41.8436C42.4895 40.8144 41.3343 40.2998 40.3028 40.6942C39.2714 41.0886 38.7543 42.2427 39.1479 43.2719Z" fill="white"/>
<path d="M47.9529 72.1421C46.8778 71.863 46.2636 70.7901 46.4836 69.7469C46.7647 68.6731 47.8402 68.0584 48.8848 68.2765C49.9599 68.5556 50.574 69.6285 50.3541 70.6717C50.073 71.7455 49.0192 72.4173 47.9529 72.1421Z" fill="#97BCD1"/>
<path d="M47.4376 108.115C46.4148 108.506 45.2476 107.986 44.8574 106.965C44.4671 105.945 44.9896 104.779 46.0123 104.387C47.035 103.996 48.2023 104.516 48.5925 105.537C48.9828 106.557 48.4603 107.723 47.4376 108.115Z" fill="white"/>
<path d="M39.1587 92.063C38.136 92.4541 36.9688 91.9341 36.5785 90.9136C36.1883 89.8931 36.7108 88.727 37.7335 88.3359C38.7562 87.9448 39.9235 88.4648 40.3137 89.4853C40.7039 90.5058 40.1815 91.6719 39.1587 92.063Z" fill="white"/>
<path d="M90.5513 61.9263L89.8827 64.2526L92.1891 64.8383L89.8649 65.4437L90.51 67.74L88.8607 66.0166L87.1849 67.6892L87.8236 65.4178L85.5114 64.7981L87.8438 64.2331L87.205 61.9344L88.8543 63.6578L90.5513 61.9263Z" fill="#97BCD1"/>
<path d="M28.7485 57.9749L26.8487 59.2449L28.1667 61.0868L26.1161 60.103L25.1691 62.1702L25.0099 59.8794L22.7381 60.1016L24.6429 58.8296L23.3116 56.9528L25.3706 57.9735L26.3225 55.9044L26.4703 58.1652L28.7485 57.9749Z" fill="#97BCD1"/>
<path d="M79.058 17.9431L77.1583 19.2132L78.4762 21.0551L76.4256 20.0712L75.4787 22.1384L75.3195 19.8477L73.0477 20.0698L74.9524 18.7979L73.6212 16.921L75.6801 17.9417L76.6321 15.8726L76.7798 18.1334L79.058 17.9431Z" fill="#97BCD1"/>
<path d="M26.0694 114.986L26.6494 117.197L28.8208 116.553L27.2212 118.169L28.8659 119.74L26.6487 119.142L26.1168 121.362L25.5366 119.146L23.3279 119.792L24.965 118.179L23.3202 116.603L25.5053 117.202L26.0694 114.986Z" fill="#97BCD1"/>
<path d="M65.4014 5.44925L64.3803 22.6957L41.7107 42.2992L38.7676 90.1637L6.79251 109.024" stroke="white" stroke-miterlimit="10"/>
<path d="M53.5287 116.56L46.5172 105.822" stroke="white" stroke-miterlimit="10"/>
<path d="M87.9233 31.6531C87.155 31.4528 86.7089 30.6862 86.8701 29.927C87.0717 29.1597 87.8403 28.7132 88.6004 28.873C89.3605 29.0328 89.8148 29.84 89.6536 30.5991C89.4519 31.3664 88.6834 31.8129 87.9233 31.6531Z" fill="#97BCD1"/>
<path d="M54.0809 21.7135C53.1993 21.4862 52.6997 20.6022 52.8744 19.7559C53.1033 18.8755 53.9895 18.3754 54.8368 18.5486C55.6842 18.7218 56.218 19.6599 56.0433 20.5062C55.8144 21.3866 54.9282 21.8867 54.0809 21.7135Z" fill="#97BCD1"/>
<path d="M17.3367 97.3562C16.8601 97.2333 16.59 96.7553 16.6845 96.2978C16.8082 95.8218 17.2873 95.5514 17.7455 95.6451C18.2036 95.7387 18.4922 96.2459 18.3977 96.7034C18.274 97.1794 17.7948 97.4498 17.3367 97.3562Z" fill="#97BCD1"/>
<path d="M53.7654 97.4918C53.2889 97.3689 53.0187 96.891 53.1132 96.4334C53.237 95.9574 53.7161 95.687 54.1742 95.7807C54.6323 95.8743 54.9209 96.3815 54.8264 96.839C54.7027 97.315 54.2236 97.5854 53.7654 97.4918Z" fill="#97BCD1"/>
<path d="M99.7401 30.0333C99.2635 29.9104 98.9933 29.4325 99.0878 28.9749C99.2116 28.4989 99.6907 28.2285 100.149 28.3222C100.607 28.4158 100.896 28.923 100.801 29.3805C100.677 29.8565 100.198 30.1269 99.7401 30.0333Z" fill="#97BCD1"/>
<path d="M9.0829 104.218L8.05065 108.754L12.6085 109.648L8.1481 111.027L9.60152 115.361L6.23271 112.283L3.19907 115.717L4.23375 111.187L-0.320183 110.284L4.14021 108.905L2.68045 104.574L6.03931 107.721L9.0829 104.218Z" fill="#FFA135"/>
<path d="M59.8328 114.767L56.5972 117.959L59.931 121.174L55.4423 119.984L54.3858 124.457L53.1849 120.041L48.7487 121.33L52.0021 118.052L48.6465 114.932L53.1047 116.061L54.2072 111.556L55.4425 116.024L59.8328 114.767Z" fill="#FFA135"/>
<path d="M70.7996 1.24905L68.3729 5.18496L72.3055 7.51004L67.7544 7.37588L67.7055 12.0082L65.4802 7.94042L61.501 10.254L63.9214 6.3205L59.944 3.95443L64.5834 4.09114L64.5887 -0.502719L66.7669 3.51771L70.7996 1.24905Z" fill="#FFA135"/>
<path d="M41.1639 117.3C40.6873 117.177 40.4172 116.699 40.5116 116.241C40.6354 115.765 41.1145 115.495 41.5726 115.588C42.0307 115.682 42.3193 116.189 42.2249 116.647C42.1011 117.123 41.622 117.393 41.1639 117.3Z" fill="#97BCD1"/>
<path d="M49.2757 44.2186C48.5397 44.0264 48.1226 43.2978 48.2763 42.5877C48.4699 41.8526 49.2002 41.4352 49.9112 41.5876C50.6221 41.74 51.0643 42.5084 50.9106 43.2184C50.717 43.9535 49.9867 44.371 49.2757 44.2186Z" fill="#97BCD1"/>
<path d="M64.3799 22.6957L87.444 41.158L38.7672 90.1637L46.9409 106.626L33.6004 108.298" stroke="white" stroke-miterlimit="10"/>
<path d="M54.6291 42.5323C54.3047 42.4456 54.1142 42.1189 54.1824 41.8022C54.2697 41.4782 54.5972 41.2875 54.9143 41.3552C55.2314 41.4228 55.4292 41.7686 55.361 42.0853C55.2737 42.4093 54.9462 42.5999 54.6291 42.5323Z" fill="#97BCD1"/>
<path d="M53.3031 107.288C52.8177 107.161 52.5388 106.68 52.6411 106.204C52.7688 105.72 53.2519 105.441 53.7275 105.542C54.2032 105.643 54.4918 106.151 54.3895 106.626C54.2618 107.11 53.7788 107.39 53.3031 107.288Z" fill="#97BCD1"/>
</g>
</svg>
