<svg fill="none" height="450" viewBox="0 0 445 450" width="445" xmlns="http://www.w3.org/2000/svg"><path d="m294.636 140.299c.727 1.402 2.401 1.923 3.789 1.295 1.402-.726 1.923-2.399 1.295-3.786-.629-1.387-2.401-1.923-3.789-1.295-1.403.726-1.924 2.399-1.295 3.786z" fill="#2b6f9a"/><path d="m284.62 152.008c.411.802 1.376 1.094 2.157.742.803-.411 1.095-1.375.743-2.156s-1.376-1.094-2.158-.742c-.802.411-1.094 1.375-.742 2.156z" fill="#2b6f9a"/><path d="m240.207 298.207c.645-.623.641-1.63.069-2.279-.624-.645-1.632-.641-2.282-.069-.649.572-.64 1.63-.068 2.28.624.644 1.632.64 2.281.068z" fill="#2b6f9a"/><path d="m291.419 118.333c.412.802 1.376 1.094 2.158.743.802-.412 1.094-1.375.742-2.156s-1.376-1.094-2.157-.743c-.803.412-1.095 1.375-.743 2.156z" fill="#2b6f9a"/><path d="m331.003 381.513c.422.816 1.397 1.122 2.207.75.817-.422 1.123-1.396.75-2.205s-1.398-1.122-2.207-.75c-.817.422-1.123 1.396-.75 2.205z" fill="#2b6f9a"/><path d="m255.87 117.475c.305.585 1.014.814 1.595.547.585-.305.815-1.013.547-1.593s-1.014-.815-1.595-.547c-.585.304-.815 1.013-.547 1.593z" fill="#2b6f9a"/><path d="m284.43 360.003c1.042-1.018 1.041-2.653.1-3.709-1.019-1.041-2.655-1.041-3.711-.101-1.057.941-1.042 2.653-.101 3.709 1.019 1.042 2.655 1.041 3.712.101z" fill="#2b6f9a"/><path d="m241.243 245.365c1.662-.261 2.812-1.841 2.55-3.502-.261-1.661-1.843-2.81-3.505-2.549s-2.811 1.841-2.55 3.502 1.843 2.81 3.505 2.549z" fill="#2b6f9a"/><path d="m200.696 213.262c.852-.831.845-2.166.088-3.018-.832-.851-2.168-.845-3.021-.089s-.844 2.166-.087 3.019c.832.851 2.167.844 3.02.088z" fill="#2b6f9a"/><path d="m103.015 111.053c.412.802 1.377 1.093 2.158.742.803-.411 1.094-1.375.742-2.156-.351-.781-1.376-1.094-2.157-.742-.803.411-1.095 1.375-.743 2.156z" fill="#2b6f9a"/><path d="m205.568 328.299c.412-.405.403-1.036.036-1.454-.405-.411-1.036-.403-1.455-.036-.418.367-.402 1.035-.036 1.454.406.411 1.037.403 1.455.036z" fill="#2b6f9a"/><path d="m320.265 179.999c.267.505.869.693 1.38.466.505-.266.693-.868.466-1.379-.228-.511-.869-.693-1.38-.465-.505.266-.693.867-.466 1.378z" fill="#2b6f9a"/><path d="m53.8728 160.664c.3434.666 1.1495.922 1.8109.616.6669-.343.9228-1.148.6164-1.809s-1.1494-.923-1.8109-.617c-.6668.343-.9228 1.149-.6164 1.81z" fill="#2b6f9a"/><path d="m273.45 136.152-3.693-1.092 1.198-3.636-2.789 2.637-2.538-2.798.862 3.673-3.702.781 3.681 1.09-1.2 3.649 2.803-2.648 2.524 2.808-.897-3.69z" fill="#2b6f9a"/><path d="m227.809 273.002.043 3.843-3.831-.055 3.363 1.886-1.933 3.24 3.248-1.903 1.848 3.301-.044-3.843 3.842.07-3.363-1.887 1.935-3.252-3.258 1.965z" fill="#2b6f9a"/><path d="m81.7267 26.5771c1.6619-.2607 2.8114-1.8415 2.5502-3.5022-.2613-1.6607-1.8435-2.8098-3.5054-2.549-1.6619.2607-2.8115 1.8414-2.5502 3.5022.2613 1.6607 1.8435 2.8097 3.5054 2.549z" fill="#2b6f9a"/><path d="m101.916 4.32729.044 3.84281-3.8297-.06803 3.3507 1.88493-1.9349 3.2524 3.2629-1.9141 1.847 3.3009-.045-3.8305 3.831.0557-3.351-1.88489 1.933-3.24004-3.268 1.95096z" fill="#2b6f9a"/><path d="m331.464 272.286c1.662-.261 2.812-1.841 2.551-3.502-.262-1.661-1.844-2.81-3.506-2.549s-2.811 1.841-2.55 3.502 1.844 2.81 3.505 2.549z" fill="#2b6f9a"/><path d="m318.027 299.936.044 3.843-3.829-.068 3.35 1.885-1.933 3.24 3.261-1.902 1.847 3.301-.045-3.831 3.831.056-3.35-1.885 1.933-3.24-3.268 1.951z" fill="#2b6f9a"/><path d="m198.265 253.838c1.042-1.018 1.041-2.653.1-3.709-1.019-1.041-2.655-1.041-3.712-.101-1.056.941-1.041 2.653-.1 3.709 1.019 1.042 2.655 1.041 3.712.101z" fill="#2b6f9a"/><path d="m300.102 406.691c1.662-.261 2.811-1.841 2.55-3.502s-1.844-2.81-3.506-2.549c-1.661.261-2.811 1.841-2.55 3.502.262 1.661 1.844 2.81 3.506 2.549z" fill="#2b6f9a"/><path d="m376.268 244.054c.411.803 1.376 1.094 2.157.743.803-.411 1.095-1.375.743-2.156s-1.376-1.094-2.158-.742c-.802.411-1.094 1.374-.742 2.155z" fill="#2b6f9a"/><path d="m332.385 293.766c.411-.405.403-1.036.036-1.454-.406-.411-1.037-.403-1.455-.036-.419.367-.403 1.036-.036 1.454.406.411 1.036.403 1.455.036z" fill="#2b6f9a"/><path d="m79.962 135.161c.4116-.405.4029-1.035.0359-1.453-.4058-.412-1.0365-.403-1.455-.037-.4185.367-.4028 1.036-.0359 1.454.4058.412 1.0365.403 1.455.036z" fill="#2b6f9a"/><path d="m97.3502 21.2965c.4116-.4054.4028-1.0356.0359-1.4539-.4058-.4114-1.0365-.4028-1.455-.0361-.4186.3666-.4029 1.0355-.0359 1.4538.4058.4114 1.0365.4028 1.455.0362z" fill="#2b6f9a"/><path d="m138.567 87.1318c.727 1.4016 2.4 1.9225 3.789 1.2948 1.402-.7262 1.923-2.3987 1.295-3.7859-.629-1.3873-2.401-1.9225-3.79-1.2948-1.402.7262-1.923 2.3986-1.294 3.7859z" fill="#2b6f9a"/><path d="m128.562 98.8547c.411.8021 1.376 1.0938 2.157.7423.803-.4112 1.095-1.3749.743-2.1558s-1.376-1.0938-2.158-.7424c-.803.4112-1.094 1.375-.742 2.1559z" fill="#2b6f9a"/><path d="m160.164 145.414-3.693-1.092 1.198-3.637-2.789 2.637-2.538-2.798.862 3.673-3.702.781 3.679 1.103-1.198 3.636 2.803-2.647 2.524 2.808-.909-3.692z" fill="#2b6f9a"/><path d="m164.028 113.323 121.965 79.765-20.002 30.025-72.308-43.49" stroke="#fff" stroke-miterlimit="10"/><path d="m161.227 92.8269 58.075 41.9931-32.373 55.378-69.496-34.98z" stroke="#fff" stroke-miterlimit="10"/><path d="m101.352 31.5025 59.351 45.0718.524 16.2525-43.794 62.3912-12.947 6.778-60.5165-26.55 26.7224-17.675 25.7703-47.825z" stroke="#fff" stroke-miterlimit="10"/><path d="m282.813 197.97 103.664 63.523-13.649 18.235-129.544-81.31" stroke="#fff" stroke-miterlimit="10"/><path d="m332.865 216.692-25.392-15.264-22.982 33.629 25.362 16.416z" stroke="#fff" stroke-miterlimit="10"/><path d="m309.696 251.601-2.649 19.111-33.723-6.655 4.765-24.726 6.38-4.126z" stroke="#fff" stroke-miterlimit="10"/><path d="m336.664 422.024-16.169-2.723-28.041-151.586" stroke="#fff" stroke-miterlimit="10"/><path d="m286.56 266.428c.16.891-33.206 153.451-33.206 153.451" stroke="#fff" stroke-miterlimit="10"/><path d="m198.134 419.336h14.675l60.149-154.842" stroke="#fff" stroke-miterlimit="10"/><path d="m386.477 261.493 25.602 2.866-27.42 38.34-11.528-23.065" stroke="#fff" stroke-miterlimit="10"/><path d="m44.025 135.064 1.4397-33.689 22.3604-44.9016s31.7973-25.022 33.0429-25.6202l39.478-11.5746" stroke="#fff" stroke-miterlimit="10"/><path d="m332.865 216.692 45.538-29.382" stroke="#fff" stroke-miterlimit="10"/><path d="m384.659 302.699-6.518 22.394" stroke="#fff" stroke-miterlimit="10"/><path d="m104.135 162.07 80.631 29.749" stroke="#fff" stroke-miterlimit="10"/><g fill="#fff"><path d="m292.17 230.051c1.815-.88 2.489-3.083 1.596-4.899-.881-1.814-3.087-2.488-4.904-1.596-1.815.88-2.489 3.084-1.596 4.9.98 1.74 3.173 2.5 4.904 1.595z"/><path d="m199.603 421.578c1.301-.631 1.784-2.21 1.144-3.511-.632-1.3-2.212-1.783-3.514-1.144-1.301.631-1.784 2.21-1.144 3.511.702 1.248 2.274 1.792 3.514 1.144z"/><path d="m186.651 195.483c1.645-.804 2.259-2.802 1.455-4.447-.805-1.644-2.804-2.258-4.45-1.455-1.646.804-2.26 2.802-1.455 4.446.9 1.574 2.887 2.271 4.45 1.456z"/><path d="m275.039 267.753c1.626-.794 2.243-2.779 1.436-4.406-.795-1.626-2.782-2.243-4.411-1.436-1.626.794-2.243 2.779-1.436 4.407.893 1.564 2.857 2.253 4.411 1.435z"/><path d="m408.258 264.841c-.239 1.635.916 3.183 2.551 3.421 1.636.239 3.185-.914 3.423-2.549.239-1.635-.916-3.182-2.552-3.421-1.636-.238-3.184.915-3.422 2.549z"/><path d="m162.521 79.3804c1.655-.8152 2.276-2.8253 1.459-4.479-.816-1.6536-2.828-2.2741-4.482-1.4589-1.655.8153-2.276 2.8254-1.459 4.479.901 1.5905 2.902 2.2849 4.482 1.4589z"/><path d="m385.754 305.219c1.631-.792 2.233-2.774 1.439-4.394-.793-1.63-2.776-2.232-4.397-1.439-1.631.792-2.234 2.774-1.439 4.394.883 1.562 2.855 2.244 4.397 1.439z"/><path d="m220.016 135.364c1.478-.728 2.029-2.522 1.315-4.009-.729-1.478-2.524-2.029-4.013-1.315-1.478.727-2.029 2.521-1.315 4.009.812 1.427 2.598 2.039 4.013 1.315z"/><path d="m302.356 212.003c1.423-.698 1.953-2.432 1.254-3.855s-2.434-1.953-3.858-1.255c-1.423.698-1.953 2.432-1.254 3.855.769 1.37 2.496 1.962 3.858 1.255z"/><path d="m119.307 156.611c1.424-.698 1.954-2.432 1.255-3.855s-2.434-1.952-3.858-1.254-1.953 2.432-1.255 3.854c.77 1.37 2.496 1.962 3.858 1.255z"/><path d="m254.481 421.52c1.423-.698 1.953-2.432 1.254-3.855s-2.434-1.953-3.858-1.255c-1.423.698-1.953 2.432-1.254 3.855.769 1.37 2.496 1.962 3.858 1.255z"/><path d="m119.307 156.611c1.424-.698 1.954-2.432 1.255-3.855s-2.434-1.952-3.858-1.254-1.953 2.432-1.255 3.854c.77 1.37 2.496 1.962 3.858 1.255z"/><path d="m98.2102 73.4966c1.4235-.698 1.9538-2.432 1.2546-3.8547-.6989-1.4227-2.4343-1.9525-3.8579-1.2545s-1.9534 2.432-1.2546 3.8547c.7695 1.37 2.4959 1.9615 3.8579 1.2545z"/><path d="m246.66 201.25c1.626-.794 2.243-2.78 1.436-4.407-.795-1.625-2.782-2.242-4.411-1.436-1.626.794-2.243 2.78-1.436 4.407.893 1.564 2.857 2.253 4.411 1.436z"/><path d="m287.025 195.202c1.594-.778 2.189-2.713 1.41-4.306-.78-1.593-2.717-2.188-4.311-1.41-1.594.779-2.189 2.714-1.409 4.307.871 1.524 2.796 2.2 4.31 1.409z"/><path d="m166.171 117.447c2.046-.997 2.799-3.478 1.8-5.523-.998-2.045-3.481-2.798-5.528-1.8-2.046.997-2.798 3.478-1.8 5.523 1.111 1.961 3.58 2.812 5.528 1.8z"/><path d="m138.912 22.5845c1.742-.8504 2.391-2.9643 1.54-4.7046s-2.967-2.3901-4.708-1.5398c-1.742.8504-2.392 2.9643-1.54 4.7046.952 1.6653 3.055 2.403 4.708 1.5398z"/><path d="m162.452 97.6343c1.939-.9499 2.661-3.31 1.71-5.2474-.951-1.9375-3.313-2.6594-5.252-1.7095s-2.661 3.31-1.71 5.2475c1.05 1.8638 3.4 2.6719 5.252 1.7094z"/><path d="m375.03 281.81c1.939-.95 2.66-3.31 1.709-5.247-.951-1.938-3.313-2.66-5.251-1.71-1.939.95-2.661 3.31-1.71 5.248 1.05 1.863 3.399 2.672 5.252 1.709z"/><path d="m387.656 265.841c1.939-.95 2.66-3.31 1.709-5.248-.951-1.937-3.313-2.659-5.251-1.709-1.939.95-2.661 3.31-1.71 5.247 1.05 1.864 3.399 2.672 5.252 1.71z"/><path d="m214.694 150.701c1.939-.95 2.661-3.31 1.71-5.248-.951-1.937-3.313-2.659-5.252-1.709-1.938.95-2.66 3.31-1.709 5.247 1.05 1.864 3.399 2.672 5.251 1.71z"/><path d="m214.098 421.578c1.302-.638 1.787-2.222 1.148-3.523-.638-1.301-2.224-1.785-3.526-1.147-1.301.637-1.786 2.222-1.147 3.522.704 1.252 2.282 1.794 3.525 1.148z"/><path d="m310.475 255.413c1.939-.95 2.661-3.31 1.71-5.248-.951-1.937-3.313-2.659-5.252-1.709s-2.661 3.31-1.71 5.247c1.05 1.864 3.4 2.672 5.252 1.71z"/><path d="m102.455 33.6128c1.504-.7364 2.073-2.5654 1.336-4.0692-.738-1.5037-2.568-2.0726-4.0728-1.3361-1.5047.7364-2.0736 2.5654-1.3362 4.0692.8221 1.4406 2.642 2.0834 4.073 1.3361z"/><path d="m379.335 327.72c1.505-.737 2.074-2.566 1.336-4.07-.737-1.503-2.568-2.072-4.072-1.336-1.505.737-2.074 2.566-1.337 4.069.822 1.441 2.642 2.084 4.073 1.337z"/><path d="m321.348 421.387c1.505-.736 2.074-2.565 1.336-4.069-.737-1.504-2.567-2.073-4.072-1.336-1.505.736-2.074 2.565-1.336 4.069.822 1.441 2.641 2.083 4.072 1.336z"/><path d="m68.0478 59.3484c1.5047-.7364 2.0736-2.5654 1.3363-4.0692-.7374-1.5037-2.5678-2.0726-4.0726-1.3361-1.5047.7364-2.0736 2.5654-1.3362 4.0692.8221 1.4406 2.6417 2.0834 4.0725 1.3361z"/><path d="m46.9477 104.157c1.5047-.736 2.0736-2.565 1.3363-4.069-.7374-1.5039-2.5678-2.0728-4.0726-1.3363-1.5047.7364-2.0736 2.5653-1.3362 4.0693.8221 1.441 2.6417 2.083 4.0725 1.336z"/><path d="m335.013 218.54c1.504-.737 2.073-2.566 1.336-4.069-.737-1.504-2.568-2.073-4.073-1.337-1.504.737-2.073 2.566-1.336 4.07.822 1.44 2.642 2.083 4.073 1.336z"/><path d="m294.548 270.272c1.221-.602 1.676-2.082 1.073-3.302-.602-1.22-2.084-1.675-3.305-1.074-1.22.602-1.676 2.083-1.073 3.303.661 1.165 2.134 1.682 3.305 1.073z"/><path d="m287.312 268.965c1.221-.602 1.676-2.083 1.073-3.303-.602-1.219-2.084-1.675-3.305-1.073s-1.676 2.083-1.073 3.303c.66 1.165 2.133 1.682 3.305 1.073z"/><path d="m194.101 181.156c1.221-.602 1.676-2.083 1.074-3.303-.603-1.22-2.085-1.675-3.306-1.073-1.22.602-1.675 2.082-1.073 3.302.661 1.166 2.134 1.683 3.305 1.074z"/><path d="m327.59 227.406c1.22-.601 1.676-2.082 1.073-3.302s-2.085-1.675-3.305-1.073c-1.221.601-1.676 2.082-1.074 3.302.661 1.166 2.134 1.682 3.306 1.073z"/><path d="m308.511 203.29c1.22-.601 1.675-2.082 1.073-3.302-.603-1.22-2.085-1.675-3.305-1.073-1.221.601-1.676 2.082-1.074 3.302.661 1.166 2.134 1.682 3.306 1.073z"/><path d="m278.761 240.774c1.22-.601 1.675-2.082 1.073-3.302-.603-1.22-2.085-1.675-3.305-1.073-1.221.601-1.676 2.082-1.074 3.302.661 1.166 2.134 1.682 3.306 1.073z"/><path d="m104.868 164.379c1.221-.602 1.676-2.083 1.073-3.303-.602-1.22-2.084-1.675-3.305-1.073s-1.676 2.083-1.073 3.303c.661 1.165 2.134 1.682 3.305 1.073z"/><path d="m44.7346 137.62c1.2208-.602 1.6759-2.083 1.0734-3.302-.6025-1.22-2.0845-1.676-3.3052-1.074s-1.6759 2.083-1.0734 3.303c.6608 1.165 2.1338 1.682 3.3052 1.073z"/><path d="m267.319 226.955c1.939-.95 2.66-3.31 1.709-5.248-.951-1.937-3.313-2.659-5.251-1.709-1.939.95-2.661 3.31-1.71 5.247 1.05 1.864 3.4 2.672 5.252 1.71z"/><path d="m309.265 274.155c1.64-.805 2.259-2.803 1.453-4.442-.805-1.64-2.805-2.259-4.445-1.454-1.641.805-2.259 2.803-1.454 4.442.891 1.576 2.879 2.269 4.446 1.454z"/><path d="m317.257 244.478c1.22-.602 1.676-2.083 1.073-3.303s-2.085-1.675-3.305-1.073c-1.221.602-1.676 2.082-1.074 3.302.661 1.166 2.134 1.683 3.306 1.074z"/></g><path d="m160.702 76.5743 59.973 55.6527" stroke="#fff" stroke-miterlimit="10"/><path d="m253.295 165.69-7.753-3.546 3.758-7.641-6.978 4.945-4.689-6.948.748 8.335-8.394.587 7.766 3.548-3.758 7.64 6.967-4.958 4.687 6.96-.839-8.399z" fill="#ffa135"/><path d="m385.185 194.236-4.053-7.51 7.607-3.821-8.549-.253.452-8.362-4.435 7.102-7.045-4.6 4.053 7.509-7.607 3.821 8.548.254-.453 8.374 4.387-7.209z" fill="#ffa135"/><path d="m349.477 429.201-5.38-6.609 6.737-5.193-8.432 1.361-1.13-8.303-3.027 7.81-7.781-3.185 5.38 6.608-6.747 5.18 8.444-1.36 1.128 8.316 2.966-7.907z" fill="#ffa135"/><path d="m77.7665 125.281-4.4804-7.257 7.3686-4.258-8.5445.237-.0361-8.382-4.0179 7.351-7.297-4.171 4.468 7.255-7.3562 4.26 8.5444-.238.0379 8.371 3.9565-7.448z" fill="#ffa135"/></svg>