<svg width="220" height="163" viewBox="0 0 213 163" fill="none" xmlns="http://www.w3.org/2000/svg">
<circle cx="106.935" cy="83.0965" r="79.2171" fill="#F2F9FA"/>
<path d="M157.717 77.5809L106.534 41.9882" stroke="#204E62" stroke-linejoin="round"/>
<path d="M55.3462 77.5809L106.534 113.174" stroke="#204E62" stroke-linejoin="round"/>
<path d="M157.832 78.6953C157.049 78.1726 156.79 77.0065 157.44 76.2252C157.964 75.444 159.132 75.1855 159.914 75.8346C160.696 76.3573 160.955 77.5235 160.305 78.3047C159.655 79.086 158.614 79.3445 157.832 78.6953Z" fill="#204E62"/>
<path d="M105.574 114.345C104.688 113.754 104.492 112.479 105.079 111.594C105.666 110.709 106.949 110.514 107.834 111.1C108.72 111.692 108.916 112.967 108.329 113.851C107.742 114.736 106.46 114.931 105.574 114.345Z" fill="#204E62"/>
<path d="M129.192 19.9467C128.151 19.1655 127.892 17.7351 128.668 16.6954C129.445 15.6556 130.883 15.3971 131.924 16.1726C132.965 16.9481 133.224 18.3842 132.448 19.424C131.671 20.4637 130.233 20.7222 129.192 19.9467Z" fill="#204E62"/>
<path d="M155.22 97.5659C154.179 96.7846 153.92 95.3542 154.697 94.3145C155.473 93.2747 156.911 93.0162 157.952 93.7917C158.994 94.5673 159.252 96.0034 158.476 97.0431C157.826 98.0829 156.261 98.3414 155.22 97.5659Z" fill="#204E62"/>
<path d="M53.5688 79.2697C52.5277 78.4885 52.2689 77.0581 53.0454 76.0184C53.8277 74.9786 55.26 74.7201 56.3011 75.4956C57.3422 76.2769 57.6011 77.7072 56.8245 78.747C56.0422 79.7867 54.61 80.0452 53.5688 79.2697Z" fill="#204E62"/>
<path d="M105.833 44.2917C104.791 43.5104 104.533 42.0801 105.309 41.0403C106.086 40.0006 107.524 39.7421 108.565 40.5176C109.606 41.2931 109.865 42.7292 109.088 43.7689C108.306 44.8087 106.874 45.0672 105.833 44.2917Z" fill="#204E62"/>
<path d="M76.3413 35.2156C75.559 34.6928 75.3002 33.5267 75.9502 32.7455C76.6002 31.9642 77.6413 31.7057 78.4236 32.3549C79.2059 32.8776 79.4647 34.0437 78.8147 34.825C78.2913 35.6062 77.1236 35.8647 76.3413 35.2156Z" fill="#204E62"/>
<path d="M129.014 139.707C128.231 139.185 127.973 138.018 128.623 137.237C129.273 136.456 130.314 136.197 131.096 136.847C131.878 137.369 132.137 138.535 131.487 139.317C130.837 140.098 129.796 140.356 129.014 139.707Z" fill="#204E62"/>
<path d="M131.32 44.062C130.538 43.5393 130.279 42.3732 130.929 41.5919C131.579 40.8107 132.62 40.5522 133.403 41.2013C134.185 41.724 134.444 42.8902 133.794 43.6714C133.27 44.4527 132.103 44.7112 131.32 44.062Z" fill="#204E62"/>
<path d="M136.221 34.4169C135.6 34.0033 135.399 33.0784 135.911 32.458C136.422 31.8376 137.251 31.6366 137.872 32.1478C138.493 32.5614 138.695 33.4863 138.183 34.1067C137.768 34.7271 136.842 34.9281 136.221 34.4169Z" fill="#204E62"/>
<path d="M129.445 33.8944C128.904 33.5325 128.726 32.7225 129.174 32.1825C129.623 31.6425 130.348 31.4645 130.889 31.9125C131.429 32.2744 131.608 33.0844 131.159 33.6244C130.797 34.1644 129.986 34.3424 129.445 33.8944Z" fill="#204E62"/>
<path d="M81.4663 43.1829C80.9256 42.821 80.7473 42.0111 81.1959 41.4711C81.6446 40.9311 82.3694 40.753 82.9101 41.2011C83.4508 41.563 83.6291 42.373 83.1804 42.913C82.8181 43.4529 82.007 43.631 81.4663 43.1829Z" fill="#204E62"/>
<path d="M83.5605 33.9344C83.0198 33.5725 82.8415 32.7625 83.2902 32.2226C83.7389 31.6826 84.4636 31.5045 85.0043 31.9526C85.545 32.3145 85.7233 33.1244 85.2747 33.6644C84.9123 34.2044 84.1012 34.3825 83.5605 33.9344Z" fill="#204E62"/>
<path d="M82.9101 19.6135C82.2141 19.1539 81.984 18.1142 82.565 17.4191C83.1459 16.724 84.0663 16.4942 84.7623 17.0744C85.4583 17.534 85.6884 18.5737 85.1074 19.2688C84.6472 19.9639 83.6061 20.1937 82.9101 19.6135Z" fill="#204E62"/>
<path d="M129.037 8.75655C128.341 8.297 128.11 7.25725 128.691 6.56217C129.272 5.86709 130.193 5.63731 130.889 6.2175C131.585 6.67706 131.815 7.7168 131.234 8.41188C130.774 9.10697 129.733 9.33674 129.037 8.75655Z" fill="#204E62"/>
<path d="M157.538 61.6687C156.842 61.2091 156.612 60.1694 157.193 59.4743C157.774 58.7792 158.694 58.5494 159.39 59.1296C160.086 59.5892 160.316 60.6289 159.735 61.324C159.275 62.0191 158.234 62.2489 157.538 61.6687Z" fill="#204E62"/>
<path d="M151.222 87.4155C150.532 86.8985 150.359 85.9507 150.877 85.2614C151.395 84.572 152.344 84.3997 153.034 84.9167C153.724 85.4337 153.897 86.3815 153.379 87.0709C152.948 87.7602 151.913 87.9325 151.222 87.4155Z" fill="#204E62"/>
<path d="M158.131 86.8352C157.556 86.4044 157.412 85.6116 157.843 85.0314C158.275 84.4512 159.068 84.3134 159.649 84.7442C160.23 85.175 160.368 85.9678 159.937 86.548C159.575 87.1224 158.712 87.266 158.131 86.8352Z" fill="#204E62"/>
<path d="M210.878 86.8581C210.303 86.4273 210.159 85.6346 210.59 85.0544C211.022 84.4742 211.815 84.3363 212.396 84.7671C212.977 85.198 213.115 85.9907 212.684 86.5709C212.322 87.1454 211.459 87.289 210.878 86.8581Z" fill="#204E62"/>
<path d="M204.562 86.6687C204.09 86.3183 203.975 85.6692 204.326 85.1981C204.677 84.7271 205.327 84.6122 205.799 84.9626C206.27 85.313 206.385 85.9621 206.034 86.4332C205.741 86.9042 205.034 87.0191 204.562 86.6687Z" fill="#204E62"/>
<path d="M206.345 96.0723C205.873 95.7218 205.758 95.0727 206.109 94.6017C206.46 94.1306 207.11 94.0157 207.582 94.3662C208.053 94.7166 208.168 95.3657 207.818 95.8367C207.524 96.3078 206.817 96.4227 206.345 96.0723Z" fill="#204E62"/>
<path d="M54.3167 61.0542C53.8451 60.7038 53.73 60.0547 54.0809 59.5836C54.4318 59.1126 55.0818 58.9977 55.5534 59.3481C56.0251 59.6985 56.1402 60.3476 55.7893 60.8187C55.4959 61.2897 54.7884 61.4046 54.3167 61.0542Z" fill="#204E62"/>
<path d="M30.8419 60.9334C30.1517 60.4164 29.9791 59.4685 30.4968 58.7792C31.0145 58.0899 31.9636 57.9175 32.6539 58.4345C33.3441 58.9515 33.5167 59.8994 32.999 60.5887C32.5676 61.278 31.5322 61.4504 30.8419 60.9334Z" fill="#204E62"/>
<path d="M83.1461 114.374C82.4559 113.857 82.2833 112.909 82.801 112.22C83.3187 111.531 84.2678 111.358 84.9581 111.875C85.6483 112.392 85.8209 113.34 85.3032 114.03C84.8718 114.719 83.8364 114.891 83.1461 114.374Z" fill="#204E62"/>
<path d="M82.8527 139.673C82.1624 139.156 81.9899 138.208 82.5076 137.519C83.0252 136.829 83.9743 136.657 84.6646 137.174C85.3549 137.691 85.5274 138.639 85.0097 139.328C84.5783 140.018 83.5429 140.19 82.8527 139.673Z" fill="#204E62"/>
<path d="M76.5831 140.196C75.8929 139.679 75.7203 138.731 76.238 138.041C76.7557 137.352 77.7048 137.18 78.3951 137.697C79.0853 138.214 79.2579 139.162 78.7402 139.851C78.3088 140.54 77.2734 140.713 76.5831 140.196Z" fill="#204E62"/>
<path d="M131.125 149.427C130.199 148.732 129.969 147.462 130.659 146.532C131.349 145.601 132.626 145.377 133.558 146.067C134.49 146.756 134.714 148.031 134.024 148.962C133.443 149.887 132.057 150.116 131.125 149.427Z" fill="#204E62"/>
<path d="M80.8165 149.352C79.9307 148.761 79.7351 147.485 80.3219 146.601C80.9086 145.716 82.1913 145.521 83.0771 146.107C83.963 146.698 84.1585 147.974 83.5718 148.858C82.9851 149.743 81.7024 149.938 80.8165 149.352Z" fill="#204E62"/>
<path d="M8.00649 87.2088C7.12066 86.6171 6.92509 85.3418 7.51181 84.4572C8.09852 83.5725 9.38124 83.3772 10.2671 83.9631C11.1529 84.5548 11.3485 85.8301 10.7618 86.7147C10.175 87.5994 8.89232 87.7947 8.00649 87.2088Z" fill="#204E62"/>
<path d="M8.11542 61.7433C7.3849 61.255 7.22384 60.2038 7.70702 59.4742C8.1902 58.7447 9.24859 58.5839 9.9791 59.0664C10.7096 59.5547 10.8707 60.6059 10.3875 61.3355C9.90433 62.065 8.84594 62.2258 8.11542 61.7433Z" fill="#204E62"/>
<path d="M6.49365 96.0782C5.95295 95.7221 5.83791 94.9408 6.19454 94.4066C6.55117 93.8723 7.33346 93.7517 7.86841 94.1079C8.4091 94.464 8.52415 95.2453 8.16752 95.7795C7.81088 96.3137 7.0286 96.4344 6.49365 96.0782Z" fill="#204E62"/>
<path d="M1.4375 87.0765C0.896799 86.7204 0.781756 85.9391 1.13839 85.4049C1.49502 84.8706 2.27731 84.75 2.81225 85.1062C3.35295 85.4623 3.46799 86.2436 3.11136 86.7778C2.75473 87.312 1.97244 87.4327 1.4375 87.0765Z" fill="#204E62"/>
<path d="M30.5083 96.1182C29.9676 95.7621 29.8526 94.9809 30.2092 94.4466C30.5658 93.9124 31.3481 93.7917 31.8831 94.1479C32.4238 94.5041 32.5388 95.2853 32.1822 95.8195C31.8255 96.3538 31.0432 96.4744 30.5083 96.1182Z" fill="#204E62"/>
<path d="M60.8738 87.2948C60.1893 86.8353 60.034 85.8472 60.4942 85.1636C60.9543 84.48 61.9437 84.3249 62.6282 84.7845C63.3127 85.244 63.468 86.2321 63.0079 86.9157C62.5477 87.5993 61.5583 87.7544 60.8738 87.2948Z" fill="#204E62"/>
<path d="M204.522 60.9622C204.05 60.6117 203.935 59.9626 204.286 59.4916C204.637 59.0205 205.287 58.9056 205.759 59.256C206.23 59.6065 206.345 60.2556 205.994 60.7266C205.701 61.1977 204.993 61.3126 204.522 60.9622Z" fill="#204E62"/>
<path d="M70.9344 55.8956C70.3592 56.6998 69.2663 56.8721 68.461 56.3551C67.6557 55.7807 67.4832 54.6892 68.0009 53.885C68.5185 53.0808 69.669 52.9084 70.4743 53.4254C71.2796 53.9999 71.4521 55.0913 70.9344 55.8956Z" fill="#74B3DB"/>
<path d="M140.38 105.729C140.38 106.659 139.615 107.423 138.683 107.423C137.751 107.423 136.986 106.659 136.986 105.729C136.986 104.798 137.751 104.034 138.683 104.034C139.615 104.034 140.38 104.798 140.38 105.729Z" fill="#74B3DB"/>
<path d="M136.79 2.35712C136.79 3.19007 136.1 3.87941 135.266 3.87941C134.432 3.87941 133.742 3.19007 133.742 2.35712C133.742 1.52417 134.432 0.834839 135.266 0.834839C136.1 0.834839 136.79 1.52417 136.79 2.35712Z" fill="#74B3DB"/>
<path d="M174.996 30.5682L176.733 31.8665L177.952 30.1374L177.717 32.2628L179.845 32.4582L177.878 33.2854L178.74 35.2155L177.049 33.9517L175.784 35.6865L176.06 33.5611L173.932 33.3658L175.905 32.5386L174.996 30.5682Z" fill="#74B3DB"/>
<path d="M159.229 48.0773C158.821 48.646 158.045 48.7724 157.475 48.4047C156.906 47.9969 156.779 47.2214 157.147 46.6527C157.515 46.084 158.332 45.9576 158.902 46.3253C159.471 46.7331 159.598 47.5086 159.229 48.0773Z" fill="#74B3DB"/>
<path d="M164.838 102.713C164.481 103.213 163.808 103.316 163.308 102.994C162.807 102.638 162.704 101.966 163.026 101.466C163.348 100.967 164.055 100.863 164.556 101.185C165.056 101.541 165.16 102.213 164.838 102.713Z" fill="#74B3DB"/>
<path d="M62.8237 28.0866C62.3176 28.7932 61.357 28.9483 60.6494 28.4887C59.9419 27.9832 59.7866 27.0239 60.2468 26.3173C60.707 25.6108 61.7136 25.4557 62.4211 25.9152C63.1286 26.4207 63.2839 27.38 62.8237 28.0866Z" fill="#74B3DB"/>
<path d="M146.517 103.931C146.27 104.275 145.804 104.35 145.459 104.126C145.114 103.879 145.039 103.414 145.263 103.069C145.488 102.724 145.977 102.65 146.322 102.874C146.667 103.121 146.742 103.586 146.517 103.931Z" fill="#74B3DB"/>
<path d="M72.7694 142.189C72.5796 142.453 72.2287 142.505 71.9641 142.338C71.6995 142.149 71.6477 141.798 71.8146 141.534C71.9814 141.27 72.3552 141.218 72.6198 141.385C72.8844 141.574 72.9362 141.925 72.7694 142.189Z" fill="#74B3DB"/>
<path d="M101.31 132.797C101.044 133.174 100.523 133.262 100.146 133.019C99.7693 132.753 99.6917 132.233 99.9245 131.857C100.157 131.48 100.711 131.392 101.088 131.635C101.465 131.901 101.542 132.421 101.31 132.797Z" fill="#74B3DB"/>
<path d="M150.987 107.808C150.826 108.038 150.515 108.084 150.285 107.94C150.055 107.78 150.009 107.469 150.153 107.24C150.297 107.01 150.625 106.964 150.855 107.107C151.085 107.268 151.131 107.579 150.987 107.808Z" fill="#74B3DB"/>
<path d="M186.151 101.927C185.502 101.259 185.518 100.178 186.186 99.5287C186.855 98.8792 187.936 98.8938 188.584 99.561C189.233 100.228 189.217 101.309 188.549 101.959C187.881 102.608 186.8 102.594 186.151 101.927Z" fill="#74B3DB"/>
<path d="M183.004 107.494C182.941 107.074 183.223 106.696 183.627 106.616C184.046 106.553 184.424 106.834 184.504 107.238C184.583 107.641 184.285 108.036 183.881 108.115C183.461 108.179 183.083 107.897 183.004 107.494Z" fill="#74B3DB"/>
<path d="M177.096 107.829C177.052 107.552 177.242 107.303 177.507 107.245C177.785 107.2 178.034 107.391 178.091 107.656C178.148 107.921 177.945 108.182 177.68 108.239C177.403 108.284 177.153 108.094 177.096 107.829Z" fill="#74B3DB"/>
<path d="M166.979 27.2642C166.33 26.5969 166.346 25.5159 167.015 24.8663C167.683 24.2168 168.764 24.2313 169.413 24.8986C170.061 25.5659 170.045 26.647 169.377 27.2965C168.709 27.946 167.628 27.9315 166.979 27.2642Z" fill="#74B3DB"/>
<path d="M163.832 32.8315C163.769 32.4119 164.051 32.0336 164.455 31.9537C164.874 31.8902 165.252 32.1717 165.332 32.5752C165.411 32.9787 165.113 33.3731 164.709 33.453C164.289 33.5165 163.911 33.235 163.832 32.8315Z" fill="#74B3DB"/>
<path d="M157.925 33.1667C157.88 32.8897 158.071 32.6402 158.336 32.5828C158.613 32.5378 158.862 32.7281 158.919 32.9931C158.976 33.2581 158.773 33.5196 158.508 33.577C158.231 33.6221 157.982 33.4317 157.925 33.1667Z" fill="#74B3DB"/>
<path d="M80.6676 105.774C80.0189 105.107 80.0349 104.026 80.7031 103.376C81.3712 102.727 82.4523 102.741 83.101 103.409C83.7497 104.076 83.7337 105.157 83.0655 105.807C82.3974 106.456 81.3163 106.442 80.6676 105.774Z" fill="#74B3DB"/>
<path d="M65.7002 118.244C65.6373 117.824 65.9193 117.446 66.3229 117.366C66.7426 117.303 67.1205 117.584 67.1999 117.988C67.2793 118.391 66.9808 118.785 66.5772 118.865C66.1575 118.929 65.7796 118.647 65.7002 118.244Z" fill="#74B3DB"/>
<path d="M63.0169 131.063C62.9222 130.475 63.3264 129.947 63.8882 129.825C64.4755 129.73 65.0037 130.133 65.1246 130.695C65.2455 131.256 64.8151 131.81 64.2533 131.932C63.6661 132.028 63.1379 131.624 63.0169 131.063Z" fill="#74B3DB"/>
<path d="M29.6857 49.2941C29.037 48.6268 29.053 47.5457 29.7211 46.8962C30.3893 46.2466 31.4704 46.2612 32.1191 46.9285C32.7677 47.5957 32.7517 48.6768 32.0836 49.3264C31.4154 49.9759 30.3343 49.9613 29.6857 49.2941Z" fill="#74B3DB"/>
<path d="M26.5381 54.8613C26.4752 54.4418 26.7572 54.0635 27.1608 53.9835C27.5805 53.9201 27.9584 54.2016 28.0378 54.6051C28.1172 55.0086 27.8187 55.4029 27.4151 55.4829C26.9954 55.5463 26.6175 55.2648 26.5381 54.8613Z" fill="#74B3DB"/>
<path d="M20.631 55.1967C20.5864 54.9197 20.777 54.6702 21.0421 54.6128C21.3192 54.5677 21.5684 54.7581 21.6255 55.0231C21.6825 55.2881 21.4795 55.5496 21.2144 55.607C20.9373 55.652 20.6881 55.4617 20.631 55.1967Z" fill="#74B3DB"/>
<path d="M34.0752 105.89C34.5618 105.096 35.6134 104.845 36.4077 105.332C37.202 105.819 37.4547 106.871 36.9681 107.664C36.4815 108.457 35.4299 108.709 34.6356 108.221C33.8413 107.734 33.5886 106.683 34.0752 105.89Z" fill="#74B3DB"/>
<path d="M27.9035 104.213C28.2945 104.049 28.7307 104.229 28.9078 104.6C29.0728 104.991 28.8933 105.427 28.5218 105.603C28.1504 105.78 27.6946 105.588 27.5175 105.216C27.3525 104.825 27.532 104.39 27.9035 104.213Z" fill="#74B3DB"/>
<path d="M26.1211 98.5713C26.3785 98.4597 26.6673 98.5829 26.7883 98.8256C26.9004 99.083 26.7774 99.3715 26.5347 99.4922C26.2919 99.6129 25.9884 99.4806 25.8674 99.2379C25.7554 98.9805 25.8783 98.692 26.1211 98.5713Z" fill="#74B3DB"/>
<path d="M124.438 69.1216C124.925 68.3283 125.977 68.0771 126.771 68.5643C127.565 69.0515 127.818 70.1028 127.331 70.8961C126.845 71.6893 125.793 71.9406 124.999 71.4533C124.205 70.9661 123.952 69.9148 124.438 69.1216Z" fill="#74B3DB"/>
<path d="M118.267 67.4453C118.658 67.2808 119.094 67.4608 119.271 67.8322C119.436 68.2232 119.257 68.659 118.885 68.8355C118.514 69.012 118.058 68.82 117.881 68.4486C117.716 68.0575 117.895 67.6218 118.267 67.4453Z" fill="#74B3DB"/>
<path d="M116.484 61.8034C116.741 61.6917 117.03 61.815 117.151 62.0577C117.263 62.3151 117.14 62.6036 116.897 62.7243C116.655 62.8449 116.351 62.7127 116.23 62.4699C116.118 62.2125 116.241 61.9241 116.484 61.8034Z" fill="#74B3DB"/>
<path d="M89.7442 13.1563C90.2307 12.363 91.2823 12.1117 92.0766 12.599C92.871 13.0862 93.1236 14.1375 92.637 14.9307C92.1505 15.724 91.0989 15.9752 90.3045 15.488C89.5102 15.0008 89.2576 13.9495 89.7442 13.1563Z" fill="#74B3DB"/>
<path d="M123.243 25.1384C123.634 24.9739 124.07 25.1539 124.247 25.5253C124.412 25.9163 124.233 26.3521 123.861 26.5286C123.49 26.7051 123.034 26.5131 122.857 26.1417C122.692 25.7507 122.871 25.3149 123.243 25.1384Z" fill="#74B3DB"/>
<path d="M124.383 19.5832C124.64 19.4716 124.929 19.5948 125.05 19.8375C125.162 20.0949 125.039 20.3834 124.796 20.5041C124.554 20.6248 124.25 20.4925 124.129 20.2498C124.017 19.9924 124.14 19.7039 124.383 19.5832Z" fill="#74B3DB"/>
<path d="M93.2127 125.61L93.9547 127.621L95.9334 126.851L94.5759 128.471L96.2555 129.821L94.133 129.459L93.8339 131.573L93.0919 129.563L91.0844 130.332L92.4649 128.684L90.791 127.362L92.8848 127.724L93.2127 125.61Z" fill="#74B3DB"/>
<path d="M67.4773 20.0099C67.1034 20.5326 66.3959 20.6418 65.8725 20.3086C65.349 19.9352 65.2397 19.2287 65.5733 18.7059C65.907 18.1832 66.6547 18.074 67.1782 18.4072C67.7016 18.7806 67.8109 19.4872 67.4773 20.0099Z" fill="#74B3DB"/>
<path d="M55.6799 106.28C55.1392 107.039 54.1096 107.199 53.3561 106.711C52.5968 106.171 52.4357 105.143 52.9246 104.39C53.4136 103.638 54.495 103.471 55.2485 103.96C56.0078 104.5 56.1688 105.528 55.6799 106.28Z" fill="#74B3DB"/>
<path d="M148.007 133.021C147.662 133.136 147.294 132.958 147.167 132.624C147.052 132.28 147.236 131.912 147.564 131.786C147.892 131.659 148.277 131.849 148.404 132.182C148.519 132.527 148.335 132.894 148.007 133.021Z" fill="#74B3DB"/>
<path d="M136.019 14.3286C135.789 14.409 135.548 14.2826 135.461 14.0701C135.381 13.8403 135.507 13.5991 135.72 13.5129C135.933 13.4267 136.192 13.5588 136.278 13.7714C136.359 14.0012 136.232 14.2424 136.019 14.3286Z" fill="#74B3DB"/>
<path d="M147.369 20.952C147.138 21.0324 146.897 20.906 146.811 20.6935C146.73 20.4637 146.857 20.2224 147.069 20.1362C147.282 20.0501 147.541 20.1822 147.627 20.3947C147.708 20.6245 147.581 20.8658 147.369 20.952Z" fill="#74B3DB"/>
<path d="M59.4994 23.8012C59.2693 23.8816 59.0277 23.7552 58.9415 23.5427C58.8609 23.3129 58.9875 23.0717 59.2003 22.9855C59.4131 22.8993 59.672 23.0314 59.7583 23.244C59.8388 23.4738 59.7122 23.715 59.4994 23.8012Z" fill="#74B3DB"/>
<path d="M50.8827 118.51C50.6526 118.591 50.411 118.464 50.3248 118.252C50.2442 118.022 50.3708 117.781 50.5836 117.695C50.7964 117.608 51.0553 117.74 51.1416 117.953C51.2221 118.183 51.0955 118.424 50.8827 118.51Z" fill="#74B3DB"/>
<path d="M78.8148 7.33178C78.5848 7.4122 78.3432 7.28582 78.2569 7.07328C78.1764 6.8435 78.3029 6.60223 78.5157 6.51606C78.7286 6.4299 78.9874 6.56202 79.0737 6.77456C79.1542 7.00434 79.0277 7.24561 78.8148 7.33178Z" fill="#74B3DB"/>
<path d="M13.8505 99.5305C13.6031 99.8752 13.1372 99.9498 12.7921 99.7258C12.4469 99.4788 12.3722 99.0135 12.5965 98.6688C12.8208 98.3242 13.3098 98.2495 13.6549 98.4735C14 98.7205 14.0748 99.1858 13.8505 99.5305Z" fill="#74B3DB"/>
<path d="M18.3199 103.414C18.1588 103.644 17.8482 103.69 17.6181 103.546C17.388 103.385 17.342 103.075 17.4858 102.845C17.6296 102.615 17.9575 102.569 18.1876 102.713C18.4177 102.874 18.4637 103.184 18.3199 103.414Z" fill="#74B3DB"/>
<path d="M136.019 132.004C135.772 132.349 135.306 132.423 134.961 132.199C134.616 131.952 134.541 131.487 134.765 131.142C134.99 130.798 135.479 130.723 135.824 130.947C136.169 131.194 136.244 131.659 136.019 132.004Z" fill="#74B3DB"/>
<path d="M140.489 135.882C140.328 136.111 140.017 136.157 139.787 136.014C139.557 135.853 139.511 135.543 139.655 135.313C139.799 135.083 140.126 135.037 140.357 135.181C140.587 135.342 140.633 135.652 140.489 135.882Z" fill="#74B3DB"/>
<path d="M201.346 81.0966C201.766 81.1253 202.077 81.4814 202.077 81.8893C202.048 82.3086 201.691 82.6188 201.283 82.6188C200.874 82.6188 200.552 82.234 200.552 81.8261C200.581 81.4068 200.938 81.0966 201.346 81.0966Z" fill="#74B3DB"/>
<path d="M199.017 78.6437C199.298 78.6609 199.5 78.8964 199.5 79.1664C199.483 79.4479 199.247 79.649 198.976 79.649C198.706 79.649 198.493 79.3962 198.493 79.1262C198.51 78.8447 198.746 78.6437 199.017 78.6437Z" fill="#74B3DB"/>
<path d="M51.7284 64.3169C51.481 64.6616 51.0151 64.7363 50.67 64.5123C50.3249 64.2652 50.2501 63.7999 50.4744 63.4553C50.6988 63.1106 51.1877 63.0359 51.5328 63.26C51.8779 63.507 51.9527 63.9723 51.7284 64.3169Z" fill="#74B3DB"/>
<path d="M51.9874 73.7379C51.8263 73.9677 51.5157 74.0136 51.2856 73.87C51.0555 73.7092 51.0095 73.399 51.1533 73.1692C51.2971 72.9394 51.625 72.8934 51.8551 73.0371C52.0852 73.1979 52.1312 73.5081 51.9874 73.7379Z" fill="#74B3DB"/>
<path d="M158.821 86.2091V60.0602H205.132V85.7955" stroke="#204E62" stroke-linejoin="round"/>
<path d="M207.087 94.9234H156.865L152.315 86.054H211.643L207.087 94.9234Z" stroke="#204E62" stroke-linejoin="round"/>
<path d="M9.00146 86.2091V60.0602H55.3118V85.7955" stroke="#204E62" stroke-linejoin="round"/>
<path d="M57.2673 94.9234H7.04553L2.49561 86.054H61.8229L57.2673 94.9234Z" stroke="#204E62" stroke-linejoin="round"/>
<path d="M84.1467 18.1199L31.4458 59.9568" stroke="#204E62" stroke-linejoin="round"/>
<path d="M130.773 18.1199L183.474 59.9568" stroke="#204E62" stroke-linejoin="round"/>
<path d="M157.717 77.5809H55.3462C57.4572 76.1448 106.529 41.9882 106.529 41.9882V113.179L157.711 77.5866L157.717 77.5809Z" stroke="#204E62" stroke-linejoin="round"/>
<path d="M130.095 138.495L182.801 94.8717" stroke="#204E62" stroke-linejoin="round"/>
<path d="M83.4738 138.495L30.7729 94.8717" stroke="#204E62" stroke-linejoin="round"/>
<path d="M144.268 61.2551C144.021 61.5998 143.555 61.6745 143.21 61.4504C142.865 61.2034 142.79 60.7381 143.014 60.3934C143.239 60.0488 143.728 59.9741 144.073 60.1981C144.418 60.4451 144.493 60.9104 144.268 61.2551Z" fill="#204E62"/>
<path d="M148.738 65.1327C148.577 65.3624 148.266 65.4084 148.036 65.2648C147.806 65.1039 147.76 64.7937 147.904 64.564C148.048 64.3342 148.375 64.2882 148.606 64.4318C148.836 64.5927 148.882 64.9029 148.738 65.1327Z" fill="#204E62"/>
<path d="M83.9111 33.4519V7.3031H130.221V33.0383" stroke="#204E62" stroke-linejoin="round"/>
<path d="M132.177 42.1663H81.9552L77.4053 33.3026H136.733L132.177 42.1663Z" stroke="#204E62" stroke-linejoin="round"/>
<path d="M83.9111 138.961V112.818H130.221V138.553" stroke="#204E62" stroke-linejoin="round"/>
<path d="M132.177 147.681H81.9552L77.4053 138.811H136.733L132.177 147.681Z" stroke="#204E62" stroke-linejoin="round"/>
<path d="M84.0721 2.51233L85.3261 5.38456L88.3172 4.18397L86.2982 6.6943L88.8579 8.58998L85.7575 8.16489L85.4469 11.3129L84.1929 8.44636L81.2018 9.64121L83.2208 7.13663L80.6611 5.23521L83.7615 5.66604L84.0721 2.51233Z" fill="#FFA135"/>
<path d="M101.346 72.434L105.815 74.8065L108.012 70.3085L108.15 75.3579L113.235 75.0362L108.904 77.7074L111.791 81.8779L107.316 79.5054L105.119 84.0033L104.877 79.0344L99.7925 79.3561L104.124 76.6791L101.346 72.434Z" fill="#FFA135"/>
<path d="M130.843 107.125L131.682 111.37L135.858 110.399L132.58 113.22L135.536 116.408L131.424 114.983L130.21 119.148L129.37 114.903L125.2 115.879L128.369 113.03L125.413 109.836L129.525 111.267L130.843 107.125Z" fill="#FFA135"/>
<path d="M57.5605 90.8048L58.1818 93.97L61.2994 93.2462L58.8548 95.3487L61.0636 97.7326L57.9919 96.6699L57.0831 99.7777L56.4561 96.6067L53.3442 97.3363L55.7084 95.2108L53.4995 92.8269L56.5712 93.8896L57.5605 90.8048Z" fill="#FFA135"/>
<path d="M183.808 55.8152L184.435 58.9862L187.547 58.2566L185.102 60.3591L187.311 62.7431L184.239 61.6803L183.331 64.7881L182.704 61.6229L179.592 62.3467L181.956 60.2213L179.747 57.8373L182.819 58.9058L183.808 55.8152Z" fill="#FFA135"/>
</svg>
