<svg fill="none" height="60" viewBox="0 0 60 60" width="60" xmlns="http://www.w3.org/2000/svg"><path d="m29.5864 59.2434c16.2924 0 29.5-13.2076 29.5-29.5s-13.2076-29.499992-29.5-29.499992-29.4999742 13.207592-29.4999742 29.499992 13.2075742 29.5 29.4999742 29.5z" fill="#00c3cd"/><g clip-rule="evenodd" fill="#fff" fill-rule="evenodd"><path d="m33.4362 38.2134c1.69 0 3.07 1.38 3.07 3.07s-1.38 3.07-3.07 3.07-3.07-1.38-3.07-3.07v-3.07z"/><path d="m22.666 33.5934c0-1.69 1.38-3.07 3.07-3.07s3.07 1.38 3.07 3.07v7.68c0 1.69-1.38 3.07-3.07 3.07s-3.07-1.38-3.07-3.07z"/><path d="m21.1161 33.5934c0 1.69-1.38 3.07-3.07 3.07s-3.07-1.38-3.07-3.07 1.38-3.07 3.07-3.07h3.07z"/><path d="m41.126 36.6634c1.69 0 3.07-1.38 3.07-3.07s-1.38-3.07-3.07-3.07h-7.68c-1.69 0-3.07 1.38-3.07 3.07s1.38 3.07 3.07 3.07z"/><path d="m41.1262 28.9634c1.69 0 3.07-1.38 3.07-3.07s-1.38-3.07-3.07-3.07-3.07 1.38-3.07 3.07v3.07z"/><path d="m36.5062 25.8934c0 1.69-1.38 3.07-3.07 3.07s-3.07-1.38-3.07-3.07v-7.68c0-1.69 1.38-3.07 3.07-3.07s3.07 1.38 3.07 3.07z"/><path d="m25.7363 28.9634c1.69 0 3.07-1.38 3.07-3.07s-1.38-3.07-3.07-3.07h-7.68c-1.69 0-3.07 1.38-3.07 3.07s1.38 3.07 3.07 3.07z"/><path d="m28.806 21.2734v-3.07c0-1.69-1.38-3.07-3.07-3.07s-3.07 1.38-3.07 3.07 1.38 3.07 3.07 3.07z"/></g></svg>