<svg fill="none" height="60" viewBox="0 0 60 60" width="60" xmlns="http://www.w3.org/2000/svg"><path d="m30.1826 59.2434c16.2924 0 29.5-13.2076 29.5-29.5s-13.2076-29.499992-29.5-29.499992-29.499983 13.207592-29.499983 29.499992 13.207583 29.5 29.499983 29.5z" fill="#00c3cd"/><path d="m41.3628 19.5634s-.02-.03-.04-.04c-2.08-.96-4.28-1.64-6.54-2.03-.04 0-.08.01-.11.05-.3.54-.57 1.1-.81 1.67-2.44-.37-4.91-.37-7.35 0-.24-.57-.52-1.13-.83-1.67-.02-.04-.06-.06-.11-.05-2.26.39-4.46 1.07-6.54 2.03-.02 0-.03.02-.04.04-4.17 6.22-5.31 12.29-4.75 18.29 0 .03.02.06.04.08 2.43 1.8 5.14 3.17 8.03 4.05.04.01.09 0 .11-.04.62-.84 1.17-1.74 1.64-2.67.03-.05 0-.11-.04-.14 0 0 0 0-.01 0-.87-.33-1.7-.73-2.51-1.19-.05-.03-.07-.09-.04-.14 0-.01.02-.02.03-.03.17-.13.34-.26.5-.39.03-.02.07-.03.1-.01 5.26 2.4 10.95 2.4 16.15 0 .03-.02.08-.01.11.01.16.13.33.27.5.39.05.03.05.1.02.14 0 .01-.02.02-.03.03-.8.47-1.64.87-2.51 1.19-.05.02-.08.08-.06.13v.01c.48.93 1.03 1.82 1.64 2.67.03.04.07.05.11.04 2.89-.88 5.61-2.26 8.04-4.05.02-.02.04-.04.04-.07.67-6.93-1.12-12.95-4.75-18.29zm-16.51 14.63c-1.58 0-2.89-1.45-2.89-3.24s1.28-3.24 2.89-3.24 2.91 1.47 2.89 3.24c0 1.78-1.28 3.24-2.89 3.24zm10.68 0c-1.58 0-2.89-1.45-2.89-3.24s1.28-3.24 2.89-3.24 2.91 1.47 2.89 3.24c0 1.78-1.27 3.24-2.89 3.24z" fill="#fff"/></svg>