<svg fill="none" height="60" viewBox="0 0 60 60" width="60" xmlns="http://www.w3.org/2000/svg"><path d="m30.2534 59.2434c16.2924 0 29.5-13.2076 29.5-29.5s-13.2076-29.499992-29.5-29.499992-29.499982 13.207592-29.499982 29.499992 13.207582 29.5 29.499982 29.5z" fill="#00c3cd"/><g fill="#fff"><path d="m43.3336 44.9784v-30.5h-2.19v-.73h3.04v32h-3.04v-.73z"/><path d="m24.4637 24.1784v1.54h.04c.39-.56.89-1.03 1.49-1.37.58-.32 1.25-.48 1.99-.48s1.38.14 1.97.42c.6.28 1.05.77 1.36 1.48.34-.5.8-.94 1.38-1.32s1.27-.57 2.06-.57c.6 0 1.16.07 1.67.22s.95.38 1.32.71c.37.32.65.75.86 1.27.2.52.31 1.15.31 1.89v7.63h-3.13v-6.46c0-.38-.01-.74-.04-1.08-.02-.31-.1-.61-.24-.88-.13-.25-.34-.46-.58-.6-.26-.15-.61-.22-1.05-.22s-.8.09-1.07.25c-.27.17-.49.39-.64.66-.16.29-.26.6-.31.93-.05.35-.08.7-.08 1.05v6.35h-3.13v-6.4c0-.34 0-.67-.02-1-.01-.31-.07-.62-.19-.92-.11-.28-.3-.51-.55-.67-.26-.17-.64-.25-1.14-.25-.2 0-.39.04-.58.1-.26.07-.5.2-.7.37-.23.18-.42.45-.58.79-.16.35-.24.8-.24 1.36v6.62h-3.13v-11.4l2.97-.02z"/><path d="m17.1737 14.5084v30.5h2.19v.73h-3.04v-32h3.03v.73z"/></g></svg>