<svg fill="none" height="160" viewBox="0 0 202 160" width="220" xmlns="http://www.w3.org/2000/svg"><circle cx="102.246" cy="79.7959" fill="#f2f9fa" r="79.2171"/><path d="m129.549 84.8914 6.767-21.9707 1.51-12.7487 8.011-8.986" stroke="#204e62" stroke-miterlimit="10"/><path d="m157.623 35.9332 13.533 1.5051 13.533 14.9914 1.496 11.9813-1.244 10.7419" stroke="#204e62" stroke-miterlimit="10"/><path d="m183.431 82.8994-4.25 16.2309" stroke="#204e62" stroke-miterlimit="10"/><path d="m165.144 100.134 5.76-17.2345 3.509-18.4885-3.005-11.2435-10.276-5.489-8.529 3.497-4.264 10.2402" stroke="#204e62" stroke-miterlimit="10"/><path d="m146.844 72.91-2.503 10.2402-5.523 11.2289" stroke="#204e62" stroke-miterlimit="10"/><path d="m160.628 60.6631-.503 11.4944-3.761 14.9767-8.025 16.7468" stroke="#204e62" stroke-miterlimit="10"/><path d="m98.0998 33.0264v45.6825l-.8588 56.7781h-70.3167v-102.2245c.3554-.4575 71.1755-.2509 71.1755-.2509z" stroke="#204e62" stroke-miterlimit="10"/><path d="m20.0098 47.7374h67.2073" stroke="#204e62" stroke-miterlimit="10"/><path d="m37.8076 67.0964h49.4097" stroke="#204e62" stroke-miterlimit="10"/><path d="m37.4521 86.9719h49.4098" stroke="#204e62" stroke-miterlimit="10"/><path d="m37.4521 106.316h49.4097l-80.84422 39.131" stroke="#204e62" stroke-miterlimit="10"/><path d="m86.9653 66.58 27.7917 22.0593 8.026-22.4724 3.76-22.2363 20.552-17.9868 25.305-.9886 19.559 13.4864 6.515 19.2262-5.76 38.9689" stroke="#204e62" stroke-miterlimit="10"/><path d="m96.1756 34.1182c-.9328-.6492-1.155-1.9182-.5035-2.8478s1.9249-1.1509 2.8577-.5017c.9328.6493 1.1549 1.9182.5034 2.8478-.6514.9296-1.9248 1.1509-2.8576.5017z" fill="#204e62"/><path d="m178.47 100.783c-.858-.59-1.066-1.7708-.473-2.6266.592-.8558 1.776-1.0624 2.635-.4722s1.066 1.7706.474 2.6268c-.592.855-1.777 1.062-2.636.472z" fill="#204e62"/><path d="m197.408 59.158c-1.11-.7673-1.377-2.2871-.607-3.3937.77-1.1067 2.295-1.3723 3.406-.605 1.11.7673 1.377 2.2871.607 3.3937-.77 1.1067-2.295 1.3723-3.406.605z" fill="#204e62"/><path d="m128.543 86.1161c-.622-.4279-.77-1.2837-.341-1.8887.43-.6197 1.288-.7673 1.895-.3394.622.4279.77 1.2838.341 1.8887-.429.6197-1.288.7673-1.895.3394z" fill="#204e62"/><path d="m86.6842 42.7501 1.7323 2.9954 2.9614-1.8002-1.7324 2.9953 3.0354 1.6674-3.4648-.0148.074 3.4675-1.7323-2.9953-2.9762 1.7854 1.7472-2.9953-3.0353-1.6674 3.4647.0148z" fill="#ffa135"/><path d="m183.209 80.3319.444 1.9772 1.969-.5017-1.481 1.387 1.407 1.4461-1.94-.5902-.547 1.9477-.459-1.9773-1.97.5017 1.496-1.387-1.422-1.446 1.94.5902z" fill="#204e62"/><path d="m2.553 141.331 2.68 2.464 2.39867-2.73-.79956 3.541 3.58319.723-3.47954 1.077 1.15492 3.438-2.6652-2.464-2.41348 2.715.79956-3.526-3.568396-.723 3.479556-1.077z" fill="#ffa135"/><path d="m95.2127 130.264 1.9397 3.364 3.3316-2.021-1.9546 3.364 3.4056 1.874-3.8942-.015.0888 3.881-1.9397-3.364-3.3315 2.006 1.9545-3.349-3.4203-1.874 3.8941.015z" fill="#ffa135"/><path d="m84.0929 58.8777 2.5171 5.1053 5.0639-2.6264-3.1834 4.7365 4.8269 3.0543-5.7005-.3836-.2517 5.6955-2.5172-5.1201-5.0638 2.6412 3.1686-4.7364-4.8122-3.0544 5.7006.3836z" fill="#ffa135"/><path d="m38.4444 107.806c-1.1697.251-2.3098-.501-2.5615-1.667s.5034-2.302 1.6731-2.553c1.1698-.251 2.3099.502 2.5616 1.668.2517 1.165-.5034 2.302-1.6732 2.552z" fill="#204e62"/><path d="m84.4485 88.831c-.9328-.6493-1.1549-1.9182-.5034-2.8478s1.9249-1.1509 2.8577-.5017c.9328.6493 1.1549 1.9182.5034 2.8478s-1.9249 1.1509-2.8577.5017z" fill="#204e62"/><path d="m124.471 46.2471c-.933-.6492-1.155-1.9182-.503-2.8478.651-.9296 1.924-1.1509 2.857-.5016.933.6492 1.155 1.9181.504 2.8477-.652.9296-1.925 1.151-2.858.5017z" fill="#204e62"/><g fill="#74b3db"><path d="m86.8029 25.87c-.5923-.4132-.7404-1.2247-.3258-1.8149.4146-.5903 1.229-.7378 1.8212-.3247.5923.4132.7404 1.2247.3258 1.815-.4146.5902-1.229.7377-1.8212.3246z"/><path d="m83.59 149.18c.1036-.236.3849-.354.6218-.25.2369.103.3554.383.2518.619-.1037.236-.385.354-.6219.251s-.3554-.384-.2517-.62z"/><path d="m176.575 112.528c-.518-.354-.637-1.062-.281-1.579.355-.516 1.066-.634 1.584-.28s.637 1.062.281 1.579c-.355.516-1.066.634-1.584.28z"/><path d="m78.3777 25.5305c-.311.3247-.8292.3247-1.1549.0148-.3258-.3099-.3258-.8263-.0149-1.1509.311-.3246.8292-.3246 1.155-.0148.3257.3099.3257.8263.0148 1.1509z"/><path d="m163.916 124.2c.089-.207.326-.296.533-.222.207.089.296.325.222.531-.089.207-.326.296-.533.222-.207-.089-.296-.325-.222-.531z"/><path d="m123.375 111.997c-.266-.192-.326-.546-.148-.812.193-.265.548-.324.814-.147.267.192.326.546.148.811-.192.266-.547.325-.814.148z"/><path d="m83.1159 142.688c-.6219-.428-.7699-1.284-.3405-1.889.4293-.619 1.2881-.767 1.8952-.339.6219.428.7699 1.284.3406 1.889-.4294.619-1.2882.767-1.8953.339z"/><path d="m113.381 112.823c-.622-.428-.77-1.283-.341-1.888.429-.62 1.288-.768 1.895-.34.622.428.77 1.284.341 1.889-.43.62-1.288.767-1.895.339z"/><path d="m139.322 15.0248 1.14 1.9772 1.954-1.1804-1.154 1.9624 2.013 1.1067-2.295-.0148.045 2.2871-1.14-1.9772-1.955 1.1804 1.155-1.9772-2.014-1.0919h2.295z"/><path d="m121.199 124.354 1.14 1.978 1.954-1.181-1.154 1.963 2.013 1.106-2.295-.014.045 2.287-1.141-1.978-1.954 1.181 1.155-1.977-2.014-1.092h2.295z"/><path d="m51.9186 148.443c-.2665-.192-.3258-.546-.1481-.812.1925-.266.5479-.325.8144-.147.2665.191.3257.545.148.811-.1924.266-.5478.325-.8143.148z"/><path d="m128.928 16.1757c-.267-.1919-.326-.546-.148-.8116.192-.2656.548-.3246.814-.1475.267.1918.326.5459.148.8115-.192.2656-.548.3246-.814.1476z"/><path d="m22.9714 119.315c-.459-.324-.5627-.944-.2517-1.401.3257-.458.9476-.561 1.4066-.251.459.325.5626.944.2517 1.402-.3257.457-.9476.56-1.4066.25z"/><path d="m15.7458 63.378c-.459-.3246-.5627-.9443-.2517-1.4018.3257-.4574.9476-.5607 1.4066-.2508.459.3246.5627.9443.2517 1.4018-.3257.4574-.9476.5607-1.4066.2508z"/><path d="m109.176 43.5026c-.607-.4131-.755-1.2542-.326-1.8444.415-.605 1.259-.7525 1.851-.3246.607.4131.755 1.2542.326 1.8444-.415.605-1.259.7525-1.851.3246z"/></g><path d="m142.835 36.6453 3.265 1.5878 1.543-3.2885.239 3.6226 3.622-.3339-3.03 2.0206 2.083 2.9687-3.251-1.592-1.543 3.2885-.239-3.6226-3.622.3339 3.03-2.0206z" fill="#ffa135"/><path d="m144.297 99.5582 2.665 2.4638 2.413-2.7294-.799 3.5414 3.568.723-3.479 1.077 1.169 3.438-2.68-2.464-2.413 2.73.8-3.542-3.569-.723 3.48-1.077z" fill="#ffa135"/><path d="m190.938 92.4314 2.68 2.4641 2.413-2.7297-.814 3.5413 3.583.723-3.479 1.0771 1.154 3.4378-2.665-2.4639-2.413 2.7299.799-3.5415-3.568-.723 3.479-1.0771z" fill="#ffa135"/><g fill="#204e62"><path d="m27.6944 34.6494c-1.1697.2508-2.3098-.5017-2.5615-1.6674-.2517-1.1656.5034-2.3018 1.6731-2.5526 1.1698-.2509 2.3099.5016 2.5616 1.6673s-.5034 2.3018-1.6732 2.5527z"/><path d="m18.7364 49.995c-1.1697.2508-2.3098-.5017-2.5615-1.6674s.5034-2.3018 1.6731-2.5527c1.1698-.2508 2.3099.5017 2.5616 1.6674s-.5034 2.3018-1.6732 2.5527z"/><path d="m37.6447 87.8572c-.6219-.4279-.7699-1.2837-.3405-1.8887.4294-.6197 1.2881-.7673 1.8952-.3394.6219.4279.77 1.2837.3406 1.8887-.4294.6197-1.2882.7673-1.8953.3394z"/><path d="m37.8963 68.4834c-.9328-.6492-1.1549-1.9182-.5035-2.8477.6515-.9296 1.9249-1.151 2.8577-.5017.9328.6492 1.1549 1.9182.5034 2.8478-.6514.9295-1.9248 1.1509-2.8576.5016z"/><path d="m147.495 63.4814c-.933-.6493-1.155-1.9182-.504-2.8478.652-.9296 1.925-1.1509 2.858-.5017s1.155 1.9182.504 2.8478c-.652.9296-1.925 1.1509-2.858.5017z"/><path d="m145.703 74.9019c-.932-.6492-1.155-1.9182-.503-2.8478.651-.9296 1.925-1.1509 2.858-.5017.932.6493 1.155 1.9182.503 2.8478-.651.9296-1.925 1.1509-2.858.5017z"/><path d="m85.0257 108.47c-1.3326-.929-1.6583-2.759-.7255-4.087s2.7688-1.652 4.1014-.723c1.3326.93 1.6584 2.759.7255 4.087-.9328 1.328-2.7688 1.653-4.1014.723z"/><path d="m113.218 90.882c-1.333-.9296-1.659-2.7592-.726-4.0872s2.769-1.6526 4.102-.723c1.332.9296 1.658 2.7592.725 4.0872s-2.769 1.6526-4.101.723z"/><path d="m156.335 37.5267c-.933-.6493-1.155-1.9182-.504-2.8478.652-.9296 1.925-1.1509 2.858-.5017s1.155 1.9182.503 2.8478c-.651.9296-1.924 1.1509-2.857.5017z"/><path d="m172.96 66.7447c-.9-.6311-1.122-1.8599-.5-2.7677.633-.8967 1.866-1.1181 2.777-.4982.9.6311 1.122 1.8599.5 2.7677-.633.8967-1.866 1.1181-2.777.4982z"/><path d="m137.486 95.8693c-1.199-.8411-1.496-2.4789-.666-3.6889.844-1.1951 2.487-1.4902 3.701-.6639 1.2.841 1.496 2.4789.667 3.6888-.844 1.1952-2.488 1.4903-3.702.664z"/><path d="m164.676 100.893c-.815-.572-1.016-1.6845-.453-2.5064.573-.812 1.69-1.0125 2.515-.4511.815.5713 1.016 1.684.452 2.5055-.573.812-1.689 1.013-2.514.452z"/><path d="m183.859 53.5709c-.772-.5414-.963-1.5956-.429-2.3744.543-.7693 1.601-.9592 2.383-.4274.772.5414.962 1.5956.428 2.3744-.543.7693-1.601.9592-2.382.4274z"/><path d="m183.52 75.7578c-1.2-.841-1.496-2.4789-.667-3.6888.844-1.1952 2.488-1.4903 3.702-.664 1.199.8411 1.495 2.4789.666 3.6888-.844 1.1952-2.487 1.4903-3.701.664z"/><path d="m170.593 26.711c-1.199-.8411-1.495-2.4789-.666-3.6889.844-1.1952 2.488-1.4903 3.702-.664 1.199.8411 1.495 2.4789.666 3.6889-.844 1.1951-2.488 1.4903-3.702.664z"/><path d="m120.828 67.8637c-.932-.6492-1.155-1.9182-.503-2.8478.651-.9296 1.925-1.1509 2.858-.5017.932.6493 1.155 1.9182.503 2.8478-.651.9296-1.925 1.1509-2.858.5017z"/><path d="m191.293 40.3302c-.933-.6492-1.155-1.9181-.503-2.8477.651-.9296 1.925-1.151 2.857-.5017.933.6492 1.155 1.9182.504 2.8478-.652.9296-1.925 1.1509-2.858.5016z"/><path d="m159.607 62.7436c-.933-.6493-1.155-1.9182-.504-2.8478.652-.9296 1.925-1.1509 2.858-.5017s1.155 1.9182.503 2.8478c-.651.9296-1.924 1.1509-2.857.5017z"/><path d="m160.673 49.331c-.933-.6493-1.155-1.9182-.503-2.8478.651-.9296 1.925-1.1509 2.857-.5017.933.6493 1.155 1.9182.504 2.8478-.652.9296-1.925 1.1509-2.858.5017z"/></g><path d="m9.29097 68.5721c-.71064-.4946-.87985-1.4614-.38352-2.1696.49632-.7081 1.46645-.8768 2.17705-.3821.7107.4946.8799 1.4613.3835 2.1695-.4963.7082-1.4664.8768-2.17703.3822z" fill="#74b3db"/><path d="m18.8329 125.51c-.6898-.481-.854-1.419-.3723-2.106.4818-.688 1.4234-.851 2.1131-.371.6898.48.854 1.418.3723 2.106-.4817.687-1.4233.851-2.1131.371z" fill="#74b3db"/></svg>