<svg fill="none" height="160" viewBox="0 0 160 160" width="160" xmlns="http://www.w3.org/2000/svg"><circle cx="79.805" cy="80.1241" fill="#f2f9fa" r="79.2171"/><path d="m79.007 41.4006c6.7528 0 12.227-5.4811 12.227-12.2423s-5.4742-12.2422-12.227-12.2422-12.227 5.481-12.227 12.2422 5.4742 12.2423 12.227 12.2423z" stroke="#0a4d69" stroke-miterlimit="10"/><path d="m49.4048 42.0449h55.7292l19.435-6.3144-.773 33.2474-18.276-7.8608h-55.343z" stroke="#0a4d69" stroke-miterlimit="10"/><path d="m66.3941 96.4264 26.3845.3866 10.2964 37.5h-46.9773z" stroke="#0a4d69" stroke-miterlimit="10"/><path d="m64.7209 104.932-18.0187-6.4438-17.3752-11.9845-13.3853 16.6233 21.2363 13.789 21.4938 7.474" stroke="#0a4d69" stroke-miterlimit="10"/><path d="m94.8379 104.932 18.0191-6.4438 17.375-11.9845 13.385 16.6233-21.236 13.789-21.494 7.474" stroke="#0a4d69" stroke-miterlimit="10"/><path d="m55.7116 61.1171-20.8503 28.866" stroke="#0a4d69" stroke-miterlimit="10"/><path d="m79.1357 61.3748v35.0516" stroke="#0a4d69" stroke-miterlimit="10"/><path d="m103.59 60.9882 20.85 28.866" stroke="#0a4d69" stroke-miterlimit="10"/><path d="m105.649 42.1738v18.9433" stroke="#0a4d69" stroke-miterlimit="10"/><g fill="#0a4d69"><path d="m95.3525 107.122c1.2084 0 2.188-.981 2.188-2.19 0-1.21-.9796-2.191-2.188-2.191s-2.1879.981-2.1879 2.191c0 1.209.9795 2.19 2.1879 2.19z"/><path d="m15.607 104.738c.9952 0 1.8019-.808 1.8019-1.804s-.8067-1.804-1.8019-1.804c-.9951 0-1.8018.808-1.8018 1.804s.8067 1.804 1.8018 1.804z"/><path d="m56.5737 135.962c1.1373 0 2.0593-.923 2.0593-2.061 0-1.139-.922-2.062-2.0593-2.062s-2.0593.923-2.0593 2.062c0 1.138.922 2.061 2.0593 2.061z"/><path d="m49.1989 62.3542c1.1373 0 2.0593-.9231 2.0593-2.0619 0-1.1387-.922-2.0618-2.0593-2.0618s-2.0593.9231-2.0593 2.0618c0 1.1388.922 2.0619 2.0593 2.0619z"/><path d="m79.0071 98.746c1.2084 0 2.188-.9809 2.188-2.1908s-.9796-2.1907-2.188-2.1907-2.188.9808-2.188 2.1907.9796 2.1908 2.188 2.1908z"/><path d="m131.557 88.0887c1.067 0 1.931-.8654 1.931-1.9329 0-1.0676-.864-1.933-1.931-1.933-1.066 0-1.93.8654-1.93 1.933 0 1.0675.864 1.9329 1.93 1.9329z"/><path d="m104.928 63.7588c1.173 0 2.124-.9519 2.124-2.1262 0-1.1744-.951-2.1263-2.124-2.1263s-2.123.9519-2.123 2.1263c0 1.1743.95 2.1262 2.123 2.1262z"/><path d="m143.874 104.932c1.067 0 1.931-.866 1.931-1.933 0-1.068-.864-1.933-1.931-1.933-1.066 0-1.93.865-1.93 1.933 0 1.067.864 1.933 1.93 1.933z"/><path d="m123.668 70.782c1.137 0 2.059-.9231 2.059-2.0618s-.922-2.0619-2.059-2.0619c-1.138 0-2.06.9232-2.06 2.0619s.922 2.0618 2.06 2.0618z"/><path d="m64.0772 106.607c.9241 0 1.6732-.75 1.6732-1.675 0-.926-.7491-1.676-1.6732-1.676-.924 0-1.6731.75-1.6731 1.676 0 .925.7491 1.675 1.6731 1.675z"/><path d="m79.0842 63.6429c1.1373 0 2.0593-.9232 2.0593-2.0619s-.922-2.0618-2.0593-2.0618-2.0593.9231-2.0593 2.0618.922 2.0619 2.0593 2.0619z"/><path d="m29.121 87.9857c1.1374 0 2.0593-.9232 2.0593-2.0619s-.9219-2.0619-2.0593-2.0619c-1.1373 0-2.0592.9232-2.0592 2.0619s.9219 2.0619 2.0592 2.0619z"/></g><path d="m49.6623 35.215 1.0296 4.3815 4.376-1.1598-3.3463 3.0928 3.0889 3.2216-4.2473-1.4175-1.1583 4.3814-1.0297-4.3814-4.3759 1.1598 3.3463-3.0928-3.2176-3.2217 4.3759 1.2887z" fill="#ffa135"/><path d="m124.569 29.2872 1.802 3.9948 4.118-1.8041-2.703 3.4794 3.604 2.7062-4.376-.6444-.386 4.5104-1.802-3.9949-4.118 1.8041 2.702-3.6082-3.732-2.5773 4.505.5154z" fill="#ffa135"/><path d="m103.332 128.127 1.03 4.382 4.376-1.16-3.218 3.093 3.089 3.221-4.247-1.417-1.287 4.381-1.03-4.381-4.2469 1.16 3.2179-3.093-3.0892-3.222 4.2472 1.289z" fill="#ffa135"/><path d="m48.2982 98.2047c0 .9021-.7723 1.5464-1.5445 1.5464-.9009 0-1.5445-.7732-1.5445-1.5464 0-.902.7723-1.5464 1.5445-1.5464.9009 0 1.5445.6444 1.5445 1.5464z" fill="#0a4d69"/><path d="m36.1353 118.102c-.592-.451-.888-1.341-.296-2.075.4505-.593 1.3385-.889 2.0722-.297.592.452.888 1.341.296 2.075-.5921.593-1.4801.889-2.0722.297z" fill="#0a4d69"/><path d="m107.142 81.9547-.386 3.3505 3.218.2578-2.961 1.4175 1.416 2.9639-2.831-2.0618-1.931 2.7061.515-3.2216-3.347-.2577 3.089-1.4176-1.415-2.9639 2.702 1.933z" fill="#598eaf"/><path d="m20.1117 28.2597-.3861 3.3505 3.2176.2577-2.9602 1.4175 1.4158 2.964-2.8315-2.0619-1.9306 2.7062.5148-3.2217-3.3463-.2577 3.0889-1.4175-1.4158-2.9639 2.7028 1.933z" fill="#598eaf"/><path d="m153.792 72.7656-.23 1.9961 1.917.1535-1.763.8445.843 1.7658-1.687-1.2283-1.15 1.6122.307-1.9193-1.994-.1536 1.84-.8445-.843-1.7658 1.61 1.1516z" fill="#598eaf"/><path d="m94.9552 154.197-.23 1.997 1.9169.153-1.7636.845.8435 1.765-1.6869-1.228-1.1502 1.612.3067-1.919-1.9936-.154 1.8403-.844-.8435-1.766 1.6102 1.152z" fill="#598eaf"/><path d="m121.621 126.091c-.373-.18-.553-.915-.18-1.288.373-.374.914-.554 1.287-.181.373.181.554.915.18 1.289-.18.374-.913.374-1.287.18z" fill="#598eaf"/><path d="m106.936 42.6893c0 .902-.772 1.6752-1.673 1.6752s-1.673-.7732-1.673-1.6752c0-.9021.772-1.6753 1.673-1.6753s1.673.7732 1.673 1.6753z" fill="#0a4d69"/><path d="m59.7529 141.053c-.5148-.387-.6435-1.031-.2574-1.547.3861-.515 1.0296-.644 1.5445-.257.5148.386.6435 1.03.2574 1.546-.5148.515-1.1584.644-1.5445.258z" fill="#598eaf"/><path d="m37.8086 132.612.9009 1.392 1.39-.696-.991 1.392 1.6861.695h-1.6861v1.779l-.9009-1.585-1.39.992.695-1.392-1.39-.992h1.686z" fill="#598eaf"/><path d="m124.709 122.462c-.257-.129-.386-.644-.129-.902.129-.258.644-.387.901-.129.258.129.387.644.129.902-.257.258-.643.258-.901.129z" fill="#598eaf"/><path d="m68.3246 140.022c-.2574-.129-.2574-.516-.1287-.773.1287-.258.5148-.258.7722-.129s.2574.515.1287.773-.5148.386-.7722.129z" fill="#598eaf"/><path d="m57.7708 125.241c-.592-.451-.888-1.34-.296-2.075.4505-.593 1.3385-.889 2.0722-.296.592.451.888 1.34.296 2.074-.5921.593-1.4801.89-2.0722.297z" fill="#0a4d69"/><path d="m121.84 118.14c-.592-.451-.888-1.34-.296-2.074.451-.593 1.339-.89 2.072-.297.592.451.888 1.34.296 2.075-.592.593-1.48.889-2.072.296z" fill="#0a4d69"/><path d="m99.497 125.705c-.6178-.464-.9396-1.405-.3089-2.178.4633-.619 1.4029-.941 2.1749-.309.618.464.94 1.404.309 2.177-.618.619-1.557.941-2.175.31z" fill="#0a4d69"/><path d="m112.136 99.8284c-.618-.4639-.94-1.4046-.309-2.1778.463-.6185 1.403-.9407 2.175-.3093.618.4639.94 1.4047.309 2.1779-.618.6188-1.557.9408-2.175.3092z" fill="#0a4d69"/><path d="m33.8959 91.3362c-.6178-.4639-.9395-1.4047-.3089-2.1779.4633-.6185 1.4029-.9407 2.1751-.3092.6178.4639.9396 1.4046.3089 2.1778-.6178.6186-1.5573.9407-2.1751.3093z" fill="#0a4d69"/><path d="m16.7345 78.9328c-.6178-.4639-.9395-1.4046-.3089-2.1778.4634-.6186 1.4029-.9407 2.1751-.3093.6178.4639.9396 1.4046.3089 2.1778-.6177.6186-1.5573.9408-2.1751.3093z" fill="#598eaf"/><path d="m61.8585 12.2576c-.6177-.4639-.9395-1.4046-.3088-2.1778.4633-.6186 1.4028-.94076 2.1751-.30932.6178.46392.9395 1.40462.3089 2.17782-.6178.6186-1.5574.9407-2.1752.3093z" fill="#598eaf"/><path d="m123.732 91.5552c-.618-.4639-.939-1.4046-.309-2.1778.464-.6186 1.403-.9407 2.175-.3093.618.4639.94 1.4047.309 2.1779-.618.6185-1.557.9407-2.175.3092z" fill="#0a4d69"/><path d="m55.7631 62.9856c.9951 0 1.8018-.8077 1.8018-1.8041s-.8067-1.8041-1.8018-1.8041c-.9952 0-1.8019.8077-1.8019 1.8041s.8067 1.8041 1.8019 1.8041z" fill="#0a4d69"/><path d="m79.2646 43.7975c1.1373 0 2.0593-.9231 2.0593-2.0619 0-1.1387-.922-2.0618-2.0593-2.0618s-2.0593.9231-2.0593 2.0618c0 1.1388.922 2.0619 2.0593 2.0619z" fill="#0a4d69"/><path d="m55.2353 95.3826c-.5148-.3866-.6435-1.031-.2574-1.5464.3861-.5155 1.0297-.6444 1.5445-.2578s.6435 1.031.2574 1.5464c-.5148.5155-1.1584.6444-1.5445.2578z" fill="#598eaf"/><path d="m86.8324 67.9212c-.2574-.1288-.2574-.5154-.1287-.7732.1287-.2577.5148-.2577.7722-.1288.2574.1288.2574.5154.1287.7731-.1287.2578-.5148.3867-.7722.1289z" fill="#598eaf"/><path d="m133.398 76.5939c.782 0 1.416-.6346 1.416-1.4175s-.634-1.4175-1.416-1.4175-1.416.6346-1.416 1.4175.634 1.4175 1.416 1.4175z" fill="#598eaf"/><path d="m142.62 56.9404c.551 0 .997-.4468.997-.998s-.446-.998-.997-.998c-.55 0-.996.4468-.996.998s.446.998.996.998z" fill="#0a4d69"/><g fill="#598eaf"><path d="m142.62 56.9404c.551 0 .997-.4468.997-.998s-.446-.998-.997-.998c-.55 0-.996.4468-.996.998s.446.998.996.998z"/><path d="m82.6494 57.7923c-.4119-.2061-.6049-1.018-.2059-1.4175s1.0167-.6057 1.4157-.2062c.4119.2062.6049 1.0181.206 1.4176-.206.4123-1.0168.4123-1.4158.2061z"/><path d="m59.8874 18.7554c-.4118-.2062-.6049-1.018-.2059-1.4175s1.0168-.6057 1.4158-.2062c.4118.2062.6049 1.0181.2059 1.4175-.2059.4124-1.0168.4124-1.4158.2062z"/><path d="m111.909 145.848c-.411-.206-.605-1.018-.206-1.418.399-.399 1.017-.605 1.416-.206.412.206.605 1.018.206 1.418-.206.412-1.017.412-1.416.206z"/><path d="m47.8989 153.91c-.4118-.207-.6049-1.018-.2059-1.418.399-.399 1.0168-.606 1.4157-.206.4119.206.605 1.018.206 1.417-.206.413-1.0168.413-1.4158.207z"/><path d="m35.9414 24.9587c-.4119-.2061-.6049-1.018-.2059-1.4175s1.0167-.6056 1.4157-.2062c.4119.2062.6049 1.0181.2059 1.4176-.2059.4123-1.0167.4123-1.4157.2061z"/><path d="m39.7531 62.901c-.2574-.1289-.3861-.6443-.1287-.9021.2575-.2577.6436-.3866.901-.1288.2574.1288.3861.6443.1287.902-.1287.2578-.6435.2578-.901.1289z"/><path d="m87.4759 90.9238c-.3346-.1675-.5019-.8376-.1673-1.1598.3347-.3222.8366-.5026 1.1584-.1675.3346.1675.5019.8376.1673 1.1598-.1673.335-.8366.335-1.1584.1675z"/><path d="m35.2849 29.8612c-.1544-.0773-.2316-.3866-.0772-.5413.1545-.1546.3861-.2319.5406-.0773.1544.0773.2317.3866.0772.5413-.0772.1546-.3861.1546-.5406.0773z"/><path d="m24.7068 54.9444.8881 1.3918 1.39-.6959-.9911 1.3917 1.6861.6959h-1.6861v1.7913l-.888-1.598-1.39.9923.695-1.3918-1.39-.9922h1.686z"/><path d="m82.8296 20.5194.9009 1.3918 1.39-.6959-.991 1.3918 1.6861.6958h-1.6861v1.7913l-.9009-1.5851-1.39.9923.695-1.3918-1.39-.9922h1.686z"/><path d="m58.2341 73.1274.8881 1.3918 1.39-.6959-.991 1.3917 1.686.6959h-1.686v1.7784l-.8881-1.5851-1.39.9923.695-1.3918-1.39-.9923h1.686z"/><path d="m24.6035 122.341c-.3732-.18-.5534-.915-.1802-1.288.3733-.374.9138-.554 1.2871-.181.3732.181.5534.915.1802 1.289-.1802.374-.9138.374-1.2871.18z"/></g></svg>