<svg fill="none" height="323" viewBox="0 0 376 323" width="376" xmlns="http://www.w3.org/2000/svg"><g fill="#2b6f9a"><path d="m224.454 94.7714 1.515 5.9936 5.958-1.716-4.414 4.36 4.416 4.309-5.952-1.653-1.542 6.025-1.515-5.994-5.958 1.716 4.413-4.36-4.415-4.3086 5.952 1.6526z"/><path d="m361.055 71.7123 1.515 5.9937 5.982-1.697-4.456 4.3653 4.434 4.2843-5.971-1.6283-1.542 6.0243-1.515-5.9936-5.958 1.716 4.413-4.3603-4.415-4.3083 5.971 1.6283z"/><path d="m259.774 230.919c-.918 1.15-2.59 1.345-3.73.435s-1.321-2.583-.403-3.733 2.59-1.345 3.73-.435 1.321 2.583.403 3.733z"/><path d="m316.686 279.162c-.918 1.15-2.59 1.345-3.73.435-1.14-.909-1.321-2.583-.403-3.733s2.589-1.345 3.73-.435c1.14.91 1.32 2.583.403 3.733z"/><path d="m413.071 321.694c-.917 1.15-2.589 1.345-3.73.435-1.14-.91-1.32-2.583-.403-3.733.918-1.15 2.59-1.345 3.73-.435s1.321 2.583.403 3.733z"/><path d="m249.833 198.554c1.141.911 2.811.716 3.73-.435.918-1.151.738-2.822-.403-3.733-1.142-.911-2.812-.716-3.73.435-.919 1.151-.738 2.822.403 3.733z"/><path d="m388.731 120.78c-.917 1.15-2.589 1.345-3.73.435-1.14-.91-1.32-2.583-.403-3.733.918-1.15 2.59-1.345 3.73-.435s1.321 2.583.403 3.733z"/><path d="m260.613 94.1388c1.141.9108 2.811.716 3.729-.4351.919-1.151.739-2.8225-.403-3.7334-1.141-.9108-2.811-.716-3.729.4351-.919 1.1511-.739 2.8226.403 3.7334z"/><path d="m245.818 111.312c-.917 1.15-2.589 1.345-3.729.435s-1.321-2.583-.403-3.733c.917-1.15 2.589-1.345 3.729-.435 1.141.91 1.321 2.583.403 3.733z"/><path d="m268.862 177.78c-.552-1.891.535-3.886 2.446-4.479 1.893-.568 3.875.504 4.45 2.414.552 1.891-.535 3.887-2.447 4.479-1.892.568-3.874-.504-4.449-2.414z"/><path d="m303.452 147.543c-.552-1.891.535-3.886 2.447-4.478 1.911-.593 3.874.504 4.45 2.414.575 1.91-.536 3.886-2.447 4.478-1.892.569-3.875-.504-4.45-2.414z"/><path d="m386.239 80.0075c-.551-1.8911.536-3.8864 2.447-4.4787 1.892-.5683 3.875.5041 4.45 2.4141.551 1.8911-.536 3.8864-2.447 4.4787-1.892.5683-3.874-.5041-4.45-2.4141z"/><path d="m377.608 300.019c-.551-1.891.536-3.887 2.447-4.479 1.892-.568 3.874.504 4.45 2.414.551 1.891-.536 3.887-2.447 4.479-1.892.568-3.875-.504-4.45-2.414z"/><path d="m314.332 277.873-56.911-48.243s-.148-.157-.138-.267l-6.211-32.8s.011-.305.13-.406l20.792-19.719 34.586-30.28s.1-.077.143-.082l79.49-27.109 2.961-39.5188-25.594 1.3775-101.105 11.6623-18.616 17.967c-.115.143-.31.144-.467.097l-19.28-6.485c-.224-.061-.356-.284-.299-.552l6.9-29.9833s.124-.2535.268-.3354c.124-.0579.276-.054.414.0169l30.978 18.3307 101.148-11.6673 26.133-1.4185s.266.0558.361.1316.133.2235.147.3523l-3.026 40.33s-.135.363-.325.407l-79.7 27.177-34.509 30.184-20.596 19.523 6.145 32.395 56.722 48.092 66.345 21.418s.071.057.095.076l29.95 21.08-.526.756-29.903-21.041-66.368-21.438s-.095-.076-.119-.095zm-82.86-203.5391-6.658 28.9991 18.629 6.279 18.085-17.4482-30.051-17.787z"/><path d="m236.461 67.0595-2.717 5.5965 5.635 2.5365-6.178.4816.582 6.1894-3.461-5.1149-5.035 3.629 2.693-5.6154-5.611-2.5176 6.154-.5005-.577-6.1465 3.48 5.0909z"/><path d="m120.432 54.9213.285 6.1626 6.197-.4187-5.244 3.3196 3.477 5.1102-5.525-2.8129-2.72 5.529-.285-6.1627-6.192.4488 5.239-3.3496-3.477-5.1102 5.529 2.8429z"/><path d="m42.7432 79.2328c.888-1.7583 3.0443-2.4744 4.8453-1.6025 1.7707.8764 2.4873 3.0135 1.6038 4.8019-.888 1.7583-3.0444 2.4743-4.8454 1.6023-1.7706-.8764-2.4873-3.0133-1.6037-4.8017z"/><path d="m106.332 144.531c.888-1.758 3.044-2.474 4.845-1.602 1.771.876 2.487 3.013 1.604 4.802-.888 1.758-3.045 2.474-4.846 1.602-1.77-.876-2.487-3.013-1.603-4.802z"/><path d="m157.499 75.0626c.888-1.7583 3.044-2.4744 4.845-1.6025 1.771.8764 2.487 3.0134 1.604 4.8018-.888 1.7583-3.044 2.4744-4.845 1.6024-1.801-.8719-2.488-3.0133-1.604-4.8017z"/><path d="m3.81616 60.3477c-1.45562.2138-2.81053-.785-3.022507-2.2283-.21198-1.4432.798467-2.7895 2.254077-3.0033 1.45562-.2138 2.81053.7851 3.02251 2.2283s-.79847 2.7895-2.25408 3.0033z"/><path d="m23.6842 48.1834c-1.4556.2138-2.8105-.7851-3.0225-2.2283s.7985-2.7895 2.2541-3.0033 2.8105.785 3.0225 2.2283c.212 1.4432-.7985 2.7895-2.2541 3.0033z"/><path d="m73.5034 94.1882c.2122 1.4447 1.5654 2.4423 3.0225 2.2283s2.4663-1.5587 2.2541-3.0033c-.2122-1.4447-1.5654-2.4423-3.0225-2.2283s-2.4663 1.5586-2.2541 3.0033z"/><path d="m105.253 5.36423c-1.306-.66815-1.848-2.24729-1.202-3.54016.677-1.297324 2.271-1.8384285 3.573-1.200339 1.306.668159 1.848 2.247199 1.201 3.540069-.677 1.29732-2.27 1.83852-3.572 1.20043z"/><path d="m147.079 96.7119c-1.307-.6682-1.849-2.2472-1.202-3.5401.677-1.2973 2.27-1.8385 3.572-1.2004 1.307.6681 1.848 2.2472 1.202 3.54-.677 1.2974-2.271 1.8386-3.572 1.2005z"/><path d="m174.636 76.7845c-1.306-.6682-1.848-2.2473-1.202-3.5402.647-1.2928 2.271-1.8385 3.573-1.2004s1.848 2.2473 1.201 3.5402c-.646 1.2928-2.27 1.8385-3.572 1.2004z"/><path d="m47.7393 17.068c-1.4556.2138-2.8106-.7851-3.0226-2.2283-.2119-1.4432.7986-2.7895 2.2542-3.0033s2.8105.785 3.0225 2.2282c.212 1.4433-.7985 2.7896-2.2541 3.0034z"/><path d="m73.0411 29.8765c-1.4556.2138-2.8105-.7851-3.0225-2.2283-.2119-1.4432.7985-2.7896 2.2541-3.0034s2.8106.7851 3.0226 2.2283c.2119 1.4432-.7986 2.7896-2.2542 3.0034z"/><path d="m46.2862 113.267-2.2467 4.108 4.1837 2.119-4.6933.106.2207 4.667-2.4725-3.968-3.9326 2.544 2.2467-4.108-4.1881-2.15 4.6933-.105-.2207-4.667 2.4421 3.972z"/><path d="m41.3587 118.107s-.0132-.09-.0176-.12l4.167-37.2248s.1162-.2628.2287-.3407c.1125-.078.2685-.0702.3987-.0278l30.1608 12.9855 52.6437 26.8528-.409.798-52.614-26.8579-29.5663-12.7351-4.0568 36.287 67.4301 27.968-.34.849-67.7555-28.074s-.2477-.209-.2698-.36z"/><path d="m118.214 63.448s0-.215.077-.3185c.1-.1682.333-.264.529-.2005l41.941 13.2518 15.011-2.2048.132.902-15.132 2.2226s-.121.0179-.221-.0289l-40.349-12.7484 28.369 29.6815-.684.6226-29.611-30.9734s-.118-.1671-.131-.2573z"/><path d="m3.18802 57.3378 20.14108-12.2036c.2293-.1259.4852-.0713.6418.1514l22.4381 35.2829-.7659.481-22.1986-34.9187-19.74299 11.961-.48754-.7885z"/><path d="m9.49625 32.7904-.00884-.0602c-.01767-.1203.05573-.2539.13787-.3274l24.54762-22.0656s.2901-.1347.4505-.0969l12.8909 3.8197 25.1024 12.715 33.5743-24.0979.543.74951-33.7985 24.25379s-.3248.1091-.4896.0411l-25.2716-12.813-12.5656-3.7138-23.9986 21.5856 13.3699 12.5647-.6438.6782-13.73067-12.911s-.11747-.1671-.13071-.2573z"/><path d="m72.3674 27.6106.5788-.6993 46.0128 36.1204-.579.6993z"/><path d="m17.558 31.5758-5.7709 2.2605 2.3516 5.6748-4.83855-3.8351-3.77452 4.8853.96279-6.1003-6.156389-.7851 5.775379-2.2304-2.35591-5.7049 4.84293 3.8652 3.77007-4.9153-.9628 6.1001z"/><path d="m42.7442 9.84607-5.8013 2.26493 2.3819 5.6704-4.8385-3.8351-3.8049 4.8897.9628-6.1002-6.1563-.7852 5.8056-2.23485-2.3862-5.70045 4.8429 3.86524 3.7701-4.9154-.9324 6.09577z"/><path d="m138.826 120.254-5.775 2.231 2.351 5.675-4.838-3.835-3.775 4.885.963-6.1-6.156-.785 5.775-2.231-2.356-5.705 4.843 3.865 3.774-4.885-.967 6.07z"/></g></svg>