<svg fill="none" height="195" viewBox="0 0 185 195" width="185" xmlns="http://www.w3.org/2000/svg" xmlns:xlink="http://www.w3.org/1999/xlink"><clipPath id="a"><path d="m0 0h178.666v168.218h-178.666z" transform="matrix(.09050222 .99589625 -.99589625 .09050222 168.034 .933716)"/></clipPath><g clip-path="url(#a)"><path d="m81.1825 135.211c-1.0872-.637-1.432-2.004-.8686-3.086.6363-1.088 2.0019-1.433 3.0824-.869 1.0873.638 1.4321 2.005.8687 3.086-.6363 1.089-2.0019 1.434-3.0825.869z" fill="#0b2c41"/><path d="m119.187 106.372c-1.836-1.079-2.421-3.385-1.468-5.22 1.078-1.8376 3.381-2.4231 5.206-1.4681 1.825.9551 2.421 3.3851 1.468 5.2201-1.077 1.838-3.381 2.423-5.206 1.468z" fill="#0b2c41"/><path d="m150.568 37.2116c-1.096-.598-56.2466-23.0346-56.2466-23.0346l-53.9551 70.9299 41.1936 48.3871 49.3571 19.843 33.051-48.879z" stroke="#0b2c41" stroke-miterlimit="10"/><path d="m94.3213 14.177 27.6117 89.931-40.3732 29.386" stroke="#0b2c41" stroke-miterlimit="10"/><path d="m15.8882 83.1617c1.0957.598 24.4781 1.9453 24.4781 1.9453" stroke="#0b2c41" stroke-miterlimit="10"/><path d="m131.103 174.514-.186-21.177 19.651-116.1254-110.2016 47.8954 81.5666 19.001 42.035.35" stroke="#0b2c41" stroke-miterlimit="10"/><path d="m21.6871 80.7222-4.7032 3.0375 3.0809 4.6109-4.8971-2.5413-2.4844 5.054-.2997-5.6239-5.55753.4423 4.70323-3.0374-3.10348-4.6873 4.99518 2.5872 2.4166-5.0243.2616 5.549z" fill="#ffa135"/><path d="m101.398 12.7031-4.7034 3.0375 3.0731 4.6116-4.897-2.5413-2.4845 5.054-.2919-5.6247-5.5653.4431 4.7032-3.0374-3.1034-4.68726 5.0029 2.58646 2.4089-5.02355.2693 5.54825z" fill="#ffa135"/><path d="m139.141 175.955-5.24 1.957 2.027 5.161-4.25-3.524-3.498 4.409.912-5.554-5.533-.759 5.246-1.966-2.041-5.238 4.335 3.595 3.421-4.394-.912 5.475z" fill="#ffa135"/><g fill="#0b2c41"><path d="m105.849 58.5816c-1.084-.6383-1.435-2.0015-.868-3.0876.638-1.0847 1.999-1.4358 3.084-.8682 1.085.5677 1.435 2.0016.868 3.0877-.637 1.0847-1.999 1.4357-3.084.8681z"/><path d="m39.4164 87.3174c-1.0836-.6383-1.4346-2.0016-.8678-3.0877.6374-1.0847 1.999-1.4357 3.084-.8681s1.4346 2.0016.8678 3.0877c-.6374 1.0847-1.999 1.4357-3.084.8681z"/><path d="m139.353 106.695c-1.32.12-2.506-.87-2.626-2.191-.12-1.322.868-2.509 2.188-2.629s2.506.87 2.626 2.191c.12 1.322-.868 2.509-2.188 2.629z"/><path d="m131.382 155.182c-1.188.108-2.25-.778-2.358-1.967-.108-1.19.777-2.253 1.965-2.361s2.25.779 2.358 1.968-.777 2.252-1.965 2.36z"/><path d="m164.156 106.526c-1.033.094-1.956-.677-2.05-1.71-.094-1.034.675-1.959 1.708-2.052 1.032-.094 1.956.676 2.05 1.71s-.676 1.958-1.708 2.052z"/><path d="m150.476 39.9946c-1.126.1023-2.142-.7459-2.245-1.8731-.102-1.1272.745-2.1447 1.871-2.247s2.142.7458 2.245 1.873c.102 1.1272-.745 2.1448-1.871 2.2471z"/><path d="m73.1463 71.9054c-1.1577-.6786-1.5249-2.1345-.9249-3.2863.6775-1.1589 2.1317-1.5262 3.2823-.9253 1.1578.6786 1.5249 2.1344.925 3.2862-.6776 1.1589-2.1247 1.604-3.2824.9254z"/></g><g fill="#7ebdbf"><path d="m134.147 68.0177-1.542 2.4994 2.495 1.4427-2.901-.0577-.011 2.901-1.36-2.5648-2.495 1.4103 1.492-2.4478-2.499-1.4894 2.906.1121.011-2.901 1.36 2.557z"/><path d="m56.3496 47.4197-3.3452 1.0956 1.1911 3.2856-2.6219-2.3169-2.2707 2.6675.7184-3.4669-3.4463-.6196 3.3375-1.0949-1.1883-3.3407 2.6268 2.3713 2.2708-2.6675-.7227 3.4203z"/><path d="m148.134 29.7501c-1.09-.6371-1.428-1.9968-.862-3.0808.636-1.0903 1.994-1.4284 3.076-.8725 1.082.556 1.427 1.9968.862 3.0808-.636 1.0903-1.994 1.4285-3.076.8725z"/><path d="m112.774 46.4854c-.512-.2983-.673-.9499-.406-1.4601.298-.513.948-.6741 1.458-.4069s.674.9499.407 1.4601c-.298.5131-.949.6741-1.459.4069z"/><path d="m27.0013 94.6611c-.5125-.2983-.6735-.9499-.4067-1.4601.2978-.5131.9487-.6741 1.4583-.4069.5097.2672.6735.9499.4068 1.4601-.2979.513-.9487.6741-1.4584.4069z"/><path d="m79.9927 143.817c-.5125-.298-.6735-.949-.4067-1.46.2979-.513.9487-.674 1.4584-.407.5097.268.6735.95.4067 1.461-.2978.513-.9487.674-1.4584.406z"/><path d="m171.321 55.4535c-.513-.2983-.674-.9499-.407-1.4601.298-.513.949-.6741 1.458-.4069.51.2672.674.9499.407 1.4601-.298.513-.949.6741-1.458.4069z"/><path d="m76.6975 118.615c-.9787-.569-1.2861-1.814-.7766-2.788.5688-.98 1.8116-1.287 2.7849-.777s1.2862 1.814.7767 2.788c-.5688.98-1.8117 1.287-2.785.777z"/><path d="m76.4648 27.7252c-.8262-.4823-1.0854-1.5131-.6635-2.3348.4815-.827 1.5112-1.0863 2.332-.6638s1.0854 1.5131.6635 2.3348c-.4815.827-1.5112 1.0863-2.332.6638z"/><path d="m169.916 113.402c-.512-.299-.673-.95-.406-1.461.297-.513.948-.674 1.458-.406.51.267.673.949.407 1.46-.298.513-.949.674-1.459.407z"/><path d="m146.956 101.013c-.867-.505-1.14-1.607-.688-2.4701.503-.8678 1.604-1.1402 2.467-.6882.862.452 1.139 1.6069.688 2.4703-.504.867-1.605 1.14-2.467.688z"/><path d="m124.251 143.63c-.867-.505-1.139-1.607-.688-2.47.504-.868 1.605-1.141 2.467-.689.863.452 1.14 1.607.688 2.47-.503.868-1.604 1.141-2.467.689z"/><path d="m125.961 136.637c-.429-.249-.564-.794-.34-1.221.249-.429.793-.563 1.219-.34.426.224.563.794.34 1.221-.249.429-.793.564-1.219.34z"/></g></g></svg>