<svg fill="none" height="180" viewBox="0 0 167 180" width="167" xmlns="http://www.w3.org/2000/svg"><path d="m46.545 115.884c0 1.17-.9581 2.128-2.1272 2.128s-2.1273-.958-2.1273-2.128c0-1.169.9582-2.128 2.1273-2.128s2.1272.959 2.1272 2.128z" fill="#0b2c41"/><path d="m46.3778 18.2473c-.879 1.231-2.5491 1.4948-3.7798.7035-1.2306-.8793-1.4943-2.55-.7032-3.781.879-1.231 2.5492-1.4948 3.7798-.7034 1.2306.8793 1.4943 2.5499.7032 3.7809z" fill="#0b2c41"/><path d="m46.9669 86.647c-.879 1.231-2.5491 1.4948-3.7798.7034-1.2306-.8793-1.4943-2.5499-.7032-3.7809s2.5492-1.4948 3.7798-.7035c1.2306.8793 1.4943 2.55.7032 3.781z" fill="#0b2c41"/><path d="m114.766 149.279c-.826 1.152-2.391 1.407-3.551.66-1.152-.827-1.407-2.392-.66-3.553.747-1.16 2.391-1.407 3.552-.659 1.151.826 1.406 2.391.659 3.552z" fill="#0b2c41"/><path d="m128.874 98.4385c0 1.231-1.011 2.2425-2.242 2.2425-1.23 0-2.241-1.0115-2.241-2.2425s1.011-2.2422 2.241-2.2422c1.231 0 2.242 1.0112 2.242 2.2422z" fill="#0b2c41"/><path d="m46.2198 146.589c0 1.169-.9581 2.128-2.1272 2.128s-2.1273-.959-2.1273-2.128c0-1.17.9582-2.128 2.1273-2.128s2.1272.958 2.1272 2.128z" fill="#0b2c41"/><path d="m114.159 116.165c0 1.275-1.055 2.33-2.329 2.33-1.275 0-2.33-1.055-2.33-2.33s1.055-2.33 2.33-2.33c1.274 0 2.329 1.055 2.329 2.33z" fill="#0b2c41"/><path d="m58.4643 101.068 2.6459 1.987 1.8723-2.647-.3692 3.254 3.2524.299-3.0063 1.266 1.3273 2.954-2.5931-1.925-1.925 2.646.4219-3.253-3.2524-.299 3.0063-1.266z" fill="#7ebdbf"/><path d="m113.913 51.6074c-.686.9672-1.995 1.1694-2.962.5539-.967-.6858-1.169-1.996-.554-2.9632s1.995-1.1695 2.962-.554c.967.6859 1.169 1.996.554 2.9633z" fill="#0b2c41"/><path d="m128.54 130.296c-.624.87-1.811 1.064-2.681.501-.87-.624-1.064-1.811-.501-2.682.563-.87 1.811-1.064 2.681-.501.87.624 1.064 1.811.501 2.682z" fill="#0b2c41"/><path d="m30.3094 99.1247c-.5978.8353-1.7405 1.0203-2.5755.4836-.8351-.5979-1.0197-1.741-.4835-2.5764.5362-.8353 1.7405-1.0199 2.5755-.4836.8351.598 1.0197 1.741.4835 2.5764z" fill="#0b2c41"/><path d="m67.0891 143.003c-.478.672-1.3892.822-2.0614.388-.6722-.478-.8216-1.389-.3884-2.062.4332-.672 1.3892-.822 2.0614-.388.6722.478.8216 1.389.3884 2.062z" fill="#7ebdbf"/><path d="m113.57 86.2164c-.545.765-1.573.9233-2.338.4309-.765-.5452-.923-1.574-.431-2.339.493-.765 1.574-.9232 2.339-.4308.764.5451.923 1.5739.43 2.3389z" fill="#0b2c41"/><path d="m95.7524 37.8115c-.4131.5804-1.1954.7035-1.7668.3254-.5802-.4133-.7032-1.1959-.3252-1.7674.3779-.5715 1.1954-.7034 1.7668-.3253.5802.4132.7032 1.1958.3252 1.7673z" fill="#7ebdbf"/><path d="m51.603 12.1426c-.4131.5803-1.1954.7034-1.7668.3253-.5802-.4132-.7032-1.1958-.3252-1.7673.3779-.5716 1.1954-.70348 1.7668-.3254.5801.4133.7032 1.1959.3252 1.7674z" fill="#7ebdbf"/><path d="m128.707 34.5232c-.633.888-1.837 1.0727-2.725.5099-.888-.633-1.072-1.8377-.51-2.7258.563-.888 1.837-1.0727 2.725-.51.888.6331 1.073 1.8378.51 2.7259z" fill="#0b2c41"/><path d="m128.601 69.3602c-.773 1.0815-2.241 1.319-3.322.6155-1.081-.7738-1.319-2.2422-.616-3.3237.704-1.0815 2.242-1.3189 3.323-.6155 1.081.7738 1.319 2.2422.615 3.3237z" fill="#0b2c41"/><path d="m137.299 96.7008c-.458.6433-1.323.7794-1.966.3712-.644-.4578-.78-1.3237-.371-1.967.408-.6433 1.323-.7794 1.966-.3712.643.4578.779 1.3237.371 1.967z" fill="#7ebdbf"/><path d="m154.146 26.1695c-.598.8353-1.74 1.0199-2.575.4836-.836-.5979-1.02-1.741-.484-2.5764.536-.8353 1.741-1.0199 2.576-.4836.835.598 1.019 1.741.483 2.5764z" fill="#0b2c41"/><path d="m58.983 77.9337c-.2901.4045-.8263.4836-1.2306.2286-.4044-.2901-.4835-.8265-.2286-1.231.255-.4044.8263-.4836 1.2307-.2286.4043.2902.4834.8265.2285 1.231z" fill="#7ebdbf"/><path d="m118.088 56.1098c-.211.299-.624.3693-.923.1759-.298-.211-.36-.6243-.175-.9233.184-.2989.624-.3693.923-.1758.298.211.36.6243.175.9232z" fill="#7ebdbf"/><path d="m142.859 101.191c-.211.299-.624.369-.923.176-.299-.211-.36-.625-.176-.924.185-.298.624-.369.923-.175.299.211.361.624.176.923z" fill="#7ebdbf"/><g stroke="#0b2c41" stroke-miterlimit="10"><path d="m126.931 33.3269-14.873-17.5419h-68.0976l-14.873 17.5419"/><path d="m29.0874 32.6151 14.873 17.5419h68.0976l14.873-17.5419"/><path d="m158.303 9.15564-31.495 89.21306-14.864 17.5423h-68.1067l-14.8642-17.5423-27.93526-35.4092"/><path d="m29.0874 32.8787v96.6873l14.873 17.542h68.0976l14.873-17.542v-96.6873l25.527-7.9312"/><path d="m28.9734 67.5664 14.8642 17.5419h68.1064l14.864-17.5419"/><path d="m43.9608 147.108c-.8263-.713 67.9832-31.198 67.9832-31.198"/><path d="m113.553 145.217-22.0901 25.658"/><path d="m43.9607 84.8888v62.6762"/><path d="m111.926 49.9017v66.4393"/></g><path d="m44.1893 42.4979 1.8547 5.0472 4.9665-1.9257-3.4018 4.0711 4.2105 3.3853-5.3269-.8969-.756 5.311-1.8547-5.0472-5.0456 1.9345 3.4722-4.1591-4.2105-3.3061 5.2653.9056z" fill="#ffa135"/><path d="m91.1815 164.552 1.424 5.188 5.1071-1.495-3.7358 3.764 3.9116 3.737-5.2389-1.354-1.2043 5.231-1.424-5.196-5.1862 1.503 3.8149-3.842-3.9116-3.658 5.1598 1.354z" fill="#ffa135"/><path d="m157.688.53833 2.207 4.91525 4.825-2.26858-3.12 4.29095 4.448 3.08635-5.389-.5276-.378 5.3549-2.206-4.9065-4.896 2.2774 3.173-4.37888-4.421-3.01597 5.3.54516z" fill="#ffa135"/><path d="m31.1445 33.8463c-.5713.8001-1.6525.9672-2.4524.4572-.7999-.5715-.9669-1.6531-.4571-2.4532.5098-.8002 1.6526-.9672 2.4525-.4573.7999.5716.9669 1.6531.457 2.4533z" fill="#0b2c41"/><path d="m30.5554 68.5428c-.5713.8002-1.6525.9672-2.4524.4572-.7999-.5715-.9669-1.653-.4571-2.4532.5098-.8001 1.6525-.9672 2.4524-.4572.8.5715.967 1.653.4571 2.4532z" fill="#0b2c41"/><path d="m4.71251 65.6761c-.82628 1.1607-2.39973 1.4069-3.55125.6595-1.16030186-.8265-1.406427-2.4005-.65926-3.5523.74717-1.1519 2.39972-1.4069 3.55124-.6595 1.16031.8265 1.40643 2.4005.65927 3.5523z" fill="#0b2c41"/><path d="m30.2393 130.384c-.5977.835-1.7404 1.02-2.5755.483-.8351-.598-1.0197-1.741-.4835-2.576s1.7405-1.02 2.5756-.484c.835.598 1.0196 1.741.4834 2.577z" fill="#0b2c41"/><g fill="#7ebdbf"><path d="m101.431 20.6563 2.646 1.996 1.872-2.6555-.36 3.2534 3.252.299-3.015 1.2662 1.327 2.9544-2.593-1.9257-1.925 2.6467.422-3.2534-3.2523-.2989 3.0153-1.2662z"/><path d="m103.904 94.0215c-.874.2914-1.806-.1602-2.126-1.0051-.292-.8739.174-1.8062 1.004-2.1266.831-.3205 1.806.1602 2.127 1.005.291.874-.175 1.8063-1.005 2.1267z"/><path d="m98.7326 91.6946c-.3516.1231-.7208-.0704-.8527-.3957-.1231-.3517.0703-.721.3956-.8529.3252-.1319.7208.0703.8526.3957.1231.3517-.0703.721-.3955.8529z"/><path d="m108.217 124.36c-.351.123-.72-.07-.852-.395-.123-.352.07-.721.395-.853.326-.132.721.07.853.395.123.352-.07.721-.396.853z"/><path d="m127.89 138.077c-.352.124-.721-.07-.853-.395-.123-.352.07-.721.395-.853.326-.132.721.07.853.395.123.352-.07.722-.395.853z"/><path d="m93.8715 158.292c-.3516.123-.7208-.07-.8527-.396-.123-.351.0704-.721.3956-.852.3252-.132.7208.07.8526.395.1231.352-.0703.721-.3955.853z"/><path d="m150.305 18.1943c-.352.1231-.721-.0703-.853-.3956-.123-.3518.07-.7211.395-.8529.326-.1319.721.0703.853.3956.123.3518-.07.7211-.395.8529z"/><path d="m155.157 33.3271c-.51.1759-1.046-.0967-1.24-.5803-.175-.51.097-1.0464.581-1.2398.483-.1934 1.046.0967 1.239.5803.176.51-.097 1.0464-.58 1.2398z"/><path d="m25.2243 71.5127c-.5885.206-1.2064-.1177-1.4271-.6623-.206-.5887.1177-1.2068.6621-1.4275.5443-.2208 1.2064.1177 1.4271.6622.2059.5887-.1177 1.2068-.6621 1.4276z"/><path d="m24.001 98.8107c-.409.139-.8412-.0772-.9956-.4632-.1389-.4092.0772-.8415.4631-.9959s.8412.0772.9956.4632c.1389.4092-.0772.8415-.4631.9959z"/><path d="m33.5156 110.832c-.64.224-1.312-.128-1.552-.721-.2241-.64.128-1.312.72-1.552s1.312.128 1.552.72c.2241.64-.128 1.313-.72 1.553z"/><path d="m29.9489 138.411c-.3516.123-.7208-.07-.8527-.395-.123-.352.0703-.721.3956-.853.3252-.132.7208.07.8526.395.1231.352-.0703.721-.3955.853z"/><path d="m35.4078 32.6415c-.4132.1407-.8527-.0791-1.0109-.4748-.1406-.4132.0791-.8529.4747-1.0112.3955-.1582.8526.0792 1.0108.4749.1407.4132-.0791.8529-.4746 1.0111z"/><path d="m111.338 22.0192c-.352.1231-.721-.0704-.853-.3957-.123-.3517.07-.721.395-.8529.326-.1319.721.0703.853.3957.123.3517-.07.721-.395.8529z"/></g><path d="m112.427 17.0777c-.694.2374-1.415-.1319-1.679-.7913-.237-.6947.132-1.4157.792-1.6795.659-.2638 1.415.1319 1.679.7914.237.6946-.132 1.4156-.792 1.6794z" fill="#0b2c41"/></svg>