<svg fill="none" height="109" viewBox="0 0 145 109" width="145" xmlns="http://www.w3.org/2000/svg"><g fill="#204e62"><path d="m128.208 70.929c-1.04-.156-1.73-1.146-1.577-2.191.153-1.044 1.139-1.735 2.179-1.579 1.04.155 1.73 1.146 1.577 2.19-.216 1.023-1.181 1.756-2.179 1.58z"/><path d="m26.6971 45.6907c-1.6862-.2506-2.7967-1.8565-2.5501-3.5491.2467-1.6925 1.8443-2.8049 3.5304-2.5543 1.6861.2505 2.7967 1.8564 2.55 3.549-.3512 1.6563-1.9144 2.8392-3.5303 2.5544z"/><path d="m45.3597 17.2546c-1.6862-.2505-2.7967-1.8565-2.5501-3.549.2467-1.6926 1.8442-2.8049 3.5304-2.5544 1.6861.2505 2.7967 1.8565 2.55 3.5491-.3512 1.6562-1.9145 2.8392-3.5303 2.5543z"/><path d="m53.2224 69.571c1.1405-.557 1.6136-1.938 1.0568-3.084-.5569-1.146-1.9328-1.623-3.0733-1.066s-1.6137 1.938-1.0568 3.084c.5568 1.146 1.9328 1.623 3.0733 1.066z"/></g><path d="m85.4403 56.5129c-.2112 1.2647-1.3795 2.08-2.5982 1.933-1.2599-.2142-2.0739-1.3886-1.9296-2.612.2112-1.2647 1.3795-2.08 2.5982-1.933 1.2599.2142 2.1371 1.3577 1.9296 2.612z" fill="#0c8085"/><path d="m126.748 53.4511c.552 1.1364.074 2.5315-1.057 3.084-1.131.5524-2.521.0701-3.073-1.0663-.553-1.1364-.074-2.5316 1.056-3.084 1.131-.5525 2.522-.0701 3.074 1.0663z" fill="#204e62"/><path d="m109.177 64.602c.553 1.137.074 2.532-1.056 3.084-1.131.553-2.522.07-3.074-1.066s-.074-2.532 1.057-3.084c1.131-.5525 2.521-.07 3.073 1.066z" fill="#204e62"/><path d="m69.4082 8.56282 2.7358.53249.438-2.7118.9298 2.61131 2.5681-.97511-1.8094 2.07169 2.088 1.7573-2.6696-.5037-.4765 2.7219-.8843-2.6248-2.5715.968 1.8093-2.0717z" fill="#0c8085"/><path d="m71.1376 80.037 1.649 2.055 1.979-1.702-.9206 2.458 2.4667.879-2.6111.415.485 2.59-1.6517-2.061-2.0177 1.722.962-2.472-2.4694-.884 2.5779-.4z" fill="#0c8085"/><path d="m20.1298 26.2478 1.649 2.0556 1.979-1.7027-.9207 2.4581 2.4668.879-2.6111.4158.485 2.5899-1.6517-2.0612-2.0177 1.7217.962-2.4715-2.4694-.8845 2.5779-.3996z" fill="#0c8085"/><path d="m136.794 77.326 2.476-.891-.959-2.432 2.017 1.675 1.634-2.051-.461 2.611 2.6.386-2.483.892.964 2.475-2.015-1.719-1.64 2.051.465-2.573z" fill="#0c8085"/><path d="m7.18506 43.2225 19.88274-.5778 24.7791 24.0783 55.1921-1.478 24.87 34.855" stroke="#204e62" stroke-miterlimit="10"/><path d="m135.816 45.5885-11.604 9.154" stroke="#204e62" stroke-miterlimit="10"/><g fill="#0c8085"><path d="m34.9554 14.6602c-.1519.9039-.9859 1.4947-1.8729 1.3865-.9004-.154-1.4903-.9924-1.3841-1.8828.1063-.8903.9859-1.4947 1.8728-1.3865.9005.154 1.4904.9924 1.3842 1.8828z"/><path d="m26.9849 54.5885c-.1714 1.0368-1.1346 1.7012-2.1229 1.5863-1.0329-.1739-1.6962-1.1422-1.5835-2.1342.1128-.992 1.1347-1.7012 2.1229-1.5863 1.0329.1739 1.6963 1.1421 1.5835 2.1342z"/><path d="m117.459 89.159c-.093.561-.614.92-1.148.858-.558-.094-.917-.617-.856-1.154.061-.536.613-.92 1.148-.857.558.094.917.617.856 1.153z"/><path d="m113.924 47.253c-.093.5605-.614.9197-1.148.8576-.558-.094-.917-.6175-.856-1.1538.061-.5364.613-.9198 1.148-.8577.558.094.917.6175.856 1.1539z"/><path d="m31.9007 1.23541c-.0927.5606-.6134.9198-1.1477.8577-.5584-.094-.9171-.6175-.8561-1.153902.061-.5363.6134-.9197009 1.1477-.8576009.5585.0939999.9171.6175009.8561 1.1538029z"/></g><path d="m126.164 97.955 5.307.726.564-5.332 2.033 4.989 4.823-2.112-3.189 4.187 4.246 3.14-5.3-.73-.574 5.329-2.033-4.99-4.82 2.119 3.27-4.182z" fill="#ffa135"/><path d="m133.121 38.5209 3.988 3.3966 3.35-4.1604-.91 5.2828 5.237.7606-4.943 1.8296 1.929 4.9706-4.09-3.4083-3.238 4.1757.843-5.2415-5.278-.8102 4.999-1.8745z" fill="#ffa135"/><path d="m1.82121 37.4411 4.7598 2.3909 2.2682-4.7587.3072 5.2473 5.31749-.4143-4.4397 2.9724 3.0565 4.3409-4.75639-2.3838-2.3106 4.8144-.3132-5.3492-5.269104.4605 4.390194-2.9133z" fill="#ffa135"/><path d="m137.917 59.7326c-.092.5606-.613.9198-1.147.8577-.559-.094-.917-.6175-.857-1.1539.061-.5363.614-.9197 1.148-.8576.559.094.917.6175.856 1.1538z" fill="#0c8085"/><path d="m53.2819 57.8279c-.1458.866-.9391 1.4196-1.769 1.315-.8627-.1479-1.4155-.9454-1.3127-1.7785s.9392-1.4196 1.7691-1.315c.8627.1479 1.4154.9454 1.3126 1.7785z" fill="#0c8085"/><path d="m27.0679 42.6447 18.837-28.399 61.1341 50.9993 18.052-11.0718 3.269 15.1718" stroke="#204e62" stroke-miterlimit="10"/><path d="m50.8056 51.8432c-.0666.3818-.422.6341-.7921.5878-.3805-.0674-.6323-.4247-.5868-.7963.0454-.3715.4219-.6341.7921-.5878.3804.0674.6322.4247.5868.7963z" fill="#0c8085"/><path d="m125.206 46.7895c-.096.5711-.621.9408-1.176.8714-.569-.0977-.938-.6248-.87-1.1821s.621-.9408 1.176-.8714c.569.0977.938.6248.87 1.1821z" fill="#0c8085"/></svg>