<svg fill="none" height="278" viewBox="0 0 740 278" width="740" xmlns="http://www.w3.org/2000/svg" xmlns:xlink="http://www.w3.org/1999/xlink"><mask id="a" height="278" maskUnits="userSpaceOnUse" width="740" x="0" y="0"><path d="m0 0h740v278h-740z" fill="#d9d9d9"/></mask><g mask="url(#a)"><g fill="#2b6f9a"><path d="m269.256 536.452 4.368.404.296-4.377 1.843 3.972 3.945-1.928-2.544 3.579 3.648 2.45-4.368-.404-.296 4.377-1.843-3.971-3.945 1.927 2.544-3.579z"/><path d="m286.931 439.924 4.367.405.316-4.389 1.835 4.001 3.933-1.946-2.532 3.598 3.648 2.45-4.368-.405-.296 4.378-1.843-3.972-3.944 1.928 2.532-3.598z"/><path d="m368.689 545.033c.546.883.271 2.044-.612 2.59-.883.545-2.044.271-2.59-.613-.545-.883-.271-2.044.613-2.589.883-.546 2.044-.271 2.589.612z"/><path d="m414.67 518.47c.546.883.271 2.044-.612 2.59-.883.545-2.044.271-2.59-.613-.545-.883-.271-2.044.613-2.589.883-.546 2.044-.271 2.589.612z"/><path d="m466.394 464.238c.545.883.271 2.044-.613 2.589-.883.546-2.044.271-2.589-.612-.546-.883-.271-2.044.612-2.59.883-.545 2.044-.271 2.59.613z"/><path d="m344.678 544.023c.885-.546 1.159-1.705.613-2.589-.546-.885-1.706-1.159-2.59-.613s-1.158 1.706-.612 2.59 1.705 1.158 2.589.612z"/><path d="m326.385 433.05c.545.884.271 2.045-.613 2.59-.883.546-2.044.271-2.589-.612-.546-.884-.271-2.044.612-2.59.884-.545 2.044-.271 2.59.612z"/><path d="m277.587 512.192c.884-.546 1.158-1.705.612-2.589-.546-.885-1.705-1.159-2.589-.613-.885.546-1.159 1.706-.613 2.59s1.706 1.158 2.59.612z"/><path d="m285.469 526.11c.546.884.271 2.044-.612 2.59-.884.545-2.045.271-2.59-.612-.545-.884-.271-2.045.613-2.59.883-.546 2.044-.271 2.589.612z"/><path d="m335.417 526.432c-1.396-.079-2.464-1.274-2.397-2.688.079-1.396 1.274-2.465 2.689-2.398 1.395.079 2.464 1.274 2.397 2.689-.079 1.395-1.275 2.464-2.689 2.397z"/><path d="m323.607 496.231c-1.396-.079-2.465-1.274-2.398-2.688.067-1.415 1.275-2.465 2.689-2.398s2.464 1.274 2.397 2.689c-.078 1.395-1.274 2.464-2.688 2.397z"/><path d="m298.565 425.089c-1.396-.078-2.465-1.274-2.398-2.688.079-1.396 1.275-2.465 2.689-2.398 1.396.079 2.464 1.275 2.397 2.689-.078 1.396-1.274 2.464-2.688 2.397z"/><path d="m443.34 482.769c-1.396-.078-2.464-1.274-2.397-2.688.079-1.396 1.274-2.465 2.689-2.398 1.395.079 2.464 1.274 2.397 2.689-.079 1.395-1.274 2.464-2.689 2.397z"/><path d="m413.24 519.735-45.981 26.563s-.141.061-.212.028l-23.398-3.599s-.201-.079-.24-.183l-8.13-18.518-11.841-30.208s-.027-.085-.02-.115l1.147-59.401-25.664-11.302-5.276 17.392-16.69 70.169 7.487 16.653c.069.111.022.241-.047.335l-8.997 11.325c-.095.135-.276.171-.44.069l-18.345-11.677s-.139-.143-.159-.258c-.009-.096.03-.197.111-.272l19.735-16.33 16.697-70.199 5.379-17.76s.102-.165.176-.21c.073-.045.181-.036.27-.015l26.19 11.536s.21.176.193.313l-1.152 59.558 11.795 30.134 8.047 18.342 23.112 3.547 45.834-26.472 30.358-39.184s.055-.034.073-.045l21.322-14.996.378.529-21.285 14.974-30.377 39.194s-.073.046-.092.057zm-155.928 7.214 17.746 11.284 8.701-10.94-7.269-16.177-19.148 15.84z"/><path d="m253.664 521.906 3.078 3.132 3.058-3.159-1.174 4.233 4.272 1.073-4.252 1.101 1.204 4.213-3.097-3.121-3.039 3.148 1.156-4.221-4.243-1.066 4.241-1.119z"/><path d="m382.341 410.826c.546.883.271 2.044-.612 2.59-.884.545-2.045.271-2.59-.613-.545-.883-.271-2.044.612-2.589.884-.546 2.045-.271 2.59.612z"/><path d="m375.483 432.778c.885-.546 1.159-1.705.613-2.589-.546-.885-1.706-1.159-2.59-.613s-1.158 1.706-.612 2.59 1.705 1.158 2.589.612z"/><path d="m366.839 461.223c.884-.546 1.158-1.706.612-2.59s-1.705-1.158-2.589-.612c-.885.546-1.159 1.705-.613 2.59.546.884 1.705 1.158 2.59.612z"/><path d="m379.289 458.085c-1.396-.079-2.464-1.274-2.397-2.689.079-1.395 1.274-2.464 2.689-2.397 1.414.067 2.464 1.274 2.397 2.689-.079 1.395-1.274 2.464-2.689 2.397z"/><path d="m378.069 487.766c-1.396-.078-2.465-1.274-2.398-2.688.068-1.414 1.275-2.465 2.689-2.398 1.396.079 2.465 1.275 2.397 2.689-.078 1.396-1.274 2.464-2.688 2.397z"/><path d="m378.381 485.514s-.14.061-.229.04c-.108-.009-.183-.09-.24-.182l-12.361-25.616s-.035-.182-.003-.253c.033-.071.102-.164.187-.191l12.747-4.923-4.313-23.163s-.009-.096.005-.156l6.246-19.362 10.139-17.421.564.338-10.106 17.349-6.199 19.233 4.348 23.344c.025.163-.059.316-.21.359l-12.662 4.895 12.014 24.89 11.269-11.102-10.403-17.877.552-.341 10.551 18.116c.08.129.056.296-.062.394l-11.749 11.602s-.037.023-.055.034z"/><path d="m386.285 466.78 3.079 3.132 3.038-3.147-1.155 4.221 4.243 1.066-4.241 1.119 1.204 4.214-3.079-3.133-3.057 3.159 1.174-4.233-4.254-1.084 4.234-1.089z"/><path d="m388.035 388.347 3.067 3.114 3.068-3.14-1.174 4.232 4.261 1.055-4.252 1.101 1.204 4.213-3.067-3.114-3.069 3.141 1.174-4.233-4.261-1.055 4.252-1.1z"/><path d="m566.609 437.816 3.775 2.244 2.174-3.808-.063 4.385 4.377-.033-3.82 2.13 2.215 3.792-3.757-2.255-2.162 3.826.051-4.404-4.395.045 3.838-2.141z"/><path d="m559.809 528.9 4.367.404.297-4.378 1.842 3.972 3.945-1.928-2.544 3.579 3.649 2.45-4.368-.404-.297 4.378-1.842-3.972-3.945 1.927 2.544-3.579z"/><path d="m444.236 553.671 4.387.392.296-4.377 1.824 3.983 3.945-1.927-2.525 3.567 3.63 2.461-4.368-.404-.297 4.378-1.824-3.983-3.945 1.927 2.526-3.567z"/><path d="m587.938 416.409 3.291.307.235-3.323 1.389 3.031 2.987-1.463-1.913 2.707 2.75 1.86-3.302-.325-.236 3.323-1.378-3.013-2.986 1.463 1.913-2.706z"/><path d="m523.128 493.745c-1.396-.078-2.465-1.274-2.397-2.688.078-1.396 1.274-2.465 2.688-2.398 1.396.079 2.465 1.275 2.398 2.689-.079 1.396-1.275 2.464-2.689 2.397z"/><path d="m599.841 504.23c-1.396-.078-2.465-1.274-2.397-2.688.078-1.396 1.274-2.465 2.688-2.398 1.396.079 2.465 1.275 2.398 2.689-.068 1.414-1.275 2.464-2.689 2.397z"/><path d="m486.408 527.401c-1.396-.078-2.465-1.274-2.398-2.688.079-1.396 1.275-2.465 2.689-2.398 1.396.079 2.465 1.275 2.397 2.689-.078 1.396-1.274 2.465-2.688 2.397z"/><path d="m440.644 589.926c-1.396-.078-2.465-1.274-2.398-2.688.079-1.396 1.275-2.465 2.689-2.398 1.396.079 2.465 1.275 2.397 2.689-.078 1.396-1.274 2.465-2.688 2.397z"/><path d="m531.914 395.462c-1.396-.079-2.465-1.275-2.397-2.689.078-1.396 1.274-2.465 2.688-2.397 1.415.067 2.465 1.274 2.398 2.688-.079 1.396-1.275 2.465-2.689 2.398z"/><path d="m517.579 429.224c-1.395-.078-2.464-1.274-2.397-2.688.079-1.396 1.274-2.465 2.689-2.397 1.396.078 2.464 1.274 2.397 2.688s-1.274 2.465-2.689 2.397z"/><path d="m532.991 446.195c-1.396-.078-2.465-1.274-2.398-2.688.079-1.396 1.275-2.465 2.689-2.398 1.396.079 2.465 1.275 2.397 2.689-.078 1.396-1.274 2.465-2.688 2.397z"/><path d="m497.844 471.737 3.204 2.8 2.718-3.254-.829 4.172 4.182.722-4.033 1.372 1.445 3.988-3.185-2.812-2.719 3.255.841-4.154-4.194-.74 4.034-1.373z"/><path d="m503.705 523.508 3.76 1.643 1.561-3.811.464 4.086 4.077-.561-3.314 2.454 2.534 3.239-3.779-1.632-1.543 3.8-.464-4.086-4.066.579 3.285-2.461z"/><path d="m597.384 424.913c.884-.546 1.158-1.705.612-2.59-.546-.884-1.705-1.158-2.59-.612-.884.546-1.158 1.706-.612 2.59s1.705 1.158 2.59.612z"/><path d="m502.095 411.435c.545.883.271 2.044-.613 2.589-.883.546-2.044.271-2.59-.612-.545-.883-.27-2.044.613-2.59.883-.545 2.044-.271 2.59.613z"/><path d="m557.414 451.577c.545.883.27 2.044-.613 2.59-.883.545-2.044.271-2.59-.613-.545-.883-.271-2.044.613-2.589.883-.546 2.044-.271 2.59.612z"/><path d="m533.885 543.153c.545.884.271 2.045-.612 2.59-.884.546-2.045.271-2.59-.612-.546-.884-.271-2.044.612-2.59.884-.545 2.045-.271 2.59.612z"/><path d="m598.364 492.534c.545.884.271 2.044-.613 2.59-.883.545-2.044.271-2.589-.612-.546-.884-.271-2.045.612-2.59.884-.546 2.044-.271 2.59.612z"/><path d="m602.625 571.602c.546.884.271 2.044-.612 2.59-.884.545-2.045.271-2.59-.612-.546-.884-.271-2.045.612-2.59.884-.546 2.045-.271 2.59.612z"/><path d="m609.029 577.815c.546.884.271 2.045-.612 2.59-.884.546-2.045.271-2.59-.612s-.271-2.044.612-2.59c.884-.545 2.045-.271 2.59.612z"/><path d="m607.198 579.048-6.364-6.188-68.699-28.423s-.209-.175-.193-.313c-.001-.126.093-.261.197-.299l33.218-13.268 34.396-29.145.415.507-34.452 29.179s-.055.034-.091.057l-32.525 12.991 68.013 28.136s.071.032.093.069l6.386 6.225-.454.458z"/><path d="m565.783 531.082-.495-.431 31.212-37.347.514.42z"/><path d="m570.866 442.61c-.129.079-.296.055-.413-.051-.109-.136-.115-.31-.009-.426l21.618-24.356.495.431-19.544 22.033 23.204-17.175.397.518-25.7 19.021s0 0-.019.012z"/><path d="m532.454 544.418s-.036.023-.055.034c-.092.057-.211.029-.305-.041l-24.287-16.853c-.123-.076-.159-.258-.112-.388l15.187-35.84-21.12-14.565c-.123-.076-.147-.239-.119-.358l15.72-49.591-17.059-14.123s-.114-.184-.122-.281c.01-.107.061-.19.153-.246l31.562-19.49c.129-.08.266-.063.371.025.105.087.148.239.083.381l-14.262 33.591 15.215 16.736 22.46 8.831 14.735-10.141.378.529-14.779 10.194-23.512 91.439s-.083.153-.139.187zm-24.051-17.254 23.677 16.443 23.353-90.832-22.43-8.824s-.082-.051-.123-.076l-15.043-16.538-15.527 49.039 21.149 14.572c.135.094.16.257.113.388l-15.187 35.84zm-7.334-114.715 16.546 13.703 13.783-32.431z"/><path d="m507.949 527.623-21.447-2.415s-.19-.061-.247-.153-.065-.188-.044-.277l15.384-48.367.629.196-15.262 47.987 21.046 2.383-.077.657z"/><path d="m441.095 587.487-.618-.178 9.238-31.683s.058-.112.101-.164l36.515-30.86.415.506-36.453 30.796z"/><path d="m253.776 379.563 4.368.404.296-4.377 1.854 3.99 3.933-1.946-2.532 3.597 3.648 2.45-4.368-.404-.296 4.377-1.854-3.99-3.933 1.946 2.532-3.597z"/><path d="m342.002 354.926 4.367.404.297-4.377 1.854 3.99 3.933-1.946-2.532 3.598 3.648 2.449-4.368-.404-.296 4.378-1.854-3.99-3.934 1.946 2.533-3.598z"/><path d="m287.943 338.027 3.31.295.235-3.323 1.389 3.031 2.987-1.462-1.914 2.706 2.751 1.861-3.309-.295-.218 3.311-1.407-3.02-2.968 1.451 1.913-2.706z"/><path d="m298.461 384.329c-1.396-.078-2.465-1.274-2.398-2.688.079-1.396 1.275-2.465 2.689-2.398 1.396.079 2.465 1.275 2.397 2.689-.078 1.396-1.274 2.465-2.688 2.397z"/><path d="m249.333 343.592c.546.883.271 2.044-.612 2.59-.884.545-2.045.271-2.59-.613-.546-.883-.271-2.044.612-2.589.884-.546 2.045-.271 2.59.612z"/><path d="m244.303 338.411c.546.883.271 2.044-.612 2.589-.883.546-2.044.271-2.59-.612-.545-.883-.271-2.044.613-2.59.883-.545 2.044-.271 2.589.613z"/><path d="m254.297 332.24c.545.883.271 2.044-.613 2.59-.883.545-2.044.271-2.59-.613-.545-.883-.27-2.044.613-2.589.883-.546 2.044-.271 2.59.612z"/><path d="m347.948 357.228s0 0-.018.011l-49.175 24.85s-.092.056-.152.042l-39.046-.164c-.145.013-.261-.093-.311-.215l-11.797-36.971-4.966-5.119s-.102-.166-.092-.273c.009-.108.06-.19.152-.247l9.994-6.171.341.552-9.644 5.955 4.624 4.771 44.362-5.101s.097-.009.138.017l55.531 17.515s.217.145.23.29c.002.126-.056.238-.148.295zm-49.424 24.24 48.386-24.438-54.7-17.24-44.055 5.063 11.653 36.45 38.728.184z"/><path d="m337.103 261.076 4.368.404.297-4.377 1.842 3.972 3.945-1.928-2.532 3.597 3.648 2.45-4.368-.404-.297 4.378-1.853-3.99-3.934 1.946 2.533-3.598z"/><path d="m361.298 276.793c-1.396-.079-2.465-1.275-2.397-2.689.078-1.396 1.274-2.465 2.688-2.397 1.415.067 2.465 1.274 2.398 2.688-.068 1.414-1.275 2.465-2.689 2.398z"/><path d="m309.879 258.238c.545.884.271 2.044-.613 2.59-.883.545-2.044.271-2.59-.612-.545-.884-.27-2.045.613-2.59.883-.546 2.044-.271 2.59.612z"/><path d="m329.468 270.901c.545.883.271 2.044-.613 2.589-.883.546-2.044.271-2.589-.612-.546-.883-.271-2.044.612-2.59.884-.545 2.045-.271 2.59.613z"/><path d="m361.281 274.541-18.404-11.031-14.858 8.667c-.111.068-.248.051-.342-.018l-19.271-12.478-10.179 23.037-.597-.266 10.341-23.392s.114-.146.198-.173c.085-.027.193-.018.275.033l19.425 12.561 14.84-8.655c.092-.057.218-.059.33-.001l18.568 11.133-.338.564z"/><path d="m295.364 278.411 2.461 3.615 3.57-2.535-1.909 3.95 3.989 1.807-4.37.334.431 4.361-2.473-3.633-3.558 2.553 1.908-3.949-4-1.826 4.381-.316z"/><path d="m426.634 64.8642-101.611-5.3551 1.846 8.0114 21.907 8.5115-.238.604-22.078-8.5835s-.176-.1202-.196-.2349l-1.987-8.6106s.002-.204.082-.2793c.062-.0638.166-.1022.262-.1109l102.042 5.3942z"/><path d="m326.466 70.2855c-1.396-.0786-2.464-1.2742-2.397-2.6885.079-1.3958 1.274-2.4646 2.689-2.3974 1.395.0786 2.464 1.2743 2.397 2.6885-.079 1.3958-1.274 2.4646-2.689 2.3974z"/><path d="m428.264 63.5525c.546.8833.271 2.0442-.612 2.5897-.884.5455-2.045.271-2.59-.6124-.546-.8833-.271-2.0442.612-2.5897.884-.5455 2.045-.271 2.59.6124z"/><path d="m326.204 58.1697c.546.8833.271 2.0443-.612 2.5897-.884.5455-2.045.271-2.59-.6123-.546-.8833-.271-2.0443.612-2.5897.884-.5455 2.045-.271 2.59.6123z"/><path d="m347.159 71.768 3.079 3.1324 3.057-3.1589-1.174 4.2328 4.243 1.0661-4.223 1.1075 1.186 4.2249-3.079-3.1323-3.057 3.1589 1.174-4.2328-4.254-1.0845 4.252-1.1005z"/><path d="m288.196 46.6369 3.309.2952.217-3.3117 1.389 3.0315 2.987-1.4627-1.913 2.7065 2.75 1.8605-3.302-.325-.236 3.3231-1.378-3.0132-2.986 1.4627 1.913-2.7065z"/><path d="m291.572 110.44c-1.395-.079-2.464-1.274-2.397-2.689.079-1.395 1.274-2.464 2.689-2.397 1.396.079 2.464 1.274 2.397 2.689-.079 1.395-1.274 2.464-2.689 2.397z"/><path d="m287.804 124.18c.545.884.271 2.045-.613 2.59-.883.546-2.044.271-2.589-.612-.546-.884-.271-2.045.612-2.59s2.044-.271 2.59.612z"/><path d="m281.044 98.2068c.546.8833.271 2.0442-.612 2.5902-.884.545-2.045.27-2.59-.613-.546-.8832-.271-2.0441.612-2.5896.884-.5455 2.045-.2709 2.59.6124z"/><path d="m271.942 83.4661c.545.8833.271 2.0442-.613 2.5897-.883.5455-2.044.271-2.59-.6124-.545-.8833-.27-2.0442.613-2.5897s2.044-.271 2.59.6124z"/><path d="m290.515 67.0657c.545.8833.271 2.0442-.613 2.5897-.883.5455-2.044.271-2.589-.6123-.546-.8834-.271-2.0443.612-2.5898.884-.5455 2.044-.271 2.59.6124z"/><path d="m311.541 15.7745c.884-.546 1.159-1.7055.613-2.5897s-1.706-1.1584-2.59-.6124c-.884.5461-1.159 1.7055-.613 2.5898.546.8842 1.706 1.1583 2.59.6123z"/><path d="m286.373 125.445s-.11.068-.181.036c-.156-.006-.272-.112-.304-.245l-6.755-25.9253-9.08-14.7037c-.079-.1289-.067-.3145.051-.4125l18.474-16.3138 3.636-19.7594s.014-.0595.039-.1007l17.993-34.0137.572.308-17.968 33.9726-3.65 19.8189s-.046.1305-.109.1943l-18.368 16.1975 8.932 14.4645 12.208 8.6543c.123.076.147.239.119.358l-5.518 17.287s-.065.142-.139.187zm-6.393-25.4625 6.245 24.0285 5.101-15.987z"/><path d="m83.7521 199.648 4.3678.404.2966-4.378 1.8538 3.991 3.9334-1.946-2.5324 3.597 3.6482 2.45-4.3677-.404-.2967 4.377-1.8424-3.972-3.9448 1.928 2.5324-3.597z"/><path d="m5.63767 325.795 4.28784-.92-1.03374-4.267 2.94233 3.241 3.1964-3.016-1.3526 4.191 4.2189 1.233-4.3063.931 1.0337 4.268-2.9536-3.261-3.1851 3.035 1.35259-4.191z"/><path d="m130.527 261.564 4.386.392.296-4.377 1.824 3.983 3.945-1.927-2.525 3.567 3.648 2.45-4.386-.393-.297 4.378-1.824-3.983-3.945 1.927 2.526-3.567z"/><path d="m280.181 179.269c-1.395-.078-2.464-1.274-2.397-2.688.079-1.396 1.274-2.465 2.689-2.398 1.396.079 2.464 1.275 2.397 2.689-.079 1.396-1.274 2.465-2.689 2.397z"/><path d="m245.721 156.521c-1.395-.078-2.464-1.274-2.397-2.688.079-1.396 1.275-2.465 2.689-2.398 1.396.079 2.464 1.275 2.397 2.689-.079 1.396-1.274 2.464-2.689 2.397z"/><path d="m140.907 236.877c-1.396-.079-2.464-1.274-2.397-2.689.079-1.395 1.274-2.464 2.689-2.397 1.414.067 2.464 1.274 2.397 2.688-.067 1.415-1.275 2.465-2.689 2.398z"/><path d="m8.0361 275.584c-1.39585-.079-2.46465-1.274-2.39735-2.688.06731-1.415 1.27441-2.465 2.68867-2.398 1.39586.079 2.46468 1.274 2.39738 2.689-.0787 1.395-1.27444 2.464-2.6887 2.397z"/><path d="m237.663 123.546c-1.396-.079-2.465-1.275-2.398-2.689.079-1.396 1.275-2.464 2.689-2.397 1.396.078 2.465 1.274 2.397 2.688-.078 1.396-1.274 2.465-2.688 2.398z"/><path d="m242.443 203.742c-1.396-.078-2.465-1.274-2.398-2.688.068-1.415 1.275-2.465 2.689-2.398s2.465 1.275 2.397 2.689c-.078 1.396-1.274 2.464-2.688 2.397z"/><path d="m198.541 275.005c-1.396-.078-2.464-1.274-2.397-2.688.079-1.396 1.274-2.465 2.689-2.398 1.414.068 2.464 1.275 2.397 2.689s-1.274 2.465-2.689 2.397z"/><path d="m250.478 166.777c.546.883.271 2.044-.612 2.59-.884.545-2.045.271-2.59-.613-.546-.883-.271-2.044.612-2.589.884-.546 2.045-.271 2.59.612z"/><path d="m280.508 189.719c.545.883.27 2.044-.613 2.59-.883.545-2.044.27-2.59-.613-.545-.883-.271-2.044.613-2.59.883-.545 2.044-.271 2.59.613z"/><path d="m310.869 208.134c.545.884.271 2.045-.613 2.59-.883.546-2.044.271-2.589-.612-.546-.884-.271-2.045.612-2.59s2.044-.271 2.59.612z"/><path d="m337.511 204.596c.546.883.271 2.044-.612 2.59-.884.545-2.044.271-2.59-.613-.545-.883-.271-2.044.613-2.59.883-.545 2.044-.271 2.589.613z"/><path d="m328.58 171.524c.545.883.271 2.044-.613 2.59-.883.545-2.044.271-2.589-.613-.546-.883-.271-2.044.612-2.59.883-.545 2.044-.271 2.59.613z"/><path d="m241.634 144.632c.545.884.271 2.044-.612 2.59-.884.545-2.045.271-2.59-.612-.546-.884-.271-2.045.612-2.59.884-.546 2.045-.271 2.59.612z"/><path d="m133.631 307.182c.545.883.27 2.044-.613 2.59-.883.545-2.044.271-2.59-.613-.545-.883-.271-2.044.613-2.589.883-.546 2.044-.271 2.59.612z"/><path d="m117.878 244.209c.884-.546 1.159-1.706.613-2.59s-1.706-1.158-2.59-.612-1.159 1.705-.613 2.589c.546.885 1.706 1.159 2.59.613z"/><path d="m95.8836 300.724c.5454.884.2709 2.045-.6125 2.59-.8834.546-2.0443.271-2.5898-.612-.5454-.884-.2709-2.045.6125-2.59.8834-.546 2.0443-.271 2.5898.612z"/><path d="m88.7919 331.972c.5454.883.2709 2.044-.6125 2.59-.8834.545-2.0443.271-2.5898-.612-.5454-.884-.2709-2.045.6125-2.59.8834-.546 2.0443-.271 2.5898.612z"/><path d="m61.7877 220.684c.5455.883.2709 2.044-.6125 2.59-.8833.545-2.0443.271-2.5897-.613-.5455-.883-.2709-2.044.6125-2.589.8833-.546 2.0443-.271 2.5897.612z"/><path d="m50.6903 227.537c.5455.883.2709 2.044-.6124 2.589-.8834.546-2.0444.271-2.5898-.612-.5455-.883-.2709-2.044.6125-2.59.8834-.545 2.0443-.271 2.5897.613z"/><path d="m110.835 244.948c.546.883.271 2.044-.612 2.59-.884.545-2.045.271-2.59-.613-.546-.883-.271-2.044.612-2.589.884-.546 2.045-.271 2.59.612z"/><path d="m169.829 114.39c.546.883.271 2.044-.612 2.59-.884.545-2.045.271-2.59-.613-.546-.883-.271-2.044.612-2.589.884-.546 2.045-.271 2.59.612z"/><path d="m250.755 109.589c.545.884.27 2.045-.613 2.59-.883.546-2.044.271-2.59-.612-.545-.884-.271-2.044.613-2.59.883-.545 2.044-.271 2.59.612z"/><path d="m239.061 191.926c.545.883.271 2.044-.612 2.589-.884.546-2.045.271-2.59-.612-.546-.883-.271-2.044.612-2.59.884-.545 2.045-.271 2.59.613z"/><path d="m226.187 246.826c.884-.546 1.158-1.706.612-2.59s-1.705-1.158-2.589-.612c-.885.546-1.159 1.705-.613 2.589.546.885 1.706 1.159 2.59.613z"/><path d="m232.82 248.881c.884-.546 1.159-1.705.613-2.589-.546-.885-1.706-1.159-2.59-.613-.885.546-1.159 1.706-.613 2.59s1.706 1.158 2.59.612z"/><path d="m238.147 258.455c.884-.546 1.158-1.706.612-2.59s-1.705-1.159-2.59-.612c-.884.546-1.158 1.705-.612 2.589s1.705 1.159 2.59.613z"/><path d="m87.5069 333.02-.6251-.148 7.0733-31.237 14.9699-55.787s.102-.165.176-.21l7.673-3.34 23.547-8.058-50.7654-32.151-29.1914 19.83-11.0606 6.83-41.39047 45.03 4.31867 52.443-.656.049-4.33163-52.587s.02383-.168.07472-.25l41.51501-45.158s.0552-.034.0736-.045l11.0975-6.853 29.3455-19.951c.1104-.068.2366-.07.3415.018l51.517 32.627c.112.058.162.18.145.318-.017.137-.097.212-.219.262l-24.149 8.277-7.496 3.257-14.9168 55.627-7.0733 31.237z"/><path d="m132.353 308.2-.647-.058 4.285-44.563 4.742-29.289s.047-.13.072-.172l57.677-61.264-30.34-56.914-78.377 85.994-.4767-.443 78.6777-86.331s.184-.114.273-.093c.108.01.201.079.258.171l30.667 57.526c.068.11.044.278-.055.364l-57.776 61.351-4.714 29.17-4.278 44.533z"/><path d="m237.445 256.701-.552.341-5.299-9.488-6.313-1.948-26.383 27.095-.459-.454 26.526-27.234c.081-.076.203-.125.333-.079l6.634 2.056s.153.083.198.157l5.345 9.561z"/><path d="m225.5 245.343-.604-.237 17.311-43.887-5.023-8.134s-.059-.218-.008-.301l11.172-24.641-49.423 5.099c-.163.024-.309-.089-.352-.24-.043-.152.048-.335.199-.378l46.593-18.78-5.597-8.034s-.057-.092-.054-.17l-2.228-24.604s.031-.197.112-.272l11.348-10.439.44.465-11.242 10.323 2.206 24.363 5.785 8.298s.066.189.045.278-.102.165-.176.21l-44.85 18.061 47.7-4.924s.227.037.283.129c.057.092.089.226.019.319l-11.333 24.996 5.022 8.134s.066.188.026.289l-17.375 44.029z"/><path d="m335.948 205.892-26.632 3.557s-.155-.006-.208-.049l-30.361-18.416c-.112-.058-.162-.18-.164-.306l1.391-13.721-31.186-8.883.178-.618 31.435 8.958c.149.035.24.182.216.349l-1.405 13.781 30.085 18.256 26.517-3.537.085.633z"/><path d="m355.878 171.393-28.88 1.438s-.097.009-.138-.017l-38.345-14.96-7.901 18.987-.604-.237 8.02-19.289c.072-.171.26-.237.42-.183l38.577 15.046 28.802-1.441.038.638z"/><path d="m288.314 157.776-42.48-3.46.059-.646 42.468 3.441z"/><path d="m288.209 151.637 1.404 4.167 4.121-1.477-2.911 3.272 3.353 2.836-4.304-.876-.768 4.313-1.404-4.167-4.121 1.477 2.911-3.272-3.352-2.836 4.303.876z"/><path d="m197.865 166.957 1.946 3.933 3.877-2.038-2.421 3.655 3.688 2.349-4.366-.278-.189 4.388-1.946-3.934-3.888 2.02 2.45-3.648-3.717-2.357 4.377.297z"/><path d="m418.336 161.881 4.374.374.297-4.377 1.835 4.001 3.945-1.927-2.525 3.567 3.648 2.45-4.386-.393-.297 4.378-1.824-3.983-3.944 1.927 2.514-3.586z"/><path d="m472.281 170.817 4.357.386.296-4.378 1.854 3.99 3.945-1.927-2.544 3.579 3.648 2.45-4.367-.405-.297 4.378-1.842-3.972-3.945 1.928 2.532-3.598z"/><path d="m483.953 135.953 3.945-1.928-2.02-3.887 3.649 2.45 2.368-3.7-.316 4.389 4.388.189-3.945 1.927 2.012 3.918-3.629-2.461-2.38 3.68.308-4.359z"/><path d="m339.976 213.445 3.32.314.218-3.312 1.396 3.002 2.986-1.463-1.913 2.707 2.75 1.86-3.309-.295-.217 3.312-1.408-3.021-2.967 1.452 1.913-2.707z"/><path d="m446.198 201.031 3.32.314.218-3.312 1.396 3.002 2.986-1.463-1.932 2.718 2.769 1.849-3.309-.295-.218 3.312-1.407-3.02-2.986 1.462 1.931-2.717z"/><path d="m422.26 184.826c-1.396-.078-2.465-1.274-2.397-2.688.078-1.396 1.274-2.465 2.688-2.398 1.396.079 2.465 1.275 2.398 2.689-.079 1.396-1.275 2.465-2.689 2.397z"/><path d="m411.183 225.881c-1.396-.078-2.465-1.274-2.397-2.688.078-1.396 1.274-2.465 2.688-2.398 1.396.079 2.465 1.275 2.398 2.689-.079 1.396-1.275 2.464-2.689 2.397z"/><path d="m409.084 148.503c.545.884.271 2.045-.613 2.59-.883.546-2.044.271-2.589-.612-.546-.884-.271-2.045.612-2.59.884-.545 2.045-.271 2.59.612z"/><path d="m424.472 154.939c.884-.546 1.159-1.705.613-2.589-.546-.885-1.706-1.159-2.59-.613s-1.159 1.706-.613 2.59 1.706 1.158 2.59.612z"/><path d="m478.717 132.043c.545.883.271 2.044-.613 2.59-.883.545-2.044.271-2.589-.612-.546-.884-.271-2.045.612-2.59.884-.546 2.044-.271 2.59.612z"/><path d="m489.41 156.935c.885-.546 1.159-1.705.613-2.59-.546-.884-1.706-1.158-2.59-.612s-1.158 1.706-.612 2.59 1.705 1.158 2.589.612z"/><path d="m462.577 178.69c.545.884.271 2.045-.612 2.59-.884.545-2.045.271-2.59-.612-.546-.884-.271-2.045.612-2.59.884-.546 2.045-.271 2.59.612z"/><path d="m444.38 205.128c.884-.546 1.159-1.706.612-2.59-.546-.884-1.705-1.158-2.589-.612-.885.546-1.159 1.705-.613 2.59.546.884 1.706 1.158 2.59.612z"/><path d="m474.105 209.422c.546.883.271 2.044-.612 2.589-.884.546-2.045.271-2.59-.612s-.271-2.044.612-2.59c.884-.545 2.045-.271 2.59.613z"/><path d="m477.065 217.838c.884-.546 1.159-1.705.613-2.59-.546-.884-1.706-1.158-2.59-.612-.885.546-1.159 1.706-.613 2.59s1.706 1.158 2.59.612z"/><path d="m465.847 221.943c.885-.546 1.159-1.705.613-2.589s-1.706-1.159-2.59-.613-1.159 1.706-.612 2.59c.546.884 1.705 1.158 2.589.612z"/><path d="m404.614 220.431c.884-.546 1.158-1.706.612-2.59s-1.705-1.158-2.589-.612c-.885.546-1.159 1.705-.613 2.589.546.885 1.706 1.159 2.59.613z"/><path d="m401.308 232.614c.546.884.271 2.045-.612 2.59-.884.546-2.045.271-2.59-.612-.546-.884-.271-2.044.612-2.59.884-.545 2.045-.271 2.59.612z"/><path d="m438.055 176.318c.546.884.271 2.044-.612 2.59-.884.545-2.045.271-2.59-.612-.546-.884-.271-2.045.612-2.59.884-.546 2.045-.271 2.59.612z"/><path d="m398.377 200.82c.545.883.27 2.044-.613 2.59-.883.545-2.044.271-2.59-.613-.545-.883-.271-2.044.613-2.59.883-.545 2.044-.271 2.59.613z"/><path d="m476.247 216.513s-.037.023-.055.034l-11.236 4.117-.22-.602 10.86-3.986-3.318-5.373-21.734-7.78-7.104.93-13.191 5.273-18.728 14.462-11.618 10.25c-.081.075-.202.125-.314.067l-55.338-18.601.207-.611 55.148 18.54 11.482-10.14 18.772-14.515s.055-.034.073-.045l13.325-5.305 7.255-.972s.096-.009.156.005l21.924 7.84s.123.077.157.132l3.58 5.797s.065.188.026.289c-.033.071-.076.123-.132.157z"/><path d="m411.154 223.611-7.7-4.523s-.105-.088-.132-.173l-6.849-17.021c-.062-.14-.008-.3.102-.369l25.627-19.51s.055-.034.092-.057l14.052-4.991s.085-.027.144-.013l24.474 2.376 16.904-6.752 10.27-17.374 1.497-20.218-12.53-1.642.088-.64 12.835 1.684c.167.023.288.178.283.334l-1.529 20.619s-.022.089-.036.148l-10.371 17.539s-.088.105-.154.12l-17.063 6.825s-.104.039-.163.025l-24.474-2.377-13.919 4.96-25.391 19.315 6.723 16.692 7.606 4.455-.338.564z"/><path d="m397.034 201.98-.539-.379 27.278-37.79-.616-10.22-15.763-3.79.148-.625 15.982 3.858s.247.152.26.297l.639 10.586s-.016.138-.049.209l-27.347 37.883z"/><path d="m427.852 202.98 3.078 3.132 3.039-3.147-1.156 4.221 4.254 1.085-4.252 1.1 1.204 4.214-3.078-3.132-3.058 3.158 1.174-4.232-4.242-1.066 4.222-1.108z"/><path d="m632.879 176.149 3.945-1.928-2.001-3.899 3.63 2.462 2.367-3.7-.296 4.378 4.38.218-3.956 1.909 2.031 3.907-3.649-2.45-2.379 3.68.327-4.37z"/><path d="m588.197 240.014 3.309.296.217-3.312 1.389 3.031 2.986-1.462-1.913 2.706 2.769 1.849-3.309-.295-.247 3.305-1.378-3.013-2.986 1.462 1.913-2.706z"/><path d="m550.925 175.662 3.291.306.236-3.323 1.377 3.013 2.986-1.462-1.901 2.725 2.739 1.842-3.309-.296-.218 3.312-1.378-3.013-2.986 1.463 1.902-2.725z"/><path d="m540.54 57.3648c-1.396-.0786-2.464-1.2742-2.397-2.6884.067-1.4143 1.274-2.4647 2.688-2.3974 1.415.0672 2.465 1.2742 2.398 2.6884-.079 1.3958-1.275 2.4647-2.689 2.3974z"/><path d="m572.857 91.833c-1.396-.0786-2.465-1.2742-2.397-2.6885.078-1.3958 1.274-2.4646 2.688-2.3974 1.396.0786 2.465 1.2743 2.398 2.6885-.079 1.3958-1.275 2.4646-2.689 2.3974z"/><path d="m498.133 100.913c-1.396-.078-2.465-1.2741-2.398-2.6883.079-1.3959 1.275-2.4647 2.689-2.3975 1.414.0673 2.465 1.2743 2.397 2.6885-.078 1.3959-1.274 2.4643-2.688 2.3973z"/><path d="m537.373 216.085c-1.396-.079-2.465-1.275-2.397-2.689.067-1.414 1.274-2.465 2.688-2.397 1.396.078 2.465 1.274 2.398 2.688-.079 1.396-1.275 2.465-2.689 2.398z"/><path d="m570.74 129.821c-1.395-.079-2.464-1.274-2.397-2.689.079-1.395 1.274-2.464 2.689-2.397 1.396.079 2.464 1.274 2.397 2.688-.067 1.415-1.274 2.465-2.689 2.398z"/><path d="m525.51 292.094c-1.396-.078-2.465-1.274-2.398-2.688.079-1.396 1.275-2.465 2.689-2.398 1.396.079 2.465 1.275 2.397 2.689-.067 1.414-1.274 2.464-2.688 2.397z"/><path d="m535.261 211.059c.885-.546 1.159-1.706.613-2.59s-1.706-1.158-2.59-.612-1.159 1.705-.612 2.59c.546.884 1.705 1.158 2.589.612z"/><path d="m564.94 104.043c.885-.547 1.159-1.706.613-2.59s-1.706-1.159-2.59-.613-1.158 1.706-.612 2.59 1.705 1.159 2.589.613z"/><path d="m562.409 94.0145c.884-.5461 1.158-1.7055.612-2.5898-.546-.8842-1.705-1.1583-2.59-.6123-.884.546-1.158 1.7055-.612 2.5897.546.8843 1.705 1.1584 2.59.6124z"/><path d="m563.413 81.3962c.545.8834.271 2.0443-.613 2.5897-.883.5455-2.044.271-2.589-.6123-.546-.8833-.271-2.0443.612-2.5897.883-.5455 2.044-.271 2.59.6123z"/><path d="m599.029 83.3742c.545.8833.271 2.0443-.613 2.5898-.883.5455-2.044.2709-2.589-.6124-.546-.8833-.271-2.0442.612-2.5897s2.044-.271 2.59.6123z"/><path d="m601.534 73.5153c.545.8833.27 2.0442-.613 2.5897s-2.044.271-2.59-.6123c-.545-.8833-.271-2.0443.613-2.5898.883-.5454 2.044-.2709 2.59.6124z"/><path d="m560.615 30.9627c.545.8833.271 2.0443-.613 2.5897-.883.5455-2.044.2711-2.59-.6123-.545-.8833-.27-2.0442.613-2.5897s2.044-.271 2.59.6123z"/><path d="m493.792 24.6394c.546.8834.271 2.0443-.612 2.5898-.883.5454-2.044.271-2.59-.6124-.545-.8833-.271-2.0442.613-2.5897.883-.5455 2.044-.271 2.589.6123z"/><path d="m487.628 21.2017c.884-.546 1.158-1.7055.612-2.5897-.546-.8843-1.705-1.1584-2.59-.6124-.884.5461-1.158 1.7055-.612 2.5898.546.8842 1.705 1.1583 2.59.6123z"/><path d="m574.981 50.3583c.545.8834.271 2.0443-.613 2.5898-.883.5455-2.044.271-2.589-.6124-.546-.8833-.271-2.0442.612-2.5897.884-.5455 2.045-.271 2.59.6123z"/><path d="m552.384 114.008c.545.883.271 2.044-.613 2.589-.883.546-2.044.271-2.589-.612-.546-.883-.271-2.044.612-2.59.884-.545 2.044-.271 2.59.613z"/><path d="m528.276 219.261c.546.884.271 2.044-.612 2.59-.884.545-2.044.271-2.59-.612-.545-.884-.271-2.045.613-2.59.883-.546 2.044-.271 2.589.612z"/><path d="m558.832 256.723 3.097 3.121 3.039-3.147-1.156 4.221 4.243 1.066-4.241 1.119 1.204 4.214-3.079-3.133-3.057 3.159 1.174-4.232-4.272-1.074 4.252-1.1z"/><path d="m537.704 213.821-10.84 6.694c-.129.079-.296.055-.412-.051-.098-.117-.123-.28-.028-.415l7.609-10.773.539.378-6.676 9.486 9.497-5.864.341.552z"/><path d="m525.822 289.842c-.092.057-.218.059-.33.001s-.173-.198-.163-.306l4.793-52.961-3.768-16.229.647-.146 3.784 16.296s.015.067.008.097l-4.734 52.314 35.325-26.364-29.389-23.922.402-.502 29.704 24.185s.102.166.111.262c-.01.108-.061.19-.123.254l-36.244 27.058s0 0-.019.011z"/><path d="m562.085 262.773-.341-.552 30.499-20.842 6.848-55.067-43.623-8.728-23.637 57.149-.604-.237 23.742-57.391c.065-.142.212-.233.361-.198l44.176 8.843c.167.024.27.189.246.357l-6.905 55.51s-.072.171-.134.235l-30.665 20.944z"/><path d="m599.753 185.903-.586.285-28.583-58.762-6.791-24.378-12.778 12.161c-.099.086-.202.125-.314.067l-52.508-16.6117.196-.6294 52.329 16.5691 13.026-12.416c.081-.075.203-.125.304-.085.119.028.194.109.214.223l6.92 24.833 28.56 58.725z"/><path d="m564.266 102.374-.636.164-2.532-10.0277s-.034-.0552-.008-.0963l.382-9.9207-21.02-27.4123-48.439-29.1649s-.052-.0438-.064-.0622l-5.552-6.0276c-.087-.099-.111-.262-.053-.374s.187-.1916.336-.1564l72.363 12.3325-.118.6321-71.426-12.1738 4.875 5.3018 48.45 29.1832s.052.0439.093.0693l21.129 27.5481s.08.1289.059.2182l-.378 9.9688 2.528 9.9799z"/><path d="m597.598 84.639s-.018.0113-.037.0227c-.092.0568-.199.047-.282-.0039l-56.745-29.5259.308-.5715 56.398 29.3338 2.364-9.2635-26.395-23.0255.431-.4952 26.553 23.157c.093.0693.125.2025.096.3216l-2.504 9.8587s-.083.1532-.139.1873z"/><path d="m638.642 175.107-57.701-76.8521-8.131-8.6804-11.147-6.8945.349-.5461 11.188 6.92s.041.0255.064.0623l8.195 8.7426 57.723 76.8892-.518.396z"/><path d="m525.583 233.837 4.328.709.601-4.336 1.543 4.105 4.079-1.629-2.784 3.397 3.448 2.701-4.309-.721-.631 4.33-1.544-4.105-4.067 1.647 2.784-3.396z"/><path d="m596.719 180.125 2.744 3.415 3.37-2.818-1.595 4.086 4.125 1.494-4.339.671.756 4.312-2.744-3.415-3.351 2.807 1.595-4.086-4.126-1.494 4.321-.66z"/><path d="m579.803 92.5009 2.167 3.7969 3.758-2.2701-2.203 3.8009 3.84 2.1024-4.381-.0144.093 4.3914-2.196-3.804-3.741 2.258 2.215-3.782-3.852-2.1209 4.382.0145z"/><path d="m683.273 124.618 3.309.296.217-3.312 1.408 3.02 2.967-1.451-1.913 2.706 2.769 1.849-3.309-.295-.229 3.293-1.396-3.001-2.986 1.462 1.913-2.706z"/><path d="m684.147 156.54c-1.396-.079-2.465-1.275-2.397-2.689.067-1.414 1.274-2.465 2.688-2.397 1.415.067 2.465 1.274 2.398 2.688-.079 1.396-1.275 2.465-2.689 2.398z"/><path d="m769.927 219.129c.545.883.271 2.044-.613 2.59-.883.545-2.044.271-2.59-.613-.545-.883-.27-2.044.613-2.589.883-.546 2.044-.271 2.59.612z"/><path d="m710.952 177.431c.546.883.271 2.044-.612 2.589-.883.546-2.044.271-2.59-.612-.545-.883-.271-2.044.613-2.59.883-.545 2.044-.271 2.589.613z"/><path d="m631.589 90.5687c.546.8834.271 2.0443-.612 2.5898-.884.5455-2.045.271-2.59-.6123-.546-.8834-.271-2.0443.612-2.5898.884-.5455 2.045-.271 2.59.6123z"/><path d="m653.734 196.087c.546.884.271 2.045-.612 2.59-.884.546-2.045.271-2.59-.612-.546-.883-.271-2.044.612-2.59.884-.545 2.045-.271 2.59.612z"/><path d="m664.764 209.256c.545.884.271 2.045-.613 2.59-.883.546-2.044.271-2.589-.612-.546-.883-.271-2.044.612-2.59.884-.545 2.045-.271 2.59.612z"/><path d="m668.266 262.23 3.945-1.928-2.002-3.899 3.63 2.461 2.368-3.699-.296 4.378 4.368.2-3.944 1.927 2.019 3.888-3.648-2.45-2.368 3.699.315-4.388z"/><path d="m705.802 305.727c-1.396-.078-2.465-1.274-2.397-2.688.078-1.396 1.274-2.465 2.689-2.398 1.395.079 2.464 1.275 2.397 2.689-.079 1.396-1.275 2.464-2.689 2.397z"/><path d="m730.716 246.036c-1.396-.079-2.464-1.274-2.397-2.688.079-1.396 1.274-2.465 2.689-2.398 1.395.079 2.464 1.274 2.397 2.689-.079 1.395-1.274 2.464-2.689 2.397z"/><path d="m671.085 232.502c-1.396-.079-2.465-1.274-2.398-2.688.079-1.396 1.275-2.465 2.689-2.398 1.396.079 2.464 1.274 2.397 2.689-.067 1.414-1.274 2.464-2.688 2.397z"/><path d="m704.322 336.306c.546.883.271 2.044-.612 2.59-.884.545-2.045.271-2.59-.613-.546-.883-.271-2.044.612-2.589.884-.546 2.045-.271 2.59.612z"/><path d="m690.839 326.863c.546.884.271 2.044-.612 2.59-.884.545-2.045.271-2.59-.612-.545-.884-.271-2.045.612-2.59.884-.546 2.045-.271 2.59.612z"/><path d="m706.993 281.555c.884-.546 1.158-1.706.612-2.59s-1.705-1.158-2.59-.612c-.884.546-1.158 1.705-.612 2.59.546.884 1.705 1.158 2.59.612z"/><path d="m640.135 286.083c-.073 1.036-.953 1.833-1.977 1.78-1.036-.072-1.834-.952-1.78-1.977.072-1.036.952-1.834 1.977-1.78 1.036.072 1.833.952 1.78 1.977z"/><path d="m688.128 233.137c-.072 1.036-.953 1.834-1.977 1.78-1.036-.072-1.834-.952-1.78-1.976.072-1.036.952-1.834 1.977-1.78 1.036.072 1.833.952 1.78 1.976z"/><path d="m667.431 220.904c-.072 1.036-.952 1.834-1.977 1.78-1.024-.053-1.833-.952-1.78-1.977.054-1.024.953-1.833 1.977-1.779 1.025.053 1.834.952 1.78 1.976z"/><path d="m663.813 320.064c.545.883.271 2.044-.613 2.59-.883.545-2.044.271-2.589-.612-.546-.884-.271-2.045.612-2.59.883-.546 2.044-.271 2.59.612z"/><path d="m665.123 300.038c.545.883.271 2.044-.613 2.589-.883.546-2.044.271-2.589-.612-.546-.883-.271-2.044.612-2.59.884-.545 2.044-.271 2.59.613z"/><path d="m727.04 293.807 3.309.296.218-3.312 1.378 3.013 2.986-1.463-1.902 2.725 2.757 1.831-3.309-.295-.236 3.323-1.377-3.013-2.986 1.462 1.913-2.706z"/><path d="m731.575 295.634s-.055.034-.074.045l-25.471 7.823s-.204-.001-.286-.052c-.083-.051-.121-.154-.13-.251l.071-23.226 2.859-41.726.635.04-2.87 41.707-.073 22.771 24.828-7.629-.535-51.628.648-.019.558 51.868s-.068.22-.16.277z"/><path d="m674.452 261.257s-.14.061-.229.04c-.138-.017-.266-.142-.278-.286l-3.04-30.94-5.625-9.11.552-.34 5.671 9.182s.045.074.043.152l2.924 29.766 11.474-26.786.597.267-11.971 27.957s-.077.123-.132.157z"/><path d="m702.532 337.564-13.585-9.608c-.146-.113-.182-.295-.08-.459l16.785-24.524.528.36-16.615 24.266 13.316 9.419-.379.539z"/><path d="m684.743 340.414-.037.023c-.074.046-.181.036-.252.003l-21.254-9.677s-.169-.15-.189-.265l-1.1-9.438 1.305-19.87-25.097-14.955.337-.565 25.263 15.057s.161.18.163.306l-1.322 20.008 1.078 9.197 20.788 9.457 4.477-12.221.623.226-4.604 12.553s-.076.123-.131.157z"/><path d="m663.831 301.115-.618-.178 10.76-40.045.618.177z"/><path d="m681.702 335.531 3.085 3.102 3.05-3.129-1.156 4.222 4.243 1.066-4.252 1.1 1.204 4.214-3.067-3.114-3.069 3.14 1.174-4.232-4.261-1.055 4.252-1.101z"/><path d="m660.489 325.345 3.097 3.121 3.039-3.148-1.156 4.222 4.254 1.084-4.252 1.101 1.204 4.213-3.078-3.132-3.058 3.159 1.174-4.233-4.261-1.055 4.241-1.119z"/><path d="m705.803 231.832 3.067 3.113 3.05-3.129-1.156 4.222 4.243 1.066-4.252 1.1 1.203 4.214-3.066-3.114-3.069 3.141 1.174-4.233-4.243-1.066 4.234-1.089z"/><path d="m770.602 301.53 3.321.313.236-3.323 1.377 3.013 2.986-1.462-1.913 2.706 2.751 1.861-3.31-.296-.217 3.312-1.389-3.031-2.986 1.462 1.913-2.706z"/><path d="m775.103 302.966-.45.467 20.036 19.324.45-.467z"/><path d="m793.027 317.754 3.066 3.114 3.069-3.14-1.174 4.233 4.261 1.054-4.252 1.101 1.204 4.213-3.067-3.114-3.069 3.141 1.174-4.233-4.261-1.055 4.252-1.1z"/><path d="m764.858 451.012c-1.396-.079-2.465-1.274-2.398-2.689.079-1.395 1.275-2.464 2.689-2.397s2.465 1.274 2.397 2.688c-.078 1.396-1.274 2.465-2.688 2.398z"/><path d="m781.453 385.095c-1.396-.079-2.464-1.275-2.397-2.689s1.274-2.464 2.689-2.397c1.395.078 2.464 1.274 2.397 2.688-.079 1.396-1.274 2.465-2.689 2.398z"/><path d="m686.168 420.242c-1.396-.079-2.464-1.274-2.397-2.689.067-1.414 1.274-2.464 2.688-2.397 1.396.079 2.465 1.274 2.398 2.689-.079 1.395-1.275 2.464-2.689 2.397z"/><path d="m727.921 405.441c.885-.546 1.159-1.706.613-2.59s-1.706-1.158-2.59-.612-1.158 1.705-.612 2.589c.546.885 1.705 1.159 2.589.613z"/><path d="m723.154 416.163c.546.883.271 2.044-.612 2.59-.884.545-2.045.271-2.59-.613-.546-.883-.271-2.044.612-2.589.884-.546 2.045-.271 2.59.612z"/><path d="m739.53 404.602c.884-.546 1.158-1.705.612-2.59-.546-.884-1.705-1.158-2.59-.612-.884.546-1.158 1.705-.612 2.59.546.884 1.705 1.158 2.59.612z"/><path d="m733.865 420.581 3.309.296.217-3.312 1.378 3.013 2.986-1.463-1.913 2.707 2.769 1.849-3.309-.295-.236 3.323-1.378-3.013-2.986 1.462 1.902-2.725z"/><path d="m764.758 448.709-26.788-26.214s-.091-.147-.1-.244l.359-19.261s.068-.22.178-.288l43.043-20.453.286.587-42.847 20.357-.342 18.92 26.702 26.115-.454.459z"/><path d="m721.723 417.428s-.092.057-.17.054l-35.254.544-.019-.649 35.05-.545 5.584-13.311s.157-.199.295-.182l11.325-.638.037.637-11.121.64-5.584 13.311s-.076.123-.131.157z"/><path d="m721.612 416.759-.19.621 16.647 5.103.19-.62z"/><path d="m690.979 495.92 3.291.306.247-3.304 1.378 3.013 2.986-1.463-1.913 2.707 2.75 1.86-3.29-.307-.236 3.324-1.389-3.032-2.987 1.463 1.914-2.707z"/><path d="m688.536 545.853 4.368.404.297-4.377 1.842 3.971 3.927-1.916-2.526 3.568 3.649 2.449-4.387-.392-.296 4.377-1.824-3.983-3.945 1.928 2.514-3.586z"/><path d="m663.4 621.899 4.18 1.334 1.233-4.219.949 4.295 4.256-1.053-3.23 2.961 3.034 3.185-4.179-1.334-1.245 4.2-.937-4.276-4.268 1.034 3.242-2.942z"/><path d="m759.139 518.448c-1.396-.079-2.464-1.274-2.397-2.688.079-1.396 1.274-2.465 2.689-2.398 1.396.079 2.464 1.274 2.397 2.689-.067 1.414-1.274 2.464-2.689 2.397z"/><path d="m680.982 538.189c-1.396-.079-2.464-1.274-2.397-2.688.067-1.415 1.274-2.465 2.689-2.398 1.395.079 2.464 1.274 2.397 2.689-.079 1.395-1.274 2.464-2.689 2.397z"/><path d="m695.694 665.304c-1.396-.079-2.465-1.275-2.398-2.689.079-1.396 1.275-2.464 2.689-2.397 1.396.078 2.465 1.274 2.398 2.688-.079 1.396-1.275 2.465-2.689 2.398z"/><path d="m651.133 611.172c-1.396-.079-2.465-1.275-2.397-2.689.078-1.396 1.274-2.465 2.688-2.397 1.396.078 2.465 1.274 2.398 2.688-.079 1.396-1.275 2.465-2.689 2.398z"/><path d="m727.666 545.534 5.973 2.591 2.449-6.037.765 6.467 6.447-.88-5.237 3.869 4.017 5.146-5.991-2.58-2.449 6.038-.747-6.479-6.466.892 5.256-3.881z"/><path d="m630.795 659.42 5.972 2.59 2.45-6.037.746 6.479 6.455-.91-5.226 3.888 3.987 5.138-5.972-2.59-2.45 6.037-.746-6.479-6.455.91 5.226-3.888z"/><path d="m745.059 556.451c.885-.546 1.159-1.705.613-2.589-.546-.885-1.706-1.159-2.59-.613s-1.159 1.706-.613 2.59 1.706 1.158 2.59.612z"/><path d="m705.06 482.166c.885-.546 1.159-1.705.613-2.589-.546-.885-1.706-1.159-2.59-.613s-1.158 1.706-.612 2.59 1.705 1.158 2.589.612z"/><path d="m682.752 503.262c.884-.546 1.158-1.705.612-2.589s-1.705-1.159-2.589-.613c-.885.546-1.159 1.706-.613 2.59s1.706 1.159 2.59.612z"/><path d="m730.342 590.171c.545.883.271 2.044-.612 2.59-.884.545-2.045.271-2.59-.613-.546-.883-.271-2.044.612-2.589.884-.546 2.045-.271 2.59.612z"/><path d="m716.577 537.867c.545.883.271 2.044-.613 2.59-.883.545-2.044.271-2.59-.613-.545-.883-.27-2.044.613-2.589.883-.546 2.044-.271 2.59.612z"/><path d="m679.547 650.846c.545.883.271 2.044-.613 2.59-.883.545-2.044.271-2.59-.613-.545-.883-.27-2.044.613-2.589.883-.546 2.044-.271 2.59.612z"/><path d="m663.839 596.056c.545.883.271 2.044-.613 2.589-.883.546-2.044.271-2.589-.612-.546-.883-.271-2.044.612-2.59.883-.545 2.044-.271 2.59.613z"/><path d="m728.912 591.436s-.17.054-.26.033c-.16-.054-.251-.201-.227-.368l6.254-39.933-19.728-11.941-20.512 8.98c-.11.068-.259.033-.346-.066l-13.181-12.247s-.091-.148-.099-.244l.62-33.988c-.001-.126.093-.261.226-.292l13.333-4.344 8.778-16.58.571.309-8.853 16.702s-.095.135-.18.162l-13.248 4.317-.625 33.61 12.925 11.998 20.475-8.957s.211-.029.293.022l20.058 12.145c.112.058.173.198.156.335l-5.876 37.539 14.303-33.896 15.21-38.931.604.237-15.21 38.931-15.337 36.339s-.076.123-.132.157z"/><path d="m638.305 665.077-.625-.148 13.297-56.356s.04-.1.084-.153l10.962-11.599 32.024-49.084.546.349-32.067 49.136-10.945 11.588z"/><path d="m695.665 663.034-17.891-10.941s-.116-.106-.132-.173l-8.712-26.954-17.867-16.09.443-.477 17.93 16.153s.057.092.091.147l8.72 26.924 17.797 10.872-.349.546z"/><path d="m498.326 619.281 4.315-.834-.919-4.288 2.861 3.317 3.242-2.943-1.435 4.14 4.191 1.352-4.326.816.948 4.295-2.891-3.324-3.242 2.943 1.435-4.14z"/><path d="m403.394 646.355 4.326-.816-.93-4.306 2.873 3.335 3.26-2.953-1.453 4.151 4.179 1.334-4.315.834.938 4.276-2.88-3.305-3.242 2.942 1.435-4.14z"/><path d="m393.411 701.122 4.315-.835-.919-4.287 2.862 3.317 3.26-2.954-1.442 4.169 4.18 1.334-4.315.835.937 4.276-2.88-3.306-3.242 2.943 1.435-4.14z"/><path d="m467.975 730.932 3.32.313.218-3.311 1.377 3.013 2.986-1.463-1.913 2.706 2.769 1.85-3.309-.296-.236 3.323-1.389-3.031-2.986 1.463 1.913-2.707z"/><path d="m363.092 672.563c-1.396-.078-2.465-1.274-2.398-2.688.068-1.414 1.275-2.465 2.689-2.398 1.396.079 2.465 1.275 2.397 2.689-.078 1.396-1.274 2.465-2.688 2.397z"/><path d="m420.096 610.952c-1.395-.079-2.464-1.274-2.397-2.689.079-1.395 1.275-2.464 2.689-2.397 1.396.079 2.464 1.274 2.397 2.688-.079 1.396-1.274 2.465-2.689 2.398z"/><path d="m414.045 686.576c-1.396-.079-2.464-1.275-2.397-2.689.079-1.396 1.274-2.464 2.689-2.397 1.395.078 2.464 1.274 2.397 2.688-.079 1.396-1.275 2.465-2.689 2.398z"/><path d="m355.533 650.566c.884-.546 1.158-1.706.612-2.59s-1.705-1.159-2.589-.612c-.885.546-1.159 1.705-.613 2.589s1.706 1.159 2.59.613z"/><path d="m380.529 636.58c.545.883.271 2.044-.613 2.589-.883.546-2.044.271-2.589-.612-.546-.883-.271-2.044.612-2.59.883-.545 2.044-.271 2.59.613z"/><path d="m410.047 582.739c.884-.546 1.159-1.706.613-2.59s-1.706-1.158-2.59-.612-1.159 1.705-.613 2.59c.546.884 1.706 1.158 2.59.612z"/><path d="m485.088 742.302c.545.883.271 2.044-.613 2.589-.883.546-2.044.271-2.59-.612-.545-.883-.27-2.044.613-2.59.883-.545 2.044-.271 2.59.613z"/><path d="m411.829 766.847c.885-.546 1.159-1.706.613-2.59s-1.706-1.158-2.59-.612-1.158 1.705-.612 2.589c.546.885 1.705 1.159 2.589.613z"/><path d="m483.256 743.534-11.089-10.794-29.492 2.629-31.62 30.1-.44-.465 31.701-30.175s.129-.08.195-.096l29.752-2.662s.185.013.261.093l11.186 10.912z"/><path d="m442.712 735.347c-.11.068-.266.062-.371-.025l-43.126-33.488-36.193-31.566s-.046-.074-.08-.129l-8.697-21.041.609-.249 8.414 20.377 15.376-31.788c.065-.141.224-.214.384-.16l30.777 8.88s.217.146.219.272l4.496 37.539 28.32 50.968c.08.129.038.307-.08.405l-.037.023zm-79.079-65.406 36.002 31.379 41.863 32.514-27.568-49.627s-.046-.074-.05-.122l-4.472-37.377-30.308-8.738z"/><path d="m410.014 646.537-.636-.166c2.321-8.55 9.742-35.807 10.526-37.995-.186-1.207-6.743-16.807-11.163-27.093l.609-.249c11.562 26.999 11.267 27.385 11.14 27.591-.339.768-7.018 25.152-10.483 37.942z"/><path d="m435.655 734.417 4.297-.823-.919-4.288 2.862 3.317 3.26-2.954-1.424 4.158 4.161 1.346-4.296.823.919 4.287-2.862-3.317-3.26 2.954 1.435-4.14z"/><path d="m312.913 683.848c-1.396-.078-2.464-1.274-2.397-2.688.079-1.396 1.274-2.465 2.689-2.398 1.395.079 2.464 1.275 2.397 2.689-.079 1.396-1.274 2.464-2.689 2.397z"/><path d="m292.505 693.984c-1.395-.078-2.464-1.274-2.397-2.688.067-1.415 1.274-2.465 2.689-2.398 1.396.079 2.464 1.275 2.397 2.689-.079 1.396-1.274 2.464-2.689 2.397z"/><path d="m310.476 669.898c.885-.546 1.159-1.706.613-2.59s-1.706-1.158-2.59-.612-1.159 1.705-.613 2.589c.546.885 1.706 1.159 2.59.613z"/><path d="m275.187 669.396c.884-.546 1.158-1.706.612-2.59s-1.705-1.158-2.59-.612c-.884.546-1.158 1.705-.612 2.59.546.884 1.705 1.158 2.59.612z"/><path d="m277.254 681.719c.546.883.271 2.044-.612 2.589-.884.546-2.044.271-2.59-.612-.545-.883-.271-2.044.613-2.59.883-.545 2.044-.271 2.589.613z"/><path d="m284.565 691.211c.884-.546 1.158-1.706.612-2.59s-1.705-1.158-2.589-.612c-.885.546-1.159 1.705-.613 2.589.546.885 1.706 1.159 2.59.613z"/><path d="m303.968 691.634s-.092.057-.17.054l-11.132.087-9.138-1.831s-.1-.039-.153-.083l-7.934-6.921s-.091-.147-.125-.202l-1.444-14.894.645-.068 1.442 14.768 7.765 6.771 8.99 1.795 10.927-.087 9.046-9.806-3.532-12.842.624-.182 3.586 13.012s.011.222-.07.298l-9.276 10.049s-.055.034-.074.045z"/><path d="m299.521 687.644 4.007 1.796 1.685-4.065.46 4.368 4.359-.557-3.547 2.572 2.663 3.49-4.014-1.766-1.677 4.035-.478-4.357-4.341.546 3.547-2.572z"/><path d="m210.058 764.825 3.491-2.664-2.745-3.415 4.066 1.684 1.595-4.086.545 4.341 4.35-.653-3.49 2.663 2.744 3.415-4.065-1.684-1.595 4.086-.545-4.34z"/><path d="m119.389 705.966c-1.396-.078-2.465-1.274-2.398-2.688.079-1.396 1.275-2.465 2.689-2.398 1.396.079 2.464 1.275 2.397 2.689s-1.274 2.465-2.688 2.397z"/><path d="m328.512 806.018c-1.396-.079-2.465-1.274-2.398-2.689.079-1.395 1.275-2.464 2.689-2.397 1.396.078 2.464 1.274 2.397 2.688-.078 1.396-1.274 2.465-2.688 2.398z"/><path d="m325.926 799.073c.885-.546 1.159-1.705.613-2.59-.546-.884-1.706-1.158-2.59-.612s-1.158 1.706-.612 2.59 1.705 1.158 2.589.612z"/><path d="m350.507 782.192c.545.883.271 2.044-.613 2.589-.883.546-2.044.271-2.589-.612-.546-.883-.271-2.044.612-2.59.884-.545 2.044-.271 2.59.613z"/><path d="m314.869 814.925c.885-.546 1.159-1.706.613-2.59s-1.706-1.158-2.59-.612-1.159 1.705-.613 2.59c.546.884 1.706 1.158 2.59.612z"/><path d="m228.288 761.371c.546.884.271 2.045-.612 2.59-.884.546-2.044.271-2.59-.612-.545-.884-.271-2.045.613-2.59.883-.546 2.044-.271 2.589.612z"/><path d="m107.845 705.799c.546.883.271 2.044-.612 2.589-.883.546-2.044.271-2.59-.612-.545-.883-.271-2.044.613-2.59.883-.545 2.044-.271 2.589.613z"/><path d="m333.154 750.507c.545.883.27 2.044-.613 2.59-.883.545-2.044.271-2.59-.612-.545-.884-.271-2.045.613-2.59.883-.546 2.044-.271 2.59.612z"/><path d="m316.804 744.944c.546.883.271 2.044-.612 2.59-.883.545-2.044.271-2.59-.612-.545-.884-.271-2.045.613-2.59.883-.546 2.044-.271 2.589.612z"/><path d="m330.596 736.402c.884-.546 1.158-1.705.612-2.589-.546-.885-1.705-1.159-2.589-.613-.885.546-1.159 1.706-.613 2.59s1.706 1.158 2.59.612z"/><path d="m138.077 688.682 3.067 3.114 3.068-3.141-1.174 4.233 4.243 1.066-4.234 1.089 1.186 4.225-3.067-3.114-3.051 3.129 1.156-4.221-4.243-1.066 4.252-1.101z"/><path d="m59.1115 507.902 3.3091.295.2175-3.311 1.3889 3.031 2.9863-1.463-1.9131 2.707 2.7503 1.86-3.2907-.306-.2359 3.323-1.389-3.032-2.9862 1.463 1.9131-2.707z"/><path d="m65.47 523.345c-1.3958-.078-2.4646-1.274-2.3973-2.688.0787-1.396 1.2744-2.465 2.6887-2.397 1.3958.078 2.4646 1.274 2.3973 2.688-.0786 1.396-1.2744 2.465-2.6887 2.397z"/><path d="m61.8193 520.973c.8843-.546 1.1585-1.705.6125-2.589-.5461-.885-1.7055-1.159-2.5898-.613s-1.1585 1.706-.6125 2.59 1.7055 1.158 2.5898.612z"/><path d="m64.2011 489.838c.5454.883.2709 2.044-.6125 2.59-.8834.545-2.0443.271-2.5898-.613-.5454-.883-.2709-2.044.6125-2.589.8834-.546 2.0443-.271 2.5898.612z"/><path d="m65.9453 520.739-.6588.127-2.1807-11.313-.843-18.696.6674-.031.8202 18.66z"/><path d="m61.152 519.276-.6133.2c-.2689-.723 1.7249-7.293 2.5907-10.09l.6294.196c-1.3255 4.276-2.6885 9.109-2.5884 9.682z"/><path d="m145.109 534.286 4.368.404.296-4.377 1.843 3.972 3.944-1.928-2.543 3.579 3.648 2.45-4.386-.393-.297 4.378-1.824-3.983-3.945 1.927 2.544-3.579z"/><path d="m177.84 535.504c.546.883.271 2.044-.612 2.589-.884.546-2.045.271-2.59-.612s-.271-2.044.613-2.59c.883-.545 2.044-.271 2.589.613z"/><path d="m160.046 542.297c.546.883.271 2.044-.612 2.59-.884.545-2.045.271-2.59-.612-.546-.884-.271-2.045.612-2.59.884-.546 2.045-.271 2.59.612z"/><path d="m171.436 528.096c.545.883.271 2.044-.613 2.589-.883.546-2.044.272-2.59-.612-.545-.883-.27-2.044.613-2.59.883-.545 2.044-.271 2.59.613z"/><path d="m186.833 541.669-10.6-4.817-17.654 6.733c-.104.038-.241.021-.335-.048l-7.733-6.842s-.113-.184-.104-.291c.01-.108.098-.213.201-.252l19.104-7.348c.122-.05.271-.015.358.084l6.063 6.856-.477.422-5.913-6.695-18.38 7.08 7.185 6.366 17.599-6.698s.163-.024.252-.003l10.742 4.881-.267.597z"/><path d="m185.571 537.237 3.078 3.133 3.039-3.148-1.155 4.222 4.242 1.066-4.24 1.118 1.203 4.214-3.078-3.132-3.057 3.159 1.174-4.233-4.243-1.066 4.223-1.108z"/><path d="m39.0333 473.452c.5455.883.2709 2.044-.6125 2.589-.8833.546-2.0443.271-2.5897-.612-.5455-.883-.2709-2.044.6125-2.59.8833-.545 2.0443-.271 2.5897.613z"/><path d="m30.3385 425.49 3.2907.307.2358-3.323 1.389 3.031 2.9863-1.463-1.9132 2.707 2.7504 1.86-3.3021-.325-.2359 3.323-1.3776-3.013-2.9862 1.463 1.9131-2.707z"/><path d="m14.3703 445.162c-1.3958-.078-2.4646-1.274-2.3973-2.688.0787-1.396 1.2744-2.465 2.6887-2.398 1.4142.068 2.4646 1.275 2.3973 2.689-.0786 1.396-1.2744 2.464-2.6887 2.397z"/><path d="m31.467 421.183c.5454.884.2709 2.045-.6125 2.59-.8834.546-2.0443.271-2.5898-.612-.5454-.884-.2709-2.044.6125-2.59.8834-.545 2.0443-.271 2.5898.612z"/><path d="m36.7689 414.249c.5454.883.2709 2.044-.6125 2.59-.8834.545-2.0443.271-2.5898-.613-.5454-.883-.2709-2.044.6125-2.589.8834-.546 2.0443-.271 2.5898.612z"/><path d="m30.1288 431.161c.5455.883.2709 2.044-.6125 2.59-.8833.545-2.0443.271-2.5897-.613-.5455-.883-.2709-2.044.6125-2.59.8833-.545 2.0443-.271 2.5897.613z"/><path d="m14.3799 442.996-.3961-.518 14.2448-10.525 1.6158-10.022s.0395-.1.065-.142l5.0074-6.752c.0877-.105.2392-.148.3697-.101.1304.046.2099.175.2045.331l-.4654 11.803s-.0422.178-.1159.224l-5.4016 4.632-.433-.496 5.2842-4.534.4177-10.603-4.3215 5.846-1.63 10.081s-.0536.16-.1272.206l-14.3552 10.592z"/><path d="m146.794 430.677 4.367.404.297-4.377 1.854 3.99 3.933-1.946-2.532 3.597 3.648 2.45-4.368-.404-.315 4.389-1.824-3.983-3.945 1.927 2.533-3.597z"/><path d="m120.039 495.292c.545.884.271 2.045-.613 2.59-.883.546-2.044.271-2.589-.612-.546-.884-.271-2.044.612-2.59.883-.545 2.044-.271 2.59.612z"/><path d="m134.643 470.488c-1.396-.078-2.464-1.274-2.397-2.688.079-1.396 1.274-2.465 2.689-2.397 1.395.078 2.464 1.274 2.397 2.688s-1.275 2.465-2.689 2.397z"/><path d="m197.429 460.519 3.321.314.217-3.312 1.378 3.013 2.986-1.463-1.913 2.707 2.769 1.849-3.309-.295-.236 3.323-1.389-3.032-2.986 1.463 1.913-2.707z"/><path d="m108.636 510.214 3.309.295.218-3.312 1.407 3.02 2.986-1.462-1.931 2.718 2.769 1.849-3.31-.296-.217 3.312-1.407-3.02-2.987 1.463 1.932-2.718z"/><path d="m218.659 467.11c-1.396-.079-2.465-1.274-2.398-2.689.079-1.395 1.275-2.464 2.689-2.397s2.465 1.274 2.397 2.689c-.067 1.414-1.274 2.464-2.688 2.397z"/><path d="m103.033 379.94c-1.396-.078-2.465-1.274-2.398-2.688.068-1.414 1.275-2.465 2.689-2.397 1.396.078 2.465 1.274 2.397 2.688-.078 1.396-1.274 2.465-2.688 2.397z"/><path d="m183.457 465.969c-1.395-.079-2.464-1.274-2.397-2.689.079-1.395 1.275-2.464 2.689-2.397 1.396.079 2.464 1.274 2.397 2.689-.067 1.414-1.274 2.464-2.689 2.397z"/><path d="m210.888 462.884c.885-.546 1.159-1.705.613-2.59-.546-.884-1.706-1.158-2.59-.612s-1.158 1.705-.612 2.59c.546.884 1.705 1.158 2.589.612z"/><path d="m121.993 409.082c.546.883.271 2.044-.612 2.59-.884.545-2.044.271-2.59-.613-.545-.883-.271-2.044.613-2.59.883-.545 2.044-.271 2.589.613z"/><path d="m218.682 464.884-8.811-3.278-8.029.789-18.235 1.346s-.197-.03-.261-.093l-30.49-30.029-17.817 34.464-16.354 28.351-5.394 15.43-.611-.207 5.419-15.472 16.38-28.391 18.004-34.86s.132-.157.24-.148c.096-.008.215.02.279.082l30.693 30.234 18.061-1.34 8.095-.805s.097-.008.138.017l8.901 3.299-.238.604z"/><path d="m152.96 433.377c-.11.068-.248.051-.36-.007l-32.397-23.03s-.075-.081-.098-.117l-17.199-32.67.575-.304 17.183 32.603 32.117 22.822 22.518-22.979.458.454-22.705 23.171s-.037.023-.073.046z"/><path d="m169.825 406.923 3.725 2.327 2.255-3.757-.17 4.375 4.386.063-3.866 2.056 2.13 3.82-3.724-2.327-2.245 3.776.171-4.376-4.386-.063 3.865-2.056z"/></g><g fill="#ffa135"><path d="m161.802 113.782 4.368.405.297-4.378 1.842 3.972 3.945-1.928-2.544 3.579 3.648 2.45-4.368-.404-.296 4.377-1.843-3.971-3.944 1.927 2.543-3.579z"/><path d="m350.357 168.873 4.368.404.297-4.378 1.842 3.972 3.945-1.927-2.544 3.579 3.648 2.449-4.367-.404-.297 4.378-1.842-3.972-3.945 1.928 2.544-3.579z"/><path d="m665.637 81.5075 4.368.4041.297-4.3774 1.842 3.9717 3.945-1.9276-2.544 3.579 3.648 2.4499-4.368-.4041-.296 4.3774-1.843-3.9717-3.944 1.9276 2.543-3.579z"/><path d="m499.563 214.117 4.368.404.297-4.377 1.842 3.971 3.945-1.927-2.544 3.579 3.649 2.45-4.368-.405-.297 4.378-1.842-3.972-3.945 1.928 2.544-3.579z"/></g></g></svg>