<svg fill="none" height="840" viewBox="0 0 1206 840" width="1206" xmlns="http://www.w3.org/2000/svg"><g fill="#75a3c1" opacity=".3"><path d="m481.362 533.32c-1.471 0-2.666-1.185-2.666-2.644 0-1.458 1.195-2.644 2.666-2.644s2.667 1.186 2.667 2.644c0 1.459-1.196 2.644-2.667 2.644z"/><path d="m459.998 508.917c0 1.46 1.194 2.644 2.667 2.644s2.667-1.184 2.667-2.644-1.194-2.644-2.667-2.644-2.667 1.184-2.667 2.644z"/><path d="m432.137 477.586c0 1.46 1.194 2.644 2.667 2.644 1.472 0 2.666-1.184 2.666-2.644s-1.194-2.644-2.666-2.644c-1.473 0-2.667 1.184-2.667 2.644z"/><path d="m426.65 494.786c1.135-1.61 3.372-2.005 5.027-.881 1.625 1.124 2.023 3.343.889 4.984s-3.372 2.006-5.027.881c-1.624-1.124-2.023-3.343-.889-4.984z"/><path d="m391.77 471.417c1.134-1.611 3.372-2.006 5.027-.881 1.655 1.124 2.023 3.342.889 4.983-1.135 1.611-3.372 2.006-5.027.882-1.625-1.125-2.023-3.343-.889-4.984z"/><path d="m394.253 473.453s.03-.213.122-.304c.092-.122.245-.152.399-.152l40.091 4.133s.245.091.306.182c.062.091.123.243.092.365l-3.555 18.872 31.141 11.943s.123.06.184.121l18.697 21.759 13.456 24.98-.828.426-13.394-24.889-18.575-21.607-31.386-12.034c-.215-.092-.337-.304-.276-.517l3.525-18.75-38.957-4.012 4.996 21.668 29.302.76v.911l-29.701-.759c-.214 0-.398-.152-.429-.365l-5.241-22.61s0-.061 0-.091z"/><path d="m410.958 496.731-6.069 1.368 1.532 5.956-4.23-4.498-4.444 4.285 1.808-5.895-5.976-1.672 6.068-1.367-1.532-5.987 4.23 4.528 4.475-4.285-1.839 5.865z"/><path d="m504.228 556.72-6.039 1.367 1.502 5.987-4.23-4.528-4.444 4.315 1.839-5.895-5.977-1.672 6.038-1.367-1.501-5.987 4.229 4.528 4.445-4.315-1.839 5.895z"/><path d="m426.614 762.487-5.517 2.857 2.973 5.409-5.241-3.312-3.218 5.257.275-6.138-6.222-.152 5.518-2.827-3.004-5.409 5.272 3.313 3.218-5.288-.276 6.169z"/><path d="m321.85 687.121-3.739 4.923 5.057 3.586-6.161-.729-.613 6.139-2.421-5.683-5.671 2.553 3.74-4.924-5.058-3.585 6.161.729.613-6.139 2.422 5.683z"/><path d="m286.62 625.205-2.72 5.578 5.651 2.55-6.192.436.575 6.142-3.46-5.083-5.082 3.562 2.726-5.548-5.651-2.55 6.193-.436-.575-6.142 3.46 5.083z"/><path d="m437.701 791.888-3.553 3.012 3.151 3.497-4.454-1.575-1.452 4.441-.872-4.581-4.603.944 3.583-3.005-3.151-3.497 4.425 1.568 1.452-4.441.871 4.581z"/><path d="m391.549 669.222c1.134-1.61 3.372-2.005 5.027-.881 1.625 1.124 2.023 3.343.889 4.984-1.134 1.611-3.372 2.006-5.027.881-1.624-1.124-2.023-3.343-.889-4.984z"/><path d="m321.789 753.188c1.134-1.61 3.372-2.006 5.027-.881 1.624 1.124 2.023 3.343.889 4.984-1.134 1.61-3.372 2.005-5.027.881s-2.023-3.343-.889-4.984z"/><path d="m378.309 600.481c1.134-1.61 3.371-2.005 5.026-.881 1.625 1.124 2.023 3.343.889 4.984-1.134 1.611-3.371 2.006-5.027.881-1.624-1.124-2.022-3.343-.888-4.984z"/><path d="m310.399 611.766c1.003-1.425 2.981-1.774 4.445-.78 1.437.995 1.789 2.956.786 4.407-1.003 1.425-2.981 1.774-4.445.78-1.436-.995-1.789-2.956-.786-4.407z"/><path d="m503.517 752.277c1.134-1.611 3.371-2.006 5.026-.881 1.625 1.124 2.023 3.342.889 4.983s-3.371 2.006-5.026.882c-1.625-1.125-2.023-3.343-.889-4.984z"/><path d="m473.48 710.217c1.134-1.61 3.371-2.005 5.026-.881 1.625 1.125 2.023 3.343.889 4.984-1.134 1.611-3.371 2.006-5.027.881-1.655-1.124-2.023-3.342-.888-4.984z"/><path d="m441.541 716.113c1.134-1.611 3.372-2.006 5.027-.881 1.624 1.124 2.023 3.343.889 4.984-1.134 1.61-3.372 2.005-5.027.881-1.625-1.125-2.023-3.343-.889-4.984z"/><path d="m436.913 655.243-5.762 1.763 1.9 5.652-4.414-4.072-3.984 4.467 1.348-5.835-5.885-1.215 5.763-1.732-1.901-5.653 4.383 4.072 4.016-4.467-1.349 5.835z"/><path d="m369.125 622.141-3.761 4.415 4.534 3.623-5.731-1.002-.9 5.72-1.979-5.446-5.426 2.126 3.752-4.444-4.526-3.594 5.731 1.002.871-5.712 2 5.409z"/><path d="m419.396 794.761c0 1.46 1.194 2.643 2.666 2.643 1.473 0 2.667-1.183 2.667-2.643 0-1.461-1.194-2.644-2.667-2.644-1.472 0-2.666 1.183-2.666 2.644z"/><path d="m506.459 704.839c-1.471 0-2.666-1.185-2.666-2.644s1.195-2.644 2.666-2.644c1.472 0 2.667 1.185 2.667 2.644s-1.195 2.644-2.667 2.644z"/><path d="m416.867 741.337c-1.471 0-2.667-1.186-2.667-2.644 0-1.459 1.196-2.644 2.667-2.644s2.667 1.185 2.667 2.644c0 1.458-1.196 2.644-2.667 2.644z"/><path d="m323.965 645.609c-1.471 0-2.666-1.185-2.666-2.644 0-1.458 1.195-2.643 2.666-2.643s2.667 1.185 2.667 2.643c0 1.459-1.196 2.644-2.667 2.644z"/><path d="m336.992 760.056c-1.472 0-2.667-1.185-2.667-2.644s1.195-2.644 2.667-2.644c1.471 0 2.666 1.185 2.666 2.644s-1.195 2.644-2.666 2.644z"/><path d="m238.48 706.784c-1.471 0-2.667-1.186-2.667-2.644 0-1.459 1.196-2.644 2.667-2.644s2.666 1.185 2.666 2.644c0 1.458-1.195 2.644-2.666 2.644z"/><path d="m226.22 709.852c-1.471 0-2.667-1.185-2.667-2.643 0-1.459 1.196-2.644 2.667-2.644s2.667 1.185 2.667 2.644c0 1.458-1.196 2.643-2.667 2.643z"/><path d="m226.097 706.753 12.199-3.039 85.424-61.143s.368-.122.521 0c.153.091.245.304.214.456l-8.735 49.504 9.532 62.633-.919.121-9.532-62.724s0-.091 0-.151l8.551-48.472-84.565 60.536s-.092.061-.154.061l-12.26 3.039-.214-.881z"/><path d="m314.77 692.652.889-.273 21.792 64.881-.889.304z"/><path d="m417.664 763.893c0-.146.153-.272.368-.313.245-.021.46.062.521.209l13.272 30.176-.889.189-12.015-27.289 3.433 27.833-.92.063-3.801-30.826s0 0 0-.021z"/><path d="m323.505 642.966s0-.061 0-.091c0-.152.123-.274.276-.335l38.405-16.592c.184-.091.43 0 .552.152l31.908 44.611 33.286-14.495c.184-.092.399 0 .521.121l48.091 55.4 29.732-9.968s.306 0 .429.061c.122.091.184.213.184.365v52.118c0 .212-.123.364-.307.425s-.398 0-.521-.182l-29.884-41.846-31.509 5.834-27.371 20.331 1.256 25.101-.919.061-1.288-25.193-92.749-95.605s-.122-.212-.122-.304zm38.712-16.015-37.455 16.167 92.136 94.967 27.341-20.3s.122-.061.183-.092l31.142-5.774-47.57-54.761-33.318 14.526c-.214.091-.429 0-.551-.152l-31.908-44.612zm143.783 75.912-28.843 9.664 28.843 40.418v-50.051z"/><path d="m362.002 626.069 18.881-23.855s.215-.183.368-.183.276.061.368.152l46.865 54.093-.705.608-46.497-53.668-18.544 23.4-.736-.577z"/><path d="m280.813 632.295 1.218.528 31.36-18.907s.174.036.271.034l67.401-10.842v-.75l-68.063 10.75z"/><path d="m1193.07 329.7-3.74 4.923 5.06 3.586-6.2-.73-.58 6.139-2.45-5.683-5.67 2.553 3.74-4.923-5.06-3.586 6.19.729.59-6.138 2.45 5.682z"/><path d="m1157.08 453.354-3.74 4.923 5.06 3.586-6.19-.729-.58 6.138-2.45-5.682-5.67 2.552 3.74-4.923-5.06-3.586 6.19.73.58-6.139 2.45 5.683z"/><path d="m1154.05 379.599c1.13-1.611 3.37-2.006 5.03-.881 1.62 1.124 2.02 3.342.89 4.983-1.14 1.611-3.38 2.006-5.03.882-1.63-1.125-2.02-3.343-.89-4.984z"/><path d="m1149.88 458.763s0 0 0-.03l6.65-77.128s0-.152.06-.213l29.28-46.557c.09-.182.3-.243.49-.212l53.36 13.189 9.87-2.158s.27 0 .4.091c.12.091.18.213.18.365v16.501h-.92v-15.924l-9.19 2.006-26.88 56.798s-.07.121-.13.152l-62.46 53.455s-.34.152-.52.06c-.16-.091-.25-.243-.25-.395zm7.57-76.976-6.56 75.882 61.52-52.664 26.7-56.403-52.63-12.976-29.06 46.161z"/><path d="m743.927 635.651-3.74 4.923 5.058 3.586-6.161-.729-.613 6.138-2.452-5.682-5.671 2.552 3.74-4.923-5.058-3.586 6.192.73.582-6.139 2.452 5.683z"/><path d="m706.961 652.973c1.135-1.611 3.372-2.006 5.027-.881 1.625 1.124 2.023 3.342.889 4.983s-3.372 2.006-5.027.882c-1.655-1.125-2.023-3.343-.889-4.984z"/><path d="m767.619 605.201c-1.471 0-2.667-1.185-2.667-2.644s1.196-2.644 2.667-2.644 2.667 1.185 2.667 2.644-1.196 2.644-2.667 2.644z"/><path d="m737.765 619.272c-1.471 0-2.666-1.186-2.666-2.644 0-1.459 1.195-2.644 2.666-2.644 1.472 0 2.667 1.185 2.667 2.644 0 1.458-1.195 2.644-2.667 2.644z"/><path d="m709.689 654.614 27.003-13.857.613-24.16c0-.182.123-.334.276-.395l29.394-13.827-20.198-29.174.766-.516 20.505 29.629s.092.243.061.365c-.03.121-.122.243-.245.304l-29.608 13.949-.613 24.129c0 .152-.092.304-.246.395l-27.248 13.979-.429-.821z"/><path d="m754.102 572.958-6.191.274.398 6.138-3.341-5.196-5.149 3.434 2.85-5.47-5.578-2.705 6.222-.274-.429-6.138 3.341 5.196 5.18-3.434-2.881 5.47z"/><path d="m1044.08 624.196 82.11-117.516-11.03-3.707-26.57 19.905-.56-.73 26.79-20.057s.28-.121.43-.061l11.86 3.981s.25.152.28.304c.03.122 0 .274-.06.395l-82.48 118.002z"/><path d="m1112.13 500.45c1.13-1.61 3.37-2.005 5.02-.881 1.63 1.124 2.03 3.343.89 4.984-1.13 1.611-3.37 2.006-5.03.881-1.62-1.124-2.02-3.343-.88-4.984z"/><path d="m1044.45 627.113c-1.47 0-2.67-1.185-2.67-2.644 0-1.458 1.2-2.644 2.67-2.644s2.67 1.186 2.67 2.644c0 1.459-1.2 2.644-2.67 2.644z"/><path d="m1126.93 509.08c-1.47 0-2.67-1.185-2.67-2.643 0-1.459 1.2-2.644 2.67-2.644s2.67 1.185 2.67 2.644c0 1.458-1.2 2.643-2.67 2.643z"/><path d="m1094.93 524.093-6.07 1.368 1.53 5.986-4.23-4.528-4.44 4.285 1.81-5.865-5.98-1.702 6.07-1.367-1.53-5.987 4.23 4.528 4.47-4.285-1.84 5.896z"/><path d="m1017.12 701.116 1.69 4.366 4.32-1.829-2.97 3.68 3.71 2.842-4.61-.696-.63 4.655-1.65-4.376-4.35 1.813 2.95-3.654-3.71-2.842 4.61.696z"/><path d="m938.642 745.919c-.771-1.813.073-3.922 1.901-4.736 1.812-.788 3.907.044 4.704 1.872.77 1.813-.074 3.923-1.902 4.736-1.812.788-3.907-.043-4.703-1.872z"/><path d="m918.939 749.89c-.775 1.25-2.413 1.641-3.652.872-1.24-.769-1.617-2.41-.841-3.66s2.413-1.641 3.653-.872c1.239.769 1.616 2.41.84 3.66z"/><path d="m947.53 724.849c-.775 1.251-2.413 1.641-3.652.872s-1.616-2.409-.841-3.659c.776-1.251 2.413-1.641 3.653-.872 1.239.769 1.616 2.409.84 3.659z"/><path d="m960.475 703.987c-.776 1.25-2.413 1.641-3.653.872-1.239-.769-1.616-2.409-.84-3.66.775-1.25 2.413-1.641 3.652-.871 1.24.769 1.617 2.409.841 3.659z"/><path d="m992.763 717.024c-.775 1.251-2.413 1.641-3.652.872-1.24-.769-1.616-2.409-.841-3.659.776-1.251 2.413-1.641 3.653-.872 1.239.769 1.616 2.409.84 3.659z"/><path d="m1070.65 710.99c1.24.77 2.87.379 3.65-.872s.4-2.89-.84-3.66-2.88-.379-3.65.872c-.78 1.251-.4 2.89.84 3.66z"/><path d="m916.45 748.887s-.155-.096-.158-.206c-.09-.201-.029-.415.12-.539l28.533-25.005 12.912-20.809c.113-.183.356-.285.552-.199l32.118 12.967 27.223-7.963s.08-.02.15-.014l54.17 1.113-.03.917-54.1-1.106-27.31 7.982s-.194.024-.313-.014l-31.905-12.906-12.702 20.471-3.322 20.916c-.019.205-.21.339-.378.379l-25.272 4.014s-.22.008-.323-.056zm28.175-24.253-26.456 23.155 23.37-3.715z"/><path d="m787.525 528.691-5.793 2.158 2.352 5.735-4.813-3.913-3.804 4.857.997-6.096-6.157-.879 5.794-2.157-2.353-5.736 4.814 3.914 3.803-4.858-.996 6.097z"/><path d="m1106.33 327.041-5.79 2.157 2.35 5.736-4.84-3.93-3.77 4.874.97-6.113-6.16-.879 5.79-2.157-2.35-5.736 4.82 3.914 3.8-4.858-.97 6.113z"/><path d="m1126.8 119.221-4.87 3.787 3.97 4.784-5.75-2.315-2.18 5.781-.89-6.145-6.13 1.014 4.89-3.813-3.97-4.783 5.78 2.331 2.14-5.797.9 6.144z"/><path d="m1008.39 277.068-5.81 2.183 2.35 5.736-4.8-3.94-3.801 4.858.98-6.071-6.156-.879 5.81-2.182-2.353-5.736 4.797 3.939 3.803-4.857-.98 6.07z"/><path d="m869.817 472.975c1.82-.753 3.921.111 4.718 1.946.77 1.819-.081 3.907-1.917 4.686-1.82.753-3.921-.11-4.718-1.946-.77-1.819.081-3.907 1.917-4.686z"/><path d="m927.721 480.775c1.82-.753 3.922.111 4.718 1.946.77 1.819-.08 3.907-1.917 4.686-1.82.753-3.921-.11-4.717-1.946-.771-1.819.08-3.907 1.916-4.686z"/><path d="m1010.61 314.739c1.82-.754 3.92.11 4.72 1.946.77 1.819-.08 3.906-1.92 4.685-1.84.78-3.92-.11-4.72-1.946-.8-1.835.08-3.906 1.92-4.685z"/><path d="m1155.06 184.4c1.82-.754 3.92.11 4.72 1.946.79 1.835-.09 3.906-1.92 4.685-1.82.754-3.92-.11-4.72-1.946-.77-1.819.08-3.906 1.92-4.685z"/><path d="m1014.75 444.957c1.82-.753 3.93.11 4.72 1.946.77 1.819-.08 3.907-1.91 4.686-1.82.753-3.93-.111-4.72-1.946-.77-1.819.08-3.907 1.91-4.686z"/><path d="m902.441 418.852c1.82-.753 3.922.11 4.718 1.946s-.08 3.906-1.917 4.686c-1.836.779-3.921-.111-4.718-1.946-.77-1.82.081-3.907 1.917-4.686z"/><path d="m915.292 470.669c-1.242-.787-1.618-2.428-.837-3.66s2.425-1.594 3.667-.806c1.243.787 1.619 2.428.838 3.66s-2.425 1.594-3.668.806z"/><path d="m862.889 459.915c-1.243-.787-1.619-2.428-.838-3.66s2.425-1.594 3.668-.806c1.242.787 1.618 2.428.837 3.66s-2.425 1.594-3.667.806z"/><path d="m812.885 455.107c-1.243-.787-1.618-2.428-.837-3.66.78-1.232 2.424-1.594 3.667-.806 1.243.787 1.618 2.428.838 3.66-.781 1.232-2.425 1.594-3.668.806z"/><path d="m781.288 475.884c-1.242-.787-1.618-2.428-.837-3.661.781-1.232 2.425-1.593 3.668-.806 1.242.788 1.618 2.429.837 3.661s-2.425 1.593-3.668.806z"/><path d="m813.24 512.389c-1.243-.787-1.619-2.428-.838-3.66s2.425-1.594 3.668-.806c1.243.787 1.618 2.428.837 3.66-.78 1.232-2.425 1.594-3.667.806z"/><path d="m940.319 493.363c-1.243-.788-1.618-2.429-.837-3.661.78-1.232 2.425-1.593 3.667-.806 1.243.787 1.619 2.428.838 3.661-.781 1.232-2.425 1.593-3.668.806z"/><path d="m976.008 221.08c-1.243-.788-1.618-2.428-.838-3.661.781-1.232 2.425-1.593 3.668-.806 1.243.788 1.618 2.429.837 3.661-.78 1.232-2.425 1.593-3.667.806z"/><path d="m1035.25 291.358c-.78 1.234-.4 2.872.84 3.661 1.25.788 2.89.427 3.67-.806.78-1.234.41-2.873-.84-3.661-1.24-.788-2.88-.427-3.67.806z"/><path d="m1027.93 206.2c-1.25-.788-1.62-2.429-.84-3.661s2.42-1.593 3.67-.806c1.24.787 1.61 2.428.83 3.66-.78 1.233-2.42 1.594-3.66.807z"/><path d="m1017.44 162.214c-1.24-.787-1.62-2.428-.84-3.661.78-1.232 2.43-1.593 3.67-.806 1.24.788 1.62 2.429.84 3.661s-2.43 1.593-3.67.806z"/><path d="m1121.09 286.921c-1.25-.787-1.62-2.428-.84-3.661.78-1.232 2.42-1.593 3.67-.806 1.24.788 1.62 2.429.83 3.661-.78 1.232-2.42 1.593-3.66.806z"/><path d="m1130.9 271.442c-1.25-.788-1.62-2.429-.84-3.661s2.42-1.594 3.67-.806c1.24.787 1.61 2.428.83 3.66-.78 1.233-2.42 1.594-3.66.807z"/><path d="m1043.73 286.114c-1.24-.787-1.62-2.428-.84-3.66s2.43-1.594 3.67-.806c1.24.787 1.62 2.428.84 3.66s-2.43 1.594-3.67.806z"/><path d="m1050.28 487.844c-1.25-.788-1.62-2.429-.84-3.661s2.43-1.593 3.67-.806 1.62 2.428.84 3.661c-.79 1.232-2.43 1.593-3.67.806z"/><path d="m1006.85 470.669c-1.25-.787-1.62-2.428-.84-3.66s2.42-1.594 3.67-.806c1.24.787 1.61 2.428.83 3.66s-2.42 1.594-3.66.806z"/><path d="m914.099 431.779c-1.243-.787-1.619-2.428-.838-3.661.781-1.232 2.425-1.593 3.668-.806 1.242.788 1.618 2.429.837 3.661s-2.425 1.593-3.667.806z"/><path d="m1018.42 160.099.88-.195 10.5 43.96 15.79 79.941s-.02.271-.09.373l-7.65 8.93-24.85 24.619 84.45 9.764 24.67-43.008 9.78-15.427 24.44-82.441-38.18-63.906.81-.463 38.28 64.081s.07.226.06.362l-24.52 82.679s-.05.077-.07.103l-9.8 15.479-24.8 43.255c-.09.154-.25.233-.44.186l-85.71-9.909c-.18-.005-.31-.129-.38-.314-.06-.185-.01-.329.12-.467l25.47-25.265 7.49-8.715-15.76-79.704-10.5-43.96z"/><path d="m976.994 219.007.856-.32 22.35 59.165 12.24 40.063s.02.194.02.262l-34.987 112.996 73.977 53.673 45.83-157.03.88.27-46 157.642s-.16.257-.29.284c-.14.054-.3.023-.43-.059l-74.775-54.249c-.156-.098-.23-.325-.158-.495l35.053-113.167-12.203-39.895-22.337-59.123z"/><path d="m904.313 421.909 11.444 7.251s.21.241.197.377l1.189 38.096 59.527-36.681c.192-.131.448-.077.596.09.149.166.148.453-.017.6l-47.406 52.313 12.11 6.773s.129.082.174.182l-.174-.182s.083.269.028.413l.491.364-1.812-.473h.41l.352.475-12.514-6.993s-.2-.199-.229-.326c-.029-.126.027-.271.092-.373l45.644-50.335-57.45 35.408s-.311.09-.441.008c-.129-.082-.252-.232-.222-.393l-1.204-38.645-11.444-7.251s-.201-.199-.213-.351z"/><path d="m782.465 473.283 31.571-20.793s.201-.088.295-.064l50.003 4.808c.178.005.317.129.398.288l6.79 18.261 45.105-7.793.16.893-45.468 7.85c-.211.047-.418-.085-.492-.311l-6.81-18.346-49.552-4.774-31.438 20.697-.504-.75z"/><path d="m778.686 529.242 35.746-19.479s.117-.07.185-.063l57.978-4.457-1.814-28.922.915-.069 1.851 29.378c.015.262-.183.46-.42.49l-58.324 4.49-35.646 19.434-.445-.786z"/><path d="m872.899 505.22 56.053-21.578.329.856-56.027 21.594z"/><path d="m876.859 512.945-4.379-4.429-4.308 4.394 1.654-5.932-6.022-1.549 6.007-1.519-1.714-5.942 4.378 4.429 4.308-4.394-1.654 5.931 6.022 1.549-6.006 1.519z"/><path d="m981.933 438.279-4.921-3.801-3.648 4.956.792-6.118-6.144-.727 5.713-2.316-2.495-5.682 4.921 3.801 3.674-4.939-.834 6.127 6.185.717-5.739 2.3z"/><path d="m1052.96 759.867 4.57 1.101.96-4.609 1.35 4.497 4.44-1.454-3.18 3.41 3.48 3.155-4.56-1.073-.93 4.596-1.36-4.524-4.44 1.454 3.18-3.41z"/><path d="m1058.96 762.777-.71.564 24.27 31.069.72-.565z"/><path d="m1081.15 787.069 3.69 4.974 4.87-3.788-2.44 5.696 5.74 2.327-6.13.695.88 6.143-3.69-4.974-4.87 3.788 2.44-5.697-5.75-2.327 6.14-.694z"/><path d="m755.254 675.415c1.78.843 2.55 2.981 1.724 4.803-.831 1.792-2.949 2.563-4.759 1.725-1.811-.838-2.551-2.981-1.725-4.803.831-1.793 2.949-2.563 4.76-1.725z"/><path d="m699.191 753.226c1.78.844 2.55 2.981 1.724 4.804-.826 1.822-2.949 2.562-4.759 1.724-1.781-.843-2.551-2.98-1.725-4.803.831-1.792 2.949-2.563 4.76-1.725z"/><path d="m841.864 757.555c1.781.843 2.551 2.98 1.725 4.803-.826 1.822-2.949 2.563-4.76 1.725-1.78-.844-2.55-2.981-1.724-4.804.831-1.792 2.949-2.562 4.759-1.724z"/><path d="m779.659 754.869c-1.439.249-2.402 1.627-2.151 3.078.25 1.451 1.62 2.426 3.059 2.177 1.439-.248 2.402-1.626 2.151-3.078-.251-1.451-1.62-2.426-3.059-2.177z"/><path d="m791.476 743.309c-.25-1.45.714-2.83 2.151-3.078 1.438-.249 2.809.727 3.06 2.177s-.714 2.83-2.151 3.078-2.809-.728-3.06-2.177z"/><path d="m764.075 749.818c-1.439.249-2.402 1.627-2.151 3.078.251 1.452 1.62 2.426 3.059 2.178 1.439-.249 2.402-1.627 2.151-3.078-.251-1.452-1.62-2.426-3.059-2.178z"/><path d="m779.808 731.826-4.164-2.142-2.012 4.236-.225-4.689-4.66.339 3.909-2.542-2.647-3.897 4.163 2.142 2.043-4.241.225 4.689 4.659-.339-3.903 2.572z"/><path d="m754.182 678.493 21.268 48.643s.042.241.003.373l-10.524 25.116s-.203.253-.382.284l-66.839 4.057-.067-.922 66.534-4.035 10.322-24.677-21.207-48.467.832-.362z"/><path d="m794.003 742.405s.15-.026.25.019l46.283 17.973-.313.863-46.017-17.863-14.235 14.529s-.309.178-.479.083l-15.11-5.165.283-.857 14.845 5.054 14.234-14.529s.164-.122.254-.137z"/><path d="m793.8 743.342.572-.714-19.057-15.529-.572.714z"/><path d="m184.352 630.8-2.82 3.708 3.801 2.735-4.659-.578-.46 4.65-1.839-4.285-4.291 1.915 2.82-3.708-3.832-2.735 4.69.578.46-4.65 1.839 4.285z"/><path d="m150.128 755.088-3.74 4.923 5.058 3.586-6.161-.729-.613 6.108-2.421-5.653-5.671 2.553 3.74-4.953-5.058-3.586 6.161.759.613-6.138 2.452 5.652z"/><path d="m77.1484 668.903-4.7202 4.012 4.1685 4.589-5.8849-2.036-1.9004 5.865-1.1647-6.048-6.0995 1.277 4.7203-4.012-4.1379-4.589 5.8543 2.037 1.931-5.866 1.1341 6.048z"/><path d="m62.0996 835.349c.8587-1.219 2.5529-1.518 3.8062-.667 1.23.852 1.5317 2.531.673 3.774-.8587 1.219-2.5529 1.519-3.8061.667-1.2533-.851-1.5318-2.531-.6731-3.774z"/><path d="m164.993 751.715c1.134-1.611 3.371-2.006 5.026-.882 1.655 1.125 2.023 3.343.889 4.984-1.134 1.611-3.371 2.006-5.026.882-1.625-1.125-2.023-3.343-.889-4.984z"/><path d="m.766598 675.468c1.134082-1.611 3.371632-2.006 5.026772-.882 1.62449 1.125 2.02297 3.343.88889 4.984-1.13407 1.611-3.37162 2.006-5.02676.882-1.624494-1.125-2.02298-3.343-.888902-4.984z"/><path d="m99.2164 662.158c1.1336-1.611 3.3716-2.006 5.0266-.882 1.625 1.125 2.023 3.343.889 4.984-1.134 1.611-3.372 2.006-5.027.882-1.6243-1.125-2.0227-3.343-.8886-4.984z"/><path d="m122.113 780.663-7.571 5.227 5.456 7.384-8.368-3.859-3.739 8.357-.766-9.117-9.1956 1.003 7.5706-5.257-5.456-7.385 8.368 3.89 3.739-8.388.767 9.148z"/><path d="m56.1831 602.229-7.5707 5.227 5.4558 7.385-8.3677-3.89-3.7087 8.388-.797-9.117-9.1645.972 7.5707-5.227-5.4558-7.384 8.3677 3.889 3.7087-8.387.797 9.117z"/><path d="m88.2342 804.253c0 1.46 1.1939 2.644 2.6666 2.644s2.6666-1.184 2.6666-2.644-1.1939-2.644-2.6666-2.644-2.6666 1.184-2.6666 2.644z"/><path d="m199.724 753.741c0 1.46 1.194 2.644 2.667 2.644s2.667-1.184 2.667-2.644c0-1.461-1.194-2.644-2.667-2.644s-2.667 1.183-2.667 2.644z"/><path d="m205.789 779.612c0 1.46 1.194 2.644 2.667 2.644s2.667-1.184 2.667-2.644-1.194-2.644-2.667-2.644-2.667 1.184-2.667 2.644z"/><path d="m65.5624 772.349c-1.4712 0-2.6666-1.185-2.6666-2.644s1.1954-2.644 2.6666-2.644 2.6666 1.185 2.6666 2.644-1.1954 2.644-2.6666 2.644z"/><path d="m138.879 794.503c-1.471 0-2.667-1.185-2.667-2.644 0-1.458 1.196-2.643 2.667-2.643s2.666 1.185 2.666 2.643c0 1.459-1.195 2.644-2.666 2.644z"/><path d="m30.2216 666.837c-1.4713 0-2.6666-1.185-2.6666-2.644 0-1.458 1.1953-2.643 2.6666-2.643 1.4712 0 2.6666 1.185 2.6666 2.643 0 1.459-1.1954 2.644-2.6666 2.644z"/><path d="m107.983 688.505c-1.471 0-2.667-1.185-2.667-2.644s1.196-2.644 2.667-2.644 2.666 1.185 2.666 2.644-1.195 2.644-2.666 2.644z"/><path d="m65.1024 769.705s.0613-.243.1533-.334c.1839-.152.4291-.152.613 0l42.7873 14.984 29.794 7.2 4.444-31.149c0-.182.153-.334.337-.364l24.582-6.717s.245 0 .368.061l40.52 25.831c.153.091.245.304.184.486l-.184-.486s-.797.547.184.486l-.981.061-40.06-25.557-24.092 6.594-4.444 31.089s0 1.227 0 .781l-30.53-7.404c-.153.091-.368.061-.521-.061l-41.9445-14.91 24.9375 34.562-26.375 33-.5388-.625 25.6638-32.375-24.8363-34.91s-.0919-.182-.0919-.273z"/><path d="m43.7697 607.031.6437-.638 58.0526 57.496s.092.122.122.213l5.824 21.668 35.34 74.515-.827.395-35.371-74.606-5.824-21.638z"/><path d="m3.52502 677.109 26.51288-13.311s.2146-.061.3065-.03l38.9878 9.481 32.7038-9.481.246.881-32.8273 9.512s-.1532 0-.2451 0l-38.9571-9.451-26.35968 13.25-.39848-.821z"/><path d="m190.344 426.055-2.238 5.774 5.885 2.066-6.161.973 1.134 6.078-3.923-4.802-4.72 4.012 2.207-5.774-5.855-2.036 6.131-1.003-1.134-6.048 3.923 4.771z"/><path d="m131.739 373.694-2.207 5.774 5.855 2.066-6.13.973 1.134 6.078-3.954-4.802-4.721 4.012 2.207-5.774-5.854-2.037 6.13-1.002-1.134-6.048 3.923 4.771z"/><path d="m40.2775 440.824-2.8505 3.738 3.8313 2.705-4.6589-.578-.4597 4.65-1.8391-4.285-4.2911 1.945 2.8198-3.738-3.8313-2.735 4.6896.577.4597-4.649 1.8391 4.285z"/><path d="m188.75 358.53c1.134-1.611 3.371-2.006 5.027-.882 1.655 1.125 2.023 3.343.889 4.984-1.135 1.611-3.372 2.006-5.027.882-1.625-1.125-2.023-3.343-.889-4.984z"/><path d="m220.596 472.156c1.134-1.611 3.371-2.006 5.026-.882 1.625 1.125 2.023 3.343.889 4.984-1.134 1.611-3.371 2.006-5.026.882-1.625-1.125-2.023-3.343-.889-4.984z"/><path d="m133.916 409.098c1.134-1.611 3.371-2.006 5.026-.882 1.625 1.125 2.023 3.343.889 4.984-1.134 1.611-3.371 2.006-5.026.881-1.625-1.124-2.023-3.342-.889-4.983z"/><path d="m220.902 365.732c0 1.46 1.194 2.644 2.667 2.644 1.472 0 2.666-1.184 2.666-2.644s-1.194-2.644-2.666-2.644c-1.473 0-2.667 1.184-2.667 2.644z"/><path d="m219.155 405.937c-1.471 0-2.666-1.185-2.666-2.644 0-1.458 1.195-2.644 2.666-2.644s2.667 1.186 2.667 2.644c0 1.459-1.196 2.644-2.667 2.644z"/><path d="m262.097 480.969c0 1.46 1.194 2.643 2.667 2.643 1.472 0 2.666-1.183 2.666-2.643 0-1.461-1.194-2.644-2.666-2.644-1.473 0-2.667 1.183-2.667 2.644z"/><path d="m13.8261 452.889c-1.4713 0-2.6667-1.186-2.6667-2.644 0-1.459 1.1954-2.644 2.6667-2.644 1.4712 0 2.6666 1.185 2.6666 2.644 0 1.458-1.1954 2.644-2.6666 2.644z"/><path d="m38.7757 347.194c0 1.461 1.1939 2.644 2.6666 2.644s2.6666-1.183 2.6666-2.644c0-1.46-1.1939-2.643-2.6666-2.643s-2.6666 1.183-2.6666 2.643z"/><path d="m13.7031 449.789 21.2716-5.288 18.7889-37.197-12.7507-60.019.8889-.182 12.7813 60.171s0 .213-.0307.304l-18.9421 37.531s-.1533.213-.3065.243l-21.4862 5.318z"/><path d="m53.764 407.365c0-.182.1225-.365.3064-.425l72.4886-26.834 65.011-19.966h.214l31.846 5.136-.153.911-30.834-4.984 26.88 41.847c.123.182.092.425-.092.577l-33.624 30.238s-.337.152-.49.06l-48.612-22.336-82.5426-3.768c-.2145 0-.3985-.182-.4291-.395v-.061zm137.744-46.253-64.642 19.875-70.3742 26.044 80.3662 3.677s.123 0 .184.03l48.398 22.245 33.102-29.781z"/><path d="m185.194 433.835.674-.638c8.583 9.086 35.923 38.077 37.977 40.63 1.594.669 25.287 4.346 40.98 6.655l-.154.912c-41.163-6.108-41.409-6.746-41.562-7.05-.674-.973-25.103-26.956-37.946-40.54z"/><path d="m60.1387 399.616-2.2069 5.744 5.8543 2.066-6.1301.973 1.134 6.078-3.9539-4.771-4.7202 3.981 2.2069-5.744-5.8543-2.067 6.1301-.972-1.134-6.078 3.9233 4.771z"/><path d="m125.944 440.498-2.207 5.773 5.854 2.067-6.13.972 1.134 6.048-3.923-4.771-4.751 4.011 2.238-5.774-5.885-2.036 6.16-1.003-1.134-6.047 3.924 4.771z"/><path d="m878.584 196.442c-1.181-1.576-.865-3.826.716-5.053 1.572-1.197 3.805-.89 5.015.696 1.181 1.576.865 3.826-.716 5.053-1.572 1.197-3.805.89-5.015-.696z"/><path d="m849.187 183.758c-1.181-1.576-.865-3.826.716-5.053 1.581-1.226 3.805-.89 5.015.696 1.181 1.576.865 3.826-.716 5.053-1.572 1.197-3.805.89-5.015-.696z"/><path d="m891.369 181.002c1.388.452 2.883-.318 3.339-1.718.455-1.401-.302-2.902-1.69-3.354-1.389-.451-2.884.318-3.339 1.719-.455 1.4.301 2.902 1.69 3.353z"/><path d="m859.913 142.51c1.388.452 2.883-.318 3.339-1.718.455-1.401-.302-2.902-1.69-3.354-1.389-.451-2.884.318-3.339 1.719-.455 1.4.301 2.902 1.69 3.353z"/><path d="m848.543 156.057c-.455 1.399-1.952 2.169-3.339 1.718s-2.145-1.954-1.69-3.353 1.951-2.17 3.339-1.719c1.387.451 2.144 1.954 1.69 3.354z"/><path d="m844.968 172.653c1.389.452 2.884-.318 3.339-1.718.456-1.401-.301-2.902-1.69-3.354-1.388-.451-2.883.318-3.338 1.719-.456 1.4.301 2.902 1.689 3.353z"/><path d="m862.106 193.953s-.145-.047-.213-.134l-10.186-11.917-6.317-11.529s-.049-.145-.049-.242l.245-14.907s.075-.233.104-.321l14.699-15.235.657.632-14.565 15.119-.237 14.587 6.221 11.337 10.002 11.696 18.74.742 10.6-15.601.762.505-10.734 15.816s-.229.216-.383.198l-19.212-.767s-.087-.028-.115-.037z"/><path d="m862.363 185.496 1.703 5.968 5.896-1.919-4.278 4.508 4.551 4.187-5.98-1.461-1.336 6.076-1.741-5.949-5.858 1.899 4.248-4.517-4.521-4.177 5.98 1.461z"/><path d="m284.674 68.824.613 6.1386 6.161-.7597-5.058 3.6163 3.74 4.9231-5.64-2.5527-2.452 5.6828-.613-6.1386-6.161.7597 5.058-3.6163-3.74-4.9231 5.64 2.5527z"/><path d="m69.2431 191.816c-1.6796-1.029-2.2161-3.237-1.1993-4.961 1.0188-1.692 3.2074-2.231 4.9173-1.204 1.6795 1.03 2.216 3.238 1.1992 4.961-1.0169 1.723-3.2074 2.231-4.9172 1.204z"/><path d="m146.807 180.019c1.134-1.611 3.371-2.006 5.026-.881 1.625 1.124 2.023 3.343.889 4.984-1.134 1.61-3.371 2.005-5.026.881-1.625-1.125-2.023-3.343-.889-4.984z"/><path d="m210.284 108.555c0 1.46 1.194 2.644 2.667 2.644 1.472 0 2.666-1.184 2.666-2.644s-1.194-2.644-2.666-2.644c-1.473 0-2.667 1.184-2.667 2.644z"/><path d="m159.159 223.901c-1.471 0-2.667-1.185-2.667-2.644 0-1.458 1.196-2.643 2.667-2.643s2.667 1.185 2.667 2.643c0 1.459-1.196 2.644-2.667 2.644z"/><path d="m275.264 93.1659c-1.471 0-2.667-1.1852-2.667-2.6439s1.196-2.6438 2.667-2.6438 2.667 1.1851 2.667 2.6438-1.196 2.6439-2.667 2.6439z"/><path d="m55.036 183.907c.0936 1.468-1.0132 2.737-2.4689 2.829-1.4557.093-2.7146-1.025-2.8081-2.493-.0936-1.468 1.0131-2.736 2.4689-2.829 1.4557-.093 2.7145 1.025 2.8081 2.493z"/><path d="m286.022 415.439c-1.471 0-2.666-1.185-2.666-2.644s1.195-2.644 2.666-2.644c1.472 0 2.667 1.185 2.667 2.644s-1.195 2.644-2.667 2.644z"/><path d="m229.165 211.108c-1.471 0-2.667-1.186-2.667-2.644 0-1.459 1.196-2.644 2.667-2.644s2.667 1.185 2.667 2.644c0 1.458-1.196 2.644-2.667 2.644z"/><path d="m256.764 455.69c0 1.46 1.194 2.644 2.667 2.644 1.472 0 2.666-1.184 2.666-2.644s-1.194-2.644-2.666-2.644c-1.473 0-2.667 1.184-2.667 2.644z"/><path d="m103.831 182.671 1.749 5.939 5.879-1.88-4.25 4.509 4.559 4.163-5.97-1.462-1.318 6.073-1.749-5.939-5.8487 1.878 4.2197-4.508-4.5591-4.163 6.0001 1.461z"/><path d="m446.664 72.5918-2.82 3.7379 3.832 2.7047-4.69-.5774-.46 4.6495-1.839-4.2849-4.291 1.9146 2.82-3.7075-3.831-2.7351 4.689.5774.46-4.6496 1.839 4.2849z"/><path d="m423.308 68.7934c1.134-1.6107 3.372-2.0057 5.027-.8813 1.624 1.1244 2.023 3.3428.889 4.9839-1.134 1.6106-3.372 2.0057-5.027.8812-1.624-1.1244-2.023-3.3428-.889-4.9838z"/><path d="m428.887 66.18c0 1.4602 1.194 2.6439 2.667 2.6439 1.472 0 2.666-1.1837 2.666-2.6439s-1.194-2.6439-2.666-2.6439c-1.473 0-2.667 1.1837-2.667 2.6439z"/><path d="m464.657 92.0107c-1.472 0-2.667-1.1852-2.667-2.6439s1.195-2.6439 2.667-2.6439c1.471 0 2.666 1.1852 2.666 2.6439s-1.195 2.6439-2.666 2.6439z"/><path d="m426.098 71.2853.337-.8812 15.264 5.7435 23.172 12.794-.46.8205-23.11-12.7939z"/><path d="m431.431 66.6349.215-.8812c1.073.2127 7.509 7.4454 10.237 10.5451l-.705.6078c-4.168-4.7408-8.98-9.9374-9.747-10.2413z"/><path d="m452.799 216.906-6.021-1.403-1.208 6.081-1.85-5.921-5.854 1.947 4.199-4.531-4.646-4.134 6.049 1.391 1.208-6.081 1.822 5.934 5.854-1.947-4.198 4.531z"/><path d="m407.35 208.931c-.6-1.342-.007-2.918 1.325-3.513 1.331-.596 2.901.011 3.502 1.354s.007 2.918-1.324 3.514c-1.332.596-2.902-.012-3.503-1.355z"/><path d="m433.411 202.814c-.601-1.343-.007-2.918 1.324-3.514 1.332-.596 2.902.011 3.503 1.354.6 1.343.007 2.919-1.325 3.514-1.331.596-2.901-.011-3.502-1.354z"/><path d="m414.943 220.545c-.601-1.343-.007-2.918 1.324-3.514 1.332-.596 2.902.011 3.502 1.354.601 1.343.008 2.919-1.324 3.514-1.332.596-2.902-.011-3.502-1.354z"/><path d="m395.922 198.565 13.916 8.784 25.854-6.06c.151-.034.34.016.458.131l9.548 11.074s.126.28.092.429c-.033.149-.174.279-.325.314l-27.989 6.644c-.179.047-.38-.031-.483-.186l-7.217-10.774.742-.5 7.036 10.519 26.93-6.407-8.87-10.302-25.77 6.022s-.232.003-.353-.044l-14.103-8.902.481-.785z"/><path d="m396.879 205.02-3.727-4.981-4.811 3.831 2.378-5.697-5.726-2.307 6.12-.757-.915-6.139 3.726 4.982 4.839-3.844-2.406 5.71 5.727 2.307-6.093.745z"/><path d="m582.972 89.7621c-1.472 0-2.667-1.1852-2.667-2.6439s1.195-2.6438 2.667-2.6438c1.471 0 2.666 1.1851 2.666 2.6438s-1.195 2.6439-2.666 2.6439z"/><path d="m986.233 35.929-2.82 3.7075 3.831 2.735-4.689-.5774-.46 4.6496-1.839-4.2849-4.291 1.9145 2.85-3.7075-3.831-2.735 4.659.5774.46-4.6496 1.839 4.2849z"/><path d="m974.401 2.31853c1.135-1.610636 3.372-2.005701 5.027-.88129 1.625 1.12441 2.023 3.34283.889 4.98386s-3.372 2.0057-5.027.88129c-1.624-1.1244-2.023-3.34283-.889-4.98386z"/><path d="m990.585 40.4569c-1.471 0-2.667-1.1852-2.667-2.6438 0-1.4587 1.196-2.6439 2.667-2.6439s2.666 1.1852 2.666 2.6439c0 1.4586-1.195 2.6438-2.666 2.6438z"/><path d="m994.998 51.9142c-1.471 0-2.666-1.1852-2.666-2.6438 0-1.4587 1.195-2.6439 2.666-2.6439 1.472 0 2.667 1.1852 2.667 2.6439 0 1.4586-1.195 2.6438-2.667 2.6438z"/><path d="m979.55 31.4926c-1.471 0-2.666-1.1852-2.666-2.6439s1.195-2.6439 2.666-2.6439 2.667 1.1852 2.667 2.6439-1.196 2.6439-2.667 2.6439z"/><path d="m977.007 3.9293.919-.09117 2.084 24.79777 10.881 9.3295s.092.1216.123.1824l4.414 10.9706c.061.1823 0 .395-.154.5166-.153.1215-.367.1215-.551 0l-13.885-9.2688s-.184-.1823-.184-.3039l-1.563-9.8765.919-.152 1.533 9.6638 12.475 8.3267-3.832-9.4814-10.942-9.3904s-.153-.1823-.153-.3039l-2.084-24.98008z"/><path d="m607.949 269.28-6.18.163.367 6.189-3.305-5.287-5.153 3.386 2.899-5.468-5.539-2.826 6.18-.163-.342-6.208 3.261 5.281 5.173-3.362-2.9 5.468z"/><path d="m598.849 190.439c-.92-1.147-.744-2.821.394-3.734s2.811-.722 3.731.426c.921 1.148.744 2.822-.394 3.735-1.138.912-2.81.721-3.731-.427z"/><path d="m617.834 211.416c1.966-.123 3.674 1.375 3.833 3.37.139 1.971-1.342 3.67-3.332 3.812-1.966.123-3.674-1.376-3.833-3.371-.158-1.994 1.343-3.669 3.332-3.811z"/><path d="m531.813 235.886-4.699.115.287 4.681-2.465-3.996-3.914 2.55 2.192-4.115-4.202-2.131 4.68-.139-.263-4.7 2.483 4.02 3.915-2.55-2.192 4.115z"/><path d="m787.509 411.436-4.68.139.287 4.681-2.507-4.001-3.915 2.55 2.216-4.134-4.202-2.131 4.68-.139-.287-4.681 2.507 4.001 3.915-2.55-2.216 4.134z"/><path d="m500.95 230.188c1.966-.123 3.674 1.376 3.832 3.37.139 1.971-1.342 3.67-3.332 3.812s-3.674-1.376-3.832-3.37c-.159-1.995 1.342-3.67 3.332-3.812z"/><path d="m598.201 333.128c1.966-.123 3.674 1.375 3.833 3.37.158 1.994-1.343 3.669-3.332 3.811-1.966.123-3.674-1.375-3.833-3.37-.139-1.971 1.342-3.669 3.332-3.811z"/><path d="m550.379 225.909c1.966-.123 3.674 1.375 3.833 3.37.139 1.971-1.343 3.669-3.332 3.811-1.966.123-3.674-1.375-3.833-3.37-.158-1.995 1.343-3.669 3.332-3.811z"/><path d="m512.57 234.817c-1.139.914-1.316 2.586-.394 3.735.921 1.149 2.592 1.339 3.731.426 1.139-.914 1.315-2.586.394-3.735-.921-1.148-2.592-1.339-3.731-.426z"/><path d="m708.746 395.093c-.92-1.148-.744-2.822.394-3.735 1.138-.912 2.811-.721 3.731.427.921 1.147.744 2.821-.394 3.734s-2.81.722-3.731-.426z"/><path d="m501.314 233.314 12.907 3.125 11.087-2.447 25.259-4.934s.281.01.382.087l47.999 37.021 18.762-51.311-.028.062-15.466-26.251.892.189 15.438 26.313-18.956 51.897s-.155.243-.308.247c-.133.029-.304.009-.405-.068l-48.319-37.275-25.017 4.896-11.177 2.481s-.133.029-.195 0l-13.036-3.14.224-.887z"/><path d="m538.003 362.531-5.624-2.64-2.484 5.646-.543-6.166-6.144.645 5.038-3.53-3.66-5.001 5.624 2.641 2.465-5.67.542 6.165 6.144-.644-5.038 3.529z"/></g></svg>