<svg fill="none" height="160" viewBox="0 0 159 160" width="159" xmlns="http://www.w3.org/2000/svg" xmlns:xlink="http://www.w3.org/1999/xlink"><clipPath id="a"><path d="m6.81323 16.2717h149v135h-149z"/></clipPath><circle cx="79.596" cy="80.1241" fill="#f2f9fa" r="79.2171"/><g clip-path="url(#a)"><g stroke="#0a4d69"><path d="m63.382 17.9734c-1.1476.385-27.1182 15.5879-27.1182 15.5879l-17.5631 25.4747" stroke-miterlimit="10"/><path d="m93.4065 17.9734c1.1476.385 27.1185 15.5879 27.1185 15.5879l17.563 25.4747" stroke-miterlimit="10"/><path d="m93.5564 138.603c1.1476-.385 27.1186-15.588 27.1186-15.588l17.563-25.475" stroke-miterlimit="10"/><path d="m63.5319 138.603c-1.1476-.385-27.1181-15.588-27.1181-15.588l-17.5632-25.475" stroke-miterlimit="10"/><path d="m77.5275 34.8903c0 .7452-8.7442 34.0946-8.7442 34.0946l-34.7396 9.2037 35.4881 10.9551 8.2452 33.5973 9.742-34.3426 34.241-9.2037-34.7399-9.4521-9.4926-34.8399z" stroke-linejoin="round"/><path d="m70.143 62.8988-18.611-9.9489 10.8273 17.7988" stroke-linejoin="round"/><path d="m85.6355 62.8988 18.6105-9.9489-11.0015 18.2708" stroke-linejoin="round"/><path d="m86.0845 94.9689 18.5985 9.9491-10.9895-18.2709" stroke-linejoin="round"/><path d="m70.5794 94.9689-18.5984 9.9491 10.9894-18.2709" stroke-linejoin="round"/></g><path d="m77.4277 36.0206c1.185 0 2.1455-.9565 2.1455-2.1364s-.9605-2.1364-2.1455-2.1364c-1.1849 0-2.1455.9565-2.1455 2.1364s.9606 2.1364 2.1455 2.1364z" fill="#0a4d69"/><path d="m18.788 60.5762c.9507 0 1.7214-.7674 1.7214-1.7141 0-.9466-.7707-1.714-1.7214-1.714s-1.7213.7674-1.7213 1.714c0 .9467.7706 1.7141 1.7213 1.7141z" fill="#0a4d69"/><path d="m37.3243 92.8077c1.0678 0 1.9335-.8619 1.9335-1.9251 0-1.0633-.8657-1.9252-1.9335-1.9252s-1.9334.8619-1.9334 1.9252c0 1.0632.8656 1.9251 1.9334 1.9251z" fill="#598eaf"/><path d="m63.8062 140.267c1.0679 0 1.9335-.862 1.9335-1.925s-.8656-1.925-1.9335-1.925c-1.0678 0-1.9334.862-1.9334 1.925s.8656 1.925 1.9334 1.925z" fill="#0a4d69"/><path d="m36.738 125.226c1.1711 0 2.1205-.946 2.1205-2.112s-.9494-2.111-2.1205-2.111c-1.1712 0-2.1206.945-2.1206 2.111s.9494 2.112 2.1206 2.112z" fill="#0a4d69"/><path d="m63.0329 19.9979c1.0334 0 1.8711-.8341 1.8711-1.8631 0-1.0289-.8377-1.8631-1.8711-1.8631-1.0333 0-1.871.8342-1.871 1.8631 0 1.029.8377 1.8631 1.871 1.8631z" fill="#0a4d69"/><path d="m93.6437 19.7122c.9369 0 1.6965-.7562 1.6965-1.6892 0-.9329-.7596-1.6892-1.6965-1.6892s-1.6964.7563-1.6964 1.6892c0 .933.7595 1.6892 1.6964 1.6892z" fill="#0a4d69"/><path d="m121.335 36.0454c1.048 0 1.897-.8453 1.897-1.8879 0-1.0427-.849-1.888-1.897-1.888-1.047 0-1.896.8453-1.896 1.888 0 1.0426.849 1.8879 1.896 1.8879z" fill="#0a4d69"/><path d="m137.364 100.384c1.089 0 1.971-.8783 1.971-1.9621 0-1.0839-.882-1.9625-1.971-1.9625-1.088 0-1.97.8786-1.97 1.9625 0 1.0838.882 1.9621 1.97 1.9621z" fill="#0a4d69"/><path d="m137.913 61.0854c.923 0 1.672-.7451 1.672-1.6643 0-.9193-.749-1.6644-1.672-1.6644s-1.671.7451-1.671 1.6644c0 .9192.748 1.6643 1.671 1.6643z" fill="#0a4d69"/><path d="m77.6521 126.48c1.116 0 2.0208-.901 2.0208-2.012s-.9048-2.012-2.0208-2.012-2.0208.901-2.0208 2.012.9048 2.012 2.0208 2.012z" fill="#0a4d69"/><path d="m92.9826 141.012c1.0816 0 1.9584-.873 1.9584-1.95s-.8768-1.95-1.9584-1.95-1.9584.873-1.9584 1.95.8768 1.95 1.9584 1.95z" fill="#0a4d69"/><path d="m36.3512 27.736.973 4.1857 4.266-1.0433-3.2182 2.9189 3.0062 3.13-4.1288-1.3166-1.1851 4.1733-.9729-4.1733-4.2037 1.0433 3.2182-2.9313-3.081-3.13 4.2037 1.2545z" fill="#598eaf"/><path d="m120.013 117.289 1.747 3.925 4.004-1.826-2.62 3.478 3.543 2.521-4.304-.534-.386 4.322-1.747-3.925-3.929 1.801 2.62-3.465-3.618-2.509 4.366.46z" fill="#598eaf"/><path d="m77.8393 72.3137.9729 4.1733 4.2661-1.0433-3.2183 2.9188 3.0187 3.1425-4.1289-1.329-1.1974 4.1857-.973-4.1857-4.1912 1.0433 3.2058-2.9189-3.0686-3.1424 4.1912 1.2545z" fill="#ffa135"/><path d="m121.847 53.0617.985 4.1733 4.266-1.0433-3.218 2.9313 3.006 3.13-4.129-1.329-1.185 4.1857-.985-4.1857-4.191 1.0557 3.218-2.9313-3.081-3.13 4.204 1.2545z" fill="#ffa135"/><path d="m19.2746 91.5533.9854 4.1857 4.266-1.0433-3.2182 2.9188 3.0062 3.1305-4.1289-1.3171-1.185 4.1731-.9729-4.1731-4.2037 1.0431 3.2182-2.9186-3.081-3.1424 4.2037 1.2545z" fill="#ffa135"/><g fill="#598eaf"><path d="m150.562 100.049c-.549-.3975-.674-1.1427-.312-1.6892.399-.5465 1.148-.6707 1.696-.3105.549.3974.674 1.1427.312 1.6892-.399.5835-1.147.7075-1.696.3105z"/><path d="m122.77 98.2356c0 .8446-.699 1.4656-1.472 1.4656-.848 0-1.472-.6956-1.472-1.4656 0-.8446.699-1.4657 1.472-1.4657.848-.0745 1.472.6211 1.472 1.4657z"/><path d="m57.0579 122.307c-.5489-.385-.6986-1.155-.3119-1.776.3867-.547 1.1601-.696 1.7838-.311.5488.385.6985 1.155.3118 1.776-.4615.621-1.2474.77-1.7837.311z"/><path d="m117.107 21.2151c-.275-.1738-.337-.5713-.15-.8446.187-.2732.574-.3353.848-.149.275.1739.337.5713.15.8446-.175.2732-.574.3354-.848.149z"/><path d="m103.099 39.6846c0 .8695-.749 1.6147-1.622 1.6147s-1.6215-.7452-1.6215-1.6147c0-.8694.7485-1.6146 1.6215-1.6146s1.622.7452 1.622 1.6146z"/><path d="m7.02528 56.0054c-.24948-.1242-.24948-.4969-.12474-.7453s.49895-.2484.74843-.1242.24948.4969.12474.7453-.49896.3726-.74843.1242z"/><path d="m39.3201 140.727c-.4366-.323-.6611-.982-.2245-1.528.3243-.435.9854-.658 1.5343-.224.4365.323.6611.982.2245 1.528-.4366.435-1.0977.547-1.5343.224z"/><path d="m72.014 151.185c-.9979.298-2.0706-.211-2.37-1.193-.2994-.981.2121-2.061 1.1975-2.36.9979-.298 2.0706.212 2.37 1.193.2994.994-.212 2.062-1.1975 2.36z"/><path d="m38.4468 53.4343 1.1476 1.7141 1.7214-.8571-1.1476 1.7265 2.0207.857h-2.0207v2.2978l-1.1476-2.0121-1.7339 1.1427.8607-1.7141-1.7214-1.1551h2.0208z"/><path d="m11.0419 116.916.6611 2.832 2.8939-.708-2.1829 1.987 2.0332 2.124-2.7941-.894-.8108 2.832-.6611-2.832-2.84404.708 2.18292-1.987-2.08313-2.124 2.84405.857z"/><path d="m25.8483 39.0636c-.2744-.1739-.3368-.5713-.1497-.8446.1871-.2732.5738-.3353.8482-.149.2745.1739.3368.5713.1497.8446-.1746.2732-.5738.3353-.8482.149z"/><path d="m86.5336 126.257c-.2495-.125-.2495-.497-.1248-.746.1248-.248.499-.248.7485-.124.2494.124.2494.497.1247.745-.1247.249-.4989.373-.7484.125z"/><path d="m152.982 46.5727-.375 3.1921 3.206.2857-2.919 1.3166 1.31 2.9064-2.632-1.9749-1.883 2.6332.461-3.1921-3.193-.2857 2.919-1.3165-1.323-2.9065 2.545 1.9749z"/></g></g></svg>