<svg fill="none" height="88" viewBox="0 0 172 88" width="172" xmlns="http://www.w3.org/2000/svg" xmlns:xlink="http://www.w3.org/1999/xlink"><clipPath id="a"><path d="m.64502.505371h171v87.2374h-171z"/></clipPath><g clip-path="url(#a)"><path d="m163.383 7.48621-31.053 19.34679" stroke="#204e62" stroke-miterlimit="10"/><path d="m150.753 58.2706-60.4848 10.9115-65.6603-14.9837 21.7074-20.4867 43.9529 35.4704 42.0538-42.75-3.308-23.64694" stroke="#204e62" stroke-miterlimit="10"/><path d="m26.1826 53.3258-12.1826 16.6124" stroke="#204e62" stroke-miterlimit="10"/><path d="m7.1365 67.1343 5.0727 1.8868 1.7569-5.0785.8942 5.3222 5.231-.9984-4.0835 3.3803 3.4979 4.0093-5.0807-1.8867-1.7568 5.0863-.8943-5.3221-5.23093.9984 4.16263-3.3647z" fill="#ffa135"/><path d="m106.246 75.1017c-.879-.5975-1.069-1.7924-.467-2.665.601-.8726 1.804-1.0613 2.683-.4639.878.5975 1.068 1.7924.467 2.665-.649.8255-1.852 1.0613-2.683.4639z" fill="#0c8085"/><g fill="#204e62"><path d="m24.1172 56.0459c-1.0604-.7154-1.282-2.1541-.5539-3.2075.7201-1.0534 2.1683-1.2735 3.2288-.5503 1.0604.7154 1.282 2.154.5539 3.2075-.7755.9983-2.2237 1.2735-3.2288.5503z"/><path d="m88.5985 71.9021c-1.4245-.9669-1.7252-2.9008-.7518-4.3159.9734-1.415 2.9202-1.7138 4.3446-.7468 1.4245.9669 1.7252 2.9008.7518 4.3159-1.0525 1.3364-2.9993 1.7138-4.3446.7468z"/><path d="m132.551 28.6176c1.285 0 2.327-1.0348 2.327-2.3112 0-1.2765-1.042-2.3113-2.327-2.3113s-2.326 1.0348-2.326 2.3113c0 1.2764 1.041 2.3112 2.326 2.3112z"/><path d="m152.985 58.64c-.752 1.0456-2.177 1.2657-3.221.5975-1.053-.7468-1.274-2.1619-.602-3.1996.752-1.0455 2.177-1.2657 3.221-.5974 1.053.7468 1.345 2.1618.602 3.1995z"/></g><path d="m140.75 51.7535c0 1.2657-1.053 2.3112-2.327 2.3112s-2.326-1.0455-2.326-2.3112 1.052-2.3112 2.326-2.3112 2.327 1.0455 2.327 2.3112z" fill="#0c8085"/><path d="m131.024 2.81661c0 1.26567-1.053 2.31123-2.327 2.31123s-2.326-1.04556-2.326-2.31123c0-1.26568 1.052-2.311239 2.326-2.311239s2.327 1.045559 2.327 2.311239z" fill="#204e62"/><path d="m89.2869 45.0949 2.2554 1.6902 1.5906-2.2484-.3086 2.7515 2.7777.2594-2.5719 1.0692 1.1316 2.4999-2.2079-1.6352-1.6461 2.2484.3641-2.7515-2.7778-.2594 2.572-1.0692z" fill="#0c8085"/><path d="m15.4649 23.4963.7597 3.2704 3.2447-.8412-2.4454 2.2955 2.3504 2.382-3.2446-.9827-.8943 3.231-.7518-3.2781-3.3.8411 2.4928-2.2876-2.3504-2.3899 3.2051.9827z" fill="#0c8085"/><path d="m161.247.827637 3.213 4.174373 4.202-3.35679-2.034 4.97623 5.017 1.85528-5.278.73897.839 5.275-3.316-4.2059-4.107 3.3961 1.97-4.94475-5.049-1.92603 5.35-.76255z" fill="#ffa135"/><path d="m41.3374 27.2969 3.2684 4.2451 4.1705-3.2939-2.0417 4.8583 5.0331 1.9732-5.3576.7154.8547 5.2592-3.2684-4.2372-4.2418 3.3175 2.0814-4.9606-5.0015-1.9024 5.2943-.6839z" fill="#ffa135"/><g fill="#0c8085"><path d="m53.1405 66.539c-.5381.7469-1.559.9119-2.3187.4245-.7518-.5345-.918-1.5486-.4274-2.3033.4907-.7547 1.559-.9119 2.3188-.4245.7518.5345.918 1.5486.4273 2.3033z"/><path d="m59.2621 50.7315c-.3324.4638-.9655.5581-1.4245.2673-.4669-.3302-.5619-.9591-.2691-1.4151.2929-.4559.9655-.5581 1.4245-.2673.4669.3302.5619.9591.2691 1.4151z"/><path d="m89.3026 85.911c-.3324.4639-.9655.5582-1.4245.2673-.4669-.3301-.5618-.9591-.269-1.415.2928-.456.9654-.5582 1.4244-.2673.467.3302.5619.9591.2691 1.415z"/><path d="m131.815 40.5353c-.332.4638-.965.5582-1.424.2673-.467-.3302-.562-.9591-.269-1.415.293-.456.965-.5582 1.424-.2673.467.3301.562.9591.269 1.415z"/><path d="m125.666 23.5233c-.332.4639-.965.5582-1.424.2673-.467-.3301-.562-.9591-.269-1.415.293-.456.965-.5582 1.424-.2673.467.3302.562.9591.269 1.415z"/><path d="m120.95 68.4196c-.333.4638-.966.5581-1.425.2673-.467-.3302-.562-.9591-.269-1.4151.293-.4559.966-.5581 1.425-.2673.466.3302.561.9591.269 1.4151z"/><path d="m17.4361 57.1044c-.3799.5267-1.0921.6368-1.6145.2987-.5302-.3773-.641-1.0848-.3007-1.6037.3403-.5188 1.0921-.6368 1.6144-.2987.5302.3773.641 1.0848.3008 1.6037z"/><path d="m34.6185 38.6172c-.2295.3145-.6648.3852-.9813.1808-.3166-.228-.3878-.6603-.182-.9748.2057-.3144.6647-.3852.9813-.1808.3165.228.3878.6603.182.9748z"/><path d="m142.301 45.0792c-.34.4717-.981.5739-1.456.2673-.475-.338-.578-.9748-.269-1.4465.308-.4717.981-.5739 1.456-.2673.475.3381.577.9748.269 1.4465z"/><path d="m125.184 13.563c0 1.0613-.879 1.9339-1.947 1.9339-1.069 0-1.947-.8726-1.947-1.9339 0-1.0612.878-1.9338 1.947-1.9338 1.068 0 1.947.8726 1.947 1.9338z"/><path d="m34.8837 53.4442c-.3324.4639-.9655.5582-1.4245.2673-.4669-.3301-.5619-.9591-.2691-1.415.2928-.456.9655-.5582 1.4245-.2673.4669.3302.5619.9591.2691 1.415z"/><path d="m153.056 2.34488c-.333.46382-.966.55816-1.425.26729-.467-.33018-.562-.95909-.269-1.41505.293-.455954.965-.558151 1.424-.267281.467.330181.562.959081.27 1.415041z"/></g></g></svg>