<svg fill="none" height="941" viewBox="0 0 1280 941" width="1280" xmlns="http://www.w3.org/2000/svg"><g fill="#75a3c1" opacity=".3"><path d="m979.761 128.27-4.923-3.739-3.586 5.057.729-6.161-6.139-.613 5.683-2.421-2.552-5.67 4.923 3.739 3.586-5.058-.73 6.161 6.139.613-5.683 2.422z"/><path d="m887.377 231.502-4.923-3.74-3.617 5.058.76-6.192-6.139-.582 5.683-2.452-2.553-5.67 4.924 3.739 3.586-5.057-.73 6.16 6.139.613-5.683 2.452z"/><path d="m867.229 43.8886c0-1.4712 1.185-2.6666 2.643-2.6666 1.459 0 2.644 1.1954 2.644 2.6666s-1.185 2.6667-2.644 2.6667c-1.458 0-2.643-1.1955-2.643-2.6667z"/><path d="m792.653 41.682c0-1.4712 1.185-2.6667 2.644-2.6667s2.644 1.1955 2.644 2.6667c0 1.4713-1.185 2.6666-2.644 2.6666s-2.644-1.1953-2.644-2.6666z"/><path d="m690.788 68.5624c0-1.4712 1.185-2.6666 2.644-2.6666 1.458 0 2.643 1.1954 2.643 2.6666s-1.185 2.6666-2.643 2.6666c-1.459 0-2.644-1.1954-2.644-2.6666z"/><path d="m895.187 62.9842c-1.46 0-2.644 1.1939-2.644 2.6666s1.184 2.6666 2.644 2.6666 2.644-1.1939 2.644-2.6666-1.184-2.6666-2.644-2.6666z"/><path d="m835.137 210.414c0-1.471 1.185-2.666 2.644-2.666s2.644 1.195 2.644 2.666c0 1.472-1.185 2.667-2.644 2.667s-2.644-1.195-2.644-2.667z"/><path d="m951.893 151.32c-1.46 0-2.643 1.194-2.643 2.666 0 1.473 1.183 2.667 2.643 2.667 1.461 0 2.644-1.194 2.644-2.667 0-1.472-1.183-2.666-2.644-2.666z"/><path d="m952.744 128.669c0-1.472 1.185-2.667 2.644-2.667s2.644 1.195 2.644 2.667c0 1.471-1.185 2.666-2.644 2.666s-2.644-1.195-2.644-2.666z"/><path d="m893.273 91.0912c1.61 1.134 2.005 3.3715.881 5.0266-1.125 1.6245-3.343 2.023-4.984.8889-1.611-1.1341-2.006-3.3716-.881-5.0267 1.124-1.6245 3.342-2.0229 4.984-.8888z"/><path d="m885.098 136.301c1.61 1.134 2.005 3.372.881 5.027s-3.343 2.023-4.984.889c-1.641-1.135-2.006-3.372-.881-5.027 1.124-1.625 3.343-2.023 4.984-.889z"/><path d="m862.518 240.728c1.611 1.134 2.006 3.371.882 5.027-1.125 1.624-3.343 2.023-4.984.888-1.611-1.134-2.006-3.371-.881-5.026 1.124-1.625 3.342-2.023 4.983-.889z"/><path d="m732.026 63.3827c1.611 1.134 2.006 3.3715.881 5.0266-1.124 1.6245-3.342 2.023-4.983.8889-1.611-1.134-2.006-3.3715-.882-5.0266 1.125-1.6245 3.343-2.023 4.984-.8889z"/><path d="m795.297 41.2219 74.575 2.2069s.213.0307.274.1226l25.314 21.7621s.183.2452.152.3985l-3.95 28.3825-8.145 45.2405s-.03.123-.061.153l-45.219 70.773 22.336 32.735 19.145-17.042 71.75-72.182 3.343-25.655c0-.184.152-.307.304-.368l19.115-6.958c.212-.092.455 0 .577.246l13.311 27.738s.06.276 0 .43c-.061.122-.183.214-.335.245l-35.647 4.996-71.779 72.213-19.541 17.41s-.243.122-.364.122c-.122 0-.244-.092-.335-.184l-22.792-33.409s-.121-.368 0-.521l45.341-70.957 8.145-45.1175 3.92-28.1066-25.011-21.4863-74.332-2.2068-65.216 24.6432s-.091 0-.121 0l-36.559 2.2069-.061-.9196 36.498-2.2069 65.246-24.6431h.152zm191.727 107.4001-12.886-26.819-18.476 6.712-3.252 24.919 34.583-4.842z"/><path d="m987.662 157.419-1.367-6.069-5.987 1.533 4.528-4.23-4.315-4.475 5.895 1.839 1.672-5.977 1.398 6.069 5.956-1.532-4.498 4.229 4.285 4.445-5.895-1.809z"/><path d="m751.84 195.549c0-1.472 1.185-2.667 2.644-2.667 1.458 0 2.643 1.195 2.643 2.667 0 1.471-1.185 2.666-2.643 2.666-1.459 0-2.644-1.195-2.644-2.666z"/><path d="m776.243 174.185c-1.461 0-2.644 1.194-2.644 2.667 0 1.472 1.183 2.666 2.644 2.666 1.46 0 2.643-1.194 2.643-2.666 0-1.473-1.183-2.667-2.643-2.667z"/><path d="m807.574 146.323c-1.46 0-2.644 1.194-2.644 2.667s1.184 2.667 2.644 2.667 2.644-1.194 2.644-2.667-1.184-2.667-2.644-2.667z"/><path d="m790.374 140.837c1.61 1.134 2.005 3.371.881 5.027-1.125 1.624-3.343 2.023-4.984.888-1.641-1.134-2.006-3.371-.881-5.026 1.124-1.625 3.343-2.023 4.984-.889z"/><path d="m813.743 105.956c1.611 1.135 2.006 3.372.881 5.027-1.124 1.655-3.343 2.023-4.984.889-1.61-1.134-2.005-3.372-.881-5.027 1.125-1.624 3.343-2.023 4.984-.889z"/><path d="m811.707 108.439s.213.031.304.123c.122.092.152.245.152.398l-4.133 40.091s-.091.246-.182.307-.243.122-.365.092l-18.872-3.556-11.943 31.142s-.061.122-.121.183l-21.759 18.697-24.98 13.456-.426-.828 24.889-13.394 21.607-18.574 12.034-31.387c.091-.214.304-.337.517-.275l18.75 3.524 4.012-38.957-21.668 4.996-.76 29.302h-.911l.759-29.7c0-.215.152-.399.365-.429l22.61-5.242h.091z"/><path d="m788.429 125.144-1.368-6.069-5.956 1.533 4.497-4.23-4.284-4.444 5.895 1.808 1.672-5.977 1.367 6.069 5.987-1.533-4.528 4.23 4.285 4.475-5.865-1.839z"/><path d="m728.44 218.414-1.367-6.038-5.987 1.502 4.528-4.23-4.315-4.444 5.895 1.839 1.672-5.977 1.367 6.038 5.987-1.502-4.528 4.23 4.315 4.444-5.895-1.839z"/><path d="m551.482 25.8043-2.856-5.5171-5.41 2.9731 3.313-5.2412-5.257-3.2184 6.138.2759.152-6.22214 2.826 5.51724 5.41-3.0039-3.313 5.272 5.288 3.2183-6.169-.2759z"/><path d="m510.183 35.7351-3.707-2.8199-2.735 3.8314.577-4.6896-4.65-.4597 4.285-1.8391-1.914-4.2911 3.707 2.8505 2.735-3.8313-.577 4.6589 4.649.4598-4.284 1.839z"/><path d="m561.693 102.707c1.611 1.134 2.006 3.371.881 5.027-1.124 1.624-3.343 2.023-4.984.888-1.641-1.134-2.005-3.371-.881-5.026 1.124-1.625 3.343-2.023 4.984-.889z"/><path d="m603.752 72.6696c1.611 1.1341 2.006 3.3716.882 5.0268-1.125 1.6245-3.343 2.0229-4.984.8888-1.611-1.1341-2.006-3.3715-.882-5.0267 1.125-1.6551 3.343-2.023 4.984-.8889z"/><path d="m597.857 40.7313c1.61 1.1341 2.005 3.3716.881 5.0268-1.124 1.6245-3.343 2.023-4.984.8889-1.61-1.1341-2.006-3.3716-.881-5.0268 1.124-1.6245 3.343-2.023 4.984-.8889z"/><path d="m658.727 36.1034-1.763-5.7624-5.652 1.9004 4.072-4.4137-4.467-3.9846 5.834 1.3486 1.216-5.885 1.732 5.7624 5.653-1.9003-4.073 4.383 4.468 4.0152-5.835-1.3486z"/><path d="m505.169 18.4482c-1.461 0-2.644 1.1938-2.644 2.6666 0 1.4727 1.183 2.6666 2.644 2.6666 1.46 0 2.644-1.1939 2.644-2.6666 0-1.4728-1.184-2.6666-2.644-2.6666z"/><path d="m609.131 105.65c0-1.471 1.185-2.667 2.644-2.667 1.458 0 2.644 1.196 2.644 2.667s-1.186 2.666-2.644 2.666c-1.459 0-2.644-1.195-2.644-2.666z"/><path d="m572.633 16.0574c0-1.4712 1.185-2.6666 2.644-2.6666s2.644 1.1954 2.644 2.6666-1.185 2.6666-2.644 2.6666-2.644-1.1954-2.644-2.6666z"/><path d="m549.933 16.8544c.213 0 .395.1532.456.3678.03.2452-.091.4597-.304.521l-43.822 13.2718-.273-.8889 39.628-12.015-40.418 3.4328-.092-.9195 44.764-3.8007h.03z"/><path d="m671.004-77.3047h.091c.152 0 .274.1226.334.2759l16.593 38.4054c.091.1839 0 .429-.152.5516l-44.612 31.90749 14.496 33.28681c.091.1839 0 .3984-.121.521l-55.4 48.091 9.967 29.7315s0 .306-.06.429c-.092.122-.213.184-.365.184h-52.118c-.213 0-.365-.123-.425-.307-.061-.184 0-.398.182-.521l41.846-29.8843-5.835-31.509-20.33-27.3711-25.102 1.2566-.06-.9195 25.192-1.2873 95.605-92.7491s.213-.1227.304-.1227zm16.015 38.7119-16.167-37.4552-94.967 92.1362 20.3 27.3404s.061.1226.091.1839l5.774 31.1412 54.762-47.57-14.526-33.31733c-.091-.21456 0-.42918.152-.55178l44.612-31.90739zm-75.913 143.7828-9.663-28.8424-40.418 28.8424h50.051z"/><path d="m687.9-38.8073 23.856 18.8809s.182.2145.182.3678c0 .1532-.06.2758-.151.3678l-54.094 46.865-.607-.705 53.667-46.4971-23.4-18.5438.578-.7356z"/><path d="m882.454 328.971-4.923-3.739-3.586 5.057.729-6.191-6.138-.582 5.683-2.452-2.553-5.671 4.923 3.74 3.586-5.058-.729 6.192 6.138.582-5.683 2.452z"/><path d="m758.8 292.988-4.923-3.74-3.586 5.058.729-6.192-6.139-.582 5.683-2.452-2.552-5.67 4.923 3.739 3.586-5.057-.73 6.191 6.139.582-5.683 2.452z"/><path d="m810.948 353.615-3.738-2.82-2.735 3.831.577-4.689-4.649-.46 4.285-1.839-1.915-4.291 3.738 2.82 2.705-3.832-.547 4.69 4.619.46-4.285 1.839z"/><path d="m832.555 289.953c1.611 1.134 2.006 3.372.881 5.027-1.124 1.625-3.343 2.023-4.984.889-1.61-1.134-2.005-3.372-.881-5.027 1.125-1.624 3.343-2.023 4.984-.889z"/><path d="m861.212 375.653c0-1.472 1.185-2.667 2.643-2.667 1.459 0 2.644 1.195 2.644 2.667 0 1.471-1.185 2.666-2.644 2.666-1.458 0-2.643-1.195-2.643-2.666z"/><path d="m863.4 385.645c0-1.471 1.185-2.666 2.644-2.666 1.458 0 2.644 1.195 2.644 2.666s-1.186 2.667-2.644 2.667c-1.459 0-2.644-1.196-2.644-2.667z"/><path d="m846.899 385.645c0-1.471 1.185-2.667 2.643-2.667 1.459 0 2.644 1.196 2.644 2.667s-1.185 2.667-2.644 2.667c-1.458 0-2.643-1.196-2.643-2.667z"/><path d="m753.39 285.785h.031l77.128 6.651s.152 0 .213.061l46.556 29.272c.183.092.244.306.213.49l-13.189 53.363 2.158 9.87s0 .276-.091.398c-.092.123-.213.184-.365.184h-16.502v-.919h15.925l-2.006-9.196-56.798-26.88s-.122-.062-.152-.123l-53.455-62.466s-.152-.337-.061-.521c.091-.153.243-.245.395-.245zm76.977 7.571-75.883-6.56 52.665 61.516 56.403 26.697 12.976-52.627-46.161-29.057z"/><path d="m987.451 808.715-4.923-3.739-3.586 5.057.729-6.191-6.138-.583 5.682-2.452-2.552-5.67 4.923 3.739 3.586-5.057-.73 6.191 6.139.583-5.683 2.452z"/><path d="m863.797 772.731-4.923-3.739-3.586 5.057.729-6.191-6.139-.582 5.683-2.452-2.553-5.671 4.923 3.74 3.586-5.058-.729 6.192 6.139.582-5.683 2.452z"/><path d="m915.945 833.359-3.738-2.82-2.735 3.831.577-4.689-4.649-.46 4.284-1.839-1.914-4.291 3.738 2.819 2.704-3.831-.547 4.69 4.62.459-4.285 1.84z"/><path d="m937.552 769.697c1.61 1.134 2.006 3.372.881 5.027-1.124 1.624-3.343 2.023-4.984.889-1.61-1.134-2.005-3.372-.881-5.027 1.124-1.625 3.343-2.023 4.984-.889z"/><path d="m966.208 855.396c0-1.471 1.186-2.666 2.644-2.666 1.459 0 2.644 1.195 2.644 2.666 0 1.472-1.185 2.667-2.644 2.667-1.458 0-2.644-1.195-2.644-2.667z"/><path d="m968.397 865.389c0-1.471 1.185-2.667 2.643-2.667 1.459 0 2.644 1.196 2.644 2.667s-1.185 2.666-2.644 2.666c-1.458 0-2.643-1.195-2.643-2.666z"/><path d="m951.895 865.389c0-1.472 1.186-2.667 2.644-2.667 1.459 0 2.644 1.195 2.644 2.667 0 1.471-1.185 2.666-2.644 2.666-1.458 0-2.644-1.195-2.644-2.666z"/><path d="m858.387 765.529h.031l77.128 6.651s.152 0 .213.061l46.556 29.272c.183.092.243.306.213.49l-13.189 53.363 2.158 9.869s0 .276-.092.399c-.091.123-.212.184-.364.184h-16.502v-.92h15.924l-2.005-9.195-56.798-26.881s-.122-.061-.152-.122l-53.455-62.466s-.152-.338-.061-.522c.091-.153.243-.245.395-.245zm76.977 7.57-75.883-6.559 52.665 61.516 56.403 26.697 12.976-52.627-46.161-29.057z"/><path d="m695.377 409.798-4.923-3.74-3.586 5.058.729-6.161-6.139-.613 5.683-2.452-2.553-5.67 4.924 3.739 3.586-5.057-.73 6.191 6.139.582-5.683 2.452z"/><path d="m678.055 372.833c1.611 1.134 2.006 3.372.881 5.027-1.124 1.624-3.343 2.023-4.984.889-1.641-1.135-2.005-3.372-.881-5.027 1.125-1.655 3.343-2.023 4.984-.889z"/><path d="m725.827 433.49c0-1.471 1.185-2.666 2.644-2.666s2.644 1.195 2.644 2.666c0 1.472-1.185 2.667-2.644 2.667s-2.644-1.195-2.644-2.667z"/><path d="m711.756 403.637c0-1.472 1.185-2.667 2.644-2.667s2.644 1.195 2.644 2.667c0 1.471-1.185 2.666-2.644 2.666s-2.644-1.195-2.644-2.666z"/><path d="m676.413 375.561 13.858 27.003 24.16.613c.182 0 .334.123.395.276l13.827 29.394 29.174-20.199.516.766-29.629 20.506s-.244.092-.365.061c-.122-.031-.243-.123-.304-.245l-13.949-29.609-24.129-.613c-.152 0-.304-.092-.395-.245l-13.979-27.249.82-.429z"/><path d="m758.07 419.973-.274-6.191-6.138.398 5.196-3.341-3.434-5.149 5.47 2.851 2.705-5.579.273 6.222 6.139-.429-5.197 3.341 3.434 5.18-5.47-2.881z"/><path d="m443.509 579.725 117.516 82.114 3.708-11.035-19.906-26.574.73-.551 20.057 26.788s.121.276.061.429l-3.981 11.862s-.152.245-.304.276c-.122.031-.274 0-.395-.061l-118.002-82.481z"/><path d="m567.255 647.77c1.61 1.134 2.005 3.372.881 5.027-1.124 1.624-3.343 2.023-4.984.889-1.611-1.134-2.006-3.372-.881-5.027 1.124-1.625 3.343-2.023 4.984-.889z"/><path d="m440.592 580.094c0-1.472 1.185-2.667 2.644-2.667 1.458 0 2.644 1.195 2.644 2.667 0 1.471-1.186 2.666-2.644 2.666-1.459 0-2.644-1.195-2.644-2.666z"/><path d="m558.625 662.575c0-1.472 1.185-2.667 2.643-2.667 1.459 0 2.644 1.195 2.644 2.667 0 1.471-1.185 2.666-2.644 2.666-1.458 0-2.643-1.195-2.643-2.666z"/><path d="m543.612 630.575-1.367-6.069-5.987 1.533 4.528-4.23-4.285-4.444 5.865 1.808 1.702-5.977 1.367 6.069 5.987-1.533-4.528 4.23 4.285 4.475-5.896-1.839z"/><path d="m595.547 704.78-3.738-2.82-2.704 3.832.577-4.69-4.65-.46 4.285-1.839-1.914-4.291 3.707 2.851 2.735-3.832-.577 4.659 4.649.46-4.284 1.839z"/><path d="m638.609 625.334c1.611 1.134 2.006 3.371.881 5.026-1.124 1.625-3.342 2.023-4.983.889-1.611-1.134-2.006-3.371-.882-5.027 1.125-1.624 3.343-2.023 4.984-.888z"/><path d="m653.257 611.572c0-1.472 1.185-2.667 2.644-2.667s2.644 1.195 2.644 2.667c0 1.471-1.185 2.666-2.644 2.666s-2.644-1.195-2.644-2.666z"/><path d="m642.165 647.923c0-1.471 1.185-2.666 2.644-2.666 1.458 0 2.643 1.195 2.643 2.666s-1.185 2.667-2.643 2.667c-1.459 0-2.644-1.196-2.644-2.667z"/><path d="m642.165 672.475c0-1.471 1.185-2.667 2.644-2.667 1.458 0 2.643 1.196 2.643 2.667s-1.185 2.666-2.643 2.666c-1.459 0-2.644-1.195-2.644-2.666z"/><path d="m607.855 678.421c0-1.471 1.185-2.667 2.644-2.667s2.644 1.196 2.644 2.667-1.185 2.667-2.644 2.667-2.644-1.196-2.644-2.667z"/><path d="m544.858 724.612c-1.461 0-2.644 1.193-2.644 2.666s1.183 2.667 2.644 2.667c1.46 0 2.643-1.194 2.643-2.667s-1.183-2.666-2.643-2.666z"/><path d="m655.901 611.112s.182 0 .243.092c.182.122.243.337.182.521l-11.062 36.29v24.49c0 .215-.152.429-.364.46l-34.128 5.915-18.932 21.119s-.061.061-.122.092l-46.617 27.616-.456-.797 46.557-27.586 18.993-21.179s.152-.123.273-.153l33.915-5.855v-24.091l-8.205-19.525c-.091-.184 0-.398.121-.521l19.359-16.735s.182-.123.303-.123zm-11.153 35.462 10.271-33.623-17.899 15.478z"/><path d="m611.927 511.129-4.923-3.739-3.586 5.057.73-6.161-6.139-.613 5.683-2.421-2.553-5.671 4.923 3.74 3.586-5.058-.729 6.161 6.138.613-5.682 2.422z"/><path d="m952.896 672.505-4.923-3.739-3.586 5.057.73-6.191-6.139-.583 5.683-2.452-2.553-5.67 4.923 3.739 3.586-5.057-.729 6.161 6.138.613-5.682 2.452z"/><path d="m1139.4 578.561-5.81-2.084-1.91 5.915-1.13-6.099-6.04 1.257 4.71-4.046-4.14-4.629 5.84 2.085 1.91-5.916 1.13 6.13 6.04-1.287-4.71 4.046z"/><path d="m942.686 563.021-4.954-3.74-3.586 5.058.76-6.161-6.138-.613 5.652-2.421-2.553-5.671 4.954 3.74 3.586-5.058-.76 6.161 6.139.613-5.653 2.421z"/><path d="m703.035 550.821c1.611 1.135 2.006 3.372.881 5.027-1.124 1.625-3.343 2.023-4.984.889-1.61-1.134-2.005-3.372-.881-5.027 1.125-1.624 3.343-2.023 4.984-.889z"/><path d="m727.437 603.909c1.611 1.134 2.006 3.371.882 5.026-1.125 1.625-3.343 2.023-4.984.889-1.611-1.134-2.006-3.371-.882-5.026 1.125-1.625 3.343-2.023 4.984-.889z"/><path d="m912.053 585.059c1.611 1.134 2.006 3.372.882 5.027-1.125 1.624-3.343 2.023-4.984.889s-2.006-3.372-.882-5.027c1.125-1.655 3.343-2.023 4.984-.889z"/><path d="m1099.46 637.318c1.62 1.134 2.01 3.372.89 5.027-1.13 1.655-3.35 2.023-4.99.889-1.61-1.135-2-3.372-.88-5.027 1.13-1.625 3.34-2.023 4.98-.889z"/><path d="m712.729 649.67c1.611 1.134 2.006 3.372.882 5.027-1.125 1.625-3.343 2.023-4.984.889-1.611-1.134-2.006-3.372-.882-5.027 1.125-1.624 3.343-2.023 4.984-.889z"/><path d="m766.215 549.412c1.61 1.134 2.005 3.371.881 5.027-1.124 1.655-3.343 2.023-4.984.889-1.641-1.135-2.006-3.372-.881-5.027 1.124-1.625 3.343-2.023 4.984-.889z"/><path d="m871.301 496.172c1.611 1.134 2.006 3.371.881 5.027-1.124 1.624-3.342 2.022-4.983.888s-2.006-3.371-.882-5.026c1.125-1.655 3.343-2.023 4.984-.889z"/><path d="m729.322 588.001c0-1.471 1.185-2.666 2.644-2.666s2.644 1.195 2.644 2.666-1.185 2.667-2.644 2.667-2.644-1.196-2.644-2.667z"/><path d="m710.359 537.979c0-1.471 1.185-2.666 2.644-2.666 1.458 0 2.643 1.195 2.643 2.666s-1.185 2.667-2.643 2.667c-1.459 0-2.644-1.196-2.644-2.667z"/><path d="m687.658 493.168c0-1.472 1.185-2.667 2.643-2.667 1.459 0 2.644 1.195 2.644 2.667 0 1.471-1.185 2.666-2.644 2.666-1.458 0-2.643-1.195-2.643-2.666z"/><path d="m653.196 477.597c0-1.471 1.185-2.666 2.644-2.666s2.644 1.195 2.644 2.666c0 1.472-1.185 2.667-2.644 2.667s-2.644-1.195-2.644-2.667z"/><path d="m639.461 524.125c0-1.471 1.185-2.667 2.643-2.667 1.459 0 2.644 1.196 2.644 2.667s-1.185 2.667-2.644 2.667c-1.458 0-2.643-1.196-2.643-2.667z"/><path d="m723.547 621.288c0-1.472 1.186-2.667 2.644-2.667 1.459 0 2.644 1.195 2.644 2.667 0 1.471-1.185 2.666-2.644 2.666-1.458 0-2.644-1.195-2.644-2.666z"/><path d="m972.65 505.704c0-1.471 1.185-2.667 2.644-2.667 1.458 0 2.644 1.196 2.644 2.667s-1.186 2.666-2.644 2.666c-1.459 0-2.644-1.195-2.644-2.666z"/><path d="m944.995 593.365c-1.46 0-2.644 1.194-2.644 2.666 0 1.473 1.184 2.667 2.644 2.667s2.644-1.194 2.644-2.667c0-1.472-1.184-2.666-2.644-2.666z"/><path d="m1013.01 541.596c0-1.471 1.18-2.667 2.64-2.667s2.64 1.196 2.64 2.667-1.18 2.666-2.64 2.666-2.64-1.195-2.64-2.666z"/><path d="m1044.55 509.198c0-1.472 1.19-2.667 2.64-2.667 1.46 0 2.65 1.195 2.65 2.667 0 1.471-1.19 2.666-2.65 2.666-1.45 0-2.64-1.195-2.64-2.666z"/><path d="m994.682 663.494c0-1.471 1.185-2.666 2.644-2.666s2.644 1.195 2.644 2.666-1.185 2.667-2.644 2.667-2.644-1.196-2.644-2.667z"/><path d="m1013.01 663.494c0-1.471 1.18-2.666 2.64-2.666s2.64 1.195 2.64 2.666c0 1.472-1.18 2.667-2.64 2.667s-2.64-1.195-2.64-2.667z"/><path d="m953.96 597.717c0-1.471 1.185-2.667 2.644-2.667 1.458 0 2.644 1.196 2.644 2.667s-1.186 2.667-2.644 2.667c-1.459 0-2.644-1.196-2.644-2.667z"/><path d="m787.061 711.217c0-1.471 1.185-2.666 2.644-2.666s2.644 1.195 2.644 2.666-1.185 2.667-2.644 2.667-2.644-1.196-2.644-2.667z"/><path d="m686.776 656.751c0-1.471 1.186-2.667 2.644-2.667 1.459 0 2.644 1.196 2.644 2.667s-1.185 2.667-2.644 2.667c-1.458 0-2.644-1.196-2.644-2.667z"/><path d="m761.534 566.178c0-1.471 1.186-2.667 2.644-2.667 1.459 0 2.644 1.196 2.644 2.667s-1.185 2.666-2.644 2.666c-1.458 0-2.644-1.195-2.644-2.666z"/><path d="m817.451 509.566c-1.461 0-2.644 1.194-2.644 2.667 0 1.472 1.183 2.666 2.644 2.666 1.46 0 2.643-1.194 2.643-2.666 0-1.473-1.183-2.667-2.643-2.667z"/><path d="m811.039 502.149c-1.46 0-2.644 1.193-2.644 2.666s1.184 2.667 2.644 2.667 2.644-1.194 2.644-2.667-1.184-2.666-2.644-2.666z"/><path d="m811.738 486.639c-1.46 0-2.644 1.194-2.644 2.667 0 1.472 1.184 2.666 2.644 2.666s2.644-1.194 2.644-2.666c0-1.473-1.184-2.667-2.644-2.667z"/><path d="m1046.86 508.892.64.643-31.52 32.398-59.072 56.122s-.243.122-.365.122l-11.639-1.686-34.097-7.815 36.954 76.565 49.534-2.176h18.265l82.72-23.479 33.55-66.45.82.429-33.64 66.634s-.15.184-.27.246l-82.97 23.539s-.09 0-.12 0h-18.324l-49.808 2.207c-.183 0-.335-.092-.395-.276l-37.501-77.699c-.091-.154-.061-.337.061-.491.121-.153.273-.184.456-.153l34.978 8 11.365 1.655 58.898-55.968 31.51-32.398z"/><path d="m974.928 505.428.73.551-38.017 50.544-27.29 31.784s-.152.123-.213.154l-114.173 30.926-5.743 91.217 157.174-45.333.243.889-157.782 45.517s-.304 0-.395-.092c-.122-.092-.183-.246-.183-.399l5.805-92.197c0-.184.152-.368.334-.399l114.355-30.957 27.169-31.662 37.986-50.513z"/><path d="m811.282 489.276h.912l-.669 15.386 6.109 7.05 51.54-13.027.213.889-51.814 13.088c-.152.031-.335 0-.456-.153l-6.412-7.418s-.122-.214-.122-.337l.669-15.509z"/><path d="m817.178 511.865.547.735-53.091 40.03v13.548s-.091.306-.212.368l-31.545 21.394 62.846 30.651c.212.092.304.337.243.551-.061.215-.304.368-.517.307l-69.561-12.046.76 13.854s0 .154-.061.246l-15.499 31.325s-.182.214-.334.245l-21.273 4.138-.182-.889 21.06-4.077 15.346-31.018-.79-14.314s.061-.276.152-.368.243-.123.365-.123l66.948 11.617-60.657-29.578s-.244-.214-.244-.368c0-.153.061-.337.213-.398l32-21.701v-13.548s.061-.275.183-.367l53.272-40.153z"/><path d="m656.022 477.199 34.462 15.54s.182.122.213.214l22.701 44.812c.091.153.06.337-.031.49l-11.791 15.509 30.724 33.931-.669.613-30.967-34.207c-.152-.153-.152-.398 0-.582l11.852-15.57-22.488-44.413-34.31-15.479.365-.828z"/><path d="m606.731 503.957 35.586 19.769s.121.062.152.123l34.796 46.589 23.46-17.011.547.735-23.825 17.288c-.213.153-.486.091-.638-.092l-35.009-46.865-35.495-19.709.426-.797z"/><path d="m677.447 570.683 48.228 35.8-.547.736-48.228-35.769z"/><path d="m673.041 578.162 1.398-6.069-6.017-1.287 5.895-1.778-1.914-5.915 4.497 4.26 4.103-4.628-1.398 6.069 6.017 1.287-5.895 1.778 1.914 5.915-4.498-4.26z"/><path d="m792.349 626.958.578-6.191-6.139-.43 5.592-2.605-2.675-5.578 5.015 3.586 3.464-5.149-.577 6.191 6.138.46-5.622 2.574 2.705 5.609-5.014-3.616z"/><path d="m525.044 468.923-4.953-3.709-3.586 5.057.759-6.191-6.138-.613 5.652-2.421-2.553-5.671 4.954 3.74 3.586-5.058-.76 6.161 6.139.613-5.653 2.452z"/><path d="m467.152 417.982-4.923-3.709-3.586 5.057.729-6.191-6.138-.613 5.683-2.422-2.553-5.67 4.923 3.739 3.586-5.057-.729 6.161 6.138.613-5.683 2.452z"/><path d="m427.464 451.33-6.139-.613-.456 6.191-2.552-5.67-5.562 2.697 3.617-5.057-5.106-3.495 6.139.613.486-6.222 2.523 5.671 5.561-2.667-3.586 5.027z"/><path d="m656.782 465.092-3.738-2.851-2.704 3.832.547-4.659-4.65-.46 4.285-1.839-1.914-4.291 3.737 2.82 2.705-3.832-.547 4.69 4.619.46-4.285 1.839z"/><path d="m520.638 400.97-3.738-2.85-2.705 3.831.547-4.659-4.649-.459 4.315-1.839-1.945-4.292 3.738 2.82 2.705-3.831-.547 4.69 4.649.459-4.315 1.839z"/><path d="m537.291 438.334c1.611 1.134 2.006 3.372.881 5.027-1.124 1.624-3.342 2.023-4.983.889-1.611-1.134-2.006-3.372-.882-5.027 1.125-1.625 3.343-2.023 4.984-.889z"/><path d="m580.839 397.078c1.611 1.134 2.006 3.372.881 5.027-1.124 1.624-3.342 2.023-4.983.889-1.611-1.134-2.006-3.372-.882-5.027 1.125-1.624 3.343-2.023 4.984-.889z"/><path d="m526.23 491.942c0-1.471 1.185-2.667 2.643-2.667 1.459 0 2.644 1.196 2.644 2.667s-1.185 2.667-2.644 2.667c-1.458 0-2.643-1.196-2.643-2.667z"/><path d="m512.585 472.724c-1.461 0-2.644 1.194-2.644 2.666 0 1.473 1.183 2.667 2.644 2.667 1.46 0 2.644-1.194 2.644-2.667 0-1.472-1.184-2.666-2.644-2.666z"/><path d="m430.837 459.943c0-1.471 1.185-2.667 2.644-2.667s2.644 1.196 2.644 2.667-1.185 2.666-2.644 2.666-2.644-1.195-2.644-2.666z"/><path d="m436.429 421.966c-1.461 0-2.644 1.194-2.644 2.667s1.183 2.667 2.644 2.667c1.46 0 2.644-1.194 2.644-2.667s-1.184-2.667-2.644-2.667z"/><path d="m484.566 415.714c0-1.472 1.185-2.667 2.643-2.667 1.459 0 2.644 1.195 2.644 2.667 0 1.471-1.185 2.666-2.644 2.666-1.458 0-2.643-1.195-2.643-2.666z"/><path d="m525.834 397.384c-1.46 0-2.644 1.194-2.644 2.667s1.184 2.667 2.644 2.667 2.644-1.194 2.644-2.667-1.184-2.667-2.644-2.667z"/><path d="m493.469 370.075c0-1.472 1.186-2.667 2.644-2.667 1.459 0 2.644 1.195 2.644 2.667 0 1.471-1.185 2.666-2.644 2.666-1.458 0-2.644-1.195-2.644-2.666z"/><path d="m496.144 357.722c-1.46 0-2.644 1.194-2.644 2.667s1.184 2.667 2.644 2.667 2.644-1.194 2.644-2.667-1.184-2.667-2.644-2.667z"/><path d="m512.584 361.125c-1.46 0-2.643 1.193-2.643 2.666s1.183 2.667 2.643 2.667c1.461 0 2.644-1.194 2.644-2.667s-1.183-2.666-2.644-2.666z"/><path d="m584.668 408.541c-1.46 0-2.644 1.194-2.644 2.667 0 1.472 1.184 2.666 2.644 2.666s2.644-1.194 2.644-2.666c0-1.473-1.184-2.667-2.644-2.667z"/><path d="m597.614 396.312c0-1.472 1.185-2.667 2.644-2.667s2.644 1.195 2.644 2.667c0 1.471-1.185 2.666-2.644 2.666s-2.644-1.195-2.644-2.666z"/><path d="m512.129 436.832c0-1.471 1.185-2.667 2.643-2.667 1.459 0 2.644 1.196 2.644 2.667s-1.185 2.667-2.644 2.667c-1.458 0-2.643-1.196-2.643-2.667z"/><path d="m577.649 436.832c0-1.472 1.185-2.667 2.643-2.667 1.459 0 2.644 1.195 2.644 2.667 0 1.471-1.185 2.666-2.644 2.666-1.458 0-2.643-1.195-2.643-2.666z"/><path d="m496.144 359.929h.091l16.471 3.402-.182.889-15.925-3.28v8.95l20.24 25.563 9.177 4.169 19.662 3.463 33.064-3.494 21.455-3.709c.152-.03.334 0 .425.154l52.422 63.631-.699.582-52.239-63.417-21.212 3.679-33.155 3.524s-.091 0-.121 0l-19.845-3.524-9.39-4.23s-.122-.062-.182-.123l-20.422-25.777s-.091-.184-.091-.276v-9.655s.061-.276.182-.368c.091-.061.182-.092.274-.092z"/><path d="m579.198 399.836 5.865 11.188s.061.184.031.307l-4.377 25.624c-.03.214-.212.367-.395.367l-45.037 4.445s-.091 0-.152 0l-20.482-4.445s-.122-.03-.182-.092l-27.503-21.087-25.193-4.445-25.101 13.303-16.715 23.264 13.767 11.31-.578.705-14.1-11.586c-.182-.154-.213-.429-.091-.613l17.048-23.724s.091-.092.152-.153l25.345-13.425s.182-.062.273-.031l25.436 4.475s.152.031.213.092l27.502 21.088 20.301 4.383 44.611-4.383 4.285-25.134-5.804-11.034.82-.429z"/><path d="m580.11 436.433.365.859-60.506 25.256-6.807 12.781 16.046 16.306-.638.644-16.259-16.551s-.182-.368-.091-.552l7.05-13.241s.122-.153.213-.215l60.657-25.317z"/><path d="m544.007 412.281-1.368-6.069-5.956 1.532 4.498-4.23-4.285-4.475 5.895 1.839 1.672-5.976 1.367 6.068 5.987-1.532-4.528 4.23 4.285 4.444-5.865-1.808z"/><path d="m1157.33 893.406-4.96-3.709-3.58 5.058.76-6.192-6.14-.613 5.65-2.421-2.55-5.671 4.95 3.74 3.59-5.058-.76 6.161 6.14.613-5.66 2.452z"/><path d="m1099.43 842.465-4.92-3.709-3.58 5.057.72-6.191-6.13-.613 5.68-2.422-2.55-5.67 4.92 3.739 3.59-5.057-.73 6.161 6.13.613-5.68 2.452z"/><path d="m1059.75 875.813-6.14-.613-.46 6.191-2.55-5.67-5.56 2.697 3.61-5.057-5.1-3.495 6.14.613.48-6.222 2.53 5.671 5.56-2.667-3.59 5.027z"/><path d="m1289.06 889.575-3.73-2.851-2.71 3.832.55-4.659-4.65-.46 4.28-1.839-1.91-4.291 3.74 2.82 2.7-3.832-.54 4.69 4.61.46-4.28 1.839z"/><path d="m1152.92 825.454-3.74-2.851-2.7 3.831.54-4.659-4.65-.459 4.32-1.839-1.94-4.291 3.73 2.819 2.71-3.831-.55 4.69 4.65.459-4.31 1.839z"/><path d="m1169.57 862.817c1.61 1.134 2.01 3.372.88 5.027-1.12 1.624-3.34 2.023-4.98.889-1.61-1.135-2.01-3.372-.88-5.027 1.12-1.625 3.34-2.023 4.98-.889z"/><path d="m1213.12 821.561c1.61 1.134 2.01 3.372.88 5.027-1.12 1.624-3.34 2.023-4.98.889-1.61-1.134-2.01-3.372-.88-5.027 1.12-1.625 3.34-2.023 4.98-.889z"/><path d="m1158.51 916.425c0-1.471 1.19-2.667 2.65-2.667 1.45 0 2.64 1.196 2.64 2.667s-1.19 2.667-2.64 2.667c-1.46 0-2.65-1.196-2.65-2.667z"/><path d="m1144.87 897.207c-1.46 0-2.65 1.194-2.65 2.666 0 1.473 1.19 2.667 2.65 2.667s2.64-1.194 2.64-2.667c0-1.472-1.18-2.666-2.64-2.666z"/><path d="m1063.12 884.426c0-1.472 1.18-2.667 2.64-2.667s2.65 1.195 2.65 2.667c0 1.471-1.19 2.666-2.65 2.666s-2.64-1.195-2.64-2.666z"/><path d="m1068.71 846.449c-1.46 0-2.64 1.194-2.64 2.667s1.18 2.667 2.64 2.667 2.64-1.194 2.64-2.667-1.18-2.667-2.64-2.667z"/><path d="m1116.85 840.197c0-1.472 1.18-2.667 2.64-2.667s2.65 1.195 2.65 2.667c0 1.471-1.19 2.666-2.65 2.666s-2.64-1.195-2.64-2.666z"/><path d="m1158.12 821.867c-1.46 0-2.65 1.194-2.65 2.667s1.19 2.667 2.65 2.667 2.64-1.194 2.64-2.667-1.18-2.667-2.64-2.667z"/><path d="m1125.75 794.558c0-1.472 1.19-2.667 2.65-2.667 1.45 0 2.64 1.195 2.64 2.667 0 1.471-1.19 2.666-2.64 2.666-1.46 0-2.65-1.195-2.65-2.666z"/><path d="m1128.43 782.205c-1.46 0-2.65 1.194-2.65 2.667s1.19 2.666 2.65 2.666 2.64-1.193 2.64-2.666-1.18-2.667-2.64-2.667z"/><path d="m1144.87 785.607c-1.46 0-2.65 1.194-2.65 2.667s1.19 2.667 2.65 2.667 2.64-1.194 2.64-2.667-1.18-2.667-2.64-2.667z"/><path d="m1216.95 833.024c-1.46 0-2.64 1.194-2.64 2.667 0 1.472 1.18 2.666 2.64 2.666s2.64-1.194 2.64-2.666c0-1.473-1.18-2.667-2.64-2.667z"/><path d="m1229.9 820.795c0-1.472 1.18-2.667 2.64-2.667s2.64 1.195 2.64 2.667c0 1.471-1.18 2.666-2.64 2.666s-2.64-1.195-2.64-2.666z"/><path d="m1144.41 861.315c0-1.471 1.19-2.667 2.64-2.667 1.46 0 2.65 1.196 2.65 2.667s-1.19 2.667-2.65 2.667c-1.45 0-2.64-1.196-2.64-2.667z"/><path d="m1209.93 861.315c0-1.472 1.19-2.667 2.64-2.667 1.46 0 2.65 1.195 2.65 2.667 0 1.471-1.19 2.666-2.65 2.666-1.45 0-2.64-1.195-2.64-2.666z"/><path d="m1128.43 784.412h.09l16.47 3.402-.18.889-15.93-3.279v8.95l20.24 25.562 9.18 4.169 19.66 3.463 33.06-3.494 21.46-3.709c.15-.03.33 0 .42.154l52.43 63.631-.7.582-52.24-63.416-21.21 3.678-33.16 3.524s-.09 0-.12 0l-19.84-3.524-9.4-4.23s-.12-.062-.18-.123l-20.42-25.777s-.09-.184-.09-.276v-9.655s.06-.276.18-.368c.09-.061.18-.092.28-.092z"/><path d="m1211.48 824.319 5.87 11.188s.06.184.03.306l-4.38 25.624c-.03.215-.21.368-.4.368l-45.03 4.445s-.09 0-.15 0l-20.49-4.445s-.12-.03-.18-.092l-27.5-21.087-25.19-4.445-25.11 13.303-16.71 23.264 13.77 11.31-.58.705-14.1-11.586c-.18-.154-.21-.429-.09-.613l17.05-23.724s.09-.092.15-.153l25.34-13.425s.18-.062.28-.031l25.43 4.475s.15.031.21.092l27.51 21.088 20.3 4.383 44.61-4.383 4.28-25.134-5.8-11.034.82-.429z"/><path d="m1212.39 860.916.37.859-60.51 25.256-6.81 12.781 16.05 16.306-.64.644-16.26-16.551s-.18-.368-.09-.552l7.05-13.241s.12-.154.22-.215l60.65-25.317z"/><path d="m1176.29 836.763-1.37-6.068-5.95 1.532 4.49-4.23-4.28-4.475 5.89 1.839 1.67-5.977 1.37 6.069 5.99-1.532-4.53 4.23 4.29 4.444-5.87-1.808z"/><path d="m1210.77 672.403-1.72 5.939 6.01 1.526-6.01 1.537 1.63 5.948-4.3-4.431-4.37 4.422 1.71-5.939-6-1.526 6.01-1.536-1.64-5.948 4.3 4.431z"/><path d="m1206.89 506.222-1.7 5.967 6.01 1.526-6.03 1.508 1.64 5.948-4.29-4.402-4.38 4.393 1.71-5.938-6.01-1.527 6.03-1.507-1.64-5.948 4.29 4.402z"/><path d="m1269.36 630.624c.47-1.91 2.42-3.084 4.37-2.631 1.92.465 3.09 2.391 2.62 4.331-.48 1.91-2.42 3.084-4.37 2.631-1.92-.465-3.09-2.391-2.62-4.331z"/><path d="m1234.48 734.067c.48-1.911 2.42-3.084 4.37-2.631 1.92.465 3.09 2.391 2.63 4.33-.48 1.911-2.43 3.085-4.38 2.632-1.95-.454-3.09-2.392-2.62-4.331z"/><path d="m1232.27 571.252c.48-1.911 2.42-3.085 4.37-2.631 1.92.464 3.09 2.391 2.62 4.33-.48 1.911-2.42 3.085-4.37 2.631-1.92-.464-3.09-2.391-2.62-4.33z"/><path d="m1157.43 492.011c.47-1.91 2.42-3.084 4.37-2.631 1.92.465 3.09 2.391 2.62 4.331-.48 1.91-2.42 3.084-4.37 2.631-1.92-.465-3.09-2.391-2.62-4.331z"/><path d="m1233.11 596.17-3.28 4.783 4.88 3.131-5.8-.399-.3 5.782-2.54-5.21-5.17 2.68 3.27-4.812-4.88-3.102 5.81.399.27-5.772 2.55 5.172z"/><path d="m1197.8 632.911c-1.37.529-2.91-.146-3.44-1.507-.52-1.361.17-2.897 1.54-3.427 1.37-.529 2.91.147 3.44 1.508.52 1.361-.16 2.897-1.54 3.426z"/><path d="m1251.14 735.005c-1.38.529-2.92-.146-3.44-1.507-.53-1.361.16-2.897 1.53-3.426 1.38-.53 2.92.146 3.44 1.507.53 1.361-.16 2.897-1.53 3.426z"/><path d="m1140.05 720.747c-1.37.529-2.91-.146-3.44-1.507-.52-1.361.17-2.897 1.54-3.427 1.37-.529 2.92.147 3.44 1.508.53 1.361-.16 2.896-1.54 3.426z"/><path d="m1129.72 728.022c-1.37.529-2.91-.147-3.44-1.508-.52-1.361.16-2.897 1.54-3.426 1.37-.529 2.91.146 3.44 1.507.52 1.361-.17 2.897-1.54 3.427z"/><path d="m1128.49 725.174 10.29-7.225 57.7-87.785s.3-.246.49-.187c.17.03.33.195.36.348l9.66 49.332 31.43 55.007-.81.445-31.46-55.093s-.04-.085-.06-.142l-9.46-48.302-57.12 86.91s-.06.089-.12.112l-10.35 7.246-.51-.745z"/><path d="m1206.15 680.112.73-.575 43.68 52.694-.72.603z"/><path d="m1196.42 630.61s-.02-.057-.03-.085c-.06-.142.01-.299.14-.411l29.86-29.3c.14-.152.4-.155.57-.057l45.82 30.143 25.84-25.502c.14-.152.37-.144.53-.074l64.81 34.385 24.15-19.998s.29-.11.42-.098c.15.041.25.133.3.274l18.76 48.628c.07.198.01.384-.14.507s-.37.143-.55.017l-42.94-28.29-27.3 16.781-18.22 28.817 10.21 22.969-.84.387-10.27-23.042-120.93-55.829s-.19-.154-.23-.239zm30.36-28.872-29.13 28.562 120.13 55.454 18.21-28.778s.09-.101.14-.152l26.98-16.592-64.09-33.977-25.86 25.541c-.17.162-.4.154-.57.057l-45.82-30.143zm161.47 19.093-23.44 19.395 41.46 27.332-18.01-46.699z"/><path d="m1226.26 600.993 9.03-29.052s.14-.247.28-.302.28-.043.4.009l63.19 33.608-.44.82-62.69-33.342-8.89 28.505-.89-.274z"/><path d="m1160.7 493.257.41-.809 41.62 20.853s.14.109.2.183l33.25 58.376-.81.444-33.18-58.273z"/><path d="m279.104 291.976-6.139-.613-.486 6.192-2.523-5.671-5.561 2.698 3.586-5.058-5.075-3.525 6.139.644.456-6.222 2.552 5.67 5.561-2.666-3.616 5.026z"/><path d="m379.663 248.238-3.738-2.82-2.705 3.831.578-4.689-4.65-.46 4.285-1.839-1.945-4.291 3.738 2.82 2.735-3.801-.577 4.659 4.649.46-4.285 1.839z"/><path d="m376.715 353.584-3.708-2.82-2.735 3.832.577-4.659-4.649-.46 4.285-1.87-1.915-4.26 3.738 2.82 2.705-3.832-.578 4.659 4.65.46-4.285 1.87z"/><path d="m301.804 503.957c1.611 1.134 2.006 3.371.882 5.027-1.125 1.655-3.343 2.023-4.984.888-1.641-1.134-2.006-3.371-.881-5.026 1.124-1.625 3.342-2.023 4.983-.889z"/><path d="m288.616 438.334c1.61 1.134 2.005 3.371.881 5.026-1.125 1.625-3.343 2.023-4.984.889-1.611-1.134-2.006-3.371-.881-5.027 1.124-1.624 3.343-2.023 4.984-.888z"/><path d="m384.646 483.022c1.611 1.134 2.006 3.372.882 5.027-1.125 1.625-3.343 2.023-4.984.889s-2.006-3.372-.882-5.027c1.125-1.624 3.343-2.023 4.984-.889z"/><path d="m422.754 314.933c1.611 1.134 2.006 3.372.882 5.027-1.125 1.655-3.343 2.023-4.984.889-1.611-1.134-2.006-3.372-.881-5.027 1.124-1.624 3.342-2.023 4.983-.889z"/><path d="m319.188 394.105c1.61 1.134 2.005 3.371.881 5.026-1.125 1.625-3.343 2.023-4.984.889-1.611-1.134-2.006-3.371-.881-5.027 1.124-1.655 3.343-2.023 4.984-.888z"/><path d="m493.045 232.115c1.611 1.134 2.006 3.372.882 5.027-1.125 1.624-3.343 2.023-4.984.889-1.611-1.134-2.006-3.372-.882-5.027 1.125-1.655 3.343-2.023 4.984-.889z"/><path d="m421.569 322.565c-1.46 0-2.644 1.194-2.644 2.667s1.184 2.667 2.644 2.667 2.644-1.194 2.644-2.667-1.184-2.667-2.644-2.667z"/><path d="m307.092 429.506c-1.46 0-2.643 1.194-2.643 2.667 0 1.472 1.183 2.666 2.643 2.666 1.461 0 2.644-1.194 2.644-2.666 0-1.473-1.183-2.667-2.644-2.667z"/><path d="m302.716 443.483c-1.46 0-2.644 1.193-2.644 2.666s1.184 2.667 2.644 2.667 2.644-1.194 2.644-2.667-1.184-2.666-2.644-2.666z"/><path d="m292.202 457.95c0-1.471 1.185-2.667 2.643-2.667 1.459 0 2.644 1.196 2.644 2.667s-1.185 2.667-2.644 2.667c-1.458 0-2.643-1.196-2.643-2.667z"/><path d="m251.084 429.046c0-1.471 1.186-2.666 2.644-2.666 1.459 0 2.644 1.195 2.644 2.666 0 1.472-1.185 2.667-2.644 2.667-1.458 0-2.644-1.195-2.644-2.667z"/><path d="m240.813 439.069c0-1.471 1.185-2.667 2.644-2.667 1.458 0 2.644 1.196 2.644 2.667s-1.186 2.667-2.644 2.667c-1.459 0-2.644-1.196-2.644-2.667z"/><path d="m258.317 520.845c0-1.471 1.185-2.666 2.644-2.666s2.644 1.195 2.644 2.666-1.185 2.667-2.644 2.667-2.644-1.196-2.644-2.667z"/><path d="m333.531 578.224c0-1.472 1.185-2.667 2.644-2.667s2.644 1.195 2.644 2.667c0 1.471-1.185 2.666-2.644 2.666s-2.644-1.195-2.644-2.666z"/><path d="m338.363 586.959c-1.46 0-2.644 1.194-2.644 2.667 0 1.472 1.184 2.666 2.644 2.666s2.644-1.194 2.644-2.666c0-1.473-1.184-2.667-2.644-2.667z"/><path d="m255.461 486.762c0-1.471 1.185-2.667 2.644-2.667 1.458 0 2.644 1.196 2.644 2.667s-1.186 2.666-2.644 2.666c-1.459 0-2.644-1.195-2.644-2.666z"/><path d="m329.459 426.84c0-1.472 1.185-2.667 2.644-2.667s2.644 1.195 2.644 2.667c0 1.471-1.185 2.666-2.644 2.666s-2.644-1.195-2.644-2.666z"/><path d="m435.974 317.876c0-1.471 1.185-2.667 2.644-2.667s2.644 1.196 2.644 2.667-1.185 2.667-2.644 2.667-2.644-1.196-2.644-2.667z"/><path d="m427.1 249.954-1.398-6.069-5.956 1.533 4.497-4.23-4.285-4.444 5.896 1.808 1.671-5.977 1.368 6.069 5.987-1.533-4.528 4.23 4.315 4.475-5.896-1.839z"/><path d="m420.688 317.416h17.9c.212 0 .395.154.455.368.031.215-.06.429-.273.521l-17.049 7.326-.364-.858 14.982-6.468h-15.681v-.919z"/><path d="m491.009 234.598c.152 0 .304.092.395.245.091.154.061.368-.03.491l-44.825 60.29-7.475 22.375-.882-.307 7.506-22.467s.031-.092.061-.122l44.278-59.555-61.691 5.487 17.474 50.727-.851.306-17.656-51.278s0-.276.061-.399c.091-.123.212-.184.334-.214l63.301-5.64h.031z"/><path d="m427.677 240.238v.919l-51.844 2.422-48.836 61.301 45.706 43.003 70.443-51.309.547.735-70.747 51.524c-.182.123-.425.123-.577-.03l-46.283-43.555c-.183-.153-.183-.429-.031-.613l49.231-61.792s.213-.153.334-.184l52.118-2.421z"/><path d="m325.903 304.88.912.092-9.208 92.136-9.877 34.452 24.251-5.15c.182-.03.334 0 .425.154l50.508 59.125-.699.613-50.325-58.941-24.737 5.271c-.152.031-.334 0-.426-.122-.121-.123-.152-.276-.091-.429l10.059-35.095 9.208-92.075z"/><path d="m306.667 432.02.881.276-4.376 13.976s0 .092-.061.123l-7.779 11.678 4.892 48.704 36.376 71.232s.031.092.031.123l2.188 11.402c.03.184-.061.398-.213.49s-.365.092-.517-.061l-77.401-68.75.607-.674 76.399 67.861-1.914-10.023-36.376-71.263s-.031-.092-.061-.153l-4.923-48.95s0-.214.091-.306l7.81-11.739 4.346-13.916z"/><path d="m253.729 428.587h.06c.152 0 .274.092.335.214l46.04 77.853-.791.46-45.766-77.363-9.664 9.41 14.557 47.417-.882.276-14.647-47.693c-.061-.153 0-.337.121-.46l10.272-10.023s.213-.122.304-.122z"/><path d="m271.446 288.942 12.247 135.629 3.312 16.521 8.236 16.613-.821.398-8.266-16.674s-.03-.061-.03-.122l-3.343-16.644-12.247-135.691.912-.092z"/><path d="m449.953 302.305-4.649-4.076-3.921 4.781 1.186-6.099-6.078-1.073 5.834-2.023-2.127-5.823 4.619 4.076 3.951-4.751-1.185 6.1 6.078 1.042-5.835 2.023z"/><path d="m325.266 314.106-.76-6.161-6.108.889 4.923-3.739-3.829-4.873 5.682 2.421 2.28-5.762.759 6.16 6.078-.888-4.923 3.739 3.829 4.873-5.652-2.421z"/><path d="m280.805 432.357.213-6.192-6.169-.061 5.44-2.943-3.039-5.394 5.227 3.279 3.13-5.363-.183 6.222 6.139.061-5.44 2.912 3.039 5.425-5.227-3.28z"/><path d="m180.82 316.589-3.738-2.82-2.704 3.831.547-4.689-4.619-.46 4.285-1.839-1.945-4.291 3.737 2.82 2.705-3.801-.547 4.659 4.65.46-4.285 1.839z"/><path d="m203.339 277.448c1.611 1.134 2.006 3.371.881 5.027-1.124 1.655-3.343 2.022-4.984.888s-2.005-3.371-.881-5.026c1.125-1.625 3.343-2.023 4.984-.889z"/><path d="m146.997 138.109c0-1.471 1.185-2.666 2.644-2.666 1.458 0 2.644 1.195 2.644 2.666 0 1.472-1.186 2.667-2.644 2.667-1.459 0-2.644-1.195-2.644-2.667z"/><path d="m186.716 232.299c0-1.471 1.185-2.666 2.644-2.666 1.458 0 2.644 1.195 2.644 2.666 0 1.472-1.186 2.667-2.644 2.667-1.459 0-2.644-1.195-2.644-2.667z"/><path d="m217.47 396.128c0-1.472 1.186-2.667 2.644-2.667 1.459 0 2.644 1.195 2.644 2.667 0 1.471-1.185 2.666-2.644 2.666-1.458 0-2.644-1.195-2.644-2.666z"/><path d="m268.889 252.406c0-1.471 1.185-2.666 2.644-2.666s2.644 1.195 2.644 2.666-1.185 2.667-2.644 2.667-2.644-1.196-2.644-2.667z"/><path d="m265.425 228.315c0-1.471 1.185-2.667 2.644-2.667 1.458 0 2.643 1.196 2.643 2.667s-1.185 2.667-2.643 2.667c-1.459 0-2.644-1.196-2.644-2.667z"/><path d="m300.343 161.833-6.139-.613-.486 6.191-2.523-5.67-5.561 2.697 3.586-5.057-5.075-3.495 6.139.613.455-6.191 2.553 5.67 5.561-2.697-3.616 5.057z"/><path d="m287.579 81.436c1.611 1.1341 2.006 3.3717.881 5.0268-1.124 1.6245-3.343 2.023-4.984.8889-1.61-1.1341-2.005-3.3716-.881-5.0268 1.125-1.6245 3.343-2.0229 4.984-.8889z"/><path d="m213.733 134.86c1.61 1.134 2.005 3.372.881 5.027-1.124 1.624-3.343 2.023-4.984.889-1.61-1.134-2.006-3.372-.881-5.027 1.124-1.624 3.343-2.023 4.984-.889z"/><path d="m275.028 195.58c1.611 1.134 2.006 3.371.882 5.026-1.125 1.625-3.343 2.023-4.984.889-1.611-1.134-2.006-3.371-.881-5.027 1.124-1.655 3.342-2.023 4.983-.888z"/><path d="m311.921 45.6667c0-1.4713 1.185-2.6666 2.643-2.6666 1.459 0 2.644 1.1953 2.644 2.6666 0 1.4712-1.185 2.6666-2.644 2.6666-1.458 0-2.643-1.1954-2.643-2.6666z"/><path d="m321.068 67.0916c0-1.4713 1.186-2.6666 2.644-2.6666 1.459 0 2.644 1.1953 2.644 2.6666 0 1.4712-1.185 2.6666-2.644 2.6666-1.458 0-2.644-1.1954-2.644-2.6666z"/><path d="m268.312 109.696c-1.46 0-2.644 1.194-2.644 2.667s1.184 2.667 2.644 2.667 2.644-1.194 2.644-2.667-1.184-2.667-2.644-2.667z"/><path d="m351.579 154.017c.851-1.195 2.492-1.502 3.678-.674 1.185.858 1.489 2.513.668 3.708-.851 1.196-2.492 1.502-3.677.675-1.185-.859-1.489-2.514-.669-3.709z"/><path d="m255.123 182.124c.851-1.196 2.492-1.502 3.677-.675 1.185.859 1.489 2.514.669 3.709-.851 1.195-2.492 1.502-3.677.674-1.185-.858-1.489-2.513-.669-3.708z"/><path d="m270.834 212.285c.851-1.196 2.492-1.502 3.678-.675 1.185.828 1.489 2.514.668 3.709-.82 1.195-2.492 1.502-3.677.674-1.185-.827-1.489-2.513-.669-3.708z"/><path d="m348.358 95.4131c0-1.4712 1.185-2.6667 2.644-2.6667 1.458 0 2.644 1.1955 2.644 2.6667s-1.186 2.6666-2.644 2.6666c-1.459 0-2.644-1.1954-2.644-2.6666z"/><path d="m332.008 118.585c0-1.471 1.185-2.667 2.644-2.667s2.644 1.196 2.644 2.667-1.185 2.667-2.644 2.667-2.644-1.196-2.644-2.667z"/><path d="m253.391 79.9955-3.738-2.8199-2.704 3.8314.577-4.6589-4.65-.4599 4.285-1.8696-1.945-4.2605 3.738 2.8199 2.735-3.8313-.577 4.6588 4.649.4599-4.284 1.8389z"/><path d="m249.318 74.417h.122l36.224 9.5323s.243.1532.304.2758c.061.1227.03.2759-.031.3985l-17.23 27.9534-34.219 48.183-.729-.521 34.218-48.152 16.897-27.402-35.313-9.2872-37.47 62.6502-.79-.46 37.622-62.9565s.243-.2145.395-.2145z"/><path d="m292.229 158.4s.212.03.304.122c.152.123.212.368.121.552l-19.206 39.57v15.172h-.912v-15.294s0-.123.061-.215l18.477-38.068-33.489 23.754-.517-.766 34.948-24.797s.182-.091.274-.091z"/><path d="m314.99 45.4827 9.147 21.7007c.091.2452 0 .4904-.243.613l-38.169 17.0725-.365-.8276 37.774-16.8885-8.965-21.2717.851-.3678z"/><path d="m338.36 55.2912h.061c.121 0 .243.092.304.184l18.263 27.4936s.092.3066.031.4599l-5.653 12.1989-16.228 22.9884 18.964 36.719-.821.429-19.085-36.964s-.06-.338.031-.491l16.349-23.1411 5.501-11.8926-17.869-26.8806-14.374 11.4021-.578-.7356 14.77-11.7086s.182-.092.273-.092z"/><path d="m334.348 118.248.608.674-42.424 40.275-.608-.674z"/><path d="m338.39 63.4438-1.398-6.0382-5.956 1.502 4.497-4.2298-4.285-4.4444 5.896 1.839 1.671-5.9769 1.368 6.0382 5.987-1.5018-4.528 4.2298 4.315 4.4444-5.896-1.8391z"/><path d="m356.229 91.5204-1.398-6.0688-5.956 1.5325 4.497-4.2298-4.285-4.4751 5.896 1.8391 1.671-5.9768 1.368 6.0688 5.987-1.5326-4.528 4.2298 4.315 4.4444-5.896-1.8084z"/><path d="m233.03 170.537-1.368-6.038-5.956 1.502 4.498-4.23-4.285-4.444 5.895 1.839 1.672-5.977 1.367 6.038 5.987-1.502-4.528 4.23 4.285 4.445-5.865-1.839z"/><path d="m207.016 38.249-3.738-2.8505-2.735 3.8314.578-4.6589-4.65-.4598 4.285-1.839-1.915-4.2911 3.738 2.8198 2.705-3.8313-.577 4.6895 4.649.4598-4.285 1.839z"/><path d="m202.696 33.1656.883-.2277-9.687-38.21846-.883.22775z"/><path d="m192.186 1.98962-1.367-6.0382-5.987 1.50186 4.528-4.22982-4.315-4.44426 5.895 1.83902 1.672-5.97692 1.367 6.03819 5.987-1.50189-4.528 4.22985 4.315 4.4443-5.895-1.83906z"/><path d="m1284.05 35.46c1.61 1.134 2.01 3.3716.88 5.0267-1.12 1.6245-3.34 2.023-4.98.8889-1.61-1.1341-2.01-3.3716-.88-5.0267 1.12-1.6552 3.34-2.023 4.98-.8889z"/><path d="m1248.95 42.3868-1.37-6.0382-5.98 1.502 4.52-4.2298-4.28-4.4444 5.86 1.839 1.71-5.9769 1.36 6.0382 5.96-1.5019-4.5 4.2299 4.29 4.4443-5.9-1.839z"/><path d="m1209.9 319.163-3.74-2.82-2.7 3.832.57-4.69-4.64-.46 4.28-1.839-1.91-4.291 3.7 2.82 2.74-3.831-.58 4.689 4.65.46-4.28 1.839z"/><path d="m1213.7 295.807c1.61 1.135 2 3.372.88 5.027-1.12 1.625-3.34 2.023-4.98.889-1.61-1.134-2.01-3.372-.88-5.027 1.12-1.624 3.34-2.023 4.98-.889z"/><path d="m1216.31 301.386c-1.46 0-2.64 1.194-2.64 2.667 0 1.472 1.18 2.666 2.64 2.666s2.65-1.194 2.65-2.666c0-1.473-1.19-2.667-2.65-2.667z"/><path d="m1190.48 337.156c0-1.472 1.19-2.667 2.65-2.667 1.45 0 2.64 1.195 2.64 2.667 0 1.471-1.19 2.666-2.64 2.666-1.46 0-2.65-1.195-2.65-2.666z"/><path d="m1211.21 298.597.88.337-5.75 15.264-12.79 23.172-.82-.46 12.79-23.11z"/><path d="m1215.86 303.93.88.215c-.21 1.073-7.45 7.509-10.55 10.237l-.6-.705c4.74-4.168 9.93-8.98 10.24-9.747z"/><path d="m1126.57 223.319-4.92-3.739-3.59 5.057.73-6.161-6.14-.613 5.69-2.421-2.56-5.671 4.96 3.74 3.58-5.058-.76 6.161 6.14.613-5.68 2.422z"/><path d="m1088.34 197.48c0-1.471 1.19-2.667 2.65-2.667 1.45 0 2.64 1.196 2.64 2.667s-1.19 2.666-2.64 2.666c-1.46 0-2.65-1.195-2.65-2.666z"/><path d="m1114.63 202.538c0-1.472 1.18-2.667 2.64-2.667s2.65 1.195 2.65 2.667c0 1.471-1.19 2.666-2.65 2.666s-2.64-1.195-2.64-2.666z"/><path d="m1090.53 211.181c0-1.471 1.19-2.667 2.64-2.667 1.46 0 2.65 1.196 2.65 2.667s-1.19 2.667-2.65 2.667c-1.45 0-2.64-1.196-2.64-2.667z"/><path d="m1082.14 183.35 9.12 13.701 26.07 5.027c.16.03.31.153.37.306l4.19 14.008s0 .306-.09.429c-.09.122-.27.184-.42.153l-28.27-5.364c-.18-.031-.33-.184-.36-.368l-2.19-12.781.88-.153 2.13 12.474 27.2 5.15-3.89-13.027-25.99-5.027s-.21-.092-.3-.183l-9.24-13.885.76-.521z"/><path d="m1080.38 189.633-1.37-6.069-5.95 1.533 4.49-4.23-4.28-4.444 5.89 1.808 1.68-5.977 1.36 6.069 5.99-1.532-4.53 4.229 4.29 4.445-5.87-1.809z"/><path d="m1208.47 375.653c0-1.472 1.19-2.667 2.65-2.667 1.45 0 2.64 1.195 2.64 2.667 0 1.471-1.19 2.666-2.64 2.666-1.46 0-2.65-1.195-2.65-2.666z"/><path d="m1183.46 439.958-3.71-2.82-2.73 3.832.58-4.69-4.65-.46 4.28-1.839-1.91-4.291 3.7 2.851 2.74-3.832-.58 4.659 4.65.46-4.28 1.839z"/><path d="m1217.07 428.127c1.61 1.134 2.01 3.372.88 5.027-1.12 1.624-3.34 2.023-4.98.889s-2.01-3.372-.88-5.027c1.12-1.624 3.34-2.023 4.98-.889z"/><path d="m1178.93 444.311c0-1.472 1.19-2.667 2.65-2.667s2.64 1.195 2.64 2.667c0 1.471-1.18 2.666-2.64 2.666s-2.65-1.195-2.65-2.666z"/><path d="m1167.48 448.724c0-1.471 1.18-2.666 2.64-2.666s2.64 1.195 2.64 2.666-1.18 2.667-2.64 2.667-2.64-1.196-2.64-2.667z"/><path d="m1187.9 433.276c0-1.471 1.18-2.666 2.64-2.666s2.65 1.195 2.65 2.666-1.19 2.667-2.65 2.667-2.64-1.196-2.64-2.667z"/><path d="m1215.46 430.732.09.92-24.8 2.084-9.33 10.881s-.12.092-.18.122l-10.97 4.414c-.18.061-.39 0-.51-.153-.13-.153-.13-.368 0-.552l9.26-13.885s.19-.184.31-.184l9.87-1.563.16.92-9.67 1.532-8.32 12.475 9.48-3.831 9.39-10.942s.18-.154.3-.154l24.98-2.084z"/><path d="m1048.08 346.993-4.93-3.739-3.58 5.057.73-6.191-6.14-.582 5.68-2.452-2.55-5.671 4.92 3.74 3.62-5.058-.76 6.161 6.14.613-5.69 2.452z"/><path d="m1127.76 289.003c0-1.472 1.18-2.667 2.64-2.667s2.64 1.195 2.64 2.667c0 1.471-1.18 2.666-2.64 2.666s-2.64-1.195-2.64-2.666z"/><path d="m1091.99 308.037c1.61 1.134 2 3.371.88 5.027-1.12 1.624-3.34 2.023-4.98.889-1.61-1.135-2.01-3.372-.89-5.027 1.13-1.655 3.35-2.023 4.99-.889z"/><path d="m1009.57 273.309-3.74-2.85-2.7 3.831.58-4.659-4.652-.46 4.282-1.839-1.94-4.291 3.74 2.82 2.73-3.831-.58 4.689 4.65.46-4.28 1.839z"/><path d="m1152.4 279.501-3.74-2.82-2.7 3.831.55-4.689-4.65-.46 4.31-1.839-1.94-4.291 3.74 2.82 2.7-3.832-.55 4.69 4.65.46-4.31 1.839z"/><path d="m989.06 249.555c1.61 1.134 2.005 3.372.881 5.027-1.124 1.624-3.343 2.023-4.984.889-1.641-1.135-2.006-3.372-.881-5.027 1.124-1.655 3.343-2.023 4.984-.889z"/><path d="m1062.94 440.754c1.61 1.134 2 3.372.88 5.027-1.13 1.655-3.35 2.023-4.99.889-1.61-1.134-2-3.372-.88-5.027 1.13-1.624 3.35-2.023 4.99-.889z"/><path d="m1030.3 277.141c1.61 1.134 2 3.372.88 5.027-1.12 1.624-3.34 2.023-4.98.889-1.62-1.135-2.01-3.372-.89-5.027 1.13-1.655 3.35-2.023 4.99-.889z"/><path d="m995.229 260.436c-1.46 0-2.644 1.194-2.644 2.667s1.184 2.667 2.644 2.667 2.644-1.194 2.644-2.667-1.184-2.667-2.644-2.667z"/><path d="m1061.78 391.499c0-1.472 1.19-2.667 2.65-2.667 1.45 0 2.64 1.195 2.64 2.667 0 1.471-1.19 2.666-2.64 2.666-1.46 0-2.65-1.195-2.65-2.666z"/><path d="m987.389 252.222 8.114 10.513 10.177 5.027 22.8 11.954s.21.183.24.306l14.28 58.911 46.74-28.291 40.48-22.007 17.84-14.59.57.705-17.89 14.621-40.54 22.037-47.26 28.628s-.27.092-.39 0c-.13-.061-.25-.184-.28-.306l-14.37-59.309-22.58-11.832-10.273-5.057s-.122-.061-.152-.123l-8.205-10.605.729-.551z"/><path d="m1042.7 339.147c.18 0 .33.123.42.276l21.73 51.892s.03.153.03.214l-3.55 52.198-.92-.061 3.53-52.106-21.55-51.432-43.879 10.942-.213-.889 44.242-11.034h.13z"/><path d="m1003.01 358.488-2.74-5.579-5.467 2.851 3.434-5.149-5.196-3.341 6.138.398.274-6.191 2.737 5.578 5.47-2.881-3.44 5.149 5.2 3.341-6.14-.398z"/></g></svg>