<svg fill="none" height="142" viewBox="0 0 215 142" width="220" xmlns="http://www.w3.org/2000/svg"><path d="m113.484 78.8069-6.487 3.4971 38.722 21.803 38.704-21.814-5.67-3.1652" stroke="#204e62" stroke-linecap="round" stroke-linejoin="round"/><path d="m145.682 104.165-.007-.004v28.779l.007.004h.004l38.733-21.778v-.003-28.7751l-38.733 21.7771z" stroke="#204e62" stroke-linecap="round" stroke-linejoin="round"/><path d="m145.726 104.165-38.737-21.7771v28.7751.003l38.737 21.778.011-.004v-28.779z" stroke="#204e62" stroke-linecap="round" stroke-linejoin="round"/><path d="m146.289 68.5127 38.693-21.7443-38.66-21.7699h-.004l-38.736 21.7808z" stroke="#204e62" stroke-linecap="round" stroke-linejoin="round"/><path d="m146.249 68.5346-.008-.0036v28.7785l.008.0036 38.736-21.7771v-.0037-28.7749z" stroke="#204e62" stroke-linecap="round" stroke-linejoin="round"/><path d="m146.292 68.5346-38.736-21.7772v28.7749.0037l38.736 21.7771.008-.0036v-28.7785z" stroke="#204e62" stroke-linecap="round" stroke-linejoin="round"/><path d="m151.296 110.525-.004-.004v10.549l.004.004 22.399-12.592v-.003-10.546z" stroke="#204e62" stroke-linecap="round" stroke-linejoin="round"/><path d="m151.296 76.8779h-.004v10.5494h.004l22.399-12.5915v-.0036-10.5458z" stroke="#204e62" stroke-linecap="round" stroke-linejoin="round"/><path d="m206.075 35.0339-21.741 12.2232" stroke="#204e62" stroke-linecap="round" stroke-linejoin="round"/><path d="m146.749 96.9485-51.8291 29.1435" stroke="#204e62" stroke-linecap="round" stroke-linejoin="round"/><path d="m107.6 47.5342v-.0036-38.08456" stroke="#204e62" stroke-linecap="round" stroke-linejoin="round"/><path d="m150.042 66.4379-29.259 16.4532" stroke="#204e62" stroke-linecap="round" stroke-linejoin="round"/><path d="m146.925 133.804c-.388.58-1.258.773-1.839.288-.581-.386-.775-1.254-.289-1.834.388-.58 1.258-.773 1.839-.288.581.481.775 1.16.289 1.834z" fill="#204e62"/><path d="m147.594 26.1727c-.413.5762-1.243.7439-1.904.3318-.578-.412-.746-1.2398-.333-1.8998.413-.5762 1.243-.7439 1.904-.3318.578.412.746 1.32.333 1.8998z" fill="#204e62"/><path d="m186.345 76.4367c-.537.8059-1.707.9846-2.515.4485-.807-.5397-.987-1.7029-.449-2.5088.537-.8059 1.707-.9846 2.514-.4485.808.6272 1.079 1.7029.45 2.5088z" fill="#204e62"/><path d="m147.221 97.5939c-.362.5434-1.148.6637-1.692.3027-.545-.361-.666-1.145-.304-1.6883.362-.5434 1.148-.6637 1.693-.3027.544.361.665 1.145.303 1.6883z" fill="#204e62"/><path d="m186.104 47.8733c-.497.6601-1.407.8242-2.069.3319-.661-.496-.826-1.404-.332-2.064.493-.66 1.407-.8241 2.068-.3318.662.4959.827 1.4039.333 2.0639z" fill="#204e62"/><path d="m116.35 116.527c-.643.857-1.824 1.072-2.683.426-.859-.641-1.074-1.819-.427-2.676s1.824-1.072 2.683-.427c.858.536 1.074 1.82.427 2.677z" fill="#204e62"/><path d="m96.638 127.566c-.6579.871-1.8605 1.09-2.734.437-.8736-.656-1.0929-1.856-.4386-2.728.6542-.871 1.8604-1.09 2.734-.437s1.0929 1.856.4386 2.728z" fill="#204e62"/><path d="m108.956 76.1085c-.53.7075-1.502.8825-2.211.3537-.71-.5287-.885-1.4987-.355-2.2061s1.502-.8825 2.211-.3537c.709.5287.885 1.4987.355 2.2061z" fill="#204e62"/><path d="m109.552 48.6828c-.691.919-1.96 1.1487-2.881.4595s-1.151-1.9545-.46-2.8735c.691-.9189 1.959-1.1486 2.88-.4594.808.6892 1.038 1.9545.461 2.8734z" fill="#204e62"/><path d="m185.647 112.964c-.614.821-1.744 1.025-2.566.409-.822-.613-1.027-1.74-.409-2.56.614-.821 1.743-1.025 2.566-.409.822.616 1.027 1.74.409 2.56z" fill="#204e62"/><path d="m121.781 83.573c-.361.4813-1.027.6017-1.509.2407-.483-.3611-.603-1.0247-.241-1.5061.362-.4813 1.027-.6016 1.509-.2406.424.361.545 1.0246.241 1.506z" fill="#204e62"/><path d="m179.795 79.5618c-.267.3975-.844.4887-1.242.2225-.399-.2662-.49-.8424-.223-1.2399.266-.3974.844-.4886 1.242-.2224.399.31.534.8423.223 1.2398z" fill="#204e62"/><path d="m174.331 64.9173c-.267.3975-.844.4886-1.243.2224-.398-.2662-.49-.8423-.223-1.2398s.845-.4886 1.243-.2224c.398.3099.534.8423.223 1.2398z" fill="#204e62"/><path d="m174.514 75.3464c-.267.3974-.845.4886-1.243.2224-.399-.2662-.49-.8423-.223-1.2398s.844-.4887 1.243-.2225c.398.31.533.8424.223 1.2399z" fill="#204e62"/><path d="m147.488 105.602c-.581.868-1.835 1.061-2.705.481s-1.064-1.83-.482-2.698c.581-.868 1.834-1.061 2.704-.482.87.675 1.159 1.831.483 2.699z" fill="#204e62"/><path d="m152.192 87.8394c-.362.5434-1.148.6637-1.693.3027-.544-.361-.665-1.145-.303-1.6884.362-.5433 1.148-.6636 1.692-.3026.545.361.666 1.145.304 1.6883z" fill="#204e62"/><path d="m152.956 78.0849c-.534.8023-1.696.9773-2.496.4449-.805-.5324-.98-1.692-.446-2.4906.533-.8022 1.696-.9772 2.496-.4449.801.5324.98 1.692.446 2.4906z" fill="#204e62"/><path d="m185.132 82.9203c-.296.4412-.936.5396-1.382.2443-.442-.2954-.541-.9335-.245-1.3784.296-.4412.936-.5397 1.382-.2443.446.2953.541.9335.245 1.3784z" fill="#204e62"/><path d="m174.495 98.5019c-.296.4413-.936.5397-1.382.2443-.442-.2953-.541-.9335-.244-1.3784.296-.4412.935-.5396 1.381-.2443.446.2954.541.9335.245 1.3784z" fill="#204e62"/><path d="m152.13 121.544c-.296.442-.936.54-1.382.245-.442-.296-.541-.934-.245-1.379.296-.441.936-.539 1.382-.244s.541.934.245 1.378z" fill="#204e62"/><path d="m174.495 109.113c-.296.442-.936.54-1.382.245-.442-.296-.541-.934-.244-1.379.296-.441.935-.539 1.381-.244s.541.933.245 1.378z" fill="#204e62"/><path d="m107.947 82.9823c-.296.4412-.936.5397-1.382.2443-.442-.2954-.541-.9335-.245-1.3784.296-.4412.936-.5397 1.382-.2443.446.2953.541.9335.245 1.3784z" fill="#204e62"/><path d="m114.27 79.2846c-.296.4413-.936.5397-1.382.2444-.442-.2954-.541-.9336-.245-1.3784.297-.4413.936-.5397 1.382-.2444.446.2954.541.9336.245 1.3784z" fill="#204e62"/><path d="m24.1172 85.3561-6.4878 3.4934 38.7221 21.8065 38.7038-21.8138-5.669-3.1652" stroke="#204e62" stroke-linecap="round" stroke-linejoin="round"/><path d="m56.3149 110.714-.0073-.003v28.778l.0073.004 38.7368-21.777v-.004-28.7749z" stroke="#204e62" stroke-linecap="round" stroke-linejoin="round"/><path d="m56.3588 110.714-38.7367-21.7769v28.7749.004l38.7367 21.777.0073-.004v-28.778z" stroke="#204e62" stroke-linecap="round" stroke-linejoin="round"/><path d="m56.9218 75.0619 38.6929-21.7443-38.66-21.7699h-.0036l-38.7367 21.7808z" stroke="#204e62" stroke-linecap="round" stroke-linejoin="round"/><path d="m56.8816 75.0802-.011-.0036v28.7824l.011.003 38.7367-21.7768v-.0073-28.7749l-38.7367 21.7808z" stroke="#204e62" stroke-linecap="round" stroke-linejoin="round"/><path d="m56.9252 75.0802-.0036.0036-38.7331-21.7808v28.7749.0073l38.7331 21.7768h.0036l.0073-.003v-28.7824z" stroke="#204e62" stroke-linecap="round" stroke-linejoin="round"/><path d="m61.9289 117.074-.0036-.004v10.55l.0036.003 22.3985-12.591v-.004-10.546z" stroke="#204e62" stroke-linecap="round" stroke-linejoin="round"/><path d="m61.9289 83.4271-.0036-.0037v10.5495l.0036.0036 22.3985-12.5915v-.0036-10.5458z" stroke="#204e62" stroke-linecap="round" stroke-linejoin="round"/><path d="m116.708 41.5793-21.7402 12.2233" stroke="#204e62" stroke-linecap="round" stroke-linejoin="round"/><path d="m57.3823 103.498-51.83298 29.139" stroke="#204e62" stroke-linecap="round" stroke-linejoin="round"/><path d="m95.0552 127.073v-16.012" stroke="#204e62" stroke-linecap="round" stroke-linejoin="round"/><g fill="#204e62"><path d="m96.733 54.2256c-.5007.6673-1.4218.835-2.0943.3355-.6689-.4996-.8371-1.4185-.3363-2.0895.5007-.6673 1.4218-.8351 2.0944-.3355.6688.4996.837 1.4185.3362 2.0895z"/><path d="m58.6797 104.176c-.658.875-1.8641 1.094-2.7414.438-.8772-.657-1.0965-1.86-.4386-2.735s1.8641-1.094 2.7414-.438c.8772.656 1.0965 1.86.4386 2.735z"/><path d="m96.3894 90.3045c-.6067.8096-1.7215 1.0101-2.533.4048-.8114-.6053-1.0124-1.7175-.4057-2.5271.6068-.8095 1.7216-1.0101 2.533-.4047.8114.6053 1.0125 1.7175.4057 2.527z"/><path d="m58.1866 139.66c-.6726.898-1.908 1.12-2.8071.449-.8992-.671-1.1222-1.903-.4496-2.801.6725-.897 1.9079-1.119 2.8071-.448s1.1221 1.903.4496 2.8z"/><path d="m96.3932 82.6286c-.3911.5178-1.1038.649-1.6229.2589-.519-.3902-.6506-1.1013-.2595-1.6191s1.1039-.6491 1.6229-.2589.6506 1.1013.2595 1.6191z"/><path d="m85.0112 71.5613c-.318.4193-.8955.5251-1.3195.2115s-.5263-.8934-.212-1.3164.8955-.5251 1.3195-.2115c.4203.3172.5263.8934.212 1.3164z"/><path d="m95.684 118.346c-.318.42-.8955.526-1.3195.212-.4239-.314-.5263-.893-.212-1.316.3144-.423.8956-.526 1.3195-.212.4204.317.5264.893.212 1.316z"/><path d="m62.7441 94.3376c-.318.4194-.8955.5251-1.3195.2115s-.5263-.8934-.212-1.3164.8955-.5251 1.3195-.2115c.4203.3172.5263.8934.212 1.3164z"/><path d="m62.6235 117.256c-.318.419-.8955.525-1.3195.212-.424-.314-.5263-.894-.212-1.317s.8955-.525 1.3195-.211c.4203.317.5263.893.212 1.316z"/><path d="m58.4205 111.764c-.7712 1.025-2.182 1.28-3.2055.511-1.0271-.769-1.2829-2.177-.5117-3.198.7712-1.025 2.1821-1.28 3.2055-.511 1.0271.77 1.283 2.177.5117 3.198z"/><path d="m19.9285 90.3191c-.6579.8715-1.8604 1.0903-2.734.4376-.8736-.6564-1.0929-1.8561-.4386-2.7276s1.8604-1.0903 2.734-.4376c.8736.6564 1.0929 1.8561.4386 2.7276z"/><path d="m26.369 122.617c-.625.831-1.7691 1.035-2.5988.415-.8334-.623-1.038-1.765-.4167-2.592.6214-.828 1.7691-1.036 2.5988-.416.8334.623 1.0381 1.765.4167 2.593z"/><path d="m18.3312 118.405c-.34.452-.9613.565-1.4109.226s-.5665-.959-.2266-1.408c.3399-.448.9613-.565 1.4109-.226.4532.339.5665.959.2266 1.408z"/><path d="m51.2526 107.593c-.34.452-.9613.565-1.4109.226s-.5666-.959-.2266-1.408c.3399-.448.9613-.565 1.4108-.226.4533.339.5666.959.2267 1.408z"/><path d="m24.786 86.1584c-.4934.6564-1.3999.8205-2.0578.3282s-.8224-1.3966-.329-2.053 1.3999-.8205 2.0578-.3282.8224 1.3966.329 2.053z"/><path d="m20.4108 55.1482c-.6579.8788-1.8678 1.0976-2.7486.4376-.8809-.6564-1.1002-1.8634-.4387-2.7422.6616-.8788 1.8678-1.0976 2.7487-.4376.8809.6564 1.1002 1.8634.4386 2.7422z"/><path d="m85.223 82.2238c-.4642.6162-1.3122.7694-1.9299.3063s-.7712-1.3091-.3107-1.9254 1.3122-.7694 1.9299-.3063.7712 1.3091.3107 1.9254z"/><path d="m90.2271 85.987c-.3107.4121-.8809.5178-1.294.2079-.413-.31-.519-.8789-.2083-1.2909.3107-.4121.8809-.5178 1.2939-.2079.413.31.519.8788.2084 1.2909z"/><path d="m62.8501 83.7772c-.3107.4121-.8809.5178-1.2939.2079-.413-.31-.519-.8788-.2083-1.2909.3106-.4121.8808-.5178 1.2939-.2079.413.31.519.8789.2083 1.2909z"/><path d="m19.5156 82.7087c-.3874.5178-1.1002.6455-1.6156.2589-.5153-.3865-.6469-1.0976-.2595-1.6117.3875-.5178 1.1002-.6455 1.6156-.2589.519.3865.6469 1.0976.2595 1.6117z"/><path d="m58.7712 32.8641c-.6762.9007-1.919 1.1268-2.8218.4486-.9028-.6746-1.1294-1.9145-.4532-2.8152s1.9189-1.1267 2.8217-.4485c.9028.6746 1.1295 1.9144.4533 2.8151z"/><path d="m148.047 69.5447c-.534.8023-1.696.9773-2.497.4449-.804-.5324-.979-1.692-.446-2.4906.534-.8022 1.696-.9773 2.497-.4449.8.5324.979 1.692.446 2.4906z"/><path d="m62.8469 127.208c.1425.565-.212 1.126-.7786 1.196-.5665.142-1.1294-.212-1.1989-.777-.1425-.565.212-1.127.7786-1.196.5665-.069 1.06.211 1.1989.777z"/><path d="m84.9675 114.838c.1425.566-.212 1.127-.7786 1.197-.5665.142-1.1294-.212-1.1988-.777-.1426-.565.2119-1.127.7785-1.196.5665-.07 1.06.211 1.1989.776z"/></g><g fill="#74b2db"><path d="m26.924 65.1024c.0561.7059-.3801 1.2806-1.0844 1.3306-.7042.0562-1.2776-.381-1.3274-1.0869-.0561-.7059.3801-1.2806 1.0844-1.3306.7042-.05 1.2714.381 1.3274 1.0869z"/><path d="m112.311 103.581c-.143.281-.424.281-.567.281-.281-.143-.281-.424-.281-.568.144-.281.424-.281.568-.281.28 0 .28.281.28.568z"/><path d="m54.892 37.7397c.4237.2811.5671.987.2804 1.5555-.2804.4248-.9847.5685-1.5518.2811-.5672-.2874-.5672-.987-.2805-1.5555.2805-.4248.9847-.5684 1.5519-.2811z"/><path d="m51.5534 43.0525c.3988.0249.7728.4497.7478.8495-.0249.3998-.4487.7746-.8476.7496-.3988-.0249-.7728-.4497-.7478-.8495.0249-.3998.4487-.7746.8476-.7496z"/><path d="m114.385 72.2887c-.287.2873-.58.5809-1.153.2873-.287-.2873-.58-.5809-.287-1.1619.287-.2873.58-.5809 1.153-.2873.574.2936.58.8683.287 1.1619z"/><path d="m73.9198 34.1805c.4549.3061.6045.987.2306 1.4431-.374.456-.9847.6059-1.4397.2311-.4549-.3061-.6045-.987-.2306-1.443.3054-.456.9847-.531 1.4397-.2312z"/><path d="m52.865 92.394c.8476.5684.9847 1.6991.4238 2.5425-.5672.8495-1.6952.987-2.5366.4247-.8475-.5684-.9847-1.6991-.4237-2.5424.5671-.8496 1.6951-.987 2.5365-.4248z"/><path d="m177.649 122.13c.567.425.705 1.275.281 1.837s-1.272.706-1.833.281c-.567-.425-.704-1.274-.28-1.837.424-.562 1.271-.705 1.832-.281z"/><path d="m118.581 122.977c.149.281-.1.624-.381.774-.28.15-.623-.1-.772-.381-.15-.281.099-.625.38-.774.392-.063.623.1.773.381z"/><path d="m126.869 127.881c.212.674-.168 1.449-.841 1.661-.673.213-1.44-.168-1.658-.843-.212-.675.169-1.449.842-1.662.673-.212 1.327.081 1.657.844z"/><path d="m127.871 89.8924c.43.3249.536.9683.212 1.3993-.324.4311-.966.5373-1.396.2124-.43-.3248-.536-.9682-.212-1.3993.324-.431.966-.5372 1.396-.2124z"/><path d="m168.493 48.8382-.423-1.8428-1.833.4248 1.415-1.2682-1.415-1.418 1.833.5685.567-1.8366.424 1.8366 1.832-.4248-1.409 1.2743 1.409 1.4118-1.832-.5684z"/><path d="m86.8167 137.794-1.5767-1.493-1.4085 1.668.4425-2.112-2.1065-.437 2.0192-.619-.617-2.105 1.5768 1.493 1.4085-1.586-.4425 2.111 2.1065.356-2.1065.7z"/><path d="m168.986 108.989-.836-1.555-1.67.955.954-1.674-1.552-.837h1.789v-1.911l.953 1.674 1.552-.956-.954 1.555 1.671.956h-1.907z"/><path d="m159.851 47.7433c.941-.2374 1.888.3561 2 1.2994.113.9432-.355 1.8928-1.296 2.0052-.941.2374-1.888-.3561-2-1.2993-.119-.9433.355-1.7741 1.296-2.0053z"/><path d="m153.448 43.1411c.281.1437.281.5685.144.8496-.144.2811-.567.2811-.848.1437-.28-.1437-.28-.5685-.143-.8496.143-.2811.567-.2811.847-.1437z"/><path d="m45.3971 87.736c.3927.1999.3927.7871.1995 1.1807-.1995.3935-.7853.3935-1.1779.1999-.3927-.1999-.3927-.7871-.1995-1.1807.1995-.3935.7853-.3935 1.1779-.1999z"/><path d="m143.538 86.9226c.424.2811.568.8496.281 1.2744-.281.4248-.848.5684-1.271.2811-.424-.2811-.568-.8496-.281-1.2744s.848-.5684 1.271-.2811z"/><path d="m125.856 45.8289c.424.2811.567.8496.281 1.2744-.287.4248-.848.5685-1.272.2811-.423-.2811-.567-.8496-.28-1.2744s.848-.5684 1.271-.2811z"/><path d="m158.429 131.19c.848.568 1.128 1.836.424 2.686-.567.849-1.832 1.13-2.68.424-.847-.568-1.128-1.836-.423-2.686.704-.849 1.832-1.13 2.679-.424z"/><path d="m140.115 117.835c.418.312.524.837.206 1.362s-.835.525-1.359.206c-.417-.312-.523-.837-.206-1.362.312-.418.942-.525 1.359-.206z"/><path d="m101.124 38.712c.966-.2437 1.926.3623 2.045 1.3306.243.9682-.362 1.9302-1.328 2.0489-.966.2436-1.9256-.3623-2.044-1.3306-.1184-.9682.361-1.8115 1.327-2.0489z"/><path d="m118.956 102.126c1.129-.281 2.257.425 2.4 1.556s-.424 2.261-1.552 2.405c-1.128.281-2.256-.425-2.399-1.556-.144-1.13.423-2.123 1.551-2.405z"/><path d="m129.359 49.4819c.567.4248.705 1.2744.281 1.8366s-1.272.7059-1.833.2811c-.567-.4248-.704-1.2744-.28-1.8366s1.271-.5684 1.832-.2811z"/><path d="m73.8398 135.54c.536.356.7168 1.162.268 1.699-.4487.538-1.1592.719-1.6951.269-.536-.356-.7167-1.162-.268-1.699s1.1592-.719 1.6951-.269z"/><path d="m33.5031 105.045c.8476.568 1.128 1.836.4238 2.686-.5671.85-1.8323 1.131-2.6799.425-.8475-.569-1.128-1.837-.4238-2.686.5672-.85 1.8323-1.131 2.6799-.425z"/><path d="m23.088 128.64c.5172.344.6917 1.125.2617 1.643-.43.519-1.1218.694-1.6391.263-.5173-.344-.6918-1.125-.2617-1.643.43-.519 1.1218-.606 1.6391-.263z"/><path d="m138.283 21.93c.51.3424.679 1.1062.255 1.6179-.341.5117-1.103.681-1.614.2558-.51-.3423-.679-1.1061-.255-1.6178.341-.4252 1.103-.5945 1.614-.2559z"/><path d="m113.952 62.993c.847.5685 1.128 1.8366.424 2.6862-.567.8495-1.833 1.1307-2.68.4248-.848-.5685-1.128-1.8366-.424-2.6862.567-.8496 1.832-.987 2.68-.4248z"/><path d="m80.6247 52.9458c.8476.5685 1.128 1.8366.4238 2.6862-.5671.8495-1.8323 1.1306-2.6799.4247-.8476-.5684-1.128-1.8365-.4238-2.6861.5672-.7059 1.8323-.987 2.6799-.4248z"/><path d="m16.068 134.114c.3179.213.4238.688.1558 1.006-.2679.319-.6855.425-1.0034.156-.3178-.212-.4237-.687-.1558-1.005.2119-.319.6856-.425 1.0034-.157z"/><path d="m70.2852 29.35c.5972.4005.7948 1.294.2986 1.8926-.4962.5985-1.2909.7966-1.8881.2992-.5971-.4005-.7947-1.2939-.2986-1.8925.4962-.5986 1.291-.7966 1.8881-.2993z"/><path d="m38.9577 60.9988-.8352-1.5555-1.6702.9558.9535-1.6742-1.5518-.8371h1.7949v-1.9178l.9535 1.6742 1.5519-.9558-.9536 1.5555 1.6703.9558h-1.9133z"/><path d="m128.657 141.726-.842-1.556-1.67.956.954-1.674-1.552-.837h1.795v-1.912l.953 1.674 1.552-.955-.953 1.555 1.67.956h-1.907z"/><path d="m131.159 31.0045-.835-1.5555-1.677.9558.96-1.6742-1.552-.8371h1.789v-1.9178l.953 1.6804 1.552-.962-.953 1.5555 1.67.962h-1.907z"/><path d="m71.2194 56.4571-.8351-1.5555-1.6765.9558.9598-1.6742-1.5519-.8371h1.7887v-1.9177l.9535 1.6804 1.5518-.962-.9535 1.5554 1.6703.962h-1.9071z"/><path d="m45.5065 126.557-.8351-1.555-1.6765.955.9598-1.674-1.5519-.837h1.7887v-1.918l.9535 1.675 1.5519-.956-.9536 1.555 1.6703.956h-1.9071z"/></g><path d="m2.76836 128.673 2.1821 2.363 2.26616-2.228-.98322 3.052 3.11414.876-3.16166.689.84798 3.107-2.17844-2.363-2.26616 2.228.90281-3.027-3.11414-.875 3.16166-.689z" fill="#ffa135"/><path d="m105.033 105.263 1.892 3.129 3.031-1.975-1.787 3.183 3.273 1.685-3.677.051.245 3.658-1.896-3.131-3.031 1.975 1.693-3.172-3.273-1.686 3.679-.054z" fill="#ffa135"/><path d="m82.5851 101.197 1.6427 2.607 2.5228-1.711-1.456 2.709 2.7837 1.37-3.0971.1.2626 3.077-1.6458-2.608-2.5228 1.711 1.377-2.698-2.7837-1.37 3.0988-.103z" fill="#ffa135"/><path d="m104.181 3.11891 3.495 3.6591 3.502-3.57724-1.459 4.836 4.928 1.29579-4.952 1.17144 1.427 4.8676-3.5-3.6609-3.502 3.5772 1.335-4.7923-4.927-1.29574 4.954-1.17691z" fill="#ffa135"/><path d="m53.8881 68.5955 3.2302 3.8949 3.7437-3.3233-1.794 4.722 4.8247 1.6377-5.022.8218 1.0831 4.9556-3.2355-3.8971-3.7437 3.3232 1.6676-4.687-4.8247-1.6376 5.0242-.8271z" fill="#ffa135"/><path d="m149.805 105.863 2.59 2.536 2.421-2.645-.929 3.497 3.558.81-3.517.957 1.138 3.45-2.593-2.537-2.421 2.644.841-3.462-3.558-.81 3.518-.961z" fill="#ffa135"/><path d="m202.814 28.1172 3.95 3.1628 2.996-4.0103-.804 4.9868 5.056.6303-4.753 1.8184 2.061 4.635-3.955-3.1639-2.996 4.0104.687-4.9271-5.056-.6303 4.754-1.824z" fill="#ffa135"/></svg>