<svg fill="none" height="160" viewBox="0 0 160 160" width="160" xmlns="http://www.w3.org/2000/svg"><circle cx="80.0829" cy="79.8927" fill="#f2f9fa" r="79.2171"/><g fill="#598eaf"><path d="m58.1679 146.362.99 4.28 4.2-1.07-3.21 2.97 3.04 3.04-4.12-1.23-1.23 4.2-.99-4.28-4.2 1.07 3.21-2.97-3.04-3.13 4.2 1.32z"/><path d="m34.0584 80.9457c-.9534-.6798-1.1606-1.9814-.5472-2.9348.6798-.9534 1.9814-1.1606 2.9348-.5471.9534.6798 1.1606 1.9813.5471 2.9347-.6798 1.028-1.9813 1.227-2.9347.5472z"/><path d="m86.54 152.107c-.8415-.6-1.0244-1.749-.4829-2.59.5999-.842 1.7487-1.025 2.5901-.483.8414.6 1.0243 1.748.4829 2.59-.6.907-1.7487 1.083-2.5901.483z"/><path d="m16.4657 68.2015c0 .91-.74 1.56-1.56 1.56-.91 0-1.56-.74-1.56-1.56 0-.91.74-1.56 1.56-1.56.91-.08 1.56.66 1.56 1.56z"/><path d="m57.223 135.316c-.58-.41-.74-1.24-.33-1.89.41-.58 1.24-.74 1.89-.33.58.41.74 1.24.33 1.89-.49.66-1.32.82-1.89.33z"/><path d="m100.233 13.1355-.4 3.4 3.4.3-3.1 1.4 1.4 3.1-2.8-2.1-2 2.8.5-3.4-3.4-.3 3.1-1.4-1.4-3.1 2.7 2.1z"/><path d="m78.863 42.1656c-.9-.6-1.1-1.9-.5-2.8s1.9-1.1 2.8-.5 1.1 1.9.5 2.8-1.9 1.1-2.8.5z"/><path d="m114.763 54.7655c0 .7-.6 1.3-1.3 1.3s-1.3-.6-1.3-1.3.6-1.3 1.3-1.3 1.3.6 1.3 1.3z"/><path d="m135.843 39.1755c-.72-.36-1.08-1.44-.36-2.52.36-.72 1.44-1.08 2.52-.36s1.08 1.44.36 2.52c-.72.72-1.8 1.08-2.52.36z"/><path d="m104.645 47.6696c-.854-.5695-.854-1.7085-.284-2.2779.569-.8543 1.708-.8543 2.277-.2848.855.5695.855 1.7085.285 2.2779-.285.8543-1.424.8543-2.278.2848z"/><path d="m118.178 89.5028c-.854-.5695-.854-1.7084-.285-2.2779.57-.8543 1.709-.8543 2.278-.2848.855.5695.855 1.7085.285 2.278-.285.8542-1.424.8542-2.278.2847z"/><path d="m141.063 79.5756c-.2-.1-.2-.4-.1-.6s.4-.2.6-.1.2.4.1.6-.4.3-.6.1z"/><path d="m71.7531 105.547c-.2-.1-.2-.4-.1-.6s.4-.2.6-.1.2.4.1.6-.4.3-.6.1z"/><path d="m50.7336 135.492c-.2-.1-.2-.4-.1-.6s.4-.2.6-.1.2.4.1.6-.4.3-.6.1z"/><path d="m36.6754 73.2065c-.2-.1-.1999-.4-.0999-.6s.3999-.2.5999-.1.2001.4.1001.6-.4001.3-.6001.1z"/></g><path d="m46.1979 46.0056c-.8683-.6492-1.2983-1.9475-.4301-3.0348.6492-.8683 1.9475-1.2984 3.0349-.4301.8682.6491 1.2983 1.9475.43 3.0348-.8682.8683-2.1666 1.0874-3.0348.4301z" fill="#0a4d69"/><path d="m24.1732 44.1355c-1.05.32-2.19-.22-2.51-1.28s.22-2.19 1.28-2.51c1.05-.32 2.19.22 2.51 1.28.32 1.05-.22 2.19-1.28 2.51z" fill="#598eaf"/><path d="m74.1432 108.906 1.22 1.84 1.84-.92-1.23 1.83 2.14.92h-2.14v2.45l-1.22-2.14-1.83 1.22.91-1.83-1.83-1.23h2.14z" fill="#598eaf"/><g fill="#0a4d69"><path d="m99.6947 104.327c-1.2382-.884-1.5074-2.569-.7075-3.814.8844-1.2386 2.5688-1.5078 3.8148-.708 1.238.884 1.507 2.569.707 3.815-.884 1.238-2.568 1.507-3.8143.707z"/><path d="m92.0631 129.586c-1.07-.8-1.6-2.4-.53-3.74.8-1.07 2.4-1.6 3.74-.53 1.07.8 1.6 2.4.53 3.74-1.07 1.07-2.67 1.34-3.74.53z"/><path d="m141.713 113.606c-1.07-.8-1.6-2.4-.53-3.74.8-1.07 2.4-1.6 3.74-.53 1.07.8 1.6 2.4.53 3.74-1.07 1.07-2.67 1.34-3.74.53z"/></g><path d="m41.7131 6.90552 5.71 35.86998 18.31 37.44 36.1799 21.7005 41.14 9.72-1.74 28.09-47.8999-12.1 8.0399-25.4" stroke="#0a4d69" stroke-miterlimit="10"/><path d="m138.974 57.8345.836 3.6002 3.651-.9019-2.756 2.5165 2.574 2.6982-3.527-1.1418-1.018 3.5928-.844-3.5928-3.593.9018 2.757-2.5164-2.633-2.6983 3.593 1.0764z" fill="#598eaf"/><path d="m27.4981 100.226 1.0709 4.569 4.6342-1.145-3.4988 3.194 3.268 3.416-4.4865-1.44-1.2924 4.56-1.0616-4.56-4.5604 1.145 3.4988-3.194-3.3511-3.425 4.5696 1.366z" fill="#598eaf"/><path d="m143.528 131.169-.205 5.156 5.113.017-4.496 2.45 2.47 4.42-4.304-2.699-2.643 4.402.203-5.146-5.1-.107 4.483-2.36-2.447-4.507 4.361 2.798z" fill="#ffa135"/><path d="m64.7022 74.1323 2.1714 3.573 3.4603-2.2791-1.9388 3.6686 3.6481 1.8773-4.1153.1058.1878 4.1564-2.1688-3.5653-3.491 2.2124 1.9695-3.6019-3.6712-1.9465 4.1974-.0648z" fill="#ffa135"/><path d="m44.5222 2.51305-.37 5.06 5.16.32-4.65 2.16995 2.28 4.59-4.17-2.94-2.81 4.3.37-5.06-5.08-.29 4.64-2.16995-2.35-4.62 4.27 2.89z" fill="#ffa135"/></svg>