<svg fill="none" height="126" viewBox="0 0 88 126" width="88" xmlns="http://www.w3.org/2000/svg" xmlns:xlink="http://www.w3.org/1999/xlink"><clipPath id="a"><path d="m0 .134033h88v125.341h-88z"/></clipPath><g clip-path="url(#a)"><path d="m3.11182 50.3559 48.42398-13.4484-2.9493 53.2843z" stroke="#204e62" stroke-miterlimit="10"/><path d="m43.4199 117.83 5.1669-27.6382 32.6868-17.9262" stroke="#204e62" stroke-miterlimit="10"/><path d="m72.9207 20.2242-21.3847 16.6832-12.0487-9.7119" stroke="#204e62" stroke-miterlimit="10"/><path d="m3.11182 50.3558 24.08268-42.58407" stroke="#204e62" stroke-miterlimit="10"/><path d="m22.1237 3.17415 4.7456 1.79711 1.6336-4.837227.8427 5.069357 4.886-.95098-3.8216 3.21983 3.2672 3.81886-4.7456-1.79711-1.6336 4.84471-.8353-5.06935-4.8934.95095 3.8881-3.20483z" fill="#ffa135"/><path d="m36.0649 116.063 5.0413.479.34-5.099 2.1067 4.672 4.4795-2.209-2.8681 4.119 4.1394 2.83-5.0412-.487-.34 5.107-2.1067-4.68-4.4795 2.209 2.9346-4.118z" fill="#ffa135"/><path d="m73.9556 72.6999 4.9525-1.0558-1.1753-4.972 3.3855 3.8264 3.6294-3.4595-1.5228 4.7923 4.7752 1.4527-4.9526 1.0558 1.1753 4.9795-3.3854-3.8264-3.622 3.452 1.5892-4.8148z" fill="#ffa135"/><g fill="#204e62"><path d="m2.60199 51.771c-.99051-.6814-1.19748-2.0517-.51743-3.0551.67266-1.0034 2.02537-1.213 3.01588-.5241.99051.6814 1.19748 2.0517.51743 3.0551-.7244.9509-2.07711 1.213-3.01588.5241z"/><path d="m72.4106 22.3882c-.9905-.6814-1.1975-2.0517-.5174-3.0551.6726-1.0034 2.0253-1.213 3.0158-.5241.9905.6814 1.1975 2.0517.5175 3.0551-.7244.9509-2.0771 1.213-3.0159.5241z"/><path d="m49.8504 40.1872c-1.3305-.9211-1.6114-2.7631-.7022-4.1109.9092-1.3479 2.7276-1.6324 4.0581-.7114 1.3306.921 1.6114 2.7631.7023 4.1109-.9832 1.273-2.8016 1.6324-4.0582.7114z"/><path d="m46.6576 91.9815c-1.3306-.921-1.6115-2.7631-.7023-4.1109s2.7276-1.6324 4.0582-.7114c1.3305.921 1.6114 2.7631.7022 4.1109-.9831 1.273-2.8015 1.6324-4.0581.7114z"/><path d="m38.3859 29.2023c-.887-.614-1.0792-1.8495-.4657-2.7481.6062-.8985 1.8258-1.0932 2.7128-.4717.8871.614 1.0793 1.8495.4657 2.7481-.6578.8536-1.8701 1.0932-2.7128.4717z"/></g><g fill="#0c8085"><path d="m44.2403 49.7718c-.8205-.5691-.9979-1.7072-.4361-2.5384s1.6854-1.0109 2.5058-.4418c.8205.5691.9979 1.7073.4362 2.5384-.6062.7863-1.7297 1.0109-2.5059.4418z"/><path d="m55.6682 107.085c0 1.205-.9831 2.201-2.1732 2.201s-2.1732-.996-2.1732-2.201c0-1.206.9831-2.202 2.1732-2.202s2.1732.996 2.1732 2.202z"/><path d="m5.76573 62.8906c-.50264.7114-1.45619.8686-2.16581.4044-.70222-.5092-.85745-1.4752-.39916-2.194.4583-.7188 1.4562-.8686 2.16581-.4043.70223.5091.85746 1.4751.39916 2.1939z"/><path d="m1.73706 41.2429c-.31046.4418-.901803.5317-1.330531.2546-.4361191-.3145-.524821-.9135-.251323-1.3478.273499-.4343.901804-.5317 1.330534-.2546.43612.3145.52482.9135.25132 1.3478z"/><path d="m30.4988 81.4758c-.3105.4418-.9018.5317-1.3306.2546-.4361-.3145-.5248-.9135-.2513-1.3478s.9018-.5316 1.3306-.2546c.4361.3145.5248.9135.2513 1.3478z"/><path d="m54.9436 96.3919c-.3105.4417-.9018.5316-1.3305.2545-.4361-.3144-.5248-.9135-.2513-1.3478.2734-.4343.9018-.5316 1.3305-.2546.4361.3145.5248.9136.2513 1.3479z"/><path d="m65.7507 20.9955c-.3104.4418-.9018.5316-1.3305.2546-.4361-.3145-.5248-.9135-.2513-1.3478.2735-.4344.9018-.5317 1.3305-.2546.4361.3145.5248.9135.2513 1.3478z"/><path d="m57.9226 79.7387c-.3104.4417-.9018.5316-1.3305.2545-.4361-.3144-.5248-.9135-.2513-1.3478s.9018-.5316 1.3305-.2546c.4361.3145.5248.9136.2513 1.3479z"/><path d="m60.7609 102.884c-.3178.449-.9165.547-1.3601.255-.4435-.322-.5396-.929-.2513-1.378.2883-.45.9166-.547 1.3601-.255.4435.322.5396.929.2513 1.378z"/><path d="m27.9337 23.4591c0 1.0109-.8205 1.842-1.8184 1.842s-1.8184-.8311-1.8184-1.842.8205-1.842 1.8184-1.842 1.8184.8311 1.8184 1.842z"/><path d="m70.2598 67.8852c-.2291.322-.6653.3969-.9831.1872-.3179-.2321-.3918-.6739-.1848-.9959s.6653-.3969.9831-.1872c.3179.2321.3918.6739.1848.9959z"/><path d="m42.9319 56.5784c-.3105.4418-.9018.5316-1.3305.2546-.4362-.3145-.5249-.9136-.2514-1.3479s.9018-.5316 1.3306-.2546c.4361.3145.5248.9136.2513 1.3479z"/></g></g></svg>