<svg fill="none" height="300" viewBox="0 0 300 300" width="300" xmlns="http://www.w3.org/2000/svg" xmlns:xlink="http://www.w3.org/1999/xlink"><linearGradient id="a" gradientUnits="userSpaceOnUse" x1="27" x2="24527" y1="14844.1" y2="14844.1"><stop offset="0" stop-color="#f50"/><stop offset=".409877" stop-color="#f50"/><stop offset=".581981" stop-color="#ff2000"/><stop offset="1" stop-color="#ff2000"/></linearGradient><linearGradient id="b" gradientUnits="userSpaceOnUse" x1="484.711" x2="20382.8" y1="2677.37" y2="2677.37"><stop offset="0" stop-color="#ff452a"/><stop offset="1" stop-color="#ff2000"/></linearGradient><path clip-rule="evenodd" d="m263.425 73.3997 6.738-16.8486s-8.575-9.3604-18.988-19.9689c-10.412-10.6084-32.462-4.3681-32.462-4.3681l-25.113-29.0266h-44.1-44.1l-25.1125 29.0266s-22.05-6.2403-32.4625 4.3681c-10.4125 10.6085-18.9875 19.9689-18.9875 19.9689l6.7375 16.8486-8.575 24.9611s25.2197 97.3202 28.175 109.2042c5.8188 23.401 9.8 32.45 26.3375 44.306 16.5375 11.857 46.5495 32.449 51.4495 35.57 4.9 3.12 11.026 8.434 16.538 8.434 5.513 0 11.637-5.314 16.537-8.434 4.9-3.121 34.913-23.713 51.451-35.57 16.537-11.856 20.518-20.905 26.337-44.306 2.955-11.884 28.175-109.2042 28.175-109.2042z" fill="url(#a)" fill-rule="evenodd"/><path clip-rule="evenodd" d="m149.5 185.333c1.679 0 12.436 3.869 21.068 8.42 8.631 4.551 14.887 7.769 16.886 9.044 2 1.275.78 3.679-1.041 4.991s-26.298 20.622-28.673 22.756c-2.376 2.135-5.866 5.66-8.24 5.66-2.373 0-5.865-3.525-8.24-5.66-2.376-2.134-26.851-21.444-28.673-22.756-1.821-1.312-3.04-3.716-1.041-4.991 2-1.275 8.255-4.493 16.887-9.044 8.631-4.551 19.388-8.42 21.067-8.42zm.132-137.5327c.824.0233 5.468.2532 12.118 2.5116 7.35 2.4961 15.313 5.6162 18.988 5.6162s30.931-5.3042 30.931-5.3042 32.301 39.7816 32.301 48.284c0 8.5021-4.063 10.7461-8.149 15.1661-4.085 4.42-21.928 23.724-24.219 26.202-2.292 2.48-7.062 6.238-4.256 13.003s6.945 15.374 2.342 24.105-12.489 14.559-17.542 13.596c-5.054-.964-16.921-7.283-21.285-10.169s-18.195-14.508-18.195-18.955c0-4.446 14.297-12.43 16.938-14.244 2.643-1.813 14.691-8.834 14.937-11.59.247-2.756.153-3.564-3.403-10.373-3.555-6.81-9.958-15.897-8.893-21.944 1.066-6.0452 11.393-9.189 18.763-12.0246 7.368-2.8349 21.557-8.1897 23.329-9.0222 1.773-.833 1.315-1.6262-4.055-2.1447-5.369-.5186-20.605-2.5791-27.475-.6284-6.869 1.9507-18.604 4.9185-19.555 6.4923-.95 1.5738-1.789 1.6269-.813 7.0559s6.002 31.4797 6.49 36.1067 1.442 7.686-3.455 8.827-13.141 3.121-15.974 3.121-11.077-1.98-15.974-3.121-3.943-4.2-3.455-8.827 5.514-30.6777 6.49-36.1067.137-5.4821-.813-7.0559-12.686-4.5416-19.555-6.4923c-6.87-1.9507-22.1056.1098-27.4747.6284-5.3692.5185-5.8274 1.3117-4.0548 2.1447 1.7726.8325 15.9615 6.1873 23.3295 9.0222 7.369 2.8356 17.696 5.9794 18.762 12.0246 1.066 6.047-5.338 15.134-8.893 21.944-3.555 6.809-3.65 7.617-3.403 10.373.246 2.756 12.295 9.777 14.937 11.59 2.641 1.814 16.938 9.798 16.938 14.244 0 4.447-13.831 16.069-18.195 18.955s-16.231 9.205-21.284 10.169c-5.053.963-12.9391-4.865-17.5426-13.596-4.603-8.731-.4637-17.34 2.3416-24.105 2.8058-6.765-1.9637-10.523-4.2557-13.003-2.2907-2.478-20.1341-21.782-24.2194-26.202-4.0854-4.42-8.1481-6.664-8.1481-15.1661 0-8.5024 32.3008-48.284 32.3008-48.284s27.2564 5.3042 30.9314 5.3042 11.637-3.1201 18.987-5.6162c6.65-2.2584 11.295-2.4883 12.119-2.5116z" fill="#fff" fill-rule="evenodd"/><path d="m218.714 32.2141-25.113-29.0266h-44.1-44.1l-25.1123 29.0266s-22.05-6.2403-32.4625 4.3681c0 0 29.4-2.7039 39.5062 14.0406 0 0 27.2566 5.3042 30.9316 5.3042s11.637-3.1201 18.987-5.6162 12.25-2.5142 12.25-2.5142 4.9.0181 12.25 2.5142 15.313 5.6162 18.988 5.6162 30.931-5.3042 30.931-5.3042c10.106-16.7445 39.506-14.0406 39.506-14.0406-10.412-10.6084-32.462-4.3681-32.462-4.3681z" fill="url(#b)"/></svg>