<?xml version="1.0" encoding="UTF-8"?>
<svg id="ORCESTRA" xmlns="http://www.w3.org/2000/svg" viewBox="0 0 558.77 63">
  <defs>
    <style>
      .cls-1 {
        fill: #000000;
      }
    </style>
  </defs>
  <path class="cls-1" d="M169.47,63h-11.02c-1.64-4.11-2.46-8.03-3.19-14.97-.82-6.67-3.28-10.87-9.01-11.23-1.55-.09-3.1-.09-4.64-.09h-9.74v26.29h-10.02V0h21.67c3.37,0,5.65,0,8.65,.37,9.1,1.19,15.93,6.03,15.93,16.8,0,8.22-5.01,13.06-11.65,15.07,5.65,2.47,8.01,7.94,8.65,14.52,.73,7.94,1.82,12.78,4.37,16.25Zm-27.13-34.06c2.55,0,4.1,0,5.65-.18,5.46-.55,9.56-3.65,9.56-10.32s-3.37-9.4-8.74-10.13c-1.64-.28-3.28-.37-5.83-.37h-11.11V28.94h10.47Z"/>
  <path class="cls-1" d="M238.58,20.71l.09,.88h-9.92l-.18-.88c-1.73-8.16-6.92-13.34-16.39-13.34-11.65,0-19.03,9.65-19.03,23.95,0,15,7.47,24.3,18.57,24.3,9.47,0,14.66-5.35,16.39-13.51l.18-.88h9.92l-.09,.88c-1.27,11.85-10.47,20.88-26.86,20.88-17.94,0-28.95-12.81-28.95-31.24S194.69,0,212.35,0c16.39,0,24.95,8.77,26.22,20.71Z"/>
  <path class="cls-1" d="M301.21,63h-43.43V0h42.52V7.94h-32.5V27.48h29.96v7.94h-29.96v19.54h33.41v8.03Z"/>
  <path class="cls-1" d="M105.67,31.66c0-18.98-12.38-31.66-30.05-31.66-16.39,0-24.95,8.75-26.22,20.64l-.09,.87h9.92l.18-.87c1.73-8.13,6.92-13.3,16.39-13.3,11.65,0,19.03,9.62,19.03,23.88,0,14.96-7.47,24.23-18.57,24.23h0s-66.2,.02-66.2,.02L0,63H76.43c17.76-.16,29.24-13.07,29.24-31.34Z"/>
  <path class="cls-1" d="M361.39,18.43h-10.38c-.73-6.93-4.92-11.06-12.2-11.06-5.92,0-10.56,2.63-10.56,8.34s3.73,8.6,13.48,10.79c13.84,3.07,20.39,8.77,20.39,18.87,0,10.97-10.11,17.64-22.31,17.64-14.39,0-23.58-6.58-24.86-18.78h10.38c1.64,7.46,7.1,11.41,14.48,11.41,6.56,0,11.75-3.42,11.75-8.95,0-6.32-3.82-9.57-14.02-11.85-11.93-2.72-19.85-7.02-19.85-17.55S327.61,0,339.36,0c13.93,0,20.76,7.9,22.03,18.43Z"/>
  <path class="cls-1" d="M406.09,7.94V63h-9.92V7.94h-21.94V0h53.81V7.94h-21.94Z"/>
  <path class="cls-1" d="M490.85,63h-11.02c-1.64-4.11-2.46-8.03-3.19-14.97-.82-6.67-3.28-10.87-9.01-11.23-1.55-.09-3.1-.09-4.64-.09h-9.74v26.29h-10.01V0h21.67c3.37,0,5.65,0,8.65,.37,9.11,1.19,15.93,6.03,15.93,16.8,0,8.22-5.01,13.06-11.65,15.07,5.64,2.47,8.01,7.94,8.65,14.52,.73,7.94,1.82,12.78,4.37,16.25Zm-27.13-34.06c2.55,0,4.1,0,5.64-.18,5.46-.55,9.56-3.65,9.56-10.32s-3.37-9.4-8.74-10.13c-1.64-.28-3.28-.37-5.83-.37h-11.11V28.94h10.47Z"/>
  <path class="cls-1" d="M518.8,42.18l-6.83,20.82h-10.65L523.9,0h12.93l21.94,63h-10.83l-6.83-20.82h-22.31Zm19.67-7.94l-8.28-25.93-8.74,25.93h17.03Z"/>
</svg>