<svg fill="none" height="26" viewBox="0 0 27 26" width="27" xmlns="http://www.w3.org/2000/svg"><path d="m13.1739 0c-7.27988 0-13.1739 5.82426-13.1739 13 0 7.1757 5.89402 13 13.1739 13 7.2799 0 13.1739-5.8162 13.1739-13 0-7.18379-5.9021-13-13.1739-13zm6.6359 10.3775c0 .1367.0081.2815.0081.4263 0 4.328-3.3424 9.3237-9.4483 9.3237-1.87503 0-3.6196-.539-5.08699-1.4722.26087.0322.52174.0483.79076.0483 1.55706 0 2.9837-.5229 4.12503-1.3998-1.45112-.0241-2.67394-.9734-3.09786-2.2766.20381.0403.40761.0563.62772.0563.30163 0 .59511-.0402.87228-.1126-1.5163-.2976-2.66576-1.625-2.66576-3.2098 0-.0161 0-.0241 0-.0402.44837.2494.96196.3942 1.5.4103-.88858-.5873-1.47554-1.5928-1.47554-2.72712 0-.60334.16304-1.16646.44837-1.64913 1.63859 1.97896 4.08419 3.28215 6.83969 3.41895-.0571-.2413-.0897-.4907-.0897-.7482 0-1.80998 1.4837-3.27409 3.3179-3.27409.9538 0 1.818.39418 2.4212 1.03775.7582-.14481 1.4674-.41832 2.1115-.79641-.2528.76423-.7745 1.40779-1.4593 1.81002.6685-.08045 1.3125-.25742 1.9076-.51485-.4402.65965-1.0108 1.23886-1.6549 1.69738z" fill="#51b8bc"/></svg>