<svg fill="none" height="26" viewBox="0 0 27 26" width="27" xmlns="http://www.w3.org/2000/svg"><path clip-rule="evenodd" d="m13.9158.0883789c7.2228 0 13.0842 5.7840311 13.0842 12.9115211 0 7.1275-5.8614 12.9115-13.0842 12.9115-7.22284 0-13.084257-5.784-13.084257-12.9115 0-7.12749 5.861417-12.9115211 13.084257-12.9115211zm7.8342 9.0259911c-.1875-.69183-.7418-1.23886-1.4429-1.42389-1.2717-.33787-6.3913-.33787-6.3913-.33787s-5.11143 0-6.39132.33787c-.70108.18503-1.25544.73206-1.44294 1.42389-.34239 1.25493-.34239 3.88553-.34239 3.88553s0 2.6225.34239 3.8855c.1875.6918.74186 1.2389 1.44294 1.4239 1.27174.3379 6.39132.3379 6.39132.3379s5.1114 0 6.3913-.3379c.7011-.185 1.2554-.7321 1.4429-1.4239.3424-1.2549.3424-3.8855.3424-3.8855s0-2.6225-.3424-3.88553zm-9.4728 6.30693v-4.8428l4.2473 2.4214z" fill="#51b8bc" fill-rule="evenodd"/></svg>