<svg fill="none" height="26" viewBox="0 0 27 26" width="27" xmlns="http://www.w3.org/2000/svg"><path d="m13.1905.128906c-7.20657 0-13.043527 5.759904-13.043527 12.871294 0 7.1114 5.836957 12.8713 13.043527 12.8713 7.2065 0 13.0434-5.7599 13.0434-12.8713 0-7.11139-5.8369-12.871294-13.0434-12.871294zm1.6875 15.252494c.269.2333.4809 1.0538.4809 1.4319v3.3305h-3.8559s0-1.1343 0-1.9066c-2.64135.5631-3.37505-1.4319-3.37505-1.4319-.48098-.9493-.96196-1.432-.96196-1.432-.96195-.5631 0-.4746 0-.4746.96196 0 1.45109.9493 1.45109.9493.84783 1.4158 2.35602 1.1906 2.89402.9492 0-.4746.212-1.1986.481-1.4319-2.11143-.2333-3.86415-1.4319-3.86415-3.8131 0-2.38121.48098-2.85584.97011-3.33047-.09783-.23329-.49728-1.10211.0163-2.38119 0 0 .94564 0 1.91574 1.43193.481-.47463 1.9321-.47463 2.4131-.47463.4809 0 1.932 0 2.413.47463.962-1.43193 1.9158-1.43193 1.9158-1.43193.5136 1.27908.1141 2.1479.0163 2.38119.481.47463.9619.94926.9619 3.33047 0 2.3812-1.7527 3.5798-3.8641 3.8131z" fill="#51b8bc"/></svg>