<svg id="Layer_1" xmlns="http://www.w3.org/2000/svg" width="180" height="131"><style>.st6{fill:#083b54}.st42{stroke-width:2.5;stroke-miterlimit:10;fill:#fff;stroke:#c3e9ec;stroke-linejoin:round}</style><path transform="rotate(-3.66 85.404 65.469) scale(1.00004)" class="st42" d="M6.4 20.3h158v90.3H6.4z"/><path class="st42" d="M177.7 89.3l-153 39.8L2 41.7 155 1.9z"/><path d="M178 95.6L22.4 123.5 6.5 34.6 162 6.7z" fill="#fff" stroke="#6ac9d0" stroke-width="2.5" stroke-linejoin="round" stroke-miterlimit="10"/><path class="st6" d="M30.1 60.9l1.1-5.7 1.5-.3 1.2 6.9-.9.2-1-5.8-1.3 6.2-.6.1-3.3-5.4 1 5.8-.9.2-1.2-6.9 1.5-.3 2.9 5zm7.5-3.3c-.1-.2-.3-.3-.5-.3-.2-.1-.4-.1-.7 0-.1 0-.2 0-.3.1-.1 0-.2.1-.3.2l-.2.2v.3c0 .2.1.3.3.4.2.1.5.1.8.1.2 0 .4 0 .7.1.2 0 .4.1.5.2.2.1.3.2.4.3.1.1.2.3.2.5v.7c-.1.2-.2.4-.3.5-.2.2-.3.3-.5.4-.2.1-.4.2-.7.2-.4.1-.7.1-1.1 0-.4-.1-.7-.2-1-.5l.6-.7c.2.2.4.3.6.4.2.1.5.1.8.1.1 0 .2-.1.3-.1.1 0 .2-.1.3-.2l.2-.2V60c0-.2-.2-.4-.4-.4-.2-.1-.5-.1-1-.1-.2 0-.3 0-.5-.1-.2 0-.3-.1-.5-.2-.1-.1-.3-.2-.4-.3-.1-.1-.2-.3-.2-.5v-.7c.1-.2.2-.4.3-.5.1-.1.3-.3.5-.4.2-.1.4-.2.6-.2.3-.1.7-.1 1 0 .3.1.6.2.8.4l-.3.6zm3.7 2.3c0 .2 0 .3-.1.5s-.2.2-.4.3c-.2 0-.3 0-.5-.1-.1-.1-.2-.2-.3-.4 0-.2 0-.3.1-.5.1-.1.2-.2.4-.3.2 0 .4 0 .5.1.2.1.3.3.3.4zm5.2-.3l-1 .2-1.2-6.9 4.3-.8.2.9-3.4.6.4 2.2 3.1-.6.1.8-3.1.6.6 3zm4.5-7.3c0 .2 0 .3-.1.5-.1.1-.2.2-.4.2s-.3 0-.5-.1c-.1-.1-.2-.2-.3-.4 0-.2 0-.3.1-.5.1-.1.2-.2.4-.2s.3 0 .5.1.3.2.3.4zm1 6.3l-.9.2-.8-4.6.9-.2.8 4.6zm2.6-.4l-.9.2-1.3-7.4.9-.2 1.3 7.4zm5.5-3.5v.4l-3.7.7c0 .2.1.4.2.5.1.2.2.3.4.4.2.1.3.2.5.2h.6c.3-.1.6-.2.8-.4.2-.2.4-.4.4-.6l.7.4c-.2.4-.4.7-.7.9-.3.2-.7.4-1.1.4-.4.1-.7.1-1 0-.3-.1-.6-.2-.9-.4-.3-.2-.5-.4-.6-.7-.2-.3-.3-.6-.4-1-.1-.4-.1-.7 0-1 .1-.3.2-.6.4-.9.2-.3.4-.5.7-.6.3-.2.6-.3.9-.4.3-.1.7-.1 1 0 .3.1.6.2.8.4.2.2.4.4.6.7.3.3.4.6.4 1zm-1-.2c0-.2-.1-.3-.2-.5-.1-.1-.2-.3-.3-.4-.1-.1-.3-.2-.5-.2h-.6c-.2 0-.4.1-.5.2-.2.1-.3.2-.4.4-.1.1-.2.3-.2.5-.1.2-.1.4-.1.5l2.8-.5zm8.7-.4l1.1-5.7 1.5-.3 1.2 6.9-1 .2-1-5.8-1.3 6.2-.6.1-3.3-5.4 1 5.8-.9.2-1.2-6.9 1.5-.3 3 5zm8.3-3.4c-.1-.1-.3-.2-.5-.3s-.4-.1-.7 0c-.2 0-.4.1-.6.3-.2.1-.3.3-.4.5-.1.2-.2.4-.2.6v.7c0 .2.1.4.2.6.1.2.2.4.4.5.2.1.3.2.5.3.2.1.4.1.7 0 .2 0 .4-.1.6-.3.2-.1.3-.3.4-.5l.7.4c-.2.3-.4.5-.6.7-.3.2-.6.3-1 .4-.4.1-.7.1-1 0-.3-.1-.6-.2-.9-.4-.3-.2-.5-.4-.7-.7-.2-.3-.3-.6-.4-1-.1-.4-.1-.7 0-1 .1-.3.2-.6.4-.9.2-.3.4-.5.7-.6.3-.2.6-.3 1-.4.3-.1.7-.1 1 0 .3.1.6.2.9.4l-.5.7zm3.3 3l-1 .2-1.2-6.9 4.3-.8.2.9-3.4.6.4 2.2 3.1-.6.2.7-3.1.6.5 3.1zm4.5-7.3c0 .2 0 .3-.1.5-.1.1-.2.2-.4.2s-.3 0-.5-.1c-.1-.1-.2-.2-.3-.4 0-.2 0-.3.1-.5.1-.1.2-.2.4-.2s.3 0 .5.1.3.2.3.4zm1 6.3l-.9.2-.8-4.6.9-.2.8 4.6zm2.6-.4l-.9.2-1.4-7.5.9-.2 1.4 7.5zm5.6-3.5v.4l-3.7.7c0 .2.1.4.2.5.1.2.2.3.4.4.2.1.3.2.5.2h.6c.3-.1.6-.2.8-.4.2-.2.4-.4.4-.6l.7.4c-.2.4-.4.7-.7.9-.3.2-.7.4-1.1.4-.4.1-.7.1-1 0-.3-.1-.6-.2-.9-.4-.3-.2-.5-.4-.6-.7-.2-.3-.3-.6-.4-1-.1-.4-.1-.7 0-1 .1-.3.2-.6.4-.9.2-.3.4-.5.7-.6.3-.2.6-.3.9-.4.3-.1.7-.1 1 0 .3.1.6.2.8.4.2.2.4.4.6.7.2.3.3.6.4 1zm-1-.2c0-.2-.1-.3-.2-.5s-.2-.3-.3-.4c-.1-.1-.3-.2-.5-.2h-.6c-.2 0-.4.1-.5.2-.2.1-.3.2-.4.4-.1.1-.2.3-.2.5-.1.2-.1.4-.1.5l2.8-.5zm2-1.8c0-.2-.1-.4-.1-.5l.9-.2c0 .1.1.2.1.4s.1.3.1.4c.1-.3.2-.6.5-.8.2-.2.5-.3.8-.4h.4l.1.9h-.4c-.2 0-.4.1-.6.2-.1.1-.3.2-.3.4-.1.2-.1.3-.2.5v.6l.4 2.4-.9.2-.7-3.6c0-.1-.1-.3-.1-.5zm6.4-.9l-1.2.2.4 2.4c.1.3.1.5.3.6.1.1.3.1.5.1.1 0 .2 0 .3-.1.1 0 .2-.1.3-.1l.2.7c-.1.1-.2.1-.4.2-.1 0-.3.1-.4.1-.4.1-.8 0-1.1-.2-.3-.2-.5-.5-.5-1l-.5-2.5-.9.2-.1-.8.9-.2-.3-1.3.9-.2.2 1.3 1.2-.2.2.8zm5.9.5c.1.4.1.7 0 1-.1.3-.2.6-.4.9-.2.3-.4.5-.7.7-.3.2-.6.3-1 .4-.4.1-.7.1-1 0-.3-.1-.6-.2-.9-.4-.3-.2-.5-.4-.7-.7-.2-.3-.3-.6-.4-1-.1-.4-.1-.7 0-1 .1-.3.2-.6.4-.9.2-.3.4-.5.7-.6.3-.2.6-.3 1-.4.4-.1.7-.1 1 0 .3.1.6.2.9.4.3.2.5.4.7.7.3.3.4.6.4.9zm-.9.2c0-.2-.1-.4-.2-.6-.1-.2-.2-.3-.4-.5-.2-.1-.3-.2-.6-.3-.2-.1-.4-.1-.7 0-.2 0-.5.1-.6.3-.2.1-.3.3-.4.5-.1.2-.2.4-.2.6v.7c0 .2.1.4.2.6.1.2.2.4.4.5.2.1.3.2.6.3.2.1.4.1.7 0 .2 0 .5-.1.6-.3.2-.1.3-.3.4-.5.1-.2.2-.4.2-.6v-.7zm2.7-2.9c0 .1.1.2.1.4 0 .1.1.3.1.4 0-.1.1-.3.2-.4l.3-.3c.1-.1.2-.2.4-.3.1-.1.3-.1.5-.2.3-.1.6 0 .8 0l.6.3c.2.1.3.3.4.5.1.2.2.5.2.7l.5 2.9-.9.2-.5-2.6c0-.2-.1-.4-.1-.5-.1-.2-.1-.3-.2-.4-.1-.1-.2-.2-.4-.3-.2-.1-.3-.1-.6 0-.4.1-.6.3-.8.6-.2.3-.2.7-.1 1.2l.4 2.5-.9.2-.7-3.6c0-.1-.1-.3-.1-.5s-.1-.4-.1-.5l.9-.3zM31.9 81l-.7.1-.8-4.2-.8 1-.5-.4 1.2-1.4.7-.1.9 5zm2.2-3.5c.1 0 .2-.1.3-.1.1 0 .2-.1.3-.1h.6c.2 0 .4.1.6.2.2.1.3.3.4.4.1.2.2.4.2.6v.7c-.1.2-.1.4-.3.6-.1.2-.3.3-.5.4-.2.1-.4.2-.7.2h-.7c-.2 0-.4-.1-.6-.2-.2-.1-.3-.3-.5-.5l-.3-.6v-.8c.1-.2.1-.5.2-.7l.9-2.3.8-.1-.7 2.3zm-.3 1.6c0 .1.1.3.2.4l.3.3c.1.1.2.1.4.2s.3 0 .4 0c.2 0 .3-.1.4-.2l.3-.3c.1-.1.1-.2.2-.4v-.4c0-.2-.1-.3-.2-.4l-.3-.3c-.1-.1-.2-.1-.4-.2h-.4c-.2 0-.3.1-.4.2l-.3.3c-.1.1-.1.2-.2.4v.4zm6.5-1.4l.7-.1.1.6-.7.1.2 1.1-.7.1-.2-1.1-2.3.4-.1-.6 1.6-3.7.8-.2.6 3.4zm-1.1-2.4L38 78.1l1.6-.3-.4-2.5zm3.5.8h.2c.1 0 .3-.1.4-.1.1-.1.2-.1.3-.2.1-.1.2-.2.2-.3s.1-.3 0-.4c0-.1-.1-.2-.1-.3-.1-.1-.1-.2-.2-.2-.1-.1-.2-.1-.3-.1h-.3c-.2 0-.4.1-.5.3-.1.1-.2.3-.3.5l-.7-.3c.1-.3.2-.6.5-.8.2-.2.5-.4.9-.4h.6c.2 0 .4.1.5.2.2.1.3.2.4.4.1.2.2.3.2.6v.4c0 .1-.1.3-.1.4-.1.1-.1.2-.2.3-.1.1-.2.2-.3.2.2 0 .3 0 .4.1.1 0 .3.1.4.2l.3.3c.1.1.1.3.2.4v.7c-.1.2-.2.4-.3.5-.1.2-.3.3-.5.4-.2 0-.4.1-.6.1-.4.1-.8 0-1.1-.1-.3-.1-.6-.4-.8-.7l.6-.3c.1.2.3.4.5.5.2.1.4.1.7.1.1 0 .3-.1.4-.1.1-.1.2-.1.3-.2.1-.1.1-.2.2-.3v-.4c0-.2-.1-.3-.2-.4-.1-.1-.2-.2-.3-.2-.1-.1-.3-.1-.4-.1H43l-.3-.7zm4.1-.7l1.9-2.6 1-.2-2 2.8 3.1 2.3-1 .2-2.8-2.2.5 2.6-.7.1-.9-5.1.7-.1.2 2.2zm3.7-2.9l1.7-.3h.6c.2 0 .4 0 .5.1.2.1.3.2.4.3.1.1.2.3.2.6.1.3 0 .5-.1.8-.1.2-.3.4-.6.5h.5c.1 0 .3.1.4.2l.3.3c.1.1.1.3.2.5v.7c-.1.2-.2.4-.3.5s-.3.2-.5.3c-.2.1-.5.2-.7.2l-1.7.3-.9-5zm1.1 2l.9-.2c.1 0 .3-.1.4-.1.1-.1.2-.1.3-.2.1-.1.1-.2.2-.3v-.4c0-.3-.2-.4-.4-.5-.2-.1-.5-.1-.8 0l-.8.1.2 1.6zm.4 2.3l.9-.2c.1 0 .3-.1.4-.1.1-.1.3-.1.4-.2.1-.1.2-.2.2-.3.1-.1.1-.3 0-.4-.1-.3-.2-.5-.4-.6-.2-.1-.5-.1-.9 0l-.9.2.3 1.6z"/><path d="M32.6 93.6l-.6.2-.8-4.4.6-.1.8 4.3zM33 89l1.3-.2c.2 0 .5-.1.7 0 .2 0 .4.1.5.1.2.1.3.2.4.3.1.1.2.3.2.5v.6c-.1.2-.1.3-.3.4-.1.1-.3.2-.5.3-.2.1-.4.1-.6.2l-.7.2.3 1.9-.6.1L33 89zm.9 1.9l.7-.1c.1 0 .3-.1.4-.1.1 0 .2-.1.3-.2.1-.1.1-.2.2-.3v-.3c0-.1-.1-.2-.1-.3-.1-.1-.2-.1-.3-.2-.1 0-.2-.1-.3-.1h-.4l-.7.1.2 1.5zm4.2 1.8l-.6.1-.8-4.4 2.8-.5.1.5-2.1.4.2 1.4 2-.4.1.5-2 .4.3 2zm4.5-4.6c-.1-.1-.2-.2-.4-.2-.2-.1-.3-.1-.5 0-.1 0-.2.1-.3.1-.1 0-.2.1-.3.2-.1.1-.1.2-.2.3v.3c0 .1.1.2.1.3l.2.2c.1 0 .2.1.3.1.1 0 .2 0 .4.1.2 0 .3 0 .5.1.2 0 .3.1.5.2.1.1.3.2.4.3.1.1.2.3.2.5v.6c-.1.2-.1.3-.3.5s-.3.2-.4.3c-.2.1-.4.1-.6.2h-.8c-.2 0-.5-.2-.7-.4l.4-.5c.1.1.3.2.5.3s.4.1.6 0c.1 0 .2-.1.3-.1.1 0 .2-.1.3-.2.1-.1.1-.2.2-.3v-.4c0-.1-.1-.2-.1-.3-.1-.1-.2-.1-.3-.2-.1 0-.2-.1-.4-.1-.1 0-.3 0-.4-.1-.1 0-.3 0-.4-.1-.1 0-.3-.1-.4-.2l-.3-.3c-.1-.1-.2-.3-.2-.5v-.6c.1-.2.2-.3.3-.5.1-.1.3-.2.4-.3.2-.1.3-.1.5-.2h.7c.2.1.4.1.6.3l-.4.6zm2.9-1.3l.6-.1.3 1.8 2.2-.4-.3-1.8.6-.1.8 4.4-.6.1-.4-2-2.2.4.4 2-.6.1-.8-4.4zm5.6 3.5l-.7.1 1.1-4.7.6-.1 2.7 4.1-.7.1-.6-1-2.1.4-.3 1.1zm.4-1.7l1.6-.3-1.1-1.9-.5 2.2zm5.6-3.1c-.1-.1-.2-.2-.4-.2s-.3-.1-.5 0c-.1 0-.2.1-.3.1-.1 0-.2.1-.3.2-.1.1-.1.2-.2.3v.3c0 .1.1.2.1.3l.2.2c.1 0 .2.1.3.1.1 0 .2 0 .4.1.2 0 .3 0 .5.1.2 0 .3.1.5.2.1.1.3.2.4.3.1.1.2.3.2.5v.6c-.1.2-.1.3-.3.5-.1.1-.3.2-.4.3-.2.1-.4.1-.6.2h-.8c-.3-.1-.5-.2-.7-.4l.4-.5c.1.1.3.2.5.3.2.1.4.1.6 0 .1 0 .2-.1.3-.1.1 0 .2-.1.3-.2.1-.1.1-.2.2-.3V88c0-.1-.1-.2-.1-.3-.1-.1-.2-.1-.3-.2-.1 0-.2-.1-.4-.1-.1 0-.3 0-.4-.1-.1 0-.3 0-.4-.1-.1 0-.3-.1-.4-.2l-.3-.3c-.1-.1-.2-.3-.2-.5v-.6c.1-.2.2-.3.3-.5.1-.1.3-.2.4-.3.2-.1.3-.1.5-.2h.7c.2.1.4.1.6.3l-.4.6zm1.3-1l.6-.1.3 1.8 2.2-.4-.3-1.8.6-.1.8 4.4-.6.1-.4-2-2.2.4.4 2-.6.1-.8-4.4zm5.7.8c0 .1 0 .2-.1.3-.1.1-.2.2-.3.2-.1 0-.2 0-.3-.1-.1-.1-.2-.2-.2-.3 0-.1 0-.2.1-.3.1-.1.2-.2.3-.2.1 0 .2 0 .3.1.1.1.2.2.2.3zm.4 2.2c0 .1 0 .2-.1.3-.1.1-.2.2-.3.2-.1 0-.2 0-.3-.1-.1-.1-.2-.2-.2-.3 0-.1 0-.2.1-.3.1-.1.2-.2.3-.2s.2 0 .3.1c.1.1.2.2.2.3z" fill="#6ac9d0"/><path class="st6" d="M37.7 100.8l-2.4.4c-.3.1-.6.1-.9 0-.3-.1-.5-.2-.7-.3-.2-.1-.4-.3-.6-.6-.2-.2-.3-.5-.3-.8-.1-.3-.1-.6 0-.9.1-.3.2-.5.3-.7l.6-.6c.2-.2.5-.3.8-.3.3-.1.6-.1.9 0 .3.1.5.2.7.3.2.2.4.3.6.6.2.2.3.5.3.8.1.4 0 .7-.1 1-.1.3-.3.6-.5.8l1.1-.2.2.5zm-4.3-1.4c0 .2.1.4.2.6.1.2.2.3.4.5s.3.2.5.3c.2 0 .4.1.6 0 .2 0 .4-.1.6-.2.2-.1.3-.3.4-.4.1-.2.2-.4.2-.6V99c0-.2-.1-.4-.2-.6-.1-.2-.2-.3-.4-.5-.2-.1-.3-.2-.5-.3-.2-.1-.4-.1-.6 0-.2 0-.4.1-.6.2-.2.1-.3.3-.4.4s-.2.4-.2.6c-.1.2-.1.4 0 .6zm5.4-1.5c.1-.1.3-.2.5-.3h.5c.2.1.3.2.4.4.1-.2.2-.4.3-.5.1-.1.3-.2.5-.2h.5c.1 0 .3.1.4.2l.3.3c.1.1.1.3.1.4l.3 1.7-.6.1-.3-1.5c0-.1 0-.2-.1-.3 0-.1-.1-.2-.1-.2l-.2-.2H41c-.1 0-.2.1-.3.1l-.2.2c-.1.1-.1.2-.1.3v.3l.3 1.5-.5.1-.3-1.6c0-.1 0-.2-.1-.3s-.1-.2-.1-.2c-.1-.1-.1-.1-.2-.1h-.3c-.2 0-.4.1-.5.3-.1.2-.1.4-.1.7l.3 1.5-.5.1-.4-2.2c0-.1 0-.2-.1-.3 0-.1 0-.2-.1-.3l.5-.1c0 .1 0 .1.1.2v.2c.1-.1.2-.2.4-.3zm6 1.6l-.6.1-.3-1.8-1.9-2 .7-.1 1.5 1.6.8-2.1.7-.1-1.1 2.6.2 1.8zm1.6-3.1l1 2 .3-2.2.6-.1 1 2 .2-2.2.6-.1-.4 2.9-.6.1-1-1.9-.3 2.1-.6.1-1.4-2.6.6-.1zm5 1.9l-.6.1 1-4.4.5-.1 2.5 3.8-.6.1-.6-.9-1.9.3-.3 1.1zm.4-1.6l1.5-.3-1.1-1.8-.4 2.1zm3-3.2l1.2-.2c.2 0 .4-.1.6 0 .2 0 .4.1.5.1.1.1.3.2.4.3.1.1.2.3.2.5v.5c0 .2-.1.3-.2.4-.1.1-.3.2-.4.3-.2.1-.4.1-.6.2l-.6.1.3 1.8-.6.1-.8-4.1zm.9 1.7l.6-.1c.1 0 .3-.1.4-.1.1 0 .2-.1.3-.2l.2-.2v-.3c0-.1-.1-.2-.1-.3l-.2-.2c-.1 0-.2-.1-.3-.1h-.4l-.6.1.1 1.4zm2.8.9c.1.1.1.3.3.3.1.1.3.1.4.1.1 0 .2-.1.3-.1l.2-.2v-.6l-.5-2.8.6-.1.5 2.8v.5c0 .2 0 .3-.1.5s-.2.3-.3.4c-.1.1-.3.2-.6.2-.3.1-.6 0-.8-.1-.2-.1-.4-.3-.5-.6l.5-.3zm4.5-2.2L61.7 96l1.6-.3.1.5-2.3.4-.1-.4 1.2-2.1-1.5.3-.1-.4 2.2-.4.2.3zm2.6 1.9l-.6.1-1.6-2.5.6-.1 1.2 2 .4-2.3.6-.1-.6 2.9zm3.5-4.3l-1.7.3.2 1.1c.1 0 .2-.1.2-.1.1 0 .2-.1.3-.1h.6c.2 0 .3.1.5.2.1.1.3.2.4.4.1.1.2.3.2.5v.6c0 .2-.1.4-.2.5-.1.1-.2.3-.4.4-.2.1-.3.2-.5.2-.3.1-.6 0-.8-.1-.2-.1-.4-.3-.6-.5l.5-.3c.1.2.2.3.4.3.2.1.3.1.5.1.1 0 .2-.1.3-.1.1-.1.2-.1.2-.2.1-.1.1-.2.1-.3V94c0-.2-.1-.3-.2-.4-.1-.1-.2-.2-.3-.2-.1-.1-.2-.1-.3-.1h-.4c-.2 0-.3.1-.5.1-.2.1-.3.2-.4.2l-.3-2.2L69 91l.1.5zm5.1 2.1c-.1.2-.3.5-.5.6-.2.2-.5.3-.9.4-.3.1-.6.1-.9 0-.3-.1-.5-.2-.8-.3l-.6-.6c-.2-.2-.3-.5-.3-.8-.1-.3-.1-.6 0-.9.1-.3.2-.5.3-.8l.6-.6c.2-.2.5-.3.8-.3h.8c.1 0 .3.1.4.1.1.1.2.1.3.2l-.4.4c-.1-.1-.3-.2-.5-.3-.2-.1-.4-.1-.6 0-.2 0-.4.1-.6.2-.2.1-.3.3-.4.4-.1.2-.2.4-.2.6v.7c0 .2.1.4.2.6.1.2.2.3.4.5.2.1.3.2.5.3.2.1.4.1.7 0 .2 0 .4-.1.6-.3.2-.1.3-.3.4-.5l.7.4zm3-3.6l-1.8 3.5 2.3-.4.1.5-3 .5-.1-.5 1.8-3.5-2.3.4V90l3-.5v.5zm2.7 1.1c-.1-.1-.2-.2-.3-.2-.1 0-.3-.1-.4 0-.1 0-.1 0-.2.1h-.1l-.1.1v.2c0 .1.1.2.2.2s.3.1.5.1h.4c.1 0 .2.1.3.1s.2.1.2.2c.1.1.1.2.1.3v.4c0 .1-.1.2-.2.3-.1.1-.2.2-.3.2-.1.1-.3.1-.4.1H79c-.2 0-.4-.1-.6-.3l.3-.4c.1.1.2.2.4.2.1 0 .3.1.4 0 .1 0 .1 0 .2-.1.1 0 .1-.1.2-.1l.1-.1v-.2c0-.1-.1-.2-.2-.3-.1 0-.3-.1-.6-.1h-.3c-.1 0-.2 0-.3-.1-.1 0-.2-.1-.2-.2-.1-.1-.1-.2-.1-.3v-.4c0-.1.1-.2.2-.3.1-.1.2-.2.3-.2.1-.1.2-.1.4-.1h.6c.2 0 .4.1.5.3l-.4.6zm1.6-1c0 .1 0 .1.1.2v.2c0-.1.1-.2.1-.2 0-.1.1-.1.2-.2l.2-.2c.1 0 .2-.1.3-.1h.5c.1 0 .3.1.4.2l.3.3c.1.1.1.3.1.4l.3 1.7-.5.1-.3-1.5c0-.1 0-.2-.1-.3 0-.1-.1-.2-.1-.2l-.2-.2h-.3c-.2 0-.4.2-.5.3-.1.2-.1.4-.1.7l.3 1.5-.5.1-.4-2.1c0-.1 0-.2-.1-.3 0-.1 0-.2-.1-.3l.4-.1zm3.7 2.2l-.6.1 1-4.4.5-.1 2.5 3.8-.6.1-.6-.9-1.9.3-.3 1.1zm.3-1.6l1.5-.3-1-1.8-.5 2.1zm4.1-1.7c.1 0 .1-.1.2-.1s.2-.1.3-.1h.5c.2 0 .3.1.5.2.1.1.3.2.3.4.1.1.2.3.2.5v.6c0 .2-.1.3-.2.5-.1.1-.2.3-.4.4-.2.1-.3.2-.5.2h-.6c-.2 0-.4-.1-.5-.2-.1-.1-.3-.2-.4-.4-.1-.2-.2-.3-.2-.5v-.6c0-.2.1-.4.2-.6l.8-1.9.7-.1-.9 1.7zm-.3 1.3c0 .1.1.2.1.3.1.1.1.2.2.2.1.1.2.1.3.1h.4c.1 0 .2-.1.3-.1.1-.1.2-.1.2-.2.1-.1.1-.2.1-.3v-.4c0-.1-.1-.2-.1-.3-.1-.1-.1-.2-.2-.2s-.2-.1-.3-.1h-.4c-.1 0-.2.1-.3.1-.1.1-.2.1-.2.2-.1.1-.1.2-.1.3v.4zm5.9.2l-2.7.5-.1-.5 1.3-1.9c.1-.1.2-.3.2-.5.1-.2.1-.3 0-.5 0-.1-.1-.2-.1-.3l-.2-.2c-.1 0-.2-.1-.3-.1H93c-.2 0-.4.1-.5.3-.1.2-.2.3-.2.6h-.6c0-.2 0-.3.1-.5.1-.1.1-.3.2-.4.1-.1.2-.2.4-.3.1-.1.3-.1.5-.2h.5c.2 0 .3.1.5.1.1.1.3.2.4.3.1.1.2.3.2.5v.4c0 .1 0 .2-.1.3 0 .1-.1.2-.2.3-.1.1-.1.2-.2.3l-1.1 1.5 2-.4.3.7zm2.6-4.2l-1.7.3.2 1.1c.1 0 .2-.1.2-.1.1 0 .2-.1.3-.1h.6c.2 0 .3.1.5.2.1.1.3.2.4.4.1.1.2.3.2.5v.6c0 .2-.1.4-.2.5-.1.1-.2.3-.4.4-.2.1-.3.2-.5.2-.3.1-.6 0-.8-.1-.2-.1-.4-.3-.6-.5l.5-.3c.1.2.2.3.4.3.2.1.3.1.5.1.1 0 .2-.1.3-.1.1-.1.2-.1.2-.2.1-.1.1-.2.1-.3v-.4c0-.2-.1-.3-.2-.4-.1-.1-.2-.2-.3-.2-.2-.2-.3-.2-.4-.2h-.4c-.2 0-.3.1-.5.1-.2.1-.3.2-.4.2l-.3-2.2 2.2-.4.1.6zm2.9 1.1c-.1-.1-.2-.2-.3-.2-.1 0-.3-.1-.4 0-.1 0-.1 0-.2.1-.1 0-.1.1-.2.1l-.1.1v.2c0 .1.1.2.2.2s.3.1.5.1h.4c.1 0 .2.1.3.1s.2.1.2.2c.1.1.1.2.1.3v.4c0 .1-.1.2-.2.3-.1.1-.2.2-.3.2-.1.1-.3.1-.4.1h-.6c-.2 0-.4-.1-.6-.3l.3-.4c.1.1.2.2.4.2.1 0 .3.1.4 0 .1 0 .1 0 .2-.1.1 0 .1-.1.2-.1l.1-.1v-.2c0-.1-.1-.2-.2-.3-.1 0-.3-.1-.6-.1h-.3c-.1 0-.2 0-.3-.1-.1 0-.2-.1-.2-.2-.1-.1-.1-.2-.1-.3v-.4c0-.1.1-.2.2-.3.1-.1.2-.2.3-.2.1-.1.2-.1.4-.1h.6c.2 0 .4.1.5.3l-.3.5zm2-.7h.2c.1 0 .2-.1.3-.1.1 0 .2-.1.3-.2.1-.1.1-.2.2-.2v-.3c0-.1-.1-.2-.1-.3l-.2-.2c-.1 0-.2-.1-.3-.1h-.3c-.2 0-.3.1-.4.2-.1.1-.2.2-.2.4l-.5-.1c.1-.3.2-.5.4-.7.2-.2.4-.3.7-.3h.5c.2 0 .3.1.4.1l.3.3c.1.1.2.3.2.5v.3c0 .1-.1.2-.1.3 0 .1-.1.2-.2.2-.1.1-.2.1-.3.2.1 0 .2 0 .4.1.1 0 .2.1.3.2.1.1.2.2.2.3.1.1.1.2.1.4v.6c0 .2-.1.3-.2.4-.1.1-.2.2-.4.3s-.3.1-.5.2c-.3.1-.6 0-.9-.1-.3-.1-.5-.3-.7-.6l.5-.3c.1.2.2.3.4.4.2.1.4.1.6.1.1 0 .2-.1.3-.1.1-.1.2-.1.2-.2.1-.1.1-.2.1-.3v-.4c0-.1-.1-.3-.2-.3-.1-.1-.2-.1-.3-.2-.1 0-.2-.1-.4-.1h-.6l.2-.4zm4-.9l.7-1.7.6-.1-1 2.2 2 1.8-.7.1-1.4-1.5-.8 1.9-.7.1 1.1-2.4-1.7-1.7.7-.1 1.2 1.4zm3.8-.4l-.6.1.4 2.3-.5.1-.4-2.3-.5.1-.1-.4.5-.1-.1-.6v-.5c0-.1.1-.3.1-.4l.3-.3c.1-.1.3-.1.5-.2h.3v.5h-.2c-.1 0-.2.1-.2.1-.1 0-.1.1-.1.2v.4l.1.6.6-.1-.1.5z"/><path class="st6" d="M114 87.1l-2.7.5-.1-.5 1.3-1.9c.1-.1.2-.3.2-.5.1-.2.1-.3 0-.5 0-.1-.1-.2-.1-.3l-.2-.2c-.1 0-.2-.1-.3-.1h-.3c-.2 0-.4.1-.5.3-.1.2-.2.3-.2.6h-.6c0-.2 0-.3.1-.5.1-.1.1-.3.2-.4.1-.1.2-.2.4-.3.1-.1.3-.1.5-.2h.5c.2 0 .3.1.5.1.1.1.3.2.4.3.1.1.2.3.2.5v.4c0 .1 0 .2-.1.3 0 .1-.1.2-.2.3-.1.1-.1.2-.2.3l-1.1 1.5 2-.4.3.7zm.8-3c0 .1 0 .1.1.2v.2c0-.1.1-.2.1-.2 0-.1.1-.1.2-.2l.2-.2c.1 0 .2-.1.3-.1h.5c.1 0 .3.1.4.2l.3.3c.1.1.1.3.1.4l.3 1.7-.5.1-.3-1.5c0-.1 0-.2-.1-.3 0-.1-.1-.2-.1-.2l-.2-.2h-.3c-.2 0-.4.2-.5.3-.1.2-.1.4-.1.7l.3 1.5-.5.1-.4-2.1c0-.1 0-.2-.1-.3 0-.1 0-.2-.1-.3l.4-.1zm5.8.4s0 .1 0 0v.2l-2.2.4c0 .1.1.2.1.3.1.1.1.2.2.2.1.1.2.1.3.1h.3c.2 0 .3-.1.5-.2.1-.1.2-.2.3-.4l.4.2c-.1.2-.3.4-.4.5l-.6.3h-.6c-.2 0-.4-.1-.5-.2-.1-.1-.3-.2-.4-.4-.1-.2-.2-.4-.2-.6v-.6c0-.2.1-.4.2-.5.1-.2.2-.3.4-.4.2-.1.3-.2.5-.2h.6c.2 0 .3.1.5.2.1.1.3.2.3.4.2.3.3.5.3.7zm-.6-.1c0-.1-.1-.2-.1-.3 0-.1-.1-.2-.2-.2-.1-.1-.2-.1-.3-.1h-.3c-.1 0-.2.1-.3.1-.1.1-.2.1-.2.2-.1.1-.1.2-.1.3v.3l1.5-.3zm2.1-1.5c.1-.1.3-.2.5-.3h.5c.2.1.3.2.4.4.1-.2.2-.4.3-.5.1-.1.3-.2.5-.2h.5c.1 0 .3.1.4.2l.3.3c.1.1.1.3.1.4l.3 1.7-.5.1-.3-1.5c0-.1 0-.2-.1-.3 0-.1-.1-.2-.1-.2l-.2-.2h-.3c-.1 0-.2.1-.3.1l-.2.2c0 .1-.1.2-.1.3v.3l.3 1.5-.5.1-.3-1.6c0-.1 0-.2-.1-.3 0-.1-.1-.2-.1-.2-.1-.1-.1-.1-.2-.1h-.3c-.2 0-.4.1-.5.3-.1.2-.1.4-.1.7l.3 1.5-.5.1-.4-2.1c0-.1 0-.2-.1-.3 0-.1 0-.2-.1-.3l.5-.1c0 .1 0 .1.1.2v.2c.1-.1.2-.3.3-.4zm5.8-.6l-.7.1.3 1.4c0 .2.1.3.2.3s.2.1.3.1h.2c.1 0 .1 0 .1-.1l.1.4c-.1 0-.1.1-.2.1s-.2 0-.2.1c-.3 0-.5 0-.6-.1-.2-.1-.3-.3-.3-.6l-.3-1.5-.5.1-.1-.4.5-.1-.1-.8.5-.1.1.8.7-.1v.4zm2.5 1.9l-.6.1-.3-1.8-1.9-2 .7-.1 1.5 1.6.8-2.1.7-.1-1.1 2.6.2 1.8zm2 .1c.1.1.3.2.5.2s.4.1.6 0c.2 0 .3-.1.4-.2l.3-.3c.1-.1.1-.2.1-.3v-.4l-.1-.4c-.1.2-.2.3-.3.4-.2.1-.3.2-.5.2h-.6c-.2 0-.3-.1-.5-.2-.1-.1-.3-.2-.4-.4-.1-.2-.2-.3-.2-.5v-.6c0-.2.1-.4.2-.5.1-.2.2-.3.4-.4.2-.1.3-.2.5-.2h.6c.2 0 .4.2.5.3l-.1-.4.5-.1.5 2.6v.6c0 .2-.1.4-.2.5-.1.2-.2.3-.4.4-.2.1-.4.2-.7.3h-.7c-.3 0-.5-.1-.7-.3l.3-.3zm-.2-1.9c0 .1.1.2.1.4s.1.2.2.3c.1.1.2.1.3.2h.4c.1 0 .3-.1.4-.1l.3-.3c.1-.1.1-.2.1-.3v-.4c0-.1-.1-.3-.1-.4-.1-.1-.1-.2-.2-.3-.1-.1-.2-.1-.3-.2h-.4c-.1 0-.3.1-.4.1-.1.1-.2.2-.2.3-.1.1-.1.2-.1.3-.1.2-.1.3-.1.4zm2.9-3.3l1.2-.2c.2 0 .4-.1.6 0 .2 0 .4.1.5.1.1.1.3.2.4.3.1.1.2.3.2.5v.5c0 .2-.1.3-.2.4-.1.1-.3.2-.4.3-.2.1-.4.1-.6.2l-.6.1.3 1.8-.6.1-.8-4.1zm.9 1.7l.6-.1c.1 0 .3-.1.4-.1.1 0 .2-.1.3-.2l.2-.2v-.3c0-.1-.1-.2-.1-.3l-.2-.2c-.1 0-.2-.1-.3-.1h-.4l-.6.1.1 1.4zm4.1 3.1l-.5.1-.7-4.1.5-.1.1.4c.1-.2.2-.3.3-.4.2-.1.3-.2.6-.2h.6c.2 0 .3.1.5.2.1.1.3.2.4.4.1.2.2.3.2.5v.6c0 .2-.1.4-.2.5-.1.2-.2.3-.4.4-.2.1-.3.2-.5.2h-.6c-.2-.1-.3-.1-.5-.3l.2 1.8zm1.3-3.1c0-.1-.1-.2-.1-.4-.1-.1-.1-.2-.2-.3-.1-.1-.2-.1-.3-.2h-.4c-.1 0-.3.1-.4.1l-.3.3c-.1.1-.1.2-.1.4v.4c0 .1.1.3.1.4.1.1.1.2.2.3.1.1.2.1.3.2h.4c.2 0 .3-.1.4-.2.1-.1.2-.2.2-.3.1-.1.1-.2.1-.3.2-.2.2-.3.1-.4zm1-3l.6-.1.3 1.7 2.1-.4-.3-1.7.6-.1.7 4.1-.6.1-.3-1.9-2.1.4.3 1.9-.6.1-.7-4.1zm7.2 2.5c-.1.2-.2.3-.4.5-.2.1-.3.2-.5.2h-.6c-.2 0-.3-.1-.5-.2-.1-.1-.3-.2-.4-.4-.1-.2-.2-.3-.2-.5v-.6c0-.2.1-.4.2-.5.1-.2.2-.3.4-.4.2-.1.3-.2.5-.2h.6c.2.1.3.2.5.3l-.4-2 .5-.1.8 4.4-.5.1v-.6zm-2-.6c0 .1.1.2.1.4.1.1.1.2.2.3.1.1.2.1.3.2h.4c.1 0 .3-.1.4-.1l.3-.3c.1-.1.1-.2.1-.3v-.4c0-.1-.1-.3-.1-.4-.1-.1-.1-.2-.2-.3-.1-.1-.2-.1-.3-.2h-.4c-.2 0-.3.1-.4.2-.1.1-.2.2-.2.3-.1.1-.1.2-.1.3-.1 0-.1.1-.1.3zm4.6-.3l.4-3.4.6-.1 1.5 3.1.3-3.4.6-.1-.5 4.3-.6.1-1.6-3.1-.4 3.5-.6.1-1.9-3.9.6-.1 1.6 3zm5.4-.6l2.1-.4.1.5-2.7.5-.7-4.1 2.6-.5.1.5-2.1.4.2 1.2 1.9-.3.1.5-1.9.3.3 1.4zm-121.4 28l-1.2 2.1 1.6-.3.1.5-2.3.4-.1-.4 1.2-2.1-1.5.3-.1-.4 2.2-.4.1.3zm3-1.9l-1 3.9-.6.1 1.1-3.9-2 .4-.1-.5 2.6-.5v.5zm2.9 1.5c-.1 0-.1.1-.2.1h-.7c-.2 0-.3-.1-.5-.2-.1-.1-.2-.2-.3-.4-.1-.1-.2-.3-.2-.5v-.6c0-.2.1-.3.2-.5.1-.1.2-.3.4-.4.2-.1.3-.2.5-.2h.6c.2 0 .4.1.5.2.1.1.3.2.4.4.1.2.2.3.2.5v.6c0 .2-.1.4-.2.6l-.8 1.9-.7.1.8-1.6zm.2-1.3c0-.1-.1-.2-.1-.3-.1-.1-.1-.2-.2-.2-.1-.1-.2-.1-.3-.1h-.4c-.1 0-.2.1-.3.1-.1.1-.2.1-.2.2-.1.1-.1.2-.1.3v.4c0 .1.1.2.1.3.1.1.1.2.2.2.1.1.2.1.3.1h.4c.1 0 .2-.1.3-.1.1-.1.2-.1.2-.2.1-.1.1-.2.1-.3.1-.2.1-.3 0-.4zm4.4.8v.6c0 .2-.1.4-.2.5-.1.2-.2.3-.4.4-.2.1-.4.2-.6.2h-.6c-.2 0-.4-.1-.5-.2-.2-.1-.3-.2-.4-.4-.1-.2-.2-.4-.2-.6v-.6c0-.2.1-.4.2-.5.1-.2.2-.3.4-.4.2-.1.4-.2.6-.2h.6c.2 0 .4.1.5.2.2.1.3.2.4.4 0 .2.1.3.2.6zm-.6.1c0-.1-.1-.3-.1-.4s-.1-.2-.2-.3c-.1-.1-.2-.1-.3-.2h-.4c-.1 0-.3.1-.4.2-.1.1-.2.2-.2.3-.1.1-.1.2-.1.3v.4c0 .1.1.3.1.4.1.1.1.2.2.3.1.1.2.1.3.2h.4c.1 0 .3-.1.4-.2.1-.1.2-.2.2-.3.1-.1.1-.2.1-.3v-.4zm1.6-2.8c0 .1 0 .2-.1.3-.1.1-.1.1-.2.1s-.2 0-.3-.1l-.2-.2c0-.1 0-.2.1-.3.1-.1.1-.1.2-.1s.2 0 .3.1c.1.1.2.1.2.2zm-.4 4.9h.2c.1 0 .1 0 .2-.1l.1-.1v-.4l-.6-3.1.5-.1.6 3.1v.4c0 .1 0 .2-.1.4 0 .1-.1.2-.2.3-.1.1-.2.1-.4.2h-.4l.1-.6zm3-2.3l.4-3.4.6-.1 1.5 3.1.3-3.4.6-.1-.5 4.3-.6.1-1.6-3.1-.4 3.5-.6.1-1.9-3.9.6-.1 1.6 3zm4.8-2.9c0 .1 0 .1.1.2v.2c0-.1.1-.2.1-.2 0-.1.1-.1.2-.2l.2-.2c.1 0 .2-.1.3-.1h.5c.1 0 .3.1.4.2l.3.3c.1.1.1.3.1.4l.3 1.7-.5.1-.3-1.5c0-.1 0-.2-.1-.3 0-.1-.1-.2-.1-.2l-.2-.2h-.3c-.2 0-.4.2-.5.3-.1.2-.1.4-.1.7l.3 1.5-.5.1-.4-2.1c0-.1 0-.2-.1-.3 0-.1 0-.2-.1-.3l.4-.1zm2.7-1.9l1.2-.2c.2 0 .4-.1.6 0 .2 0 .4.1.5.1.1.1.3.2.4.3.1.1.2.3.2.5v.5c0 .2-.1.3-.2.4-.1.1-.3.2-.4.3-.2.1-.4.1-.6.2l-.6.1.3 1.8-.6.1-.8-4.1zm.9 1.8l.6-.1c.1 0 .3-.1.4-.1.1 0 .2-.1.3-.2l.2-.2v-.3c0-.1-.1-.2-.1-.3l-.2-.2c-.1 0-.2-.1-.3-.1h-.4l-.6.1.1 1.4zm3.8 1.2l.1.4-.5.1-.8-4.4.5-.1.4 2c.1-.2.2-.3.3-.4.1-.1.3-.2.6-.2h.6c.2 0 .3.1.5.2.1.1.3.2.4.4.1.2.2.3.2.5v.6c0 .2-.1.4-.2.5-.1.2-.2.3-.4.4-.2.1-.3.2-.6.2H63c-.2 0-.4-.1-.5-.2zm1.6-1.3c0-.1-.1-.2-.1-.4-.1-.1-.1-.2-.2-.3-.1-.1-.2-.1-.3-.2h-.4c-.1 0-.3.1-.4.1l-.3.3c-.1.1-.1.2-.1.4v.4c0 .1.1.3.1.4.1.1.1.2.2.3.1.1.2.1.3.2h.4c.2 0 .3-.1.4-.2.1-.1.2-.2.2-.3.1-.1.1-.2.1-.3.1-.1.1-.3.1-.4zm3.8.3c-.1.2-.2.3-.4.5-.2.1-.3.2-.5.2h-.6c-.2 0-.3-.1-.5-.2-.1-.1-.3-.2-.4-.4-.1-.2-.2-.3-.2-.5v-.6c0-.2.1-.4.2-.5.1-.2.2-.3.4-.4.2-.1.3-.2.5-.2h.6c.2.1.3.2.5.3l-.4-2 .5-.1.8 4.4-.5.1v-.6zm-2-.6c0 .1.1.2.1.4.1.1.1.2.2.3.1.1.2.1.3.2h.4c.1 0 .3-.1.4-.1l.3-.3c.1-.1.1-.2.1-.3v-.4c0-.1-.1-.3-.1-.4-.1-.1-.1-.2-.2-.3-.1-.1-.2-.1-.3-.2h-.4c-.2 0-.3.1-.4.2-.1.1-.2.2-.2.3-.1.1-.1.2-.1.3-.1 0-.1.2-.1.3zm6.2-3.1c-.1-.1-.3-.2-.5-.2h-.7c-.2 0-.4.1-.6.2-.2.1-.3.3-.4.4-.1.2-.2.4-.2.6v.7c0 .2.1.4.2.6.1.2.2.3.4.5.2.1.3.2.6.3.2 0 .4.1.7 0 .2 0 .4-.1.5-.1.2-.1.3-.1.4-.2l-.2-1.1-.9.2-.1-.5 1.5-.3.4 2c-.2.2-.4.3-.7.4-.2.1-.5.2-.8.2-.3.1-.6.1-.9 0-.3-.1-.5-.2-.8-.3l-.6-.6c-.2-.2-.3-.5-.3-.8-.1-.3-.1-.6 0-.9.1-.3.2-.5.3-.8l.6-.6c.2-.2.5-.3.8-.3.3-.1.6-.1.9 0 .3.1.5.1.7.3l-.3.3z"/><circle cx="144.8" cy="31.2" r="6.8" stroke="#f59122" fill="#ffe5ca" stroke-miterlimit="10"/><path d="M139 34.9c-2 2.6-3.1 4.7-2.6 5.1.8.8 5.2-2.6 9.9-7.5s7.8-9.5 7-10.2c-.5-.5-2.5.7-5.1 2.9" opacity=".4" stroke="#f59122" fill="none" stroke-miterlimit="10"/></svg>