<svg xmlns="http://www.w3.org/2000/svg" viewBox="-16.4 0 133.2 101.4"><circle cx="50.95" cy="50.7" r="50.7" fill="#e0f2f3"/><path d="M84.15 56.1h-67.1a1 1 0 01-1-1V22.3a1 1 0 011-1h67.1a1.08 1.08 0 011 1v32.8a.94.94 0 01-1 1z" fill="#063b54"/><path d="M100.55 88.5V94a1.13 1.13 0 01-1.1 1.2H2.35a1.2 1.2 0 01-1.1-1.2v-5.5" fill="#d3d5db" stroke="#d3d5db" stroke-linejoin="round"/><path d="M89.85 15h-78.4a1.2 1.2 0 00-1.1 1.2V63h80.7V16.3a1.39 1.39 0 00-1.2-1.3zm-3.5 42.8c-.7.7-7.1 1-8.9 1-5.2 0-23.2-.5-23.7-.5h-9.6c-.6 0-27.3.6-28.1-.1a6.13 6.13 0 01-1.2-4c0-.4-.5-31.5.1-32.1a9 9 0 015.1-2c.7-.1 1.4-.1 2.2-.2 7.1-.5 49.6-.5 55.5-.4 10.6.3 8.6 2.1 8.3 8.5-.3 8 1.3 28.8.3 29.8zm14.2 26.5l-9-19.9a1.13 1.13 0 00-1.1-1.2h-79.6a1.2 1.2 0 00-1.1 1.2l-8.5 19.9v4.4a1.13 1.13 0 001.1 1.2h97.1a1.2 1.2 0 001.1-1.2v-4.1h-.1a.37.37 0 00.1-.3zM65 79.5l-.3.3a1.37 1.37 0 01-1.1.8h-.3a11.58 11.58 0 01-3.2.3c-3.4.1-6.8-.1-10.3-.3-4.9.9-9.7 1.8-14.5-.1a1.26 1.26 0 01-.9-1.5c.1-.4.3-.9.5-1.6a6.23 6.23 0 011-3.4 1.09 1.09 0 00.1-.5 1.38 1.38 0 012.1-1 12.92 12.92 0 014.6-.4c4.2.1 8.3.6 12.5.3 2.2-.1 4.7-.6 6.8.2 2.55 1 5.05 4.3 3 6.9z" fill="#fff"/><path d="M100.55 84.3v5.5a1.13 1.13 0 01-1.1 1.2H2.35a1.2 1.2 0 01-1.1-1.2v-5.5" fill="#fff" stroke="#6acad1" stroke-linejoin="round" stroke-width="2.5"/><path d="M21.25 36.6h-3.6a4 4 0 01-4-4v-.3a4 4 0 014-4h3.6a4 4 0 014 4v.3a4 4 0 01-4 4zm63 0h-3.6a4 4 0 01-4-4v-.3a4 4 0 014-4h3.6a4 4 0 014 4v.3a4 4 0 01-4 4zM37 36.6h-3.7a4 4 0 01-4-4v-.3a4 4 0 014-4h3.6a4 4 0 014 4v.3a3.87 3.87 0 01-3.9 4z" fill="none" stroke="#f05135" stroke-miterlimit="10" stroke-width="2"/><path d="M32.65 33.9h-10.9a1.1 1.1 0 110-2.2h10.9a1.1 1.1 0 110 2.2zm15.6 0h-11a1.1 1.1 0 110-2.2h11a1.11 1.11 0 011.1 1.1 1.18 1.18 0 01-1.1 1.1zm15.7 0h-10.9a1.1 1.1 0 110-2.2H64a1.1 1.1 0 010 2.2zm15.8 0h-10.9a1.1 1.1 0 110-2.2h10.9a1.1 1.1 0 010 2.2z" fill="#f05135"/><path d="M52.45 36.6h-3.6a4 4 0 01-4-4v-.3a4 4 0 014-4h3.6a4 4 0 014 4v.3a4 4 0 01-4 4zm15.7 0h-3.6a4 4 0 01-4-4v-.3a4 4 0 014-4h3.6a4 4 0 014 4v.3a4 4 0 01-4 4zm7.9 13.4h-3.6a4 4 0 01-4-4v-.3a4 4 0 014-4h3.6a4 4 0 014 4v.3a4 4 0 01-4 4zm-47.3 0h-3.6a4 4 0 01-4-4v-.3a4 4 0 014-4h3.6a4 4 0 014 4v.3a4 4 0 01-4 4z" fill="none" stroke="#f05135" stroke-miterlimit="10" stroke-width="2"/><path d="M24.45 47.3h-10.9a1.1 1.1 0 110-2.2h10.9a1.1 1.1 0 010 2.2zm15.6 0h-11a1.1 1.1 0 010-2.2H40a1.11 1.11 0 011.1 1.1 1 1 0 01-1.05 1.1zm15.7 0h-10.9a1.1 1.1 0 010-2.2h10.9a1.1 1.1 0 010 2.2zm15.8 0h-10.9a1.1 1.1 0 010-2.2h10.9a1.1 1.1 0 110 2.2zm17.1 0h-11a1.1 1.1 0 110-2.2h10.9a1.11 1.11 0 011.1 1.1 1.1 1.1 0 01-1 1.1z" fill="#f05135"/><path d="M44.25 50h-3.6a4 4 0 01-4-4v-.3a4 4 0 014-4h3.6a4 4 0 014 4v.3a4 4 0 01-4 4zM60 50h-3.7a4 4 0 01-4-4v-.3a4 4 0 014-4h3.6a4 4 0 014 4v.3a3.87 3.87 0 01-3.9 4z" fill="none" stroke="#f05135" stroke-miterlimit="10" stroke-width="2"/><path d="M99.45 85.5H2.35a1.13 1.13 0 01-1.1-1.2l8.5-19.9a1.13 1.13 0 011.1-1.2h79.6a1.2 1.2 0 011.1 1.2l9 19.9a1.13 1.13 0 01-1.1 1.2zM89.85 15h-78.4a1.2 1.2 0 00-1.1 1.2V63h80.7V16.3a1.39 1.39 0 00-1.2-1.3zm-4.7 39.7a2.33 2.33 0 01-2.3 2.3h-64.4a2.33 2.33 0 01-2.3-2.3V23.3a2.33 2.33 0 012.3-2.3h64.4a2.33 2.33 0 012.3 2.3z" fill="#fff" stroke="#6acad1" stroke-linejoin="round" stroke-width="2.5"/><path d="M64.75 80.2h-30.1c-.5 0-1-.7-1-1.6l1.4-6c0-.9.4-1.6 1-1.6h27.2c.5 0 1 .7 1 1.6l1.4 6c.1.9-.4 1.6-.9 1.6z" fill="#e0f2f3" stroke="#6acad1" stroke-miterlimit="10" stroke-width="2.5"/></svg>