<svg xmlns="http://www.w3.org/2000/svg" width="127.6" height="101.4"><style>.st0{fill:#f05135}.st21{fill:#d3d5db}.st25{stroke:#063b54;stroke-miterlimit:10;stroke-linejoin:round;fill:#083b54;stroke-width:.5}</style><circle cx="64" cy="50.7" r="50.7" id="Layer_3" fill="#e0f2f3"/><g id="stuffs"><path d="M126.3 83.1l-22.3-40H24l-22.3 40z" stroke="#d3d5db" stroke-miterlimit="10" fill="#d3d5db" stroke-linejoin="round"/><path d="M126.3 79.1l-23.3-40H25l-23.3 40z" stroke="#6acad1" stroke-miterlimit="10" fill="#fff" stroke-width="2.5" stroke-linejoin="round"/><circle class="st0" cx="29.1" cy="63.3" r="2.6"/><circle class="st0" cx="40.7" cy="59.9" r="2.6"/><circle class="st0" cx="52.4" cy="54.5" r="2.6"/><circle class="st0" cx="64" cy="60.7" r="2.6"/><circle class="st0" cx="75.6" cy="57.1" r="2.6"/><circle class="st0" cx="87.3" cy="60.7" r="2.6"/><circle class="st0" cx="98.9" cy="58.1" r="2.6"/><path d="M29.1 63.3l11.6-3.4 11.7-5.4L64 60.7l11.6-3.6 11.7 3.6 11.6-2.6" fill="none" stroke="#f05135" stroke-miterlimit="10"/><ellipse class="st21" cx="29.1" cy="71.1" rx="2.6" ry="1.4"/><ellipse class="st21" cx="40.7" cy="69.2" rx="2.6" ry="1.4"/><ellipse class="st21" cx="52.4" cy="66.2" rx="2.6" ry="1.4"/><ellipse class="st21" cx="64" cy="69.7" rx="2.6" ry="1.4"/><ellipse class="st21" cx="75.6" cy="67.7" rx="2.6" ry="1.4"/><ellipse class="st21" cx="87.3" cy="69.7" rx="2.6" ry="1.4"/><ellipse class="st21" cx="98.9" cy="68.2" rx="2.6" ry="1.4"/><path d="M29.1 71.1l11.6-1.9 11.7-3L64 69.7l11.6-2 11.7 2 11.6-1.5" stroke="#d3d5db" stroke-width=".5" fill="none" stroke-miterlimit="10"/><circle class="st25" cx="36.4" cy="47.5" r="2.1"/><circle class="st25" cx="46.1" cy="42.6" r="2.1"/><circle class="st25" cx="55.8" cy="33.1" r="2.1"/><circle class="st25" cx="65.4" cy="42.6" r="2.1"/><circle class="st25" cx="75.1" cy="44" r="2.1"/><circle class="st25" cx="84.8" cy="37.4" r="2.1"/><circle class="st25" cx="94.4" cy="45.4" r="2.1"/><path d="M36.4 47.5l9.7-4.9 9.7-9.5 9.6 9.5 9.7 1.4 9.7-6.6 9.6 8" fill="none" stroke-width=".7" stroke-miterlimit="10" stroke="#063b54"/><ellipse class="st21" cx="36.4" cy="51.9" rx="2.1" ry="1"/><ellipse class="st21" cx="46.1" cy="49.6" rx="2.1" ry="1"/><ellipse class="st21" cx="55.8" cy="44.8" rx="2.1" ry="1"/><ellipse class="st21" cx="65.4" cy="49.6" rx="2.1" ry="1"/><ellipse class="st21" cx="75.1" cy="50.2" rx="2.1" ry="1"/><ellipse class="st21" cx="84.8" cy="47.2" rx="2.1" ry="1"/><ellipse class="st21" cx="94.4" cy="50.9" rx="2.1" ry="1"/><path d="M36.4 51.9l9.7-2.3 9.7-4.8 9.6 4.8 9.7.6 9.7-3 9.6 3.7" stroke="#d3d5db" stroke-width=".3" fill="none" stroke-miterlimit="10"/></g></svg>