<svg xmlns="http://www.w3.org/2000/svg" viewBox="0 0 140.2 101.4"><circle cx="70.05" cy="50.7" r="50.7" fill="#e0f2f3"/><path d="M139 83.4c-4.4-7.3-24.6-44.2-24.9-44.5-.1-.1-22.6-7.9-22.6-7.9S70.15 38.3 70 38.3c-3.8-.7-23.3-6.9-23.3-6.9s-23 6.1-23.1 6.2c-.4.1-21.8 44.5-22.3 46.1-.1.3 34.3-4.3 34.3-4.3s28.1 3.7 33.8 4.1c.2 0 34-6.3 34-6.3s35.7 6.4 35.6 6.2z" fill="#d3d5db"/><path d="M139 79.6c-4.4-7.3-24.6-44.2-24.9-44.5-.1-.1-22.6-7.9-22.6-7.9S70.15 34.5 70 34.5c-3.8-.7-23.3-6.9-23.3-6.9s-23 6.1-23.1 6.2c-.4.1-21.8 44.5-22.3 46.1-.1.3 34.3-7.3 34.3-7.3s28.1 6.7 33.8 7.1c.2 0 34-9.3 34-9.3s35.7 9.4 35.6 9.2z" fill="#e0f2f3"/><path d="M91.45 27.2L70 34.5l-.5 45.3 34-9.3zm-44.8.4s-23 6.1-23.1 6.2c-.4.1-21.8 44.5-22.3 46.1-.1.3 34.3-7.3 34.3-7.3z" fill="#fff"/><path d="M139 79.6c-4.4-7.3-24.6-44.2-24.9-44.5-.1-.1-22.6-7.9-22.6-7.9S70.15 34.5 70 34.5c-3.8-.7-23.3-6.9-23.3-6.9s-23 6.1-23.1 6.2c-.4.1-21.8 44.5-22.3 46.1-.1.3 34.3-7.3 34.3-7.3s28.1 6.7 33.8 7.1c.2 0 34-9.3 34-9.3s35.7 9.4 35.6 9.2z" fill="none" stroke="#6acad1" stroke-miterlimit="10" stroke-width="2.5"/><path d="M108.55 54.2c-2.3 0-3.3 1.1-2.4 2.6s6.3 4.2 6.8 4.2 2.3-2.7 1.4-4.2-3.6-2.6-5.8-2.6zm1.6 2.5a2.54 2.54 0 01-1.8-.8c-.3-.4.1-.8.8-.8a2.54 2.54 0 011.8.8c.3.5-.1.8-.8.8zM30.85 42c-2.3 0-3.3 1.1-2.4 2.6s6.3 4.2 6.8 4.2 2.3-2.7 1.4-4.2-3.6-2.6-5.8-2.6zm1.6 2.6a2.54 2.54 0 01-1.8-.8c-.3-.4.1-.8.8-.8a2.54 2.54 0 011.8.8c.3.4-.1.8-.8.8zm23 17.7c-2.3 0-3.3 1.1-2.4 2.6s6.3 4.2 6.8 4.2 2.3-2.7 1.4-4.2a7.92 7.92 0 00-5.8-2.6zm1.6 2.6a2.54 2.54 0 01-1.8-.8c-.3-.4.1-.8.8-.8a2.54 2.54 0 011.8.8c.3.4 0 .8-.8.8z" fill="#d3d5db"/><path d="M35.25 35.3a5.12 5.12 0 00-5.1 5.1c0 2.8 4.5 8.3 5.1 8.3s5.1-5.5 5.1-8.3a5.12 5.12 0 00-5.1-5.1zm0 5.1a1.6 1.6 0 111.6-1.6 1.58 1.58 0 01-1.6 1.6zm24.6 15.2a5.12 5.12 0 00-5.1 5.1c0 2.8 4.5 8.3 5.1 8.3S65 63.5 65 60.7a5.12 5.12 0 00-5.15-5.1zm0 5.1a1.6 1.6 0 111.6-1.6 1.58 1.58 0 01-1.6 1.6zm53.4-13.4a5.12 5.12 0 00-5.1 5.1c0 2.8 4.5 8.3 5.1 8.3s5.1-5.5 5.1-8.3a5.12 5.12 0 00-5.1-5.1zm0 5.1a1.6 1.6 0 111.6-1.6 1.58 1.58 0 01-1.6 1.6z" fill="#083b54"/><path d="M82.65 34.6c-1.2-1.8-4.2-3.2-7.1-3.6a5 5 0 01-.5 1.3h.3A3.5 3.5 0 0178 33.4c.4.6-.1 1.1-1.1 1.1A4.49 4.49 0 0175 34l-3.5 1.1c2.2 2.1 8.5 5.3 9.2 5.3.65.2 3.3-3.8 1.95-5.8z" fill="#d3d5db"/><path d="M81.15 19.9a7.81 7.81 0 00-7.8 7.8c0 4.3 6.8 12.7 7.8 12.7S89 32 89 27.7a7.94 7.94 0 00-7.85-7.8zm0 7.8a2.4 2.4 0 112.4-2.4 2.43 2.43 0 01-2.4 2.4z" fill="#f05135"/></svg>