<svg xmlns="http://www.w3.org/2000/svg" viewBox="-16.4 -16 133.2 131.4"><circle cx="56.19" cy="50.68" r="50.19" fill="#e0f2f3"/><path d="M109.05 97.3H4.22a3 3 0 01-3-3v-5.9l12.9-28.12a2.92 2.92 0 013-3h79.06a2.92 2.92 0 013 3L112 88.4v5.93a3 3 0 01-2.95 2.97z" fill="#d3d5db" stroke="#d3d5db" stroke-linejoin="round"/><path d="M109.05 93.34H4.22a3 3 0 01-3-3v-5.9l12.9-28.12a2.92 2.92 0 013-3h79.06a2.92 2.92 0 013 3L112 84.44v5.94a3 3 0 01-2.95 2.96z" fill="#fff" stroke="#6acad1" stroke-linejoin="round" stroke-width="2.5"/><path d="M109.05 87.41H4.22a3 3 0 01-3-3l12.9-34.03a2.92 2.92 0 013-3h79.06a2.92 2.92 0 013 3L112 84.44a3 3 0 01-2.95 2.97z" fill="#e0f2f3" stroke="#6acad1" stroke-miterlimit="10" stroke-width="2.5"/><path d="M89.74 81.86H11a2.3 2.3 0 01-2.28-2.27L18.37 54a2.3 2.3 0 012.28-2.28h62.46A2.3 2.3 0 0185.39 54l6.73 25.64a2.46 2.46 0 01-2.38 2.22z" fill="#fff" stroke="#6acad1" stroke-linejoin="round" stroke-width="2.5"/><ellipse cx="96.97" cy="66.42" rx="3.27" ry="2.57" fill="#6acad1"/><ellipse cx="28.27" cy="63.85" rx="5.94" ry="2.77" fill="#d3d5db" stroke="#d3d5db" stroke-linejoin="round"/><ellipse cx="44.61" cy="60.78" rx="5.94" ry="2.77" fill="#d3d5db" stroke="#d3d5db" stroke-linejoin="round"/><path d="M28.27 63.85V34.94" fill="none" stroke="#063b54" stroke-miterlimit="10" stroke-width="2.5"/><circle cx="28.27" cy="33.16" r="8.81" fill="#f05135"/><path d="M49 59.69c0 1.48-2 2.67-4.35 2.67s-4.36-1.19-4.36-2.67V58.2a17.75 17.75 0 014.36-1.08A14.4 14.4 0 0149 58.2z" fill="#f05135"/><ellipse cx="44.61" cy="58.2" rx="4.36" ry="2.67" fill="#f05135"/><ellipse cx="53.22" cy="68.6" rx="5.94" ry="2.77" fill="#d3d5db" stroke="#d3d5db" stroke-linejoin="round"/><path d="M57.57 67.41c0 1.48-2 2.67-4.35 2.67s-4.36-1.19-4.36-2.67v-1.48a17.62 17.62 0 014.36-1.09 14.3 14.3 0 014.35 1.09z" fill="#083b54"/><ellipse cx="53.22" cy="65.93" rx="4.36" ry="2.67" fill="#083b54"/><path d="M60.94 23.76h25.54V41H60.94z" fill="#083b54"/><path d="M60.42 20.26l25.28-3.67.51 3.52-25.27 3.68z" fill="#083b54"/><path d="M67.18 22.27l-2.68.4-2-2.08 2.77-.4zm6.13-.89l-2.67.4-2-2.08 2.67-.4zm6.24-.89l-2.67.3-2-2 2.67-.4zm6.14-1L83 19.9l-2-2 2.68-.4zm-4.06 7.23h2.77l1.6-2.37h-2.69zm-6.14 0h2.67l1.59-2.38h-2.68zm-6.33 0h2.77l1.58-2.38h-2.67zm-6.14 0h2.67l1.58-2.38H64.6z" fill="#fff"/><ellipse cx="72.22" cy="57.31" rx="10.59" ry="1.29" fill="#d3d5db" stroke="#d3d5db" stroke-linejoin="round"/><path d="M45.2 8.71v8.91a3.75 3.75 0 00-1.88-.5c-1.58 0-2.77.9-2.77 1.89s1.28 1.88 2.77 1.88 2.77-.8 2.77-1.79v-8.81l6.53-1.78v6.83a3.82 3.82 0 00-1.88-.49c-1.58 0-2.77.89-2.77 1.88s1.29 1.88 2.77 1.88 2.78-.79 2.78-1.78V6.53zM38.17 0L35 .89V9.8a3.72 3.72 0 00-1.88-.5c-1.58 0-2.77.9-2.77 1.89s1.29 1.88 2.77 1.88 2.78-.8 2.78-1.79v-8.9l2.27-.6z" fill="#063b54"/><path d="M65.59 1.75l-3.17.89v8.91a3.72 3.72 0 00-1.88-.5c-1.58 0-2.77.89-2.77 1.88s1.29 1.89 2.77 1.89S63.31 14 63.31 13V4.12l2.28-.59z" fill="#f05135"/></svg>