<svg id="Layer_1" xmlns="http://www.w3.org/2000/svg" width="132" height="132"><style>.st22{fill:none;stroke:#6ac9d0;stroke-linejoin:round}.st22,.st35,.st37,.st41{stroke-width:2.5;stroke-miterlimit:10;stroke-linecap:round}.st35{stroke-linejoin:round;fill:#fff;stroke:#91d5d9}.st37,.st41{fill:none;stroke:#ef5034}.st41{stroke:#96d805}</style><path d="M9.6 1.7h61.3v82.1H9.6zm9.5 13.6h42.2M19.1 26.9h42.2M19.1 38.5h42.2M19.1 50.1h42.2M19.1 61.7h27.6" stroke-linecap="round" fill="#fff" stroke-linejoin="round" stroke="#c3e9ec" stroke-width="2.5" stroke-miterlimit="10"/><path class="st35" d="M35.4 24.9h61.3V107H35.4zm9.5 13.6h42.2M44.9 50.1h42.2"/><path class="st37" d="M70.4 50.1h10.5"/><path class="st35" d="M44.9 61.7h42.2M44.9 73.2h42.2M44.9 84.9h27.6"/><path d="M53.7 61.8h13.8" stroke-linecap="round" stroke="#f59685" fill="none" stroke-width="2.5" stroke-miterlimit="10"/><path d="M48.7 84.9h7.5" fill="none" stroke-width="2.5" stroke-miterlimit="10" stroke="#c0e869" stroke-linecap="round"/><g><path d="M70.7 108.1h42.2" stroke-width="2.5" stroke-miterlimit="10" fill="none" stroke="#f59122" stroke-linecap="round"/><path d="M61.1 48.1h61.3v82.1H61.1z" stroke-width="2.5" stroke-miterlimit="10" fill="#fff" stroke="#6ac9d0" stroke-linejoin="round" stroke-linecap="round"/><path class="st22" d="M70.7 61.7h42.2"/><path class="st41" d="M78 61.7h20.3"/><path class="st22" d="M70.7 73.3h42.2"/><path class="st41" d="M89.3 73.3h9"/><path class="st37" d="M96.2 73.3h10.5"/><path class="st22" d="M70.7 84.9h42.2M70.7 96.4h42.2"/><path class="st41" d="M93.4 96.4h13.8"/><path class="st22" d="M70.7 108.1h27.6"/><path class="st37" d="M78.4 96.4h13.8"/><path class="st41" d="M71.1 119.5h13.8m12.8-11.4h15.6"/></g></svg>