<svg xmlns="http://www.w3.org/2000/svg" width="115" height="108.5"><style>.st0{fill:#f05135}.st1{fill:#083b54}.st17,.st18{stroke-linejoin:round;stroke:#d3d5db;stroke-miterlimit:10;fill:#d3d5db}.st18{fill:#fff;stroke-width:2.5;stroke:#6acad1}</style><circle cx="57.1" cy="57.8" r="50.7" id="Layer_3" fill="#e0f2f3"/><g id="stuffs"><path class="st17" d="M110.5 104.9H4.6c-1.6 0-3-1.3-3-3v-6l13-28.4c0-1.7 1.3-3 3-3h79.9c1.7 0 3 1.3 3 3l13 28.4v6c0 1.6-1.3 3-3 3z"/><path class="st18" d="M110.5 100.9H4.6c-1.6 0-3-1.3-3-3v-6l13-28.4c0-1.7 1.3-3 3-3h79.9c1.7 0 3 1.3 3 3l13 28.4v6c0 1.6-1.3 3-3 3z"/><path d="M110.5 94.9H4.6c-1.6 0-3-1.3-3-3l13-34.4c0-1.7 1.3-3 3-3h79.9c1.7 0 3 1.3 3 3l13 34.4c0 1.6-1.3 3-3 3z" fill="#e0f2f3" stroke="#6acad1" stroke-width="2.5" stroke-miterlimit="10"/><path class="st18" d="M91 89.3H11.4c-1.2 0-2.3-1-2.3-2.3l9.8-25.9c0-1.2 1-2.3 2.3-2.3h63.1c1.2 0 2.3 1 2.3 2.3L93.4 87c-.1 1.3-1.2 2.3-2.4 2.3z"/><ellipse cx="98.3" cy="73.7" rx="3.3" ry="2.6" fill="#6acad1"/><ellipse class="st17" cx="28.9" cy="71.1" rx="6" ry="2.8"/><ellipse class="st17" cx="45.4" cy="68" rx="6" ry="2.8"/><path d="M28.9 71.1V41.9" stroke="#063b54" stroke-width="2.5" fill="none" stroke-miterlimit="10"/><circle class="st0" cx="28.9" cy="40.1" r="8.9"/><path class="st0" d="M49.8 66.9c0 1.5-2 2.7-4.4 2.7-2.4 0-4.4-1.2-4.4-2.7v-1.5s2.9-1.1 4.4-1.1c1.8 0 4.4 1.1 4.4 1.1v1.5z"/><ellipse class="st0" cx="45.4" cy="65.4" rx="4.4" ry="2.7"/><ellipse class="st17" cx="54.1" cy="75.9" rx="6" ry="2.8"/><path class="st1" d="M58.5 74.7c0 1.5-2 2.7-4.4 2.7-2.4 0-4.4-1.2-4.4-2.7v-1.5s2.9-1.1 4.4-1.1c1.8 0 4.4 1.1 4.4 1.1v1.5z"/><ellipse class="st1" cx="54.1" cy="73.2" rx="4.4" ry="2.7"/><path class="st1" d="M61.9 30.6h25.8V48H61.9z"/><path transform="rotate(-8.27 74.363 26.978)" class="st1" d="M61.5 25.2h25.8v3.6H61.5z"/><path d="M68.2 29.1l-2.7.4-2-2.1 2.8-.4zm6.2-.9l-2.7.4-2-2.1 2.7-.4zm6.3-.9l-2.7.3-2-2 2.7-.4zm6.2-1l-2.7.4-2-2 2.7-.4zm-4.1 7.3h2.8l1.6-2.4h-2.7zm-6.2 0h2.7l1.6-2.4h-2.7zm-6.4 0H73l1.6-2.4h-2.7zm-6.2 0h2.7l1.6-2.4h-2.7z" fill="#fff"/><ellipse class="st17" cx="73.3" cy="64.5" rx="10.7" ry="1.3"/><path d="M46 15.4v9c-.5-.3-1.2-.5-1.9-.5-1.6 0-2.8.9-2.8 1.9 0 1 1.3 1.9 2.8 1.9 1.5 0 2.8-.8 2.8-1.8V17l6.6-1.8v6.9c-.5-.3-1.2-.5-1.9-.5-1.6 0-2.8.9-2.8 1.9s1.3 1.9 2.8 1.9c1.5 0 2.8-.8 2.8-1.8V13.2L46 15.4zm-7.1-8.8l-3.2.9v9c-.5-.3-1.2-.5-1.9-.5-1.6 0-2.8.9-2.8 1.9s1.3 1.9 2.8 1.9c1.5 0 2.8-.8 2.8-1.8V9l2.3-.6V6.6z" fill="#063b54"/><path class="st0" d="M66.6 0l-3.2.9v9c-.5-.3-1.2-.5-1.9-.5-1.6 0-2.8.9-2.8 1.9s1.3 1.9 2.8 1.9c1.5 0 2.8-.8 2.8-1.8v-9l2.3-.6V0z"/></g></svg>