<svg xmlns="http://www.w3.org/2000/svg" viewBox="0 -16 101.4 131.4"><circle cx="50.7" cy="50.7" r="50.7" fill="#e0f2f3"/><path d="M84.1 80.6c-4.3 1-8.6 2.5-13 3-4.7.5-9.4.1-14.1.4-10.5.6-20.5 1-30.9-1.1a52.21 52.21 0 01-13.4-4.2 26.31 26.31 0 01-2.6-1.6h-.2c-2.9-.6-6.3-1.4-8.8-3.3 0 .7-.1 1.5-.1 2.2 0 5.4 25.6 13.6 49.9 13.6s49.5-7.8 49.5-14.1c0-1.4-.1-2.8-.2-4.3a32.25 32.25 0 01-16.1 9.4z" fill="#d3d5db"/><ellipse cx="50.6" cy="68.4" rx="44.2" ry="11.8" fill="#fff" stroke="#6acad1" stroke-miterlimit="10" stroke-width="2.5"/><path d="M99.3 71.8c0 6.3-24.1 13.3-48.4 13.3s-49-7.3-49-12.7c0-19.3 13.8-46.9 48.7-46.9s48.7 27 48.7 46.3z" fill="none" stroke="#6acad1" stroke-miterlimit="10" stroke-width="2.5"/><circle cx="50.6" cy="21.3" r="3.5" fill="#fff" stroke="#6acad1" stroke-miterlimit="10" stroke-width="2.5"/><path d="M50.7 37.9l3.7 7.5 8.3 1.2-6 5.9 1.4 8.2-7.4-3.9-7.4 3.9 1.4-8.2-6-5.9 8.3-1.2z" fill="#083b54" stroke="#063b54" stroke-linejoin="round"/><ellipse cx="50.7" cy="69.3" rx="12.4" ry="1.9" fill="#d3d5db"/><path d="M27.3 36.7C19.2 42 16.7 50 17.4 51.1s4.3-5.5 12.5-10.9 17.9-7.4 17.1-8.5-11.5-.4-19.7 5z" fill="#fff"/></svg>