<svg xmlns="http://www.w3.org/2000/svg" width="133.5" height="101.4"><style>.st14{stroke-width:2.5;stroke-miterlimit:10;fill:#fff;stroke:#6acad1}.st21{fill:#d3d5db}</style><circle cx="66.8" cy="50.7" r="50.7" id="Layer_3" fill="#e0f2f3"/><g id="stuffs"><path class="st21" d="M1.6 76.6v5.3c0 .5.6 1 1.3 1l54.1-.3c0 .7.6 1.3 1.3 1.3h17.3c.7 0 1.3-.6 1.3-1.3l54.1.3c.7 0 1.3-.4 1.3-1v-5.3"/><path class="st14" d="M1.6 72.6v5.3c0 .5.6 1 1.3 1L59 77.6v1c0 .7.6 1.3 1.3 1.3h13.3c.7 0 1.3-.6 1.3-1.3v-1l56.1 1.3c.7 0 1.3-.4 1.3-1v-5.3"/><path d="M119.4 28.4c0-.5-.6-1-1.3-1H14.2c-.7 0-1.3.4-1.3 1L1.6 72.6c0 .5.6 1 1.3 1L59 72.3v1c0 .7.6 1.3 1.3 1.3h13.3c.7 0 1.3-.6 1.3-1.3v-1l56.1 1.3c.7 0 1.3-.4 1.3-1l-12.9-44.2z" fill="#e0f2f3" stroke="#6acad1" stroke-width="2.5" stroke-miterlimit="10"/><path class="st14" d="M65.8 68.8s-9.1-.5-18.7-.5-30.4 1.8-30.4 1.8c-.5 0-1-.6-1-1.3l12.5-36.2c0-.7.4-1.3 1-1.3 0 0 11.7-5.7 23.2-5.7s14.4 6.3 14.4 7v35c0 .6-.4 1.2-1 1.2z"/><path class="st14" d="M65.5 68.2s-8.6-4.5-21.3-4.5-35.8 5.7-35.8 5.7c-.7 0-1.3-.6-1.3-1.3l9.1-36.2c0-.7.6-1.3 1.3-1.3 0 0 15.3-7.4 30.4-7.4s18.9 8 18.9 8.7v35c0 .7-.6 1.3-1.3 1.3zm2.3.6l49.2 1.3c.5 0 1-.6 1-1.3l-12.5-36.2c0-.7-.4-1.3-1-1.3 0 0-11.7-5.7-23.2-5.7s-14.4 6.3-14.4 7v35c-.1.6.3 1.2.9 1.2z"/><path class="st14" d="M68.1 68.2s8.6-3.8 21.3-3.8 35.8 5.1 35.8 5.1c.7 0 1.3-.6 1.3-1.3L117.4 32c0-.7-.6-1.3-1.3-1.3 0 0-15.3-7.4-30.4-7.4s-18.9 8-18.9 8.7v35c0 .6.6 1.2 1.3 1.2z"/><ellipse class="st21" cx="41.2" cy="48.9" rx="12.9" ry="4.9"/><ellipse class="st21" cx="93.1" cy="49.9" rx="5.5" ry="2.3"/><circle cx="41.2" cy="34.6" r="15" fill="#083b54"/><circle cx="93.1" cy="36.7" r="7.5" fill="#f05135"/><path d="M102.8 33.2c-1-.1-2-.2-3.2-.2.2.3.3.7.5 1 .9 0 1.8.1 2.6.2 3 .4 3.7 1 3.7 1.2 0 .2-.6 1-3.5 1.8-2.5.7-5.9 1.3-9.5 1.6-8.5.7-13.3-.4-13.3-1.2 0-.5 1.9-1.5 5.7-2.4.1-.4.2-.7.3-1.1-3.7.8-7.1 1.9-7 3.5.2 1.8 4.8 2.3 9.2 2.3 1.9 0 3.7-.1 5.2-.2 3.7-.3 7.1-.9 9.7-1.6 2.9-.9 4.3-1.8 4.2-2.8-.1-1-1.6-1.7-4.6-2.1z" fill="#f59223"/></g></svg>