<svg xmlns="http://www.w3.org/2000/svg" width="140.9" height="101.4"><style>.st16{fill:#e0f2f3}.st21{fill:#d3d5db}</style><circle class="st16" cx="70.4" cy="50.7" r="50.7" id="Layer_3"/><g id="stuffs"><path class="st21" d="M139.3 83.4c-4.4-7.3-24.6-44.2-24.9-44.5-.1-.1-22.6-7.9-22.6-7.9s-21.3 7.3-21.5 7.3c-3.8-.7-23.3-6.9-23.3-6.9s-23 6.1-23.1 6.2c-.4.1-21.8 44.5-22.3 46.1-.1.3 34.3-4.3 34.3-4.3s28.1 3.7 33.8 4.1c.2 0 34-6.3 34-6.3s35.7 6.4 35.6 6.2z"/><path class="st16" d="M139.3 79.6c-4.4-7.3-24.6-44.2-24.9-44.5-.1-.1-22.6-7.9-22.6-7.9s-21.3 7.3-21.5 7.3c-3.8-.7-23.3-6.9-23.3-6.9s-23 6.1-23.1 6.2c-.4.1-21.8 44.5-22.3 46.1-.1.3 34.3-7.3 34.3-7.3s28.1 6.7 33.8 7.1c.2 0 34-9.3 34-9.3s35.7 9.4 35.6 9.2z"/><path d="M91.8 27.2l-21.5 7.3-.5 45.3 34-9.3-12-43.3zm-44.8.4s-23 6.1-23.1 6.2c-.4.1-21.8 44.5-22.3 46.1-.1.3 34.3-7.3 34.3-7.3l11.1-45z" fill="#fff"/><path d="M139.3 79.6c-4.4-7.3-24.6-44.2-24.9-44.5-.1-.1-22.6-7.9-22.6-7.9s-21.3 7.3-21.5 7.3c-3.8-.7-23.3-6.9-23.3-6.9s-23 6.1-23.1 6.2c-.4.1-21.8 44.5-22.3 46.1-.1.3 34.3-7.3 34.3-7.3s28.1 6.7 33.8 7.1c.2 0 34-9.3 34-9.3s35.7 9.4 35.6 9.2z" stroke="#6acad1" stroke-width="2.5" stroke-miterlimit="10" fill="none"/><path class="st21" d="M108.9 54.2c-2.3 0-3.3 1.1-2.4 2.6.9 1.4 6.3 4.2 6.8 4.2s2.3-2.7 1.4-4.2c-1-1.5-3.6-2.6-5.8-2.6zm1.6 2.5c-.7 0-1.5-.4-1.8-.8-.3-.4.1-.8.8-.8.7 0 1.5.4 1.8.8.3.5-.1.8-.8.8zM31.2 42c-2.3 0-3.3 1.1-2.4 2.6.9 1.4 6.3 4.2 6.8 4.2s2.3-2.7 1.4-4.2c-1-1.5-3.6-2.6-5.8-2.6zm1.6 2.6c-.7 0-1.5-.4-1.8-.8-.3-.4.1-.8.8-.8.7 0 1.5.4 1.8.8.3.4-.1.8-.8.8zm23 17.7c-2.3 0-3.3 1.1-2.4 2.6.9 1.4 6.3 4.2 6.8 4.2s2.3-2.7 1.4-4.2c-1-1.4-3.6-2.6-5.8-2.6zm1.6 2.6c-.7 0-1.5-.4-1.8-.8-.3-.4.1-.8.8-.8.7 0 1.5.4 1.8.8.3.4 0 .8-.8.8z"/><path d="M35.6 35.3c-2.8 0-5.1 2.3-5.1 5.1s4.5 8.3 5.1 8.3c.6 0 5.1-5.5 5.1-8.3 0-2.8-2.3-5.1-5.1-5.1zm0 5.1c-.9 0-1.6-.7-1.6-1.6 0-.9.7-1.6 1.6-1.6.9 0 1.6.7 1.6 1.6 0 .9-.7 1.6-1.6 1.6zm24.6 15.2c-2.8 0-5.1 2.3-5.1 5.1s4.5 8.3 5.1 8.3c.6 0 5.1-5.5 5.1-8.3 0-2.8-2.3-5.1-5.1-5.1zm0 5.1c-.9 0-1.6-.7-1.6-1.6 0-.9.7-1.6 1.6-1.6.9 0 1.6.7 1.6 1.6 0 .9-.7 1.6-1.6 1.6zm53.4-13.4c-2.8 0-5.1 2.3-5.1 5.1s4.5 8.3 5.1 8.3c.6 0 5.1-5.5 5.1-8.3 0-2.8-2.3-5.1-5.1-5.1zm0 5.1c-.9 0-1.6-.7-1.6-1.6 0-.9.7-1.6 1.6-1.6.9 0 1.6.7 1.6 1.6 0 .9-.7 1.6-1.6 1.6z" fill="#083b54"/><path class="st21" d="M83 34.6c-1.2-1.8-4.2-3.2-7.1-3.6-.1.5-.3.9-.5 1.3h.3c1 0 2.2.5 2.6 1.1.4.6-.1 1.1-1.1 1.1-.6 0-1.3-.2-1.9-.5l-3.5 1.1c2.2 2.1 8.5 5.3 9.2 5.3.7.2 3.3-3.8 2-5.8z"/><path d="M81.5 19.9c-4.3 0-7.8 3.5-7.8 7.8s6.8 12.7 7.8 12.7c.9 0 7.8-8.4 7.8-12.7-.1-4.3-3.6-7.8-7.8-7.8zm0 7.8c-1.3 0-2.4-1.1-2.4-2.4 0-1.3 1.1-2.4 2.4-2.4 1.3 0 2.4 1.1 2.4 2.4 0 1.3-1.1 2.4-2.4 2.4z" fill="#f05135"/></g></svg>