<svg xmlns="http://www.w3.org/2000/svg" viewBox="0 0 127.1 101.4"><circle cx="63.55" cy="50.7" r="50.7" fill="#e0f2f3"/><path d="M125.85 83.1l-22.3-40h-80l-22.3 40z" fill="#d3d5db" stroke="#d3d5db" stroke-linejoin="round"/><path d="M125.85 79.1l-23.3-40h-78l-23.3 40z" fill="#fff" stroke="#6acad1" stroke-linejoin="round" stroke-width="2.5"/><circle cx="28.65" cy="63.3" r="2.6" fill="#f05135"/><circle cx="40.25" cy="59.9" r="2.6" fill="#f05135"/><circle cx="51.95" cy="54.5" r="2.6" fill="#f05135"/><circle cx="63.55" cy="60.7" r="2.6" fill="#f05135"/><circle cx="75.15" cy="57.1" r="2.6" fill="#f05135"/><circle cx="86.85" cy="60.7" r="2.6" fill="#f05135"/><circle cx="98.45" cy="58.1" r="2.6" fill="#f05135"/><path d="M28.65 63.3l11.6-3.4L52 54.5l11.6 6.2 11.6-3.6 11.7 3.6 11.6-2.6" fill="none" stroke="#f05135" stroke-miterlimit="10"/><ellipse cx="28.65" cy="71.1" rx="2.6" ry="1.4" fill="#d3d5db"/><ellipse cx="40.25" cy="69.2" rx="2.6" ry="1.4" fill="#d3d5db"/><ellipse cx="51.95" cy="66.2" rx="2.6" ry="1.4" fill="#d3d5db"/><ellipse cx="63.55" cy="69.7" rx="2.6" ry="1.4" fill="#d3d5db"/><ellipse cx="75.15" cy="67.7" rx="2.6" ry="1.4" fill="#d3d5db"/><ellipse cx="86.85" cy="69.7" rx="2.6" ry="1.4" fill="#d3d5db"/><ellipse cx="98.45" cy="68.2" rx="2.6" ry="1.4" fill="#d3d5db"/><path d="M28.65 71.1l11.6-1.9 11.7-3 11.6 3.5 11.6-2 11.7 2 11.6-1.5" fill="none" stroke="#d3d5db" stroke-miterlimit="10" stroke-width=".5"/><circle cx="35.95" cy="47.5" r="2.1" fill="#083b54" stroke="#063b54" stroke-linejoin="round" stroke-width=".5"/><circle cx="45.65" cy="42.6" r="2.1" fill="#083b54" stroke="#063b54" stroke-linejoin="round" stroke-width=".5"/><circle cx="55.35" cy="33.1" r="2.1" fill="#083b54" stroke="#063b54" stroke-linejoin="round" stroke-width=".5"/><circle cx="64.95" cy="42.6" r="2.1" fill="#083b54" stroke="#063b54" stroke-linejoin="round" stroke-width=".5"/><circle cx="74.65" cy="44" r="2.1" fill="#083b54" stroke="#063b54" stroke-linejoin="round" stroke-width=".5"/><circle cx="84.35" cy="37.4" r="2.1" fill="#083b54" stroke="#063b54" stroke-linejoin="round" stroke-width=".5"/><circle cx="93.95" cy="45.4" r="2.1" fill="#083b54" stroke="#063b54" stroke-linejoin="round" stroke-width=".5"/><path d="M36 47.5l9.7-4.9 9.7-9.5 9.6 9.5 9.7 1.4 9.7-6.6 9.6 8" fill="none" stroke="#063b54" stroke-miterlimit="10" stroke-width=".7"/><ellipse cx="35.95" cy="51.9" rx="2.1" ry="1" fill="#d3d5db"/><ellipse cx="45.65" cy="49.6" rx="2.1" ry="1" fill="#d3d5db"/><ellipse cx="55.35" cy="44.8" rx="2.1" ry="1" fill="#d3d5db"/><ellipse cx="64.95" cy="49.6" rx="2.1" ry="1" fill="#d3d5db"/><ellipse cx="74.65" cy="50.2" rx="2.1" ry="1" fill="#d3d5db"/><ellipse cx="84.35" cy="47.2" rx="2.1" ry="1" fill="#d3d5db"/><ellipse cx="93.95" cy="50.9" rx="2.1" ry="1" fill="#d3d5db"/><path d="M36 51.9l9.7-2.3 9.7-4.8 9.6 4.8 9.7.6 9.7-3 9.6 3.7" fill="none" stroke="#d3d5db" stroke-miterlimit="10" stroke-width=".3"/></svg>