<svg xmlns="http://www.w3.org/2000/svg" viewBox="0 0 201.25 128.7"><defs><clipPath id="a"><ellipse cx="130.05" cy="53.05" rx="52.2" ry="51.8" fill="none"/></clipPath></defs><path d="M1.25 44.35h64.6v83.1H1.25z" fill="none" stroke="#6ac9d0" stroke-linejoin="round" stroke-width="2.5"/><path d="M11.25 58.15h44.5m-44.5 11.4h44.5m-44.5 11.5h44.5m-44.5 11.4h44.5m-44.5 11.4h19.5m-19.5 11.5h19.5" fill="none" stroke="#6ac9d0" stroke-linecap="round" stroke-linejoin="round" stroke-width="2.5"/><circle cx="47.15" cy="109.25" r="5.8" fill="#ffe5ca" stroke="#f59122" stroke-miterlimit="10"/><path d="M41.75 111.45c-2.2 1.9-3.4 3.5-3.1 4s2.2-.2 4.7-1.7c1.4-.8 3-1.9 4.7-3.1 4.7-3.4 8-6.7 7.4-7.5-.4-.5-2.2.2-4.6 1.6" style="isolation:isolate" fill="none" stroke="#f59122" stroke-miterlimit="10" opacity=".4"/><circle cx="52.95" cy="81.35" r="6.6" fill="none" stroke="#c3e9ec" stroke-miterlimit="10" stroke-width="2.5"/><g clip-path="url(#a)"><path d="M107.15 31h-28.6a1.11 1.11 0 01-1.1-1.1V1.45a1.11 1.11 0 011.1-1.1h28.6a1.11 1.11 0 011.1 1.1v28.4a1.11 1.11 0 01-1.1 1.15z" style="isolation:isolate" fill="#469da1" opacity=".25"/><path d="M98.55 23.45a.35.35 0 01-.2.1 1.17 1.17 0 01-.7.2 4.06 4.06 0 01-2.5-.4 6 6 0 01-1.5-.9 6.44 6.44 0 01-2.1-3.4 13 13 0 01-.4-2.1 4.87 4.87 0 01.1-1.2 2.13 2.13 0 01.7-1.2 2 2 0 01.8-.4h.7a.31.31 0 01.2.1 2.08 2.08 0 011 1.1 8.09 8.09 0 01.4 1.9 6.8 6.8 0 00.2 1.5 7.87 7.87 0 00.8 2.2c.3.5.5.8.5.8a.31.31 0 01-.2-.1 5.92 5.92 0 00-.6-.4 5.1 5.1 0 01-1.4-2.1 7.49 7.49 0 01-.5-1.6 7.49 7.49 0 00-.4-1.6.75.75 0 00-.3-.3h-.1a.1.1 0 00-.1.1 1.92 1.92 0 00-.3 1.2 11.27 11.27 0 00.3 1.8 4.92 4.92 0 00.6 1.7 4.19 4.19 0 00.9 1.4 10 10 0 001.1 1 6.23 6.23 0 002.1.8 6.59 6.59 0 00.9-.2z" fill="#469da1"/><path d="M97.15 18.05a6.47 6.47 0 01-.2-1c-.2-.6-.3-1.5-.6-2.4a5.39 5.39 0 00-.7-1.3c-.2-.2-.4-.3-.6-.5-.1 0-.3-.2-.4-.2s-.2-.1-.4-.1a3.1 3.1 0 00-3.1.8 5.83 5.83 0 00-1.1 1.5 4.71 4.71 0 00-.4 1.7 9.15 9.15 0 00.1 1.7 6.61 6.61 0 00.5 1.5 6.66 6.66 0 00.6 1.2l.6.9.5.5.2.2a4.42 4.42 0 01-.9-.5 5.5 5.5 0 01-.9-.7 3.78 3.78 0 01-.9-1.2 6.76 6.76 0 01-1.1-3.7 6.56 6.56 0 01.4-2.3 6.41 6.41 0 011.3-1.9 4.32 4.32 0 012.2-1.2 3.91 3.91 0 012.4.2 2.19 2.19 0 01.5.3c.2.1.2.2.4.3a3 3 0 01.8.8 4.49 4.49 0 01.7 1.8 11.07 11.07 0 010 2.6 8.15 8.15 0 01.1 1z" fill="#469da1"/><path d="M98 20.05a8.15 8.15 0 01.1-1c.1-.6.2-1.5.3-2.5a12.88 12.88 0 000-3.4 10.93 10.93 0 00-.5-1.7 4.89 4.89 0 00-1.2-1.3 2 2 0 00-.8-.4c-.2-.1-.3-.1-.4-.2s-.3-.1-.4-.1a11 11 0 00-1.8-.2 6.6 6.6 0 00-3.2.8 5.05 5.05 0 00-1.9 1.5 2.09 2.09 0 00-.4.6l-.1.2v-.3a2.54 2.54 0 01.2-.7 4.34 4.34 0 011.7-2 8.53 8.53 0 013.5-1.3 5.52 5.52 0 012.2.1c.2 0 .4.1.6.1s.4.1.5.2a3.33 3.33 0 011 .6 5.48 5.48 0 011.6 1.8 6 6 0 01.6 2.2 6.56 6.56 0 01-.1 2 8.47 8.47 0 01-.4 1.7 15.43 15.43 0 01-.9 2.4 1.72 1.72 0 01-.2.9zm-11-5.7a9.81 9.81 0 000 2.7 6.88 6.88 0 00.2 1.3 3.49 3.49 0 00.5 1.3 8.26 8.26 0 00.7 1.3 2.65 2.65 0 00.5.6l.1.1.1.1.3.3c.4.3.7.7 1.1 1a14.8 14.8 0 001.3.8 15.25 15.25 0 002.5.9 4.1 4.1 0 001.1.1h.8a1.27 1.27 0 00.6-.1h.2a2.22 2.22 0 01-.7.4 5.44 5.44 0 01-2 .4 7.08 7.08 0 01-1.4-.1 4.42 4.42 0 01-1.5-.5 10.93 10.93 0 01-1.5-.8 13.44 13.44 0 01-1.4-1.1l-.3-.3-.1-.1-.1-.1-.1-.2a3 3 0 01-.5-.7 10.09 10.09 0 01-.7-1.5 4 4 0 01-.3-1.5 3.3 3.3 0 010-1.4 5 5 0 01.4-2 6.59 6.59 0 01.2-.9z" fill="#469da1"/><path d="M85.25 19.15a4.2 4.2 0 01.2.5 1.42 1.42 0 00.2.6c.1.2.2.5.3.7a3 3 0 00.4.8 3.51 3.51 0 00.5.8c.2.3.4.5.6.8l.7.7c.2.3.5.4.8.7l.9.6a8.49 8.49 0 001.7.8 15.56 15.56 0 001.8.6h-.1c-.1 0-.2.1-.4.1a7.44 7.44 0 01-1.5 0 4.4 4.4 0 01-1-.2 7.6 7.6 0 01-1.1-.4 6.66 6.66 0 01-2.1-1.3l-.9-.9a3.88 3.88 0 01-.6-1.1 4.87 4.87 0 01-.4-1.1 4.4 4.4 0 01-.2-1v-.8c0-.2.1-.4.1-.6a.49.49 0 00.1-.3zm-.2-1.5s-.1-.3-.3-.8c-.1-.3-.2-.6-.3-1s-.1-.8-.1-1.3a9.15 9.15 0 01.1-1.6 12.09 12.09 0 01.5-1.8 9.15 9.15 0 01.9-1.7A10 10 0 0187.25 8 16.29 16.29 0 0189 6.85a3.55 3.55 0 01.9-.4 2.24 2.24 0 011-.3c.3-.1.6-.1.9-.2h.9a7.77 7.77 0 011.6.2c.5.2.9.3 1.3.5a3.6 3.6 0 01.9.5 5.17 5.17 0 00.7.6 4.56 4.56 0 01-.8-.4 9.44 9.44 0 00-.9-.3c-.4-.1-.8-.1-1.2-.2a6.6 6.6 0 00-1.4.1 7.45 7.45 0 00-3.2 1 4.51 4.51 0 00-1.4 1 7.41 7.41 0 00-1.2 1.3 11 11 0 00-.9 1.4l-.6 1.5a8.87 8.87 0 00-.3 1.4c0 .4-.1.9-.1 1.2v1a6.17 6.17 0 00-.15.9z" fill="#469da1"/><path d="M87.05 6.45s.2-.2.7-.6a5.55 5.55 0 01.8-.6 6.35 6.35 0 011.2-.7 8.8 8.8 0 011.5-.5 11.27 11.27 0 011.8-.3h1.5l.5.1a10.56 10.56 0 011.9.6 9.91 9.91 0 011.7 1.1c.1.1.3.2.4.3l.3.4c.2.3.5.5.6.8s.3.5.5.8a6.89 6.89 0 00.3.8 4.71 4.71 0 01.4 1.6 6.15 6.15 0 01.1 1.3c0 .4-.1.7-.1 1a6.59 6.59 0 01-.2.9 6.17 6.17 0 00-.1-.9 3.75 3.75 0 00-.1-1 5.27 5.27 0 00-.3-1.2 7.54 7.54 0 00-.6-1.3 2.51 2.51 0 00-.4-.7c-.2-.2-.3-.4-.5-.6l-.6-.6-.6-.6a7.46 7.46 0 00-1.5-.9 10.41 10.41 0 00-1.6-.6c-.3-.1-.6-.1-.8-.2s-.6-.1-.8-.1a8.08 8.08 0 00-1.6.1 5.77 5.77 0 00-1.4.3c-.5.1-.8.3-1.2.4A3.92 3.92 0 0088 6a9.24 9.24 0 00-.95.45zm13.9 8.4a1.58 1.58 0 00.1.4 3.42 3.42 0 01.1 1.1 9.15 9.15 0 01-.1 1.6c-.1.3-.1.6-.2.9l-.3.9a5.6 5.6 0 01-1 1.5l-.6.6a2.09 2.09 0 01-.6.4c-.4.2-.8.3-1 .4a.58.58 0 00-.4.1l.3-.3a4.62 4.62 0 00.7-.7 4.44 4.44 0 00.8-1.1 4.35 4.35 0 00.4-.7c.1-.2.3-.5.4-.7l.6-1.5a10.26 10.26 0 00.4-1.4 6.21 6.21 0 01.3-1 2.81 2.81 0 00.15-.5zM94.05 27a6.74 6.74 0 001.2-.4 7.6 7.6 0 001.1-.4l.6-.3.6-.3a1 1 0 00.5-.4c.2-.1.3-.3.5-.4s.3-.3.4-.4.2-.3.3-.4.2-.3.3-.4.1-.2.2-.3a1.24 1.24 0 01.2-.3v.4a3.08 3.08 0 01-.1.9 1.42 1.42 0 01-.2.6c-.1.2-.2.5-.3.7s-.3.4-.5.6a2.65 2.65 0 01-.6.5 2.51 2.51 0 01-.7.4c-.4 0-.7.1-.9.1a6.64 6.64 0 01-1.3.1 2.28 2.28 0 01-1.3-.3z" fill="#469da1"/><path d="M144.45 31h-28.6a1.11 1.11 0 01-1.1-1.1V1.45a1.11 1.11 0 011.1-1.1h28.6a1.11 1.11 0 011.1 1.1v28.4a1.27 1.27 0 01-1.1 1.15z" style="isolation:isolate" fill="#6ac9d0" opacity=".25"/><path d="M130.35 18.75a1 1 0 01.1-.4c0-.2.1-.6.1-.9a4.87 4.87 0 00-.1-1.2 1.88 1.88 0 00-.4-.9.1.1 0 01-.1-.1h-.1a.31.31 0 00-.2-.1c-.1 0-.3-.1-.4-.1a.76.76 0 00-.4.2c-.2.1-.3.3-.4.4a2 2 0 00-.4.8 1 1 0 00-.1.4 1.58 1.58 0 00-.1-.4 4 4 0 010-1.1c.1-.2.1-.5.3-.7a4.62 4.62 0 01.7-.7 2.15 2.15 0 011.1-.2.76.76 0 01.5.2h.1l.1.1.3.2a2 2 0 01.7.9 3.55 3.55 0 01.2 1 3.77 3.77 0 01-.4 1.6 3.51 3.51 0 01-.7.9 1 1 0 01-.4.1z" fill="#6ac9d0"/><path d="M132.65 17.85a1.54 1.54 0 00.2-.8 5.86 5.86 0 00-.3-2.1 5.13 5.13 0 00-1.5-2.4 2.23 2.23 0 00-1.3-.6 2.62 2.62 0 00-1.5.2 2.73 2.73 0 00-1.2.9 3.51 3.51 0 00-.6 1.4 7.52 7.52 0 00.1 3 5.48 5.48 0 00.8 2c.3.5.4.7.4.7l-.6-.6a7.32 7.32 0 01-1.7-5.3 4.9 4.9 0 01.7-1.9 3.91 3.91 0 011.7-1.4 3 3 0 012.1-.2 3.52 3.52 0 011.9 1 5.59 5.59 0 011.5 3.1 5.81 5.81 0 01-.2 2.4 1.63 1.63 0 01-.3.6zm-7.6-6.8v-.4a1.09 1.09 0 01.1-.5 1.42 1.42 0 01.2-.6 2.09 2.09 0 01.4-.6l.6-.6a2.18 2.18 0 01.8-.5c.3-.1.6-.3.9-.4s.6-.1.9-.2a2.72 2.72 0 01.9 0 5.41 5.41 0 011.5.4 3.49 3.49 0 01.9.6l.3.3a1 1 0 01-.4-.1c-.2 0-.6-.1-1-.1h-1.4a8 8 0 00-1.5.3c-.2.1-.5.1-.7.3s-.5.2-.7.3a4.44 4.44 0 00-1.1.8l-.7.7c.1.1 0 .3 0 .3z" fill="#6ac9d0"/><path d="M130.65 22.25l-.6.3c-.2.1-.5.1-.8.2a2.16 2.16 0 01-1.1-.1 6.47 6.47 0 01-1.3-.4 3.45 3.45 0 01-1.2-.9 13.07 13.07 0 01-1.1-1.2 6.38 6.38 0 01-.8-1.4l-.6-1.5c-.1-.5-.2-1-.3-1.6v-1.5a2.77 2.77 0 01.3-1.3 3.83 3.83 0 01.8-1.7 4.57 4.57 0 00.4-.6s-.1.3-.2.7a7.45 7.45 0 00-.2 1.8v1.2a6.88 6.88 0 00.2 1.3c.1.4.2.9.3 1.3a6.94 6.94 0 00.5 1.3 7.46 7.46 0 00.7 1.2c.1.2.3.4.4.6s.3.3.4.5a6.47 6.47 0 00.9.8l.9.6a3.18 3.18 0 00.9.3c.3 0 .5.1.8.1z" fill="#6ac9d0"/><path d="M136.25 13.85a2.41 2.41 0 01.3.8A6.34 6.34 0 01137 17a4.68 4.68 0 01-.2 1.6 5.78 5.78 0 01-.6 1.7 9.06 9.06 0 01-1.1 1.6 4.62 4.62 0 01-.7.7c-.2.2-.5.4-.7.6a15 15 0 01-3.2 1.9 28.54 28.54 0 01-3 1.1c-.9.3-1.5.6-2 .8a6.12 6.12 0 00-.6.5.31.31 0 01.1-.2c.1-.1.2-.3.4-.5a10.27 10.27 0 011.8-1.4c.8-.5 1.8-.9 2.7-1.5a18.08 18.08 0 002.9-1.9 3 3 0 01.7-.5c.2-.2.5-.4.6-.6a10.59 10.59 0 001-1.2 7.71 7.71 0 001.1-2.7c.1-.4.1-.8.2-1.2v-1a6.17 6.17 0 01-.15-.95z" fill="#6ac9d0"/><path d="M137.75 19.55a2.8 2.8 0 00.1.6 1.63 1.63 0 010 .7 2.77 2.77 0 01-.1.9 4.18 4.18 0 01-.4 1 6.07 6.07 0 01-.7 1l-.9.9a10.47 10.47 0 01-1.1.8l-1.2.6a5.64 5.64 0 01-1.2.4 9.54 9.54 0 01-2.1.4 5.82 5.82 0 01-2.1 0 20 20 0 011.9-.8c.6-.2 1.2-.5 1.9-.8a4.67 4.67 0 001-.5 8.79 8.79 0 001-.6c.3-.2.7-.4 1-.6a2.19 2.19 0 01.5-.3c.1-.1.3-.2.4-.4a4.62 4.62 0 00.7-.7 2.18 2.18 0 00.5-.8c.1-.2.2-.5.3-.7s.1-.5.2-.6c.3-.3.3-.5.3-.5zm.3-2.2v-1.9c-.1-.4-.1-.8-.2-1.2s-.2-.9-.3-1.4a8.8 8.8 0 00-.5-1.5c-.3-.5-.5-1-.8-1.4a6.89 6.89 0 00-1.1-1.3 4.12 4.12 0 00-1.3-1 2.51 2.51 0 00-.7-.4 2.12 2.12 0 00-.7-.3 2.35 2.35 0 00-.8-.2c-.3 0-.5-.1-.8-.1h-1.4c-.4.1-.9.1-1.2.2s-.7.1-.9.3a2.45 2.45 0 00-1 0 4 4 0 01.7-.5 3.6 3.6 0 01.9-.5 8.93 8.93 0 011.3-.5 7.77 7.77 0 011.6-.2h.9a2.92 2.92 0 01.9.2l.9.3a3.55 3.55 0 01.9.4 6.1 6.1 0 011.6 1.2 9.55 9.55 0 011.2 1.6 6.53 6.53 0 01.8 1.7 13.64 13.64 0 01.4 1.7c0 .6.1 1.1.1 1.6s-.1.9-.1 1.3a4.4 4.4 0 00-.2 1 3.23 3.23 0 00-.2.9z" fill="#6ac9d0"/><path d="M137.25 7.25s-.3-.2-.8-.6c-.2-.2-.6-.4-.9-.7a2.09 2.09 0 01-.6-.4 4.88 4.88 0 00-.7-.3 6 6 0 00-1.6-.5 11 11 0 00-1.8-.2 6.15 6.15 0 00-1.9.2c-.3.1-.6.2-1 .3s-.6.3-.9.4a4.05 4.05 0 00-.9.5 2.41 2.41 0 00-.8.6 4.62 4.62 0 00-.7.7c-.2.2-.4.5-.6.7a5.58 5.58 0 00-.5.8c-.2.3-.3.5-.5.8a15.57 15.57 0 00-.6 1.5c-.1.5-.3 1-.4 1.4s-.1.8-.2 1.1c-.1.6-.2 1-.2 1a6.73 6.73 0 00-.1-1v-1.1a10.4 10.4 0 01.2-1.5 15.43 15.43 0 01.5-1.7c.1-.3.3-.6.4-.9s.3-.6.5-.9l.6-.9a6 6 0 01.8-.8 5.5 5.5 0 01.9-.7 8.79 8.79 0 011-.6c.4-.1.7-.3 1.1-.4l1.1-.3a8.13 8.13 0 012.2-.1 6.47 6.47 0 012 .4 6 6 0 011.6.8 2.51 2.51 0 00.7.4 1.21 1.21 0 01.5.5l.8.8a3 3 0 01.8.7zm-2.7 9.9v.4a3 3 0 01-.3 1.1 5.74 5.74 0 01-.4.7 1.87 1.87 0 01-.6.7 5.55 5.55 0 01-.8.6 3.18 3.18 0 01-.9.3 1.7 1.7 0 01-1 0 3.81 3.81 0 01-1-.3 2.17 2.17 0 01-.7-.6 2 2 0 01-.4-.8c0-.3-.1-.5 0-.7a.76.76 0 01.2-.5l.2-.4v.4a.6.6 0 00.1.4c0 .2.1.3.2.5s.1.1.2.2l.2.2a2.19 2.19 0 00.5.3l.3.1h.3a1.7 1.7 0 00.7-.1 1.85 1.85 0 00.7-.2l.6-.3a2.18 2.18 0 00.5-.4 1.76 1.76 0 01.5-.4c.1-.2.3-.3.4-.4a1.38 1.38 0 01.3-.4 1.09 1.09 0 01.2-.4zm-7.6 6.9a3.25 3.25 0 01-1.3-.1 6.12 6.12 0 01-1.2-.5 2.65 2.65 0 01-.6-.5l-.6-.6c-.2-.2-.3-.4-.5-.6s-.2-.5-.4-.7a1.85 1.85 0 01-.2-.7 1.27 1.27 0 01-.1-.6 2.64 2.64 0 010-.9v-.4a1.24 1.24 0 01.2.3c.1.1.1.2.2.3s.2.3.3.4.2.3.3.5.2.3.3.5c.3.3.5.7.8 1a9 9 0 00.9 1 6.47 6.47 0 00.9.8c.6.5 1 .8 1 .8z" fill="#6ac9d0"/><path d="M134.75 15.65v-.5c0-.3-.1-.7-.1-1.2-.1-.2-.1-.5-.2-.7s-.2-.5-.3-.8a1.61 1.61 0 00-.4-.7 1.79 1.79 0 00-.5-.7 2.65 2.65 0 00-.6-.5 2.51 2.51 0 00-.7-.4c-.3-.1-.5-.2-.8-.3a1.45 1.45 0 01-.7-.2c-.2 0-.5-.1-.6-.1h-1l.4-.2c.1-.1.3-.1.5-.2s.4-.1.7-.1a2.72 2.72 0 01.9 0 4.4 4.4 0 011 .2 4.18 4.18 0 011 .4 5.5 5.5 0 01.9.7 4.7 4.7 0 01.6.9 4.18 4.18 0 01.4 1c.1.3.1.7.2 1v.9a6.81 6.81 0 01-.3 1.2.69.69 0 00-.4.3zm-10 9.9a1.21 1.21 0 01-.5.1 1.61 1.61 0 01-.9-.3 1 1 0 01-.5-.8.69.69 0 010-.5 1.75 1.75 0 01.5.1 1.08 1.08 0 01.7.3 2.65 2.65 0 01.5.6.78.78 0 01.2.5z" fill="#6ac9d0"/><path d="M181.55 31H153a1.11 1.11 0 01-1.1-1.1V1.45a1.11 1.11 0 011.1-1.1h28.6a1.11 1.11 0 011.1 1.1v28.4a1.11 1.11 0 01-1.15 1.15z" style="isolation:isolate" fill="#f59122" opacity=".25"/><path d="M163.75 17.75a1.24 1.24 0 01.3-.2c.2-.1.4-.3.7-.5a2.41 2.41 0 00.6-.8 1.51 1.51 0 00.2-.8v-.1l-.1-.1a.37.37 0 00-.3-.1 1.33 1.33 0 00-.8.3c-.2.2-.4.5-.5.6a1.24 1.24 0 01-.2.3V16a2.3 2.3 0 01.3-.9 2.09 2.09 0 01.4-.6 2 2 0 01.8-.4 1.8 1.8 0 011 .2l.2.1.1.1.1.1a.85.85 0 01.3.5 2.05 2.05 0 010 1.1 2 2 0 01-.4.8 2.8 2.8 0 01-1.2.8 4.14 4.14 0 01-1 .1c-.4 0-.5-.1-.5-.1z" fill="#f59122"/><path d="M163.15 13.45a.1.1 0 01.1-.1c0-.1.1-.2.3-.4a4.2 4.2 0 011.4-1 5 5 0 011.2-.2 3.26 3.26 0 011.3.4c.2.1.4.3.6.4a3.17 3.17 0 01.5.6 2.69 2.69 0 01.5 1.5 4.12 4.12 0 01-.8 2.7 5.34 5.34 0 01-1.8 1.6 7.07 7.07 0 01-1.6.5h-.6a3.22 3.22 0 01.6-.2 6.07 6.07 0 001.4-.7 5.56 5.56 0 001.4-1.6 3.57 3.57 0 00.5-2.2 1.78 1.78 0 00-.4-1c-.1-.2-.2-.2-.3-.4s-.3-.2-.4-.3a3 3 0 00-1.8-.4 8.4 8.4 0 00-1.4.4c-.5.3-.7.4-.7.4zm-1.2-2.1l.2-.4c.1-.1.2-.3.3-.4a1.21 1.21 0 01.5-.5 4.23 4.23 0 01.7-.5 4.55 4.55 0 011.9-.6h1.1c.4.1.7.1 1 .2a4.18 4.18 0 011 .4 9.74 9.74 0 011.5 1c.2.2.3.4.5.5s.2.3.3.5a1.09 1.09 0 00.2.4 1.73 1.73 0 01-.4-.3 4.37 4.37 0 00-1-.6 4.88 4.88 0 00-.7-.3 6.89 6.89 0 00-.8-.3c-.3-.1-.5-.1-.8-.2a2.77 2.77 0 00-.9-.1h-1.7a2.2 2.2 0 01-.8.1c-.2.1-.5.1-.7.2a4.61 4.61 0 00-1 .5 1.2 1.2 0 01-.4.4zm6.5 15.3s-.7.1-1.7.2a10.38 10.38 0 01-3.8-.3 5.15 5.15 0 01-2-.9 5.72 5.72 0 01-.8-.7 4.05 4.05 0 01-.5-.9.6.6 0 01-.1-.4v-1a1.75 1.75 0 00.1-.5l.2.4a.91.91 0 00.3.5 1.76 1.76 0 00.4.5c.1.2.4.3.5.4a4.88 4.88 0 00.7.3 6.89 6.89 0 00.8.3 2.92 2.92 0 00.9.2 12.86 12.86 0 001.9.4c.6.2 1.2.3 1.7.5a14.13 14.13 0 011.4 1zm4.1-13.3a2.22 2.22 0 00.4.5c.1.2.3.4.4.6s.2.6.3 1a4.87 4.87 0 01.1 1.2 7.08 7.08 0 01-.1 1.4c-.1.2-.1.5-.2.7s-.2.5-.3.7a5.67 5.67 0 01-.8 1.3 5.24 5.24 0 01-1 1.1 4.81 4.81 0 01-1.1.9c-.4.2-.7.5-1.1.7s-.7.3-1.1.5a9.44 9.44 0 00-.9.3 2.2 2.2 0 01-.8.1h-.7l.6-.3a15.14 15.14 0 001.4-.9 5.55 5.55 0 00.8-.6 6.47 6.47 0 00.9-.8l.9-.9a8.74 8.74 0 00.8-1c.2-.3.5-.7.7-1a2.19 2.19 0 01.3-.5c.1-.2.1-.4.2-.5a4.51 4.51 0 00.3-1.1c0-.4.1-.7.1-1v-.9c0-.3-.1-.5-.1-.7v-.8z" fill="#f59122"/><path d="M175.55 15.55l-.3-.6c-.1-.2-.2-.5-.3-.7a3.55 3.55 0 00-.4-.9 5.3 5.3 0 00-.6-1 6.07 6.07 0 00-.7-1c-.2-.4-.6-.6-.9-.9a7 7 0 00-1-.8c-.2-.1-.4-.3-.6-.4l-.6-.3-.6-.3c-.2-.1-.4-.1-.6-.2l-1.2-.3c-.4 0-.8-.1-1.1-.1h-1a2 2 0 00-.8.1 3.2 3.2 0 01-.7.1 4.57 4.57 0 00.6-.4 4.35 4.35 0 01.7-.4 2.93 2.93 0 011-.3 5.07 5.07 0 011.3-.2 6.6 6.6 0 011.4.1c.2.1.5.1.8.2s.5.2.7.3a4.88 4.88 0 01.7.3 2.51 2.51 0 01.7.4c.4.3.8.7 1.2 1a9.38 9.38 0 01.9 1.2 3.79 3.79 0 01.6 1.3 5.64 5.64 0 01.4 1.2 3.75 3.75 0 01.1 1v.8a2.3 2.3 0 01.3.8z" fill="#f59122"/><path d="M166.55 6.45a1 1 0 00-.4.1 1.69 1.69 0 00-.5.2c-.2 0-.3.2-.5.2-.4.2-.8.4-1.3.7-.2.1-.4.3-.7.5a3 3 0 01-.7.5 12.67 12.67 0 01-1.3 1.1 2.65 2.65 0 00-.5.6 1.21 1.21 0 01-.5.5c-.1.2-.3.3-.4.5a1.38 1.38 0 01-.3.4l-.2.4v-.9a2.54 2.54 0 01.2-.7 3.68 3.68 0 01.8-1.5 5.71 5.71 0 011.3-1.4c.3-.2.5-.4.8-.6a5.9 5.9 0 01.8-.4 6.89 6.89 0 00.8-.3 2.2 2.2 0 01.8-.1h.7a.75.75 0 01.5.1c.5 0 .6.1.6.1zm-2.8 14.8a2.44 2.44 0 01.7-.1 3.09 3.09 0 00.8-.2l.9-.3c.3-.2.7-.3 1-.5s.3-.2.5-.3.3-.3.5-.4a9 9 0 00.9-1l.4-.6.3-.6a1.42 1.42 0 00.2-.6 1.42 1.42 0 00.2-.6c0-.2.1-.4.1-.6v-.6a3.54 3.54 0 00-.3-1.1 1.8 1.8 0 00-.6-.9 1.38 1.38 0 00-.3-.4l-.3-.3c-.2-.2-.4-.3-.6-.5a2.48 2.48 0 01-.6-.4 4.18 4.18 0 01.7.1 4.12 4.12 0 01.8.3c.3.2.7.3.9.6.2.1.3.3.5.4a2.09 2.09 0 01.4.6 5.91 5.91 0 01.6 1.4c0 .3.1.5.1.8a2 2 0 01-.1.8 2.35 2.35 0 01-.2.8c-.1.3-.2.5-.3.8a2.51 2.51 0 01-.4.7l-.5.7-.6.6a2.65 2.65 0 01-.6.5c-.2.1-.4.3-.6.4a4.88 4.88 0 01-.7.3 6.47 6.47 0 01-1.3.4 4.48 4.48 0 01-1.1.1 2 2 0 01-.8-.1 1.19 1.19 0 00-.6-.2zm-3.7-4.2a1.24 1.24 0 01-.2-.3c-.1-.1-.1-.2-.2-.3s-.1-.3-.2-.5a2.85 2.85 0 010-1.3 1.85 1.85 0 01.2-.7 2.51 2.51 0 01.4-.7 3.46 3.46 0 011.1-1 3.45 3.45 0 011.1-.5 4.83 4.83 0 011.2-.2s-.4.3-.9.7a8.08 8.08 0 00-1.6 1.6c-.1.2-.2.3-.3.5s-.2.3-.2.5a3.81 3.81 0 00-.3 1v.8a1.58 1.58 0 00-.1.4zm3.5 2.5h-.3a2 2 0 01-.7-.1c-.2 0-.3-.1-.5-.2a1.76 1.76 0 01-.5-.4c-.1-.2-.3-.4-.4-.6s-.1-.5-.2-.7a1.7 1.7 0 01.1-.7 1.42 1.42 0 01.2-.6 3.49 3.49 0 01.6-.9 2.71 2.71 0 01.8-.7V15c0 .2-.1.4-.1.7 0 .1-.1.3-.1.4a4.33 4.33 0 00-.1.5c0 .3-.1.6-.1.9a2.1 2.1 0 00.7 1.4c.2.2.3.4.5.5a.35.35 0 00.1.15z" fill="#f59122"/><path d="M162 6.55a2.22 2.22 0 01.4-.5c.1-.2.3-.3.5-.5a5.55 5.55 0 01.8-.6 4.67 4.67 0 011-.5 5.64 5.64 0 011.2-.4 9.85 9.85 0 012.8 0l1.4.3a3.1 3.1 0 011.3.6c.4.2.7.5 1.1.7a3.45 3.45 0 01.8.9 9.22 9.22 0 01.5.8 4.88 4.88 0 00.3.7 2.8 2.8 0 01.1.6 2.22 2.22 0 00-.4-.5c-.1-.2-.3-.3-.4-.5l-.6-.6a5.55 5.55 0 00-.8-.6 3.13 3.13 0 00-1-.5c-.2-.1-.4-.1-.5-.2s-.4-.1-.6-.2l-1.2-.3a4.87 4.87 0 00-1.2-.1h-1.2c-.4.1-.8.1-1.1.2s-.7.1-1 .2a6.89 6.89 0 00-.8.3 3.33 3.33 0 00-.6.3l-.8.4zm-2.9 10.1a1.75 1.75 0 00.1.5c0 .2.1.3.1.5a1.42 1.42 0 00.2.6 4.88 4.88 0 01.3.7c.2.2.3.5.5.7a4.35 4.35 0 01.6.7 4.35 4.35 0 00.7.6 5.58 5.58 0 00.8.5c.3.1.5.3.8.4a2.35 2.35 0 00.8.2 2.2 2.2 0 00.8.1h1.7a3 3 0 01-.4.3 2.19 2.19 0 01-.5.3 1.45 1.45 0 01-.7.2c-.3 0-.6.1-.9.1a3.4 3.4 0 01-1-.1l-1.1-.3c-.3-.2-.7-.4-1-.6a3 3 0 01-.8-.8 4.7 4.7 0 01-.6-.9 3.55 3.55 0 01-.4-.9 2.92 2.92 0 01-.2-.9v-.8a1.27 1.27 0 01.1-.6 1.21 1.21 0 01.1-.5zm9 8.6a1.21 1.21 0 01.5-.1c.2 0 .3-.1.6-.2s.5-.2.7-.3a3 3 0 00.8-.4 3.51 3.51 0 00.8-.5c.3-.2.5-.4.8-.6a4.62 4.62 0 00.7-.7c.2-.3.4-.5.6-.8s.3-.6.5-.9.3-.6.4-.9a6.89 6.89 0 01.3-.8 6.37 6.37 0 01.2-.7c0-.2.1-.4.1-.6a1.75 1.75 0 00.1-.5 1.21 1.21 0 01.1.5 4.64 4.64 0 01.2 1.4 8.81 8.81 0 01-.3 2.1 11.73 11.73 0 01-.5 1.1 8.65 8.65 0 01-.7 1l-.9.9a6.07 6.07 0 01-1 .7 4.18 4.18 0 01-1 .4 3.55 3.55 0 01-1 .2 7.44 7.44 0 01-1.5 0 5.2 5.2 0 00-.5-.3z" fill="#f59122"/><path d="M107.15 105.15h-28.6a1.11 1.11 0 01-1.1-1.1v-28.4a1.11 1.11 0 011.1-1.1h28.6a1.11 1.11 0 011.1 1.1v28.4a1.11 1.11 0 01-1.1 1.1z" style="isolation:isolate" fill="#6ac9d0" opacity=".25"/><path d="M98.55 97.65a.35.35 0 01-.2.1 1.17 1.17 0 01-.7.2 4.06 4.06 0 01-2.5-.4 6 6 0 01-1.5-.9 6.44 6.44 0 01-2.1-3.4 13 13 0 01-.4-2.1 4.87 4.87 0 01.1-1.2 2.13 2.13 0 01.7-1.2 2 2 0 01.8-.4h.7a.31.31 0 01.2.1 2.08 2.08 0 011 1.1 8.09 8.09 0 01.4 1.9 6.8 6.8 0 00.2 1.5 7.87 7.87 0 00.8 2.2c.3.5.5.8.5.8a.31.31 0 01-.2-.1 5.92 5.92 0 00-.6-.4 5.1 5.1 0 01-1.4-2.1 7.49 7.49 0 01-.5-1.6 7.49 7.49 0 00-.4-1.6.75.75 0 00-.3-.3h-.1a.1.1 0 00-.1.1 1.92 1.92 0 00-.3 1.2A11.27 11.27 0 0093 93a4.92 4.92 0 00.6 1.7 4.19 4.19 0 00.9 1.4 10 10 0 001.1 1 6.23 6.23 0 002.1.8 6.59 6.59 0 00.85-.25z" fill="#6ac9d0"/><path d="M97.15 92.25a6.47 6.47 0 01-.2-1c-.2-.6-.3-1.5-.6-2.4a5.39 5.39 0 00-.7-1.3c-.2-.2-.4-.3-.6-.5-.1 0-.3-.2-.4-.2s-.2-.1-.4-.1a3.1 3.1 0 00-3.1.8 5.83 5.83 0 00-1.1 1.5 4.71 4.71 0 00-.4 1.7 9.15 9.15 0 00.1 1.7 10.31 10.31 0 001.1 2.7l.6.9.5.5.2.2a4.42 4.42 0 01-.9-.5 5.5 5.5 0 01-.9-.7 3.78 3.78 0 01-.9-1.2 6.76 6.76 0 01-1.1-3.7 6.56 6.56 0 01.4-2.3 6.41 6.41 0 011.3-1.9 4.32 4.32 0 012.2-1.2 3.91 3.91 0 012.4.2 2.19 2.19 0 01.5.3c.2.1.2.2.4.3a3 3 0 01.8.8 4.49 4.49 0 01.7 1.8 11.07 11.07 0 010 2.6 8.15 8.15 0 01.1 1z" fill="#6ac9d0"/><path d="M98 94.25a8.15 8.15 0 01.1-1c.1-.6.2-1.5.3-2.5a12.88 12.88 0 000-3.4 10.93 10.93 0 00-.5-1.7 4.89 4.89 0 00-1.2-1.3 2 2 0 00-.8-.4c-.2-.1-.3-.1-.4-.2s-.3-.1-.4-.1a11 11 0 00-1.8-.2 6.6 6.6 0 00-3.2.8 5.05 5.05 0 00-1.9 1.5 2.09 2.09 0 00-.4.6l-.1.2v-.3a2.54 2.54 0 01.2-.7 4.34 4.34 0 011.7-2 8.53 8.53 0 013.5-1.3 5.52 5.52 0 012.2.1c.2 0 .4.1.6.1s.4.1.5.2a3.33 3.33 0 011 .6 5.48 5.48 0 011.6 1.8 6 6 0 01.6 2.2 6.56 6.56 0 01-.1 2 8.47 8.47 0 01-.4 1.7 15.43 15.43 0 01-.9 2.4 1.72 1.72 0 01-.2.9zm-11-5.7a9.81 9.81 0 000 2.7 6.88 6.88 0 00.2 1.3 3.49 3.49 0 00.5 1.3 8.26 8.26 0 00.7 1.3 2.65 2.65 0 00.5.6l.1.1.1.1.3.3c.4.3.7.7 1.1 1a14.8 14.8 0 001.3.8 15.25 15.25 0 002.5.9 4.1 4.1 0 001.1.1h.8a1.27 1.27 0 00.6-.1h.2a2.22 2.22 0 01-.7.4 5.44 5.44 0 01-2 .4 7.08 7.08 0 01-1.4-.1 4.42 4.42 0 01-1.5-.5 10.93 10.93 0 01-1.5-.8 13.44 13.44 0 01-1.4-1.1l-.3-.3-.1-.1-.1-.1-.1-.2a3 3 0 01-.5-.7 10.09 10.09 0 01-.7-1.5 4 4 0 01-.3-1.5 3.3 3.3 0 010-1.4 5 5 0 01.4-2 6.59 6.59 0 01.2-.9z" fill="#6ac9d0"/><path d="M85.25 93.35a4.2 4.2 0 01.2.5 1.42 1.42 0 00.2.6c.1.2.2.5.3.7a3 3 0 00.4.8 3.51 3.51 0 00.5.8c.2.3.4.5.6.8l.7.7c.2.3.5.4.8.7l.9.6a8.49 8.49 0 001.7.8 15.56 15.56 0 001.8.6h-.1c-.1 0-.2.1-.4.1a7.44 7.44 0 01-1.5 0 4.4 4.4 0 01-1-.2 7.6 7.6 0 01-1.1-.4 6.66 6.66 0 01-2.1-1.3l-.9-.9a3.88 3.88 0 01-.6-1.1 4.87 4.87 0 01-.4-1.1 4.4 4.4 0 01-.2-1v-.8c0-.2.1-.4.1-.6a.49.49 0 00.1-.3zm-.2-1.5s-.1-.3-.3-.8c-.1-.3-.2-.6-.3-1s-.1-.8-.1-1.3a9.15 9.15 0 01.1-1.6 12.09 12.09 0 01.5-1.8 9.15 9.15 0 01.9-1.7 10 10 0 011.4-1.5 16.29 16.29 0 011.7-1.1 3.55 3.55 0 01.9-.4l.9-.3c.3-.1.6-.1.9-.2h.9a7.77 7.77 0 011.6.2c.5.2.9.3 1.3.5a3.6 3.6 0 01.9.5 5.17 5.17 0 00.7.6 4.56 4.56 0 01-.8-.4 9.44 9.44 0 00-.9-.3c-.4-.1-.8-.1-1.2-.2a6.6 6.6 0 00-1.4.1 7.45 7.45 0 00-3.2 1 4.51 4.51 0 00-1.4 1 7.41 7.41 0 00-1.2 1.3 11 11 0 00-.9 1.4l-.6 1.5a8.87 8.87 0 00-.3 1.4c0 .4-.1.9-.1 1.2z" fill="#6ac9d0"/><path d="M87.05 80.65s.2-.2.7-.6a5.55 5.55 0 01.8-.6 6.35 6.35 0 011.2-.7 8.8 8.8 0 011.5-.5 11.27 11.27 0 011.8-.3h1.5l.5.1a10.56 10.56 0 011.9.6 9.91 9.91 0 011.7 1.1c.1.1.3.2.4.3l.3.4c.2.3.5.5.6.8s.3.5.5.8a6.89 6.89 0 00.3.8 4.71 4.71 0 01.4 1.6 6.15 6.15 0 01.1 1.3c0 .4-.1.7-.1 1a6.59 6.59 0 01-.2.9 6.17 6.17 0 00-.1-.9 3.75 3.75 0 00-.1-1 5.27 5.27 0 00-.3-1.2 7.54 7.54 0 00-.6-1.3 2.51 2.51 0 00-.4-.7c-.2-.2-.3-.4-.5-.6l-.6-.6-.6-.6a7.46 7.46 0 00-1.5-.9 10.41 10.41 0 00-1.6-.6c-.3-.1-.6-.1-.8-.2s-.6-.1-.8-.1a8.08 8.08 0 00-1.6.1 5.77 5.77 0 00-1.4.3c-.5.1-.8.3-1.2.4a3.92 3.92 0 00-.9.4 9.24 9.24 0 00-.9.5zm13.9 8.4a1.58 1.58 0 00.1.4 3.42 3.42 0 01.1 1.1 9.15 9.15 0 01-.1 1.6c-.1.3-.1.6-.2.9l-.3.9a5.6 5.6 0 01-1 1.5l-.6.6a2.09 2.09 0 01-.6.4c-.4.2-.8.3-1 .4a.58.58 0 00-.4.1l.3-.3A4.62 4.62 0 0098 96a4.44 4.44 0 00.8-1.1 4.35 4.35 0 00.4-.7c.1-.2.3-.5.4-.7l.6-1.5a10.26 10.26 0 00.4-1.4 6.21 6.21 0 01.3-1 2.81 2.81 0 00.1-.55zm-6.9 12.1a6.74 6.74 0 001.2-.4 7.6 7.6 0 001.1-.4l.6-.3.6-.3a1 1 0 00.5-.4c.2-.1.3-.3.5-.4s.3-.3.4-.4.2-.3.3-.4.2-.3.3-.4.1-.2.2-.3a1.24 1.24 0 01.2-.3v.4a3.08 3.08 0 01-.1.9 1.42 1.42 0 01-.2.6c-.1.2-.2.5-.3.7s-.3.4-.5.6a2.65 2.65 0 01-.6.5 2.51 2.51 0 01-.7.4 1.85 1.85 0 01-.7.2 6.64 6.64 0 01-1.3.1 3.17 3.17 0 01-1.5-.4z" fill="#6ac9d0"/><path d="M200.15 68.05h-28.6a1.11 1.11 0 01-1.1-1.1v-28.4a1.11 1.11 0 011.1-1.1h28.6a1.11 1.11 0 011.1 1.1V67a1.11 1.11 0 01-1.1 1.05z" style="isolation:isolate" fill="#6ac9d0" opacity=".25"/><path d="M191.55 60.55a.35.35 0 01-.2.1 1.17 1.17 0 01-.7.2 4.06 4.06 0 01-2.5-.4 6 6 0 01-1.5-.9 6.44 6.44 0 01-2.1-3.4 13 13 0 01-.4-2.1 4.87 4.87 0 01.1-1.2 2.13 2.13 0 01.7-1.2 2 2 0 01.8-.4h.7a.31.31 0 01.2.1 2.08 2.08 0 011 1.1 8.09 8.09 0 01.4 1.9 6.8 6.8 0 00.2 1.5 7.87 7.87 0 00.8 2.2c.3.5.5.8.5.8a.31.31 0 01-.2-.1 5.92 5.92 0 00-.6-.4 5.1 5.1 0 01-1.4-2.1 7.49 7.49 0 01-.5-1.6 7.49 7.49 0 00-.4-1.6.75.75 0 00-.3-.3h-.1a.1.1 0 00-.1.1 1.92 1.92 0 00-.3 1.2 11.27 11.27 0 00.3 1.8 4.92 4.92 0 00.6 1.7 4.19 4.19 0 00.9 1.4 10 10 0 001.1 1 6.23 6.23 0 002.1.8 6.59 6.59 0 00.9-.2z" fill="#6ac9d0"/><path d="M190.05 55.25a6.47 6.47 0 01-.2-1c-.2-.6-.3-1.5-.6-2.4a5.39 5.39 0 00-.7-1.3c-.2-.2-.4-.3-.6-.5-.1 0-.3-.2-.4-.2s-.2-.1-.4-.1a3.1 3.1 0 00-3.1.8 5.83 5.83 0 00-1.1 1.5 4.71 4.71 0 00-.4 1.7 9.15 9.15 0 00.1 1.7 10.31 10.31 0 001.1 2.7l.6.9.5.5.2.2a4.42 4.42 0 01-.9-.5 5.5 5.5 0 01-.9-.7 3.78 3.78 0 01-.9-1.2 6.76 6.76 0 01-1.1-3.7 6.56 6.56 0 01.4-2.3 6.41 6.41 0 011.3-1.9 4.32 4.32 0 012.2-1.2 3.91 3.91 0 012.4.2 2.19 2.19 0 01.5.3c.2.1.2.2.4.3a3 3 0 01.8.8 4.49 4.49 0 01.7 1.8 11.07 11.07 0 010 2.6 6.73 6.73 0 01.1 1z" fill="#6ac9d0"/><path d="M191 57.25a8.15 8.15 0 01.1-1c.1-.6.2-1.5.3-2.5a12.88 12.88 0 000-3.4 10.93 10.93 0 00-.5-1.7 4.89 4.89 0 00-1.2-1.3 2 2 0 00-.8-.4c-.2-.1-.3-.1-.4-.2s-.3-.1-.4-.1a11 11 0 00-1.8-.2 6.6 6.6 0 00-3.2.8 5.05 5.05 0 00-1.9 1.5 2.09 2.09 0 00-.4.6l-.1.2v-.3a2.54 2.54 0 01.2-.7 4.34 4.34 0 011.7-2 8.53 8.53 0 013.5-1.3 5.52 5.52 0 012.2.1c.2 0 .4.1.6.1s.4.1.5.2a3.33 3.33 0 011 .6 5.48 5.48 0 011.6 1.8 6 6 0 01.6 2.2 6.56 6.56 0 01-.1 2 8.47 8.47 0 01-.4 1.7 15.43 15.43 0 01-.9 2.4c-.1.5-.2.9-.2.9zm-11-5.8a9.81 9.81 0 000 2.7 6.88 6.88 0 00.2 1.3 3.49 3.49 0 00.5 1.3 8.26 8.26 0 00.7 1.3 2.65 2.65 0 00.5.6l.1.1.1.1.3.3c.4.3.7.7 1.1 1a14.8 14.8 0 001.3.8 15.25 15.25 0 002.5.9 4.1 4.1 0 001.1.1h.8a1.27 1.27 0 00.6-.1h.2a2.22 2.22 0 01-.7.4 5.44 5.44 0 01-2 .4 7.08 7.08 0 01-1.4-.1 4.42 4.42 0 01-1.5-.5 10.93 10.93 0 01-1.5-.8 13.44 13.44 0 01-1.4-1.1l-.3-.3-.1-.1-.1-.1-.1-.2a3 3 0 01-.5-.7 10.09 10.09 0 01-.7-1.5 4 4 0 01-.3-1.5 3.3 3.3 0 010-1.4 5 5 0 01.4-2 6.59 6.59 0 01.2-.9z" fill="#6ac9d0"/><path d="M178.25 56.25a4.2 4.2 0 01.2.5 1.42 1.42 0 00.2.6c.1.2.2.5.3.7a3 3 0 00.4.8 3.51 3.51 0 00.5.8c.2.3.4.5.6.8l.7.7c.2.3.5.4.8.7l.9.6a8.49 8.49 0 001.7.8 15.56 15.56 0 001.8.6h-.1c-.1 0-.2.1-.4.1a7.44 7.44 0 01-1.5 0 4.4 4.4 0 01-1-.2 7.6 7.6 0 01-1.1-.4 6.66 6.66 0 01-2.1-1.3l-.9-.9a3.88 3.88 0 01-.6-1.1 4.87 4.87 0 01-.4-1.1 4.4 4.4 0 01-.2-1v-.8c0-.2.1-.4.1-.6a1 1 0 01.1-.3zm-.2-1.5s-.1-.3-.3-.8c-.1-.3-.2-.6-.3-1s-.1-.8-.1-1.3a9.15 9.15 0 01.1-1.6 12.09 12.09 0 01.5-1.8 9.15 9.15 0 01.9-1.7 10 10 0 011.4-1.5A16.29 16.29 0 01182 44a3.55 3.55 0 01.9-.4l.9-.3c.3-.1.6-.1.9-.2h.9a7.77 7.77 0 011.6.2c.5.2.9.3 1.3.5a3.6 3.6 0 01.9.5 5.17 5.17 0 00.7.6 4.56 4.56 0 01-.8-.4 9.44 9.44 0 00-.9-.3c-.4-.1-.8-.1-1.2-.2a6.6 6.6 0 00-1.4.1 7.45 7.45 0 00-3.2 1 4.51 4.51 0 00-1.4 1 7.41 7.41 0 00-1.2 1.3 11 11 0 00-.9 1.4l-.6 1.5a8.87 8.87 0 00-.3 1.4c0 .4-.1.9-.1 1.2v1.9z" fill="#6ac9d0"/><path d="M180 43.55s.2-.2.7-.6a5.55 5.55 0 01.8-.6 6.35 6.35 0 011.2-.7 8.8 8.8 0 011.5-.5 11.27 11.27 0 011.8-.3h1.5l.5.1a10.56 10.56 0 011.9.6 9.91 9.91 0 011.7 1.1c.1.1.3.2.4.3l.3.4c.2.3.5.5.6.8s.3.5.5.8a6.89 6.89 0 00.3.8 4.71 4.71 0 01.4 1.6 6.15 6.15 0 01.1 1.3c0 .4-.1.7-.1 1a6.59 6.59 0 01-.2.9 6.17 6.17 0 00-.1-.9 3.75 3.75 0 00-.1-1 5.27 5.27 0 00-.3-1.2 7.54 7.54 0 00-.6-1.3 2.51 2.51 0 00-.4-.7c-.2-.2-.3-.4-.5-.6l-.6-.6-.6-.6a7.46 7.46 0 00-1.5-.9 10.41 10.41 0 00-1.6-.6c-.3-.1-.6-.1-.8-.2s-.6-.1-.8-.1a8.08 8.08 0 00-1.6.1 5.77 5.77 0 00-1.4.3c-.5.1-.8.3-1.2.4a3.92 3.92 0 00-.9.4 4.42 4.42 0 01-.9.5z" fill="#6ac9d0"/><path d="M144.35 105.25h-28.6a1.11 1.11 0 01-1.1-1.1v-28.4a1.11 1.11 0 011.1-1.1h28.6a1.11 1.11 0 011.1 1.1v28.4a1.11 1.11 0 01-1.1 1.1z" style="isolation:isolate" fill="#f59122" opacity=".25"/><path d="M129.15 92.05a.69.69 0 01-.3-.4 2.23 2.23 0 01-.4-1.3 2.75 2.75 0 01.4-1.9 2.58 2.58 0 01.9-.9 1.45 1.45 0 01.7-.2h.7a1.88 1.88 0 011.1.8 4.87 4.87 0 01.4 1.1 3.46 3.46 0 01-.2 1.8 3.58 3.58 0 01-.6 1.1l-.3.3a3.64 3.64 0 00.3-1.5 3.89 3.89 0 00-.2-1.5 3.33 3.33 0 00-.3-.6c-.2-.2-.3-.2-.4-.2h-.3a.35.35 0 01-.2.1c-.1.1-.3.2-.4.4a13.39 13.39 0 00-.6 1.2c-.1.4-.2.8-.3 1.1v.6z" fill="#f59122"/><path d="M127.05 91.25a.35.35 0 01-.1-.2 1.55 1.55 0 01-.2-.8 5 5 0 01.4-2.8 6.9 6.9 0 011.1-1.7 3.77 3.77 0 012.1-1 4 4 0 012.4.5 4.44 4.44 0 011.1.8c.3.3.5.7.8 1a5.33 5.33 0 01.6 2.4 4.87 4.87 0 01-.1 1.2c-.1.2-.1.4-.2.6l-.2.6a6.66 6.66 0 01-2.7 3 4.71 4.71 0 01-1.5.6 5.74 5.74 0 01-1.2.1 1.92 1.92 0 01-1-.2 2.69 2.69 0 001 0 5.54 5.54 0 002.3-1 6.89 6.89 0 002.1-2.8l.1-.4a4.33 4.33 0 01.1-.5 3.08 3.08 0 00.1-1 3.74 3.74 0 00-.5-1.8 4.17 4.17 0 00-.6-.8 1.79 1.79 0 00-.7-.5 3.81 3.81 0 00-1.7-.4 4 4 0 00-1.5.6 3.78 3.78 0 00-1 1.2 8.06 8.06 0 00-.9 2.4 1.59 1.59 0 00-.1.9z" fill="#f59122"/><path d="M135.55 86.75a1.09 1.09 0 01-.2-.4c-.1-.1-.2-.3-.3-.4a1.76 1.76 0 00-.4-.5c-.2-.2-.3-.4-.5-.6l-.6-.6c-.2-.2-.5-.3-.7-.5a2 2 0 00-.8-.4 3 3 0 00-.8-.4c-.3-.1-.5-.2-.8-.3s-.5-.1-.8-.2-.5-.1-.7-.1h-1.1a1.21 1.21 0 00-.5.1 3 3 0 01.4-.3 2.19 2.19 0 01.5-.3 1.45 1.45 0 01.7-.2 2.2 2.2 0 01.8-.1h1a3.55 3.55 0 011 .2 4.18 4.18 0 011 .4l.9.6a4.62 4.62 0 01.7.7 5.55 5.55 0 01.6.8 2 2 0 01.4.8 1.85 1.85 0 01.2.7 1.09 1.09 0 01.1.5 2.81 2.81 0 00-.1.5z" fill="#f59122"/><path d="M129.55 96.45h.7a4.49 4.49 0 001.7-.4 5.79 5.79 0 001.9-1.4 7.63 7.63 0 001.5-2.3 13.38 13.38 0 00.9-2.6 5.7 5.7 0 00.1-1.3v-1.2q-.15-1.05-.3-1.8c-.1-.4-.2-.7-.2-.7a2.48 2.48 0 01.4.6 9.76 9.76 0 01.7 1.7 5.07 5.07 0 01.2 1.3 6.55 6.55 0 010 1.4 11.14 11.14 0 01-.8 3 7.9 7.9 0 01-1.9 2.5 6.36 6.36 0 01-2.4 1.3 4 4 0 01-1.9 0 4.33 4.33 0 01-.5-.1z" fill="#f59122"/><path d="M124 88.05a20.2 20.2 0 00.3 3 10.14 10.14 0 00.9 2.8 10 10 0 00.8 1.4 12 12 0 001.1 1.2 15 15 0 011.3 1.1c.4.3.9.6 1.4.9a9.14 9.14 0 001.4.7c.5.2.9.3 1.3.5a17.07 17.07 0 012.1.7 3.33 3.33 0 01.6.3.31.31 0 00.2.1h-.8a19.42 19.42 0 01-2.2-.1 9.48 9.48 0 01-3.1-.8 8.27 8.27 0 01-1.6-.9l-1.5-1.2a6.39 6.39 0 01-1.3-1.5 5.31 5.31 0 01-.8-1.7 9.63 9.63 0 01-.5-3.2 11.8 11.8 0 01.2-2.2 6.62 6.62 0 01.2-1.1z" fill="#f59122"/><path d="M122.35 93.25a4.2 4.2 0 01.2.5c.1.2.1.4.2.6s.2.5.3.7.3.5.4.8.3.5.5.8a20 20 0 001.4 1.6 5 5 0 00.8.7l.9.6a4.05 4.05 0 00.9.5 5.94 5.94 0 01.8.4c.5.2 1 .4 1.3.5a1.75 1.75 0 00.5.1h-.1c-.1 0-.2.1-.4.1a3.75 3.75 0 01-1.5 0 4.4 4.4 0 01-1-.2 4.18 4.18 0 01-1-.4 6.61 6.61 0 01-2-1.4l-.9-.9a6.07 6.07 0 01-.7-1 4.87 4.87 0 01-.4-1.1 4.4 4.4 0 01-.2-1v-.9a3.54 3.54 0 01.1-.6.35.35 0 01-.1-.4zm-.2-1.7a3.14 3.14 0 01-.1-.9c0-.3-.1-.6-.1-1v-1.3c0-.5.1-1 .1-1.6s.3-1.1.4-1.7a3.55 3.55 0 01.4-.9l.2-.5.3-.4a6.53 6.53 0 011.3-1.6l.8-.6c.3-.2.6-.3.9-.5s.6-.2.9-.4a3 3 0 011-.2 5.43 5.43 0 011.8 0 7.49 7.49 0 011.6.4 1.85 1.85 0 00.7.2l.6.3a9 9 0 00.9.5 4 4 0 01.7.5s-.3-.1-.8-.3l-.9-.3a1.42 1.42 0 01-.6-.2c-.2 0-.4-.1-.6-.1a6.15 6.15 0 00-1.4-.1 6.32 6.32 0 00-3.1.8c-.2.1-.5.3-.7.4l-.7.5a6.89 6.89 0 00-1.1 1.3 7.14 7.14 0 00-.8 1.5 8.8 8.8 0 00-.5 1.5c-.1.5-.3 1-.4 1.4a7.38 7.38 0 00-.2 1.2c0 .4-.1.7-.1 1a2.65 2.65 0 00-.5 1.1z" fill="#f59122"/><path d="M133 80.05a1.75 1.75 0 01.5.1c.3.1.8.3 1.3.5.2.2.5.3.8.6s.5.5.8.7.5.6.7.9.4.7.6 1 .3.7.4 1.1.2.8.3 1.1a6.89 6.89 0 01.1 2c0 .6-.1 1.1-.1 1.4a1.75 1.75 0 00-.1.5 1.21 1.21 0 01-.1-.5 13 13 0 01-.3-1.3 2.92 2.92 0 01-.2-.9c-.1-.3-.2-.6-.3-1a15.87 15.87 0 00-.7-2 14.51 14.51 0 00-1-1.8c-.2-.3-.4-.5-.6-.8l-.6-.6a2.65 2.65 0 00-.6-.5c-.2-.1-.3-.3-.5-.4a1 1 0 01-.4-.1z" fill="#f59122"/><path d="M123.35 81.45l.3-.6a2.09 2.09 0 01.4-.6 4.62 4.62 0 01.7-.7 5.5 5.5 0 01.9-.7 10.54 10.54 0 011.1-.7 5 5 0 011.3-.5c.5-.1 1-.2 1.4-.3H131a5.77 5.77 0 011.4.3c.4.2.9.3 1.2.5a3.59 3.59 0 011 .7 4.62 4.62 0 01.7.7c.2.2.3.4.5.6a2.83 2.83 0 01.3.6 2.22 2.22 0 01-.5-.4c-.2-.1-.3-.3-.6-.4a9.22 9.22 0 01-.8-.5 10.37 10.37 0 00-1-.4c-.3-.1-.7-.2-1.1-.3a4.87 4.87 0 00-1.2-.1h-1.3c-.4.1-.9.1-1.3.2l-1.2.3a11.73 11.73 0 00-1.1.5 7.26 7.26 0 00-.9.5c-.3.2-.5.3-.8.5a2.09 2.09 0 01-.6.4 1.87 1.87 0 01-.3.4zm2.7 9.9a1.24 1.24 0 01.2.3c.1.1.2.2.2.3l.3.3c.1.1.3.2.4.4a2.19 2.19 0 00.5.3c.2.1.3.1.5.2s.3 0 .5 0a4.33 4.33 0 00.5-.1 1.33 1.33 0 00.5-.3.78.78 0 00.4-.4c.1-.1.2-.3.3-.4s.1-.3.2-.4.1-.3.1-.4v-.4a1.24 1.24 0 01.2.3c.1.1.1.2.2.4a1.27 1.27 0 01.1.6c0 .2-.1.5-.1.7a2.51 2.51 0 01-.4.7 1.79 1.79 0 01-.7.5l-.9.3a2.77 2.77 0 01-.9-.1 5.94 5.94 0 01-.8-.4 2.65 2.65 0 01-.5-.6c-.1-.2-.3-.4-.3-.6a1.83 1.83 0 01-.2-.9c-.3-.2-.3-.3-.3-.3zm6 6.9a.62.62 0 00.4-.2 1.69 1.69 0 00.5-.2l.6-.3a2.09 2.09 0 00.6-.4c.2-.1.4-.3.7-.5a13.58 13.58 0 001.2-1.2 3 3 0 00.5-.7 4.35 4.35 0 01.4-.7 9.38 9.38 0 00.6-1.5c.1-.2.1-.4.2-.6a4.33 4.33 0 01.1-.5 1.58 1.58 0 00.1-.4 1 1 0 00.1.4 4.12 4.12 0 01.1 1.2 2.2 2.2 0 01-.1.8 2.92 2.92 0 01-.2.9 6.37 6.37 0 01-1 1.8 2.7 2.7 0 01-.8.7 5.55 5.55 0 00-.8.6 5.89 5.89 0 01-2.9.7c-.2 0-.3 0-.3-.1.1.2 0 .2 0 .2zm-6.6-8.5a1.09 1.09 0 01-.2-.4 3.5 3.5 0 01-.3-1.2 2.72 2.72 0 010-.9 4.4 4.4 0 01.2-1 4.18 4.18 0 01.4-1l.6-.9a5.5 5.5 0 01.9-.7 4.18 4.18 0 011-.4 3.55 3.55 0 011-.2h.9c.3 0 .5.1.7.1s.4.1.5.2a1.09 1.09 0 01.4.2h-1c-.2 0-.4.1-.6.1a1.85 1.85 0 00-.7.2c-.3 0-.5.2-.8.3a2.51 2.51 0 00-.7.4c-.2.1-.4.4-.6.5a1.79 1.79 0 00-.5.7 2.51 2.51 0 00-.4.7c-.1.3-.2.5-.3.8a6.37 6.37 0 01-.2.7 5.74 5.74 0 00-.1 1.2 2.52 2.52 0 00-.2.6zm9.4 9.4a7.23 7.23 0 01.7-.4 4.13 4.13 0 001.1-.7c.1-.1.2-.1.3-.2s.2-.1.3-.2l.5-.5c.2-.1.3-.3.4-.4a.31.31 0 01.2-.1 1.69 1.69 0 010 .8 1.6 1.6 0 01-.3.8c-.1.3-.4.5-.6.7a1.8 1.8 0 01-.9.4 1.39 1.39 0 01-.9 0 1.17 1.17 0 01-.8-.2z" fill="#f59122"/><path d="M181.45 105.15h-28.3A1.22 1.22 0 01152 104V75.65a1.11 1.11 0 011.1-1.1h28.4a1.22 1.22 0 011.2 1.2v28.1a1.24 1.24 0 01-1.25 1.3z" style="isolation:isolate" fill="#ef5034" opacity=".25"/><path d="M163.05 68h-28.6a1.11 1.11 0 01-1.1-1.1V38.55a1.11 1.11 0 011.1-1.1h28.6a1.11 1.11 0 011.1 1.1V67a1 1 0 01-1.1 1z" style="isolation:isolate" fill="#6ac9d0" opacity=".25"/><path d="M167.45 93.05s-.1 0-.4-.2a5.93 5.93 0 01-.8-.8 5 5 0 01-.5-1.6 1.8 1.8 0 01.2-1 1.5 1.5 0 01.7-.9l.2-.2.1-.1h.1c.1-.1.3-.1.5-.2a2 2 0 011.1.1 1.41 1.41 0 01.7.6 1.08 1.08 0 01.3.7 4.48 4.48 0 01.1 1.1.58.58 0 01-.1.4 1.58 1.58 0 00-.1-.4 2.51 2.51 0 00-.5-.8 1.33 1.33 0 00-.9-.6c-.2 0-.3 0-.4.1s-.1 0-.2.1l-.1.1-.1.1a2.32 2.32 0 00-.4 1 4.82 4.82 0 000 1.2 2 2 0 00.2.9c.3.2.3.4.3.4z" fill="#ef5034"/><path d="M165.15 92.25l-.2-.2a5.92 5.92 0 01-.4-.6 7 7 0 01-.4-2.4 5 5 0 01.3-1.6 3.91 3.91 0 011-1.6 4 4 0 011.9-1.1 4.19 4.19 0 014 1.5 5.17 5.17 0 01.8 1.9 7.34 7.34 0 01-.3 3.4 7.11 7.11 0 01-1.1 2l-.6.6a4.77 4.77 0 00.4-.8 12.72 12.72 0 00.7-2.1 5.74 5.74 0 00-.1-2.9 3.69 3.69 0 00-.7-1.4 2 2 0 00-1.2-.8 2.57 2.57 0 00-1.5-.1 2.28 2.28 0 00-1.2.6 6.21 6.21 0 00-1.4 2.5 5.47 5.47 0 00-.2 2.1 1.92 1.92 0 00.2 1zm7.2-7.2l-.3-.3-.7-.7c-.1-.1-.3-.2-.5-.4l-.6-.3a4.88 4.88 0 00-.7-.3c-.2-.1-.5-.1-.7-.2a7.72 7.72 0 00-1.5-.2h-1.3c-.4 0-.8.1-1 .1a.58.58 0 00-.4.1l.3-.3a1.38 1.38 0 01.4-.3c.2-.1.3-.2.5-.3a5.27 5.27 0 011.5-.5 2.72 2.72 0 01.9 0c.3 0 .6.1.9.1l.9.3a3.51 3.51 0 01.8.5c.2.2.5.4.6.6a2.09 2.09 0 01.4.6l.3.6a.9.9 0 01.1.5 1 1 0 01.1.4z" fill="#ef5034"/><path d="M167.45 96.55h.7c.2 0 .5-.1.8-.1.1 0 .3-.1.4-.1s.3-.1.5-.2a4.7 4.7 0 00.9-.6l.9-.9a2.18 2.18 0 01.4-.5 2.09 2.09 0 01.4-.6c.2-.4.4-.8.6-1.3s.3-.9.5-1.3.2-.9.3-1.3.1-.9.1-1.3a4.87 4.87 0 00-.1-1.2q-.15-1.05-.3-1.8c-.1-.4-.2-.7-.2-.7l.5.5a6.5 6.5 0 01.9 1.7c.1.4.2.8.3 1.3a7.08 7.08 0 01.1 1.5 8.7 8.7 0 01-.7 3.1c-.2.5-.5 1-.7 1.4a4 4 0 01-1 1.2 4.7 4.7 0 01-1.2.9 5 5 0 01-1.3.5 4.48 4.48 0 01-1.1.1c-.3 0-.6-.1-.8-.1a3.53 3.53 0 01-.9-.2z" fill="#ef5034"/><path d="M161.35 88.35v.8a9.54 9.54 0 00.3 2.1 6.82 6.82 0 001.2 2.6 12 12 0 001.1 1.2 17.1 17.1 0 001.4 1.1 22.8 22.8 0 003 1.7c1 .5 2 .9 2.8 1.3a7.77 7.77 0 011.9 1.3c.2.2.3.4.4.5a.31.31 0 01.1.2 4 4 0 00-.7-.5 8.15 8.15 0 00-2-.8 26.28 26.28 0 01-3-1 17.26 17.26 0 01-3.3-1.7l-1.5-1.2a5.66 5.66 0 01-1.2-1.5 5.58 5.58 0 01-.7-1.6 9 9 0 01-.3-1.6 7.19 7.19 0 01.2-2.3 2.83 2.83 0 00.3-.6z" fill="#ef5034"/><path d="M160.15 94.15a3.22 3.22 0 01.2.6c.1.2.1.4.2.6a5.74 5.74 0 00.4.7c.2.2.3.5.6.7l.7.7c.1.1.3.2.4.3s.3.2.5.3.7.4 1 .6a5.36 5.36 0 001.1.5c.4.2.7.3 1.1.5.7.3 1.4.5 2 .7 1.2.4 2 .7 2 .7s-.9.1-2.1.1a6.43 6.43 0 01-2.2-.4 5.64 5.64 0 01-1.2-.4 6.12 6.12 0 01-1.2-.5 4.13 4.13 0 01-1.1-.7 9 9 0 01-1-.9 6.07 6.07 0 01-.7-1c-.2-.3-.3-.7-.5-1s-.1-.7-.2-.9a1.63 1.63 0 010-.7.69.69 0 010-.5zm-.4-2.2s-.1-.3-.3-.8c-.1-.3-.2-.6-.3-1s-.1-.8-.2-1.3a8.53 8.53 0 010-1.6 10.1 10.1 0 01.3-1.7 13.36 13.36 0 01.7-1.8 6.1 6.1 0 011.2-1.6 10.1 10.1 0 011.6-1.3c.3-.2.6-.3.9-.5a3.18 3.18 0 01.9-.3 2.92 2.92 0 01.9-.2c.3 0 .6-.1.9-.1a8.08 8.08 0 011.6.1 5 5 0 011.3.4 3.6 3.6 0 01.9.5 4 4 0 01.7.5s-.3-.1-.8-.3c-.2-.1-.6-.1-.9-.2a4.87 4.87 0 00-1.2-.1h-.7a1.7 1.7 0 00-.7.1c-.2.1-.5.1-.7.2s-.5.2-.7.3a4.88 4.88 0 00-.7.3 2.51 2.51 0 00-.7.4 6.89 6.89 0 00-1.3 1.1 4.51 4.51 0 00-1 1.4 10.09 10.09 0 00-.7 1.5 8.33 8.33 0 00-.4 1.5 7.84 7.84 0 00-.2 1.4c0 .4-.1.9-.1 1.2v1a2.32 2.32 0 00-.3.95z" fill="#ef5034"/><path d="M160 81.85s.2-.3.5-.8a5.5 5.5 0 01.7-.9c.2-.2.3-.4.5-.5s.4-.3.6-.5a6.08 6.08 0 011.6-.9 6.53 6.53 0 012-.5 8.1 8.1 0 012.2 0c.4.1.8.1 1.1.2s.7.3 1.1.4a9.29 9.29 0 011 .5 3.11 3.11 0 01.9.7 3 3 0 01.8.8 5.72 5.72 0 00.7.8 16.18 16.18 0 011 1.8c.2.6.4 1.2.6 1.7l.3 1.5a4.82 4.82 0 010 1.2v1s-.1-.3-.3-1a6.15 6.15 0 00-.3-1.1c-.2-.4-.3-.9-.5-1.4s-.5-1-.7-1.5a1.79 1.79 0 00-.5-.7c-.2-.2-.3-.5-.6-.7a4.62 4.62 0 00-.7-.7 5.55 5.55 0 00-.8-.6 2.18 2.18 0 00-.8-.5 1.8 1.8 0 00-.9-.4c-.3-.1-.6-.3-.9-.4s-.6-.1-1-.2a6.08 6.08 0 00-1.9-.1 11.27 11.27 0 00-1.8.3c-.3.1-.5.2-.8.3a4.88 4.88 0 00-.7.3 3.46 3.46 0 00-1.2.7 3.11 3.11 0 00-.9.7c-.1.2-.3.5-.3.5zm3.2 9.7l.3.3a1.38 1.38 0 01.3.4c.1.1.3.2.4.4a2.18 2.18 0 00.5.4 2.09 2.09 0 00.6.4l.6.3a1.45 1.45 0 00.7.2c.2.1.4 0 .7 0h.3l.3-.1c.2-.1.4-.1.5-.3.1 0 .1-.1.2-.2l.2-.2a.76.76 0 00.2-.5c0-.2.1-.3.1-.4v-.4a1.24 1.24 0 01.2.3.76.76 0 01.2.5 1.48 1.48 0 01.1.7 1.14 1.14 0 01-.3.8 2.34 2.34 0 01-.7.7c-.2.1-.3.1-.5.2a.9.9 0 01-.5.1 3.35 3.35 0 01-1 0 2.93 2.93 0 01-1-.3 5.58 5.58 0 01-.8-.5 4.35 4.35 0 01-.6-.7 1.61 1.61 0 01-.4-.7 2.61 2.61 0 01-.3-1.1c-.35-.1-.35-.3-.35-.3zm8 6.6s.4-.4.9-.8a3 3 0 00.8-.8 3.92 3.92 0 00.8-1c.2-.2.3-.4.4-.5a1 1 0 01.4-.5 2.19 2.19 0 01.3-.5c.1-.2.2-.3.3-.5s.2-.3.2-.4.1-.3.2-.3a1.24 1.24 0 01.2-.3 1.58 1.58 0 00.1.4c0 .2.1.6.1 1a1.27 1.27 0 01-.1.6c-.1.2-.1.5-.2.7s-.2.5-.3.7-.3.5-.4.7a4.26 4.26 0 01-1.2 1.1 3.38 3.38 0 01-1.2.6l-1.3-.2z" fill="#ef5034"/><path d="M163 90.05a3 3 0 01-.3-.4 8.34 8.34 0 01-.4-1.2c0-.3-.1-.6-.1-.9a3.75 3.75 0 01.1-1c.1-.3.2-.7.3-1a5.3 5.3 0 01.6-1 3.45 3.45 0 01.9-.8c.3-.2.7-.3 1-.5a3.55 3.55 0 011-.2h.9a10.38 10.38 0 011.2.3 1.09 1.09 0 01.4.2 1.75 1.75 0 00-.5.1 4.33 4.33 0 01-.5.1c-.2 0-.4.1-.6.1s-.5.2-.7.2a4.88 4.88 0 00-.7.3c-.2.2-.5.3-.7.5l-.6.6a4.23 4.23 0 00-.5.7c-.1.2-.3.5-.4.7a2.35 2.35 0 00-.2.8 6.37 6.37 0 01-.2.7c0 .2-.1.5-.1.6v.5a2.8 2.8 0 01.1.6zm10.5 9.5a1.34 1.34 0 01.1-.5.76.76 0 01.2-.4c.1-.1.2-.2.2-.3.2-.2.4-.2.7-.3h.5a1.21 1.21 0 01.1.5c0 .2-.1.3-.1.5a1.38 1.38 0 01-.3.4 1.61 1.61 0 01-.9.3 4.2 4.2 0 01-.55-.2z" fill="#ef5034"/><path d="M125.85 68h-28.6a1.11 1.11 0 01-1.1-1.1V38.55a1.11 1.11 0 011.1-1.1h28.6a1.11 1.11 0 011.1 1.1V67a1 1 0 01-1.1 1z" style="isolation:isolate" fill="#469da1" opacity=".25"/><path d="M105.85 60.45a1.31 1.31 0 00.9.1 4.26 4.26 0 002.1-.8 5.24 5.24 0 001.1-1 4.19 4.19 0 00.9-1.4 8.51 8.51 0 00.6-1.7 13.49 13.49 0 00.3-1.8c0-.6-.1-1.1-.3-1.2l-.1-.1h-.1a.75.75 0 00-.3.3 6.22 6.22 0 00-.4 1.6c-.2.6-.3 1.1-.5 1.6a6.3 6.3 0 01-1.4 2.1 2.09 2.09 0 01-.6.4.31.31 0 01-.2.1s.2-.3.5-.8a6.81 6.81 0 00.8-2.2 7.72 7.72 0 00.2-1.5 8.09 8.09 0 01.4-1.9 2.08 2.08 0 011-1.1.35.35 0 00.2-.1h.7a2 2 0 01.8.4 2.13 2.13 0 01.7 1.2 4.87 4.87 0 01.1 1.2 13 13 0 01-.4 2.1 10.84 10.84 0 01-.8 1.9 6.39 6.39 0 01-1.3 1.5 6 6 0 01-1.5.9 5 5 0 01-2.5.4 6.37 6.37 0 01-.7-.2.14.14 0 01-.2 0z" fill="#469da1"/><path d="M107.35 55.15a6.73 6.73 0 00-.1-1 22.08 22.08 0 010-2.6 3.39 3.39 0 01.7-1.8 3 3 0 01.8-.8 1.38 1.38 0 00.4-.3 2.19 2.19 0 00.5-.3 3.91 3.91 0 012.4-.2 4.77 4.77 0 012.2 1.2 4.07 4.07 0 011.3 1.9 6.2 6.2 0 01.4 2.3 7 7 0 01-1.1 3.7 6.23 6.23 0 01-.9 1.2 2.76 2.76 0 01-.9.7 2.64 2.64 0 01-.9.5l.2-.2.5-.5a3.49 3.49 0 00.6-.9l.6-1.2c.2-.5.3-1 .5-1.5a9.7 9.7 0 00.1-1.7 4.71 4.71 0 00-.4-1.7 4.18 4.18 0 00-1.1-1.5 3.1 3.1 0 00-3.1-.8c-.1 0-.2.1-.4.1s-.3.2-.4.2a2.65 2.65 0 00-.6.5 5.39 5.39 0 00-.7 1.3c-.3.9-.4 1.8-.6 2.4a2.69 2.69 0 010 1z" fill="#469da1"/><path d="M106.45 57.15a4.11 4.11 0 01-.4-.9c-.2-.6-.6-1.4-.9-2.4a8.47 8.47 0 01-.4-1.7 6.56 6.56 0 01-.1-2 6 6 0 01.6-2.2 5.48 5.48 0 011.6-1.8c.3-.2.7-.4 1-.6s.3-.1.5-.2a1.27 1.27 0 01.6-.1 8.31 8.31 0 012.2-.1 8.53 8.53 0 013.5 1.3 4.34 4.34 0 011.7 2 2.54 2.54 0 01.2.7v.3a.31.31 0 00-.1-.2 6.13 6.13 0 00-.4-.6 5.21 5.21 0 00-1.9-1.5 10 10 0 00-3.2-.8 5.54 5.54 0 00-1.8.2c-.1 0-.3.1-.4.1a.76.76 0 00-.4.2 5.94 5.94 0 01-.8.4 3.74 3.74 0 00-1.2 1.3 3.37 3.37 0 00-.5 1.7 12.88 12.88 0 000 3.4c.1 1 .3 1.9.3 2.5a2.48 2.48 0 01.3 1zm11-5.7s.1.2.3.7.3 1.2.4 2v1.4l-.3 1.5a10.09 10.09 0 01-.7 1.5 1.79 1.79 0 01-.5.7l-.1.2-.1.1-.1.1-.3.3a7.55 7.55 0 01-1.4 1.1 10.93 10.93 0 01-1.5.8 8.8 8.8 0 01-1.5.5 7.08 7.08 0 01-1.4.1 4.64 4.64 0 01-2-.4 2.22 2.22 0 01-.7-.4h.2a1.76 1.76 0 01.6.1h.8c.3 0 .7-.1 1.1-.1a9.49 9.49 0 002.5-.9 9.13 9.13 0 001.3-.8 5.24 5.24 0 001.1-1l.3-.3.1-.1.1-.1c.2-.2.3-.4.5-.6a5.39 5.39 0 00.7-1.3c.2-.4.3-.9.5-1.3a5.85 5.85 0 00.2-1.3 11.09 11.09 0 00-.1-2.5z" fill="#469da1"/><path d="M119.15 56.25a1.75 1.75 0 00.1.5c0 .2.1.4.1.6v.8a4.4 4.4 0 01-.2 1 4.87 4.87 0 01-.4 1.1c-.2.4-.4.7-.6 1.1s-.5.7-.9.9a6.66 6.66 0 01-2.1 1.3 4.87 4.87 0 01-1.1.4c-.3.1-.7.1-1 .2a7.44 7.44 0 01-1.5 0c-.2 0-.3-.1-.4-.1h-.1a15.56 15.56 0 001.8-.6c.5-.2 1.1-.5 1.7-.8l.9-.6a2.7 2.7 0 00.8-.7 4.62 4.62 0 00.7-.7c.2-.3.4-.5.6-.8a5.58 5.58 0 01.5-.8c.1-.3.3-.5.4-.8a4.88 4.88 0 01.3-.7c.1-.2.1-.4.2-.6a2.26 2.26 0 00.2-.7zm.2-1.5v-1.9c0-.4-.1-.8-.1-1.2a7 7 0 00-.3-1.4 9.38 9.38 0 00-.6-1.5 6.71 6.71 0 00-.9-1.4 7.41 7.41 0 00-1.2-1.3c-.5-.3-.9-.7-1.4-1a7.74 7.74 0 00-1.6-.7 9 9 0 00-1.6-.3c-.5-.1-1 0-1.4-.1-.4.1-.9.1-1.2.2a9.44 9.44 0 00-.9.3 4.77 4.77 0 00-.8.4s.2-.2.7-.6a3.6 3.6 0 01.9-.5c.4-.2.8-.3 1.3-.5a7.77 7.77 0 011.6-.2h.9a2.92 2.92 0 01.9.2l.9.3a3.55 3.55 0 01.9.4 8.32 8.32 0 013.1 2.6 7 7 0 01.9 1.7 12.09 12.09 0 01.5 1.8c0 .6.1 1.1.1 1.6s-.1 1-.1 1.3-.2.7-.3 1c-.2.5-.3.8-.3.8z" fill="#469da1"/><path d="M117.45 43.45a4.56 4.56 0 01-.8-.4 7.93 7.93 0 00-.9-.4c-.4-.1-.7-.3-1.2-.4s-.9-.2-1.4-.3a8.6 8.6 0 00-1.6-.1c-.3 0-.6.1-.8.1a1.88 1.88 0 00-.8.2 4.42 4.42 0 00-1.6.6 11.91 11.91 0 00-1.5.9l-.6.6-.6.6c-.2.2-.3.4-.5.6a2.51 2.51 0 00-.4.7 7.54 7.54 0 00-.6 1.3 5.27 5.27 0 00-.3 1.2 3.75 3.75 0 00-.1 1 6.17 6.17 0 00-.1.9 6.59 6.59 0 01-.2-.9c0-.3-.1-.6-.1-1a5.7 5.7 0 01.1-1.3 12.44 12.44 0 01.4-1.6 6.89 6.89 0 01.3-.8c.2-.3.3-.5.5-.8s.4-.5.6-.8l.3-.4c.1-.1.3-.2.4-.3a6.19 6.19 0 011.7-1.1 13.89 13.89 0 011.9-.6l.5-.1h1.5a5.66 5.66 0 011.8.3 5.27 5.27 0 011.5.5 4.73 4.73 0 011.2.7 2.76 2.76 0 01.8.6 6.12 6.12 0 01.6.5zm-14 8.4a.58.58 0 01.1.4 6.21 6.21 0 01.3 1c.1.4.3.9.4 1.4a9.38 9.38 0 00.6 1.5 1.61 1.61 0 00.4.7 2.51 2.51 0 00.4.7c.3.4.6.8.8 1.1a4.51 4.51 0 00.7.7l.3.3a1.58 1.58 0 01-.4-.1 6.89 6.89 0 01-1-.4c-.2-.1-.4-.3-.6-.4l-.6-.6a7.84 7.84 0 01-1-1.5l-.3-.9c-.1-.3-.1-.6-.2-.9a9.15 9.15 0 01-.1-1.6c0-.5.1-.8.1-1.1a.49.49 0 00.1-.3zm7 12.2a4.36 4.36 0 01-2.6.2c-.2-.1-.5-.1-.7-.2a2.51 2.51 0 01-.7-.4c-.2-.2-.5-.3-.6-.5a2.65 2.65 0 01-.5-.6c-.2-.2-.2-.4-.3-.7a1.42 1.42 0 01-.2-.6 3.44 3.44 0 01-.1-.9V60a1.24 1.24 0 01.2.3c.1.1.1.2.2.3s.2.3.3.4.2.3.3.4.2.3.4.4a2.18 2.18 0 00.5.4c.2.1.3.3.5.4l.6.3.6.3a7.6 7.6 0 001.1.4 7.91 7.91 0 001 .5z" fill="#469da1"/><path d="M88.65 68h-28.6a1.11 1.11 0 01-1.1-1.1V38.55a1.11 1.11 0 011.1-1.1h28.6a1.11 1.11 0 011.1 1.1V67a1.09 1.09 0 01-1.1 1z" style="isolation:isolate" fill="#ef5034" opacity=".25"/><path d="M77.75 54.05a.58.58 0 01-.4.1 4.14 4.14 0 01-1-.1 2.37 2.37 0 01-1.2-.9 2 2 0 01-.4-.8 1.45 1.45 0 01.1-1.1 1 1 0 01.4-.5l.1-.1c.1-.1.1 0 .1-.1l.2-.1a1.8 1.8 0 011-.2 2 2 0 01.8.4 2.09 2.09 0 01.4.6 1.83 1.83 0 01.2.9v.3a1.24 1.24 0 01-.2-.3c-.1-.2-.3-.4-.5-.7a1.23 1.23 0 00-.8-.4c-.1 0-.2.1-.3.1l-.1.1a.1.1 0 01-.1.1 1.18 1.18 0 00.1.8 2.41 2.41 0 00.6.8c.2.2.5.4.6.5.3.6.4.6.4.6z" fill="#ef5034"/><path d="M78.65 49.85a5.2 5.2 0 01-.5-.3 3.75 3.75 0 00-1.4-.5 2.89 2.89 0 00-1.8.3c-.1.1-.3.2-.4.3s-.3.2-.4.4a1.78 1.78 0 00-.4 1 3.48 3.48 0 00.4 2.2 4.17 4.17 0 001.3 1.6 5.05 5.05 0 001.3.8 1.19 1.19 0 00.6.2 2.8 2.8 0 01-.6-.1 5.42 5.42 0 01-1.6-.6 4 4 0 01-1.7-1.7 4.36 4.36 0 01-.7-2.8 3.51 3.51 0 01.6-1.4c.1-.2.4-.4.5-.6a2.09 2.09 0 01.6-.4 3.19 3.19 0 011.4-.3 4.3 4.3 0 011.2.2 3.27 3.27 0 011.4 1.1c.1.2.2.3.2.4v.2zm1.3-2.1l-.4-.2a9.29 9.29 0 00-1-.5 1.45 1.45 0 00-.7-.2c-.2-.1-.5-.1-.8-.2a9.15 9.15 0 00-1.7-.1 8.81 8.81 0 00-1.7.2c-.3.1-.5.1-.8.2s-.5.2-.7.3l-1 .5-.4.2.2-.4a2.19 2.19 0 00.3-.5 1.21 1.21 0 01.5-.5 5.6 5.6 0 011.5-1 2.93 2.93 0 011-.3c.3-.1.7-.1 1.1-.2a4.1 4.1 0 011.1.1c.4 0 .7.2 1 .2a3.55 3.55 0 01.9.4 1.79 1.79 0 01.7.5l.5.5c.1.2.2.3.3.5 0 .4.15.5.15.5zm-7.4 15a6.31 6.31 0 011.7-.7 8.47 8.47 0 011.7-.4 12.86 12.86 0 001.9-.4c.3-.1.6-.1.9-.2a6.89 6.89 0 00.8-.3 4.88 4.88 0 00.7-.3 2.09 2.09 0 00.6-.4 1 1 0 00.4-.5 1.38 1.38 0 01.3-.4 1.09 1.09 0 01.2-.4 1.75 1.75 0 00.1.5v.6a2 2 0 01-.3.8 2.18 2.18 0 01-.5.8 5.72 5.72 0 01-.8.7 7.61 7.61 0 01-2.1.8 13 13 0 01-3.9.1c-.9-.2-1.7-.3-1.7-.3zm-3.3-13.5a2.8 2.8 0 01-.1.6c0 .2-.1.4-.1.7a2.77 2.77 0 01-.1.9 3.4 3.4 0 00.1 1c.1.4.1.7.2 1.1.1.2.1.4.2.6a1.69 1.69 0 01.2.5c.2.4.4.7.6 1.1s.5.7.7 1a6.47 6.47 0 00.8.9l.8.8c.3.2.5.5.8.7.5.4 1 .7 1.3.9l.6.3h-.7c-.2 0-.5-.1-.7-.1L73 60a4.67 4.67 0 01-1-.5c-.4-.2-.7-.5-1.1-.7a9.43 9.43 0 01-1-1 6.23 6.23 0 01-.9-1.2c-.2-.4-.5-.9-.7-1.3a1.85 1.85 0 01-.2-.7c0-.2-.1-.5-.1-.7-.1-.5 0-.9-.1-1.4a5 5 0 01.2-1.2 3.92 3.92 0 01.4-.9c.1-.3.3-.4.4-.6a2.22 2.22 0 00.4-.5z" fill="#ef5034"/><path d="M66.15 51.35v-.7a2.49 2.49 0 01.1-.8c.1-.3.1-.7.2-1a5.64 5.64 0 01.4-1.2 7.46 7.46 0 01.7-1.2 10.59 10.59 0 011-1.2 14.7 14.7 0 011.3-1 2.51 2.51 0 01.7-.4c.2-.1.5-.2.7-.3a2.35 2.35 0 01.8-.2c.3 0 .5-.1.8-.1a3.3 3.3 0 011.4 0 2.13 2.13 0 011.2.3 3 3 0 011 .4 4.35 4.35 0 01.7.4 4.57 4.57 0 00.6.4 3.2 3.2 0 01-.7-.1 2 2 0 00-.8-.1c-.3 0-.6-.1-1-.1h-1.1a5 5 0 00-1.2.2c-.2.1-.4.1-.6.2a1.42 1.42 0 01-.6.2l-.6.3-.6.3a8.42 8.42 0 00-2 1.7 8.74 8.74 0 00-.8 1c-.3.3-.4.7-.6.9a5.58 5.58 0 01-.5.8 4.88 4.88 0 01-.3.7 3.22 3.22 0 01-.2.6zm9.4-8.7a1 1 0 01.4-.1 4.33 4.33 0 01.5-.1h.7a2.35 2.35 0 01.8.2 6.89 6.89 0 01.8.3 2.18 2.18 0 01.8.5c.3.2.5.4.8.6a7.89 7.89 0 011.2 1.5 6.56 6.56 0 01.7 1.5 1.7 1.7 0 01.1.7v.5a.58.58 0 01-.1.4 1.09 1.09 0 01-.2-.4c0-.1-.2-.3-.2-.4s-.2-.3-.3-.5-.3-.4-.4-.6-.3-.4-.5-.6L79.45 45l-.6-.6a2.65 2.65 0 00-.6-.5c-.4-.3-.9-.6-1.2-.8a2.19 2.19 0 01-.5-.3c-.2-.1-.3-.1-.4-.2-.4.2-.6.1-.6.1zm2 14.9a3.2 3.2 0 00-.7.1 2.13 2.13 0 01-.8 0 4.48 4.48 0 01-1.1-.1 5.64 5.64 0 01-1.2-.4l-.6-.3a67050890291721.23 67050890291721.23 0 01-1.2-1 2.65 2.65 0 01-.5-.6l-.4-.7a5.9 5.9 0 00-.4-.8 2.35 2.35 0 01-.2-.8 2.2 2.2 0 01-.1-.8v-.8c0-.3.1-.5.1-.8a6.11 6.11 0 01.7-1.4 2.84 2.84 0 011-.9 2.35 2.35 0 011-.5 1.34 1.34 0 01.8-.2 3.2 3.2 0 01.7-.1 4.57 4.57 0 00-.6.4 2.09 2.09 0 00-.6.4 1.38 1.38 0 01-.4.3c-.1.1-.3.2-.4.3-.2.3-.5.5-.6.9a3.58 3.58 0 00-.4 1.1v1.2c0 .2.1.4.1.6s.1.4.2.6l.3.6.3.6c.3.3.5.7.8 1 .2.1.3.3.5.4a1.76 1.76 0 01.5.4 5.3 5.3 0 001 .6c.3.2.6.2.9.4a2.35 2.35 0 00.8.2 2 2 0 01.5.1zm3.9-4v-1.1a3.55 3.55 0 00-.2-1c0-.2-.1-.3-.2-.5s-.2-.3-.3-.5a6.3 6.3 0 00-1.5-1.7 9.4 9.4 0 00-.9-.8 4.83 4.83 0 011.2.2 4.07 4.07 0 011.1.6 3.57 3.57 0 011 1.1 2.39 2.39 0 01.5 1.4 2.65 2.65 0 01-.1 1.3c-.1.2-.1.3-.2.5s-.2.2-.2.3zM78 55.85l.2-.2a2.18 2.18 0 01.5-.4 2 2 0 00.8-1.4V53c0-.3-.1-.6-.1-.9a2 2 0 01-.1-.7v-.3a3.64 3.64 0 011.2 1.6c.1.2.1.4.2.6v.7a1.85 1.85 0 01-.2.7c-.1.2-.3.4-.4.6a1.76 1.76 0 01-.5.4c-.2.1-.3.2-.5.2a2.25 2.25 0 01-.7.1 1.58 1.58 0 00-.4-.15z" fill="#ef5034"/><path d="M80.55 43.05a5.2 5.2 0 01-.5-.3l-.6-.3a6.89 6.89 0 00-.8-.3c-.3-.1-.6-.2-1-.3s-.7-.1-1.1-.2-.8-.1-1.2-.1h-1.2a5 5 0 00-1.2.2 1.27 1.27 0 01-.6.1c-.2.1-.4.1-.6.2a10.37 10.37 0 00-1 .4c-.3.2-.6.3-.9.5s-.5.4-.7.5-.4.3-.5.5a3.61 3.61 0 01-.4.5 3.22 3.22 0 00.2-.6 4.88 4.88 0 00.3-.7 2.1 2.1 0 01.6-.8 6 6 0 01.8-.8 10.54 10.54 0 011.1-.7 5 5 0 011.3-.5l1.4-.3h1.4a6.75 6.75 0 011.4.2 4.23 4.23 0 011.2.4 3.33 3.33 0 011 .6 5.55 5.55 0 01.8.6l.5.5c.2.5.3.7.3.7zm2 10.2a1.21 1.21 0 01.1.5 3.54 3.54 0 01.1.6v.8a2.92 2.92 0 01-.2.9 2 2 0 01-.5.9 5.5 5.5 0 01-.7.9 3.11 3.11 0 01-.9.7 4.67 4.67 0 01-1 .5 4.51 4.51 0 01-1.1.3 1.7 1.7 0 01-1 0 2.92 2.92 0 01-.9-.2 4.88 4.88 0 01-.7-.3 2.19 2.19 0 01-.5-.3 3 3 0 01-.4-.3h.5c.2 0 .3.1.5 0h.7a2.49 2.49 0 00.8-.1 2.35 2.35 0 00.8-.2c.3-.1.5-.2.8-.3a3.51 3.51 0 00.8-.5 4.35 4.35 0 00.7-.6l.6-.6c.2-.2.3-.5.5-.7s.3-.5.4-.7l.3-.6c.1-.2.1-.4.2-.5zm-9.5 8.2a1.21 1.21 0 01-.5.1 4.13 4.13 0 01-1.5-.1 5.39 5.39 0 01-1-.3 4.67 4.67 0 01-1-.5 6.07 6.07 0 01-1-.7l-.9-.9a4.13 4.13 0 01-.7-1.1 7.6 7.6 0 01-.4-1.1 5.32 5.32 0 01-.2-2.1 2.65 2.65 0 01.3-1.4 4.2 4.2 0 01.2-.5 1.75 1.75 0 00.1.5c0 .2.1.4.1.6s.1.5.2.7a2.35 2.35 0 01.2.8l.3.9c.2.3.3.6.5.9l.6.9a5 5 0 00.7.8l.7.7c.3.2.5.4.8.6a3 3 0 00.8.4c.2.1.5.2.7.3s.4.1.5.2a5.2 5.2 0 00.5.3z" fill="#ef5034"/><path d="M145.25 55a1.24 1.24 0 01.3-.2 2.65 2.65 0 00.6-.5 5.55 5.55 0 00.6-.8 4.08 4.08 0 00.2-.7v-.1l-.1-.1a.35.35 0 01-.2-.1c-.2-.1-.5.1-.8.3a3.39 3.39 0 00-.6.6 1.24 1.24 0 01-.2.3v-.4a2.17 2.17 0 01.2-1 2.09 2.09 0 01.4-.6 1.23 1.23 0 01.8-.4 1.47 1.47 0 011.1.2l.2.1.1.1.1.1a1 1 0 01.4.5 1.39 1.39 0 010 1.1 2 2 0 01-.4.8 2.32 2.32 0 01-1.3.8 1.67 1.67 0 01-1 0c-.3.1-.4 0-.4 0z" fill="#6ac9d0"/><path d="M144.65 50.65l.3-.6a3.39 3.39 0 011.4-1.1 3.25 3.25 0 012.7.2 2.65 2.65 0 01.6.5 3.17 3.17 0 01.5.6 3 3 0 01.5 1.6 3.8 3.8 0 01-.9 2.8 5.61 5.61 0 01-1.9 1.6 3.73 3.73 0 01-1.6.4h-.6a3.22 3.22 0 01.6-.2 6.55 6.55 0 001.3-.8 4.17 4.17 0 001.3-1.6 3.78 3.78 0 00.4-2.1 3.18 3.18 0 00-.3-.9c-.1-.1-.1-.2-.3-.3s-.3-.2-.4-.3a3.29 3.29 0 00-1.7-.4 4.2 4.2 0 00-1.4.3 1.46 1.46 0 01-.5.3z" fill="#6ac9d0"/><path d="M143.45 48.55l.2-.4c.1-.1.2-.3.3-.4a1.21 1.21 0 01.5-.5 4.23 4.23 0 01.7-.5 4.55 4.55 0 011.9-.6 4.05 4.05 0 011.1 0c.4.1.7.1 1.1.2a4.18 4.18 0 011 .4 5.83 5.83 0 011.5 1.1c.2.2.3.4.5.6s.2.3.3.5a.31.31 0 01.1.2l-.4-.2a2.34 2.34 0 00-1-.5 4.88 4.88 0 00-.7-.3 1.88 1.88 0 00-.8-.2c-.3-.1-.5-.1-.8-.2a2.77 2.77 0 00-.9-.1h-1.7a2.2 2.2 0 01-.8.1c-.2.1-.5.1-.7.2-.4.1-.8.3-1.1.4a1.44 1.44 0 01-.3.2zm6.5 15.3a13.3 13.3 0 01-1.7.1 18 18 0 01-3.8-.3 5.15 5.15 0 01-2-.9 5.72 5.72 0 01-.8-.7 3.51 3.51 0 01-.5-.8.6.6 0 01-.1-.4v-1a1.75 1.75 0 00.1-.5l.2.4a1.69 1.69 0 00.2.5 1.76 1.76 0 00.4.5c.1.2.3.3.5.5a4.35 4.35 0 00.7.4 6.89 6.89 0 00.8.3 2.92 2.92 0 00.9.2 12.86 12.86 0 001.9.4 8.45 8.45 0 011.7.5 11.1 11.1 0 011.5.8zm4.1-13.3a2.22 2.22 0 00.4.5c.1.2.3.4.3.6s.2.6.3 1 .1.8.1 1.2a5.7 5.7 0 01-.1 1.3c-.1.2-.1.5-.2.7s-.2.5-.3.7c-.2.5-.5.9-.7 1.3a5.24 5.24 0 01-1 1.1 4.81 4.81 0 01-1.1.9c-.4.2-.7.5-1.1.7s-.7.3-1.1.5a9.44 9.44 0 00-.9.3 2 2 0 01-.7.1h-.7l.6-.3a15.14 15.14 0 001.4-.9l.9-.6a6.47 6.47 0 00.9-.8l.9-.9a8.74 8.74 0 00.8-1c.2-.3.5-.7.7-1a2.19 2.19 0 01.3-.5c.1-.2.1-.4.2-.5a4.51 4.51 0 00.3-1.1c0-.4.1-.7.1-1V52c0-.3-.1-.5-.1-.7a2.26 2.26 0 01-.2-.7z" fill="#6ac9d0"/><path d="M157.05 52.75l-.3-.6c-.1-.2-.2-.5-.3-.7a3.55 3.55 0 00-.4-.9 5.3 5.3 0 00-.6-1 6.07 6.07 0 00-.7-1c-.2-.4-.6-.6-.9-1a7 7 0 00-1-.8c-.2-.1-.4-.3-.6-.4l-.6-.3-.6-.3c-.2-.1-.4-.1-.6-.2a5 5 0 00-1.2-.2c-.4 0-.8-.1-1.1-.1h-1a2.2 2.2 0 00-.8.1 3.2 3.2 0 01-.7.1 4.57 4.57 0 00.6-.4 4.35 4.35 0 01.7-.4 2.93 2.93 0 011-.3 5.07 5.07 0 011.3-.2 6.6 6.6 0 011.4.1c.2.1.5.1.7.2s.5.2.7.3a4.88 4.88 0 01.7.3 2.51 2.51 0 01.7.4c.4.3.8.7 1.2 1a9.38 9.38 0 01.9 1.2 3.1 3.1 0 01.6 1.3 5.64 5.64 0 01.4 1.2c.1.4.1.7.2 1a2.13 2.13 0 010 .8 2.3 2.3 0 01.3.8z" fill="#6ac9d0"/><path d="M148.15 43.65a1 1 0 01-.4.1 1.69 1.69 0 00-.5.2c-.2 0-.3.2-.5.2l-.6.3c-.2.1-.4.3-.6.4s-.4.3-.7.5a1.79 1.79 0 01-.7.5A13.07 13.07 0 00143 47a2.65 2.65 0 00-.5.6 1.21 1.21 0 01-.5.5c-.1.2-.3.3-.4.5a1.38 1.38 0 01-.3.4l-.2.4v-1a2.54 2.54 0 01.2-.7 6.37 6.37 0 012.1-3 5.85 5.85 0 011.7-1l.9-.3a2.49 2.49 0 01.8-.1h.7a.75.75 0 01.5.1.37.37 0 00.15.25zm-2.8 14.8a2.44 2.44 0 01.7-.1 3.09 3.09 0 00.8-.2l.9-.3c.3-.2.7-.3 1-.5s.3-.2.5-.3.3-.3.5-.4a9 9 0 00.9-1l.4-.6.3-.6a1.42 1.42 0 00.2-.6 1.42 1.42 0 00.2-.6c0-.2.1-.4.1-.6v-.6a3.54 3.54 0 00-.3-1.1 2.62 2.62 0 00-.5-.9 1.38 1.38 0 00-.3-.4l-.3-.3c-.2-.2-.4-.3-.6-.5a2.48 2.48 0 01-.6-.4 4.18 4.18 0 01.7.1 4.12 4.12 0 01.8.3 5.3 5.3 0 011 .6c.2.1.3.3.5.4a2.09 2.09 0 01.4.6 3.51 3.51 0 01.6 1.4c0 .3.1.5.1.8a2 2 0 01-.1.8 1.88 1.88 0 01-.2.8c-.1.3-.2.5-.3.8a2.51 2.51 0 01-.4.7l-.5.7-.6.6a2.65 2.65 0 01-.6.5c-.2.1-.4.3-.6.4a4.88 4.88 0 01-.7.3 6.47 6.47 0 01-1.3.4 4.48 4.48 0 01-1.1.1c-.3 0-.6-.1-.8-.1a3.15 3.15 0 00-.8-.2zm-3.7-4.2a1.24 1.24 0 01-.2-.3c-.1-.1-.2-.2-.2-.3a.76.76 0 01-.2-.5c0-.2-.1-.4-.1-.6v-.7a4.71 4.71 0 01.6-1.5 4 4 0 012.3-1.5 3.44 3.44 0 01.9-.1h.3l-.2.2c-.2.1-.4.4-.6.6a12.17 12.17 0 00-1.5 1.7 2.19 2.19 0 00-.3.5c-.1.2-.2.3-.3.5a3.18 3.18 0 00-.3.9c0 .1-.1.3-.1.4V54a.77.77 0 00-.1.3zm3.4 2.5h-.3a2.49 2.49 0 01-.8-.1c-.2 0-.3-.1-.5-.2a1 1 0 01-.5-.4 2.09 2.09 0 01-.4-.6 1.88 1.88 0 01-.2-.8 1.7 1.7 0 01.1-.7 1.42 1.42 0 01.2-.6 3.49 3.49 0 01.6-.9 3 3 0 01.9-.6v.3a2 2 0 01-.1.7 11.14 11.14 0 00-.2 1.7 2.54 2.54 0 00.2.7c.1.1.1.2.2.3s.2.2.2.3c.2.2.3.4.4.5a1.09 1.09 0 00.2.4z" fill="#6ac9d0"/><path d="M143.45 43.75a2.22 2.22 0 01.4-.5c.1-.2.3-.3.5-.5a5.55 5.55 0 01.8-.6c.2-.1.3-.2.5-.3s.4-.1.6-.2a5.64 5.64 0 011.2-.4 3.21 3.21 0 011.4-.1 6.15 6.15 0 011.4.1c.5.1 1 .2 1.4.3a3.1 3.1 0 011.3.6 7.63 7.63 0 011.1.8 6.47 6.47 0 01.8.9 9.22 9.22 0 01.5.8 4.88 4.88 0 00.3.7 2.8 2.8 0 01.1.6 3.61 3.61 0 01-.4-.5c-.1-.2-.3-.3-.5-.5l-.6-.6a5.55 5.55 0 00-.8-.6 9.29 9.29 0 00-1-.5c-.2-.1-.4-.1-.5-.2s-.4-.1-.6-.2a5 5 0 00-1.2-.2 4.87 4.87 0 00-1.2-.1h-1.2a4.48 4.48 0 01-1.1.1c-.4.1-.7.1-1 .2a6.89 6.89 0 00-.8.3c-.2.1-.5.2-.7.3-.5.2-.7.3-.7.3zm-2.9 10.1a1.21 1.21 0 01.1.5c0 .2.1.3.2.5s.2.4.2.6a5.74 5.74 0 00.4.7c.2.2.3.5.5.7a4.35 4.35 0 01.6.7 4.35 4.35 0 00.7.6c.2.2.5.3.7.5s.5.3.8.4a2.35 2.35 0 00.8.2 2.2 2.2 0 00.8.1h1.7a3 3 0 01-.4.3 2.19 2.19 0 01-.5.3 4.88 4.88 0 01-.7.3c-.3 0-.6.1-.9.1a3.4 3.4 0 01-1-.1 4.51 4.51 0 01-1.1-.3c-.3-.2-.7-.4-1-.6a3 3 0 01-.8-.8 4.7 4.7 0 01-.6-.9 4.18 4.18 0 01-.4-1 2.92 2.92 0 01-.2-.9V55c0-.2.1-.4.1-.6a.69.69 0 010-.5zm9 8.6a1.21 1.21 0 01.5-.1 4.17 4.17 0 01.6-.2 4.88 4.88 0 01.7-.3 5.94 5.94 0 01.8-.4 3.51 3.51 0 00.8-.5c.3-.2.5-.4.8-.6a4.62 4.62 0 00.7-.7c.2-.3.4-.5.6-.8s.3-.6.5-.9.3-.6.4-.9a6.89 6.89 0 01.3-.8 6.37 6.37 0 01.2-.7 1.27 1.27 0 00.1-.6 1.75 1.75 0 00.1-.5 4.2 4.2 0 01.2.5 4.64 4.64 0 01.2 1.4 8.81 8.81 0 01-.3 2.1 11.73 11.73 0 01-.5 1.1 8.65 8.65 0 01-.7 1l-.9.9a6.07 6.07 0 01-1 .7 4.18 4.18 0 01-1 .4 3.55 3.55 0 01-1 .2 7.44 7.44 0 01-1.5 0l-.6-.3z" fill="#6ac9d0"/></g><ellipse cx="130.05" cy="53.05" rx="52.2" ry="51.8" fill="none" stroke="#c3e9ec" stroke-miterlimit="10" stroke-width="2.5"/><path d="M47.15 78.05L90 20" fill="none" stroke="#c3e9ec" stroke-miterlimit="10" stroke-width="2.5"/><path d="M51.05 88l69.2 15.9" fill="none" stroke="#c3e9ec" stroke-linecap="round" stroke-miterlimit="10" stroke-width="2.5"/></svg>