<svg width="32" height="32" xmlns="http://www.w3.org/2000/svg"><path d="M24.536 16.609c0 1.395-.175 2.787-.175 2.787s-.174 1.133-.696 1.656c-.61.696-1.395.696-1.742.696-2.352.175-5.923.175-5.923.175s-4.442 0-5.748-.175c-.349-.086-1.22-.086-1.916-.696-.523-.523-.697-1.656-.697-1.656s-.174-1.392-.174-2.787v-1.306c0-1.394.174-2.787.174-2.787s.174-1.132.697-1.655c.61-.696 1.393-.696 1.741-.696C12.429 9.99 16 9.99 16 9.99s3.571 0 5.923.175c.347 0 1.045 0 1.742.696.522.523.696 1.655.696 1.655s.175 1.393.175 2.787v1.306zm-10.279 1.569l4.616-2.352-4.616-2.44v4.792zM2.587 16c0 7.404 6.009 13.413 13.412 13.413 7.403 0 13.413-6.01 13.413-13.413C29.5 8.596 23.403 2.587 16 2.587 8.597 2.587 2.587 8.597 2.587 16z"/></svg>