<svg viewBox="0 -16 101.4 131.4" xmlns="http://www.w3.org/2000/svg"><circle cx="50.7" cy="50.7" fill="#e0f2f3" r="50.7"/><path d="m84.1 80.6c-4.3 1-8.6 2.5-13 3-4.7.5-9.4.1-14.1.4-10.5.6-20.5 1-30.9-1.1a52.21 52.21 0 0 1 -13.4-4.2 26.31 26.31 0 0 1 -2.6-1.6h-.2c-2.9-.6-6.3-1.4-8.8-3.3 0 .7-.1 1.5-.1 2.2 0 5.4 25.6 13.6 49.9 13.6s49.5-7.8 49.5-14.1c0-1.4-.1-2.8-.2-4.3a32.25 32.25 0 0 1 -16.1 9.4z" fill="#d3d5db"/><g stroke="#6acad1" stroke-miterlimit="10" stroke-width="2.5"><ellipse cx="50.6" cy="68.4" fill="#fff" rx="44.2" ry="11.8"/><path d="m99.3 71.8c0 6.3-24.1 13.3-48.4 13.3s-49-7.3-49-12.7c0-19.3 13.8-46.9 48.7-46.9s48.7 27 48.7 46.3z" fill="none"/><circle cx="50.6" cy="21.3" fill="#fff" r="3.5"/></g><path d="m50.7 37.9 3.7 7.5 8.3 1.2-6 5.9 1.4 8.2-7.4-3.9-7.4 3.9 1.4-8.2-6-5.9 8.3-1.2z" fill="#083b54" stroke="#063b54" stroke-linejoin="round"/><ellipse cx="50.7" cy="69.3" fill="#d3d5db" rx="12.4" ry="1.9"/><path d="m27.3 36.7c-8.1 5.3-10.6 13.3-9.9 14.4s4.3-5.5 12.5-10.9 17.9-7.4 17.1-8.5-11.5-.4-19.7 5z" fill="#fff"/></svg>