<svg id="Layer_2" xmlns="http://www.w3.org/2000/svg" viewBox="0 0 297.8 151.2"><style>.st1{fill:#e0f2f3;stroke:#6bcad0;stroke-width:2.5}.st1,.st2,.st4{stroke-miterlimit:10}.st2{stroke-width:2.5;stroke:#6bcad0;fill:#fff}.st4{fill:#ffe5ca;stroke:#f59223}.st7{fill:#f05234}.st13{fill:#e0f2f3;stroke:#6bcad0;stroke-width:1.9999;stroke-miterlimit:10}.st14{opacity:.5;fill:#6bcad0}.st20{fill:#f59223}.st21{fill:#6bcad0}</style><path class="st13" d="M18.3 97.6l52.1-16.2c.4-.1.7-.6.5-1l-9-29.5c-.1-.4-.6-.7-1-.5L8.8 66.5c-.4.1-.7.6-.5 1l9 29.5c.1.4.6.7 1 .6z"/><path class="st14" d="M12.1 70.3l7 22.7c.3 1 1.3 1.5 2.2 1.2l47.8-14.9c.9-.3 1.5-1.3 1.2-2.3l-6.9-22.8c-.3-1-1.3-1.5-2.2-1.2L15.8 67.2c-.1 0-.2 0-.3.1-.1 0-.2.1-.3.1l-1.9.6c-.9.3-1.5 1.3-1.2 2.3zm56.2 7.2L24.8 91c.4-.9.5-2.2.1-3.4-.7-2.2-2.5-3.6-4.2-3.1-.8.2-1.3.9-1.7 1.7l-3.5-11.4c.7.5 1.5.7 2.3.5 1.6-.5 2.4-2.7 1.7-4.9-.2-.8-.6-1.4-1.1-1.9l42.9-13.4 7 22.4zM20.9 92.2v-.1l.1.1h-.1z"/><path class="st14" d="M35.1 75.3c1.6 5.2 5.9 8.4 9.7 7.3 3.8-1.2 5.6-6.4 4-11.5-1.6-5.2-5.9-8.4-9.7-7.3-3.8 1.2-5.6 6.3-4 11.5z"/><path class="st13" d="M6.6 80.7l53.5 10.1c.4.1.8-.2.9-.6l5.6-30.3c.1-.4-.2-.9-.6-.9L12.5 48.7c-.4-.1-.8.2-.9.6L6 79.7c-.1.5.2.9.6 1z"/><path class="st14" d="M13.7 53.6L9.4 77c-.2 1 .5 1.9 1.4 2.1L60 88.4c1 .2 1.9-.5 2.1-1.4l4.3-23.4c.2-1-.5-1.9-1.4-2.1l-46.6-8.8c-.1 0-.2-.1-.3-.1h-.3l-1.9-.4c-1.1-.2-2 .4-2.2 1.4zm46.5 32.8L15.4 78c.8-.6 1.4-1.7 1.7-2.9.4-2.3-.6-4.4-2.3-4.7-.8-.1-1.6.1-2.2.7l2.1-11.7c.4.8 1.1 1.3 1.8 1.5 1.7.3 3.4-1.3 3.8-3.6.1-.8.1-1.5 0-2.2l44.1 8.3-4.2 23zm-48.8-9.2v-.1l.1.1h-.1z"/><path class="st14" d="M31.7 68.9c-1 5.3 1.4 10.3 5.3 11 3.9.7 7.9-3 8.9-8.4s-1.4-10.3-5.3-11c-4-.7-7.9 3-8.9 8.4z"/><path class="st13" d="M3.1 65.5L54.7 83c.4.1.9-.1 1-.5l9.7-29.3c.1-.4-.1-.9-.5-1L13.4 34.8c-.4-.1-.9.1-1 .5L2.6 64.5c-.1.4.1.9.5 1z"/><path class="st14" d="M13.9 39.8L6.4 62.3c-.3.9.2 2 1.1 2.3l47.4 16.1c.9.3 2-.2 2.3-1.1L64.7 57c.3-.9-.2-2-1.1-2.3l-45-15.2c-.1 0-.2-.1-.3-.1-.1 0-.2 0-.3-.1l-1.9-.6c-.8-.4-1.9.1-2.2 1.1zm41.5 39L12.2 64.1c.9-.5 1.6-1.5 2.1-2.7.7-2.2 0-4.4-1.6-5-.8-.3-1.6-.1-2.3.4l3.8-11.3c.3.8.9 1.5 1.6 1.7 1.6.5 3.5-.8 4.2-3 .2-.8.3-1.5.3-2.2l42.6 14.5-7.5 22.3zm-47-16v-.1c0 .1 0 .1.1.2l-.1-.1z"/><path class="st14" d="M29.6 57.4c-1.7 5.2-.1 10.4 3.7 11.6s8.2-1.9 9.9-7 .1-10.4-3.7-11.6c-3.7-1.3-8.2 1.9-9.9 7z"/><path class="st2" d="M141 110.5H37.1c-.9 0-1.6-.7-1.6-1.6V21.4c0-.9.7-1.6 1.6-1.6H141c.9 0 1.6.7 1.6 1.6V109c0 .8-.7 1.5-1.6 1.5z"/><path class="st1" d="M35.5 30.6v-9.2c0-.9.7-1.6 1.6-1.6H141c.9 0 1.6.7 1.6 1.6v9.2H35.5z"/><circle cx="87.6" cy="54.4" opacity=".2" fill="#083b54" r="2"/><circle cx="98.9" cy="58.9" opacity=".3" fill="#083b54" r="2.8"/><circle cx="102.9" cy="72.2" fill="#083b54" opacity=".5" r="3.6"/><circle cx="76.3" cy="79.2" opacity=".85" fill="#083b54" r="5.2"/><circle cx="92.7" cy="84.4" opacity=".7" fill="#083b54" r="4.4"/><circle cx="75.1" cy="63.3" fill="#083b54" r="6"/><path class="st7" d="M28 35.9c0 3.4-2.8 6.2-6.2 6.2s-6.2-2.8-6.2-6.2c0-3.4 5.4-8.6 6.2-8.6s6.2 5.1 6.2 8.6z"/><path class="st20" d="M25.4 38.5c0 2-1.6 3.6-3.6 3.6s-3.6-1.6-3.6-3.6 3.2-5 3.6-5 3.6 3 3.6 5z"/><path class="st7" d="M8.5 53.5c0 2.3-1.9 4.2-4.2 4.2S.1 55.8.1 53.5c0-2.3 3.7-5.8 4.2-5.8s4.2 3.4 4.2 5.8z"/><path class="st20" d="M6.7 55.2c0 1.4-1.1 2.4-2.4 2.4s-2.4-1.1-2.4-2.4c0-1.4 2.1-3.4 2.4-3.4.3.1 2.4 2.1 2.4 3.4z"/><path class="st7" d="M30.1 85.1c0 2.3-1.9 4.2-4.2 4.2s-4.2-1.9-4.2-4.2 3.7-5.8 4.2-5.8 4.2 3.5 4.2 5.8z"/><path class="st20" d="M28.4 86.9c0 1.4-1.1 2.4-2.4 2.4s-2.4-1.1-2.4-2.4c0-1.4 2.1-3.4 2.4-3.4s2.4 2 2.4 3.4z"/><circle class="st21" cx="41.3" cy="25.4" r="1.9"/><circle class="st21" cx="47" cy="25.4" r="1.9"/><circle class="st21" cx="52.7" cy="25.4" r="1.9"/><path class="st2" d="M268.8 104.5H164.9c-.9 0-1.6-.7-1.6-1.6V15.4c0-.9.7-1.6 1.6-1.6h103.9c.9 0 1.6.7 1.6 1.6V103c0 .8-.7 1.5-1.6 1.5z"/><path class="st1" d="M163.3 24.6v-9.2c0-.9.7-1.6 1.6-1.6h103.9c.9 0 1.6.7 1.6 1.6v9.2H163.3z"/><circle class="st21" cx="169.1" cy="19.4" r="1.9"/><circle class="st21" cx="174.9" cy="19.4" r="1.9"/><circle class="st21" cx="180.5" cy="19.4" r="1.9"/><path class="st2" d="M274.8 110.5H170.9c-.9 0-1.6-.7-1.6-1.6V21.4c0-.9.7-1.6 1.6-1.6h103.9c.9 0 1.6.7 1.6 1.6V109c0 .8-.7 1.5-1.6 1.5z"/><path class="st1" d="M169.3 30.6v-9.2c0-.9.7-1.6 1.6-1.6h103.9c.9 0 1.6.7 1.6 1.6v9.2H169.3z"/><circle class="st21" cx="175.1" cy="25.4" r="1.9"/><circle class="st21" cx="180.9" cy="25.4" r="1.9"/><circle class="st21" cx="186.5" cy="25.4" r="1.9"/><path class="st2" d="M280.8 116.5H176.9c-.9 0-1.6-.7-1.6-1.6V27.4c0-.9.7-1.6 1.6-1.6h103.9c.9 0 1.6.7 1.6 1.6V115c0 .8-.7 1.5-1.6 1.5z"/><path class="st1" d="M175.3 36.6v-9.2c0-.9.7-1.6 1.6-1.6h103.9c.9 0 1.6.7 1.6 1.6v9.2H175.3z"/><circle class="st21" cx="181.1" cy="31.4" r="1.9"/><circle class="st21" cx="186.9" cy="31.4" r="1.9"/><circle class="st21" cx="192.5" cy="31.4" r="1.9"/><path class="st14" d="M240.6 56.1V56l.1.1h-.1zm-9.5-15V41l.1.1h-.1z"/><path class="st4" d="M272.9 106.8h-56.4c-.6 0-1-.5-1-1V46.6c0-.5.4-1 1-1h56.4c.6 0 1 .5 1 1v59.2c0 .5-.4 1-1 1z"/><path class="st13" d="M253.4 122l-9-55.7c-.1-.5.3-1.1.8-1.1l29.8-4.8c.5-.1 1.1.3 1.1.8l9 55.7c.1.5-.3 1.1-.8 1.1l-29.8 4.8c-.5.2-1-.2-1.1-.8z"/><path class="st14" d="M281.9 113.5l-7.7-48c-.2-1-1.2-1.8-2.2-1.6l-22.7 3.6c-1 .2-1.8 1.2-1.6 2.2l7.7 48c.2 1 1.2 1.8 2.2 1.6l22.7-3.6c1-.2 1.7-1.1 1.6-2.2zm-18.3 1.2c-.3-1.7-2.3-2.8-4.6-2.4-1 .2-1.8.6-2.4 1.1l-6.4-39.9c.8.3 1.7.4 2.7.3 2.2-.4 3.8-2 3.6-3.7-.1-.6-.4-1.1-.8-1.5l10.6-1.7c-.3.5-.4 1.1-.3 1.7.3 1.7 2.3 2.8 4.6 2.4 1-.2 1.8-.6 2.4-1.1l6.4 39.9c-.8-.3-1.7-.4-2.6-.3-2.2.4-3.8 2-3.6 3.7.1.6.5 1.2 1 1.6l-10.9 1.7c.3-.6.5-1.2.3-1.8z"/><path class="st14" d="M263.8 84.8c-5.1.9-8.8 4.6-8.1 8.4.6 3.8 5.3 6.1 10.4 5.2 5.1-.9 8.8-4.6 8.1-8.4-.6-3.7-5.3-6.1-10.4-5.2z"/><path class="st13" d="M246.9 114.3L265 60.9c.2-.5.7-.8 1.3-.6l28.6 9.7c.5.2.8.7.6 1.3l-18.1 53.4c-.2.5-.7.8-1.3.6l-28.6-9.7c-.5-.2-.8-.7-.6-1.3z"/><path class="st14" d="M276.1 120.1l15.6-46c.3-1-.2-2.1-1.2-2.4l-21.7-7.4c-1-.3-2.1.2-2.4 1.2l-15.6 46c-.3 1 .2 2.1 1.2 2.4l21.7 7.4c.9.3 2-.2 2.4-1.2zm-16.7-7.5c.6-1.6-.7-3.6-2.9-4.3-.9-.3-1.9-.3-2.7-.2l13-38.3c.5.6 1.3 1.2 2.2 1.5 2.1.7 4.3 0 4.9-1.6.2-.6.1-1.1 0-1.7l10.2 3.5c-.5.3-.9.8-1.1 1.3-.6 1.6.7 3.6 2.9 4.3.9.3 1.9.3 2.7.2l-13 38.3c-.5-.6-1.3-1.2-2.2-1.5-2.1-.7-4.3 0-4.9 1.6-.2.6-.2 1.3.1 1.9l-10.4-3.5c.6-.4 1-.9 1.2-1.5z"/><path class="st14" d="M273.5 86.3c-4.9-1.6-9.9 0-11.1 3.6-1.2 3.6 1.8 7.8 6.8 9.5s9.9 0 11.1-3.6c1.1-3.7-1.9-7.9-6.8-9.5z"/><path class="st4" d="M206.4 106.8h-20.8c-.6 0-1-.5-1-1V46.6c0-.5.4-1 1-1h20.8c.6 0 1 .5 1 1v59.2c0 .5-.4 1-1 1z"/><path class="st21" d="M221.5 150.2h.1c.6 0 1.1-.3 1.5-.7l8-10c.7-.9.6-2.1-.3-2.8-.9-.7-2.1-.6-2.8.3l-6.6 8.3-2.4-2.4c-.8-.8-2-.8-2.8 0-.8.8-.8 2 0 2.8l4 4c.3.3.8.5 1.3.5z"/><path class="st7" d="M89.9 143.2l4-4c.7-.7.7-1.8 0-2.5s-1.8-.7-2.5 0l-4 4-4-4c-.7-.7-1.8-.7-2.5 0s-.7 1.8 0 2.5l4 4-4 4c-.7.7-.7 1.8 0 2.5.3.3.8.5 1.2.5.4 0 .9-.2 1.2-.5l4-4 4 4c.3.3.8.5 1.2.5.4 0 .9-.2 1.2-.5.7-.7.7-1.8 0-2.5l-3.8-4z"/></svg>