<svg viewBox="0 0 180 131" xmlns="http://www.w3.org/2000/svg"><g stroke-width="2.5"><path d="m6.4 20.3h158v90.3h-158z" fill="#fff" stroke="#c3e9ec" stroke-linejoin="round" stroke-miterlimit="10" transform="matrix(.99800035 -.06383817 .06383817 .99800035 -4.005066 5.585346)"/><path d="m177.7 89.3-153 39.8-22.7-87.4 153-39.8z" fill="#fff" stroke="#c3e9ec" stroke-linejoin="round" stroke-miterlimit="10"/><path d="m178 95.6-155.6 27.9-15.9-88.9 155.5-27.9z" fill="#fff" stroke="#6ac9d0" stroke-linejoin="round" stroke-miterlimit="10"/></g><path d="m30.1 60.9 1.1-5.7 1.5-.3 1.2 6.9-.9.2-1-5.8-1.3 6.2-.6.1-3.3-5.4 1 5.8-.9.2-1.2-6.9 1.5-.3zm7.5-3.3c-.1-.2-.3-.3-.5-.3-.2-.1-.4-.1-.7 0-.1 0-.2 0-.3.1-.1 0-.2.1-.3.2l-.2.2v.3c0 .2.1.3.3.4s.5.1.8.1c.2 0 .4 0 .7.1.2 0 .4.1.5.2.2.1.3.2.4.3s.2.3.2.5v.7c-.1.2-.2.4-.3.5-.2.2-.3.3-.5.4s-.4.2-.7.2c-.4.1-.7.1-1.1 0s-.7-.2-1-.5l.6-.7c.2.2.4.3.6.4s.5.1.8.1c.1 0 .2-.1.3-.1s.2-.1.3-.2l.2-.2v-.3c0-.2-.2-.4-.4-.4-.2-.1-.5-.1-1-.1-.2 0-.3 0-.5-.1-.2 0-.3-.1-.5-.2-.1-.1-.3-.2-.4-.3s-.2-.3-.2-.5v-.7c.1-.2.2-.4.3-.5s.3-.3.5-.4.4-.2.6-.2c.3-.1.7-.1 1 0s.6.2.8.4zm3.7 2.3c0 .2 0 .3-.1.5s-.2.2-.4.3c-.2 0-.3 0-.5-.1-.1-.1-.2-.2-.3-.4 0-.2 0-.3.1-.5.1-.1.2-.2.4-.3.2 0 .4 0 .5.1.2.1.3.3.3.4zm5.2-.3-1 .2-1.2-6.9 4.3-.8.2.9-3.4.6.4 2.2 3.1-.6.1.8-3.1.6zm4.5-7.3c0 .2 0 .3-.1.5-.1.1-.2.2-.4.2s-.3 0-.5-.1c-.1-.1-.2-.2-.3-.4 0-.2 0-.3.1-.5.1-.1.2-.2.4-.2s.3 0 .5.1.3.2.3.4zm1 6.3-.9.2-.8-4.6.9-.2zm2.6-.4-.9.2-1.3-7.4.9-.2zm5.5-3.5v.4l-3.7.7c0 .2.1.4.2.5.1.2.2.3.4.4s.3.2.5.2h.6c.3-.1.6-.2.8-.4s.4-.4.4-.6l.7.4c-.2.4-.4.7-.7.9s-.7.4-1.1.4c-.4.1-.7.1-1 0s-.6-.2-.9-.4-.5-.4-.6-.7c-.2-.3-.3-.6-.4-1s-.1-.7 0-1 .2-.6.4-.9.4-.5.7-.6c.3-.2.6-.3.9-.4s.7-.1 1 0 .6.2.8.4.4.4.6.7c.3.3.4.6.4 1zm-1-.2c0-.2-.1-.3-.2-.5-.1-.1-.2-.3-.3-.4s-.3-.2-.5-.2h-.6c-.2 0-.4.1-.5.2-.2.1-.3.2-.4.4-.1.1-.2.3-.2.5-.1.2-.1.4-.1.5zm8.7-.4 1.1-5.7 1.5-.3 1.2 6.9-1 .2-1-5.8-1.3 6.2-.6.1-3.3-5.4 1 5.8-.9.2-1.2-6.9 1.5-.3zm8.3-3.4c-.1-.1-.3-.2-.5-.3s-.4-.1-.7 0c-.2 0-.4.1-.6.3-.2.1-.3.3-.4.5s-.2.4-.2.6v.7c0 .2.1.4.2.6s.2.4.4.5.3.2.5.3.4.1.7 0c.2 0 .4-.1.6-.3.2-.1.3-.3.4-.5l.7.4c-.2.3-.4.5-.6.7-.3.2-.6.3-1 .4s-.7.1-1 0-.6-.2-.9-.4-.5-.4-.7-.7-.3-.6-.4-1-.1-.7 0-1 .2-.6.4-.9.4-.5.7-.6c.3-.2.6-.3 1-.4.3-.1.7-.1 1 0s.6.2.9.4zm3.3 3-1 .2-1.2-6.9 4.3-.8.2.9-3.4.6.4 2.2 3.1-.6.2.7-3.1.6zm4.5-7.3c0 .2 0 .3-.1.5-.1.1-.2.2-.4.2s-.3 0-.5-.1c-.1-.1-.2-.2-.3-.4 0-.2 0-.3.1-.5.1-.1.2-.2.4-.2s.3 0 .5.1.3.2.3.4zm1 6.3-.9.2-.8-4.6.9-.2zm2.6-.4-.9.2-1.4-7.5.9-.2zm5.6-3.5v.4l-3.7.7c0 .2.1.4.2.5.1.2.2.3.4.4s.3.2.5.2h.6c.3-.1.6-.2.8-.4s.4-.4.4-.6l.7.4c-.2.4-.4.7-.7.9s-.7.4-1.1.4c-.4.1-.7.1-1 0s-.6-.2-.9-.4-.5-.4-.6-.7c-.2-.3-.3-.6-.4-1s-.1-.7 0-1 .2-.6.4-.9.4-.5.7-.6c.3-.2.6-.3.9-.4s.7-.1 1 0 .6.2.8.4.4.4.6.7.3.6.4 1zm-1-.2c0-.2-.1-.3-.2-.5s-.2-.3-.3-.4-.3-.2-.5-.2h-.6c-.2 0-.4.1-.5.2-.2.1-.3.2-.4.4-.1.1-.2.3-.2.5-.1.2-.1.4-.1.5zm2-1.8c0-.2-.1-.4-.1-.5l.9-.2c0 .1.1.2.1.4s.1.3.1.4c.1-.3.2-.6.5-.8.2-.2.5-.3.8-.4h.4l.1.9h-.4c-.2 0-.4.1-.6.2-.1.1-.3.2-.3.4-.1.2-.1.3-.2.5v.6l.4 2.4-.9.2-.7-3.6c0-.1-.1-.3-.1-.5zm6.4-.9-1.2.2.4 2.4c.1.3.1.5.3.6.1.1.3.1.5.1.1 0 .2 0 .3-.1.1 0 .2-.1.3-.1l.2.7c-.1.1-.2.1-.4.2-.1 0-.3.1-.4.1-.4.1-.8 0-1.1-.2s-.5-.5-.5-1l-.5-2.5-.9.2-.1-.8.9-.2-.3-1.3.9-.2.2 1.3 1.2-.2zm5.9.5c.1.4.1.7 0 1s-.2.6-.4.9-.4.5-.7.7-.6.3-1 .4-.7.1-1 0-.6-.2-.9-.4-.5-.4-.7-.7-.3-.6-.4-1-.1-.7 0-1 .2-.6.4-.9.4-.5.7-.6c.3-.2.6-.3 1-.4s.7-.1 1 0 .6.2.9.4.5.4.7.7c.3.3.4.6.4.9zm-.9.2c0-.2-.1-.4-.2-.6s-.2-.3-.4-.5c-.2-.1-.3-.2-.6-.3-.2-.1-.4-.1-.7 0-.2 0-.5.1-.6.3-.2.1-.3.3-.4.5s-.2.4-.2.6v.7c0 .2.1.4.2.6s.2.4.4.5.3.2.6.3c.2.1.4.1.7 0 .2 0 .5-.1.6-.3.2-.1.3-.3.4-.5s.2-.4.2-.6zm2.7-2.9c0 .1.1.2.1.4 0 .1.1.3.1.4 0-.1.1-.3.2-.4l.3-.3c.1-.1.2-.2.4-.3.1-.1.3-.1.5-.2.3-.1.6 0 .8 0l.6.3c.2.1.3.3.4.5s.2.5.2.7l.5 2.9-.9.2-.5-2.6c0-.2-.1-.4-.1-.5-.1-.2-.1-.3-.2-.4s-.2-.2-.4-.3-.3-.1-.6 0c-.4.1-.6.3-.8.6s-.2.7-.1 1.2l.4 2.5-.9.2-.7-3.6c0-.1-.1-.3-.1-.5s-.1-.4-.1-.5zm-76.3 37.3-.7.1-.8-4.2-.8 1-.5-.4 1.2-1.4.7-.1zm2.2-3.5c.1 0 .2-.1.3-.1s.2-.1.3-.1h.6c.2 0 .4.1.6.2s.3.3.4.4c.1.2.2.4.2.6v.7c-.1.2-.1.4-.3.6-.1.2-.3.3-.5.4s-.4.2-.7.2h-.7c-.2 0-.4-.1-.6-.2s-.3-.3-.5-.5l-.3-.6v-.8c.1-.2.1-.5.2-.7l.9-2.3.8-.1zm-.3 1.6c0 .1.1.3.2.4l.3.3c.1.1.2.1.4.2s.3 0 .4 0c.2 0 .3-.1.4-.2l.3-.3c.1-.1.1-.2.2-.4v-.4c0-.2-.1-.3-.2-.4l-.3-.3c-.1-.1-.2-.1-.4-.2h-.4c-.2 0-.3.1-.4.2l-.3.3c-.1.1-.1.2-.2.4zm6.5-1.4.7-.1.1.6-.7.1.2 1.1-.7.1-.2-1.1-2.3.4-.1-.6 1.6-3.7.8-.2zm-1.1-2.4-1.2 2.8 1.6-.3zm3.5.8h.2c.1 0 .3-.1.4-.1.1-.1.2-.1.3-.2s.2-.2.2-.3.1-.3 0-.4c0-.1-.1-.2-.1-.3-.1-.1-.1-.2-.2-.2-.1-.1-.2-.1-.3-.1h-.3c-.2 0-.4.1-.5.3-.1.1-.2.3-.3.5l-.7-.3c.1-.3.2-.6.5-.8.2-.2.5-.4.9-.4h.6c.2 0 .4.1.5.2.2.1.3.2.4.4s.2.3.2.6v.4c0 .1-.1.3-.1.4-.1.1-.1.2-.2.3s-.2.2-.3.2c.2 0 .3 0 .4.1.1 0 .3.1.4.2l.3.3c.1.1.1.3.2.4v.7c-.1.2-.2.4-.3.5-.1.2-.3.3-.5.4-.2 0-.4.1-.6.1-.4.1-.8 0-1.1-.1s-.6-.4-.8-.7l.6-.3c.1.2.3.4.5.5s.4.1.7.1c.1 0 .3-.1.4-.1.1-.1.2-.1.3-.2s.1-.2.2-.3v-.4c0-.2-.1-.3-.2-.4s-.2-.2-.3-.2c-.1-.1-.3-.1-.4-.1h-.7zm4.1-.7 1.9-2.6 1-.2-2 2.8 3.1 2.3-1 .2-2.8-2.2.5 2.6-.7.1-.9-5.1.7-.1zm3.7-2.9 1.7-.3h.6c.2 0 .4 0 .5.1.2.1.3.2.4.3s.2.3.2.6c.1.3 0 .5-.1.8-.1.2-.3.4-.6.5h.5c.1 0 .3.1.4.2l.3.3c.1.1.1.3.2.5v.7c-.1.2-.2.4-.3.5s-.3.2-.5.3-.5.2-.7.2l-1.7.3zm1.1 2 .9-.2c.1 0 .3-.1.4-.1.1-.1.2-.1.3-.2s.1-.2.2-.3v-.4c0-.3-.2-.4-.4-.5s-.5-.1-.8 0l-.8.1zm.4 2.3.9-.2c.1 0 .3-.1.4-.1.1-.1.3-.1.4-.2s.2-.2.2-.3c.1-.1.1-.3 0-.4-.1-.3-.2-.5-.4-.6s-.5-.1-.9 0l-.9.2z" fill="#083b54"/><path d="m32.6 93.6-.6.2-.8-4.4.6-.1zm.4-4.6 1.3-.2c.2 0 .5-.1.7 0 .2 0 .4.1.5.1.2.1.3.2.4.3s.2.3.2.5v.6c-.1.2-.1.3-.3.4-.1.1-.3.2-.5.3s-.4.1-.6.2l-.7.2.3 1.9-.6.1zm.9 1.9.7-.1c.1 0 .3-.1.4-.1s.2-.1.3-.2.1-.2.2-.3v-.3c0-.1-.1-.2-.1-.3-.1-.1-.2-.1-.3-.2-.1 0-.2-.1-.3-.1h-.4l-.7.1zm4.2 1.8-.6.1-.8-4.4 2.8-.5.1.5-2.1.4.2 1.4 2-.4.1.5-2 .4zm4.5-4.6c-.1-.1-.2-.2-.4-.2-.2-.1-.3-.1-.5 0-.1 0-.2.1-.3.1s-.2.1-.3.2-.1.2-.2.3v.3c0 .1.1.2.1.3l.2.2c.1 0 .2.1.3.1s.2 0 .4.1c.2 0 .3 0 .5.1.2 0 .3.1.5.2.1.1.3.2.4.3s.2.3.2.5v.6c-.1.2-.1.3-.3.5s-.3.2-.4.3c-.2.1-.4.1-.6.2h-.8c-.2 0-.5-.2-.7-.4l.4-.5c.1.1.3.2.5.3s.4.1.6 0c.1 0 .2-.1.3-.1s.2-.1.3-.2.1-.2.2-.3v-.4c0-.1-.1-.2-.1-.3-.1-.1-.2-.1-.3-.2-.1 0-.2-.1-.4-.1-.1 0-.3 0-.4-.1-.1 0-.3 0-.4-.1-.1 0-.3-.1-.4-.2l-.3-.3c-.1-.1-.2-.3-.2-.5v-.6c.1-.2.2-.3.3-.5.1-.1.3-.2.4-.3.2-.1.3-.1.5-.2h.7c.2.1.4.1.6.3zm2.9-1.3.6-.1.3 1.8 2.2-.4-.3-1.8.6-.1.8 4.4-.6.1-.4-2-2.2.4.4 2-.6.1zm5.6 3.5-.7.1 1.1-4.7.6-.1 2.7 4.1-.7.1-.6-1-2.1.4zm.4-1.7 1.6-.3-1.1-1.9zm5.6-3.1c-.1-.1-.2-.2-.4-.2s-.3-.1-.5 0c-.1 0-.2.1-.3.1s-.2.1-.3.2-.1.2-.2.3v.3c0 .1.1.2.1.3l.2.2c.1 0 .2.1.3.1s.2 0 .4.1c.2 0 .3 0 .5.1.2 0 .3.1.5.2.1.1.3.2.4.3s.2.3.2.5v.6c-.1.2-.1.3-.3.5-.1.1-.3.2-.4.3-.2.1-.4.1-.6.2h-.8c-.3-.1-.5-.2-.7-.4l.4-.5c.1.1.3.2.5.3s.4.1.6 0c.1 0 .2-.1.3-.1s.2-.1.3-.2.1-.2.2-.3v-.4c0-.1-.1-.2-.1-.3-.1-.1-.2-.1-.3-.2-.1 0-.2-.1-.4-.1-.1 0-.3 0-.4-.1-.1 0-.3 0-.4-.1-.1 0-.3-.1-.4-.2l-.3-.3c-.1-.1-.2-.3-.2-.5v-.6c.1-.2.2-.3.3-.5.1-.1.3-.2.4-.3.2-.1.3-.1.5-.2h.7c.2.1.4.1.6.3zm1.3-1 .6-.1.3 1.8 2.2-.4-.3-1.8.6-.1.8 4.4-.6.1-.4-2-2.2.4.4 2-.6.1zm5.7.8c0 .1 0 .2-.1.3s-.2.2-.3.2-.2 0-.3-.1-.2-.2-.2-.3 0-.2.1-.3.2-.2.3-.2.2 0 .3.1.2.2.2.3zm.4 2.2c0 .1 0 .2-.1.3s-.2.2-.3.2-.2 0-.3-.1-.2-.2-.2-.3 0-.2.1-.3.2-.2.3-.2.2 0 .3.1.2.2.2.3z" fill="#6ac9d0"/><path d="m37.7 100.8-2.4.4c-.3.1-.6.1-.9 0s-.5-.2-.7-.3-.4-.3-.6-.6c-.2-.2-.3-.5-.3-.8-.1-.3-.1-.6 0-.9s.2-.5.3-.7l.6-.6c.2-.2.5-.3.8-.3.3-.1.6-.1.9 0s.5.2.7.3c.2.2.4.3.6.6.2.2.3.5.3.8.1.4 0 .7-.1 1s-.3.6-.5.8l1.1-.2zm-4.3-1.4c0 .2.1.4.2.6s.2.3.4.5.3.2.5.3c.2 0 .4.1.6 0 .2 0 .4-.1.6-.2s.3-.3.4-.4c.1-.2.2-.4.2-.6v-.6c0-.2-.1-.4-.2-.6s-.2-.3-.4-.5c-.2-.1-.3-.2-.5-.3s-.4-.1-.6 0c-.2 0-.4.1-.6.2s-.3.3-.4.4-.2.4-.2.6c-.1.2-.1.4 0 .6zm5.4-1.5c.1-.1.3-.2.5-.3h.5c.2.1.3.2.4.4.1-.2.2-.4.3-.5s.3-.2.5-.2h.5c.1 0 .3.1.4.2l.3.3c.1.1.1.3.1.4l.3 1.7-.6.1-.3-1.5c0-.1 0-.2-.1-.3 0-.1-.1-.2-.1-.2l-.2-.2h-.3c-.1 0-.2.1-.3.1l-.2.2c-.1.1-.1.2-.1.3v.3l.3 1.5-.5.1-.3-1.6c0-.1 0-.2-.1-.3s-.1-.2-.1-.2c-.1-.1-.1-.1-.2-.1h-.3c-.2 0-.4.1-.5.3s-.1.4-.1.7l.3 1.5-.5.1-.4-2.2c0-.1 0-.2-.1-.3 0-.1 0-.2-.1-.3l.5-.1c0 .1 0 .1.1.2v.2c.1-.1.2-.2.4-.3zm6 1.6-.6.1-.3-1.8-1.9-2 .7-.1 1.5 1.6.8-2.1.7-.1-1.1 2.6zm1.6-3.1 1 2 .3-2.2.6-.1 1 2 .2-2.2.6-.1-.4 2.9-.6.1-1-1.9-.3 2.1-.6.1-1.4-2.6zm5 1.9-.6.1 1-4.4.5-.1 2.5 3.8-.6.1-.6-.9-1.9.3zm.4-1.6 1.5-.3-1.1-1.8zm3-3.2 1.2-.2c.2 0 .4-.1.6 0 .2 0 .4.1.5.1.1.1.3.2.4.3s.2.3.2.5v.5c0 .2-.1.3-.2.4s-.3.2-.4.3c-.2.1-.4.1-.6.2l-.6.1.3 1.8-.6.1zm.9 1.7.6-.1c.1 0 .3-.1.4-.1s.2-.1.3-.2l.2-.2v-.3c0-.1-.1-.2-.1-.3l-.2-.2c-.1 0-.2-.1-.3-.1h-.4l-.6.1zm2.8.9c.1.1.1.3.3.3.1.1.3.1.4.1s.2-.1.3-.1l.2-.2v-.6l-.5-2.8.6-.1.5 2.8v.5c0 .2 0 .3-.1.5s-.2.3-.3.4-.3.2-.6.2c-.3.1-.6 0-.8-.1s-.4-.3-.5-.6zm4.5-2.2-1.3 2.1 1.6-.3.1.5-2.3.4-.1-.4 1.2-2.1-1.5.3-.1-.4 2.2-.4zm2.6 1.9-.6.1-1.6-2.5.6-.1 1.2 2 .4-2.3.6-.1zm3.5-4.3-1.7.3.2 1.1c.1 0 .2-.1.2-.1.1 0 .2-.1.3-.1h.6c.2 0 .3.1.5.2.1.1.3.2.4.4.1.1.2.3.2.5v.6c0 .2-.1.4-.2.5s-.2.3-.4.4-.3.2-.5.2c-.3.1-.6 0-.8-.1s-.4-.3-.6-.5l.5-.3c.1.2.2.3.4.3.2.1.3.1.5.1.1 0 .2-.1.3-.1.1-.1.2-.1.2-.2.1-.1.1-.2.1-.3v-.4c0-.2-.1-.3-.2-.4s-.2-.2-.3-.2c-.1-.1-.2-.1-.3-.1h-.4c-.2 0-.3.1-.5.1-.2.1-.3.2-.4.2l-.3-2.2 2.1-.4zm5.1 2.1c-.1.2-.3.5-.5.6-.2.2-.5.3-.9.4-.3.1-.6.1-.9 0s-.5-.2-.8-.3l-.6-.6c-.2-.2-.3-.5-.3-.8-.1-.3-.1-.6 0-.9s.2-.5.3-.8l.6-.6c.2-.2.5-.3.8-.3h.8c.1 0 .3.1.4.1.1.1.2.1.3.2l-.4.4c-.1-.1-.3-.2-.5-.3s-.4-.1-.6 0c-.2 0-.4.1-.6.2s-.3.3-.4.4c-.1.2-.2.4-.2.6v.7c0 .2.1.4.2.6s.2.3.4.5c.2.1.3.2.5.3s.4.1.7 0c.2 0 .4-.1.6-.3.2-.1.3-.3.4-.5zm3-3.6-1.8 3.5 2.3-.4.1.5-3 .5-.1-.5 1.8-3.5-2.3.4v-.5l3-.5zm2.7 1.1c-.1-.1-.2-.2-.3-.2s-.3-.1-.4 0c-.1 0-.1 0-.2.1h-.1l-.1.1v.2c0 .1.1.2.2.2s.3.1.5.1h.4c.1 0 .2.1.3.1s.2.1.2.2c.1.1.1.2.1.3v.4c0 .1-.1.2-.2.3s-.2.2-.3.2c-.1.1-.3.1-.4.1h-.6c-.2 0-.4-.1-.6-.3l.3-.4c.1.1.2.2.4.2.1 0 .3.1.4 0 .1 0 .1 0 .2-.1.1 0 .1-.1.2-.1l.1-.1v-.2c0-.1-.1-.2-.2-.3-.1 0-.3-.1-.6-.1h-.3c-.1 0-.2 0-.3-.1-.1 0-.2-.1-.2-.2-.1-.1-.1-.2-.1-.3v-.4c0-.1.1-.2.2-.3s.2-.2.3-.2c.1-.1.2-.1.4-.1h.6c.2 0 .4.1.5.3zm1.6-1c0 .1 0 .1.1.2v.2c0-.1.1-.2.1-.2 0-.1.1-.1.2-.2l.2-.2c.1 0 .2-.1.3-.1h.5c.1 0 .3.1.4.2l.3.3c.1.1.1.3.1.4l.3 1.7-.5.1-.3-1.5c0-.1 0-.2-.1-.3 0-.1-.1-.2-.1-.2l-.2-.2h-.3c-.2 0-.4.2-.5.3-.1.2-.1.4-.1.7l.3 1.5-.5.1-.4-2.1c0-.1 0-.2-.1-.3 0-.1 0-.2-.1-.3zm3.7 2.2-.6.1 1-4.4.5-.1 2.5 3.8-.6.1-.6-.9-1.9.3zm.3-1.6 1.5-.3-1-1.8zm4.1-1.7c.1 0 .1-.1.2-.1s.2-.1.3-.1h.5c.2 0 .3.1.5.2.1.1.3.2.3.4.1.1.2.3.2.5v.6c0 .2-.1.3-.2.5-.1.1-.2.3-.4.4s-.3.2-.5.2h-.6c-.2 0-.4-.1-.5-.2s-.3-.2-.4-.4-.2-.3-.2-.5v-.6c0-.2.1-.4.2-.6l.8-1.9.7-.1zm-.3 1.3c0 .1.1.2.1.3.1.1.1.2.2.2.1.1.2.1.3.1h.4c.1 0 .2-.1.3-.1.1-.1.2-.1.2-.2.1-.1.1-.2.1-.3v-.4c0-.1-.1-.2-.1-.3-.1-.1-.1-.2-.2-.2s-.2-.1-.3-.1h-.4c-.1 0-.2.1-.3.1-.1.1-.2.1-.2.2-.1.1-.1.2-.1.3zm5.9.2-2.7.5-.1-.5 1.3-1.9c.1-.1.2-.3.2-.5.1-.2.1-.3 0-.5 0-.1-.1-.2-.1-.3l-.2-.2c-.1 0-.2-.1-.3-.1h-.3c-.2 0-.4.1-.5.3s-.2.3-.2.6h-.6c0-.2 0-.3.1-.5.1-.1.1-.3.2-.4s.2-.2.4-.3c.1-.1.3-.1.5-.2h.5c.2 0 .3.1.5.1.1.1.3.2.4.3s.2.3.2.5v.4c0 .1 0 .2-.1.3 0 .1-.1.2-.2.3s-.1.2-.2.3l-1.1 1.5 2-.4zm2.6-4.2-1.7.3.2 1.1c.1 0 .2-.1.2-.1.1 0 .2-.1.3-.1h.6c.2 0 .3.1.5.2.1.1.3.2.4.4.1.1.2.3.2.5v.6c0 .2-.1.4-.2.5s-.2.3-.4.4-.3.2-.5.2c-.3.1-.6 0-.8-.1s-.4-.3-.6-.5l.5-.3c.1.2.2.3.4.3.2.1.3.1.5.1.1 0 .2-.1.3-.1.1-.1.2-.1.2-.2.1-.1.1-.2.1-.3v-.4c0-.2-.1-.3-.2-.4s-.2-.2-.3-.2c-.2-.2-.3-.2-.4-.2h-.4c-.2 0-.3.1-.5.1-.2.1-.3.2-.4.2l-.3-2.2 2.2-.4zm2.9 1.1c-.1-.1-.2-.2-.3-.2s-.3-.1-.4 0c-.1 0-.1 0-.2.1-.1 0-.1.1-.2.1l-.1.1v.2c0 .1.1.2.2.2s.3.1.5.1h.4c.1 0 .2.1.3.1s.2.1.2.2c.1.1.1.2.1.3v.4c0 .1-.1.2-.2.3s-.2.2-.3.2c-.1.1-.3.1-.4.1h-.6c-.2 0-.4-.1-.6-.3l.3-.4c.1.1.2.2.4.2.1 0 .3.1.4 0 .1 0 .1 0 .2-.1.1 0 .1-.1.2-.1l.1-.1v-.2c0-.1-.1-.2-.2-.3-.1 0-.3-.1-.6-.1h-.3c-.1 0-.2 0-.3-.1-.1 0-.2-.1-.2-.2-.1-.1-.1-.2-.1-.3v-.4c0-.1.1-.2.2-.3s.2-.2.3-.2c.1-.1.2-.1.4-.1h.6c.2 0 .4.1.5.3zm2-.7h.2c.1 0 .2-.1.3-.1s.2-.1.3-.2.1-.2.2-.2v-.3c0-.1-.1-.2-.1-.3l-.2-.2c-.1 0-.2-.1-.3-.1h-.3c-.2 0-.3.1-.4.2s-.2.2-.2.4l-.5-.1c.1-.3.2-.5.4-.7s.4-.3.7-.3h.5c.2 0 .3.1.4.1l.3.3c.1.1.2.3.2.5v.3c0 .1-.1.2-.1.3s-.1.2-.2.2c-.1.1-.2.1-.3.2.1 0 .2 0 .4.1.1 0 .2.1.3.2s.2.2.2.3c.1.1.1.2.1.4v.6c0 .2-.1.3-.2.4s-.2.2-.4.3-.3.1-.5.2c-.3.1-.6 0-.9-.1s-.5-.3-.7-.6l.5-.3c.1.2.2.3.4.4s.4.1.6.1c.1 0 .2-.1.3-.1.1-.1.2-.1.2-.2.1-.1.1-.2.1-.3v-.4c0-.1-.1-.3-.2-.3-.1-.1-.2-.1-.3-.2-.1 0-.2-.1-.4-.1h-.6zm4-.9.7-1.7.6-.1-1 2.2 2 1.8-.7.1-1.4-1.5-.8 1.9-.7.1 1.1-2.4-1.7-1.7.7-.1zm3.8-.4-.6.1.4 2.3-.5.1-.4-2.3-.5.1-.1-.4.5-.1-.1-.6v-.5c0-.1.1-.3.1-.4l.3-.3c.1-.1.3-.1.5-.2h.3v.5h-.2c-.1 0-.2.1-.2.1-.1 0-.1.1-.1.2v.4l.1.6.6-.1z" fill="#083b54"/><path d="m114 87.1-2.7.5-.1-.5 1.3-1.9c.1-.1.2-.3.2-.5.1-.2.1-.3 0-.5 0-.1-.1-.2-.1-.3l-.2-.2c-.1 0-.2-.1-.3-.1h-.3c-.2 0-.4.1-.5.3s-.2.3-.2.6h-.6c0-.2 0-.3.1-.5.1-.1.1-.3.2-.4s.2-.2.4-.3c.1-.1.3-.1.5-.2h.5c.2 0 .3.1.5.1.1.1.3.2.4.3s.2.3.2.5v.4c0 .1 0 .2-.1.3 0 .1-.1.2-.2.3s-.1.2-.2.3l-1.1 1.5 2-.4zm.8-3c0 .1 0 .1.1.2v.2c0-.1.1-.2.1-.2 0-.1.1-.1.2-.2l.2-.2c.1 0 .2-.1.3-.1h.5c.1 0 .3.1.4.2l.3.3c.1.1.1.3.1.4l.3 1.7-.5.1-.3-1.5c0-.1 0-.2-.1-.3 0-.1-.1-.2-.1-.2l-.2-.2h-.3c-.2 0-.4.2-.5.3-.1.2-.1.4-.1.7l.3 1.5-.5.1-.4-2.1c0-.1 0-.2-.1-.3 0-.1 0-.2-.1-.3zm5.8.4s0 .1 0 0v.2l-2.2.4c0 .1.1.2.1.3.1.1.1.2.2.2.1.1.2.1.3.1h.3c.2 0 .3-.1.5-.2.1-.1.2-.2.3-.4l.4.2c-.1.2-.3.4-.4.5l-.6.3h-.6c-.2 0-.4-.1-.5-.2s-.3-.2-.4-.4-.2-.4-.2-.6v-.6c0-.2.1-.4.2-.5.1-.2.2-.3.4-.4s.3-.2.5-.2h.6c.2 0 .3.1.5.2.1.1.3.2.3.4.2.3.3.5.3.7zm-.6-.1c0-.1-.1-.2-.1-.3s-.1-.2-.2-.2c-.1-.1-.2-.1-.3-.1h-.3c-.1 0-.2.1-.3.1-.1.1-.2.1-.2.2-.1.1-.1.2-.1.3v.3zm2.1-1.5c.1-.1.3-.2.5-.3h.5c.2.1.3.2.4.4.1-.2.2-.4.3-.5s.3-.2.5-.2h.5c.1 0 .3.1.4.2l.3.3c.1.1.1.3.1.4l.3 1.7-.5.1-.3-1.5c0-.1 0-.2-.1-.3 0-.1-.1-.2-.1-.2l-.2-.2h-.3c-.1 0-.2.1-.3.1l-.2.2c0 .1-.1.2-.1.3v.3l.3 1.5-.5.1-.3-1.6c0-.1 0-.2-.1-.3 0-.1-.1-.2-.1-.2-.1-.1-.1-.1-.2-.1h-.3c-.2 0-.4.1-.5.3s-.1.4-.1.7l.3 1.5-.5.1-.4-2.1c0-.1 0-.2-.1-.3 0-.1 0-.2-.1-.3l.5-.1c0 .1 0 .1.1.2v.2c.1-.1.2-.3.3-.4zm5.8-.6-.7.1.3 1.4c0 .2.1.3.2.3s.2.1.3.1h.2c.1 0 .1 0 .1-.1l.1.4c-.1 0-.1.1-.2.1s-.2 0-.2.1c-.3 0-.5 0-.6-.1-.2-.1-.3-.3-.3-.6l-.3-1.5-.5.1-.1-.4.5-.1-.1-.8.5-.1.1.8.7-.1zm2.5 1.9-.6.1-.3-1.8-1.9-2 .7-.1 1.5 1.6.8-2.1.7-.1-1.1 2.6zm2 .1c.1.1.3.2.5.2s.4.1.6 0c.2 0 .3-.1.4-.2l.3-.3c.1-.1.1-.2.1-.3v-.4l-.1-.4c-.1.2-.2.3-.3.4-.2.1-.3.2-.5.2h-.6c-.2 0-.3-.1-.5-.2-.1-.1-.3-.2-.4-.4s-.2-.3-.2-.5v-.6c0-.2.1-.4.2-.5.1-.2.2-.3.4-.4s.3-.2.5-.2h.6c.2 0 .4.2.5.3l-.1-.4.5-.1.5 2.6v.6c0 .2-.1.4-.2.5-.1.2-.2.3-.4.4s-.4.2-.7.3h-.7c-.3 0-.5-.1-.7-.3zm-.2-1.9c0 .1.1.2.1.4s.1.2.2.3.2.1.3.2h.4c.1 0 .3-.1.4-.1l.3-.3c.1-.1.1-.2.1-.3v-.4c0-.1-.1-.3-.1-.4-.1-.1-.1-.2-.2-.3s-.2-.1-.3-.2h-.4c-.1 0-.3.1-.4.1-.1.1-.2.2-.2.3-.1.1-.1.2-.1.3-.1.2-.1.3-.1.4zm2.9-3.3 1.2-.2c.2 0 .4-.1.6 0 .2 0 .4.1.5.1.1.1.3.2.4.3s.2.3.2.5v.5c0 .2-.1.3-.2.4s-.3.2-.4.3c-.2.1-.4.1-.6.2l-.6.1.3 1.8-.6.1zm.9 1.7.6-.1c.1 0 .3-.1.4-.1s.2-.1.3-.2l.2-.2v-.3c0-.1-.1-.2-.1-.3l-.2-.2c-.1 0-.2-.1-.3-.1h-.4l-.6.1zm4.1 3.1-.5.1-.7-4.1.5-.1.1.4c.1-.2.2-.3.3-.4.2-.1.3-.2.6-.2h.6c.2 0 .3.1.5.2.1.1.3.2.4.4s.2.3.2.5v.6c0 .2-.1.4-.2.5-.1.2-.2.3-.4.4s-.3.2-.5.2h-.6c-.2-.1-.3-.1-.5-.3zm1.3-3.1c0-.1-.1-.2-.1-.4-.1-.1-.1-.2-.2-.3s-.2-.1-.3-.2h-.4c-.1 0-.3.1-.4.1l-.3.3c-.1.1-.1.2-.1.4v.4c0 .1.1.3.1.4.1.1.1.2.2.3s.2.1.3.2h.4c.2 0 .3-.1.4-.2s.2-.2.2-.3c.1-.1.1-.2.1-.3.2-.2.2-.3.1-.4zm1-3 .6-.1.3 1.7 2.1-.4-.3-1.7.6-.1.7 4.1-.6.1-.3-1.9-2.1.4.3 1.9-.6.1zm7.2 2.5c-.1.2-.2.3-.4.5-.2.1-.3.2-.5.2h-.6c-.2 0-.3-.1-.5-.2-.1-.1-.3-.2-.4-.4s-.2-.3-.2-.5v-.6c0-.2.1-.4.2-.5.1-.2.2-.3.4-.4s.3-.2.5-.2h.6c.2.1.3.2.5.3l-.4-2 .5-.1.8 4.4-.5.1zm-2-.6c0 .1.1.2.1.4.1.1.1.2.2.3s.2.1.3.2h.4c.1 0 .3-.1.4-.1l.3-.3c.1-.1.1-.2.1-.3v-.4c0-.1-.1-.3-.1-.4-.1-.1-.1-.2-.2-.3s-.2-.1-.3-.2h-.4c-.2 0-.3.1-.4.2s-.2.2-.2.3c-.1.1-.1.2-.1.3-.1 0-.1.1-.1.3zm4.6-.3.4-3.4.6-.1 1.5 3.1.3-3.4.6-.1-.5 4.3-.6.1-1.6-3.1-.4 3.5-.6.1-1.9-3.9.6-.1zm5.4-.6 2.1-.4.1.5-2.7.5-.7-4.1 2.6-.5.1.5-2.1.4.2 1.2 1.9-.3.1.5-1.9.3zm-121.4 28-1.2 2.1 1.6-.3.1.5-2.3.4-.1-.4 1.2-2.1-1.5.3-.1-.4 2.2-.4zm3-1.9-1 3.9-.6.1 1.1-3.9-2 .4-.1-.5 2.6-.5zm2.9 1.5c-.1 0-.1.1-.2.1h-.7c-.2 0-.3-.1-.5-.2-.1-.1-.2-.2-.3-.4-.1-.1-.2-.3-.2-.5v-.6c0-.2.1-.3.2-.5.1-.1.2-.3.4-.4s.3-.2.5-.2h.6c.2 0 .4.1.5.2s.3.2.4.4.2.3.2.5v.6c0 .2-.1.4-.2.6l-.8 1.9-.7.1zm.2-1.3c0-.1-.1-.2-.1-.3-.1-.1-.1-.2-.2-.2-.1-.1-.2-.1-.3-.1h-.4c-.1 0-.2.1-.3.1-.1.1-.2.1-.2.2-.1.1-.1.2-.1.3v.4c0 .1.1.2.1.3.1.1.1.2.2.2.1.1.2.1.3.1h.4c.1 0 .2-.1.3-.1.1-.1.2-.1.2-.2.1-.1.1-.2.1-.3.1-.2.1-.3 0-.4zm4.4.8v.6c0 .2-.1.4-.2.5-.1.2-.2.3-.4.4s-.4.2-.6.2h-.6c-.2 0-.4-.1-.5-.2-.2-.1-.3-.2-.4-.4s-.2-.4-.2-.6v-.6c0-.2.1-.4.2-.5.1-.2.2-.3.4-.4s.4-.2.6-.2h.6c.2 0 .4.1.5.2.2.1.3.2.4.4 0 .2.1.3.2.6zm-.6.1c0-.1-.1-.3-.1-.4s-.1-.2-.2-.3-.2-.1-.3-.2h-.4c-.1 0-.3.1-.4.2s-.2.2-.2.3c-.1.1-.1.2-.1.3v.4c0 .1.1.3.1.4.1.1.1.2.2.3s.2.1.3.2h.4c.1 0 .3-.1.4-.2s.2-.2.2-.3c.1-.1.1-.2.1-.3zm1.6-2.8c0 .1 0 .2-.1.3s-.1.1-.2.1-.2 0-.3-.1l-.2-.2c0-.1 0-.2.1-.3s.1-.1.2-.1.2 0 .3.1.2.1.2.2zm-.4 4.9h.2c.1 0 .1 0 .2-.1l.1-.1v-.4l-.6-3.1.5-.1.6 3.1v.4c0 .1 0 .2-.1.4 0 .1-.1.2-.2.3s-.2.1-.4.2h-.4zm3-2.3.4-3.4.6-.1 1.5 3.1.3-3.4.6-.1-.5 4.3-.6.1-1.6-3.1-.4 3.5-.6.1-1.9-3.9.6-.1zm4.8-2.9c0 .1 0 .1.1.2v.2c0-.1.1-.2.1-.2 0-.1.1-.1.2-.2l.2-.2c.1 0 .2-.1.3-.1h.5c.1 0 .3.1.4.2l.3.3c.1.1.1.3.1.4l.3 1.7-.5.1-.3-1.5c0-.1 0-.2-.1-.3 0-.1-.1-.2-.1-.2l-.2-.2h-.3c-.2 0-.4.2-.5.3-.1.2-.1.4-.1.7l.3 1.5-.5.1-.4-2.1c0-.1 0-.2-.1-.3 0-.1 0-.2-.1-.3zm2.7-1.9 1.2-.2c.2 0 .4-.1.6 0 .2 0 .4.1.5.1.1.1.3.2.4.3s.2.3.2.5v.5c0 .2-.1.3-.2.4s-.3.2-.4.3c-.2.1-.4.1-.6.2l-.6.1.3 1.8-.6.1zm.9 1.8.6-.1c.1 0 .3-.1.4-.1s.2-.1.3-.2l.2-.2v-.3c0-.1-.1-.2-.1-.3l-.2-.2c-.1 0-.2-.1-.3-.1h-.4l-.6.1zm3.8 1.2.1.4-.5.1-.8-4.4.5-.1.4 2c.1-.2.2-.3.3-.4s.3-.2.6-.2h.6c.2 0 .3.1.5.2.1.1.3.2.4.4s.2.3.2.5v.6c0 .2-.1.4-.2.5-.1.2-.2.3-.4.4s-.3.2-.6.2h-.6c-.2 0-.4-.1-.5-.2zm1.6-1.3c0-.1-.1-.2-.1-.4-.1-.1-.1-.2-.2-.3s-.2-.1-.3-.2h-.4c-.1 0-.3.1-.4.1l-.3.3c-.1.1-.1.2-.1.4v.4c0 .1.1.3.1.4.1.1.1.2.2.3s.2.1.3.2h.4c.2 0 .3-.1.4-.2s.2-.2.2-.3c.1-.1.1-.2.1-.3.1-.1.1-.3.1-.4zm3.8.3c-.1.2-.2.3-.4.5-.2.1-.3.2-.5.2h-.6c-.2 0-.3-.1-.5-.2-.1-.1-.3-.2-.4-.4s-.2-.3-.2-.5v-.6c0-.2.1-.4.2-.5.1-.2.2-.3.4-.4s.3-.2.5-.2h.6c.2.1.3.2.5.3l-.4-2 .5-.1.8 4.4-.5.1zm-2-.6c0 .1.1.2.1.4.1.1.1.2.2.3s.2.1.3.2h.4c.1 0 .3-.1.4-.1l.3-.3c.1-.1.1-.2.1-.3v-.4c0-.1-.1-.3-.1-.4-.1-.1-.1-.2-.2-.3s-.2-.1-.3-.2h-.4c-.2 0-.3.1-.4.2s-.2.2-.2.3c-.1.1-.1.2-.1.3-.1 0-.1.2-.1.3zm6.2-3.1c-.1-.1-.3-.2-.5-.2h-.7c-.2 0-.4.1-.6.2s-.3.3-.4.4c-.1.2-.2.4-.2.6v.7c0 .2.1.4.2.6s.2.3.4.5c.2.1.3.2.6.3.2 0 .4.1.7 0 .2 0 .4-.1.5-.1.2-.1.3-.1.4-.2l-.2-1.1-.9.2-.1-.5 1.5-.3.4 2c-.2.2-.4.3-.7.4-.2.1-.5.2-.8.2-.3.1-.6.1-.9 0s-.5-.2-.8-.3l-.6-.6c-.2-.2-.3-.5-.3-.8-.1-.3-.1-.6 0-.9s.2-.5.3-.8l.6-.6c.2-.2.5-.3.8-.3.3-.1.6-.1.9 0s.5.1.7.3z" fill="#083b54"/><circle cx="144.8" cy="31.2" fill="#ffe5ca" r="6.8" stroke="#f59122" stroke-miterlimit="10"/><path d="m139 34.9c-2 2.6-3.1 4.7-2.6 5.1.8.8 5.2-2.6 9.9-7.5s7.8-9.5 7-10.2c-.5-.5-2.5.7-5.1 2.9" fill="none" opacity=".4" stroke="#f59122" stroke-miterlimit="10"/></svg>