<svg viewBox="0 0 132 132" xmlns="http://www.w3.org/2000/svg"><g stroke-linecap="round" stroke-miterlimit="10" stroke-width="2.5"><path d="m9.6 1.7h61.3v82.1h-61.3zm9.5 13.6h42.2m-42.2 11.6h42.2m-42.2 11.6h42.2m-42.2 11.6h42.2m-42.2 11.6h27.6" fill="#fff" stroke="#c3e9ec" stroke-linejoin="round"/><path d="m35.4 24.9h61.3v82.1h-61.3zm9.5 13.6h42.2m-42.2 11.6h42.2" fill="#fff" stroke="#91d5d9" stroke-linejoin="round"/><path d="m70.4 50.1h10.5" fill="none" stroke="#ef5034"/><path d="m44.9 61.7h42.2m-42.2 11.5h42.2m-42.2 11.7h27.6" fill="#fff" stroke="#91d5d9" stroke-linejoin="round"/><path d="m53.7 61.8h13.8" fill="none" stroke="#f59685"/><path d="m48.7 84.9h7.5" fill="none" stroke="#c0e869"/><path d="m70.7 108.1h42.2" fill="none" stroke="#f59122"/><path d="m61.1 48.1h61.3v82.1h-61.3z" fill="#fff" stroke="#6ac9d0" stroke-linejoin="round"/><g fill="none"><path d="m70.7 61.7h42.2" stroke="#6ac9d0" stroke-linejoin="round"/><path d="m78 61.7h20.3" stroke="#96d805"/><path d="m70.7 73.3h42.2" stroke="#6ac9d0" stroke-linejoin="round"/><path d="m89.3 73.3h9" stroke="#96d805"/><path d="m96.2 73.3h10.5" stroke="#ef5034"/><path d="m70.7 84.9h42.2m-42.2 11.5h42.2" stroke="#6ac9d0" stroke-linejoin="round"/><path d="m93.4 96.4h13.8" stroke="#96d805"/><path d="m70.7 108.1h27.6" stroke="#6ac9d0" stroke-linejoin="round"/><path d="m78.4 96.4h13.8" stroke="#ef5034"/><path d="m71.1 119.5h13.8m12.8-11.4h15.6" stroke="#96d805"/></g></g></svg>