<svg viewBox="0 0 138 131" xmlns="http://www.w3.org/2000/svg"><path d="m10.7 15.3c-6.7 1.9-10.2 8.5-8.4 14.9v.1c1.8 6.3 8.3 10.2 15.1 8.2 2-.6 3.7-1.5 5-2.8 1.4 0 8.9 1.7 8.9 1.7s-5-5.9-5.5-7.5c.5-2 .5-4.2-.1-6.3v-.1c-1.8-6.3-8.3-10.1-15-8.2z" fill="#fff" stroke="#fff" stroke-miterlimit="10" stroke-width="2.48"/><path d="m10.6 15.3c-6.7 1.9-10.2 8.5-8.4 14.9v.1c1.8 6.3 8.3 10.2 15.1 8.2 2-.6 3.7-1.5 5-2.8 1.4 0 8.9 1.7 8.9 1.7s-5-5.9-5.5-7.5c.5-2 .5-4.2-.1-6.3v-.1c-1.8-6.3-8.3-10.1-15-8.2z" style="fill:none;stroke:#6ac9d0;stroke-width:2.5;stroke-miterlimit:10;opacity:.6;stroke-linejoin:round"/><path d="m10.1 22.5c.2-.5.5-1 .8-1.4.4-.4.8-.7 1.3-.9s1.1-.3 1.7-.3 1.1.1 1.6.3.9.4 1.2.7.6.7.8 1.1.3 1 .3 1.5c0 .4 0 .7-.1 1s-.2.6-.4.8c-.1.2-.3.5-.5.7l-.6.6-.6.6c-.2.2-.4.4-.5.6-.2.2-.3.4-.4.7-.1.2-.1.5-.1.8 0 .4-.3.7-.7.7h-.1c-.4 0-.7-.3-.7-.7v-.2c0-.5.1-.9.3-1.3s.4-.7.6-1 .5-.5.7-.8c.3-.2.5-.5.7-.7.2-.3.4-.5.5-.9.1-.3.2-.7.2-1.1 0-.7-.3-1.2-.6-1.6-.4-.4-.9-.6-1.6-.6-.4 0-.8.1-1.1.2-.3.2-.6.4-.8.6-.2.3-.4.6-.5.9 0 .2-.1.4-.1.6 0 .3-.3.6-.7.6h-.2c-.4 0-.7-.4-.7-.8.1-.1.2-.4.3-.7zm4.7 10.5v.2c0 .5-.4.9-.9.9h-.2c-.5 0-.9-.4-.9-.9v-.2c0-.5.4-.9.9-.9h.2c.4-.1.9.4.9.9z" style="stroke-linejoin:round;fill:#083b54;stroke:#083b54;stroke-width:1.164;stroke-linecap:round;stroke-miterlimit:10"/><path d="m71.2 76.1c-6.7-.9-12.5 3.6-13.3 10v.1c-.3 2.1 0 4.2.7 6.1-.2 1.6-4.3 8-4.3 8s7-2.7 8.3-2.9c1.4 1.1 3.2 1.7 5.2 2 6.8 1 12.5-3.6 13.4-10v-.1c1-6.4-3.3-12.3-10-13.2z" fill="#fff"/><path d="m47.3 104.4-36.6-21.9m72.1-25.4-44.3-15.6 10 63.6" fill="none" opacity=".3" stroke="#6ac9d0" stroke-miterlimit="10" stroke-width="2.5"/><circle cx="9.5" cy="81.8" fill="#6ac9d0" r="5.4"/><path d="m47.7 105.7-25.2 18.6" fill="none" opacity=".3" stroke="#6ac9d0" stroke-miterlimit="10" stroke-width="2.5"/><circle cx="21.7" cy="124.9" fill="#6ac9d0" r="5.4"/><circle cx="82.8" cy="57.5" fill="#ef5034" r="7"/><circle cx="38.5" cy="41.5" fill="#083b54" r="5.4"/><circle cx="48.5" cy="105.1" fill="#f59122" r="5.4"/><path d="m71.2 76.1c-6.7-.9-12.5 3.6-13.3 10v.1c-.3 2.1 0 4.2.7 6.1-.2 1.6-4.3 8-4.3 8s7-2.7 8.3-2.9c1.4 1.1 3.2 1.7 5.2 2 6.8 1 12.5-3.6 13.4-10v-.1c1-6.4-3.3-12.3-10-13.2z" style="fill:none;stroke:#6ac9d0;stroke-width:2.5;stroke-miterlimit:10;opacity:.6;stroke-linejoin:round"/><path d="m65.5 83.9c.1-.5.3-1 .6-1.4s.7-.8 1.1-1.1c.5-.3 1-.5 1.6-.5.5-.1 1.1-.1 1.5 0 .5.1.9.3 1.3.5.4.3.7.6.9 1s.4.9.5 1.4v1c0 .3-.1.6-.2.8-.1.3-.2.5-.4.7s-.3.4-.5.7c-.2.2-.3.4-.5.6s-.3.4-.4.6-.2.5-.3.7c-.1.3-.1.5 0 .8.1.4-.2.7-.6.8h-.1c-.4.1-.7-.2-.8-.6v-.1c0-.5 0-.9.1-1.3s.3-.7.5-1 .4-.6.6-.8c.2-.3.4-.5.6-.8s.3-.6.4-.9.1-.7 0-1.1c-.1-.6-.4-1.1-.8-1.4s-.9-.4-1.6-.3c-.4.1-.8.2-1.1.4s-.5.4-.7.7-.3.6-.3 1v.6c0 .3-.2.6-.6.7h-.1c-.4.1-.8-.3-.8-.7s0-.7.1-1zm5.9 9.5v.1c.1.5-.3 1-.8 1h-.1c-.5.1-1-.3-1-.8v-.1c-.1-.5.3-1 .8-1h.1c.5-.1.9.3 1 .8z" style="stroke-linecap:round;stroke-miterlimit:10;fill:#083b54;stroke:#083b54;stroke-width:1.132;stroke-linejoin:round"/><path d="m113.9 2.1c-12.9-.4-22.8 9.4-23.1 21.6v.2c-.1 4.1.8 7.9 2.7 11.3-.1 3.1-4.9 14.9-4.9 14.9s11.1-5.5 13.7-6.1c2.9 1.7 6.5 2.6 10.3 2.7 13 .4 22.9-9.4 23.2-21.6v-.2c.2-12.2-9-22.4-21.9-22.8z" fill="#fff" stroke="#fff" stroke-linejoin="round" stroke-miterlimit="10" stroke-width="2.039"/><path d="m113.9 2.1c-12.9-.4-22.8 9.4-23.1 21.6v.2c-.1 4.1.8 7.9 2.7 11.3-.1 3.1-4.9 14.9-4.9 14.9s11.1-5.5 13.7-6.1c2.9 1.7 6.5 2.6 10.3 2.7 13 .4 22.9-9.4 23.2-21.6v-.2c.2-12.2-9-22.4-21.9-22.8z" style="fill:none;stroke:#6ac9d0;stroke-width:2.5;stroke-miterlimit:10;opacity:.6;stroke-linejoin:round"/><g fill="#083b54"><path d="m118.8 16.9c.4-.8.9-1.4 1.6-1.9.6-.5 1.4-.9 2.2-1.1s1.7-.2 2.7-.1c.9.1 1.6.4 2.3.7.7.4 1.2.8 1.7 1.4.4.6.8 1.2.9 1.9.2.7.2 1.5.1 2.4-.1.6-.2 1.1-.4 1.5s-.5.8-.7 1.1l-.9.9c-.3.3-.7.5-1 .8-.3.2-.7.5-1 .7s-.6.5-.9.8-.5.6-.7 1-.3.8-.4 1.3c-.1.6-.6 1-1.2.9h-.2c-.6-.1-1-.6-.9-1.2v-.2c.2-.8.4-1.4.7-1.9s.7-.9 1.1-1.3.9-.7 1.3-1c.5-.3.9-.6 1.3-1 .4-.3.7-.7 1-1.2.3-.4.5-1 .5-1.7.1-1-.1-1.9-.6-2.5-.5-.7-1.2-1.1-2.2-1.2-.7-.1-1.3-.1-1.8.1s-1 .4-1.4.8-.7.8-.9 1.3c-.1.3-.2.5-.3.8-.1.5-.7.9-1.2.8h-.2c-.6-.1-1.1-.7-.9-1.4 0-.6.2-1.1.4-1.5zm4.7 17.1v.2c-.1.8-.9 1.3-1.6 1.2h-.2c-.8-.1-1.3-.9-1.2-1.6v-.2c.1-.8.9-1.3 1.6-1.2h.2c.8.1 1.3.8 1.2 1.6z" stroke="#083b54" stroke-linecap="round" stroke-linejoin="round" stroke-miterlimit="10" stroke-width="1.166"/><path d="m106.9 28s0-.2.1-.4c0-.3.1-.6.1-1s0-.9-.1-1.3-.2-.8-.4-1l-.1-.1s-.1 0 0 0l-.1-.1c-.2-.1-.2-.1-.3-.1-.2-.1-.3-.1-.5-.1s-.3.1-.5.2-.3.3-.4.5c-.2.3-.4.7-.5.9l-.2.4s0-.1-.1-.4c0-.3-.1-.7 0-1.2.1-.2.2-.5.3-.8.2-.3.4-.6.8-.7.4-.2.8-.2 1.2-.2.2 0 .5.1.6.2h.2l.1.1.3.2c.4.3.6.6.8 1 .1.4.2.7.2 1.1 0 .3 0 .7-.1 1s-.2.6-.3.8c-.3.5-.5.8-.8.9-.1 0-.3.1-.3.1z"/><path d="m109.3 27s.2-.3.2-.9 0-1.4-.3-2.3-.8-2-1.6-2.7c-.4-.3-.9-.6-1.4-.7s-1.1 0-1.7.2c-.5.2-1 .6-1.3 1-.3.5-.5 1-.7 1.6-.2 1.1-.1 2.3.1 3.3s.6 1.7.9 2.2.5.8.5.8-.3-.2-.7-.7-.9-1.2-1.3-2.2-.7-2.2-.5-3.6c.1-.7.3-1.4.7-2.1s1.1-1.2 1.8-1.5 1.6-.4 2.3-.3c.8.1 1.5.5 2 1.1.5.5.9 1.1 1.1 1.7s.4 1.2.5 1.7c.1 1.1 0 2-.2 2.6-.1.3-.2.5-.3.6 0 .1-.1.2-.1.2zm-8.2-7.5v-.4c0-.1 0-.3.1-.5s.1-.4.3-.7c.1-.2.3-.5.4-.7.2-.2.4-.5.7-.7s.5-.4.8-.5c.3-.2.6-.3.9-.4s.7-.2 1-.2c.3-.1.7 0 1 0 .6.1 1.2.2 1.7.4l.6.3c.2.1.3.2.4.3l.3.3s-.2 0-.4-.1c-.3 0-.7-.1-1.1-.1h-1.5c-.5.1-1.1.1-1.6.3-.3.1-.5.2-.8.3s-.5.2-.7.3-.4.3-.6.4c-.2.2-.4.3-.5.4-.2.1-.3.3-.4.4s-.2.3-.3.4c-.2.3-.3.5-.3.5z"/><path d="m107.1 31.8s-.3.1-.7.3c-.2.1-.5.1-.9.2-.4 0-.8.1-1.2-.1-.5-.1-.9-.2-1.4-.5-.5-.2-.9-.6-1.4-1-.4-.4-.8-.8-1.2-1.3l-.9-1.5c-.5-1.1-.8-2.2-.9-3.4-.1-.6 0-1.1 0-1.6.1-.5.2-1 .3-1.4.2-.8.6-1.5.9-1.9s.5-.6.5-.6-.1.3-.2.7c-.1.5-.2 1.1-.2 1.9v1.3c0 .4.1.9.2 1.4s.2.9.4 1.4.4 1 .6 1.4c.2.5.5.9.7 1.3.1.2.3.4.4.6.2.2.3.4.4.6.3.3.6.7 1 .9.3.2.7.5 1 .6.3.2.7.2 1 .3.3 0 .6.1.8.1.5.3.8.3.8.3z"/><path d="m113.2 22.6s.2.3.4.9.4 1.4.4 2.5-.2 2.3-.8 3.6c-.3.6-.7 1.2-1.2 1.7-.3.3-.5.5-.8.7s-.5.5-.8.7c-1.1.9-2.3 1.6-3.5 2.1s-2.3.9-3.2 1.2-1.7.6-2.2.9-.7.6-.7.6 0-.1.1-.2.2-.4.4-.6c.4-.5 1.1-1 2-1.5s1.9-1 3-1.6 2.2-1.3 3.2-2.1c.3-.2.5-.4.7-.6s.5-.4.7-.6c.4-.4.8-.9 1.1-1.3.6-1 1-2 1.1-2.9.2-.9.2-1.8.2-2.3 0-.9-.1-1.2-.1-1.2z"/><path d="m115 28.9s0 .2.1.6c0 .2.1.4 0 .7 0 .3 0 .6-.1 1-.1.3-.2.8-.4 1.1-.2.4-.4.8-.7 1.1-.1.2-.3.4-.5.5-.2.2-.4.3-.5.5-.4.3-.8.6-1.2.8s-.8.5-1.3.6c-.4.2-.9.3-1.3.5-.8.3-1.7.4-2.3.5-1.4.2-2.3 0-2.3 0s.9-.4 2.1-.9 2.9-1.2 4.4-2.1c.3-.2.7-.4 1-.7.2-.1.3-.2.5-.4l.4-.4c.3-.2.5-.5.8-.8.2-.3.4-.6.6-.8.1-.3.2-.5.4-.8.1-.2.2-.5.2-.7 0-.1.1-.3.1-.3zm.2-2.5s0-.3-.1-.9v-1.1c-.1-.4-.1-.9-.2-1.3l-.3-1.5c-.1-.5-.4-1.1-.6-1.6-.3-.5-.5-1.1-.9-1.6-.3-.5-.8-1-1.2-1.4-.5-.4-.9-.8-1.5-1.1-.3-.2-.5-.3-.8-.4s-.5-.3-.8-.3c-.3-.1-.6-.2-.8-.3-.3 0-.6-.1-.8-.1-.3-.1-.5 0-.8-.1h-.7c-.5.1-.9.1-1.3.2s-.7.1-1 .3c-.5.2-.9.3-.9.3s.3-.2.7-.6c.2-.2.6-.4 1-.6s.9-.3 1.4-.5c.5-.1 1.1-.2 1.7-.2h1c.3 0 .7.1 1 .2s.7.2 1 .3l.5.2c.2.1.3.2.5.3.6.3 1.2.8 1.8 1.3.5.6 1 1.1 1.3 1.7.4.6.6 1.3.9 1.9.2.6.4 1.3.4 1.9s.1 1.2.1 1.7-.1 1-.1 1.4c-.1.4-.2.8-.2 1.1-.2.5-.3.8-.3.8z"/><path d="m114.4 15.3s-.3-.3-.8-.7c-.2-.3-.6-.5-1-.7-.2-.1-.4-.3-.6-.4s-.5-.2-.7-.3c-.5-.3-1.1-.4-1.7-.6-.6-.1-1.3-.3-2-.2-.7-.1-1.4.1-2.1.2-.3.1-.7.2-1 .3s-.7.3-1 .4-.6.3-.9.5l-.9.6c-.3.2-.5.5-.8.7-.2.3-.5.5-.7.8-.2.2-.4.6-.6.9s-.4.6-.5.8c-.2.6-.5 1.1-.7 1.7-.1.6-.3 1.1-.4 1.5-.1.5-.1.9-.2 1.2-.1.7-.2 1.1-.2 1.1s0-.4-.1-1.1v-1.3c0-.5.1-1 .2-1.6s.3-1.2.5-1.9c.1-.3.3-.6.5-1 .2-.3.3-.7.6-1 .2-.3.5-.6.7-1 .2-.3.6-.6.9-.9s.6-.5 1-.8c.4-.2.7-.5 1.1-.6.4-.2.8-.3 1.2-.5l1.2-.3c.8-.1 1.6-.2 2.4-.1.8 0 1.5.3 2.2.4.6.3 1.3.5 1.8.9.3.2.5.3.7.5s.4.4.6.5c.4.3.7.6.9.9.2.8.4 1.1.4 1.1zm-3 10.9v.4c0 .3-.1.7-.3 1.2-.1.3-.2.5-.4.7-.1.3-.4.5-.6.7s-.5.4-.8.6c-.3.1-.7.3-1 .4-.4.1-.7.1-1.1 0-.2 0-.4-.1-.5-.1-.2-.1-.3-.1-.5-.2-.3-.2-.6-.4-.8-.7-.1-.1-.2-.3-.3-.4s-.1-.3-.1-.4c0-.3-.1-.5 0-.8 0-.2.1-.4.2-.5.1-.3.2-.4.2-.4v.4c0 .1 0 .3.1.5 0 .2.1.3.2.5 0 .1.1.2.2.2.1.1.1.2.2.2l.6.3c.1 0 .2.1.3.1h.4c.2 0 .5 0 .7-.1.3 0 .5-.1.7-.2s.5-.2.7-.4.4-.3.6-.5.4-.3.5-.5.3-.3.4-.5.2-.3.3-.4zm-8.2 7.6s-.6.1-1.4-.2c-.4-.1-.9-.3-1.4-.6-.2-.2-.5-.3-.7-.5l-.6-.6c-.2-.2-.3-.5-.5-.7s-.3-.5-.4-.7c-.2-.3-.2-.5-.3-.7s-.1-.5-.1-.7c-.1-.4 0-.8 0-1v-.4s.1.1.2.3c.1.1.1.2.2.4.1.1.2.3.3.5s.2.4.3.5c.1.2.2.4.4.6.1.2.3.4.4.6.2.2.3.4.5.6.3.4.7.7 1 1s.7.6 1 .9c.6.4 1.1.7 1.1.7z"/><path d="m111.6 24.5v-1.1c0-.2-.1-.4-.1-.7-.1-.3-.1-.5-.2-.8s-.2-.6-.3-.8c-.1-.3-.3-.6-.4-.8-.1-.3-.4-.5-.6-.7s-.4-.4-.7-.6c-.2-.2-.5-.3-.8-.5-.3-.1-.5-.2-.8-.3-.3 0-.5-.2-.8-.2s-.5-.1-.7-.1h-.6c-.3 0-.5-.1-.5-.1s.2-.1.5-.2c.2-.1.3-.1.6-.2.2 0 .5-.1.8-.1.3-.1.6 0 .9 0s.7.1 1.1.2c.3.2.7.2 1.1.5.4.2.7.5 1 .8s.5.6.7 1c.2.3.3.7.4 1.1s.2.7.2 1v.9c-.1.6-.2 1-.3 1.3-.4.3-.5.4-.5.4zm-10.8 10.9s-.2.1-.5.2c-.3 0-.7-.1-1-.3-.1-.1-.3-.2-.4-.4-.1-.1-.2-.3-.2-.5-.1-.3 0-.6 0-.6s.3 0 .5.1c.3.1.5.2.8.3l.3.3c.1.1.2.2.2.4.2.2.3.5.3.5z"/></g></svg>