<svg viewBox="0 0 24 24" xmlns="http://www.w3.org/2000/svg"><path d="M8.266 20.496c8.015 0 12.401-6.647 12.401-12.402 0-.187 0-.374-.008-.56a8.88 8.88 0 002.176-2.262 8.834 8.834 0 01-2.508.689 4.385 4.385 0 001.921-2.414 8.67 8.67 0 01-2.77 1.054 4.35 4.35 0 00-3.18-1.377 4.364 4.364 0 00-4.36 4.36c0 .34.042.672.11.995a12.377 12.377 0 01-8.984-4.556 4.37 4.37 0 001.351 5.823A4.409 4.409 0 012.443 9.3v.06a4.368 4.368 0 003.494 4.275 4.25 4.25 0 01-1.148.153c-.28 0-.552-.025-.816-.076a4.358 4.358 0 004.072 3.026 8.742 8.742 0 01-5.415 1.87c-.348 0-.697-.017-1.037-.06a12.398 12.398 0 006.673 1.947z"/></svg>